M48
; DRILL file KiCad 10.0.4-1.fc44 date 2026-09-30T03:19:52
; FORMAT={-:-/ absolute / metric / decimal}
; #@! TF.CreationDate,2026-09-30T03:19:52+02:00
; #@! TF.GenerationSoftware,Kicad,Pcbnew,10.0.4-1.fc44
; #@! TF.FileFunction,MixedPlating,1,2
FMAT,2
METRIC
; #@! TA.AperFunction,Plated,PTH,ViaDrill
T1C0.300
; #@! TA.AperFunction,Plated,PTH,ComponentDrill
T2C0.800
; #@! TA.AperFunction,Plated,PTH,ComponentDrill
T3C1.020
; #@! TA.AperFunction,Plated,PTH,ComponentDrill
T4C1.200
; #@! TA.AperFunction,NonPlated,NPTH,ComponentDrill
T5C1.500
; #@! TA.AperFunction,NonPlated,NPTH,ComponentDrill
T6C1.800
; #@! TA.AperFunction,NonPlated,NPTH,ComponentDrill
T7C1.900
; #@! TA.AperFunction,NonPlated,NPTH,ComponentDrill
T8C3.450
%
G90
G05
T1
X-62.319Y-15.001
X-39.187Y-15.788
X44.554Y-15.001
T2
X-88.875Y13.07
X-88.875Y5.45
X-88.875Y-4.93
X-88.875Y-12.55
X-69.875Y22.97
X-69.875Y15.35
X-69.875Y4.97
X-69.875Y-2.65
X-51.652Y-47.593
X-50.875Y21.87
X-50.875Y14.25
X-50.875Y3.87
X-50.875Y-3.75
X-50.855Y-40.015
X-31.875Y13.07
X-31.875Y5.45
X-31.875Y-4.93
X-31.875Y-12.55
X-30.663Y-43.684
X-29.866Y-36.106
X-12.875Y13.07
X-12.875Y5.45
X-12.875Y-4.93
X-12.875Y-12.55
X-11.663Y-57.684
X-10.866Y-50.106
X10.866Y-50.106
X11.663Y-57.684
X29.866Y-36.106
X30.663Y-43.684
X31.125Y13.07
X31.125Y5.45
X31.125Y-4.93
X31.125Y-12.55
X50.125Y13.07
X50.125Y5.45
X50.125Y-4.93
X50.125Y-12.55
X50.855Y-40.015
X51.652Y-47.593
X69.125Y21.87
X69.125Y14.25
X69.125Y3.87
X69.125Y-3.75
X88.125Y22.97
X88.125Y15.35
X88.125Y4.97
X88.125Y-2.65
X107.125Y13.07
X107.125Y5.45
X107.125Y-4.93
X107.125Y-12.55
X124.625Y13.07
X124.625Y5.45
X124.625Y-4.93
X124.625Y-12.55
T3
X-8.89Y24.13
X-8.89Y21.59
X-8.89Y19.05
X-8.89Y16.51
X-8.89Y13.97
X-8.89Y11.43
X-8.89Y8.89
X-8.89Y6.35
X-8.89Y3.81
X-8.89Y1.27
X-8.89Y-1.27
X-8.89Y-3.81
X-8.89Y-6.35
X-8.89Y-8.89
X-8.89Y-11.43
X-8.89Y-13.97
X-8.89Y-16.51
X-8.89Y-19.05
X-8.89Y-21.59
X-8.89Y-24.13
X0.584Y-5.6
X3.124Y-5.6
X5.664Y-5.6
X8.89Y24.13
X8.89Y21.59
X8.89Y19.05
X8.89Y16.51
X8.89Y13.97
X8.89Y11.43
X8.89Y8.89
X8.89Y6.35
X8.89Y3.81
X8.89Y1.27
X8.89Y-1.27
X8.89Y-3.81
X8.89Y-6.35
X8.89Y-8.89
X8.89Y-11.43
X8.89Y-13.97
X8.89Y-16.51
X8.89Y-19.05
X8.89Y-21.59
X8.89Y-24.13
T4
X-98.0Y15.1
X-98.0Y-2.9
X-93.0Y13.0
X-93.0Y-5.0
X-79.0Y25.0
X-79.0Y7.0
X-74.0Y22.9
X-74.0Y4.9
X-60.0Y23.9
X-60.0Y5.9
X-59.383Y-38.832
X-55.0Y21.8
X-55.0Y3.8
X-54.63Y-41.443
X-41.0Y15.1
X-41.0Y-2.9
X-40.383Y-35.132
X-36.0Y13.0
X-36.0Y-5.0
X-35.63Y-37.743
X-22.0Y15.1
X-22.0Y-2.9
X-21.383Y-49.132
X-17.0Y13.0
X-17.0Y-5.0
X-16.63Y-51.743
X21.383Y-49.132
X22.0Y15.1
X22.0Y-2.9
X26.575Y-50.698
X27.0Y13.0
X27.0Y-5.0
X40.383Y-35.132
X41.0Y15.1
X41.0Y-2.9
X45.575Y-36.698
X46.0Y13.0
X46.0Y-5.0
X59.383Y-38.832
X60.0Y23.9
X60.0Y5.9
X64.575Y-40.398
X65.0Y21.8
X65.0Y3.8
X79.0Y25.0
X79.0Y7.0
X84.0Y22.9
X84.0Y4.9
X98.0Y15.1
X98.0Y-2.9
X103.0Y13.0
X103.0Y-5.0
X115.5Y15.1
X115.5Y-2.9
X120.5Y13.0
X120.5Y-5.0
T5
X-2.425Y20.97
X2.425Y20.97
T6
X-2.725Y24.0
X2.725Y24.0
T7
X-103.5Y9.2
X-103.5Y-8.8
X-92.5Y9.2
X-92.5Y-8.8
X-84.5Y19.1
X-84.5Y1.1
X-73.5Y19.1
X-73.5Y1.1
X-65.5Y18.0
X-65.5Y0.0
X-65.47Y-44.125
X-54.53Y-45.275
X-54.5Y18.0
X-54.5Y0.0
X-46.5Y9.2
X-46.5Y-8.8
X-46.47Y-40.425
X-35.53Y-41.575
X-35.5Y9.2
X-35.5Y-8.8
X-27.5Y9.2
X-27.5Y-8.8
X-27.47Y-54.425
X-16.53Y-55.575
X-16.5Y9.2
X-16.5Y-8.8
X16.5Y9.2
X16.5Y-8.8
X16.53Y-55.575
X27.47Y-54.425
X27.5Y9.2
X27.5Y-8.8
X35.5Y9.2
X35.5Y-8.8
X35.53Y-41.575
X46.47Y-40.425
X46.5Y9.2
X46.5Y-8.8
X54.5Y18.0
X54.5Y0.0
X54.53Y-45.275
X65.47Y-44.125
X65.5Y18.0
X65.5Y0.0
X73.5Y19.1
X73.5Y1.1
X84.5Y19.1
X84.5Y1.1
X92.5Y9.2
X92.5Y-8.8
X103.5Y9.2
X103.5Y-8.8
X110.0Y9.2
X110.0Y-8.8
X121.0Y9.2
X121.0Y-8.8
T8
X-98.0Y9.2
X-98.0Y-8.8
X-79.0Y19.1
X-79.0Y1.1
X-60.0Y18.0
X-60.0Y0.0
X-60.0Y-44.7
X-41.0Y9.2
X-41.0Y-8.8
X-41.0Y-41.0
X-22.0Y9.2
X-22.0Y-8.8
X-22.0Y-55.0
X22.0Y9.2
X22.0Y-8.8
X22.0Y-55.0
X41.0Y9.2
X41.0Y-8.8
X41.0Y-41.0
X60.0Y18.0
X60.0Y0.0
X60.0Y-44.7
X79.0Y19.1
X79.0Y1.1
X98.0Y9.2
X98.0Y-8.8
X115.5Y9.2
X115.5Y-8.8
M30
