%TF.GenerationSoftware,KiCad,Pcbnew,10.0.4-1.fc44*%
%TF.CreationDate,2026-09-30T02:39:01+02:00*%
%TF.ProjectId,bunnyboard_ergo,62756e6e-7962-46f6-9172-645f6572676f,rev?*%
%TF.SameCoordinates,Original*%
%TF.FileFunction,Other,ECO1*%
%FSLAX46Y46*%
G04 Gerber Fmt 4.6, Leading zero omitted, Abs format (unit mm)*
G04 Created by KiCad (PCBNEW 10.0.4-1.fc44) date 2026-09-30 02:39:01*
%MOMM*%
%LPD*%
G01*
G04 APERTURE LIST*
%ADD10C,0.100000*%
G04 APERTURE END LIST*
%TO.C,S18*%
D10*
X33750000Y-1550000D02*
X33750000Y-16050000D01*
X33750000Y-16050000D02*
X48250000Y-16050000D01*
X48250000Y-1550000D02*
X33750000Y-1550000D01*
X48250000Y-16050000D02*
X48250000Y-1550000D01*
%TO.C,S14*%
X-67250000Y7250000D02*
X-67250000Y-7250000D01*
X-67250000Y-7250000D02*
X-52750000Y-7250000D01*
X-52750000Y7250000D02*
X-67250000Y7250000D01*
X-52750000Y-7250000D02*
X-52750000Y7250000D01*
%TO.C,S9*%
X71750000Y26350000D02*
X71750000Y11850000D01*
X71750000Y11850000D02*
X86250000Y11850000D01*
X86250000Y26350000D02*
X71750000Y26350000D01*
X86250000Y11850000D02*
X86250000Y26350000D01*
%TO.C,S28*%
X52380500Y-51560628D02*
X66860628Y-52319500D01*
X53139372Y-37080500D02*
X52380500Y-51560628D01*
X66860628Y-52319500D02*
X67619500Y-37839372D01*
X67619500Y-37839372D02*
X53139372Y-37080500D01*
%TO.C,S7*%
X33750000Y16450000D02*
X33750000Y1950000D01*
X33750000Y1950000D02*
X48250000Y1950000D01*
X48250000Y16450000D02*
X33750000Y16450000D01*
X48250000Y1950000D02*
X48250000Y16450000D01*
%TO.C,S25*%
X-29619500Y-48139372D02*
X-28860628Y-62619500D01*
X-28860628Y-62619500D02*
X-14380500Y-61860628D01*
X-15139372Y-47380500D02*
X-29619500Y-48139372D01*
X-14380500Y-61860628D02*
X-15139372Y-47380500D01*
%TO.C,S27*%
X33380500Y-47860628D02*
X47860628Y-48619500D01*
X34139372Y-33380500D02*
X33380500Y-47860628D01*
X47860628Y-48619500D02*
X48619500Y-34139372D01*
X48619500Y-34139372D02*
X34139372Y-33380500D01*
%TO.C,S19*%
X52750000Y7250000D02*
X52750000Y-7250000D01*
X52750000Y-7250000D02*
X67250000Y-7250000D01*
X67250000Y7250000D02*
X52750000Y7250000D01*
X67250000Y-7250000D02*
X67250000Y7250000D01*
%TO.C,S16*%
X-29250000Y-1550000D02*
X-29250000Y-16050000D01*
X-29250000Y-16050000D02*
X-14750000Y-16050000D01*
X-14750000Y-1550000D02*
X-29250000Y-1550000D01*
X-14750000Y-16050000D02*
X-14750000Y-1550000D01*
%TO.C,S5*%
X-29250000Y16450000D02*
X-29250000Y1950000D01*
X-29250000Y1950000D02*
X-14750000Y1950000D01*
X-14750000Y16450000D02*
X-29250000Y16450000D01*
X-14750000Y1950000D02*
X-14750000Y16450000D01*
%TO.C,S8*%
X52750000Y25250000D02*
X52750000Y10750000D01*
X52750000Y10750000D02*
X67250000Y10750000D01*
X67250000Y25250000D02*
X52750000Y25250000D01*
X67250000Y10750000D02*
X67250000Y25250000D01*
%TO.C,S23*%
X-67619500Y-37839372D02*
X-66860628Y-52319500D01*
X-66860628Y-52319500D02*
X-52380500Y-51560628D01*
X-53139372Y-37080500D02*
X-67619500Y-37839372D01*
X-52380500Y-51560628D02*
X-53139372Y-37080500D01*
%TO.C,S3*%
X-67250000Y25250000D02*
X-67250000Y10750000D01*
X-67250000Y10750000D02*
X-52750000Y10750000D01*
X-52750000Y25250000D02*
X-67250000Y25250000D01*
X-52750000Y10750000D02*
X-52750000Y25250000D01*
%TO.C,S4*%
X-48250000Y16450000D02*
X-48250000Y1950000D01*
X-48250000Y1950000D02*
X-33750000Y1950000D01*
X-33750000Y16450000D02*
X-48250000Y16450000D01*
X-33750000Y1950000D02*
X-33750000Y16450000D01*
%TO.C,S13*%
X-86250000Y8350000D02*
X-86250000Y-6150000D01*
X-86250000Y-6150000D02*
X-71750000Y-6150000D01*
X-71750000Y8350000D02*
X-86250000Y8350000D01*
X-71750000Y-6150000D02*
X-71750000Y8350000D01*
%TO.C,S20*%
X71750000Y8350000D02*
X71750000Y-6150000D01*
X71750000Y-6150000D02*
X86250000Y-6150000D01*
X86250000Y8350000D02*
X71750000Y8350000D01*
X86250000Y-6150000D02*
X86250000Y8350000D01*
%TO.C,S21*%
X90750000Y-1550000D02*
X90750000Y-16050000D01*
X90750000Y-16050000D02*
X105250000Y-16050000D01*
X105250000Y-1550000D02*
X90750000Y-1550000D01*
X105250000Y-16050000D02*
X105250000Y-1550000D01*
%TO.C,S2*%
X-86250000Y26350000D02*
X-86250000Y11850000D01*
X-86250000Y11850000D02*
X-71750000Y11850000D01*
X-71750000Y26350000D02*
X-86250000Y26350000D01*
X-71750000Y11850000D02*
X-71750000Y26350000D01*
%TO.C,S12*%
X-105250000Y-1550000D02*
X-105250000Y-16050000D01*
X-105250000Y-16050000D02*
X-90750000Y-16050000D01*
X-90750000Y-1550000D02*
X-105250000Y-1550000D01*
X-90750000Y-16050000D02*
X-90750000Y-1550000D01*
%TO.C,S1*%
X-105250000Y16450000D02*
X-105250000Y1950000D01*
X-105250000Y1950000D02*
X-90750000Y1950000D01*
X-90750000Y16450000D02*
X-105250000Y16450000D01*
X-90750000Y1950000D02*
X-90750000Y16450000D01*
%TO.C,S11*%
X108250000Y16450000D02*
X108250000Y1950000D01*
X108250000Y1950000D02*
X122750000Y1950000D01*
X122750000Y16450000D02*
X108250000Y16450000D01*
X122750000Y1950000D02*
X122750000Y16450000D01*
%TO.C,S15*%
X-48250000Y-1550000D02*
X-48250000Y-16050000D01*
X-48250000Y-16050000D02*
X-33750000Y-16050000D01*
X-33750000Y-1550000D02*
X-48250000Y-1550000D01*
X-33750000Y-16050000D02*
X-33750000Y-1550000D01*
%TO.C,S10*%
X90750000Y16450000D02*
X90750000Y1950000D01*
X90750000Y1950000D02*
X105250000Y1950000D01*
X105250000Y16450000D02*
X90750000Y16450000D01*
X105250000Y1950000D02*
X105250000Y16450000D01*
%TO.C,S22*%
X108250000Y-1550000D02*
X108250000Y-16050000D01*
X108250000Y-16050000D02*
X122750000Y-16050000D01*
X122750000Y-1550000D02*
X108250000Y-1550000D01*
X122750000Y-16050000D02*
X122750000Y-1550000D01*
%TO.C,S6*%
X14750000Y16450000D02*
X14750000Y1950000D01*
X14750000Y1950000D02*
X29250000Y1950000D01*
X29250000Y16450000D02*
X14750000Y16450000D01*
X29250000Y1950000D02*
X29250000Y16450000D01*
%TO.C,S24*%
X-48619500Y-34139372D02*
X-47860628Y-48619500D01*
X-47860628Y-48619500D02*
X-33380500Y-47860628D01*
X-34139372Y-33380500D02*
X-48619500Y-34139372D01*
X-33380500Y-47860628D02*
X-34139372Y-33380500D01*
%TO.C,S17*%
X14750000Y-1550000D02*
X14750000Y-16050000D01*
X14750000Y-16050000D02*
X29250000Y-16050000D01*
X29250000Y-1550000D02*
X14750000Y-1550000D01*
X29250000Y-16050000D02*
X29250000Y-1550000D01*
%TO.C,S26*%
X14380500Y-61860628D02*
X28860628Y-62619500D01*
X15139372Y-47380500D02*
X14380500Y-61860628D01*
X28860628Y-62619500D02*
X29619500Y-48139372D01*
X29619500Y-48139372D02*
X15139372Y-47380500D01*
%TD*%
M02*
