%TF.GenerationSoftware,KiCad,Pcbnew,10.0.4-1.fc44*%
%TF.CreationDate,2026-09-30T03:07:22+02:00*%
%TF.ProjectId,bunnyboard_ergo,62756e6e-7962-46f6-9172-645f6572676f,rev?*%
%TF.SameCoordinates,Original*%
%TF.FileFunction,AssemblyDrawing,Top*%
%FSLAX46Y46*%
G04 Gerber Fmt 4.6, Leading zero omitted, Abs format (unit mm)*
G04 Created by KiCad (PCBNEW 10.0.4-1.fc44) date 2026-09-30 03:07:22*
%MOMM*%
%LPD*%
G01*
G04 APERTURE LIST*
%ADD10C,0.150000*%
%ADD11C,0.100000*%
%ADD12C,0.120000*%
G04 APERTURE END LIST*
D10*
X37595238Y-18254819D02*
X37595238Y-17254819D01*
X38166666Y-18254819D02*
X37738095Y-17683390D01*
X38166666Y-17254819D02*
X37595238Y-17826247D01*
X38976190Y-18207200D02*
X38880952Y-18254819D01*
X38880952Y-18254819D02*
X38690476Y-18254819D01*
X38690476Y-18254819D02*
X38595238Y-18207200D01*
X38595238Y-18207200D02*
X38547619Y-18111961D01*
X38547619Y-18111961D02*
X38547619Y-17731009D01*
X38547619Y-17731009D02*
X38595238Y-17635771D01*
X38595238Y-17635771D02*
X38690476Y-17588152D01*
X38690476Y-17588152D02*
X38880952Y-17588152D01*
X38880952Y-17588152D02*
X38976190Y-17635771D01*
X38976190Y-17635771D02*
X39023809Y-17731009D01*
X39023809Y-17731009D02*
X39023809Y-17826247D01*
X39023809Y-17826247D02*
X38547619Y-17921485D01*
X39357143Y-17588152D02*
X39595238Y-18254819D01*
X39833333Y-17588152D02*
X39595238Y-18254819D01*
X39595238Y-18254819D02*
X39500000Y-18492914D01*
X39500000Y-18492914D02*
X39452381Y-18540533D01*
X39452381Y-18540533D02*
X39357143Y-18588152D01*
X40166667Y-18207200D02*
X40261905Y-18254819D01*
X40261905Y-18254819D02*
X40452381Y-18254819D01*
X40452381Y-18254819D02*
X40547619Y-18207200D01*
X40547619Y-18207200D02*
X40595238Y-18111961D01*
X40595238Y-18111961D02*
X40595238Y-18064342D01*
X40595238Y-18064342D02*
X40547619Y-17969104D01*
X40547619Y-17969104D02*
X40452381Y-17921485D01*
X40452381Y-17921485D02*
X40309524Y-17921485D01*
X40309524Y-17921485D02*
X40214286Y-17873866D01*
X40214286Y-17873866D02*
X40166667Y-17778628D01*
X40166667Y-17778628D02*
X40166667Y-17731009D01*
X40166667Y-17731009D02*
X40214286Y-17635771D01*
X40214286Y-17635771D02*
X40309524Y-17588152D01*
X40309524Y-17588152D02*
X40452381Y-17588152D01*
X40452381Y-17588152D02*
X40547619Y-17635771D01*
X40928572Y-17588152D02*
X41119048Y-18254819D01*
X41119048Y-18254819D02*
X41309524Y-17778628D01*
X41309524Y-17778628D02*
X41500000Y-18254819D01*
X41500000Y-18254819D02*
X41690476Y-17588152D01*
X42071429Y-18254819D02*
X42071429Y-17588152D01*
X42071429Y-17254819D02*
X42023810Y-17302438D01*
X42023810Y-17302438D02*
X42071429Y-17350057D01*
X42071429Y-17350057D02*
X42119048Y-17302438D01*
X42119048Y-17302438D02*
X42071429Y-17254819D01*
X42071429Y-17254819D02*
X42071429Y-17350057D01*
X42404762Y-17588152D02*
X42785714Y-17588152D01*
X42547619Y-17254819D02*
X42547619Y-18111961D01*
X42547619Y-18111961D02*
X42595238Y-18207200D01*
X42595238Y-18207200D02*
X42690476Y-18254819D01*
X42690476Y-18254819D02*
X42785714Y-18254819D01*
X43547619Y-18207200D02*
X43452381Y-18254819D01*
X43452381Y-18254819D02*
X43261905Y-18254819D01*
X43261905Y-18254819D02*
X43166667Y-18207200D01*
X43166667Y-18207200D02*
X43119048Y-18159580D01*
X43119048Y-18159580D02*
X43071429Y-18064342D01*
X43071429Y-18064342D02*
X43071429Y-17778628D01*
X43071429Y-17778628D02*
X43119048Y-17683390D01*
X43119048Y-17683390D02*
X43166667Y-17635771D01*
X43166667Y-17635771D02*
X43261905Y-17588152D01*
X43261905Y-17588152D02*
X43452381Y-17588152D01*
X43452381Y-17588152D02*
X43547619Y-17635771D01*
X43976191Y-18254819D02*
X43976191Y-17254819D01*
X44404762Y-18254819D02*
X44404762Y-17731009D01*
X44404762Y-17731009D02*
X44357143Y-17635771D01*
X44357143Y-17635771D02*
X44261905Y-17588152D01*
X44261905Y-17588152D02*
X44119048Y-17588152D01*
X44119048Y-17588152D02*
X44023810Y-17635771D01*
X44023810Y-17635771D02*
X43976191Y-17683390D01*
X39761905Y-9207200D02*
X39904762Y-9254819D01*
X39904762Y-9254819D02*
X40142857Y-9254819D01*
X40142857Y-9254819D02*
X40238095Y-9207200D01*
X40238095Y-9207200D02*
X40285714Y-9159580D01*
X40285714Y-9159580D02*
X40333333Y-9064342D01*
X40333333Y-9064342D02*
X40333333Y-8969104D01*
X40333333Y-8969104D02*
X40285714Y-8873866D01*
X40285714Y-8873866D02*
X40238095Y-8826247D01*
X40238095Y-8826247D02*
X40142857Y-8778628D01*
X40142857Y-8778628D02*
X39952381Y-8731009D01*
X39952381Y-8731009D02*
X39857143Y-8683390D01*
X39857143Y-8683390D02*
X39809524Y-8635771D01*
X39809524Y-8635771D02*
X39761905Y-8540533D01*
X39761905Y-8540533D02*
X39761905Y-8445295D01*
X39761905Y-8445295D02*
X39809524Y-8350057D01*
X39809524Y-8350057D02*
X39857143Y-8302438D01*
X39857143Y-8302438D02*
X39952381Y-8254819D01*
X39952381Y-8254819D02*
X40190476Y-8254819D01*
X40190476Y-8254819D02*
X40333333Y-8302438D01*
X41285714Y-9254819D02*
X40714286Y-9254819D01*
X41000000Y-9254819D02*
X41000000Y-8254819D01*
X41000000Y-8254819D02*
X40904762Y-8397676D01*
X40904762Y-8397676D02*
X40809524Y-8492914D01*
X40809524Y-8492914D02*
X40714286Y-8540533D01*
X41857143Y-8683390D02*
X41761905Y-8635771D01*
X41761905Y-8635771D02*
X41714286Y-8588152D01*
X41714286Y-8588152D02*
X41666667Y-8492914D01*
X41666667Y-8492914D02*
X41666667Y-8445295D01*
X41666667Y-8445295D02*
X41714286Y-8350057D01*
X41714286Y-8350057D02*
X41761905Y-8302438D01*
X41761905Y-8302438D02*
X41857143Y-8254819D01*
X41857143Y-8254819D02*
X42047619Y-8254819D01*
X42047619Y-8254819D02*
X42142857Y-8302438D01*
X42142857Y-8302438D02*
X42190476Y-8350057D01*
X42190476Y-8350057D02*
X42238095Y-8445295D01*
X42238095Y-8445295D02*
X42238095Y-8492914D01*
X42238095Y-8492914D02*
X42190476Y-8588152D01*
X42190476Y-8588152D02*
X42142857Y-8635771D01*
X42142857Y-8635771D02*
X42047619Y-8683390D01*
X42047619Y-8683390D02*
X41857143Y-8683390D01*
X41857143Y-8683390D02*
X41761905Y-8731009D01*
X41761905Y-8731009D02*
X41714286Y-8778628D01*
X41714286Y-8778628D02*
X41666667Y-8873866D01*
X41666667Y-8873866D02*
X41666667Y-9064342D01*
X41666667Y-9064342D02*
X41714286Y-9159580D01*
X41714286Y-9159580D02*
X41761905Y-9207200D01*
X41761905Y-9207200D02*
X41857143Y-9254819D01*
X41857143Y-9254819D02*
X42047619Y-9254819D01*
X42047619Y-9254819D02*
X42142857Y-9207200D01*
X42142857Y-9207200D02*
X42190476Y-9159580D01*
X42190476Y-9159580D02*
X42238095Y-9064342D01*
X42238095Y-9064342D02*
X42238095Y-8873866D01*
X42238095Y-8873866D02*
X42190476Y-8778628D01*
X42190476Y-8778628D02*
X42142857Y-8731009D01*
X42142857Y-8731009D02*
X42047619Y-8683390D01*
X-1380951Y-2613819D02*
X-1380951Y-1613819D01*
X-1380951Y-1613819D02*
X-999999Y-1613819D01*
X-999999Y-1613819D02*
X-904761Y-1661438D01*
X-904761Y-1661438D02*
X-857142Y-1709057D01*
X-857142Y-1709057D02*
X-809523Y-1804295D01*
X-809523Y-1804295D02*
X-809523Y-1947152D01*
X-809523Y-1947152D02*
X-857142Y-2042390D01*
X-857142Y-2042390D02*
X-904761Y-2090009D01*
X-904761Y-2090009D02*
X-999999Y-2137628D01*
X-999999Y-2137628D02*
X-1380951Y-2137628D01*
X-380951Y-2613819D02*
X-380951Y-1947152D01*
X-380951Y-1613819D02*
X-428570Y-1661438D01*
X-428570Y-1661438D02*
X-380951Y-1709057D01*
X-380951Y-1709057D02*
X-333332Y-1661438D01*
X-333332Y-1661438D02*
X-380951Y-1613819D01*
X-380951Y-1613819D02*
X-380951Y-1709057D01*
X523809Y-2566200D02*
X428571Y-2613819D01*
X428571Y-2613819D02*
X238095Y-2613819D01*
X238095Y-2613819D02*
X142857Y-2566200D01*
X142857Y-2566200D02*
X95238Y-2518580D01*
X95238Y-2518580D02*
X47619Y-2423342D01*
X47619Y-2423342D02*
X47619Y-2137628D01*
X47619Y-2137628D02*
X95238Y-2042390D01*
X95238Y-2042390D02*
X142857Y-1994771D01*
X142857Y-1994771D02*
X238095Y-1947152D01*
X238095Y-1947152D02*
X428571Y-1947152D01*
X428571Y-1947152D02*
X523809Y-1994771D01*
X1095238Y-2613819D02*
X1000000Y-2566200D01*
X1000000Y-2566200D02*
X952381Y-2518580D01*
X952381Y-2518580D02*
X904762Y-2423342D01*
X904762Y-2423342D02*
X904762Y-2137628D01*
X904762Y-2137628D02*
X952381Y-2042390D01*
X952381Y-2042390D02*
X1000000Y-1994771D01*
X1000000Y-1994771D02*
X1095238Y-1947152D01*
X1095238Y-1947152D02*
X1238095Y-1947152D01*
X1238095Y-1947152D02*
X1333333Y-1994771D01*
X1333333Y-1994771D02*
X1380952Y-2042390D01*
X1380952Y-2042390D02*
X1428571Y-2137628D01*
X1428571Y-2137628D02*
X1428571Y-2423342D01*
X1428571Y-2423342D02*
X1380952Y-2518580D01*
X1380952Y-2518580D02*
X1333333Y-2566200D01*
X1333333Y-2566200D02*
X1238095Y-2613819D01*
X1238095Y-2613819D02*
X1095238Y-2613819D01*
X-761904Y545180D02*
X-761904Y-264342D01*
X-761904Y-264342D02*
X-714285Y-359580D01*
X-714285Y-359580D02*
X-666666Y-407200D01*
X-666666Y-407200D02*
X-571428Y-454819D01*
X-571428Y-454819D02*
X-380952Y-454819D01*
X-380952Y-454819D02*
X-285714Y-407200D01*
X-285714Y-407200D02*
X-238095Y-359580D01*
X-238095Y-359580D02*
X-190476Y-264342D01*
X-190476Y-264342D02*
X-190476Y545180D01*
X238095Y449942D02*
X285714Y497561D01*
X285714Y497561D02*
X380952Y545180D01*
X380952Y545180D02*
X619047Y545180D01*
X619047Y545180D02*
X714285Y497561D01*
X714285Y497561D02*
X761904Y449942D01*
X761904Y449942D02*
X809523Y354704D01*
X809523Y354704D02*
X809523Y259466D01*
X809523Y259466D02*
X761904Y116609D01*
X761904Y116609D02*
X190476Y-454819D01*
X190476Y-454819D02*
X809523Y-454819D01*
X-63404761Y-9454819D02*
X-63404761Y-8454819D01*
X-62833333Y-9454819D02*
X-63261904Y-8883390D01*
X-62833333Y-8454819D02*
X-63404761Y-9026247D01*
X-62023809Y-9407200D02*
X-62119047Y-9454819D01*
X-62119047Y-9454819D02*
X-62309523Y-9454819D01*
X-62309523Y-9454819D02*
X-62404761Y-9407200D01*
X-62404761Y-9407200D02*
X-62452380Y-9311961D01*
X-62452380Y-9311961D02*
X-62452380Y-8931009D01*
X-62452380Y-8931009D02*
X-62404761Y-8835771D01*
X-62404761Y-8835771D02*
X-62309523Y-8788152D01*
X-62309523Y-8788152D02*
X-62119047Y-8788152D01*
X-62119047Y-8788152D02*
X-62023809Y-8835771D01*
X-62023809Y-8835771D02*
X-61976190Y-8931009D01*
X-61976190Y-8931009D02*
X-61976190Y-9026247D01*
X-61976190Y-9026247D02*
X-62452380Y-9121485D01*
X-61642856Y-8788152D02*
X-61404761Y-9454819D01*
X-61166666Y-8788152D02*
X-61404761Y-9454819D01*
X-61404761Y-9454819D02*
X-61499999Y-9692914D01*
X-61499999Y-9692914D02*
X-61547618Y-9740533D01*
X-61547618Y-9740533D02*
X-61642856Y-9788152D01*
X-60833332Y-9407200D02*
X-60738094Y-9454819D01*
X-60738094Y-9454819D02*
X-60547618Y-9454819D01*
X-60547618Y-9454819D02*
X-60452380Y-9407200D01*
X-60452380Y-9407200D02*
X-60404761Y-9311961D01*
X-60404761Y-9311961D02*
X-60404761Y-9264342D01*
X-60404761Y-9264342D02*
X-60452380Y-9169104D01*
X-60452380Y-9169104D02*
X-60547618Y-9121485D01*
X-60547618Y-9121485D02*
X-60690475Y-9121485D01*
X-60690475Y-9121485D02*
X-60785713Y-9073866D01*
X-60785713Y-9073866D02*
X-60833332Y-8978628D01*
X-60833332Y-8978628D02*
X-60833332Y-8931009D01*
X-60833332Y-8931009D02*
X-60785713Y-8835771D01*
X-60785713Y-8835771D02*
X-60690475Y-8788152D01*
X-60690475Y-8788152D02*
X-60547618Y-8788152D01*
X-60547618Y-8788152D02*
X-60452380Y-8835771D01*
X-60071427Y-8788152D02*
X-59880951Y-9454819D01*
X-59880951Y-9454819D02*
X-59690475Y-8978628D01*
X-59690475Y-8978628D02*
X-59499999Y-9454819D01*
X-59499999Y-9454819D02*
X-59309523Y-8788152D01*
X-58928570Y-9454819D02*
X-58928570Y-8788152D01*
X-58928570Y-8454819D02*
X-58976189Y-8502438D01*
X-58976189Y-8502438D02*
X-58928570Y-8550057D01*
X-58928570Y-8550057D02*
X-58880951Y-8502438D01*
X-58880951Y-8502438D02*
X-58928570Y-8454819D01*
X-58928570Y-8454819D02*
X-58928570Y-8550057D01*
X-58595237Y-8788152D02*
X-58214285Y-8788152D01*
X-58452380Y-8454819D02*
X-58452380Y-9311961D01*
X-58452380Y-9311961D02*
X-58404761Y-9407200D01*
X-58404761Y-9407200D02*
X-58309523Y-9454819D01*
X-58309523Y-9454819D02*
X-58214285Y-9454819D01*
X-57452380Y-9407200D02*
X-57547618Y-9454819D01*
X-57547618Y-9454819D02*
X-57738094Y-9454819D01*
X-57738094Y-9454819D02*
X-57833332Y-9407200D01*
X-57833332Y-9407200D02*
X-57880951Y-9359580D01*
X-57880951Y-9359580D02*
X-57928570Y-9264342D01*
X-57928570Y-9264342D02*
X-57928570Y-8978628D01*
X-57928570Y-8978628D02*
X-57880951Y-8883390D01*
X-57880951Y-8883390D02*
X-57833332Y-8835771D01*
X-57833332Y-8835771D02*
X-57738094Y-8788152D01*
X-57738094Y-8788152D02*
X-57547618Y-8788152D01*
X-57547618Y-8788152D02*
X-57452380Y-8835771D01*
X-57023808Y-9454819D02*
X-57023808Y-8454819D01*
X-56595237Y-9454819D02*
X-56595237Y-8931009D01*
X-56595237Y-8931009D02*
X-56642856Y-8835771D01*
X-56642856Y-8835771D02*
X-56738094Y-8788152D01*
X-56738094Y-8788152D02*
X-56880951Y-8788152D01*
X-56880951Y-8788152D02*
X-56976189Y-8835771D01*
X-56976189Y-8835771D02*
X-57023808Y-8883390D01*
X-61238094Y-407200D02*
X-61095237Y-454819D01*
X-61095237Y-454819D02*
X-60857142Y-454819D01*
X-60857142Y-454819D02*
X-60761904Y-407200D01*
X-60761904Y-407200D02*
X-60714285Y-359580D01*
X-60714285Y-359580D02*
X-60666666Y-264342D01*
X-60666666Y-264342D02*
X-60666666Y-169104D01*
X-60666666Y-169104D02*
X-60714285Y-73866D01*
X-60714285Y-73866D02*
X-60761904Y-26247D01*
X-60761904Y-26247D02*
X-60857142Y21371D01*
X-60857142Y21371D02*
X-61047618Y68990D01*
X-61047618Y68990D02*
X-61142856Y116609D01*
X-61142856Y116609D02*
X-61190475Y164228D01*
X-61190475Y164228D02*
X-61238094Y259466D01*
X-61238094Y259466D02*
X-61238094Y354704D01*
X-61238094Y354704D02*
X-61190475Y449942D01*
X-61190475Y449942D02*
X-61142856Y497561D01*
X-61142856Y497561D02*
X-61047618Y545180D01*
X-61047618Y545180D02*
X-60809523Y545180D01*
X-60809523Y545180D02*
X-60666666Y497561D01*
X-59714285Y-454819D02*
X-60285713Y-454819D01*
X-59999999Y-454819D02*
X-59999999Y545180D01*
X-59999999Y545180D02*
X-60095237Y402323D01*
X-60095237Y402323D02*
X-60190475Y307085D01*
X-60190475Y307085D02*
X-60285713Y259466D01*
X-58857142Y211847D02*
X-58857142Y-454819D01*
X-59095237Y592800D02*
X-59333332Y-121485D01*
X-59333332Y-121485D02*
X-58714285Y-121485D01*
X75595238Y9645180D02*
X75595238Y10645180D01*
X76166666Y9645180D02*
X75738095Y10216609D01*
X76166666Y10645180D02*
X75595238Y10073752D01*
X76976190Y9692800D02*
X76880952Y9645180D01*
X76880952Y9645180D02*
X76690476Y9645180D01*
X76690476Y9645180D02*
X76595238Y9692800D01*
X76595238Y9692800D02*
X76547619Y9788038D01*
X76547619Y9788038D02*
X76547619Y10168990D01*
X76547619Y10168990D02*
X76595238Y10264228D01*
X76595238Y10264228D02*
X76690476Y10311847D01*
X76690476Y10311847D02*
X76880952Y10311847D01*
X76880952Y10311847D02*
X76976190Y10264228D01*
X76976190Y10264228D02*
X77023809Y10168990D01*
X77023809Y10168990D02*
X77023809Y10073752D01*
X77023809Y10073752D02*
X76547619Y9978514D01*
X77357143Y10311847D02*
X77595238Y9645180D01*
X77833333Y10311847D02*
X77595238Y9645180D01*
X77595238Y9645180D02*
X77500000Y9407085D01*
X77500000Y9407085D02*
X77452381Y9359466D01*
X77452381Y9359466D02*
X77357143Y9311847D01*
X78166667Y9692800D02*
X78261905Y9645180D01*
X78261905Y9645180D02*
X78452381Y9645180D01*
X78452381Y9645180D02*
X78547619Y9692800D01*
X78547619Y9692800D02*
X78595238Y9788038D01*
X78595238Y9788038D02*
X78595238Y9835657D01*
X78595238Y9835657D02*
X78547619Y9930895D01*
X78547619Y9930895D02*
X78452381Y9978514D01*
X78452381Y9978514D02*
X78309524Y9978514D01*
X78309524Y9978514D02*
X78214286Y10026133D01*
X78214286Y10026133D02*
X78166667Y10121371D01*
X78166667Y10121371D02*
X78166667Y10168990D01*
X78166667Y10168990D02*
X78214286Y10264228D01*
X78214286Y10264228D02*
X78309524Y10311847D01*
X78309524Y10311847D02*
X78452381Y10311847D01*
X78452381Y10311847D02*
X78547619Y10264228D01*
X78928572Y10311847D02*
X79119048Y9645180D01*
X79119048Y9645180D02*
X79309524Y10121371D01*
X79309524Y10121371D02*
X79500000Y9645180D01*
X79500000Y9645180D02*
X79690476Y10311847D01*
X80071429Y9645180D02*
X80071429Y10311847D01*
X80071429Y10645180D02*
X80023810Y10597561D01*
X80023810Y10597561D02*
X80071429Y10549942D01*
X80071429Y10549942D02*
X80119048Y10597561D01*
X80119048Y10597561D02*
X80071429Y10645180D01*
X80071429Y10645180D02*
X80071429Y10549942D01*
X80404762Y10311847D02*
X80785714Y10311847D01*
X80547619Y10645180D02*
X80547619Y9788038D01*
X80547619Y9788038D02*
X80595238Y9692800D01*
X80595238Y9692800D02*
X80690476Y9645180D01*
X80690476Y9645180D02*
X80785714Y9645180D01*
X81547619Y9692800D02*
X81452381Y9645180D01*
X81452381Y9645180D02*
X81261905Y9645180D01*
X81261905Y9645180D02*
X81166667Y9692800D01*
X81166667Y9692800D02*
X81119048Y9740419D01*
X81119048Y9740419D02*
X81071429Y9835657D01*
X81071429Y9835657D02*
X81071429Y10121371D01*
X81071429Y10121371D02*
X81119048Y10216609D01*
X81119048Y10216609D02*
X81166667Y10264228D01*
X81166667Y10264228D02*
X81261905Y10311847D01*
X81261905Y10311847D02*
X81452381Y10311847D01*
X81452381Y10311847D02*
X81547619Y10264228D01*
X81976191Y9645180D02*
X81976191Y10645180D01*
X82404762Y9645180D02*
X82404762Y10168990D01*
X82404762Y10168990D02*
X82357143Y10264228D01*
X82357143Y10264228D02*
X82261905Y10311847D01*
X82261905Y10311847D02*
X82119048Y10311847D01*
X82119048Y10311847D02*
X82023810Y10264228D01*
X82023810Y10264228D02*
X81976191Y10216609D01*
X78238095Y18692800D02*
X78380952Y18645180D01*
X78380952Y18645180D02*
X78619047Y18645180D01*
X78619047Y18645180D02*
X78714285Y18692800D01*
X78714285Y18692800D02*
X78761904Y18740419D01*
X78761904Y18740419D02*
X78809523Y18835657D01*
X78809523Y18835657D02*
X78809523Y18930895D01*
X78809523Y18930895D02*
X78761904Y19026133D01*
X78761904Y19026133D02*
X78714285Y19073752D01*
X78714285Y19073752D02*
X78619047Y19121371D01*
X78619047Y19121371D02*
X78428571Y19168990D01*
X78428571Y19168990D02*
X78333333Y19216609D01*
X78333333Y19216609D02*
X78285714Y19264228D01*
X78285714Y19264228D02*
X78238095Y19359466D01*
X78238095Y19359466D02*
X78238095Y19454704D01*
X78238095Y19454704D02*
X78285714Y19549942D01*
X78285714Y19549942D02*
X78333333Y19597561D01*
X78333333Y19597561D02*
X78428571Y19645180D01*
X78428571Y19645180D02*
X78666666Y19645180D01*
X78666666Y19645180D02*
X78809523Y19597561D01*
X79285714Y18645180D02*
X79476190Y18645180D01*
X79476190Y18645180D02*
X79571428Y18692800D01*
X79571428Y18692800D02*
X79619047Y18740419D01*
X79619047Y18740419D02*
X79714285Y18883276D01*
X79714285Y18883276D02*
X79761904Y19073752D01*
X79761904Y19073752D02*
X79761904Y19454704D01*
X79761904Y19454704D02*
X79714285Y19549942D01*
X79714285Y19549942D02*
X79666666Y19597561D01*
X79666666Y19597561D02*
X79571428Y19645180D01*
X79571428Y19645180D02*
X79380952Y19645180D01*
X79380952Y19645180D02*
X79285714Y19597561D01*
X79285714Y19597561D02*
X79238095Y19549942D01*
X79238095Y19549942D02*
X79190476Y19454704D01*
X79190476Y19454704D02*
X79190476Y19216609D01*
X79190476Y19216609D02*
X79238095Y19121371D01*
X79238095Y19121371D02*
X79285714Y19073752D01*
X79285714Y19073752D02*
X79380952Y19026133D01*
X79380952Y19026133D02*
X79571428Y19026133D01*
X79571428Y19026133D02*
X79666666Y19073752D01*
X79666666Y19073752D02*
X79714285Y19121371D01*
X79714285Y19121371D02*
X79761904Y19216609D01*
X57094731Y-54320053D02*
X57042395Y-53321423D01*
X57665377Y-54290146D02*
X57207486Y-53741931D01*
X57613041Y-53291517D02*
X57072302Y-53892069D01*
X58471299Y-54200225D02*
X58378683Y-54252764D01*
X58378683Y-54252764D02*
X58188468Y-54262732D01*
X58188468Y-54262732D02*
X58090869Y-54220163D01*
X58090869Y-54220163D02*
X58038330Y-54127548D01*
X58038330Y-54127548D02*
X58018393Y-53747117D01*
X58018393Y-53747117D02*
X58060962Y-53649518D01*
X58060962Y-53649518D02*
X58153578Y-53596979D01*
X58153578Y-53596979D02*
X58343793Y-53587011D01*
X58343793Y-53587011D02*
X58441393Y-53629580D01*
X58441393Y-53629580D02*
X58493931Y-53722195D01*
X58493931Y-53722195D02*
X58498915Y-53817303D01*
X58498915Y-53817303D02*
X58028362Y-53937332D01*
X58819331Y-53562089D02*
X59091990Y-54215381D01*
X59294869Y-53537167D02*
X59091990Y-54215381D01*
X59091990Y-54215381D02*
X59009344Y-54458134D01*
X59009344Y-54458134D02*
X58964282Y-54508180D01*
X58964282Y-54508180D02*
X58871667Y-54560718D01*
X59660144Y-54137921D02*
X59757744Y-54180490D01*
X59757744Y-54180490D02*
X59947959Y-54170521D01*
X59947959Y-54170521D02*
X60040574Y-54117983D01*
X60040574Y-54117983D02*
X60083144Y-54020383D01*
X60083144Y-54020383D02*
X60080651Y-53972830D01*
X60080651Y-53972830D02*
X60028113Y-53880214D01*
X60028113Y-53880214D02*
X59930514Y-53837645D01*
X59930514Y-53837645D02*
X59787852Y-53845121D01*
X59787852Y-53845121D02*
X59690252Y-53802552D01*
X59690252Y-53802552D02*
X59637714Y-53709937D01*
X59637714Y-53709937D02*
X59635222Y-53662383D01*
X59635222Y-53662383D02*
X59677791Y-53564783D01*
X59677791Y-53564783D02*
X59770407Y-53512245D01*
X59770407Y-53512245D02*
X59913068Y-53504768D01*
X59913068Y-53504768D02*
X60010668Y-53547338D01*
X60388606Y-53479846D02*
X60613712Y-54135631D01*
X60613712Y-54135631D02*
X60779005Y-53650124D01*
X60779005Y-53650124D02*
X60994142Y-54115693D01*
X60994142Y-54115693D02*
X61149467Y-53439971D01*
X61564788Y-54085787D02*
X61529897Y-53420034D01*
X61512452Y-53087157D02*
X61467390Y-53137203D01*
X61467390Y-53137203D02*
X61517436Y-53182265D01*
X61517436Y-53182265D02*
X61562498Y-53132219D01*
X61562498Y-53132219D02*
X61512452Y-53087157D01*
X61512452Y-53087157D02*
X61517436Y-53182265D01*
X61862773Y-53402589D02*
X62243203Y-53382651D01*
X61987989Y-53062236D02*
X62032849Y-53918204D01*
X62032849Y-53918204D02*
X62085387Y-54010819D01*
X62085387Y-54010819D02*
X62182987Y-54053389D01*
X62182987Y-54053389D02*
X62278094Y-54048404D01*
X63036463Y-53960975D02*
X62943848Y-54013513D01*
X62943848Y-54013513D02*
X62753632Y-54023482D01*
X62753632Y-54023482D02*
X62656033Y-53980913D01*
X62656033Y-53980913D02*
X62605987Y-53935851D01*
X62605987Y-53935851D02*
X62553449Y-53843236D01*
X62553449Y-53843236D02*
X62538495Y-53557913D01*
X62538495Y-53557913D02*
X62581065Y-53460313D01*
X62581065Y-53460313D02*
X62626126Y-53410267D01*
X62626126Y-53410267D02*
X62718742Y-53357729D01*
X62718742Y-53357729D02*
X62908957Y-53347760D01*
X62908957Y-53347760D02*
X63006557Y-53390330D01*
X63466939Y-53986099D02*
X63414603Y-52987470D01*
X63894923Y-53963670D02*
X63867509Y-53440578D01*
X63867509Y-53440578D02*
X63814971Y-53347963D01*
X63814971Y-53347963D02*
X63717371Y-53305393D01*
X63717371Y-53305393D02*
X63574710Y-53312870D01*
X63574710Y-53312870D02*
X63482095Y-53365408D01*
X63482095Y-53365408D02*
X63437033Y-53415454D01*
X58784913Y-45171438D02*
X58930066Y-45211516D01*
X58930066Y-45211516D02*
X59167835Y-45199055D01*
X59167835Y-45199055D02*
X59260451Y-45146516D01*
X59260451Y-45146516D02*
X59305512Y-45096470D01*
X59305512Y-45096470D02*
X59348082Y-44998871D01*
X59348082Y-44998871D02*
X59343097Y-44903763D01*
X59343097Y-44903763D02*
X59290559Y-44811148D01*
X59290559Y-44811148D02*
X59240513Y-44766086D01*
X59240513Y-44766086D02*
X59142913Y-44723517D01*
X59142913Y-44723517D02*
X58950206Y-44685932D01*
X58950206Y-44685932D02*
X58852606Y-44643362D01*
X58852606Y-44643362D02*
X58802560Y-44598301D01*
X58802560Y-44598301D02*
X58750022Y-44505685D01*
X58750022Y-44505685D02*
X58745038Y-44410578D01*
X58745038Y-44410578D02*
X58787607Y-44312978D01*
X58787607Y-44312978D02*
X58832669Y-44262932D01*
X58832669Y-44262932D02*
X58925284Y-44210394D01*
X58925284Y-44210394D02*
X59163053Y-44197933D01*
X59163053Y-44197933D02*
X59308207Y-44238010D01*
X59691129Y-44265626D02*
X59736191Y-44215580D01*
X59736191Y-44215580D02*
X59828806Y-44163042D01*
X59828806Y-44163042D02*
X60066575Y-44150581D01*
X60066575Y-44150581D02*
X60164175Y-44193151D01*
X60164175Y-44193151D02*
X60214221Y-44238212D01*
X60214221Y-44238212D02*
X60266759Y-44330828D01*
X60266759Y-44330828D02*
X60271743Y-44425935D01*
X60271743Y-44425935D02*
X60231666Y-44571089D01*
X60231666Y-44571089D02*
X59690927Y-45171641D01*
X59690927Y-45171641D02*
X60309126Y-45139242D01*
X60849865Y-44538690D02*
X60752266Y-44496121D01*
X60752266Y-44496121D02*
X60702220Y-44451059D01*
X60702220Y-44451059D02*
X60649681Y-44358444D01*
X60649681Y-44358444D02*
X60647189Y-44310890D01*
X60647189Y-44310890D02*
X60689759Y-44213290D01*
X60689759Y-44213290D02*
X60734820Y-44163244D01*
X60734820Y-44163244D02*
X60827436Y-44110706D01*
X60827436Y-44110706D02*
X61017651Y-44100738D01*
X61017651Y-44100738D02*
X61115251Y-44143307D01*
X61115251Y-44143307D02*
X61165297Y-44188369D01*
X61165297Y-44188369D02*
X61217835Y-44280984D01*
X61217835Y-44280984D02*
X61220327Y-44328538D01*
X61220327Y-44328538D02*
X61177757Y-44426137D01*
X61177757Y-44426137D02*
X61132696Y-44476183D01*
X61132696Y-44476183D02*
X61040080Y-44528722D01*
X61040080Y-44528722D02*
X60849865Y-44538690D01*
X60849865Y-44538690D02*
X60757250Y-44591229D01*
X60757250Y-44591229D02*
X60712188Y-44641275D01*
X60712188Y-44641275D02*
X60669619Y-44738874D01*
X60669619Y-44738874D02*
X60679588Y-44929089D01*
X60679588Y-44929089D02*
X60732126Y-45021705D01*
X60732126Y-45021705D02*
X60782172Y-45066766D01*
X60782172Y-45066766D02*
X60879772Y-45109336D01*
X60879772Y-45109336D02*
X61069987Y-45099367D01*
X61069987Y-45099367D02*
X61162602Y-45046829D01*
X61162602Y-45046829D02*
X61207664Y-44996783D01*
X61207664Y-44996783D02*
X61250233Y-44899183D01*
X61250233Y-44899183D02*
X61240264Y-44708968D01*
X61240264Y-44708968D02*
X61187726Y-44616353D01*
X61187726Y-44616353D02*
X61137680Y-44571291D01*
X61137680Y-44571291D02*
X61040080Y-44528722D01*
X37595238Y-254819D02*
X37595238Y745180D01*
X38166666Y-254819D02*
X37738095Y316609D01*
X38166666Y745180D02*
X37595238Y173752D01*
X38976190Y-207200D02*
X38880952Y-254819D01*
X38880952Y-254819D02*
X38690476Y-254819D01*
X38690476Y-254819D02*
X38595238Y-207200D01*
X38595238Y-207200D02*
X38547619Y-111961D01*
X38547619Y-111961D02*
X38547619Y268990D01*
X38547619Y268990D02*
X38595238Y364228D01*
X38595238Y364228D02*
X38690476Y411847D01*
X38690476Y411847D02*
X38880952Y411847D01*
X38880952Y411847D02*
X38976190Y364228D01*
X38976190Y364228D02*
X39023809Y268990D01*
X39023809Y268990D02*
X39023809Y173752D01*
X39023809Y173752D02*
X38547619Y78514D01*
X39357143Y411847D02*
X39595238Y-254819D01*
X39833333Y411847D02*
X39595238Y-254819D01*
X39595238Y-254819D02*
X39500000Y-492914D01*
X39500000Y-492914D02*
X39452381Y-540533D01*
X39452381Y-540533D02*
X39357143Y-588152D01*
X40166667Y-207200D02*
X40261905Y-254819D01*
X40261905Y-254819D02*
X40452381Y-254819D01*
X40452381Y-254819D02*
X40547619Y-207200D01*
X40547619Y-207200D02*
X40595238Y-111961D01*
X40595238Y-111961D02*
X40595238Y-64342D01*
X40595238Y-64342D02*
X40547619Y30895D01*
X40547619Y30895D02*
X40452381Y78514D01*
X40452381Y78514D02*
X40309524Y78514D01*
X40309524Y78514D02*
X40214286Y126133D01*
X40214286Y126133D02*
X40166667Y221371D01*
X40166667Y221371D02*
X40166667Y268990D01*
X40166667Y268990D02*
X40214286Y364228D01*
X40214286Y364228D02*
X40309524Y411847D01*
X40309524Y411847D02*
X40452381Y411847D01*
X40452381Y411847D02*
X40547619Y364228D01*
X40928572Y411847D02*
X41119048Y-254819D01*
X41119048Y-254819D02*
X41309524Y221371D01*
X41309524Y221371D02*
X41500000Y-254819D01*
X41500000Y-254819D02*
X41690476Y411847D01*
X42071429Y-254819D02*
X42071429Y411847D01*
X42071429Y745180D02*
X42023810Y697561D01*
X42023810Y697561D02*
X42071429Y649942D01*
X42071429Y649942D02*
X42119048Y697561D01*
X42119048Y697561D02*
X42071429Y745180D01*
X42071429Y745180D02*
X42071429Y649942D01*
X42404762Y411847D02*
X42785714Y411847D01*
X42547619Y745180D02*
X42547619Y-111961D01*
X42547619Y-111961D02*
X42595238Y-207200D01*
X42595238Y-207200D02*
X42690476Y-254819D01*
X42690476Y-254819D02*
X42785714Y-254819D01*
X43547619Y-207200D02*
X43452381Y-254819D01*
X43452381Y-254819D02*
X43261905Y-254819D01*
X43261905Y-254819D02*
X43166667Y-207200D01*
X43166667Y-207200D02*
X43119048Y-159580D01*
X43119048Y-159580D02*
X43071429Y-64342D01*
X43071429Y-64342D02*
X43071429Y221371D01*
X43071429Y221371D02*
X43119048Y316609D01*
X43119048Y316609D02*
X43166667Y364228D01*
X43166667Y364228D02*
X43261905Y411847D01*
X43261905Y411847D02*
X43452381Y411847D01*
X43452381Y411847D02*
X43547619Y364228D01*
X43976191Y-254819D02*
X43976191Y745180D01*
X44404762Y-254819D02*
X44404762Y268990D01*
X44404762Y268990D02*
X44357143Y364228D01*
X44357143Y364228D02*
X44261905Y411847D01*
X44261905Y411847D02*
X44119048Y411847D01*
X44119048Y411847D02*
X44023810Y364228D01*
X44023810Y364228D02*
X43976191Y316609D01*
X40238095Y8792800D02*
X40380952Y8745180D01*
X40380952Y8745180D02*
X40619047Y8745180D01*
X40619047Y8745180D02*
X40714285Y8792800D01*
X40714285Y8792800D02*
X40761904Y8840419D01*
X40761904Y8840419D02*
X40809523Y8935657D01*
X40809523Y8935657D02*
X40809523Y9030895D01*
X40809523Y9030895D02*
X40761904Y9126133D01*
X40761904Y9126133D02*
X40714285Y9173752D01*
X40714285Y9173752D02*
X40619047Y9221371D01*
X40619047Y9221371D02*
X40428571Y9268990D01*
X40428571Y9268990D02*
X40333333Y9316609D01*
X40333333Y9316609D02*
X40285714Y9364228D01*
X40285714Y9364228D02*
X40238095Y9459466D01*
X40238095Y9459466D02*
X40238095Y9554704D01*
X40238095Y9554704D02*
X40285714Y9649942D01*
X40285714Y9649942D02*
X40333333Y9697561D01*
X40333333Y9697561D02*
X40428571Y9745180D01*
X40428571Y9745180D02*
X40666666Y9745180D01*
X40666666Y9745180D02*
X40809523Y9697561D01*
X41142857Y9745180D02*
X41809523Y9745180D01*
X41809523Y9745180D02*
X41380952Y8745180D01*
X-25894923Y-64263670D02*
X-25842587Y-63265040D01*
X-25324277Y-64293576D02*
X-25722355Y-63700501D01*
X-25271941Y-63294946D02*
X-25872493Y-63835686D01*
X-24513371Y-64288389D02*
X-24610970Y-64330959D01*
X-24610970Y-64330959D02*
X-24801185Y-64320990D01*
X-24801185Y-64320990D02*
X-24893801Y-64268452D01*
X-24893801Y-64268452D02*
X-24936370Y-64170852D01*
X-24936370Y-64170852D02*
X-24916433Y-63790422D01*
X-24916433Y-63790422D02*
X-24863895Y-63697806D01*
X-24863895Y-63697806D02*
X-24766295Y-63655237D01*
X-24766295Y-63655237D02*
X-24576080Y-63665206D01*
X-24576080Y-63665206D02*
X-24483464Y-63717744D01*
X-24483464Y-63717744D02*
X-24440895Y-63815344D01*
X-24440895Y-63815344D02*
X-24445879Y-63910451D01*
X-24445879Y-63910451D02*
X-24926401Y-63980637D01*
X-24100542Y-63690128D02*
X-23897663Y-64368342D01*
X-23625004Y-63715050D02*
X-23897663Y-64368342D01*
X-23897663Y-64368342D02*
X-24005232Y-64601126D01*
X-24005232Y-64601126D02*
X-24055278Y-64646188D01*
X-24055278Y-64646188D02*
X-24152878Y-64688757D01*
X-23324525Y-64350694D02*
X-23231910Y-64403232D01*
X-23231910Y-64403232D02*
X-23041695Y-64413201D01*
X-23041695Y-64413201D02*
X-22944095Y-64370632D01*
X-22944095Y-64370632D02*
X-22891557Y-64278016D01*
X-22891557Y-64278016D02*
X-22889065Y-64230463D01*
X-22889065Y-64230463D02*
X-22931634Y-64132863D01*
X-22931634Y-64132863D02*
X-23024250Y-64080325D01*
X-23024250Y-64080325D02*
X-23166911Y-64072848D01*
X-23166911Y-64072848D02*
X-23259526Y-64020310D01*
X-23259526Y-64020310D02*
X-23302096Y-63922710D01*
X-23302096Y-63922710D02*
X-23299604Y-63875156D01*
X-23299604Y-63875156D02*
X-23247065Y-63782541D01*
X-23247065Y-63782541D02*
X-23149466Y-63739972D01*
X-23149466Y-63739972D02*
X-23006804Y-63747448D01*
X-23006804Y-63747448D02*
X-22914189Y-63799986D01*
X-22531266Y-63772370D02*
X-22375942Y-64448092D01*
X-22375942Y-64448092D02*
X-22160805Y-63982523D01*
X-22160805Y-63982523D02*
X-21995511Y-64468029D01*
X-21995511Y-64468029D02*
X-21770406Y-63812245D01*
X-21424866Y-64497936D02*
X-21389975Y-63832182D01*
X-21372530Y-63499306D02*
X-21422576Y-63544368D01*
X-21422576Y-63544368D02*
X-21377514Y-63594414D01*
X-21377514Y-63594414D02*
X-21327468Y-63549352D01*
X-21327468Y-63549352D02*
X-21372530Y-63499306D01*
X-21372530Y-63499306D02*
X-21377514Y-63594414D01*
X-21057099Y-63849628D02*
X-20676669Y-63869565D01*
X-20896993Y-63524228D02*
X-20941852Y-64380196D01*
X-20941852Y-64380196D02*
X-20899283Y-64477796D01*
X-20899283Y-64477796D02*
X-20806667Y-64530334D01*
X-20806667Y-64530334D02*
X-20711560Y-64535318D01*
X-19948206Y-64527640D02*
X-20045806Y-64570209D01*
X-20045806Y-64570209D02*
X-20236021Y-64560240D01*
X-20236021Y-64560240D02*
X-20328637Y-64507702D01*
X-20328637Y-64507702D02*
X-20373698Y-64457656D01*
X-20373698Y-64457656D02*
X-20416268Y-64360056D01*
X-20416268Y-64360056D02*
X-20401315Y-64074734D01*
X-20401315Y-64074734D02*
X-20348776Y-63982118D01*
X-20348776Y-63982118D02*
X-20298730Y-63937057D01*
X-20298730Y-63937057D02*
X-20201131Y-63894487D01*
X-20201131Y-63894487D02*
X-20010916Y-63904456D01*
X-20010916Y-63904456D02*
X-19918300Y-63956994D01*
X-19522714Y-64597623D02*
X-19470378Y-63598994D01*
X-19094730Y-64620053D02*
X-19067316Y-64096961D01*
X-19067316Y-64096961D02*
X-19109886Y-63999361D01*
X-19109886Y-63999361D02*
X-19202501Y-63946823D01*
X-19202501Y-63946823D02*
X-19345162Y-63939347D01*
X-19345162Y-63939347D02*
X-19442762Y-63981916D01*
X-19442762Y-63981916D02*
X-19492808Y-64026978D01*
X-23257709Y-55341845D02*
X-23117540Y-55396875D01*
X-23117540Y-55396875D02*
X-22879771Y-55409336D01*
X-22879771Y-55409336D02*
X-22782171Y-55366766D01*
X-22782171Y-55366766D02*
X-22732125Y-55321705D01*
X-22732125Y-55321705D02*
X-22679587Y-55229089D01*
X-22679587Y-55229089D02*
X-22674602Y-55133982D01*
X-22674602Y-55133982D02*
X-22717172Y-55036382D01*
X-22717172Y-55036382D02*
X-22762233Y-54986336D01*
X-22762233Y-54986336D02*
X-22854849Y-54933798D01*
X-22854849Y-54933798D02*
X-23042572Y-54876275D01*
X-23042572Y-54876275D02*
X-23135187Y-54823737D01*
X-23135187Y-54823737D02*
X-23180249Y-54773691D01*
X-23180249Y-54773691D02*
X-23222818Y-54676092D01*
X-23222818Y-54676092D02*
X-23217834Y-54580984D01*
X-23217834Y-54580984D02*
X-23165296Y-54488369D01*
X-23165296Y-54488369D02*
X-23115250Y-54443307D01*
X-23115250Y-54443307D02*
X-23017650Y-54400738D01*
X-23017650Y-54400738D02*
X-22779881Y-54413199D01*
X-22779881Y-54413199D02*
X-22639712Y-54468229D01*
X-22261774Y-54535720D02*
X-22211728Y-54490659D01*
X-22211728Y-54490659D02*
X-22114128Y-54448089D01*
X-22114128Y-54448089D02*
X-21876359Y-54460550D01*
X-21876359Y-54460550D02*
X-21783743Y-54513088D01*
X-21783743Y-54513088D02*
X-21738682Y-54563134D01*
X-21738682Y-54563134D02*
X-21696112Y-54660734D01*
X-21696112Y-54660734D02*
X-21701097Y-54755842D01*
X-21701097Y-54755842D02*
X-21756127Y-54896011D01*
X-21756127Y-54896011D02*
X-22356679Y-55436750D01*
X-22356679Y-55436750D02*
X-21738480Y-55469148D01*
X-20782622Y-54517870D02*
X-21258160Y-54492949D01*
X-21258160Y-54492949D02*
X-21330635Y-54965994D01*
X-21330635Y-54965994D02*
X-21280589Y-54920933D01*
X-21280589Y-54920933D02*
X-21182990Y-54878363D01*
X-21182990Y-54878363D02*
X-20945221Y-54890824D01*
X-20945221Y-54890824D02*
X-20852605Y-54943362D01*
X-20852605Y-54943362D02*
X-20807544Y-54993408D01*
X-20807544Y-54993408D02*
X-20764974Y-55091008D01*
X-20764974Y-55091008D02*
X-20777435Y-55328777D01*
X-20777435Y-55328777D02*
X-20829973Y-55421392D01*
X-20829973Y-55421392D02*
X-20880019Y-55466454D01*
X-20880019Y-55466454D02*
X-20977619Y-55509023D01*
X-20977619Y-55509023D02*
X-21215388Y-55496562D01*
X-21215388Y-55496562D02*
X-21308003Y-55444024D01*
X-21308003Y-55444024D02*
X-21353065Y-55393978D01*
X38094731Y-50620053D02*
X38042395Y-49621423D01*
X38665377Y-50590146D02*
X38207486Y-50041931D01*
X38613041Y-49591517D02*
X38072302Y-50192069D01*
X39471299Y-50500225D02*
X39378683Y-50552764D01*
X39378683Y-50552764D02*
X39188468Y-50562732D01*
X39188468Y-50562732D02*
X39090869Y-50520163D01*
X39090869Y-50520163D02*
X39038330Y-50427548D01*
X39038330Y-50427548D02*
X39018393Y-50047117D01*
X39018393Y-50047117D02*
X39060962Y-49949518D01*
X39060962Y-49949518D02*
X39153578Y-49896979D01*
X39153578Y-49896979D02*
X39343793Y-49887011D01*
X39343793Y-49887011D02*
X39441393Y-49929580D01*
X39441393Y-49929580D02*
X39493931Y-50022195D01*
X39493931Y-50022195D02*
X39498915Y-50117303D01*
X39498915Y-50117303D02*
X39028362Y-50237332D01*
X39819331Y-49862089D02*
X40091990Y-50515381D01*
X40294869Y-49837167D02*
X40091990Y-50515381D01*
X40091990Y-50515381D02*
X40009344Y-50758134D01*
X40009344Y-50758134D02*
X39964282Y-50808180D01*
X39964282Y-50808180D02*
X39871667Y-50860718D01*
X40660144Y-50437921D02*
X40757744Y-50480490D01*
X40757744Y-50480490D02*
X40947959Y-50470521D01*
X40947959Y-50470521D02*
X41040574Y-50417983D01*
X41040574Y-50417983D02*
X41083144Y-50320383D01*
X41083144Y-50320383D02*
X41080651Y-50272830D01*
X41080651Y-50272830D02*
X41028113Y-50180214D01*
X41028113Y-50180214D02*
X40930514Y-50137645D01*
X40930514Y-50137645D02*
X40787852Y-50145121D01*
X40787852Y-50145121D02*
X40690252Y-50102552D01*
X40690252Y-50102552D02*
X40637714Y-50009937D01*
X40637714Y-50009937D02*
X40635222Y-49962383D01*
X40635222Y-49962383D02*
X40677791Y-49864783D01*
X40677791Y-49864783D02*
X40770407Y-49812245D01*
X40770407Y-49812245D02*
X40913068Y-49804768D01*
X40913068Y-49804768D02*
X41010668Y-49847338D01*
X41388606Y-49779846D02*
X41613712Y-50435631D01*
X41613712Y-50435631D02*
X41779005Y-49950124D01*
X41779005Y-49950124D02*
X41994142Y-50415693D01*
X41994142Y-50415693D02*
X42149467Y-49739971D01*
X42564788Y-50385787D02*
X42529897Y-49720034D01*
X42512452Y-49387157D02*
X42467390Y-49437203D01*
X42467390Y-49437203D02*
X42517436Y-49482265D01*
X42517436Y-49482265D02*
X42562498Y-49432219D01*
X42562498Y-49432219D02*
X42512452Y-49387157D01*
X42512452Y-49387157D02*
X42517436Y-49482265D01*
X42862773Y-49702589D02*
X43243203Y-49682651D01*
X42987989Y-49362236D02*
X43032849Y-50218204D01*
X43032849Y-50218204D02*
X43085387Y-50310819D01*
X43085387Y-50310819D02*
X43182987Y-50353389D01*
X43182987Y-50353389D02*
X43278094Y-50348404D01*
X44036463Y-50260975D02*
X43943848Y-50313513D01*
X43943848Y-50313513D02*
X43753632Y-50323482D01*
X43753632Y-50323482D02*
X43656033Y-50280913D01*
X43656033Y-50280913D02*
X43605987Y-50235851D01*
X43605987Y-50235851D02*
X43553449Y-50143236D01*
X43553449Y-50143236D02*
X43538495Y-49857913D01*
X43538495Y-49857913D02*
X43581065Y-49760313D01*
X43581065Y-49760313D02*
X43626126Y-49710267D01*
X43626126Y-49710267D02*
X43718742Y-49657729D01*
X43718742Y-49657729D02*
X43908957Y-49647760D01*
X43908957Y-49647760D02*
X44006557Y-49690330D01*
X44466939Y-50286099D02*
X44414603Y-49287470D01*
X44894923Y-50263670D02*
X44867509Y-49740578D01*
X44867509Y-49740578D02*
X44814971Y-49647963D01*
X44814971Y-49647963D02*
X44717371Y-49605393D01*
X44717371Y-49605393D02*
X44574710Y-49612870D01*
X44574710Y-49612870D02*
X44482095Y-49665408D01*
X44482095Y-49665408D02*
X44437033Y-49715454D01*
X39784913Y-41471438D02*
X39930066Y-41511516D01*
X39930066Y-41511516D02*
X40167835Y-41499055D01*
X40167835Y-41499055D02*
X40260451Y-41446516D01*
X40260451Y-41446516D02*
X40305512Y-41396470D01*
X40305512Y-41396470D02*
X40348082Y-41298871D01*
X40348082Y-41298871D02*
X40343097Y-41203763D01*
X40343097Y-41203763D02*
X40290559Y-41111148D01*
X40290559Y-41111148D02*
X40240513Y-41066086D01*
X40240513Y-41066086D02*
X40142913Y-41023517D01*
X40142913Y-41023517D02*
X39950206Y-40985932D01*
X39950206Y-40985932D02*
X39852606Y-40943362D01*
X39852606Y-40943362D02*
X39802560Y-40898301D01*
X39802560Y-40898301D02*
X39750022Y-40805685D01*
X39750022Y-40805685D02*
X39745038Y-40710578D01*
X39745038Y-40710578D02*
X39787607Y-40612978D01*
X39787607Y-40612978D02*
X39832669Y-40562932D01*
X39832669Y-40562932D02*
X39925284Y-40510394D01*
X39925284Y-40510394D02*
X40163053Y-40497933D01*
X40163053Y-40497933D02*
X40308207Y-40538010D01*
X40691129Y-40565626D02*
X40736191Y-40515580D01*
X40736191Y-40515580D02*
X40828806Y-40463042D01*
X40828806Y-40463042D02*
X41066575Y-40450581D01*
X41066575Y-40450581D02*
X41164175Y-40493151D01*
X41164175Y-40493151D02*
X41214221Y-40538212D01*
X41214221Y-40538212D02*
X41266759Y-40630828D01*
X41266759Y-40630828D02*
X41271743Y-40725935D01*
X41271743Y-40725935D02*
X41231666Y-40871089D01*
X41231666Y-40871089D02*
X40690927Y-41471641D01*
X40690927Y-41471641D02*
X41309126Y-41439242D01*
X41589667Y-40423167D02*
X42255420Y-40388277D01*
X42255420Y-40388277D02*
X41879772Y-41409336D01*
X56595238Y-9454819D02*
X56595238Y-8454819D01*
X57166666Y-9454819D02*
X56738095Y-8883390D01*
X57166666Y-8454819D02*
X56595238Y-9026247D01*
X57976190Y-9407200D02*
X57880952Y-9454819D01*
X57880952Y-9454819D02*
X57690476Y-9454819D01*
X57690476Y-9454819D02*
X57595238Y-9407200D01*
X57595238Y-9407200D02*
X57547619Y-9311961D01*
X57547619Y-9311961D02*
X57547619Y-8931009D01*
X57547619Y-8931009D02*
X57595238Y-8835771D01*
X57595238Y-8835771D02*
X57690476Y-8788152D01*
X57690476Y-8788152D02*
X57880952Y-8788152D01*
X57880952Y-8788152D02*
X57976190Y-8835771D01*
X57976190Y-8835771D02*
X58023809Y-8931009D01*
X58023809Y-8931009D02*
X58023809Y-9026247D01*
X58023809Y-9026247D02*
X57547619Y-9121485D01*
X58357143Y-8788152D02*
X58595238Y-9454819D01*
X58833333Y-8788152D02*
X58595238Y-9454819D01*
X58595238Y-9454819D02*
X58500000Y-9692914D01*
X58500000Y-9692914D02*
X58452381Y-9740533D01*
X58452381Y-9740533D02*
X58357143Y-9788152D01*
X59166667Y-9407200D02*
X59261905Y-9454819D01*
X59261905Y-9454819D02*
X59452381Y-9454819D01*
X59452381Y-9454819D02*
X59547619Y-9407200D01*
X59547619Y-9407200D02*
X59595238Y-9311961D01*
X59595238Y-9311961D02*
X59595238Y-9264342D01*
X59595238Y-9264342D02*
X59547619Y-9169104D01*
X59547619Y-9169104D02*
X59452381Y-9121485D01*
X59452381Y-9121485D02*
X59309524Y-9121485D01*
X59309524Y-9121485D02*
X59214286Y-9073866D01*
X59214286Y-9073866D02*
X59166667Y-8978628D01*
X59166667Y-8978628D02*
X59166667Y-8931009D01*
X59166667Y-8931009D02*
X59214286Y-8835771D01*
X59214286Y-8835771D02*
X59309524Y-8788152D01*
X59309524Y-8788152D02*
X59452381Y-8788152D01*
X59452381Y-8788152D02*
X59547619Y-8835771D01*
X59928572Y-8788152D02*
X60119048Y-9454819D01*
X60119048Y-9454819D02*
X60309524Y-8978628D01*
X60309524Y-8978628D02*
X60500000Y-9454819D01*
X60500000Y-9454819D02*
X60690476Y-8788152D01*
X61071429Y-9454819D02*
X61071429Y-8788152D01*
X61071429Y-8454819D02*
X61023810Y-8502438D01*
X61023810Y-8502438D02*
X61071429Y-8550057D01*
X61071429Y-8550057D02*
X61119048Y-8502438D01*
X61119048Y-8502438D02*
X61071429Y-8454819D01*
X61071429Y-8454819D02*
X61071429Y-8550057D01*
X61404762Y-8788152D02*
X61785714Y-8788152D01*
X61547619Y-8454819D02*
X61547619Y-9311961D01*
X61547619Y-9311961D02*
X61595238Y-9407200D01*
X61595238Y-9407200D02*
X61690476Y-9454819D01*
X61690476Y-9454819D02*
X61785714Y-9454819D01*
X62547619Y-9407200D02*
X62452381Y-9454819D01*
X62452381Y-9454819D02*
X62261905Y-9454819D01*
X62261905Y-9454819D02*
X62166667Y-9407200D01*
X62166667Y-9407200D02*
X62119048Y-9359580D01*
X62119048Y-9359580D02*
X62071429Y-9264342D01*
X62071429Y-9264342D02*
X62071429Y-8978628D01*
X62071429Y-8978628D02*
X62119048Y-8883390D01*
X62119048Y-8883390D02*
X62166667Y-8835771D01*
X62166667Y-8835771D02*
X62261905Y-8788152D01*
X62261905Y-8788152D02*
X62452381Y-8788152D01*
X62452381Y-8788152D02*
X62547619Y-8835771D01*
X62976191Y-9454819D02*
X62976191Y-8454819D01*
X63404762Y-9454819D02*
X63404762Y-8931009D01*
X63404762Y-8931009D02*
X63357143Y-8835771D01*
X63357143Y-8835771D02*
X63261905Y-8788152D01*
X63261905Y-8788152D02*
X63119048Y-8788152D01*
X63119048Y-8788152D02*
X63023810Y-8835771D01*
X63023810Y-8835771D02*
X62976191Y-8883390D01*
X58761905Y-407200D02*
X58904762Y-454819D01*
X58904762Y-454819D02*
X59142857Y-454819D01*
X59142857Y-454819D02*
X59238095Y-407200D01*
X59238095Y-407200D02*
X59285714Y-359580D01*
X59285714Y-359580D02*
X59333333Y-264342D01*
X59333333Y-264342D02*
X59333333Y-169104D01*
X59333333Y-169104D02*
X59285714Y-73866D01*
X59285714Y-73866D02*
X59238095Y-26247D01*
X59238095Y-26247D02*
X59142857Y21371D01*
X59142857Y21371D02*
X58952381Y68990D01*
X58952381Y68990D02*
X58857143Y116609D01*
X58857143Y116609D02*
X58809524Y164228D01*
X58809524Y164228D02*
X58761905Y259466D01*
X58761905Y259466D02*
X58761905Y354704D01*
X58761905Y354704D02*
X58809524Y449942D01*
X58809524Y449942D02*
X58857143Y497561D01*
X58857143Y497561D02*
X58952381Y545180D01*
X58952381Y545180D02*
X59190476Y545180D01*
X59190476Y545180D02*
X59333333Y497561D01*
X60285714Y-454819D02*
X59714286Y-454819D01*
X60000000Y-454819D02*
X60000000Y545180D01*
X60000000Y545180D02*
X59904762Y402323D01*
X59904762Y402323D02*
X59809524Y307085D01*
X59809524Y307085D02*
X59714286Y259466D01*
X60761905Y-454819D02*
X60952381Y-454819D01*
X60952381Y-454819D02*
X61047619Y-407200D01*
X61047619Y-407200D02*
X61095238Y-359580D01*
X61095238Y-359580D02*
X61190476Y-216723D01*
X61190476Y-216723D02*
X61238095Y-26247D01*
X61238095Y-26247D02*
X61238095Y354704D01*
X61238095Y354704D02*
X61190476Y449942D01*
X61190476Y449942D02*
X61142857Y497561D01*
X61142857Y497561D02*
X61047619Y545180D01*
X61047619Y545180D02*
X60857143Y545180D01*
X60857143Y545180D02*
X60761905Y497561D01*
X60761905Y497561D02*
X60714286Y449942D01*
X60714286Y449942D02*
X60666667Y354704D01*
X60666667Y354704D02*
X60666667Y116609D01*
X60666667Y116609D02*
X60714286Y21371D01*
X60714286Y21371D02*
X60761905Y-26247D01*
X60761905Y-26247D02*
X60857143Y-73866D01*
X60857143Y-73866D02*
X61047619Y-73866D01*
X61047619Y-73866D02*
X61142857Y-26247D01*
X61142857Y-26247D02*
X61190476Y21371D01*
X61190476Y21371D02*
X61238095Y116609D01*
X-25404761Y-18254819D02*
X-25404761Y-17254819D01*
X-24833333Y-18254819D02*
X-25261904Y-17683390D01*
X-24833333Y-17254819D02*
X-25404761Y-17826247D01*
X-24023809Y-18207200D02*
X-24119047Y-18254819D01*
X-24119047Y-18254819D02*
X-24309523Y-18254819D01*
X-24309523Y-18254819D02*
X-24404761Y-18207200D01*
X-24404761Y-18207200D02*
X-24452380Y-18111961D01*
X-24452380Y-18111961D02*
X-24452380Y-17731009D01*
X-24452380Y-17731009D02*
X-24404761Y-17635771D01*
X-24404761Y-17635771D02*
X-24309523Y-17588152D01*
X-24309523Y-17588152D02*
X-24119047Y-17588152D01*
X-24119047Y-17588152D02*
X-24023809Y-17635771D01*
X-24023809Y-17635771D02*
X-23976190Y-17731009D01*
X-23976190Y-17731009D02*
X-23976190Y-17826247D01*
X-23976190Y-17826247D02*
X-24452380Y-17921485D01*
X-23642856Y-17588152D02*
X-23404761Y-18254819D01*
X-23166666Y-17588152D02*
X-23404761Y-18254819D01*
X-23404761Y-18254819D02*
X-23499999Y-18492914D01*
X-23499999Y-18492914D02*
X-23547618Y-18540533D01*
X-23547618Y-18540533D02*
X-23642856Y-18588152D01*
X-22833332Y-18207200D02*
X-22738094Y-18254819D01*
X-22738094Y-18254819D02*
X-22547618Y-18254819D01*
X-22547618Y-18254819D02*
X-22452380Y-18207200D01*
X-22452380Y-18207200D02*
X-22404761Y-18111961D01*
X-22404761Y-18111961D02*
X-22404761Y-18064342D01*
X-22404761Y-18064342D02*
X-22452380Y-17969104D01*
X-22452380Y-17969104D02*
X-22547618Y-17921485D01*
X-22547618Y-17921485D02*
X-22690475Y-17921485D01*
X-22690475Y-17921485D02*
X-22785713Y-17873866D01*
X-22785713Y-17873866D02*
X-22833332Y-17778628D01*
X-22833332Y-17778628D02*
X-22833332Y-17731009D01*
X-22833332Y-17731009D02*
X-22785713Y-17635771D01*
X-22785713Y-17635771D02*
X-22690475Y-17588152D01*
X-22690475Y-17588152D02*
X-22547618Y-17588152D01*
X-22547618Y-17588152D02*
X-22452380Y-17635771D01*
X-22071427Y-17588152D02*
X-21880951Y-18254819D01*
X-21880951Y-18254819D02*
X-21690475Y-17778628D01*
X-21690475Y-17778628D02*
X-21499999Y-18254819D01*
X-21499999Y-18254819D02*
X-21309523Y-17588152D01*
X-20928570Y-18254819D02*
X-20928570Y-17588152D01*
X-20928570Y-17254819D02*
X-20976189Y-17302438D01*
X-20976189Y-17302438D02*
X-20928570Y-17350057D01*
X-20928570Y-17350057D02*
X-20880951Y-17302438D01*
X-20880951Y-17302438D02*
X-20928570Y-17254819D01*
X-20928570Y-17254819D02*
X-20928570Y-17350057D01*
X-20595237Y-17588152D02*
X-20214285Y-17588152D01*
X-20452380Y-17254819D02*
X-20452380Y-18111961D01*
X-20452380Y-18111961D02*
X-20404761Y-18207200D01*
X-20404761Y-18207200D02*
X-20309523Y-18254819D01*
X-20309523Y-18254819D02*
X-20214285Y-18254819D01*
X-19452380Y-18207200D02*
X-19547618Y-18254819D01*
X-19547618Y-18254819D02*
X-19738094Y-18254819D01*
X-19738094Y-18254819D02*
X-19833332Y-18207200D01*
X-19833332Y-18207200D02*
X-19880951Y-18159580D01*
X-19880951Y-18159580D02*
X-19928570Y-18064342D01*
X-19928570Y-18064342D02*
X-19928570Y-17778628D01*
X-19928570Y-17778628D02*
X-19880951Y-17683390D01*
X-19880951Y-17683390D02*
X-19833332Y-17635771D01*
X-19833332Y-17635771D02*
X-19738094Y-17588152D01*
X-19738094Y-17588152D02*
X-19547618Y-17588152D01*
X-19547618Y-17588152D02*
X-19452380Y-17635771D01*
X-19023808Y-18254819D02*
X-19023808Y-17254819D01*
X-18595237Y-18254819D02*
X-18595237Y-17731009D01*
X-18595237Y-17731009D02*
X-18642856Y-17635771D01*
X-18642856Y-17635771D02*
X-18738094Y-17588152D01*
X-18738094Y-17588152D02*
X-18880951Y-17588152D01*
X-18880951Y-17588152D02*
X-18976189Y-17635771D01*
X-18976189Y-17635771D02*
X-19023808Y-17683390D01*
X-23238094Y-9207200D02*
X-23095237Y-9254819D01*
X-23095237Y-9254819D02*
X-22857142Y-9254819D01*
X-22857142Y-9254819D02*
X-22761904Y-9207200D01*
X-22761904Y-9207200D02*
X-22714285Y-9159580D01*
X-22714285Y-9159580D02*
X-22666666Y-9064342D01*
X-22666666Y-9064342D02*
X-22666666Y-8969104D01*
X-22666666Y-8969104D02*
X-22714285Y-8873866D01*
X-22714285Y-8873866D02*
X-22761904Y-8826247D01*
X-22761904Y-8826247D02*
X-22857142Y-8778628D01*
X-22857142Y-8778628D02*
X-23047618Y-8731009D01*
X-23047618Y-8731009D02*
X-23142856Y-8683390D01*
X-23142856Y-8683390D02*
X-23190475Y-8635771D01*
X-23190475Y-8635771D02*
X-23238094Y-8540533D01*
X-23238094Y-8540533D02*
X-23238094Y-8445295D01*
X-23238094Y-8445295D02*
X-23190475Y-8350057D01*
X-23190475Y-8350057D02*
X-23142856Y-8302438D01*
X-23142856Y-8302438D02*
X-23047618Y-8254819D01*
X-23047618Y-8254819D02*
X-22809523Y-8254819D01*
X-22809523Y-8254819D02*
X-22666666Y-8302438D01*
X-21714285Y-9254819D02*
X-22285713Y-9254819D01*
X-21999999Y-9254819D02*
X-21999999Y-8254819D01*
X-21999999Y-8254819D02*
X-22095237Y-8397676D01*
X-22095237Y-8397676D02*
X-22190475Y-8492914D01*
X-22190475Y-8492914D02*
X-22285713Y-8540533D01*
X-20857142Y-8254819D02*
X-21047618Y-8254819D01*
X-21047618Y-8254819D02*
X-21142856Y-8302438D01*
X-21142856Y-8302438D02*
X-21190475Y-8350057D01*
X-21190475Y-8350057D02*
X-21285713Y-8492914D01*
X-21285713Y-8492914D02*
X-21333332Y-8683390D01*
X-21333332Y-8683390D02*
X-21333332Y-9064342D01*
X-21333332Y-9064342D02*
X-21285713Y-9159580D01*
X-21285713Y-9159580D02*
X-21238094Y-9207200D01*
X-21238094Y-9207200D02*
X-21142856Y-9254819D01*
X-21142856Y-9254819D02*
X-20952380Y-9254819D01*
X-20952380Y-9254819D02*
X-20857142Y-9207200D01*
X-20857142Y-9207200D02*
X-20809523Y-9159580D01*
X-20809523Y-9159580D02*
X-20761904Y-9064342D01*
X-20761904Y-9064342D02*
X-20761904Y-8826247D01*
X-20761904Y-8826247D02*
X-20809523Y-8731009D01*
X-20809523Y-8731009D02*
X-20857142Y-8683390D01*
X-20857142Y-8683390D02*
X-20952380Y-8635771D01*
X-20952380Y-8635771D02*
X-21142856Y-8635771D01*
X-21142856Y-8635771D02*
X-21238094Y-8683390D01*
X-21238094Y-8683390D02*
X-21285713Y-8731009D01*
X-21285713Y-8731009D02*
X-21333332Y-8826247D01*
X-25404761Y-254819D02*
X-25404761Y745180D01*
X-24833333Y-254819D02*
X-25261904Y316609D01*
X-24833333Y745180D02*
X-25404761Y173752D01*
X-24023809Y-207200D02*
X-24119047Y-254819D01*
X-24119047Y-254819D02*
X-24309523Y-254819D01*
X-24309523Y-254819D02*
X-24404761Y-207200D01*
X-24404761Y-207200D02*
X-24452380Y-111961D01*
X-24452380Y-111961D02*
X-24452380Y268990D01*
X-24452380Y268990D02*
X-24404761Y364228D01*
X-24404761Y364228D02*
X-24309523Y411847D01*
X-24309523Y411847D02*
X-24119047Y411847D01*
X-24119047Y411847D02*
X-24023809Y364228D01*
X-24023809Y364228D02*
X-23976190Y268990D01*
X-23976190Y268990D02*
X-23976190Y173752D01*
X-23976190Y173752D02*
X-24452380Y78514D01*
X-23642856Y411847D02*
X-23404761Y-254819D01*
X-23166666Y411847D02*
X-23404761Y-254819D01*
X-23404761Y-254819D02*
X-23499999Y-492914D01*
X-23499999Y-492914D02*
X-23547618Y-540533D01*
X-23547618Y-540533D02*
X-23642856Y-588152D01*
X-22833332Y-207200D02*
X-22738094Y-254819D01*
X-22738094Y-254819D02*
X-22547618Y-254819D01*
X-22547618Y-254819D02*
X-22452380Y-207200D01*
X-22452380Y-207200D02*
X-22404761Y-111961D01*
X-22404761Y-111961D02*
X-22404761Y-64342D01*
X-22404761Y-64342D02*
X-22452380Y30895D01*
X-22452380Y30895D02*
X-22547618Y78514D01*
X-22547618Y78514D02*
X-22690475Y78514D01*
X-22690475Y78514D02*
X-22785713Y126133D01*
X-22785713Y126133D02*
X-22833332Y221371D01*
X-22833332Y221371D02*
X-22833332Y268990D01*
X-22833332Y268990D02*
X-22785713Y364228D01*
X-22785713Y364228D02*
X-22690475Y411847D01*
X-22690475Y411847D02*
X-22547618Y411847D01*
X-22547618Y411847D02*
X-22452380Y364228D01*
X-22071427Y411847D02*
X-21880951Y-254819D01*
X-21880951Y-254819D02*
X-21690475Y221371D01*
X-21690475Y221371D02*
X-21499999Y-254819D01*
X-21499999Y-254819D02*
X-21309523Y411847D01*
X-20928570Y-254819D02*
X-20928570Y411847D01*
X-20928570Y745180D02*
X-20976189Y697561D01*
X-20976189Y697561D02*
X-20928570Y649942D01*
X-20928570Y649942D02*
X-20880951Y697561D01*
X-20880951Y697561D02*
X-20928570Y745180D01*
X-20928570Y745180D02*
X-20928570Y649942D01*
X-20595237Y411847D02*
X-20214285Y411847D01*
X-20452380Y745180D02*
X-20452380Y-111961D01*
X-20452380Y-111961D02*
X-20404761Y-207200D01*
X-20404761Y-207200D02*
X-20309523Y-254819D01*
X-20309523Y-254819D02*
X-20214285Y-254819D01*
X-19452380Y-207200D02*
X-19547618Y-254819D01*
X-19547618Y-254819D02*
X-19738094Y-254819D01*
X-19738094Y-254819D02*
X-19833332Y-207200D01*
X-19833332Y-207200D02*
X-19880951Y-159580D01*
X-19880951Y-159580D02*
X-19928570Y-64342D01*
X-19928570Y-64342D02*
X-19928570Y221371D01*
X-19928570Y221371D02*
X-19880951Y316609D01*
X-19880951Y316609D02*
X-19833332Y364228D01*
X-19833332Y364228D02*
X-19738094Y411847D01*
X-19738094Y411847D02*
X-19547618Y411847D01*
X-19547618Y411847D02*
X-19452380Y364228D01*
X-19023808Y-254819D02*
X-19023808Y745180D01*
X-18595237Y-254819D02*
X-18595237Y268990D01*
X-18595237Y268990D02*
X-18642856Y364228D01*
X-18642856Y364228D02*
X-18738094Y411847D01*
X-18738094Y411847D02*
X-18880951Y411847D01*
X-18880951Y411847D02*
X-18976189Y364228D01*
X-18976189Y364228D02*
X-19023808Y316609D01*
X-22761904Y8792800D02*
X-22619047Y8745180D01*
X-22619047Y8745180D02*
X-22380952Y8745180D01*
X-22380952Y8745180D02*
X-22285714Y8792800D01*
X-22285714Y8792800D02*
X-22238095Y8840419D01*
X-22238095Y8840419D02*
X-22190476Y8935657D01*
X-22190476Y8935657D02*
X-22190476Y9030895D01*
X-22190476Y9030895D02*
X-22238095Y9126133D01*
X-22238095Y9126133D02*
X-22285714Y9173752D01*
X-22285714Y9173752D02*
X-22380952Y9221371D01*
X-22380952Y9221371D02*
X-22571428Y9268990D01*
X-22571428Y9268990D02*
X-22666666Y9316609D01*
X-22666666Y9316609D02*
X-22714285Y9364228D01*
X-22714285Y9364228D02*
X-22761904Y9459466D01*
X-22761904Y9459466D02*
X-22761904Y9554704D01*
X-22761904Y9554704D02*
X-22714285Y9649942D01*
X-22714285Y9649942D02*
X-22666666Y9697561D01*
X-22666666Y9697561D02*
X-22571428Y9745180D01*
X-22571428Y9745180D02*
X-22333333Y9745180D01*
X-22333333Y9745180D02*
X-22190476Y9697561D01*
X-21285714Y9745180D02*
X-21761904Y9745180D01*
X-21761904Y9745180D02*
X-21809523Y9268990D01*
X-21809523Y9268990D02*
X-21761904Y9316609D01*
X-21761904Y9316609D02*
X-21666666Y9364228D01*
X-21666666Y9364228D02*
X-21428571Y9364228D01*
X-21428571Y9364228D02*
X-21333333Y9316609D01*
X-21333333Y9316609D02*
X-21285714Y9268990D01*
X-21285714Y9268990D02*
X-21238095Y9173752D01*
X-21238095Y9173752D02*
X-21238095Y8935657D01*
X-21238095Y8935657D02*
X-21285714Y8840419D01*
X-21285714Y8840419D02*
X-21333333Y8792800D01*
X-21333333Y8792800D02*
X-21428571Y8745180D01*
X-21428571Y8745180D02*
X-21666666Y8745180D01*
X-21666666Y8745180D02*
X-21761904Y8792800D01*
X-21761904Y8792800D02*
X-21809523Y8840419D01*
X56595238Y8545180D02*
X56595238Y9545180D01*
X57166666Y8545180D02*
X56738095Y9116609D01*
X57166666Y9545180D02*
X56595238Y8973752D01*
X57976190Y8592800D02*
X57880952Y8545180D01*
X57880952Y8545180D02*
X57690476Y8545180D01*
X57690476Y8545180D02*
X57595238Y8592800D01*
X57595238Y8592800D02*
X57547619Y8688038D01*
X57547619Y8688038D02*
X57547619Y9068990D01*
X57547619Y9068990D02*
X57595238Y9164228D01*
X57595238Y9164228D02*
X57690476Y9211847D01*
X57690476Y9211847D02*
X57880952Y9211847D01*
X57880952Y9211847D02*
X57976190Y9164228D01*
X57976190Y9164228D02*
X58023809Y9068990D01*
X58023809Y9068990D02*
X58023809Y8973752D01*
X58023809Y8973752D02*
X57547619Y8878514D01*
X58357143Y9211847D02*
X58595238Y8545180D01*
X58833333Y9211847D02*
X58595238Y8545180D01*
X58595238Y8545180D02*
X58500000Y8307085D01*
X58500000Y8307085D02*
X58452381Y8259466D01*
X58452381Y8259466D02*
X58357143Y8211847D01*
X59166667Y8592800D02*
X59261905Y8545180D01*
X59261905Y8545180D02*
X59452381Y8545180D01*
X59452381Y8545180D02*
X59547619Y8592800D01*
X59547619Y8592800D02*
X59595238Y8688038D01*
X59595238Y8688038D02*
X59595238Y8735657D01*
X59595238Y8735657D02*
X59547619Y8830895D01*
X59547619Y8830895D02*
X59452381Y8878514D01*
X59452381Y8878514D02*
X59309524Y8878514D01*
X59309524Y8878514D02*
X59214286Y8926133D01*
X59214286Y8926133D02*
X59166667Y9021371D01*
X59166667Y9021371D02*
X59166667Y9068990D01*
X59166667Y9068990D02*
X59214286Y9164228D01*
X59214286Y9164228D02*
X59309524Y9211847D01*
X59309524Y9211847D02*
X59452381Y9211847D01*
X59452381Y9211847D02*
X59547619Y9164228D01*
X59928572Y9211847D02*
X60119048Y8545180D01*
X60119048Y8545180D02*
X60309524Y9021371D01*
X60309524Y9021371D02*
X60500000Y8545180D01*
X60500000Y8545180D02*
X60690476Y9211847D01*
X61071429Y8545180D02*
X61071429Y9211847D01*
X61071429Y9545180D02*
X61023810Y9497561D01*
X61023810Y9497561D02*
X61071429Y9449942D01*
X61071429Y9449942D02*
X61119048Y9497561D01*
X61119048Y9497561D02*
X61071429Y9545180D01*
X61071429Y9545180D02*
X61071429Y9449942D01*
X61404762Y9211847D02*
X61785714Y9211847D01*
X61547619Y9545180D02*
X61547619Y8688038D01*
X61547619Y8688038D02*
X61595238Y8592800D01*
X61595238Y8592800D02*
X61690476Y8545180D01*
X61690476Y8545180D02*
X61785714Y8545180D01*
X62547619Y8592800D02*
X62452381Y8545180D01*
X62452381Y8545180D02*
X62261905Y8545180D01*
X62261905Y8545180D02*
X62166667Y8592800D01*
X62166667Y8592800D02*
X62119048Y8640419D01*
X62119048Y8640419D02*
X62071429Y8735657D01*
X62071429Y8735657D02*
X62071429Y9021371D01*
X62071429Y9021371D02*
X62119048Y9116609D01*
X62119048Y9116609D02*
X62166667Y9164228D01*
X62166667Y9164228D02*
X62261905Y9211847D01*
X62261905Y9211847D02*
X62452381Y9211847D01*
X62452381Y9211847D02*
X62547619Y9164228D01*
X62976191Y8545180D02*
X62976191Y9545180D01*
X63404762Y8545180D02*
X63404762Y9068990D01*
X63404762Y9068990D02*
X63357143Y9164228D01*
X63357143Y9164228D02*
X63261905Y9211847D01*
X63261905Y9211847D02*
X63119048Y9211847D01*
X63119048Y9211847D02*
X63023810Y9164228D01*
X63023810Y9164228D02*
X62976191Y9116609D01*
X59238095Y17592800D02*
X59380952Y17545180D01*
X59380952Y17545180D02*
X59619047Y17545180D01*
X59619047Y17545180D02*
X59714285Y17592800D01*
X59714285Y17592800D02*
X59761904Y17640419D01*
X59761904Y17640419D02*
X59809523Y17735657D01*
X59809523Y17735657D02*
X59809523Y17830895D01*
X59809523Y17830895D02*
X59761904Y17926133D01*
X59761904Y17926133D02*
X59714285Y17973752D01*
X59714285Y17973752D02*
X59619047Y18021371D01*
X59619047Y18021371D02*
X59428571Y18068990D01*
X59428571Y18068990D02*
X59333333Y18116609D01*
X59333333Y18116609D02*
X59285714Y18164228D01*
X59285714Y18164228D02*
X59238095Y18259466D01*
X59238095Y18259466D02*
X59238095Y18354704D01*
X59238095Y18354704D02*
X59285714Y18449942D01*
X59285714Y18449942D02*
X59333333Y18497561D01*
X59333333Y18497561D02*
X59428571Y18545180D01*
X59428571Y18545180D02*
X59666666Y18545180D01*
X59666666Y18545180D02*
X59809523Y18497561D01*
X60380952Y18116609D02*
X60285714Y18164228D01*
X60285714Y18164228D02*
X60238095Y18211847D01*
X60238095Y18211847D02*
X60190476Y18307085D01*
X60190476Y18307085D02*
X60190476Y18354704D01*
X60190476Y18354704D02*
X60238095Y18449942D01*
X60238095Y18449942D02*
X60285714Y18497561D01*
X60285714Y18497561D02*
X60380952Y18545180D01*
X60380952Y18545180D02*
X60571428Y18545180D01*
X60571428Y18545180D02*
X60666666Y18497561D01*
X60666666Y18497561D02*
X60714285Y18449942D01*
X60714285Y18449942D02*
X60761904Y18354704D01*
X60761904Y18354704D02*
X60761904Y18307085D01*
X60761904Y18307085D02*
X60714285Y18211847D01*
X60714285Y18211847D02*
X60666666Y18164228D01*
X60666666Y18164228D02*
X60571428Y18116609D01*
X60571428Y18116609D02*
X60380952Y18116609D01*
X60380952Y18116609D02*
X60285714Y18068990D01*
X60285714Y18068990D02*
X60238095Y18021371D01*
X60238095Y18021371D02*
X60190476Y17926133D01*
X60190476Y17926133D02*
X60190476Y17735657D01*
X60190476Y17735657D02*
X60238095Y17640419D01*
X60238095Y17640419D02*
X60285714Y17592800D01*
X60285714Y17592800D02*
X60380952Y17545180D01*
X60380952Y17545180D02*
X60571428Y17545180D01*
X60571428Y17545180D02*
X60666666Y17592800D01*
X60666666Y17592800D02*
X60714285Y17640419D01*
X60714285Y17640419D02*
X60761904Y17735657D01*
X60761904Y17735657D02*
X60761904Y17926133D01*
X60761904Y17926133D02*
X60714285Y18021371D01*
X60714285Y18021371D02*
X60666666Y18068990D01*
X60666666Y18068990D02*
X60571428Y18116609D01*
X-63894923Y-53963670D02*
X-63842587Y-52965040D01*
X-63324277Y-53993576D02*
X-63722355Y-53400501D01*
X-63271941Y-52994946D02*
X-63872493Y-53535686D01*
X-62513371Y-53988389D02*
X-62610970Y-54030959D01*
X-62610970Y-54030959D02*
X-62801185Y-54020990D01*
X-62801185Y-54020990D02*
X-62893801Y-53968452D01*
X-62893801Y-53968452D02*
X-62936370Y-53870852D01*
X-62936370Y-53870852D02*
X-62916433Y-53490422D01*
X-62916433Y-53490422D02*
X-62863895Y-53397806D01*
X-62863895Y-53397806D02*
X-62766295Y-53355237D01*
X-62766295Y-53355237D02*
X-62576080Y-53365206D01*
X-62576080Y-53365206D02*
X-62483464Y-53417744D01*
X-62483464Y-53417744D02*
X-62440895Y-53515344D01*
X-62440895Y-53515344D02*
X-62445879Y-53610451D01*
X-62445879Y-53610451D02*
X-62926401Y-53680637D01*
X-62100542Y-53390128D02*
X-61897663Y-54068342D01*
X-61625004Y-53415050D02*
X-61897663Y-54068342D01*
X-61897663Y-54068342D02*
X-62005232Y-54301126D01*
X-62005232Y-54301126D02*
X-62055278Y-54346188D01*
X-62055278Y-54346188D02*
X-62152878Y-54388757D01*
X-61324525Y-54050694D02*
X-61231910Y-54103232D01*
X-61231910Y-54103232D02*
X-61041695Y-54113201D01*
X-61041695Y-54113201D02*
X-60944095Y-54070632D01*
X-60944095Y-54070632D02*
X-60891557Y-53978016D01*
X-60891557Y-53978016D02*
X-60889065Y-53930463D01*
X-60889065Y-53930463D02*
X-60931634Y-53832863D01*
X-60931634Y-53832863D02*
X-61024250Y-53780325D01*
X-61024250Y-53780325D02*
X-61166911Y-53772848D01*
X-61166911Y-53772848D02*
X-61259526Y-53720310D01*
X-61259526Y-53720310D02*
X-61302096Y-53622710D01*
X-61302096Y-53622710D02*
X-61299604Y-53575156D01*
X-61299604Y-53575156D02*
X-61247065Y-53482541D01*
X-61247065Y-53482541D02*
X-61149466Y-53439972D01*
X-61149466Y-53439972D02*
X-61006804Y-53447448D01*
X-61006804Y-53447448D02*
X-60914189Y-53499986D01*
X-60531266Y-53472370D02*
X-60375942Y-54148092D01*
X-60375942Y-54148092D02*
X-60160805Y-53682523D01*
X-60160805Y-53682523D02*
X-59995511Y-54168029D01*
X-59995511Y-54168029D02*
X-59770406Y-53512245D01*
X-59424866Y-54197936D02*
X-59389975Y-53532182D01*
X-59372530Y-53199306D02*
X-59422576Y-53244368D01*
X-59422576Y-53244368D02*
X-59377514Y-53294414D01*
X-59377514Y-53294414D02*
X-59327468Y-53249352D01*
X-59327468Y-53249352D02*
X-59372530Y-53199306D01*
X-59372530Y-53199306D02*
X-59377514Y-53294414D01*
X-59057099Y-53549628D02*
X-58676669Y-53569565D01*
X-58896993Y-53224228D02*
X-58941852Y-54080196D01*
X-58941852Y-54080196D02*
X-58899283Y-54177796D01*
X-58899283Y-54177796D02*
X-58806667Y-54230334D01*
X-58806667Y-54230334D02*
X-58711560Y-54235318D01*
X-57948206Y-54227640D02*
X-58045806Y-54270209D01*
X-58045806Y-54270209D02*
X-58236021Y-54260240D01*
X-58236021Y-54260240D02*
X-58328637Y-54207702D01*
X-58328637Y-54207702D02*
X-58373698Y-54157656D01*
X-58373698Y-54157656D02*
X-58416268Y-54060056D01*
X-58416268Y-54060056D02*
X-58401315Y-53774734D01*
X-58401315Y-53774734D02*
X-58348776Y-53682118D01*
X-58348776Y-53682118D02*
X-58298730Y-53637057D01*
X-58298730Y-53637057D02*
X-58201131Y-53594487D01*
X-58201131Y-53594487D02*
X-58010916Y-53604456D01*
X-58010916Y-53604456D02*
X-57918300Y-53656994D01*
X-57522714Y-54297623D02*
X-57470378Y-53298994D01*
X-57094730Y-54320053D02*
X-57067316Y-53796961D01*
X-57067316Y-53796961D02*
X-57109886Y-53699361D01*
X-57109886Y-53699361D02*
X-57202501Y-53646823D01*
X-57202501Y-53646823D02*
X-57345162Y-53639347D01*
X-57345162Y-53639347D02*
X-57442762Y-53681916D01*
X-57442762Y-53681916D02*
X-57492808Y-53726978D01*
X-61257709Y-45041845D02*
X-61117540Y-45096875D01*
X-61117540Y-45096875D02*
X-60879771Y-45109336D01*
X-60879771Y-45109336D02*
X-60782171Y-45066766D01*
X-60782171Y-45066766D02*
X-60732125Y-45021705D01*
X-60732125Y-45021705D02*
X-60679587Y-44929089D01*
X-60679587Y-44929089D02*
X-60674602Y-44833982D01*
X-60674602Y-44833982D02*
X-60717172Y-44736382D01*
X-60717172Y-44736382D02*
X-60762233Y-44686336D01*
X-60762233Y-44686336D02*
X-60854849Y-44633798D01*
X-60854849Y-44633798D02*
X-61042572Y-44576275D01*
X-61042572Y-44576275D02*
X-61135187Y-44523737D01*
X-61135187Y-44523737D02*
X-61180249Y-44473691D01*
X-61180249Y-44473691D02*
X-61222818Y-44376092D01*
X-61222818Y-44376092D02*
X-61217834Y-44280984D01*
X-61217834Y-44280984D02*
X-61165296Y-44188369D01*
X-61165296Y-44188369D02*
X-61115250Y-44143307D01*
X-61115250Y-44143307D02*
X-61017650Y-44100738D01*
X-61017650Y-44100738D02*
X-60779881Y-44113199D01*
X-60779881Y-44113199D02*
X-60639712Y-44168229D01*
X-60261774Y-44235720D02*
X-60211728Y-44190659D01*
X-60211728Y-44190659D02*
X-60114128Y-44148089D01*
X-60114128Y-44148089D02*
X-59876359Y-44160550D01*
X-59876359Y-44160550D02*
X-59783743Y-44213088D01*
X-59783743Y-44213088D02*
X-59738682Y-44263134D01*
X-59738682Y-44263134D02*
X-59696112Y-44360734D01*
X-59696112Y-44360734D02*
X-59701097Y-44455842D01*
X-59701097Y-44455842D02*
X-59756127Y-44596011D01*
X-59756127Y-44596011D02*
X-60356679Y-45136750D01*
X-60356679Y-45136750D02*
X-59738480Y-45169148D01*
X-59353267Y-44187964D02*
X-58735068Y-44220363D01*
X-58735068Y-44220363D02*
X-59087882Y-44583348D01*
X-59087882Y-44583348D02*
X-58945221Y-44590824D01*
X-58945221Y-44590824D02*
X-58852605Y-44643362D01*
X-58852605Y-44643362D02*
X-58807544Y-44693408D01*
X-58807544Y-44693408D02*
X-58764974Y-44791008D01*
X-58764974Y-44791008D02*
X-58777435Y-45028777D01*
X-58777435Y-45028777D02*
X-58829973Y-45121392D01*
X-58829973Y-45121392D02*
X-58880019Y-45166454D01*
X-58880019Y-45166454D02*
X-58977619Y-45209023D01*
X-58977619Y-45209023D02*
X-59262942Y-45194070D01*
X-59262942Y-45194070D02*
X-59355557Y-45141532D01*
X-59355557Y-45141532D02*
X-59400619Y-45091486D01*
X-63404761Y8545180D02*
X-63404761Y9545180D01*
X-62833333Y8545180D02*
X-63261904Y9116609D01*
X-62833333Y9545180D02*
X-63404761Y8973752D01*
X-62023809Y8592800D02*
X-62119047Y8545180D01*
X-62119047Y8545180D02*
X-62309523Y8545180D01*
X-62309523Y8545180D02*
X-62404761Y8592800D01*
X-62404761Y8592800D02*
X-62452380Y8688038D01*
X-62452380Y8688038D02*
X-62452380Y9068990D01*
X-62452380Y9068990D02*
X-62404761Y9164228D01*
X-62404761Y9164228D02*
X-62309523Y9211847D01*
X-62309523Y9211847D02*
X-62119047Y9211847D01*
X-62119047Y9211847D02*
X-62023809Y9164228D01*
X-62023809Y9164228D02*
X-61976190Y9068990D01*
X-61976190Y9068990D02*
X-61976190Y8973752D01*
X-61976190Y8973752D02*
X-62452380Y8878514D01*
X-61642856Y9211847D02*
X-61404761Y8545180D01*
X-61166666Y9211847D02*
X-61404761Y8545180D01*
X-61404761Y8545180D02*
X-61499999Y8307085D01*
X-61499999Y8307085D02*
X-61547618Y8259466D01*
X-61547618Y8259466D02*
X-61642856Y8211847D01*
X-60833332Y8592800D02*
X-60738094Y8545180D01*
X-60738094Y8545180D02*
X-60547618Y8545180D01*
X-60547618Y8545180D02*
X-60452380Y8592800D01*
X-60452380Y8592800D02*
X-60404761Y8688038D01*
X-60404761Y8688038D02*
X-60404761Y8735657D01*
X-60404761Y8735657D02*
X-60452380Y8830895D01*
X-60452380Y8830895D02*
X-60547618Y8878514D01*
X-60547618Y8878514D02*
X-60690475Y8878514D01*
X-60690475Y8878514D02*
X-60785713Y8926133D01*
X-60785713Y8926133D02*
X-60833332Y9021371D01*
X-60833332Y9021371D02*
X-60833332Y9068990D01*
X-60833332Y9068990D02*
X-60785713Y9164228D01*
X-60785713Y9164228D02*
X-60690475Y9211847D01*
X-60690475Y9211847D02*
X-60547618Y9211847D01*
X-60547618Y9211847D02*
X-60452380Y9164228D01*
X-60071427Y9211847D02*
X-59880951Y8545180D01*
X-59880951Y8545180D02*
X-59690475Y9021371D01*
X-59690475Y9021371D02*
X-59499999Y8545180D01*
X-59499999Y8545180D02*
X-59309523Y9211847D01*
X-58928570Y8545180D02*
X-58928570Y9211847D01*
X-58928570Y9545180D02*
X-58976189Y9497561D01*
X-58976189Y9497561D02*
X-58928570Y9449942D01*
X-58928570Y9449942D02*
X-58880951Y9497561D01*
X-58880951Y9497561D02*
X-58928570Y9545180D01*
X-58928570Y9545180D02*
X-58928570Y9449942D01*
X-58595237Y9211847D02*
X-58214285Y9211847D01*
X-58452380Y9545180D02*
X-58452380Y8688038D01*
X-58452380Y8688038D02*
X-58404761Y8592800D01*
X-58404761Y8592800D02*
X-58309523Y8545180D01*
X-58309523Y8545180D02*
X-58214285Y8545180D01*
X-57452380Y8592800D02*
X-57547618Y8545180D01*
X-57547618Y8545180D02*
X-57738094Y8545180D01*
X-57738094Y8545180D02*
X-57833332Y8592800D01*
X-57833332Y8592800D02*
X-57880951Y8640419D01*
X-57880951Y8640419D02*
X-57928570Y8735657D01*
X-57928570Y8735657D02*
X-57928570Y9021371D01*
X-57928570Y9021371D02*
X-57880951Y9116609D01*
X-57880951Y9116609D02*
X-57833332Y9164228D01*
X-57833332Y9164228D02*
X-57738094Y9211847D01*
X-57738094Y9211847D02*
X-57547618Y9211847D01*
X-57547618Y9211847D02*
X-57452380Y9164228D01*
X-57023808Y8545180D02*
X-57023808Y9545180D01*
X-56595237Y8545180D02*
X-56595237Y9068990D01*
X-56595237Y9068990D02*
X-56642856Y9164228D01*
X-56642856Y9164228D02*
X-56738094Y9211847D01*
X-56738094Y9211847D02*
X-56880951Y9211847D01*
X-56880951Y9211847D02*
X-56976189Y9164228D01*
X-56976189Y9164228D02*
X-57023808Y9116609D01*
X-60761904Y17592800D02*
X-60619047Y17545180D01*
X-60619047Y17545180D02*
X-60380952Y17545180D01*
X-60380952Y17545180D02*
X-60285714Y17592800D01*
X-60285714Y17592800D02*
X-60238095Y17640419D01*
X-60238095Y17640419D02*
X-60190476Y17735657D01*
X-60190476Y17735657D02*
X-60190476Y17830895D01*
X-60190476Y17830895D02*
X-60238095Y17926133D01*
X-60238095Y17926133D02*
X-60285714Y17973752D01*
X-60285714Y17973752D02*
X-60380952Y18021371D01*
X-60380952Y18021371D02*
X-60571428Y18068990D01*
X-60571428Y18068990D02*
X-60666666Y18116609D01*
X-60666666Y18116609D02*
X-60714285Y18164228D01*
X-60714285Y18164228D02*
X-60761904Y18259466D01*
X-60761904Y18259466D02*
X-60761904Y18354704D01*
X-60761904Y18354704D02*
X-60714285Y18449942D01*
X-60714285Y18449942D02*
X-60666666Y18497561D01*
X-60666666Y18497561D02*
X-60571428Y18545180D01*
X-60571428Y18545180D02*
X-60333333Y18545180D01*
X-60333333Y18545180D02*
X-60190476Y18497561D01*
X-59857142Y18545180D02*
X-59238095Y18545180D01*
X-59238095Y18545180D02*
X-59571428Y18164228D01*
X-59571428Y18164228D02*
X-59428571Y18164228D01*
X-59428571Y18164228D02*
X-59333333Y18116609D01*
X-59333333Y18116609D02*
X-59285714Y18068990D01*
X-59285714Y18068990D02*
X-59238095Y17973752D01*
X-59238095Y17973752D02*
X-59238095Y17735657D01*
X-59238095Y17735657D02*
X-59285714Y17640419D01*
X-59285714Y17640419D02*
X-59333333Y17592800D01*
X-59333333Y17592800D02*
X-59428571Y17545180D01*
X-59428571Y17545180D02*
X-59714285Y17545180D01*
X-59714285Y17545180D02*
X-59809523Y17592800D01*
X-59809523Y17592800D02*
X-59857142Y17640419D01*
X-44404761Y-254819D02*
X-44404761Y745180D01*
X-43833333Y-254819D02*
X-44261904Y316609D01*
X-43833333Y745180D02*
X-44404761Y173752D01*
X-43023809Y-207200D02*
X-43119047Y-254819D01*
X-43119047Y-254819D02*
X-43309523Y-254819D01*
X-43309523Y-254819D02*
X-43404761Y-207200D01*
X-43404761Y-207200D02*
X-43452380Y-111961D01*
X-43452380Y-111961D02*
X-43452380Y268990D01*
X-43452380Y268990D02*
X-43404761Y364228D01*
X-43404761Y364228D02*
X-43309523Y411847D01*
X-43309523Y411847D02*
X-43119047Y411847D01*
X-43119047Y411847D02*
X-43023809Y364228D01*
X-43023809Y364228D02*
X-42976190Y268990D01*
X-42976190Y268990D02*
X-42976190Y173752D01*
X-42976190Y173752D02*
X-43452380Y78514D01*
X-42642856Y411847D02*
X-42404761Y-254819D01*
X-42166666Y411847D02*
X-42404761Y-254819D01*
X-42404761Y-254819D02*
X-42499999Y-492914D01*
X-42499999Y-492914D02*
X-42547618Y-540533D01*
X-42547618Y-540533D02*
X-42642856Y-588152D01*
X-41833332Y-207200D02*
X-41738094Y-254819D01*
X-41738094Y-254819D02*
X-41547618Y-254819D01*
X-41547618Y-254819D02*
X-41452380Y-207200D01*
X-41452380Y-207200D02*
X-41404761Y-111961D01*
X-41404761Y-111961D02*
X-41404761Y-64342D01*
X-41404761Y-64342D02*
X-41452380Y30895D01*
X-41452380Y30895D02*
X-41547618Y78514D01*
X-41547618Y78514D02*
X-41690475Y78514D01*
X-41690475Y78514D02*
X-41785713Y126133D01*
X-41785713Y126133D02*
X-41833332Y221371D01*
X-41833332Y221371D02*
X-41833332Y268990D01*
X-41833332Y268990D02*
X-41785713Y364228D01*
X-41785713Y364228D02*
X-41690475Y411847D01*
X-41690475Y411847D02*
X-41547618Y411847D01*
X-41547618Y411847D02*
X-41452380Y364228D01*
X-41071427Y411847D02*
X-40880951Y-254819D01*
X-40880951Y-254819D02*
X-40690475Y221371D01*
X-40690475Y221371D02*
X-40499999Y-254819D01*
X-40499999Y-254819D02*
X-40309523Y411847D01*
X-39928570Y-254819D02*
X-39928570Y411847D01*
X-39928570Y745180D02*
X-39976189Y697561D01*
X-39976189Y697561D02*
X-39928570Y649942D01*
X-39928570Y649942D02*
X-39880951Y697561D01*
X-39880951Y697561D02*
X-39928570Y745180D01*
X-39928570Y745180D02*
X-39928570Y649942D01*
X-39595237Y411847D02*
X-39214285Y411847D01*
X-39452380Y745180D02*
X-39452380Y-111961D01*
X-39452380Y-111961D02*
X-39404761Y-207200D01*
X-39404761Y-207200D02*
X-39309523Y-254819D01*
X-39309523Y-254819D02*
X-39214285Y-254819D01*
X-38452380Y-207200D02*
X-38547618Y-254819D01*
X-38547618Y-254819D02*
X-38738094Y-254819D01*
X-38738094Y-254819D02*
X-38833332Y-207200D01*
X-38833332Y-207200D02*
X-38880951Y-159580D01*
X-38880951Y-159580D02*
X-38928570Y-64342D01*
X-38928570Y-64342D02*
X-38928570Y221371D01*
X-38928570Y221371D02*
X-38880951Y316609D01*
X-38880951Y316609D02*
X-38833332Y364228D01*
X-38833332Y364228D02*
X-38738094Y411847D01*
X-38738094Y411847D02*
X-38547618Y411847D01*
X-38547618Y411847D02*
X-38452380Y364228D01*
X-38023808Y-254819D02*
X-38023808Y745180D01*
X-37595237Y-254819D02*
X-37595237Y268990D01*
X-37595237Y268990D02*
X-37642856Y364228D01*
X-37642856Y364228D02*
X-37738094Y411847D01*
X-37738094Y411847D02*
X-37880951Y411847D01*
X-37880951Y411847D02*
X-37976189Y364228D01*
X-37976189Y364228D02*
X-38023808Y316609D01*
X-41761904Y8792800D02*
X-41619047Y8745180D01*
X-41619047Y8745180D02*
X-41380952Y8745180D01*
X-41380952Y8745180D02*
X-41285714Y8792800D01*
X-41285714Y8792800D02*
X-41238095Y8840419D01*
X-41238095Y8840419D02*
X-41190476Y8935657D01*
X-41190476Y8935657D02*
X-41190476Y9030895D01*
X-41190476Y9030895D02*
X-41238095Y9126133D01*
X-41238095Y9126133D02*
X-41285714Y9173752D01*
X-41285714Y9173752D02*
X-41380952Y9221371D01*
X-41380952Y9221371D02*
X-41571428Y9268990D01*
X-41571428Y9268990D02*
X-41666666Y9316609D01*
X-41666666Y9316609D02*
X-41714285Y9364228D01*
X-41714285Y9364228D02*
X-41761904Y9459466D01*
X-41761904Y9459466D02*
X-41761904Y9554704D01*
X-41761904Y9554704D02*
X-41714285Y9649942D01*
X-41714285Y9649942D02*
X-41666666Y9697561D01*
X-41666666Y9697561D02*
X-41571428Y9745180D01*
X-41571428Y9745180D02*
X-41333333Y9745180D01*
X-41333333Y9745180D02*
X-41190476Y9697561D01*
X-40333333Y9411847D02*
X-40333333Y8745180D01*
X-40571428Y9792800D02*
X-40809523Y9078514D01*
X-40809523Y9078514D02*
X-40190476Y9078514D01*
X-82404761Y-8354819D02*
X-82404761Y-7354819D01*
X-81833333Y-8354819D02*
X-82261904Y-7783390D01*
X-81833333Y-7354819D02*
X-82404761Y-7926247D01*
X-81023809Y-8307200D02*
X-81119047Y-8354819D01*
X-81119047Y-8354819D02*
X-81309523Y-8354819D01*
X-81309523Y-8354819D02*
X-81404761Y-8307200D01*
X-81404761Y-8307200D02*
X-81452380Y-8211961D01*
X-81452380Y-8211961D02*
X-81452380Y-7831009D01*
X-81452380Y-7831009D02*
X-81404761Y-7735771D01*
X-81404761Y-7735771D02*
X-81309523Y-7688152D01*
X-81309523Y-7688152D02*
X-81119047Y-7688152D01*
X-81119047Y-7688152D02*
X-81023809Y-7735771D01*
X-81023809Y-7735771D02*
X-80976190Y-7831009D01*
X-80976190Y-7831009D02*
X-80976190Y-7926247D01*
X-80976190Y-7926247D02*
X-81452380Y-8021485D01*
X-80642856Y-7688152D02*
X-80404761Y-8354819D01*
X-80166666Y-7688152D02*
X-80404761Y-8354819D01*
X-80404761Y-8354819D02*
X-80499999Y-8592914D01*
X-80499999Y-8592914D02*
X-80547618Y-8640533D01*
X-80547618Y-8640533D02*
X-80642856Y-8688152D01*
X-79833332Y-8307200D02*
X-79738094Y-8354819D01*
X-79738094Y-8354819D02*
X-79547618Y-8354819D01*
X-79547618Y-8354819D02*
X-79452380Y-8307200D01*
X-79452380Y-8307200D02*
X-79404761Y-8211961D01*
X-79404761Y-8211961D02*
X-79404761Y-8164342D01*
X-79404761Y-8164342D02*
X-79452380Y-8069104D01*
X-79452380Y-8069104D02*
X-79547618Y-8021485D01*
X-79547618Y-8021485D02*
X-79690475Y-8021485D01*
X-79690475Y-8021485D02*
X-79785713Y-7973866D01*
X-79785713Y-7973866D02*
X-79833332Y-7878628D01*
X-79833332Y-7878628D02*
X-79833332Y-7831009D01*
X-79833332Y-7831009D02*
X-79785713Y-7735771D01*
X-79785713Y-7735771D02*
X-79690475Y-7688152D01*
X-79690475Y-7688152D02*
X-79547618Y-7688152D01*
X-79547618Y-7688152D02*
X-79452380Y-7735771D01*
X-79071427Y-7688152D02*
X-78880951Y-8354819D01*
X-78880951Y-8354819D02*
X-78690475Y-7878628D01*
X-78690475Y-7878628D02*
X-78499999Y-8354819D01*
X-78499999Y-8354819D02*
X-78309523Y-7688152D01*
X-77928570Y-8354819D02*
X-77928570Y-7688152D01*
X-77928570Y-7354819D02*
X-77976189Y-7402438D01*
X-77976189Y-7402438D02*
X-77928570Y-7450057D01*
X-77928570Y-7450057D02*
X-77880951Y-7402438D01*
X-77880951Y-7402438D02*
X-77928570Y-7354819D01*
X-77928570Y-7354819D02*
X-77928570Y-7450057D01*
X-77595237Y-7688152D02*
X-77214285Y-7688152D01*
X-77452380Y-7354819D02*
X-77452380Y-8211961D01*
X-77452380Y-8211961D02*
X-77404761Y-8307200D01*
X-77404761Y-8307200D02*
X-77309523Y-8354819D01*
X-77309523Y-8354819D02*
X-77214285Y-8354819D01*
X-76452380Y-8307200D02*
X-76547618Y-8354819D01*
X-76547618Y-8354819D02*
X-76738094Y-8354819D01*
X-76738094Y-8354819D02*
X-76833332Y-8307200D01*
X-76833332Y-8307200D02*
X-76880951Y-8259580D01*
X-76880951Y-8259580D02*
X-76928570Y-8164342D01*
X-76928570Y-8164342D02*
X-76928570Y-7878628D01*
X-76928570Y-7878628D02*
X-76880951Y-7783390D01*
X-76880951Y-7783390D02*
X-76833332Y-7735771D01*
X-76833332Y-7735771D02*
X-76738094Y-7688152D01*
X-76738094Y-7688152D02*
X-76547618Y-7688152D01*
X-76547618Y-7688152D02*
X-76452380Y-7735771D01*
X-76023808Y-8354819D02*
X-76023808Y-7354819D01*
X-75595237Y-8354819D02*
X-75595237Y-7831009D01*
X-75595237Y-7831009D02*
X-75642856Y-7735771D01*
X-75642856Y-7735771D02*
X-75738094Y-7688152D01*
X-75738094Y-7688152D02*
X-75880951Y-7688152D01*
X-75880951Y-7688152D02*
X-75976189Y-7735771D01*
X-75976189Y-7735771D02*
X-76023808Y-7783390D01*
X-80238094Y692800D02*
X-80095237Y645180D01*
X-80095237Y645180D02*
X-79857142Y645180D01*
X-79857142Y645180D02*
X-79761904Y692800D01*
X-79761904Y692800D02*
X-79714285Y740419D01*
X-79714285Y740419D02*
X-79666666Y835657D01*
X-79666666Y835657D02*
X-79666666Y930895D01*
X-79666666Y930895D02*
X-79714285Y1026133D01*
X-79714285Y1026133D02*
X-79761904Y1073752D01*
X-79761904Y1073752D02*
X-79857142Y1121371D01*
X-79857142Y1121371D02*
X-80047618Y1168990D01*
X-80047618Y1168990D02*
X-80142856Y1216609D01*
X-80142856Y1216609D02*
X-80190475Y1264228D01*
X-80190475Y1264228D02*
X-80238094Y1359466D01*
X-80238094Y1359466D02*
X-80238094Y1454704D01*
X-80238094Y1454704D02*
X-80190475Y1549942D01*
X-80190475Y1549942D02*
X-80142856Y1597561D01*
X-80142856Y1597561D02*
X-80047618Y1645180D01*
X-80047618Y1645180D02*
X-79809523Y1645180D01*
X-79809523Y1645180D02*
X-79666666Y1597561D01*
X-78714285Y645180D02*
X-79285713Y645180D01*
X-78999999Y645180D02*
X-78999999Y1645180D01*
X-78999999Y1645180D02*
X-79095237Y1502323D01*
X-79095237Y1502323D02*
X-79190475Y1407085D01*
X-79190475Y1407085D02*
X-79285713Y1359466D01*
X-78380951Y1645180D02*
X-77761904Y1645180D01*
X-77761904Y1645180D02*
X-78095237Y1264228D01*
X-78095237Y1264228D02*
X-77952380Y1264228D01*
X-77952380Y1264228D02*
X-77857142Y1216609D01*
X-77857142Y1216609D02*
X-77809523Y1168990D01*
X-77809523Y1168990D02*
X-77761904Y1073752D01*
X-77761904Y1073752D02*
X-77761904Y835657D01*
X-77761904Y835657D02*
X-77809523Y740419D01*
X-77809523Y740419D02*
X-77857142Y692800D01*
X-77857142Y692800D02*
X-77952380Y645180D01*
X-77952380Y645180D02*
X-78238094Y645180D01*
X-78238094Y645180D02*
X-78333332Y692800D01*
X-78333332Y692800D02*
X-78380951Y740419D01*
X75595238Y-8354819D02*
X75595238Y-7354819D01*
X76166666Y-8354819D02*
X75738095Y-7783390D01*
X76166666Y-7354819D02*
X75595238Y-7926247D01*
X76976190Y-8307200D02*
X76880952Y-8354819D01*
X76880952Y-8354819D02*
X76690476Y-8354819D01*
X76690476Y-8354819D02*
X76595238Y-8307200D01*
X76595238Y-8307200D02*
X76547619Y-8211961D01*
X76547619Y-8211961D02*
X76547619Y-7831009D01*
X76547619Y-7831009D02*
X76595238Y-7735771D01*
X76595238Y-7735771D02*
X76690476Y-7688152D01*
X76690476Y-7688152D02*
X76880952Y-7688152D01*
X76880952Y-7688152D02*
X76976190Y-7735771D01*
X76976190Y-7735771D02*
X77023809Y-7831009D01*
X77023809Y-7831009D02*
X77023809Y-7926247D01*
X77023809Y-7926247D02*
X76547619Y-8021485D01*
X77357143Y-7688152D02*
X77595238Y-8354819D01*
X77833333Y-7688152D02*
X77595238Y-8354819D01*
X77595238Y-8354819D02*
X77500000Y-8592914D01*
X77500000Y-8592914D02*
X77452381Y-8640533D01*
X77452381Y-8640533D02*
X77357143Y-8688152D01*
X78166667Y-8307200D02*
X78261905Y-8354819D01*
X78261905Y-8354819D02*
X78452381Y-8354819D01*
X78452381Y-8354819D02*
X78547619Y-8307200D01*
X78547619Y-8307200D02*
X78595238Y-8211961D01*
X78595238Y-8211961D02*
X78595238Y-8164342D01*
X78595238Y-8164342D02*
X78547619Y-8069104D01*
X78547619Y-8069104D02*
X78452381Y-8021485D01*
X78452381Y-8021485D02*
X78309524Y-8021485D01*
X78309524Y-8021485D02*
X78214286Y-7973866D01*
X78214286Y-7973866D02*
X78166667Y-7878628D01*
X78166667Y-7878628D02*
X78166667Y-7831009D01*
X78166667Y-7831009D02*
X78214286Y-7735771D01*
X78214286Y-7735771D02*
X78309524Y-7688152D01*
X78309524Y-7688152D02*
X78452381Y-7688152D01*
X78452381Y-7688152D02*
X78547619Y-7735771D01*
X78928572Y-7688152D02*
X79119048Y-8354819D01*
X79119048Y-8354819D02*
X79309524Y-7878628D01*
X79309524Y-7878628D02*
X79500000Y-8354819D01*
X79500000Y-8354819D02*
X79690476Y-7688152D01*
X80071429Y-8354819D02*
X80071429Y-7688152D01*
X80071429Y-7354819D02*
X80023810Y-7402438D01*
X80023810Y-7402438D02*
X80071429Y-7450057D01*
X80071429Y-7450057D02*
X80119048Y-7402438D01*
X80119048Y-7402438D02*
X80071429Y-7354819D01*
X80071429Y-7354819D02*
X80071429Y-7450057D01*
X80404762Y-7688152D02*
X80785714Y-7688152D01*
X80547619Y-7354819D02*
X80547619Y-8211961D01*
X80547619Y-8211961D02*
X80595238Y-8307200D01*
X80595238Y-8307200D02*
X80690476Y-8354819D01*
X80690476Y-8354819D02*
X80785714Y-8354819D01*
X81547619Y-8307200D02*
X81452381Y-8354819D01*
X81452381Y-8354819D02*
X81261905Y-8354819D01*
X81261905Y-8354819D02*
X81166667Y-8307200D01*
X81166667Y-8307200D02*
X81119048Y-8259580D01*
X81119048Y-8259580D02*
X81071429Y-8164342D01*
X81071429Y-8164342D02*
X81071429Y-7878628D01*
X81071429Y-7878628D02*
X81119048Y-7783390D01*
X81119048Y-7783390D02*
X81166667Y-7735771D01*
X81166667Y-7735771D02*
X81261905Y-7688152D01*
X81261905Y-7688152D02*
X81452381Y-7688152D01*
X81452381Y-7688152D02*
X81547619Y-7735771D01*
X81976191Y-8354819D02*
X81976191Y-7354819D01*
X82404762Y-8354819D02*
X82404762Y-7831009D01*
X82404762Y-7831009D02*
X82357143Y-7735771D01*
X82357143Y-7735771D02*
X82261905Y-7688152D01*
X82261905Y-7688152D02*
X82119048Y-7688152D01*
X82119048Y-7688152D02*
X82023810Y-7735771D01*
X82023810Y-7735771D02*
X81976191Y-7783390D01*
X77761905Y692800D02*
X77904762Y645180D01*
X77904762Y645180D02*
X78142857Y645180D01*
X78142857Y645180D02*
X78238095Y692800D01*
X78238095Y692800D02*
X78285714Y740419D01*
X78285714Y740419D02*
X78333333Y835657D01*
X78333333Y835657D02*
X78333333Y930895D01*
X78333333Y930895D02*
X78285714Y1026133D01*
X78285714Y1026133D02*
X78238095Y1073752D01*
X78238095Y1073752D02*
X78142857Y1121371D01*
X78142857Y1121371D02*
X77952381Y1168990D01*
X77952381Y1168990D02*
X77857143Y1216609D01*
X77857143Y1216609D02*
X77809524Y1264228D01*
X77809524Y1264228D02*
X77761905Y1359466D01*
X77761905Y1359466D02*
X77761905Y1454704D01*
X77761905Y1454704D02*
X77809524Y1549942D01*
X77809524Y1549942D02*
X77857143Y1597561D01*
X77857143Y1597561D02*
X77952381Y1645180D01*
X77952381Y1645180D02*
X78190476Y1645180D01*
X78190476Y1645180D02*
X78333333Y1597561D01*
X78714286Y1549942D02*
X78761905Y1597561D01*
X78761905Y1597561D02*
X78857143Y1645180D01*
X78857143Y1645180D02*
X79095238Y1645180D01*
X79095238Y1645180D02*
X79190476Y1597561D01*
X79190476Y1597561D02*
X79238095Y1549942D01*
X79238095Y1549942D02*
X79285714Y1454704D01*
X79285714Y1454704D02*
X79285714Y1359466D01*
X79285714Y1359466D02*
X79238095Y1216609D01*
X79238095Y1216609D02*
X78666667Y645180D01*
X78666667Y645180D02*
X79285714Y645180D01*
X79904762Y1645180D02*
X80000000Y1645180D01*
X80000000Y1645180D02*
X80095238Y1597561D01*
X80095238Y1597561D02*
X80142857Y1549942D01*
X80142857Y1549942D02*
X80190476Y1454704D01*
X80190476Y1454704D02*
X80238095Y1264228D01*
X80238095Y1264228D02*
X80238095Y1026133D01*
X80238095Y1026133D02*
X80190476Y835657D01*
X80190476Y835657D02*
X80142857Y740419D01*
X80142857Y740419D02*
X80095238Y692800D01*
X80095238Y692800D02*
X80000000Y645180D01*
X80000000Y645180D02*
X79904762Y645180D01*
X79904762Y645180D02*
X79809524Y692800D01*
X79809524Y692800D02*
X79761905Y740419D01*
X79761905Y740419D02*
X79714286Y835657D01*
X79714286Y835657D02*
X79666667Y1026133D01*
X79666667Y1026133D02*
X79666667Y1264228D01*
X79666667Y1264228D02*
X79714286Y1454704D01*
X79714286Y1454704D02*
X79761905Y1549942D01*
X79761905Y1549942D02*
X79809524Y1597561D01*
X79809524Y1597561D02*
X79904762Y1645180D01*
X94595238Y-18254819D02*
X94595238Y-17254819D01*
X95166666Y-18254819D02*
X94738095Y-17683390D01*
X95166666Y-17254819D02*
X94595238Y-17826247D01*
X95976190Y-18207200D02*
X95880952Y-18254819D01*
X95880952Y-18254819D02*
X95690476Y-18254819D01*
X95690476Y-18254819D02*
X95595238Y-18207200D01*
X95595238Y-18207200D02*
X95547619Y-18111961D01*
X95547619Y-18111961D02*
X95547619Y-17731009D01*
X95547619Y-17731009D02*
X95595238Y-17635771D01*
X95595238Y-17635771D02*
X95690476Y-17588152D01*
X95690476Y-17588152D02*
X95880952Y-17588152D01*
X95880952Y-17588152D02*
X95976190Y-17635771D01*
X95976190Y-17635771D02*
X96023809Y-17731009D01*
X96023809Y-17731009D02*
X96023809Y-17826247D01*
X96023809Y-17826247D02*
X95547619Y-17921485D01*
X96357143Y-17588152D02*
X96595238Y-18254819D01*
X96833333Y-17588152D02*
X96595238Y-18254819D01*
X96595238Y-18254819D02*
X96500000Y-18492914D01*
X96500000Y-18492914D02*
X96452381Y-18540533D01*
X96452381Y-18540533D02*
X96357143Y-18588152D01*
X97166667Y-18207200D02*
X97261905Y-18254819D01*
X97261905Y-18254819D02*
X97452381Y-18254819D01*
X97452381Y-18254819D02*
X97547619Y-18207200D01*
X97547619Y-18207200D02*
X97595238Y-18111961D01*
X97595238Y-18111961D02*
X97595238Y-18064342D01*
X97595238Y-18064342D02*
X97547619Y-17969104D01*
X97547619Y-17969104D02*
X97452381Y-17921485D01*
X97452381Y-17921485D02*
X97309524Y-17921485D01*
X97309524Y-17921485D02*
X97214286Y-17873866D01*
X97214286Y-17873866D02*
X97166667Y-17778628D01*
X97166667Y-17778628D02*
X97166667Y-17731009D01*
X97166667Y-17731009D02*
X97214286Y-17635771D01*
X97214286Y-17635771D02*
X97309524Y-17588152D01*
X97309524Y-17588152D02*
X97452381Y-17588152D01*
X97452381Y-17588152D02*
X97547619Y-17635771D01*
X97928572Y-17588152D02*
X98119048Y-18254819D01*
X98119048Y-18254819D02*
X98309524Y-17778628D01*
X98309524Y-17778628D02*
X98500000Y-18254819D01*
X98500000Y-18254819D02*
X98690476Y-17588152D01*
X99071429Y-18254819D02*
X99071429Y-17588152D01*
X99071429Y-17254819D02*
X99023810Y-17302438D01*
X99023810Y-17302438D02*
X99071429Y-17350057D01*
X99071429Y-17350057D02*
X99119048Y-17302438D01*
X99119048Y-17302438D02*
X99071429Y-17254819D01*
X99071429Y-17254819D02*
X99071429Y-17350057D01*
X99404762Y-17588152D02*
X99785714Y-17588152D01*
X99547619Y-17254819D02*
X99547619Y-18111961D01*
X99547619Y-18111961D02*
X99595238Y-18207200D01*
X99595238Y-18207200D02*
X99690476Y-18254819D01*
X99690476Y-18254819D02*
X99785714Y-18254819D01*
X100547619Y-18207200D02*
X100452381Y-18254819D01*
X100452381Y-18254819D02*
X100261905Y-18254819D01*
X100261905Y-18254819D02*
X100166667Y-18207200D01*
X100166667Y-18207200D02*
X100119048Y-18159580D01*
X100119048Y-18159580D02*
X100071429Y-18064342D01*
X100071429Y-18064342D02*
X100071429Y-17778628D01*
X100071429Y-17778628D02*
X100119048Y-17683390D01*
X100119048Y-17683390D02*
X100166667Y-17635771D01*
X100166667Y-17635771D02*
X100261905Y-17588152D01*
X100261905Y-17588152D02*
X100452381Y-17588152D01*
X100452381Y-17588152D02*
X100547619Y-17635771D01*
X100976191Y-18254819D02*
X100976191Y-17254819D01*
X101404762Y-18254819D02*
X101404762Y-17731009D01*
X101404762Y-17731009D02*
X101357143Y-17635771D01*
X101357143Y-17635771D02*
X101261905Y-17588152D01*
X101261905Y-17588152D02*
X101119048Y-17588152D01*
X101119048Y-17588152D02*
X101023810Y-17635771D01*
X101023810Y-17635771D02*
X100976191Y-17683390D01*
X96761905Y-9207200D02*
X96904762Y-9254819D01*
X96904762Y-9254819D02*
X97142857Y-9254819D01*
X97142857Y-9254819D02*
X97238095Y-9207200D01*
X97238095Y-9207200D02*
X97285714Y-9159580D01*
X97285714Y-9159580D02*
X97333333Y-9064342D01*
X97333333Y-9064342D02*
X97333333Y-8969104D01*
X97333333Y-8969104D02*
X97285714Y-8873866D01*
X97285714Y-8873866D02*
X97238095Y-8826247D01*
X97238095Y-8826247D02*
X97142857Y-8778628D01*
X97142857Y-8778628D02*
X96952381Y-8731009D01*
X96952381Y-8731009D02*
X96857143Y-8683390D01*
X96857143Y-8683390D02*
X96809524Y-8635771D01*
X96809524Y-8635771D02*
X96761905Y-8540533D01*
X96761905Y-8540533D02*
X96761905Y-8445295D01*
X96761905Y-8445295D02*
X96809524Y-8350057D01*
X96809524Y-8350057D02*
X96857143Y-8302438D01*
X96857143Y-8302438D02*
X96952381Y-8254819D01*
X96952381Y-8254819D02*
X97190476Y-8254819D01*
X97190476Y-8254819D02*
X97333333Y-8302438D01*
X97714286Y-8350057D02*
X97761905Y-8302438D01*
X97761905Y-8302438D02*
X97857143Y-8254819D01*
X97857143Y-8254819D02*
X98095238Y-8254819D01*
X98095238Y-8254819D02*
X98190476Y-8302438D01*
X98190476Y-8302438D02*
X98238095Y-8350057D01*
X98238095Y-8350057D02*
X98285714Y-8445295D01*
X98285714Y-8445295D02*
X98285714Y-8540533D01*
X98285714Y-8540533D02*
X98238095Y-8683390D01*
X98238095Y-8683390D02*
X97666667Y-9254819D01*
X97666667Y-9254819D02*
X98285714Y-9254819D01*
X99238095Y-9254819D02*
X98666667Y-9254819D01*
X98952381Y-9254819D02*
X98952381Y-8254819D01*
X98952381Y-8254819D02*
X98857143Y-8397676D01*
X98857143Y-8397676D02*
X98761905Y-8492914D01*
X98761905Y-8492914D02*
X98666667Y-8540533D01*
X-82404761Y9645180D02*
X-82404761Y10645180D01*
X-81833333Y9645180D02*
X-82261904Y10216609D01*
X-81833333Y10645180D02*
X-82404761Y10073752D01*
X-81023809Y9692800D02*
X-81119047Y9645180D01*
X-81119047Y9645180D02*
X-81309523Y9645180D01*
X-81309523Y9645180D02*
X-81404761Y9692800D01*
X-81404761Y9692800D02*
X-81452380Y9788038D01*
X-81452380Y9788038D02*
X-81452380Y10168990D01*
X-81452380Y10168990D02*
X-81404761Y10264228D01*
X-81404761Y10264228D02*
X-81309523Y10311847D01*
X-81309523Y10311847D02*
X-81119047Y10311847D01*
X-81119047Y10311847D02*
X-81023809Y10264228D01*
X-81023809Y10264228D02*
X-80976190Y10168990D01*
X-80976190Y10168990D02*
X-80976190Y10073752D01*
X-80976190Y10073752D02*
X-81452380Y9978514D01*
X-80642856Y10311847D02*
X-80404761Y9645180D01*
X-80166666Y10311847D02*
X-80404761Y9645180D01*
X-80404761Y9645180D02*
X-80499999Y9407085D01*
X-80499999Y9407085D02*
X-80547618Y9359466D01*
X-80547618Y9359466D02*
X-80642856Y9311847D01*
X-79833332Y9692800D02*
X-79738094Y9645180D01*
X-79738094Y9645180D02*
X-79547618Y9645180D01*
X-79547618Y9645180D02*
X-79452380Y9692800D01*
X-79452380Y9692800D02*
X-79404761Y9788038D01*
X-79404761Y9788038D02*
X-79404761Y9835657D01*
X-79404761Y9835657D02*
X-79452380Y9930895D01*
X-79452380Y9930895D02*
X-79547618Y9978514D01*
X-79547618Y9978514D02*
X-79690475Y9978514D01*
X-79690475Y9978514D02*
X-79785713Y10026133D01*
X-79785713Y10026133D02*
X-79833332Y10121371D01*
X-79833332Y10121371D02*
X-79833332Y10168990D01*
X-79833332Y10168990D02*
X-79785713Y10264228D01*
X-79785713Y10264228D02*
X-79690475Y10311847D01*
X-79690475Y10311847D02*
X-79547618Y10311847D01*
X-79547618Y10311847D02*
X-79452380Y10264228D01*
X-79071427Y10311847D02*
X-78880951Y9645180D01*
X-78880951Y9645180D02*
X-78690475Y10121371D01*
X-78690475Y10121371D02*
X-78499999Y9645180D01*
X-78499999Y9645180D02*
X-78309523Y10311847D01*
X-77928570Y9645180D02*
X-77928570Y10311847D01*
X-77928570Y10645180D02*
X-77976189Y10597561D01*
X-77976189Y10597561D02*
X-77928570Y10549942D01*
X-77928570Y10549942D02*
X-77880951Y10597561D01*
X-77880951Y10597561D02*
X-77928570Y10645180D01*
X-77928570Y10645180D02*
X-77928570Y10549942D01*
X-77595237Y10311847D02*
X-77214285Y10311847D01*
X-77452380Y10645180D02*
X-77452380Y9788038D01*
X-77452380Y9788038D02*
X-77404761Y9692800D01*
X-77404761Y9692800D02*
X-77309523Y9645180D01*
X-77309523Y9645180D02*
X-77214285Y9645180D01*
X-76452380Y9692800D02*
X-76547618Y9645180D01*
X-76547618Y9645180D02*
X-76738094Y9645180D01*
X-76738094Y9645180D02*
X-76833332Y9692800D01*
X-76833332Y9692800D02*
X-76880951Y9740419D01*
X-76880951Y9740419D02*
X-76928570Y9835657D01*
X-76928570Y9835657D02*
X-76928570Y10121371D01*
X-76928570Y10121371D02*
X-76880951Y10216609D01*
X-76880951Y10216609D02*
X-76833332Y10264228D01*
X-76833332Y10264228D02*
X-76738094Y10311847D01*
X-76738094Y10311847D02*
X-76547618Y10311847D01*
X-76547618Y10311847D02*
X-76452380Y10264228D01*
X-76023808Y9645180D02*
X-76023808Y10645180D01*
X-75595237Y9645180D02*
X-75595237Y10168990D01*
X-75595237Y10168990D02*
X-75642856Y10264228D01*
X-75642856Y10264228D02*
X-75738094Y10311847D01*
X-75738094Y10311847D02*
X-75880951Y10311847D01*
X-75880951Y10311847D02*
X-75976189Y10264228D01*
X-75976189Y10264228D02*
X-76023808Y10216609D01*
X-79761904Y18692800D02*
X-79619047Y18645180D01*
X-79619047Y18645180D02*
X-79380952Y18645180D01*
X-79380952Y18645180D02*
X-79285714Y18692800D01*
X-79285714Y18692800D02*
X-79238095Y18740419D01*
X-79238095Y18740419D02*
X-79190476Y18835657D01*
X-79190476Y18835657D02*
X-79190476Y18930895D01*
X-79190476Y18930895D02*
X-79238095Y19026133D01*
X-79238095Y19026133D02*
X-79285714Y19073752D01*
X-79285714Y19073752D02*
X-79380952Y19121371D01*
X-79380952Y19121371D02*
X-79571428Y19168990D01*
X-79571428Y19168990D02*
X-79666666Y19216609D01*
X-79666666Y19216609D02*
X-79714285Y19264228D01*
X-79714285Y19264228D02*
X-79761904Y19359466D01*
X-79761904Y19359466D02*
X-79761904Y19454704D01*
X-79761904Y19454704D02*
X-79714285Y19549942D01*
X-79714285Y19549942D02*
X-79666666Y19597561D01*
X-79666666Y19597561D02*
X-79571428Y19645180D01*
X-79571428Y19645180D02*
X-79333333Y19645180D01*
X-79333333Y19645180D02*
X-79190476Y19597561D01*
X-78809523Y19549942D02*
X-78761904Y19597561D01*
X-78761904Y19597561D02*
X-78666666Y19645180D01*
X-78666666Y19645180D02*
X-78428571Y19645180D01*
X-78428571Y19645180D02*
X-78333333Y19597561D01*
X-78333333Y19597561D02*
X-78285714Y19549942D01*
X-78285714Y19549942D02*
X-78238095Y19454704D01*
X-78238095Y19454704D02*
X-78238095Y19359466D01*
X-78238095Y19359466D02*
X-78285714Y19216609D01*
X-78285714Y19216609D02*
X-78857142Y18645180D01*
X-78857142Y18645180D02*
X-78238095Y18645180D01*
X-101404761Y-18254819D02*
X-101404761Y-17254819D01*
X-100833333Y-18254819D02*
X-101261904Y-17683390D01*
X-100833333Y-17254819D02*
X-101404761Y-17826247D01*
X-100023809Y-18207200D02*
X-100119047Y-18254819D01*
X-100119047Y-18254819D02*
X-100309523Y-18254819D01*
X-100309523Y-18254819D02*
X-100404761Y-18207200D01*
X-100404761Y-18207200D02*
X-100452380Y-18111961D01*
X-100452380Y-18111961D02*
X-100452380Y-17731009D01*
X-100452380Y-17731009D02*
X-100404761Y-17635771D01*
X-100404761Y-17635771D02*
X-100309523Y-17588152D01*
X-100309523Y-17588152D02*
X-100119047Y-17588152D01*
X-100119047Y-17588152D02*
X-100023809Y-17635771D01*
X-100023809Y-17635771D02*
X-99976190Y-17731009D01*
X-99976190Y-17731009D02*
X-99976190Y-17826247D01*
X-99976190Y-17826247D02*
X-100452380Y-17921485D01*
X-99642856Y-17588152D02*
X-99404761Y-18254819D01*
X-99166666Y-17588152D02*
X-99404761Y-18254819D01*
X-99404761Y-18254819D02*
X-99499999Y-18492914D01*
X-99499999Y-18492914D02*
X-99547618Y-18540533D01*
X-99547618Y-18540533D02*
X-99642856Y-18588152D01*
X-98833332Y-18207200D02*
X-98738094Y-18254819D01*
X-98738094Y-18254819D02*
X-98547618Y-18254819D01*
X-98547618Y-18254819D02*
X-98452380Y-18207200D01*
X-98452380Y-18207200D02*
X-98404761Y-18111961D01*
X-98404761Y-18111961D02*
X-98404761Y-18064342D01*
X-98404761Y-18064342D02*
X-98452380Y-17969104D01*
X-98452380Y-17969104D02*
X-98547618Y-17921485D01*
X-98547618Y-17921485D02*
X-98690475Y-17921485D01*
X-98690475Y-17921485D02*
X-98785713Y-17873866D01*
X-98785713Y-17873866D02*
X-98833332Y-17778628D01*
X-98833332Y-17778628D02*
X-98833332Y-17731009D01*
X-98833332Y-17731009D02*
X-98785713Y-17635771D01*
X-98785713Y-17635771D02*
X-98690475Y-17588152D01*
X-98690475Y-17588152D02*
X-98547618Y-17588152D01*
X-98547618Y-17588152D02*
X-98452380Y-17635771D01*
X-98071427Y-17588152D02*
X-97880951Y-18254819D01*
X-97880951Y-18254819D02*
X-97690475Y-17778628D01*
X-97690475Y-17778628D02*
X-97499999Y-18254819D01*
X-97499999Y-18254819D02*
X-97309523Y-17588152D01*
X-96928570Y-18254819D02*
X-96928570Y-17588152D01*
X-96928570Y-17254819D02*
X-96976189Y-17302438D01*
X-96976189Y-17302438D02*
X-96928570Y-17350057D01*
X-96928570Y-17350057D02*
X-96880951Y-17302438D01*
X-96880951Y-17302438D02*
X-96928570Y-17254819D01*
X-96928570Y-17254819D02*
X-96928570Y-17350057D01*
X-96595237Y-17588152D02*
X-96214285Y-17588152D01*
X-96452380Y-17254819D02*
X-96452380Y-18111961D01*
X-96452380Y-18111961D02*
X-96404761Y-18207200D01*
X-96404761Y-18207200D02*
X-96309523Y-18254819D01*
X-96309523Y-18254819D02*
X-96214285Y-18254819D01*
X-95452380Y-18207200D02*
X-95547618Y-18254819D01*
X-95547618Y-18254819D02*
X-95738094Y-18254819D01*
X-95738094Y-18254819D02*
X-95833332Y-18207200D01*
X-95833332Y-18207200D02*
X-95880951Y-18159580D01*
X-95880951Y-18159580D02*
X-95928570Y-18064342D01*
X-95928570Y-18064342D02*
X-95928570Y-17778628D01*
X-95928570Y-17778628D02*
X-95880951Y-17683390D01*
X-95880951Y-17683390D02*
X-95833332Y-17635771D01*
X-95833332Y-17635771D02*
X-95738094Y-17588152D01*
X-95738094Y-17588152D02*
X-95547618Y-17588152D01*
X-95547618Y-17588152D02*
X-95452380Y-17635771D01*
X-95023808Y-18254819D02*
X-95023808Y-17254819D01*
X-94595237Y-18254819D02*
X-94595237Y-17731009D01*
X-94595237Y-17731009D02*
X-94642856Y-17635771D01*
X-94642856Y-17635771D02*
X-94738094Y-17588152D01*
X-94738094Y-17588152D02*
X-94880951Y-17588152D01*
X-94880951Y-17588152D02*
X-94976189Y-17635771D01*
X-94976189Y-17635771D02*
X-95023808Y-17683390D01*
X-99238094Y-9207200D02*
X-99095237Y-9254819D01*
X-99095237Y-9254819D02*
X-98857142Y-9254819D01*
X-98857142Y-9254819D02*
X-98761904Y-9207200D01*
X-98761904Y-9207200D02*
X-98714285Y-9159580D01*
X-98714285Y-9159580D02*
X-98666666Y-9064342D01*
X-98666666Y-9064342D02*
X-98666666Y-8969104D01*
X-98666666Y-8969104D02*
X-98714285Y-8873866D01*
X-98714285Y-8873866D02*
X-98761904Y-8826247D01*
X-98761904Y-8826247D02*
X-98857142Y-8778628D01*
X-98857142Y-8778628D02*
X-99047618Y-8731009D01*
X-99047618Y-8731009D02*
X-99142856Y-8683390D01*
X-99142856Y-8683390D02*
X-99190475Y-8635771D01*
X-99190475Y-8635771D02*
X-99238094Y-8540533D01*
X-99238094Y-8540533D02*
X-99238094Y-8445295D01*
X-99238094Y-8445295D02*
X-99190475Y-8350057D01*
X-99190475Y-8350057D02*
X-99142856Y-8302438D01*
X-99142856Y-8302438D02*
X-99047618Y-8254819D01*
X-99047618Y-8254819D02*
X-98809523Y-8254819D01*
X-98809523Y-8254819D02*
X-98666666Y-8302438D01*
X-97714285Y-9254819D02*
X-98285713Y-9254819D01*
X-97999999Y-9254819D02*
X-97999999Y-8254819D01*
X-97999999Y-8254819D02*
X-98095237Y-8397676D01*
X-98095237Y-8397676D02*
X-98190475Y-8492914D01*
X-98190475Y-8492914D02*
X-98285713Y-8540533D01*
X-97333332Y-8350057D02*
X-97285713Y-8302438D01*
X-97285713Y-8302438D02*
X-97190475Y-8254819D01*
X-97190475Y-8254819D02*
X-96952380Y-8254819D01*
X-96952380Y-8254819D02*
X-96857142Y-8302438D01*
X-96857142Y-8302438D02*
X-96809523Y-8350057D01*
X-96809523Y-8350057D02*
X-96761904Y-8445295D01*
X-96761904Y-8445295D02*
X-96761904Y-8540533D01*
X-96761904Y-8540533D02*
X-96809523Y-8683390D01*
X-96809523Y-8683390D02*
X-97380951Y-9254819D01*
X-97380951Y-9254819D02*
X-96761904Y-9254819D01*
X-101404761Y-254819D02*
X-101404761Y745180D01*
X-100833333Y-254819D02*
X-101261904Y316609D01*
X-100833333Y745180D02*
X-101404761Y173752D01*
X-100023809Y-207200D02*
X-100119047Y-254819D01*
X-100119047Y-254819D02*
X-100309523Y-254819D01*
X-100309523Y-254819D02*
X-100404761Y-207200D01*
X-100404761Y-207200D02*
X-100452380Y-111961D01*
X-100452380Y-111961D02*
X-100452380Y268990D01*
X-100452380Y268990D02*
X-100404761Y364228D01*
X-100404761Y364228D02*
X-100309523Y411847D01*
X-100309523Y411847D02*
X-100119047Y411847D01*
X-100119047Y411847D02*
X-100023809Y364228D01*
X-100023809Y364228D02*
X-99976190Y268990D01*
X-99976190Y268990D02*
X-99976190Y173752D01*
X-99976190Y173752D02*
X-100452380Y78514D01*
X-99642856Y411847D02*
X-99404761Y-254819D01*
X-99166666Y411847D02*
X-99404761Y-254819D01*
X-99404761Y-254819D02*
X-99499999Y-492914D01*
X-99499999Y-492914D02*
X-99547618Y-540533D01*
X-99547618Y-540533D02*
X-99642856Y-588152D01*
X-98833332Y-207200D02*
X-98738094Y-254819D01*
X-98738094Y-254819D02*
X-98547618Y-254819D01*
X-98547618Y-254819D02*
X-98452380Y-207200D01*
X-98452380Y-207200D02*
X-98404761Y-111961D01*
X-98404761Y-111961D02*
X-98404761Y-64342D01*
X-98404761Y-64342D02*
X-98452380Y30895D01*
X-98452380Y30895D02*
X-98547618Y78514D01*
X-98547618Y78514D02*
X-98690475Y78514D01*
X-98690475Y78514D02*
X-98785713Y126133D01*
X-98785713Y126133D02*
X-98833332Y221371D01*
X-98833332Y221371D02*
X-98833332Y268990D01*
X-98833332Y268990D02*
X-98785713Y364228D01*
X-98785713Y364228D02*
X-98690475Y411847D01*
X-98690475Y411847D02*
X-98547618Y411847D01*
X-98547618Y411847D02*
X-98452380Y364228D01*
X-98071427Y411847D02*
X-97880951Y-254819D01*
X-97880951Y-254819D02*
X-97690475Y221371D01*
X-97690475Y221371D02*
X-97499999Y-254819D01*
X-97499999Y-254819D02*
X-97309523Y411847D01*
X-96928570Y-254819D02*
X-96928570Y411847D01*
X-96928570Y745180D02*
X-96976189Y697561D01*
X-96976189Y697561D02*
X-96928570Y649942D01*
X-96928570Y649942D02*
X-96880951Y697561D01*
X-96880951Y697561D02*
X-96928570Y745180D01*
X-96928570Y745180D02*
X-96928570Y649942D01*
X-96595237Y411847D02*
X-96214285Y411847D01*
X-96452380Y745180D02*
X-96452380Y-111961D01*
X-96452380Y-111961D02*
X-96404761Y-207200D01*
X-96404761Y-207200D02*
X-96309523Y-254819D01*
X-96309523Y-254819D02*
X-96214285Y-254819D01*
X-95452380Y-207200D02*
X-95547618Y-254819D01*
X-95547618Y-254819D02*
X-95738094Y-254819D01*
X-95738094Y-254819D02*
X-95833332Y-207200D01*
X-95833332Y-207200D02*
X-95880951Y-159580D01*
X-95880951Y-159580D02*
X-95928570Y-64342D01*
X-95928570Y-64342D02*
X-95928570Y221371D01*
X-95928570Y221371D02*
X-95880951Y316609D01*
X-95880951Y316609D02*
X-95833332Y364228D01*
X-95833332Y364228D02*
X-95738094Y411847D01*
X-95738094Y411847D02*
X-95547618Y411847D01*
X-95547618Y411847D02*
X-95452380Y364228D01*
X-95023808Y-254819D02*
X-95023808Y745180D01*
X-94595237Y-254819D02*
X-94595237Y268990D01*
X-94595237Y268990D02*
X-94642856Y364228D01*
X-94642856Y364228D02*
X-94738094Y411847D01*
X-94738094Y411847D02*
X-94880951Y411847D01*
X-94880951Y411847D02*
X-94976189Y364228D01*
X-94976189Y364228D02*
X-95023808Y316609D01*
X-98761904Y8792800D02*
X-98619047Y8745180D01*
X-98619047Y8745180D02*
X-98380952Y8745180D01*
X-98380952Y8745180D02*
X-98285714Y8792800D01*
X-98285714Y8792800D02*
X-98238095Y8840419D01*
X-98238095Y8840419D02*
X-98190476Y8935657D01*
X-98190476Y8935657D02*
X-98190476Y9030895D01*
X-98190476Y9030895D02*
X-98238095Y9126133D01*
X-98238095Y9126133D02*
X-98285714Y9173752D01*
X-98285714Y9173752D02*
X-98380952Y9221371D01*
X-98380952Y9221371D02*
X-98571428Y9268990D01*
X-98571428Y9268990D02*
X-98666666Y9316609D01*
X-98666666Y9316609D02*
X-98714285Y9364228D01*
X-98714285Y9364228D02*
X-98761904Y9459466D01*
X-98761904Y9459466D02*
X-98761904Y9554704D01*
X-98761904Y9554704D02*
X-98714285Y9649942D01*
X-98714285Y9649942D02*
X-98666666Y9697561D01*
X-98666666Y9697561D02*
X-98571428Y9745180D01*
X-98571428Y9745180D02*
X-98333333Y9745180D01*
X-98333333Y9745180D02*
X-98190476Y9697561D01*
X-97238095Y8745180D02*
X-97809523Y8745180D01*
X-97523809Y8745180D02*
X-97523809Y9745180D01*
X-97523809Y9745180D02*
X-97619047Y9602323D01*
X-97619047Y9602323D02*
X-97714285Y9507085D01*
X-97714285Y9507085D02*
X-97809523Y9459466D01*
X112095238Y-254819D02*
X112095238Y745180D01*
X112666666Y-254819D02*
X112238095Y316609D01*
X112666666Y745180D02*
X112095238Y173752D01*
X113476190Y-207200D02*
X113380952Y-254819D01*
X113380952Y-254819D02*
X113190476Y-254819D01*
X113190476Y-254819D02*
X113095238Y-207200D01*
X113095238Y-207200D02*
X113047619Y-111961D01*
X113047619Y-111961D02*
X113047619Y268990D01*
X113047619Y268990D02*
X113095238Y364228D01*
X113095238Y364228D02*
X113190476Y411847D01*
X113190476Y411847D02*
X113380952Y411847D01*
X113380952Y411847D02*
X113476190Y364228D01*
X113476190Y364228D02*
X113523809Y268990D01*
X113523809Y268990D02*
X113523809Y173752D01*
X113523809Y173752D02*
X113047619Y78514D01*
X113857143Y411847D02*
X114095238Y-254819D01*
X114333333Y411847D02*
X114095238Y-254819D01*
X114095238Y-254819D02*
X114000000Y-492914D01*
X114000000Y-492914D02*
X113952381Y-540533D01*
X113952381Y-540533D02*
X113857143Y-588152D01*
X114666667Y-207200D02*
X114761905Y-254819D01*
X114761905Y-254819D02*
X114952381Y-254819D01*
X114952381Y-254819D02*
X115047619Y-207200D01*
X115047619Y-207200D02*
X115095238Y-111961D01*
X115095238Y-111961D02*
X115095238Y-64342D01*
X115095238Y-64342D02*
X115047619Y30895D01*
X115047619Y30895D02*
X114952381Y78514D01*
X114952381Y78514D02*
X114809524Y78514D01*
X114809524Y78514D02*
X114714286Y126133D01*
X114714286Y126133D02*
X114666667Y221371D01*
X114666667Y221371D02*
X114666667Y268990D01*
X114666667Y268990D02*
X114714286Y364228D01*
X114714286Y364228D02*
X114809524Y411847D01*
X114809524Y411847D02*
X114952381Y411847D01*
X114952381Y411847D02*
X115047619Y364228D01*
X115428572Y411847D02*
X115619048Y-254819D01*
X115619048Y-254819D02*
X115809524Y221371D01*
X115809524Y221371D02*
X116000000Y-254819D01*
X116000000Y-254819D02*
X116190476Y411847D01*
X116571429Y-254819D02*
X116571429Y411847D01*
X116571429Y745180D02*
X116523810Y697561D01*
X116523810Y697561D02*
X116571429Y649942D01*
X116571429Y649942D02*
X116619048Y697561D01*
X116619048Y697561D02*
X116571429Y745180D01*
X116571429Y745180D02*
X116571429Y649942D01*
X116904762Y411847D02*
X117285714Y411847D01*
X117047619Y745180D02*
X117047619Y-111961D01*
X117047619Y-111961D02*
X117095238Y-207200D01*
X117095238Y-207200D02*
X117190476Y-254819D01*
X117190476Y-254819D02*
X117285714Y-254819D01*
X118047619Y-207200D02*
X117952381Y-254819D01*
X117952381Y-254819D02*
X117761905Y-254819D01*
X117761905Y-254819D02*
X117666667Y-207200D01*
X117666667Y-207200D02*
X117619048Y-159580D01*
X117619048Y-159580D02*
X117571429Y-64342D01*
X117571429Y-64342D02*
X117571429Y221371D01*
X117571429Y221371D02*
X117619048Y316609D01*
X117619048Y316609D02*
X117666667Y364228D01*
X117666667Y364228D02*
X117761905Y411847D01*
X117761905Y411847D02*
X117952381Y411847D01*
X117952381Y411847D02*
X118047619Y364228D01*
X118476191Y-254819D02*
X118476191Y745180D01*
X118904762Y-254819D02*
X118904762Y268990D01*
X118904762Y268990D02*
X118857143Y364228D01*
X118857143Y364228D02*
X118761905Y411847D01*
X118761905Y411847D02*
X118619048Y411847D01*
X118619048Y411847D02*
X118523810Y364228D01*
X118523810Y364228D02*
X118476191Y316609D01*
X114261905Y8792800D02*
X114404762Y8745180D01*
X114404762Y8745180D02*
X114642857Y8745180D01*
X114642857Y8745180D02*
X114738095Y8792800D01*
X114738095Y8792800D02*
X114785714Y8840419D01*
X114785714Y8840419D02*
X114833333Y8935657D01*
X114833333Y8935657D02*
X114833333Y9030895D01*
X114833333Y9030895D02*
X114785714Y9126133D01*
X114785714Y9126133D02*
X114738095Y9173752D01*
X114738095Y9173752D02*
X114642857Y9221371D01*
X114642857Y9221371D02*
X114452381Y9268990D01*
X114452381Y9268990D02*
X114357143Y9316609D01*
X114357143Y9316609D02*
X114309524Y9364228D01*
X114309524Y9364228D02*
X114261905Y9459466D01*
X114261905Y9459466D02*
X114261905Y9554704D01*
X114261905Y9554704D02*
X114309524Y9649942D01*
X114309524Y9649942D02*
X114357143Y9697561D01*
X114357143Y9697561D02*
X114452381Y9745180D01*
X114452381Y9745180D02*
X114690476Y9745180D01*
X114690476Y9745180D02*
X114833333Y9697561D01*
X115785714Y8745180D02*
X115214286Y8745180D01*
X115500000Y8745180D02*
X115500000Y9745180D01*
X115500000Y9745180D02*
X115404762Y9602323D01*
X115404762Y9602323D02*
X115309524Y9507085D01*
X115309524Y9507085D02*
X115214286Y9459466D01*
X116738095Y8745180D02*
X116166667Y8745180D01*
X116452381Y8745180D02*
X116452381Y9745180D01*
X116452381Y9745180D02*
X116357143Y9602323D01*
X116357143Y9602323D02*
X116261905Y9507085D01*
X116261905Y9507085D02*
X116166667Y9459466D01*
X-44404761Y-18254819D02*
X-44404761Y-17254819D01*
X-43833333Y-18254819D02*
X-44261904Y-17683390D01*
X-43833333Y-17254819D02*
X-44404761Y-17826247D01*
X-43023809Y-18207200D02*
X-43119047Y-18254819D01*
X-43119047Y-18254819D02*
X-43309523Y-18254819D01*
X-43309523Y-18254819D02*
X-43404761Y-18207200D01*
X-43404761Y-18207200D02*
X-43452380Y-18111961D01*
X-43452380Y-18111961D02*
X-43452380Y-17731009D01*
X-43452380Y-17731009D02*
X-43404761Y-17635771D01*
X-43404761Y-17635771D02*
X-43309523Y-17588152D01*
X-43309523Y-17588152D02*
X-43119047Y-17588152D01*
X-43119047Y-17588152D02*
X-43023809Y-17635771D01*
X-43023809Y-17635771D02*
X-42976190Y-17731009D01*
X-42976190Y-17731009D02*
X-42976190Y-17826247D01*
X-42976190Y-17826247D02*
X-43452380Y-17921485D01*
X-42642856Y-17588152D02*
X-42404761Y-18254819D01*
X-42166666Y-17588152D02*
X-42404761Y-18254819D01*
X-42404761Y-18254819D02*
X-42499999Y-18492914D01*
X-42499999Y-18492914D02*
X-42547618Y-18540533D01*
X-42547618Y-18540533D02*
X-42642856Y-18588152D01*
X-41833332Y-18207200D02*
X-41738094Y-18254819D01*
X-41738094Y-18254819D02*
X-41547618Y-18254819D01*
X-41547618Y-18254819D02*
X-41452380Y-18207200D01*
X-41452380Y-18207200D02*
X-41404761Y-18111961D01*
X-41404761Y-18111961D02*
X-41404761Y-18064342D01*
X-41404761Y-18064342D02*
X-41452380Y-17969104D01*
X-41452380Y-17969104D02*
X-41547618Y-17921485D01*
X-41547618Y-17921485D02*
X-41690475Y-17921485D01*
X-41690475Y-17921485D02*
X-41785713Y-17873866D01*
X-41785713Y-17873866D02*
X-41833332Y-17778628D01*
X-41833332Y-17778628D02*
X-41833332Y-17731009D01*
X-41833332Y-17731009D02*
X-41785713Y-17635771D01*
X-41785713Y-17635771D02*
X-41690475Y-17588152D01*
X-41690475Y-17588152D02*
X-41547618Y-17588152D01*
X-41547618Y-17588152D02*
X-41452380Y-17635771D01*
X-41071427Y-17588152D02*
X-40880951Y-18254819D01*
X-40880951Y-18254819D02*
X-40690475Y-17778628D01*
X-40690475Y-17778628D02*
X-40499999Y-18254819D01*
X-40499999Y-18254819D02*
X-40309523Y-17588152D01*
X-39928570Y-18254819D02*
X-39928570Y-17588152D01*
X-39928570Y-17254819D02*
X-39976189Y-17302438D01*
X-39976189Y-17302438D02*
X-39928570Y-17350057D01*
X-39928570Y-17350057D02*
X-39880951Y-17302438D01*
X-39880951Y-17302438D02*
X-39928570Y-17254819D01*
X-39928570Y-17254819D02*
X-39928570Y-17350057D01*
X-39595237Y-17588152D02*
X-39214285Y-17588152D01*
X-39452380Y-17254819D02*
X-39452380Y-18111961D01*
X-39452380Y-18111961D02*
X-39404761Y-18207200D01*
X-39404761Y-18207200D02*
X-39309523Y-18254819D01*
X-39309523Y-18254819D02*
X-39214285Y-18254819D01*
X-38452380Y-18207200D02*
X-38547618Y-18254819D01*
X-38547618Y-18254819D02*
X-38738094Y-18254819D01*
X-38738094Y-18254819D02*
X-38833332Y-18207200D01*
X-38833332Y-18207200D02*
X-38880951Y-18159580D01*
X-38880951Y-18159580D02*
X-38928570Y-18064342D01*
X-38928570Y-18064342D02*
X-38928570Y-17778628D01*
X-38928570Y-17778628D02*
X-38880951Y-17683390D01*
X-38880951Y-17683390D02*
X-38833332Y-17635771D01*
X-38833332Y-17635771D02*
X-38738094Y-17588152D01*
X-38738094Y-17588152D02*
X-38547618Y-17588152D01*
X-38547618Y-17588152D02*
X-38452380Y-17635771D01*
X-38023808Y-18254819D02*
X-38023808Y-17254819D01*
X-37595237Y-18254819D02*
X-37595237Y-17731009D01*
X-37595237Y-17731009D02*
X-37642856Y-17635771D01*
X-37642856Y-17635771D02*
X-37738094Y-17588152D01*
X-37738094Y-17588152D02*
X-37880951Y-17588152D01*
X-37880951Y-17588152D02*
X-37976189Y-17635771D01*
X-37976189Y-17635771D02*
X-38023808Y-17683390D01*
X-42238094Y-9207200D02*
X-42095237Y-9254819D01*
X-42095237Y-9254819D02*
X-41857142Y-9254819D01*
X-41857142Y-9254819D02*
X-41761904Y-9207200D01*
X-41761904Y-9207200D02*
X-41714285Y-9159580D01*
X-41714285Y-9159580D02*
X-41666666Y-9064342D01*
X-41666666Y-9064342D02*
X-41666666Y-8969104D01*
X-41666666Y-8969104D02*
X-41714285Y-8873866D01*
X-41714285Y-8873866D02*
X-41761904Y-8826247D01*
X-41761904Y-8826247D02*
X-41857142Y-8778628D01*
X-41857142Y-8778628D02*
X-42047618Y-8731009D01*
X-42047618Y-8731009D02*
X-42142856Y-8683390D01*
X-42142856Y-8683390D02*
X-42190475Y-8635771D01*
X-42190475Y-8635771D02*
X-42238094Y-8540533D01*
X-42238094Y-8540533D02*
X-42238094Y-8445295D01*
X-42238094Y-8445295D02*
X-42190475Y-8350057D01*
X-42190475Y-8350057D02*
X-42142856Y-8302438D01*
X-42142856Y-8302438D02*
X-42047618Y-8254819D01*
X-42047618Y-8254819D02*
X-41809523Y-8254819D01*
X-41809523Y-8254819D02*
X-41666666Y-8302438D01*
X-40714285Y-9254819D02*
X-41285713Y-9254819D01*
X-40999999Y-9254819D02*
X-40999999Y-8254819D01*
X-40999999Y-8254819D02*
X-41095237Y-8397676D01*
X-41095237Y-8397676D02*
X-41190475Y-8492914D01*
X-41190475Y-8492914D02*
X-41285713Y-8540533D01*
X-39809523Y-8254819D02*
X-40285713Y-8254819D01*
X-40285713Y-8254819D02*
X-40333332Y-8731009D01*
X-40333332Y-8731009D02*
X-40285713Y-8683390D01*
X-40285713Y-8683390D02*
X-40190475Y-8635771D01*
X-40190475Y-8635771D02*
X-39952380Y-8635771D01*
X-39952380Y-8635771D02*
X-39857142Y-8683390D01*
X-39857142Y-8683390D02*
X-39809523Y-8731009D01*
X-39809523Y-8731009D02*
X-39761904Y-8826247D01*
X-39761904Y-8826247D02*
X-39761904Y-9064342D01*
X-39761904Y-9064342D02*
X-39809523Y-9159580D01*
X-39809523Y-9159580D02*
X-39857142Y-9207200D01*
X-39857142Y-9207200D02*
X-39952380Y-9254819D01*
X-39952380Y-9254819D02*
X-40190475Y-9254819D01*
X-40190475Y-9254819D02*
X-40285713Y-9207200D01*
X-40285713Y-9207200D02*
X-40333332Y-9159580D01*
X94595238Y-254819D02*
X94595238Y745180D01*
X95166666Y-254819D02*
X94738095Y316609D01*
X95166666Y745180D02*
X94595238Y173752D01*
X95976190Y-207200D02*
X95880952Y-254819D01*
X95880952Y-254819D02*
X95690476Y-254819D01*
X95690476Y-254819D02*
X95595238Y-207200D01*
X95595238Y-207200D02*
X95547619Y-111961D01*
X95547619Y-111961D02*
X95547619Y268990D01*
X95547619Y268990D02*
X95595238Y364228D01*
X95595238Y364228D02*
X95690476Y411847D01*
X95690476Y411847D02*
X95880952Y411847D01*
X95880952Y411847D02*
X95976190Y364228D01*
X95976190Y364228D02*
X96023809Y268990D01*
X96023809Y268990D02*
X96023809Y173752D01*
X96023809Y173752D02*
X95547619Y78514D01*
X96357143Y411847D02*
X96595238Y-254819D01*
X96833333Y411847D02*
X96595238Y-254819D01*
X96595238Y-254819D02*
X96500000Y-492914D01*
X96500000Y-492914D02*
X96452381Y-540533D01*
X96452381Y-540533D02*
X96357143Y-588152D01*
X97166667Y-207200D02*
X97261905Y-254819D01*
X97261905Y-254819D02*
X97452381Y-254819D01*
X97452381Y-254819D02*
X97547619Y-207200D01*
X97547619Y-207200D02*
X97595238Y-111961D01*
X97595238Y-111961D02*
X97595238Y-64342D01*
X97595238Y-64342D02*
X97547619Y30895D01*
X97547619Y30895D02*
X97452381Y78514D01*
X97452381Y78514D02*
X97309524Y78514D01*
X97309524Y78514D02*
X97214286Y126133D01*
X97214286Y126133D02*
X97166667Y221371D01*
X97166667Y221371D02*
X97166667Y268990D01*
X97166667Y268990D02*
X97214286Y364228D01*
X97214286Y364228D02*
X97309524Y411847D01*
X97309524Y411847D02*
X97452381Y411847D01*
X97452381Y411847D02*
X97547619Y364228D01*
X97928572Y411847D02*
X98119048Y-254819D01*
X98119048Y-254819D02*
X98309524Y221371D01*
X98309524Y221371D02*
X98500000Y-254819D01*
X98500000Y-254819D02*
X98690476Y411847D01*
X99071429Y-254819D02*
X99071429Y411847D01*
X99071429Y745180D02*
X99023810Y697561D01*
X99023810Y697561D02*
X99071429Y649942D01*
X99071429Y649942D02*
X99119048Y697561D01*
X99119048Y697561D02*
X99071429Y745180D01*
X99071429Y745180D02*
X99071429Y649942D01*
X99404762Y411847D02*
X99785714Y411847D01*
X99547619Y745180D02*
X99547619Y-111961D01*
X99547619Y-111961D02*
X99595238Y-207200D01*
X99595238Y-207200D02*
X99690476Y-254819D01*
X99690476Y-254819D02*
X99785714Y-254819D01*
X100547619Y-207200D02*
X100452381Y-254819D01*
X100452381Y-254819D02*
X100261905Y-254819D01*
X100261905Y-254819D02*
X100166667Y-207200D01*
X100166667Y-207200D02*
X100119048Y-159580D01*
X100119048Y-159580D02*
X100071429Y-64342D01*
X100071429Y-64342D02*
X100071429Y221371D01*
X100071429Y221371D02*
X100119048Y316609D01*
X100119048Y316609D02*
X100166667Y364228D01*
X100166667Y364228D02*
X100261905Y411847D01*
X100261905Y411847D02*
X100452381Y411847D01*
X100452381Y411847D02*
X100547619Y364228D01*
X100976191Y-254819D02*
X100976191Y745180D01*
X101404762Y-254819D02*
X101404762Y268990D01*
X101404762Y268990D02*
X101357143Y364228D01*
X101357143Y364228D02*
X101261905Y411847D01*
X101261905Y411847D02*
X101119048Y411847D01*
X101119048Y411847D02*
X101023810Y364228D01*
X101023810Y364228D02*
X100976191Y316609D01*
X96761905Y8792800D02*
X96904762Y8745180D01*
X96904762Y8745180D02*
X97142857Y8745180D01*
X97142857Y8745180D02*
X97238095Y8792800D01*
X97238095Y8792800D02*
X97285714Y8840419D01*
X97285714Y8840419D02*
X97333333Y8935657D01*
X97333333Y8935657D02*
X97333333Y9030895D01*
X97333333Y9030895D02*
X97285714Y9126133D01*
X97285714Y9126133D02*
X97238095Y9173752D01*
X97238095Y9173752D02*
X97142857Y9221371D01*
X97142857Y9221371D02*
X96952381Y9268990D01*
X96952381Y9268990D02*
X96857143Y9316609D01*
X96857143Y9316609D02*
X96809524Y9364228D01*
X96809524Y9364228D02*
X96761905Y9459466D01*
X96761905Y9459466D02*
X96761905Y9554704D01*
X96761905Y9554704D02*
X96809524Y9649942D01*
X96809524Y9649942D02*
X96857143Y9697561D01*
X96857143Y9697561D02*
X96952381Y9745180D01*
X96952381Y9745180D02*
X97190476Y9745180D01*
X97190476Y9745180D02*
X97333333Y9697561D01*
X98285714Y8745180D02*
X97714286Y8745180D01*
X98000000Y8745180D02*
X98000000Y9745180D01*
X98000000Y9745180D02*
X97904762Y9602323D01*
X97904762Y9602323D02*
X97809524Y9507085D01*
X97809524Y9507085D02*
X97714286Y9459466D01*
X98904762Y9745180D02*
X99000000Y9745180D01*
X99000000Y9745180D02*
X99095238Y9697561D01*
X99095238Y9697561D02*
X99142857Y9649942D01*
X99142857Y9649942D02*
X99190476Y9554704D01*
X99190476Y9554704D02*
X99238095Y9364228D01*
X99238095Y9364228D02*
X99238095Y9126133D01*
X99238095Y9126133D02*
X99190476Y8935657D01*
X99190476Y8935657D02*
X99142857Y8840419D01*
X99142857Y8840419D02*
X99095238Y8792800D01*
X99095238Y8792800D02*
X99000000Y8745180D01*
X99000000Y8745180D02*
X98904762Y8745180D01*
X98904762Y8745180D02*
X98809524Y8792800D01*
X98809524Y8792800D02*
X98761905Y8840419D01*
X98761905Y8840419D02*
X98714286Y8935657D01*
X98714286Y8935657D02*
X98666667Y9126133D01*
X98666667Y9126133D02*
X98666667Y9364228D01*
X98666667Y9364228D02*
X98714286Y9554704D01*
X98714286Y9554704D02*
X98761905Y9649942D01*
X98761905Y9649942D02*
X98809524Y9697561D01*
X98809524Y9697561D02*
X98904762Y9745180D01*
X112095238Y-18254819D02*
X112095238Y-17254819D01*
X112666666Y-18254819D02*
X112238095Y-17683390D01*
X112666666Y-17254819D02*
X112095238Y-17826247D01*
X113476190Y-18207200D02*
X113380952Y-18254819D01*
X113380952Y-18254819D02*
X113190476Y-18254819D01*
X113190476Y-18254819D02*
X113095238Y-18207200D01*
X113095238Y-18207200D02*
X113047619Y-18111961D01*
X113047619Y-18111961D02*
X113047619Y-17731009D01*
X113047619Y-17731009D02*
X113095238Y-17635771D01*
X113095238Y-17635771D02*
X113190476Y-17588152D01*
X113190476Y-17588152D02*
X113380952Y-17588152D01*
X113380952Y-17588152D02*
X113476190Y-17635771D01*
X113476190Y-17635771D02*
X113523809Y-17731009D01*
X113523809Y-17731009D02*
X113523809Y-17826247D01*
X113523809Y-17826247D02*
X113047619Y-17921485D01*
X113857143Y-17588152D02*
X114095238Y-18254819D01*
X114333333Y-17588152D02*
X114095238Y-18254819D01*
X114095238Y-18254819D02*
X114000000Y-18492914D01*
X114000000Y-18492914D02*
X113952381Y-18540533D01*
X113952381Y-18540533D02*
X113857143Y-18588152D01*
X114666667Y-18207200D02*
X114761905Y-18254819D01*
X114761905Y-18254819D02*
X114952381Y-18254819D01*
X114952381Y-18254819D02*
X115047619Y-18207200D01*
X115047619Y-18207200D02*
X115095238Y-18111961D01*
X115095238Y-18111961D02*
X115095238Y-18064342D01*
X115095238Y-18064342D02*
X115047619Y-17969104D01*
X115047619Y-17969104D02*
X114952381Y-17921485D01*
X114952381Y-17921485D02*
X114809524Y-17921485D01*
X114809524Y-17921485D02*
X114714286Y-17873866D01*
X114714286Y-17873866D02*
X114666667Y-17778628D01*
X114666667Y-17778628D02*
X114666667Y-17731009D01*
X114666667Y-17731009D02*
X114714286Y-17635771D01*
X114714286Y-17635771D02*
X114809524Y-17588152D01*
X114809524Y-17588152D02*
X114952381Y-17588152D01*
X114952381Y-17588152D02*
X115047619Y-17635771D01*
X115428572Y-17588152D02*
X115619048Y-18254819D01*
X115619048Y-18254819D02*
X115809524Y-17778628D01*
X115809524Y-17778628D02*
X116000000Y-18254819D01*
X116000000Y-18254819D02*
X116190476Y-17588152D01*
X116571429Y-18254819D02*
X116571429Y-17588152D01*
X116571429Y-17254819D02*
X116523810Y-17302438D01*
X116523810Y-17302438D02*
X116571429Y-17350057D01*
X116571429Y-17350057D02*
X116619048Y-17302438D01*
X116619048Y-17302438D02*
X116571429Y-17254819D01*
X116571429Y-17254819D02*
X116571429Y-17350057D01*
X116904762Y-17588152D02*
X117285714Y-17588152D01*
X117047619Y-17254819D02*
X117047619Y-18111961D01*
X117047619Y-18111961D02*
X117095238Y-18207200D01*
X117095238Y-18207200D02*
X117190476Y-18254819D01*
X117190476Y-18254819D02*
X117285714Y-18254819D01*
X118047619Y-18207200D02*
X117952381Y-18254819D01*
X117952381Y-18254819D02*
X117761905Y-18254819D01*
X117761905Y-18254819D02*
X117666667Y-18207200D01*
X117666667Y-18207200D02*
X117619048Y-18159580D01*
X117619048Y-18159580D02*
X117571429Y-18064342D01*
X117571429Y-18064342D02*
X117571429Y-17778628D01*
X117571429Y-17778628D02*
X117619048Y-17683390D01*
X117619048Y-17683390D02*
X117666667Y-17635771D01*
X117666667Y-17635771D02*
X117761905Y-17588152D01*
X117761905Y-17588152D02*
X117952381Y-17588152D01*
X117952381Y-17588152D02*
X118047619Y-17635771D01*
X118476191Y-18254819D02*
X118476191Y-17254819D01*
X118904762Y-18254819D02*
X118904762Y-17731009D01*
X118904762Y-17731009D02*
X118857143Y-17635771D01*
X118857143Y-17635771D02*
X118761905Y-17588152D01*
X118761905Y-17588152D02*
X118619048Y-17588152D01*
X118619048Y-17588152D02*
X118523810Y-17635771D01*
X118523810Y-17635771D02*
X118476191Y-17683390D01*
X114261905Y-9207200D02*
X114404762Y-9254819D01*
X114404762Y-9254819D02*
X114642857Y-9254819D01*
X114642857Y-9254819D02*
X114738095Y-9207200D01*
X114738095Y-9207200D02*
X114785714Y-9159580D01*
X114785714Y-9159580D02*
X114833333Y-9064342D01*
X114833333Y-9064342D02*
X114833333Y-8969104D01*
X114833333Y-8969104D02*
X114785714Y-8873866D01*
X114785714Y-8873866D02*
X114738095Y-8826247D01*
X114738095Y-8826247D02*
X114642857Y-8778628D01*
X114642857Y-8778628D02*
X114452381Y-8731009D01*
X114452381Y-8731009D02*
X114357143Y-8683390D01*
X114357143Y-8683390D02*
X114309524Y-8635771D01*
X114309524Y-8635771D02*
X114261905Y-8540533D01*
X114261905Y-8540533D02*
X114261905Y-8445295D01*
X114261905Y-8445295D02*
X114309524Y-8350057D01*
X114309524Y-8350057D02*
X114357143Y-8302438D01*
X114357143Y-8302438D02*
X114452381Y-8254819D01*
X114452381Y-8254819D02*
X114690476Y-8254819D01*
X114690476Y-8254819D02*
X114833333Y-8302438D01*
X115214286Y-8350057D02*
X115261905Y-8302438D01*
X115261905Y-8302438D02*
X115357143Y-8254819D01*
X115357143Y-8254819D02*
X115595238Y-8254819D01*
X115595238Y-8254819D02*
X115690476Y-8302438D01*
X115690476Y-8302438D02*
X115738095Y-8350057D01*
X115738095Y-8350057D02*
X115785714Y-8445295D01*
X115785714Y-8445295D02*
X115785714Y-8540533D01*
X115785714Y-8540533D02*
X115738095Y-8683390D01*
X115738095Y-8683390D02*
X115166667Y-9254819D01*
X115166667Y-9254819D02*
X115785714Y-9254819D01*
X116166667Y-8350057D02*
X116214286Y-8302438D01*
X116214286Y-8302438D02*
X116309524Y-8254819D01*
X116309524Y-8254819D02*
X116547619Y-8254819D01*
X116547619Y-8254819D02*
X116642857Y-8302438D01*
X116642857Y-8302438D02*
X116690476Y-8350057D01*
X116690476Y-8350057D02*
X116738095Y-8445295D01*
X116738095Y-8445295D02*
X116738095Y-8540533D01*
X116738095Y-8540533D02*
X116690476Y-8683390D01*
X116690476Y-8683390D02*
X116119048Y-9254819D01*
X116119048Y-9254819D02*
X116738095Y-9254819D01*
X18595238Y-254819D02*
X18595238Y745180D01*
X19166666Y-254819D02*
X18738095Y316609D01*
X19166666Y745180D02*
X18595238Y173752D01*
X19976190Y-207200D02*
X19880952Y-254819D01*
X19880952Y-254819D02*
X19690476Y-254819D01*
X19690476Y-254819D02*
X19595238Y-207200D01*
X19595238Y-207200D02*
X19547619Y-111961D01*
X19547619Y-111961D02*
X19547619Y268990D01*
X19547619Y268990D02*
X19595238Y364228D01*
X19595238Y364228D02*
X19690476Y411847D01*
X19690476Y411847D02*
X19880952Y411847D01*
X19880952Y411847D02*
X19976190Y364228D01*
X19976190Y364228D02*
X20023809Y268990D01*
X20023809Y268990D02*
X20023809Y173752D01*
X20023809Y173752D02*
X19547619Y78514D01*
X20357143Y411847D02*
X20595238Y-254819D01*
X20833333Y411847D02*
X20595238Y-254819D01*
X20595238Y-254819D02*
X20500000Y-492914D01*
X20500000Y-492914D02*
X20452381Y-540533D01*
X20452381Y-540533D02*
X20357143Y-588152D01*
X21166667Y-207200D02*
X21261905Y-254819D01*
X21261905Y-254819D02*
X21452381Y-254819D01*
X21452381Y-254819D02*
X21547619Y-207200D01*
X21547619Y-207200D02*
X21595238Y-111961D01*
X21595238Y-111961D02*
X21595238Y-64342D01*
X21595238Y-64342D02*
X21547619Y30895D01*
X21547619Y30895D02*
X21452381Y78514D01*
X21452381Y78514D02*
X21309524Y78514D01*
X21309524Y78514D02*
X21214286Y126133D01*
X21214286Y126133D02*
X21166667Y221371D01*
X21166667Y221371D02*
X21166667Y268990D01*
X21166667Y268990D02*
X21214286Y364228D01*
X21214286Y364228D02*
X21309524Y411847D01*
X21309524Y411847D02*
X21452381Y411847D01*
X21452381Y411847D02*
X21547619Y364228D01*
X21928572Y411847D02*
X22119048Y-254819D01*
X22119048Y-254819D02*
X22309524Y221371D01*
X22309524Y221371D02*
X22500000Y-254819D01*
X22500000Y-254819D02*
X22690476Y411847D01*
X23071429Y-254819D02*
X23071429Y411847D01*
X23071429Y745180D02*
X23023810Y697561D01*
X23023810Y697561D02*
X23071429Y649942D01*
X23071429Y649942D02*
X23119048Y697561D01*
X23119048Y697561D02*
X23071429Y745180D01*
X23071429Y745180D02*
X23071429Y649942D01*
X23404762Y411847D02*
X23785714Y411847D01*
X23547619Y745180D02*
X23547619Y-111961D01*
X23547619Y-111961D02*
X23595238Y-207200D01*
X23595238Y-207200D02*
X23690476Y-254819D01*
X23690476Y-254819D02*
X23785714Y-254819D01*
X24547619Y-207200D02*
X24452381Y-254819D01*
X24452381Y-254819D02*
X24261905Y-254819D01*
X24261905Y-254819D02*
X24166667Y-207200D01*
X24166667Y-207200D02*
X24119048Y-159580D01*
X24119048Y-159580D02*
X24071429Y-64342D01*
X24071429Y-64342D02*
X24071429Y221371D01*
X24071429Y221371D02*
X24119048Y316609D01*
X24119048Y316609D02*
X24166667Y364228D01*
X24166667Y364228D02*
X24261905Y411847D01*
X24261905Y411847D02*
X24452381Y411847D01*
X24452381Y411847D02*
X24547619Y364228D01*
X24976191Y-254819D02*
X24976191Y745180D01*
X25404762Y-254819D02*
X25404762Y268990D01*
X25404762Y268990D02*
X25357143Y364228D01*
X25357143Y364228D02*
X25261905Y411847D01*
X25261905Y411847D02*
X25119048Y411847D01*
X25119048Y411847D02*
X25023810Y364228D01*
X25023810Y364228D02*
X24976191Y316609D01*
X21238095Y8792800D02*
X21380952Y8745180D01*
X21380952Y8745180D02*
X21619047Y8745180D01*
X21619047Y8745180D02*
X21714285Y8792800D01*
X21714285Y8792800D02*
X21761904Y8840419D01*
X21761904Y8840419D02*
X21809523Y8935657D01*
X21809523Y8935657D02*
X21809523Y9030895D01*
X21809523Y9030895D02*
X21761904Y9126133D01*
X21761904Y9126133D02*
X21714285Y9173752D01*
X21714285Y9173752D02*
X21619047Y9221371D01*
X21619047Y9221371D02*
X21428571Y9268990D01*
X21428571Y9268990D02*
X21333333Y9316609D01*
X21333333Y9316609D02*
X21285714Y9364228D01*
X21285714Y9364228D02*
X21238095Y9459466D01*
X21238095Y9459466D02*
X21238095Y9554704D01*
X21238095Y9554704D02*
X21285714Y9649942D01*
X21285714Y9649942D02*
X21333333Y9697561D01*
X21333333Y9697561D02*
X21428571Y9745180D01*
X21428571Y9745180D02*
X21666666Y9745180D01*
X21666666Y9745180D02*
X21809523Y9697561D01*
X22666666Y9745180D02*
X22476190Y9745180D01*
X22476190Y9745180D02*
X22380952Y9697561D01*
X22380952Y9697561D02*
X22333333Y9649942D01*
X22333333Y9649942D02*
X22238095Y9507085D01*
X22238095Y9507085D02*
X22190476Y9316609D01*
X22190476Y9316609D02*
X22190476Y8935657D01*
X22190476Y8935657D02*
X22238095Y8840419D01*
X22238095Y8840419D02*
X22285714Y8792800D01*
X22285714Y8792800D02*
X22380952Y8745180D01*
X22380952Y8745180D02*
X22571428Y8745180D01*
X22571428Y8745180D02*
X22666666Y8792800D01*
X22666666Y8792800D02*
X22714285Y8840419D01*
X22714285Y8840419D02*
X22761904Y8935657D01*
X22761904Y8935657D02*
X22761904Y9173752D01*
X22761904Y9173752D02*
X22714285Y9268990D01*
X22714285Y9268990D02*
X22666666Y9316609D01*
X22666666Y9316609D02*
X22571428Y9364228D01*
X22571428Y9364228D02*
X22380952Y9364228D01*
X22380952Y9364228D02*
X22285714Y9316609D01*
X22285714Y9316609D02*
X22238095Y9268990D01*
X22238095Y9268990D02*
X22190476Y9173752D01*
X-44894923Y-50263670D02*
X-44842587Y-49265040D01*
X-44324277Y-50293576D02*
X-44722355Y-49700501D01*
X-44271941Y-49294946D02*
X-44872493Y-49835686D01*
X-43513371Y-50288389D02*
X-43610970Y-50330959D01*
X-43610970Y-50330959D02*
X-43801185Y-50320990D01*
X-43801185Y-50320990D02*
X-43893801Y-50268452D01*
X-43893801Y-50268452D02*
X-43936370Y-50170852D01*
X-43936370Y-50170852D02*
X-43916433Y-49790422D01*
X-43916433Y-49790422D02*
X-43863895Y-49697806D01*
X-43863895Y-49697806D02*
X-43766295Y-49655237D01*
X-43766295Y-49655237D02*
X-43576080Y-49665206D01*
X-43576080Y-49665206D02*
X-43483464Y-49717744D01*
X-43483464Y-49717744D02*
X-43440895Y-49815344D01*
X-43440895Y-49815344D02*
X-43445879Y-49910451D01*
X-43445879Y-49910451D02*
X-43926401Y-49980637D01*
X-43100542Y-49690128D02*
X-42897663Y-50368342D01*
X-42625004Y-49715050D02*
X-42897663Y-50368342D01*
X-42897663Y-50368342D02*
X-43005232Y-50601126D01*
X-43005232Y-50601126D02*
X-43055278Y-50646188D01*
X-43055278Y-50646188D02*
X-43152878Y-50688757D01*
X-42324525Y-50350694D02*
X-42231910Y-50403232D01*
X-42231910Y-50403232D02*
X-42041695Y-50413201D01*
X-42041695Y-50413201D02*
X-41944095Y-50370632D01*
X-41944095Y-50370632D02*
X-41891557Y-50278016D01*
X-41891557Y-50278016D02*
X-41889065Y-50230463D01*
X-41889065Y-50230463D02*
X-41931634Y-50132863D01*
X-41931634Y-50132863D02*
X-42024250Y-50080325D01*
X-42024250Y-50080325D02*
X-42166911Y-50072848D01*
X-42166911Y-50072848D02*
X-42259526Y-50020310D01*
X-42259526Y-50020310D02*
X-42302096Y-49922710D01*
X-42302096Y-49922710D02*
X-42299604Y-49875156D01*
X-42299604Y-49875156D02*
X-42247065Y-49782541D01*
X-42247065Y-49782541D02*
X-42149466Y-49739972D01*
X-42149466Y-49739972D02*
X-42006804Y-49747448D01*
X-42006804Y-49747448D02*
X-41914189Y-49799986D01*
X-41531266Y-49772370D02*
X-41375942Y-50448092D01*
X-41375942Y-50448092D02*
X-41160805Y-49982523D01*
X-41160805Y-49982523D02*
X-40995511Y-50468029D01*
X-40995511Y-50468029D02*
X-40770406Y-49812245D01*
X-40424866Y-50497936D02*
X-40389975Y-49832182D01*
X-40372530Y-49499306D02*
X-40422576Y-49544368D01*
X-40422576Y-49544368D02*
X-40377514Y-49594414D01*
X-40377514Y-49594414D02*
X-40327468Y-49549352D01*
X-40327468Y-49549352D02*
X-40372530Y-49499306D01*
X-40372530Y-49499306D02*
X-40377514Y-49594414D01*
X-40057099Y-49849628D02*
X-39676669Y-49869565D01*
X-39896993Y-49524228D02*
X-39941852Y-50380196D01*
X-39941852Y-50380196D02*
X-39899283Y-50477796D01*
X-39899283Y-50477796D02*
X-39806667Y-50530334D01*
X-39806667Y-50530334D02*
X-39711560Y-50535318D01*
X-38948206Y-50527640D02*
X-39045806Y-50570209D01*
X-39045806Y-50570209D02*
X-39236021Y-50560240D01*
X-39236021Y-50560240D02*
X-39328637Y-50507702D01*
X-39328637Y-50507702D02*
X-39373698Y-50457656D01*
X-39373698Y-50457656D02*
X-39416268Y-50360056D01*
X-39416268Y-50360056D02*
X-39401315Y-50074734D01*
X-39401315Y-50074734D02*
X-39348776Y-49982118D01*
X-39348776Y-49982118D02*
X-39298730Y-49937057D01*
X-39298730Y-49937057D02*
X-39201131Y-49894487D01*
X-39201131Y-49894487D02*
X-39010916Y-49904456D01*
X-39010916Y-49904456D02*
X-38918300Y-49956994D01*
X-38522714Y-50597623D02*
X-38470378Y-49598994D01*
X-38094730Y-50620053D02*
X-38067316Y-50096961D01*
X-38067316Y-50096961D02*
X-38109886Y-49999361D01*
X-38109886Y-49999361D02*
X-38202501Y-49946823D01*
X-38202501Y-49946823D02*
X-38345162Y-49939347D01*
X-38345162Y-49939347D02*
X-38442762Y-49981916D01*
X-38442762Y-49981916D02*
X-38492808Y-50026978D01*
X-42257709Y-41341845D02*
X-42117540Y-41396875D01*
X-42117540Y-41396875D02*
X-41879771Y-41409336D01*
X-41879771Y-41409336D02*
X-41782171Y-41366766D01*
X-41782171Y-41366766D02*
X-41732125Y-41321705D01*
X-41732125Y-41321705D02*
X-41679587Y-41229089D01*
X-41679587Y-41229089D02*
X-41674602Y-41133982D01*
X-41674602Y-41133982D02*
X-41717172Y-41036382D01*
X-41717172Y-41036382D02*
X-41762233Y-40986336D01*
X-41762233Y-40986336D02*
X-41854849Y-40933798D01*
X-41854849Y-40933798D02*
X-42042572Y-40876275D01*
X-42042572Y-40876275D02*
X-42135187Y-40823737D01*
X-42135187Y-40823737D02*
X-42180249Y-40773691D01*
X-42180249Y-40773691D02*
X-42222818Y-40676092D01*
X-42222818Y-40676092D02*
X-42217834Y-40580984D01*
X-42217834Y-40580984D02*
X-42165296Y-40488369D01*
X-42165296Y-40488369D02*
X-42115250Y-40443307D01*
X-42115250Y-40443307D02*
X-42017650Y-40400738D01*
X-42017650Y-40400738D02*
X-41779881Y-40413199D01*
X-41779881Y-40413199D02*
X-41639712Y-40468229D01*
X-41261774Y-40535720D02*
X-41211728Y-40490659D01*
X-41211728Y-40490659D02*
X-41114128Y-40448089D01*
X-41114128Y-40448089D02*
X-40876359Y-40460550D01*
X-40876359Y-40460550D02*
X-40783743Y-40513088D01*
X-40783743Y-40513088D02*
X-40738682Y-40563134D01*
X-40738682Y-40563134D02*
X-40696112Y-40660734D01*
X-40696112Y-40660734D02*
X-40701097Y-40755842D01*
X-40701097Y-40755842D02*
X-40756127Y-40896011D01*
X-40756127Y-40896011D02*
X-41356679Y-41436750D01*
X-41356679Y-41436750D02*
X-40738480Y-41469148D01*
X-39847621Y-40848255D02*
X-39882511Y-41514008D01*
X-40065452Y-40455364D02*
X-40340604Y-41156209D01*
X-40340604Y-41156209D02*
X-39722405Y-41188608D01*
X18595238Y-18254819D02*
X18595238Y-17254819D01*
X19166666Y-18254819D02*
X18738095Y-17683390D01*
X19166666Y-17254819D02*
X18595238Y-17826247D01*
X19976190Y-18207200D02*
X19880952Y-18254819D01*
X19880952Y-18254819D02*
X19690476Y-18254819D01*
X19690476Y-18254819D02*
X19595238Y-18207200D01*
X19595238Y-18207200D02*
X19547619Y-18111961D01*
X19547619Y-18111961D02*
X19547619Y-17731009D01*
X19547619Y-17731009D02*
X19595238Y-17635771D01*
X19595238Y-17635771D02*
X19690476Y-17588152D01*
X19690476Y-17588152D02*
X19880952Y-17588152D01*
X19880952Y-17588152D02*
X19976190Y-17635771D01*
X19976190Y-17635771D02*
X20023809Y-17731009D01*
X20023809Y-17731009D02*
X20023809Y-17826247D01*
X20023809Y-17826247D02*
X19547619Y-17921485D01*
X20357143Y-17588152D02*
X20595238Y-18254819D01*
X20833333Y-17588152D02*
X20595238Y-18254819D01*
X20595238Y-18254819D02*
X20500000Y-18492914D01*
X20500000Y-18492914D02*
X20452381Y-18540533D01*
X20452381Y-18540533D02*
X20357143Y-18588152D01*
X21166667Y-18207200D02*
X21261905Y-18254819D01*
X21261905Y-18254819D02*
X21452381Y-18254819D01*
X21452381Y-18254819D02*
X21547619Y-18207200D01*
X21547619Y-18207200D02*
X21595238Y-18111961D01*
X21595238Y-18111961D02*
X21595238Y-18064342D01*
X21595238Y-18064342D02*
X21547619Y-17969104D01*
X21547619Y-17969104D02*
X21452381Y-17921485D01*
X21452381Y-17921485D02*
X21309524Y-17921485D01*
X21309524Y-17921485D02*
X21214286Y-17873866D01*
X21214286Y-17873866D02*
X21166667Y-17778628D01*
X21166667Y-17778628D02*
X21166667Y-17731009D01*
X21166667Y-17731009D02*
X21214286Y-17635771D01*
X21214286Y-17635771D02*
X21309524Y-17588152D01*
X21309524Y-17588152D02*
X21452381Y-17588152D01*
X21452381Y-17588152D02*
X21547619Y-17635771D01*
X21928572Y-17588152D02*
X22119048Y-18254819D01*
X22119048Y-18254819D02*
X22309524Y-17778628D01*
X22309524Y-17778628D02*
X22500000Y-18254819D01*
X22500000Y-18254819D02*
X22690476Y-17588152D01*
X23071429Y-18254819D02*
X23071429Y-17588152D01*
X23071429Y-17254819D02*
X23023810Y-17302438D01*
X23023810Y-17302438D02*
X23071429Y-17350057D01*
X23071429Y-17350057D02*
X23119048Y-17302438D01*
X23119048Y-17302438D02*
X23071429Y-17254819D01*
X23071429Y-17254819D02*
X23071429Y-17350057D01*
X23404762Y-17588152D02*
X23785714Y-17588152D01*
X23547619Y-17254819D02*
X23547619Y-18111961D01*
X23547619Y-18111961D02*
X23595238Y-18207200D01*
X23595238Y-18207200D02*
X23690476Y-18254819D01*
X23690476Y-18254819D02*
X23785714Y-18254819D01*
X24547619Y-18207200D02*
X24452381Y-18254819D01*
X24452381Y-18254819D02*
X24261905Y-18254819D01*
X24261905Y-18254819D02*
X24166667Y-18207200D01*
X24166667Y-18207200D02*
X24119048Y-18159580D01*
X24119048Y-18159580D02*
X24071429Y-18064342D01*
X24071429Y-18064342D02*
X24071429Y-17778628D01*
X24071429Y-17778628D02*
X24119048Y-17683390D01*
X24119048Y-17683390D02*
X24166667Y-17635771D01*
X24166667Y-17635771D02*
X24261905Y-17588152D01*
X24261905Y-17588152D02*
X24452381Y-17588152D01*
X24452381Y-17588152D02*
X24547619Y-17635771D01*
X24976191Y-18254819D02*
X24976191Y-17254819D01*
X25404762Y-18254819D02*
X25404762Y-17731009D01*
X25404762Y-17731009D02*
X25357143Y-17635771D01*
X25357143Y-17635771D02*
X25261905Y-17588152D01*
X25261905Y-17588152D02*
X25119048Y-17588152D01*
X25119048Y-17588152D02*
X25023810Y-17635771D01*
X25023810Y-17635771D02*
X24976191Y-17683390D01*
X20761905Y-9207200D02*
X20904762Y-9254819D01*
X20904762Y-9254819D02*
X21142857Y-9254819D01*
X21142857Y-9254819D02*
X21238095Y-9207200D01*
X21238095Y-9207200D02*
X21285714Y-9159580D01*
X21285714Y-9159580D02*
X21333333Y-9064342D01*
X21333333Y-9064342D02*
X21333333Y-8969104D01*
X21333333Y-8969104D02*
X21285714Y-8873866D01*
X21285714Y-8873866D02*
X21238095Y-8826247D01*
X21238095Y-8826247D02*
X21142857Y-8778628D01*
X21142857Y-8778628D02*
X20952381Y-8731009D01*
X20952381Y-8731009D02*
X20857143Y-8683390D01*
X20857143Y-8683390D02*
X20809524Y-8635771D01*
X20809524Y-8635771D02*
X20761905Y-8540533D01*
X20761905Y-8540533D02*
X20761905Y-8445295D01*
X20761905Y-8445295D02*
X20809524Y-8350057D01*
X20809524Y-8350057D02*
X20857143Y-8302438D01*
X20857143Y-8302438D02*
X20952381Y-8254819D01*
X20952381Y-8254819D02*
X21190476Y-8254819D01*
X21190476Y-8254819D02*
X21333333Y-8302438D01*
X22285714Y-9254819D02*
X21714286Y-9254819D01*
X22000000Y-9254819D02*
X22000000Y-8254819D01*
X22000000Y-8254819D02*
X21904762Y-8397676D01*
X21904762Y-8397676D02*
X21809524Y-8492914D01*
X21809524Y-8492914D02*
X21714286Y-8540533D01*
X22619048Y-8254819D02*
X23285714Y-8254819D01*
X23285714Y-8254819D02*
X22857143Y-9254819D01*
X19094731Y-64620053D02*
X19042395Y-63621423D01*
X19665377Y-64590146D02*
X19207486Y-64041931D01*
X19613041Y-63591517D02*
X19072302Y-64192069D01*
X20471299Y-64500225D02*
X20378683Y-64552764D01*
X20378683Y-64552764D02*
X20188468Y-64562732D01*
X20188468Y-64562732D02*
X20090869Y-64520163D01*
X20090869Y-64520163D02*
X20038330Y-64427548D01*
X20038330Y-64427548D02*
X20018393Y-64047117D01*
X20018393Y-64047117D02*
X20060962Y-63949518D01*
X20060962Y-63949518D02*
X20153578Y-63896979D01*
X20153578Y-63896979D02*
X20343793Y-63887011D01*
X20343793Y-63887011D02*
X20441393Y-63929580D01*
X20441393Y-63929580D02*
X20493931Y-64022195D01*
X20493931Y-64022195D02*
X20498915Y-64117303D01*
X20498915Y-64117303D02*
X20028362Y-64237332D01*
X20819331Y-63862089D02*
X21091990Y-64515381D01*
X21294869Y-63837167D02*
X21091990Y-64515381D01*
X21091990Y-64515381D02*
X21009344Y-64758134D01*
X21009344Y-64758134D02*
X20964282Y-64808180D01*
X20964282Y-64808180D02*
X20871667Y-64860718D01*
X21660144Y-64437921D02*
X21757744Y-64480490D01*
X21757744Y-64480490D02*
X21947959Y-64470521D01*
X21947959Y-64470521D02*
X22040574Y-64417983D01*
X22040574Y-64417983D02*
X22083144Y-64320383D01*
X22083144Y-64320383D02*
X22080651Y-64272830D01*
X22080651Y-64272830D02*
X22028113Y-64180214D01*
X22028113Y-64180214D02*
X21930514Y-64137645D01*
X21930514Y-64137645D02*
X21787852Y-64145121D01*
X21787852Y-64145121D02*
X21690252Y-64102552D01*
X21690252Y-64102552D02*
X21637714Y-64009937D01*
X21637714Y-64009937D02*
X21635222Y-63962383D01*
X21635222Y-63962383D02*
X21677791Y-63864783D01*
X21677791Y-63864783D02*
X21770407Y-63812245D01*
X21770407Y-63812245D02*
X21913068Y-63804768D01*
X21913068Y-63804768D02*
X22010668Y-63847338D01*
X22388606Y-63779846D02*
X22613712Y-64435631D01*
X22613712Y-64435631D02*
X22779005Y-63950124D01*
X22779005Y-63950124D02*
X22994142Y-64415693D01*
X22994142Y-64415693D02*
X23149467Y-63739971D01*
X23564788Y-64385787D02*
X23529897Y-63720034D01*
X23512452Y-63387157D02*
X23467390Y-63437203D01*
X23467390Y-63437203D02*
X23517436Y-63482265D01*
X23517436Y-63482265D02*
X23562498Y-63432219D01*
X23562498Y-63432219D02*
X23512452Y-63387157D01*
X23512452Y-63387157D02*
X23517436Y-63482265D01*
X23862773Y-63702589D02*
X24243203Y-63682651D01*
X23987989Y-63362236D02*
X24032849Y-64218204D01*
X24032849Y-64218204D02*
X24085387Y-64310819D01*
X24085387Y-64310819D02*
X24182987Y-64353389D01*
X24182987Y-64353389D02*
X24278094Y-64348404D01*
X25036463Y-64260975D02*
X24943848Y-64313513D01*
X24943848Y-64313513D02*
X24753632Y-64323482D01*
X24753632Y-64323482D02*
X24656033Y-64280913D01*
X24656033Y-64280913D02*
X24605987Y-64235851D01*
X24605987Y-64235851D02*
X24553449Y-64143236D01*
X24553449Y-64143236D02*
X24538495Y-63857913D01*
X24538495Y-63857913D02*
X24581065Y-63760313D01*
X24581065Y-63760313D02*
X24626126Y-63710267D01*
X24626126Y-63710267D02*
X24718742Y-63657729D01*
X24718742Y-63657729D02*
X24908957Y-63647760D01*
X24908957Y-63647760D02*
X25006557Y-63690330D01*
X25466939Y-64286099D02*
X25414603Y-63287470D01*
X25894923Y-64263670D02*
X25867509Y-63740578D01*
X25867509Y-63740578D02*
X25814971Y-63647963D01*
X25814971Y-63647963D02*
X25717371Y-63605393D01*
X25717371Y-63605393D02*
X25574710Y-63612870D01*
X25574710Y-63612870D02*
X25482095Y-63665408D01*
X25482095Y-63665408D02*
X25437033Y-63715454D01*
X20784913Y-55471438D02*
X20930066Y-55511516D01*
X20930066Y-55511516D02*
X21167835Y-55499055D01*
X21167835Y-55499055D02*
X21260451Y-55446516D01*
X21260451Y-55446516D02*
X21305512Y-55396470D01*
X21305512Y-55396470D02*
X21348082Y-55298871D01*
X21348082Y-55298871D02*
X21343097Y-55203763D01*
X21343097Y-55203763D02*
X21290559Y-55111148D01*
X21290559Y-55111148D02*
X21240513Y-55066086D01*
X21240513Y-55066086D02*
X21142913Y-55023517D01*
X21142913Y-55023517D02*
X20950206Y-54985932D01*
X20950206Y-54985932D02*
X20852606Y-54943362D01*
X20852606Y-54943362D02*
X20802560Y-54898301D01*
X20802560Y-54898301D02*
X20750022Y-54805685D01*
X20750022Y-54805685D02*
X20745038Y-54710578D01*
X20745038Y-54710578D02*
X20787607Y-54612978D01*
X20787607Y-54612978D02*
X20832669Y-54562932D01*
X20832669Y-54562932D02*
X20925284Y-54510394D01*
X20925284Y-54510394D02*
X21163053Y-54497933D01*
X21163053Y-54497933D02*
X21308207Y-54538010D01*
X21691129Y-54565626D02*
X21736191Y-54515580D01*
X21736191Y-54515580D02*
X21828806Y-54463042D01*
X21828806Y-54463042D02*
X22066575Y-54450581D01*
X22066575Y-54450581D02*
X22164175Y-54493151D01*
X22164175Y-54493151D02*
X22214221Y-54538212D01*
X22214221Y-54538212D02*
X22266759Y-54630828D01*
X22266759Y-54630828D02*
X22271743Y-54725935D01*
X22271743Y-54725935D02*
X22231666Y-54871089D01*
X22231666Y-54871089D02*
X21690927Y-55471641D01*
X21690927Y-55471641D02*
X22309126Y-55439242D01*
X23112758Y-54395753D02*
X22922543Y-54405722D01*
X22922543Y-54405722D02*
X22829928Y-54458260D01*
X22829928Y-54458260D02*
X22784866Y-54508306D01*
X22784866Y-54508306D02*
X22697235Y-54655952D01*
X22697235Y-54655952D02*
X22659650Y-54848659D01*
X22659650Y-54848659D02*
X22679588Y-55229089D01*
X22679588Y-55229089D02*
X22732126Y-55321705D01*
X22732126Y-55321705D02*
X22782172Y-55366766D01*
X22782172Y-55366766D02*
X22879772Y-55409336D01*
X22879772Y-55409336D02*
X23069987Y-55399367D01*
X23069987Y-55399367D02*
X23162602Y-55346829D01*
X23162602Y-55346829D02*
X23207664Y-55296783D01*
X23207664Y-55296783D02*
X23250233Y-55199183D01*
X23250233Y-55199183D02*
X23237772Y-54961414D01*
X23237772Y-54961414D02*
X23185234Y-54868799D01*
X23185234Y-54868799D02*
X23135188Y-54823737D01*
X23135188Y-54823737D02*
X23037588Y-54781168D01*
X23037588Y-54781168D02*
X22847373Y-54791137D01*
X22847373Y-54791137D02*
X22754758Y-54843675D01*
X22754758Y-54843675D02*
X22709696Y-54893721D01*
X22709696Y-54893721D02*
X22667127Y-54991320D01*
%TO.C,S18*%
D11*
X33500000Y-1300000D02*
X33500000Y-16300000D01*
X33500000Y-16300000D02*
X48500000Y-16300000D01*
X48500000Y-1300000D02*
X33500000Y-1300000D01*
X48500000Y-16300000D02*
X48500000Y-1300000D01*
%TO.C,U2*%
D12*
X-10500000Y25500000D02*
X10500000Y25500000D01*
X-10500000Y24200000D02*
X-9200000Y25500000D01*
X-10500000Y-25500000D02*
X-10500000Y25500000D01*
X10500000Y25500000D02*
X10500000Y-25500000D01*
X10500000Y-25500000D02*
X-10500000Y-25500000D01*
%TO.C,S14*%
D11*
X-67500000Y7500000D02*
X-67500000Y-7500000D01*
X-67500000Y-7500000D02*
X-52500000Y-7500000D01*
X-52500000Y7500000D02*
X-67500000Y7500000D01*
X-52500000Y-7500000D02*
X-52500000Y7500000D01*
%TO.C,S9*%
X71500000Y26600000D02*
X71500000Y11600000D01*
X71500000Y11600000D02*
X86500000Y11600000D01*
X86500000Y26600000D02*
X71500000Y26600000D01*
X86500000Y11600000D02*
X86500000Y26600000D01*
%TO.C,S28*%
X52117759Y-37602798D02*
X52902798Y-52582241D01*
X52902798Y-52582241D02*
X67882241Y-51797202D01*
X67097202Y-36817759D02*
X52117759Y-37602798D01*
X67882241Y-51797202D02*
X67097202Y-36817759D01*
%TO.C,S7*%
X33500000Y16700000D02*
X33500000Y1700000D01*
X33500000Y1700000D02*
X48500000Y1700000D01*
X48500000Y16700000D02*
X33500000Y16700000D01*
X48500000Y1700000D02*
X48500000Y16700000D01*
%TO.C,S25*%
X-29882241Y-62097202D02*
X-14902798Y-62882241D01*
X-29097202Y-47117759D02*
X-29882241Y-62097202D01*
X-14902798Y-62882241D02*
X-14117759Y-47902798D01*
X-14117759Y-47902798D02*
X-29097202Y-47117759D01*
%TO.C,S27*%
X33117759Y-33902798D02*
X33902798Y-48882241D01*
X33902798Y-48882241D02*
X48882241Y-48097202D01*
X48097202Y-33117759D02*
X33117759Y-33902798D01*
X48882241Y-48097202D02*
X48097202Y-33117759D01*
%TO.C,S19*%
X52500000Y7500000D02*
X52500000Y-7500000D01*
X52500000Y-7500000D02*
X67500000Y-7500000D01*
X67500000Y7500000D02*
X52500000Y7500000D01*
X67500000Y-7500000D02*
X67500000Y7500000D01*
%TO.C,S16*%
X-29500000Y-1300000D02*
X-29500000Y-16300000D01*
X-29500000Y-16300000D02*
X-14500000Y-16300000D01*
X-14500000Y-1300000D02*
X-29500000Y-1300000D01*
X-14500000Y-16300000D02*
X-14500000Y-1300000D01*
%TO.C,S5*%
X-29500000Y16700000D02*
X-29500000Y1700000D01*
X-29500000Y1700000D02*
X-14500000Y1700000D01*
X-14500000Y16700000D02*
X-29500000Y16700000D01*
X-14500000Y1700000D02*
X-14500000Y16700000D01*
%TO.C,S8*%
X52500000Y25500000D02*
X52500000Y10500000D01*
X52500000Y10500000D02*
X67500000Y10500000D01*
X67500000Y25500000D02*
X52500000Y25500000D01*
X67500000Y10500000D02*
X67500000Y25500000D01*
%TO.C,S23*%
X-67882241Y-51797202D02*
X-52902798Y-52582241D01*
X-67097202Y-36817759D02*
X-67882241Y-51797202D01*
X-52902798Y-52582241D02*
X-52117759Y-37602798D01*
X-52117759Y-37602798D02*
X-67097202Y-36817759D01*
%TO.C,S3*%
X-67500000Y25500000D02*
X-67500000Y10500000D01*
X-67500000Y10500000D02*
X-52500000Y10500000D01*
X-52500000Y25500000D02*
X-67500000Y25500000D01*
X-52500000Y10500000D02*
X-52500000Y25500000D01*
%TO.C,S4*%
X-48500000Y16700000D02*
X-48500000Y1700000D01*
X-48500000Y1700000D02*
X-33500000Y1700000D01*
X-33500000Y16700000D02*
X-48500000Y16700000D01*
X-33500000Y1700000D02*
X-33500000Y16700000D01*
%TO.C,S13*%
X-86500000Y8600000D02*
X-86500000Y-6400000D01*
X-86500000Y-6400000D02*
X-71500000Y-6400000D01*
X-71500000Y8600000D02*
X-86500000Y8600000D01*
X-71500000Y-6400000D02*
X-71500000Y8600000D01*
%TO.C,S20*%
X71500000Y8600000D02*
X71500000Y-6400000D01*
X71500000Y-6400000D02*
X86500000Y-6400000D01*
X86500000Y8600000D02*
X71500000Y8600000D01*
X86500000Y-6400000D02*
X86500000Y8600000D01*
%TO.C,S21*%
X90500000Y-1300000D02*
X90500000Y-16300000D01*
X90500000Y-16300000D02*
X105500000Y-16300000D01*
X105500000Y-1300000D02*
X90500000Y-1300000D01*
X105500000Y-16300000D02*
X105500000Y-1300000D01*
%TO.C,S2*%
X-86500000Y26600000D02*
X-86500000Y11600000D01*
X-86500000Y11600000D02*
X-71500000Y11600000D01*
X-71500000Y26600000D02*
X-86500000Y26600000D01*
X-71500000Y11600000D02*
X-71500000Y26600000D01*
%TO.C,S12*%
X-105500000Y-1300000D02*
X-105500000Y-16300000D01*
X-105500000Y-16300000D02*
X-90500000Y-16300000D01*
X-90500000Y-1300000D02*
X-105500000Y-1300000D01*
X-90500000Y-16300000D02*
X-90500000Y-1300000D01*
%TO.C,S1*%
X-105500000Y16700000D02*
X-105500000Y1700000D01*
X-105500000Y1700000D02*
X-90500000Y1700000D01*
X-90500000Y16700000D02*
X-105500000Y16700000D01*
X-90500000Y1700000D02*
X-90500000Y16700000D01*
%TO.C,S11*%
X108000000Y16700000D02*
X108000000Y1700000D01*
X108000000Y1700000D02*
X123000000Y1700000D01*
X123000000Y16700000D02*
X108000000Y16700000D01*
X123000000Y1700000D02*
X123000000Y16700000D01*
%TO.C,S15*%
X-48500000Y-1300000D02*
X-48500000Y-16300000D01*
X-48500000Y-16300000D02*
X-33500000Y-16300000D01*
X-33500000Y-1300000D02*
X-48500000Y-1300000D01*
X-33500000Y-16300000D02*
X-33500000Y-1300000D01*
%TO.C,S10*%
X90500000Y16700000D02*
X90500000Y1700000D01*
X90500000Y1700000D02*
X105500000Y1700000D01*
X105500000Y16700000D02*
X90500000Y16700000D01*
X105500000Y1700000D02*
X105500000Y16700000D01*
%TO.C,S22*%
X108000000Y-1300000D02*
X108000000Y-16300000D01*
X108000000Y-16300000D02*
X123000000Y-16300000D01*
X123000000Y-1300000D02*
X108000000Y-1300000D01*
X123000000Y-16300000D02*
X123000000Y-1300000D01*
%TO.C,S6*%
X14500000Y16700000D02*
X14500000Y1700000D01*
X14500000Y1700000D02*
X29500000Y1700000D01*
X29500000Y16700000D02*
X14500000Y16700000D01*
X29500000Y1700000D02*
X29500000Y16700000D01*
%TO.C,S24*%
X-48882241Y-48097202D02*
X-33902798Y-48882241D01*
X-48097202Y-33117759D02*
X-48882241Y-48097202D01*
X-33902798Y-48882241D02*
X-33117759Y-33902798D01*
X-33117759Y-33902798D02*
X-48097202Y-33117759D01*
%TO.C,S17*%
X14500000Y-1300000D02*
X14500000Y-16300000D01*
X14500000Y-16300000D02*
X29500000Y-16300000D01*
X29500000Y-1300000D02*
X14500000Y-1300000D01*
X29500000Y-16300000D02*
X29500000Y-1300000D01*
%TO.C,S26*%
X14117759Y-47902798D02*
X14902798Y-62882241D01*
X14902798Y-62882241D02*
X29882241Y-62097202D01*
X29097202Y-47117759D02*
X14117759Y-47902798D01*
X29882241Y-62097202D02*
X29097202Y-47117759D01*
%TD*%
M02*
