%TF.GenerationSoftware,KiCad,Pcbnew,10.0.4-1.fc44*%
%TF.CreationDate,2026-09-30T01:34:04+02:00*%
%TF.ProjectId,bunnyboard_ergo,62756e6e-7962-46f6-9172-645f6572676f,rev?*%
%TF.SameCoordinates,Original*%
%TF.FileFunction,AssemblyDrawing,Top*%
%FSLAX46Y46*%
G04 Gerber Fmt 4.6, Leading zero omitted, Abs format (unit mm)*
G04 Created by KiCad (PCBNEW 10.0.4-1.fc44) date 2026-09-30 01:34:04*
%MOMM*%
%LPD*%
G01*
G04 APERTURE LIST*
%ADD10C,0.150000*%
%ADD11C,0.100000*%
%ADD12C,0.120000*%
G04 APERTURE END LIST*
D10*
X37595238Y-18254819D02*
X37595238Y-17254819D01*
X38166666Y-18254819D02*
X37738095Y-17683390D01*
X38166666Y-17254819D02*
X37595238Y-17826247D01*
X38976190Y-18207200D02*
X38880952Y-18254819D01*
X38880952Y-18254819D02*
X38690476Y-18254819D01*
X38690476Y-18254819D02*
X38595238Y-18207200D01*
X38595238Y-18207200D02*
X38547619Y-18111961D01*
X38547619Y-18111961D02*
X38547619Y-17731009D01*
X38547619Y-17731009D02*
X38595238Y-17635771D01*
X38595238Y-17635771D02*
X38690476Y-17588152D01*
X38690476Y-17588152D02*
X38880952Y-17588152D01*
X38880952Y-17588152D02*
X38976190Y-17635771D01*
X38976190Y-17635771D02*
X39023809Y-17731009D01*
X39023809Y-17731009D02*
X39023809Y-17826247D01*
X39023809Y-17826247D02*
X38547619Y-17921485D01*
X39357143Y-17588152D02*
X39595238Y-18254819D01*
X39833333Y-17588152D02*
X39595238Y-18254819D01*
X39595238Y-18254819D02*
X39500000Y-18492914D01*
X39500000Y-18492914D02*
X39452381Y-18540533D01*
X39452381Y-18540533D02*
X39357143Y-18588152D01*
X40166667Y-18207200D02*
X40261905Y-18254819D01*
X40261905Y-18254819D02*
X40452381Y-18254819D01*
X40452381Y-18254819D02*
X40547619Y-18207200D01*
X40547619Y-18207200D02*
X40595238Y-18111961D01*
X40595238Y-18111961D02*
X40595238Y-18064342D01*
X40595238Y-18064342D02*
X40547619Y-17969104D01*
X40547619Y-17969104D02*
X40452381Y-17921485D01*
X40452381Y-17921485D02*
X40309524Y-17921485D01*
X40309524Y-17921485D02*
X40214286Y-17873866D01*
X40214286Y-17873866D02*
X40166667Y-17778628D01*
X40166667Y-17778628D02*
X40166667Y-17731009D01*
X40166667Y-17731009D02*
X40214286Y-17635771D01*
X40214286Y-17635771D02*
X40309524Y-17588152D01*
X40309524Y-17588152D02*
X40452381Y-17588152D01*
X40452381Y-17588152D02*
X40547619Y-17635771D01*
X40928572Y-17588152D02*
X41119048Y-18254819D01*
X41119048Y-18254819D02*
X41309524Y-17778628D01*
X41309524Y-17778628D02*
X41500000Y-18254819D01*
X41500000Y-18254819D02*
X41690476Y-17588152D01*
X42071429Y-18254819D02*
X42071429Y-17588152D01*
X42071429Y-17254819D02*
X42023810Y-17302438D01*
X42023810Y-17302438D02*
X42071429Y-17350057D01*
X42071429Y-17350057D02*
X42119048Y-17302438D01*
X42119048Y-17302438D02*
X42071429Y-17254819D01*
X42071429Y-17254819D02*
X42071429Y-17350057D01*
X42404762Y-17588152D02*
X42785714Y-17588152D01*
X42547619Y-17254819D02*
X42547619Y-18111961D01*
X42547619Y-18111961D02*
X42595238Y-18207200D01*
X42595238Y-18207200D02*
X42690476Y-18254819D01*
X42690476Y-18254819D02*
X42785714Y-18254819D01*
X43547619Y-18207200D02*
X43452381Y-18254819D01*
X43452381Y-18254819D02*
X43261905Y-18254819D01*
X43261905Y-18254819D02*
X43166667Y-18207200D01*
X43166667Y-18207200D02*
X43119048Y-18159580D01*
X43119048Y-18159580D02*
X43071429Y-18064342D01*
X43071429Y-18064342D02*
X43071429Y-17778628D01*
X43071429Y-17778628D02*
X43119048Y-17683390D01*
X43119048Y-17683390D02*
X43166667Y-17635771D01*
X43166667Y-17635771D02*
X43261905Y-17588152D01*
X43261905Y-17588152D02*
X43452381Y-17588152D01*
X43452381Y-17588152D02*
X43547619Y-17635771D01*
X43976191Y-18254819D02*
X43976191Y-17254819D01*
X44404762Y-18254819D02*
X44404762Y-17731009D01*
X44404762Y-17731009D02*
X44357143Y-17635771D01*
X44357143Y-17635771D02*
X44261905Y-17588152D01*
X44261905Y-17588152D02*
X44119048Y-17588152D01*
X44119048Y-17588152D02*
X44023810Y-17635771D01*
X44023810Y-17635771D02*
X43976191Y-17683390D01*
X39761905Y-9207200D02*
X39904762Y-9254819D01*
X39904762Y-9254819D02*
X40142857Y-9254819D01*
X40142857Y-9254819D02*
X40238095Y-9207200D01*
X40238095Y-9207200D02*
X40285714Y-9159580D01*
X40285714Y-9159580D02*
X40333333Y-9064342D01*
X40333333Y-9064342D02*
X40333333Y-8969104D01*
X40333333Y-8969104D02*
X40285714Y-8873866D01*
X40285714Y-8873866D02*
X40238095Y-8826247D01*
X40238095Y-8826247D02*
X40142857Y-8778628D01*
X40142857Y-8778628D02*
X39952381Y-8731009D01*
X39952381Y-8731009D02*
X39857143Y-8683390D01*
X39857143Y-8683390D02*
X39809524Y-8635771D01*
X39809524Y-8635771D02*
X39761905Y-8540533D01*
X39761905Y-8540533D02*
X39761905Y-8445295D01*
X39761905Y-8445295D02*
X39809524Y-8350057D01*
X39809524Y-8350057D02*
X39857143Y-8302438D01*
X39857143Y-8302438D02*
X39952381Y-8254819D01*
X39952381Y-8254819D02*
X40190476Y-8254819D01*
X40190476Y-8254819D02*
X40333333Y-8302438D01*
X41285714Y-9254819D02*
X40714286Y-9254819D01*
X41000000Y-9254819D02*
X41000000Y-8254819D01*
X41000000Y-8254819D02*
X40904762Y-8397676D01*
X40904762Y-8397676D02*
X40809524Y-8492914D01*
X40809524Y-8492914D02*
X40714286Y-8540533D01*
X41857143Y-8683390D02*
X41761905Y-8635771D01*
X41761905Y-8635771D02*
X41714286Y-8588152D01*
X41714286Y-8588152D02*
X41666667Y-8492914D01*
X41666667Y-8492914D02*
X41666667Y-8445295D01*
X41666667Y-8445295D02*
X41714286Y-8350057D01*
X41714286Y-8350057D02*
X41761905Y-8302438D01*
X41761905Y-8302438D02*
X41857143Y-8254819D01*
X41857143Y-8254819D02*
X42047619Y-8254819D01*
X42047619Y-8254819D02*
X42142857Y-8302438D01*
X42142857Y-8302438D02*
X42190476Y-8350057D01*
X42190476Y-8350057D02*
X42238095Y-8445295D01*
X42238095Y-8445295D02*
X42238095Y-8492914D01*
X42238095Y-8492914D02*
X42190476Y-8588152D01*
X42190476Y-8588152D02*
X42142857Y-8635771D01*
X42142857Y-8635771D02*
X42047619Y-8683390D01*
X42047619Y-8683390D02*
X41857143Y-8683390D01*
X41857143Y-8683390D02*
X41761905Y-8731009D01*
X41761905Y-8731009D02*
X41714286Y-8778628D01*
X41714286Y-8778628D02*
X41666667Y-8873866D01*
X41666667Y-8873866D02*
X41666667Y-9064342D01*
X41666667Y-9064342D02*
X41714286Y-9159580D01*
X41714286Y-9159580D02*
X41761905Y-9207200D01*
X41761905Y-9207200D02*
X41857143Y-9254819D01*
X41857143Y-9254819D02*
X42047619Y-9254819D01*
X42047619Y-9254819D02*
X42142857Y-9207200D01*
X42142857Y-9207200D02*
X42190476Y-9159580D01*
X42190476Y-9159580D02*
X42238095Y-9064342D01*
X42238095Y-9064342D02*
X42238095Y-8873866D01*
X42238095Y-8873866D02*
X42190476Y-8778628D01*
X42190476Y-8778628D02*
X42142857Y-8731009D01*
X42142857Y-8731009D02*
X42047619Y-8683390D01*
X-1380951Y-2613819D02*
X-1380951Y-1613819D01*
X-1380951Y-1613819D02*
X-999999Y-1613819D01*
X-999999Y-1613819D02*
X-904761Y-1661438D01*
X-904761Y-1661438D02*
X-857142Y-1709057D01*
X-857142Y-1709057D02*
X-809523Y-1804295D01*
X-809523Y-1804295D02*
X-809523Y-1947152D01*
X-809523Y-1947152D02*
X-857142Y-2042390D01*
X-857142Y-2042390D02*
X-904761Y-2090009D01*
X-904761Y-2090009D02*
X-999999Y-2137628D01*
X-999999Y-2137628D02*
X-1380951Y-2137628D01*
X-380951Y-2613819D02*
X-380951Y-1947152D01*
X-380951Y-1613819D02*
X-428570Y-1661438D01*
X-428570Y-1661438D02*
X-380951Y-1709057D01*
X-380951Y-1709057D02*
X-333332Y-1661438D01*
X-333332Y-1661438D02*
X-380951Y-1613819D01*
X-380951Y-1613819D02*
X-380951Y-1709057D01*
X523809Y-2566200D02*
X428571Y-2613819D01*
X428571Y-2613819D02*
X238095Y-2613819D01*
X238095Y-2613819D02*
X142857Y-2566200D01*
X142857Y-2566200D02*
X95238Y-2518580D01*
X95238Y-2518580D02*
X47619Y-2423342D01*
X47619Y-2423342D02*
X47619Y-2137628D01*
X47619Y-2137628D02*
X95238Y-2042390D01*
X95238Y-2042390D02*
X142857Y-1994771D01*
X142857Y-1994771D02*
X238095Y-1947152D01*
X238095Y-1947152D02*
X428571Y-1947152D01*
X428571Y-1947152D02*
X523809Y-1994771D01*
X1095238Y-2613819D02*
X1000000Y-2566200D01*
X1000000Y-2566200D02*
X952381Y-2518580D01*
X952381Y-2518580D02*
X904762Y-2423342D01*
X904762Y-2423342D02*
X904762Y-2137628D01*
X904762Y-2137628D02*
X952381Y-2042390D01*
X952381Y-2042390D02*
X1000000Y-1994771D01*
X1000000Y-1994771D02*
X1095238Y-1947152D01*
X1095238Y-1947152D02*
X1238095Y-1947152D01*
X1238095Y-1947152D02*
X1333333Y-1994771D01*
X1333333Y-1994771D02*
X1380952Y-2042390D01*
X1380952Y-2042390D02*
X1428571Y-2137628D01*
X1428571Y-2137628D02*
X1428571Y-2423342D01*
X1428571Y-2423342D02*
X1380952Y-2518580D01*
X1380952Y-2518580D02*
X1333333Y-2566200D01*
X1333333Y-2566200D02*
X1238095Y-2613819D01*
X1238095Y-2613819D02*
X1095238Y-2613819D01*
X-761904Y545180D02*
X-761904Y-264342D01*
X-761904Y-264342D02*
X-714285Y-359580D01*
X-714285Y-359580D02*
X-666666Y-407200D01*
X-666666Y-407200D02*
X-571428Y-454819D01*
X-571428Y-454819D02*
X-380952Y-454819D01*
X-380952Y-454819D02*
X-285714Y-407200D01*
X-285714Y-407200D02*
X-238095Y-359580D01*
X-238095Y-359580D02*
X-190476Y-264342D01*
X-190476Y-264342D02*
X-190476Y545180D01*
X238095Y449942D02*
X285714Y497561D01*
X285714Y497561D02*
X380952Y545180D01*
X380952Y545180D02*
X619047Y545180D01*
X619047Y545180D02*
X714285Y497561D01*
X714285Y497561D02*
X761904Y449942D01*
X761904Y449942D02*
X809523Y354704D01*
X809523Y354704D02*
X809523Y259466D01*
X809523Y259466D02*
X761904Y116609D01*
X761904Y116609D02*
X190476Y-454819D01*
X190476Y-454819D02*
X809523Y-454819D01*
X-63404761Y-9454819D02*
X-63404761Y-8454819D01*
X-62833333Y-9454819D02*
X-63261904Y-8883390D01*
X-62833333Y-8454819D02*
X-63404761Y-9026247D01*
X-62023809Y-9407200D02*
X-62119047Y-9454819D01*
X-62119047Y-9454819D02*
X-62309523Y-9454819D01*
X-62309523Y-9454819D02*
X-62404761Y-9407200D01*
X-62404761Y-9407200D02*
X-62452380Y-9311961D01*
X-62452380Y-9311961D02*
X-62452380Y-8931009D01*
X-62452380Y-8931009D02*
X-62404761Y-8835771D01*
X-62404761Y-8835771D02*
X-62309523Y-8788152D01*
X-62309523Y-8788152D02*
X-62119047Y-8788152D01*
X-62119047Y-8788152D02*
X-62023809Y-8835771D01*
X-62023809Y-8835771D02*
X-61976190Y-8931009D01*
X-61976190Y-8931009D02*
X-61976190Y-9026247D01*
X-61976190Y-9026247D02*
X-62452380Y-9121485D01*
X-61642856Y-8788152D02*
X-61404761Y-9454819D01*
X-61166666Y-8788152D02*
X-61404761Y-9454819D01*
X-61404761Y-9454819D02*
X-61499999Y-9692914D01*
X-61499999Y-9692914D02*
X-61547618Y-9740533D01*
X-61547618Y-9740533D02*
X-61642856Y-9788152D01*
X-60833332Y-9407200D02*
X-60738094Y-9454819D01*
X-60738094Y-9454819D02*
X-60547618Y-9454819D01*
X-60547618Y-9454819D02*
X-60452380Y-9407200D01*
X-60452380Y-9407200D02*
X-60404761Y-9311961D01*
X-60404761Y-9311961D02*
X-60404761Y-9264342D01*
X-60404761Y-9264342D02*
X-60452380Y-9169104D01*
X-60452380Y-9169104D02*
X-60547618Y-9121485D01*
X-60547618Y-9121485D02*
X-60690475Y-9121485D01*
X-60690475Y-9121485D02*
X-60785713Y-9073866D01*
X-60785713Y-9073866D02*
X-60833332Y-8978628D01*
X-60833332Y-8978628D02*
X-60833332Y-8931009D01*
X-60833332Y-8931009D02*
X-60785713Y-8835771D01*
X-60785713Y-8835771D02*
X-60690475Y-8788152D01*
X-60690475Y-8788152D02*
X-60547618Y-8788152D01*
X-60547618Y-8788152D02*
X-60452380Y-8835771D01*
X-60071427Y-8788152D02*
X-59880951Y-9454819D01*
X-59880951Y-9454819D02*
X-59690475Y-8978628D01*
X-59690475Y-8978628D02*
X-59499999Y-9454819D01*
X-59499999Y-9454819D02*
X-59309523Y-8788152D01*
X-58928570Y-9454819D02*
X-58928570Y-8788152D01*
X-58928570Y-8454819D02*
X-58976189Y-8502438D01*
X-58976189Y-8502438D02*
X-58928570Y-8550057D01*
X-58928570Y-8550057D02*
X-58880951Y-8502438D01*
X-58880951Y-8502438D02*
X-58928570Y-8454819D01*
X-58928570Y-8454819D02*
X-58928570Y-8550057D01*
X-58595237Y-8788152D02*
X-58214285Y-8788152D01*
X-58452380Y-8454819D02*
X-58452380Y-9311961D01*
X-58452380Y-9311961D02*
X-58404761Y-9407200D01*
X-58404761Y-9407200D02*
X-58309523Y-9454819D01*
X-58309523Y-9454819D02*
X-58214285Y-9454819D01*
X-57452380Y-9407200D02*
X-57547618Y-9454819D01*
X-57547618Y-9454819D02*
X-57738094Y-9454819D01*
X-57738094Y-9454819D02*
X-57833332Y-9407200D01*
X-57833332Y-9407200D02*
X-57880951Y-9359580D01*
X-57880951Y-9359580D02*
X-57928570Y-9264342D01*
X-57928570Y-9264342D02*
X-57928570Y-8978628D01*
X-57928570Y-8978628D02*
X-57880951Y-8883390D01*
X-57880951Y-8883390D02*
X-57833332Y-8835771D01*
X-57833332Y-8835771D02*
X-57738094Y-8788152D01*
X-57738094Y-8788152D02*
X-57547618Y-8788152D01*
X-57547618Y-8788152D02*
X-57452380Y-8835771D01*
X-57023808Y-9454819D02*
X-57023808Y-8454819D01*
X-56595237Y-9454819D02*
X-56595237Y-8931009D01*
X-56595237Y-8931009D02*
X-56642856Y-8835771D01*
X-56642856Y-8835771D02*
X-56738094Y-8788152D01*
X-56738094Y-8788152D02*
X-56880951Y-8788152D01*
X-56880951Y-8788152D02*
X-56976189Y-8835771D01*
X-56976189Y-8835771D02*
X-57023808Y-8883390D01*
X-61238094Y-407200D02*
X-61095237Y-454819D01*
X-61095237Y-454819D02*
X-60857142Y-454819D01*
X-60857142Y-454819D02*
X-60761904Y-407200D01*
X-60761904Y-407200D02*
X-60714285Y-359580D01*
X-60714285Y-359580D02*
X-60666666Y-264342D01*
X-60666666Y-264342D02*
X-60666666Y-169104D01*
X-60666666Y-169104D02*
X-60714285Y-73866D01*
X-60714285Y-73866D02*
X-60761904Y-26247D01*
X-60761904Y-26247D02*
X-60857142Y21371D01*
X-60857142Y21371D02*
X-61047618Y68990D01*
X-61047618Y68990D02*
X-61142856Y116609D01*
X-61142856Y116609D02*
X-61190475Y164228D01*
X-61190475Y164228D02*
X-61238094Y259466D01*
X-61238094Y259466D02*
X-61238094Y354704D01*
X-61238094Y354704D02*
X-61190475Y449942D01*
X-61190475Y449942D02*
X-61142856Y497561D01*
X-61142856Y497561D02*
X-61047618Y545180D01*
X-61047618Y545180D02*
X-60809523Y545180D01*
X-60809523Y545180D02*
X-60666666Y497561D01*
X-59714285Y-454819D02*
X-60285713Y-454819D01*
X-59999999Y-454819D02*
X-59999999Y545180D01*
X-59999999Y545180D02*
X-60095237Y402323D01*
X-60095237Y402323D02*
X-60190475Y307085D01*
X-60190475Y307085D02*
X-60285713Y259466D01*
X-58857142Y211847D02*
X-58857142Y-454819D01*
X-59095237Y592800D02*
X-59333332Y-121485D01*
X-59333332Y-121485D02*
X-58714285Y-121485D01*
X75595238Y9645180D02*
X75595238Y10645180D01*
X76166666Y9645180D02*
X75738095Y10216609D01*
X76166666Y10645180D02*
X75595238Y10073752D01*
X76976190Y9692800D02*
X76880952Y9645180D01*
X76880952Y9645180D02*
X76690476Y9645180D01*
X76690476Y9645180D02*
X76595238Y9692800D01*
X76595238Y9692800D02*
X76547619Y9788038D01*
X76547619Y9788038D02*
X76547619Y10168990D01*
X76547619Y10168990D02*
X76595238Y10264228D01*
X76595238Y10264228D02*
X76690476Y10311847D01*
X76690476Y10311847D02*
X76880952Y10311847D01*
X76880952Y10311847D02*
X76976190Y10264228D01*
X76976190Y10264228D02*
X77023809Y10168990D01*
X77023809Y10168990D02*
X77023809Y10073752D01*
X77023809Y10073752D02*
X76547619Y9978514D01*
X77357143Y10311847D02*
X77595238Y9645180D01*
X77833333Y10311847D02*
X77595238Y9645180D01*
X77595238Y9645180D02*
X77500000Y9407085D01*
X77500000Y9407085D02*
X77452381Y9359466D01*
X77452381Y9359466D02*
X77357143Y9311847D01*
X78166667Y9692800D02*
X78261905Y9645180D01*
X78261905Y9645180D02*
X78452381Y9645180D01*
X78452381Y9645180D02*
X78547619Y9692800D01*
X78547619Y9692800D02*
X78595238Y9788038D01*
X78595238Y9788038D02*
X78595238Y9835657D01*
X78595238Y9835657D02*
X78547619Y9930895D01*
X78547619Y9930895D02*
X78452381Y9978514D01*
X78452381Y9978514D02*
X78309524Y9978514D01*
X78309524Y9978514D02*
X78214286Y10026133D01*
X78214286Y10026133D02*
X78166667Y10121371D01*
X78166667Y10121371D02*
X78166667Y10168990D01*
X78166667Y10168990D02*
X78214286Y10264228D01*
X78214286Y10264228D02*
X78309524Y10311847D01*
X78309524Y10311847D02*
X78452381Y10311847D01*
X78452381Y10311847D02*
X78547619Y10264228D01*
X78928572Y10311847D02*
X79119048Y9645180D01*
X79119048Y9645180D02*
X79309524Y10121371D01*
X79309524Y10121371D02*
X79500000Y9645180D01*
X79500000Y9645180D02*
X79690476Y10311847D01*
X80071429Y9645180D02*
X80071429Y10311847D01*
X80071429Y10645180D02*
X80023810Y10597561D01*
X80023810Y10597561D02*
X80071429Y10549942D01*
X80071429Y10549942D02*
X80119048Y10597561D01*
X80119048Y10597561D02*
X80071429Y10645180D01*
X80071429Y10645180D02*
X80071429Y10549942D01*
X80404762Y10311847D02*
X80785714Y10311847D01*
X80547619Y10645180D02*
X80547619Y9788038D01*
X80547619Y9788038D02*
X80595238Y9692800D01*
X80595238Y9692800D02*
X80690476Y9645180D01*
X80690476Y9645180D02*
X80785714Y9645180D01*
X81547619Y9692800D02*
X81452381Y9645180D01*
X81452381Y9645180D02*
X81261905Y9645180D01*
X81261905Y9645180D02*
X81166667Y9692800D01*
X81166667Y9692800D02*
X81119048Y9740419D01*
X81119048Y9740419D02*
X81071429Y9835657D01*
X81071429Y9835657D02*
X81071429Y10121371D01*
X81071429Y10121371D02*
X81119048Y10216609D01*
X81119048Y10216609D02*
X81166667Y10264228D01*
X81166667Y10264228D02*
X81261905Y10311847D01*
X81261905Y10311847D02*
X81452381Y10311847D01*
X81452381Y10311847D02*
X81547619Y10264228D01*
X81976191Y9645180D02*
X81976191Y10645180D01*
X82404762Y9645180D02*
X82404762Y10168990D01*
X82404762Y10168990D02*
X82357143Y10264228D01*
X82357143Y10264228D02*
X82261905Y10311847D01*
X82261905Y10311847D02*
X82119048Y10311847D01*
X82119048Y10311847D02*
X82023810Y10264228D01*
X82023810Y10264228D02*
X81976191Y10216609D01*
X78238095Y18692800D02*
X78380952Y18645180D01*
X78380952Y18645180D02*
X78619047Y18645180D01*
X78619047Y18645180D02*
X78714285Y18692800D01*
X78714285Y18692800D02*
X78761904Y18740419D01*
X78761904Y18740419D02*
X78809523Y18835657D01*
X78809523Y18835657D02*
X78809523Y18930895D01*
X78809523Y18930895D02*
X78761904Y19026133D01*
X78761904Y19026133D02*
X78714285Y19073752D01*
X78714285Y19073752D02*
X78619047Y19121371D01*
X78619047Y19121371D02*
X78428571Y19168990D01*
X78428571Y19168990D02*
X78333333Y19216609D01*
X78333333Y19216609D02*
X78285714Y19264228D01*
X78285714Y19264228D02*
X78238095Y19359466D01*
X78238095Y19359466D02*
X78238095Y19454704D01*
X78238095Y19454704D02*
X78285714Y19549942D01*
X78285714Y19549942D02*
X78333333Y19597561D01*
X78333333Y19597561D02*
X78428571Y19645180D01*
X78428571Y19645180D02*
X78666666Y19645180D01*
X78666666Y19645180D02*
X78809523Y19597561D01*
X79285714Y18645180D02*
X79476190Y18645180D01*
X79476190Y18645180D02*
X79571428Y18692800D01*
X79571428Y18692800D02*
X79619047Y18740419D01*
X79619047Y18740419D02*
X79714285Y18883276D01*
X79714285Y18883276D02*
X79761904Y19073752D01*
X79761904Y19073752D02*
X79761904Y19454704D01*
X79761904Y19454704D02*
X79714285Y19549942D01*
X79714285Y19549942D02*
X79666666Y19597561D01*
X79666666Y19597561D02*
X79571428Y19645180D01*
X79571428Y19645180D02*
X79380952Y19645180D01*
X79380952Y19645180D02*
X79285714Y19597561D01*
X79285714Y19597561D02*
X79238095Y19549942D01*
X79238095Y19549942D02*
X79190476Y19454704D01*
X79190476Y19454704D02*
X79190476Y19216609D01*
X79190476Y19216609D02*
X79238095Y19121371D01*
X79238095Y19121371D02*
X79285714Y19073752D01*
X79285714Y19073752D02*
X79380952Y19026133D01*
X79380952Y19026133D02*
X79571428Y19026133D01*
X79571428Y19026133D02*
X79666666Y19073752D01*
X79666666Y19073752D02*
X79714285Y19121371D01*
X79714285Y19121371D02*
X79761904Y19216609D01*
X56595238Y-54154819D02*
X56595238Y-53154819D01*
X57166666Y-54154819D02*
X56738095Y-53583390D01*
X57166666Y-53154819D02*
X56595238Y-53726247D01*
X57976190Y-54107200D02*
X57880952Y-54154819D01*
X57880952Y-54154819D02*
X57690476Y-54154819D01*
X57690476Y-54154819D02*
X57595238Y-54107200D01*
X57595238Y-54107200D02*
X57547619Y-54011961D01*
X57547619Y-54011961D02*
X57547619Y-53631009D01*
X57547619Y-53631009D02*
X57595238Y-53535771D01*
X57595238Y-53535771D02*
X57690476Y-53488152D01*
X57690476Y-53488152D02*
X57880952Y-53488152D01*
X57880952Y-53488152D02*
X57976190Y-53535771D01*
X57976190Y-53535771D02*
X58023809Y-53631009D01*
X58023809Y-53631009D02*
X58023809Y-53726247D01*
X58023809Y-53726247D02*
X57547619Y-53821485D01*
X58357143Y-53488152D02*
X58595238Y-54154819D01*
X58833333Y-53488152D02*
X58595238Y-54154819D01*
X58595238Y-54154819D02*
X58500000Y-54392914D01*
X58500000Y-54392914D02*
X58452381Y-54440533D01*
X58452381Y-54440533D02*
X58357143Y-54488152D01*
X59166667Y-54107200D02*
X59261905Y-54154819D01*
X59261905Y-54154819D02*
X59452381Y-54154819D01*
X59452381Y-54154819D02*
X59547619Y-54107200D01*
X59547619Y-54107200D02*
X59595238Y-54011961D01*
X59595238Y-54011961D02*
X59595238Y-53964342D01*
X59595238Y-53964342D02*
X59547619Y-53869104D01*
X59547619Y-53869104D02*
X59452381Y-53821485D01*
X59452381Y-53821485D02*
X59309524Y-53821485D01*
X59309524Y-53821485D02*
X59214286Y-53773866D01*
X59214286Y-53773866D02*
X59166667Y-53678628D01*
X59166667Y-53678628D02*
X59166667Y-53631009D01*
X59166667Y-53631009D02*
X59214286Y-53535771D01*
X59214286Y-53535771D02*
X59309524Y-53488152D01*
X59309524Y-53488152D02*
X59452381Y-53488152D01*
X59452381Y-53488152D02*
X59547619Y-53535771D01*
X59928572Y-53488152D02*
X60119048Y-54154819D01*
X60119048Y-54154819D02*
X60309524Y-53678628D01*
X60309524Y-53678628D02*
X60500000Y-54154819D01*
X60500000Y-54154819D02*
X60690476Y-53488152D01*
X61071429Y-54154819D02*
X61071429Y-53488152D01*
X61071429Y-53154819D02*
X61023810Y-53202438D01*
X61023810Y-53202438D02*
X61071429Y-53250057D01*
X61071429Y-53250057D02*
X61119048Y-53202438D01*
X61119048Y-53202438D02*
X61071429Y-53154819D01*
X61071429Y-53154819D02*
X61071429Y-53250057D01*
X61404762Y-53488152D02*
X61785714Y-53488152D01*
X61547619Y-53154819D02*
X61547619Y-54011961D01*
X61547619Y-54011961D02*
X61595238Y-54107200D01*
X61595238Y-54107200D02*
X61690476Y-54154819D01*
X61690476Y-54154819D02*
X61785714Y-54154819D01*
X62547619Y-54107200D02*
X62452381Y-54154819D01*
X62452381Y-54154819D02*
X62261905Y-54154819D01*
X62261905Y-54154819D02*
X62166667Y-54107200D01*
X62166667Y-54107200D02*
X62119048Y-54059580D01*
X62119048Y-54059580D02*
X62071429Y-53964342D01*
X62071429Y-53964342D02*
X62071429Y-53678628D01*
X62071429Y-53678628D02*
X62119048Y-53583390D01*
X62119048Y-53583390D02*
X62166667Y-53535771D01*
X62166667Y-53535771D02*
X62261905Y-53488152D01*
X62261905Y-53488152D02*
X62452381Y-53488152D01*
X62452381Y-53488152D02*
X62547619Y-53535771D01*
X62976191Y-54154819D02*
X62976191Y-53154819D01*
X63404762Y-54154819D02*
X63404762Y-53631009D01*
X63404762Y-53631009D02*
X63357143Y-53535771D01*
X63357143Y-53535771D02*
X63261905Y-53488152D01*
X63261905Y-53488152D02*
X63119048Y-53488152D01*
X63119048Y-53488152D02*
X63023810Y-53535771D01*
X63023810Y-53535771D02*
X62976191Y-53583390D01*
X58761905Y-45107200D02*
X58904762Y-45154819D01*
X58904762Y-45154819D02*
X59142857Y-45154819D01*
X59142857Y-45154819D02*
X59238095Y-45107200D01*
X59238095Y-45107200D02*
X59285714Y-45059580D01*
X59285714Y-45059580D02*
X59333333Y-44964342D01*
X59333333Y-44964342D02*
X59333333Y-44869104D01*
X59333333Y-44869104D02*
X59285714Y-44773866D01*
X59285714Y-44773866D02*
X59238095Y-44726247D01*
X59238095Y-44726247D02*
X59142857Y-44678628D01*
X59142857Y-44678628D02*
X58952381Y-44631009D01*
X58952381Y-44631009D02*
X58857143Y-44583390D01*
X58857143Y-44583390D02*
X58809524Y-44535771D01*
X58809524Y-44535771D02*
X58761905Y-44440533D01*
X58761905Y-44440533D02*
X58761905Y-44345295D01*
X58761905Y-44345295D02*
X58809524Y-44250057D01*
X58809524Y-44250057D02*
X58857143Y-44202438D01*
X58857143Y-44202438D02*
X58952381Y-44154819D01*
X58952381Y-44154819D02*
X59190476Y-44154819D01*
X59190476Y-44154819D02*
X59333333Y-44202438D01*
X59714286Y-44250057D02*
X59761905Y-44202438D01*
X59761905Y-44202438D02*
X59857143Y-44154819D01*
X59857143Y-44154819D02*
X60095238Y-44154819D01*
X60095238Y-44154819D02*
X60190476Y-44202438D01*
X60190476Y-44202438D02*
X60238095Y-44250057D01*
X60238095Y-44250057D02*
X60285714Y-44345295D01*
X60285714Y-44345295D02*
X60285714Y-44440533D01*
X60285714Y-44440533D02*
X60238095Y-44583390D01*
X60238095Y-44583390D02*
X59666667Y-45154819D01*
X59666667Y-45154819D02*
X60285714Y-45154819D01*
X60857143Y-44583390D02*
X60761905Y-44535771D01*
X60761905Y-44535771D02*
X60714286Y-44488152D01*
X60714286Y-44488152D02*
X60666667Y-44392914D01*
X60666667Y-44392914D02*
X60666667Y-44345295D01*
X60666667Y-44345295D02*
X60714286Y-44250057D01*
X60714286Y-44250057D02*
X60761905Y-44202438D01*
X60761905Y-44202438D02*
X60857143Y-44154819D01*
X60857143Y-44154819D02*
X61047619Y-44154819D01*
X61047619Y-44154819D02*
X61142857Y-44202438D01*
X61142857Y-44202438D02*
X61190476Y-44250057D01*
X61190476Y-44250057D02*
X61238095Y-44345295D01*
X61238095Y-44345295D02*
X61238095Y-44392914D01*
X61238095Y-44392914D02*
X61190476Y-44488152D01*
X61190476Y-44488152D02*
X61142857Y-44535771D01*
X61142857Y-44535771D02*
X61047619Y-44583390D01*
X61047619Y-44583390D02*
X60857143Y-44583390D01*
X60857143Y-44583390D02*
X60761905Y-44631009D01*
X60761905Y-44631009D02*
X60714286Y-44678628D01*
X60714286Y-44678628D02*
X60666667Y-44773866D01*
X60666667Y-44773866D02*
X60666667Y-44964342D01*
X60666667Y-44964342D02*
X60714286Y-45059580D01*
X60714286Y-45059580D02*
X60761905Y-45107200D01*
X60761905Y-45107200D02*
X60857143Y-45154819D01*
X60857143Y-45154819D02*
X61047619Y-45154819D01*
X61047619Y-45154819D02*
X61142857Y-45107200D01*
X61142857Y-45107200D02*
X61190476Y-45059580D01*
X61190476Y-45059580D02*
X61238095Y-44964342D01*
X61238095Y-44964342D02*
X61238095Y-44773866D01*
X61238095Y-44773866D02*
X61190476Y-44678628D01*
X61190476Y-44678628D02*
X61142857Y-44631009D01*
X61142857Y-44631009D02*
X61047619Y-44583390D01*
X37595238Y-254819D02*
X37595238Y745180D01*
X38166666Y-254819D02*
X37738095Y316609D01*
X38166666Y745180D02*
X37595238Y173752D01*
X38976190Y-207200D02*
X38880952Y-254819D01*
X38880952Y-254819D02*
X38690476Y-254819D01*
X38690476Y-254819D02*
X38595238Y-207200D01*
X38595238Y-207200D02*
X38547619Y-111961D01*
X38547619Y-111961D02*
X38547619Y268990D01*
X38547619Y268990D02*
X38595238Y364228D01*
X38595238Y364228D02*
X38690476Y411847D01*
X38690476Y411847D02*
X38880952Y411847D01*
X38880952Y411847D02*
X38976190Y364228D01*
X38976190Y364228D02*
X39023809Y268990D01*
X39023809Y268990D02*
X39023809Y173752D01*
X39023809Y173752D02*
X38547619Y78514D01*
X39357143Y411847D02*
X39595238Y-254819D01*
X39833333Y411847D02*
X39595238Y-254819D01*
X39595238Y-254819D02*
X39500000Y-492914D01*
X39500000Y-492914D02*
X39452381Y-540533D01*
X39452381Y-540533D02*
X39357143Y-588152D01*
X40166667Y-207200D02*
X40261905Y-254819D01*
X40261905Y-254819D02*
X40452381Y-254819D01*
X40452381Y-254819D02*
X40547619Y-207200D01*
X40547619Y-207200D02*
X40595238Y-111961D01*
X40595238Y-111961D02*
X40595238Y-64342D01*
X40595238Y-64342D02*
X40547619Y30895D01*
X40547619Y30895D02*
X40452381Y78514D01*
X40452381Y78514D02*
X40309524Y78514D01*
X40309524Y78514D02*
X40214286Y126133D01*
X40214286Y126133D02*
X40166667Y221371D01*
X40166667Y221371D02*
X40166667Y268990D01*
X40166667Y268990D02*
X40214286Y364228D01*
X40214286Y364228D02*
X40309524Y411847D01*
X40309524Y411847D02*
X40452381Y411847D01*
X40452381Y411847D02*
X40547619Y364228D01*
X40928572Y411847D02*
X41119048Y-254819D01*
X41119048Y-254819D02*
X41309524Y221371D01*
X41309524Y221371D02*
X41500000Y-254819D01*
X41500000Y-254819D02*
X41690476Y411847D01*
X42071429Y-254819D02*
X42071429Y411847D01*
X42071429Y745180D02*
X42023810Y697561D01*
X42023810Y697561D02*
X42071429Y649942D01*
X42071429Y649942D02*
X42119048Y697561D01*
X42119048Y697561D02*
X42071429Y745180D01*
X42071429Y745180D02*
X42071429Y649942D01*
X42404762Y411847D02*
X42785714Y411847D01*
X42547619Y745180D02*
X42547619Y-111961D01*
X42547619Y-111961D02*
X42595238Y-207200D01*
X42595238Y-207200D02*
X42690476Y-254819D01*
X42690476Y-254819D02*
X42785714Y-254819D01*
X43547619Y-207200D02*
X43452381Y-254819D01*
X43452381Y-254819D02*
X43261905Y-254819D01*
X43261905Y-254819D02*
X43166667Y-207200D01*
X43166667Y-207200D02*
X43119048Y-159580D01*
X43119048Y-159580D02*
X43071429Y-64342D01*
X43071429Y-64342D02*
X43071429Y221371D01*
X43071429Y221371D02*
X43119048Y316609D01*
X43119048Y316609D02*
X43166667Y364228D01*
X43166667Y364228D02*
X43261905Y411847D01*
X43261905Y411847D02*
X43452381Y411847D01*
X43452381Y411847D02*
X43547619Y364228D01*
X43976191Y-254819D02*
X43976191Y745180D01*
X44404762Y-254819D02*
X44404762Y268990D01*
X44404762Y268990D02*
X44357143Y364228D01*
X44357143Y364228D02*
X44261905Y411847D01*
X44261905Y411847D02*
X44119048Y411847D01*
X44119048Y411847D02*
X44023810Y364228D01*
X44023810Y364228D02*
X43976191Y316609D01*
X40238095Y8792800D02*
X40380952Y8745180D01*
X40380952Y8745180D02*
X40619047Y8745180D01*
X40619047Y8745180D02*
X40714285Y8792800D01*
X40714285Y8792800D02*
X40761904Y8840419D01*
X40761904Y8840419D02*
X40809523Y8935657D01*
X40809523Y8935657D02*
X40809523Y9030895D01*
X40809523Y9030895D02*
X40761904Y9126133D01*
X40761904Y9126133D02*
X40714285Y9173752D01*
X40714285Y9173752D02*
X40619047Y9221371D01*
X40619047Y9221371D02*
X40428571Y9268990D01*
X40428571Y9268990D02*
X40333333Y9316609D01*
X40333333Y9316609D02*
X40285714Y9364228D01*
X40285714Y9364228D02*
X40238095Y9459466D01*
X40238095Y9459466D02*
X40238095Y9554704D01*
X40238095Y9554704D02*
X40285714Y9649942D01*
X40285714Y9649942D02*
X40333333Y9697561D01*
X40333333Y9697561D02*
X40428571Y9745180D01*
X40428571Y9745180D02*
X40666666Y9745180D01*
X40666666Y9745180D02*
X40809523Y9697561D01*
X41142857Y9745180D02*
X41809523Y9745180D01*
X41809523Y9745180D02*
X41380952Y8745180D01*
X-25404761Y-64454819D02*
X-25404761Y-63454819D01*
X-24833333Y-64454819D02*
X-25261904Y-63883390D01*
X-24833333Y-63454819D02*
X-25404761Y-64026247D01*
X-24023809Y-64407200D02*
X-24119047Y-64454819D01*
X-24119047Y-64454819D02*
X-24309523Y-64454819D01*
X-24309523Y-64454819D02*
X-24404761Y-64407200D01*
X-24404761Y-64407200D02*
X-24452380Y-64311961D01*
X-24452380Y-64311961D02*
X-24452380Y-63931009D01*
X-24452380Y-63931009D02*
X-24404761Y-63835771D01*
X-24404761Y-63835771D02*
X-24309523Y-63788152D01*
X-24309523Y-63788152D02*
X-24119047Y-63788152D01*
X-24119047Y-63788152D02*
X-24023809Y-63835771D01*
X-24023809Y-63835771D02*
X-23976190Y-63931009D01*
X-23976190Y-63931009D02*
X-23976190Y-64026247D01*
X-23976190Y-64026247D02*
X-24452380Y-64121485D01*
X-23642856Y-63788152D02*
X-23404761Y-64454819D01*
X-23166666Y-63788152D02*
X-23404761Y-64454819D01*
X-23404761Y-64454819D02*
X-23499999Y-64692914D01*
X-23499999Y-64692914D02*
X-23547618Y-64740533D01*
X-23547618Y-64740533D02*
X-23642856Y-64788152D01*
X-22833332Y-64407200D02*
X-22738094Y-64454819D01*
X-22738094Y-64454819D02*
X-22547618Y-64454819D01*
X-22547618Y-64454819D02*
X-22452380Y-64407200D01*
X-22452380Y-64407200D02*
X-22404761Y-64311961D01*
X-22404761Y-64311961D02*
X-22404761Y-64264342D01*
X-22404761Y-64264342D02*
X-22452380Y-64169104D01*
X-22452380Y-64169104D02*
X-22547618Y-64121485D01*
X-22547618Y-64121485D02*
X-22690475Y-64121485D01*
X-22690475Y-64121485D02*
X-22785713Y-64073866D01*
X-22785713Y-64073866D02*
X-22833332Y-63978628D01*
X-22833332Y-63978628D02*
X-22833332Y-63931009D01*
X-22833332Y-63931009D02*
X-22785713Y-63835771D01*
X-22785713Y-63835771D02*
X-22690475Y-63788152D01*
X-22690475Y-63788152D02*
X-22547618Y-63788152D01*
X-22547618Y-63788152D02*
X-22452380Y-63835771D01*
X-22071427Y-63788152D02*
X-21880951Y-64454819D01*
X-21880951Y-64454819D02*
X-21690475Y-63978628D01*
X-21690475Y-63978628D02*
X-21499999Y-64454819D01*
X-21499999Y-64454819D02*
X-21309523Y-63788152D01*
X-20928570Y-64454819D02*
X-20928570Y-63788152D01*
X-20928570Y-63454819D02*
X-20976189Y-63502438D01*
X-20976189Y-63502438D02*
X-20928570Y-63550057D01*
X-20928570Y-63550057D02*
X-20880951Y-63502438D01*
X-20880951Y-63502438D02*
X-20928570Y-63454819D01*
X-20928570Y-63454819D02*
X-20928570Y-63550057D01*
X-20595237Y-63788152D02*
X-20214285Y-63788152D01*
X-20452380Y-63454819D02*
X-20452380Y-64311961D01*
X-20452380Y-64311961D02*
X-20404761Y-64407200D01*
X-20404761Y-64407200D02*
X-20309523Y-64454819D01*
X-20309523Y-64454819D02*
X-20214285Y-64454819D01*
X-19452380Y-64407200D02*
X-19547618Y-64454819D01*
X-19547618Y-64454819D02*
X-19738094Y-64454819D01*
X-19738094Y-64454819D02*
X-19833332Y-64407200D01*
X-19833332Y-64407200D02*
X-19880951Y-64359580D01*
X-19880951Y-64359580D02*
X-19928570Y-64264342D01*
X-19928570Y-64264342D02*
X-19928570Y-63978628D01*
X-19928570Y-63978628D02*
X-19880951Y-63883390D01*
X-19880951Y-63883390D02*
X-19833332Y-63835771D01*
X-19833332Y-63835771D02*
X-19738094Y-63788152D01*
X-19738094Y-63788152D02*
X-19547618Y-63788152D01*
X-19547618Y-63788152D02*
X-19452380Y-63835771D01*
X-19023808Y-64454819D02*
X-19023808Y-63454819D01*
X-18595237Y-64454819D02*
X-18595237Y-63931009D01*
X-18595237Y-63931009D02*
X-18642856Y-63835771D01*
X-18642856Y-63835771D02*
X-18738094Y-63788152D01*
X-18738094Y-63788152D02*
X-18880951Y-63788152D01*
X-18880951Y-63788152D02*
X-18976189Y-63835771D01*
X-18976189Y-63835771D02*
X-19023808Y-63883390D01*
X-23238094Y-55407200D02*
X-23095237Y-55454819D01*
X-23095237Y-55454819D02*
X-22857142Y-55454819D01*
X-22857142Y-55454819D02*
X-22761904Y-55407200D01*
X-22761904Y-55407200D02*
X-22714285Y-55359580D01*
X-22714285Y-55359580D02*
X-22666666Y-55264342D01*
X-22666666Y-55264342D02*
X-22666666Y-55169104D01*
X-22666666Y-55169104D02*
X-22714285Y-55073866D01*
X-22714285Y-55073866D02*
X-22761904Y-55026247D01*
X-22761904Y-55026247D02*
X-22857142Y-54978628D01*
X-22857142Y-54978628D02*
X-23047618Y-54931009D01*
X-23047618Y-54931009D02*
X-23142856Y-54883390D01*
X-23142856Y-54883390D02*
X-23190475Y-54835771D01*
X-23190475Y-54835771D02*
X-23238094Y-54740533D01*
X-23238094Y-54740533D02*
X-23238094Y-54645295D01*
X-23238094Y-54645295D02*
X-23190475Y-54550057D01*
X-23190475Y-54550057D02*
X-23142856Y-54502438D01*
X-23142856Y-54502438D02*
X-23047618Y-54454819D01*
X-23047618Y-54454819D02*
X-22809523Y-54454819D01*
X-22809523Y-54454819D02*
X-22666666Y-54502438D01*
X-22285713Y-54550057D02*
X-22238094Y-54502438D01*
X-22238094Y-54502438D02*
X-22142856Y-54454819D01*
X-22142856Y-54454819D02*
X-21904761Y-54454819D01*
X-21904761Y-54454819D02*
X-21809523Y-54502438D01*
X-21809523Y-54502438D02*
X-21761904Y-54550057D01*
X-21761904Y-54550057D02*
X-21714285Y-54645295D01*
X-21714285Y-54645295D02*
X-21714285Y-54740533D01*
X-21714285Y-54740533D02*
X-21761904Y-54883390D01*
X-21761904Y-54883390D02*
X-22333332Y-55454819D01*
X-22333332Y-55454819D02*
X-21714285Y-55454819D01*
X-20809523Y-54454819D02*
X-21285713Y-54454819D01*
X-21285713Y-54454819D02*
X-21333332Y-54931009D01*
X-21333332Y-54931009D02*
X-21285713Y-54883390D01*
X-21285713Y-54883390D02*
X-21190475Y-54835771D01*
X-21190475Y-54835771D02*
X-20952380Y-54835771D01*
X-20952380Y-54835771D02*
X-20857142Y-54883390D01*
X-20857142Y-54883390D02*
X-20809523Y-54931009D01*
X-20809523Y-54931009D02*
X-20761904Y-55026247D01*
X-20761904Y-55026247D02*
X-20761904Y-55264342D01*
X-20761904Y-55264342D02*
X-20809523Y-55359580D01*
X-20809523Y-55359580D02*
X-20857142Y-55407200D01*
X-20857142Y-55407200D02*
X-20952380Y-55454819D01*
X-20952380Y-55454819D02*
X-21190475Y-55454819D01*
X-21190475Y-55454819D02*
X-21285713Y-55407200D01*
X-21285713Y-55407200D02*
X-21333332Y-55359580D01*
X37595238Y-50454819D02*
X37595238Y-49454819D01*
X38166666Y-50454819D02*
X37738095Y-49883390D01*
X38166666Y-49454819D02*
X37595238Y-50026247D01*
X38976190Y-50407200D02*
X38880952Y-50454819D01*
X38880952Y-50454819D02*
X38690476Y-50454819D01*
X38690476Y-50454819D02*
X38595238Y-50407200D01*
X38595238Y-50407200D02*
X38547619Y-50311961D01*
X38547619Y-50311961D02*
X38547619Y-49931009D01*
X38547619Y-49931009D02*
X38595238Y-49835771D01*
X38595238Y-49835771D02*
X38690476Y-49788152D01*
X38690476Y-49788152D02*
X38880952Y-49788152D01*
X38880952Y-49788152D02*
X38976190Y-49835771D01*
X38976190Y-49835771D02*
X39023809Y-49931009D01*
X39023809Y-49931009D02*
X39023809Y-50026247D01*
X39023809Y-50026247D02*
X38547619Y-50121485D01*
X39357143Y-49788152D02*
X39595238Y-50454819D01*
X39833333Y-49788152D02*
X39595238Y-50454819D01*
X39595238Y-50454819D02*
X39500000Y-50692914D01*
X39500000Y-50692914D02*
X39452381Y-50740533D01*
X39452381Y-50740533D02*
X39357143Y-50788152D01*
X40166667Y-50407200D02*
X40261905Y-50454819D01*
X40261905Y-50454819D02*
X40452381Y-50454819D01*
X40452381Y-50454819D02*
X40547619Y-50407200D01*
X40547619Y-50407200D02*
X40595238Y-50311961D01*
X40595238Y-50311961D02*
X40595238Y-50264342D01*
X40595238Y-50264342D02*
X40547619Y-50169104D01*
X40547619Y-50169104D02*
X40452381Y-50121485D01*
X40452381Y-50121485D02*
X40309524Y-50121485D01*
X40309524Y-50121485D02*
X40214286Y-50073866D01*
X40214286Y-50073866D02*
X40166667Y-49978628D01*
X40166667Y-49978628D02*
X40166667Y-49931009D01*
X40166667Y-49931009D02*
X40214286Y-49835771D01*
X40214286Y-49835771D02*
X40309524Y-49788152D01*
X40309524Y-49788152D02*
X40452381Y-49788152D01*
X40452381Y-49788152D02*
X40547619Y-49835771D01*
X40928572Y-49788152D02*
X41119048Y-50454819D01*
X41119048Y-50454819D02*
X41309524Y-49978628D01*
X41309524Y-49978628D02*
X41500000Y-50454819D01*
X41500000Y-50454819D02*
X41690476Y-49788152D01*
X42071429Y-50454819D02*
X42071429Y-49788152D01*
X42071429Y-49454819D02*
X42023810Y-49502438D01*
X42023810Y-49502438D02*
X42071429Y-49550057D01*
X42071429Y-49550057D02*
X42119048Y-49502438D01*
X42119048Y-49502438D02*
X42071429Y-49454819D01*
X42071429Y-49454819D02*
X42071429Y-49550057D01*
X42404762Y-49788152D02*
X42785714Y-49788152D01*
X42547619Y-49454819D02*
X42547619Y-50311961D01*
X42547619Y-50311961D02*
X42595238Y-50407200D01*
X42595238Y-50407200D02*
X42690476Y-50454819D01*
X42690476Y-50454819D02*
X42785714Y-50454819D01*
X43547619Y-50407200D02*
X43452381Y-50454819D01*
X43452381Y-50454819D02*
X43261905Y-50454819D01*
X43261905Y-50454819D02*
X43166667Y-50407200D01*
X43166667Y-50407200D02*
X43119048Y-50359580D01*
X43119048Y-50359580D02*
X43071429Y-50264342D01*
X43071429Y-50264342D02*
X43071429Y-49978628D01*
X43071429Y-49978628D02*
X43119048Y-49883390D01*
X43119048Y-49883390D02*
X43166667Y-49835771D01*
X43166667Y-49835771D02*
X43261905Y-49788152D01*
X43261905Y-49788152D02*
X43452381Y-49788152D01*
X43452381Y-49788152D02*
X43547619Y-49835771D01*
X43976191Y-50454819D02*
X43976191Y-49454819D01*
X44404762Y-50454819D02*
X44404762Y-49931009D01*
X44404762Y-49931009D02*
X44357143Y-49835771D01*
X44357143Y-49835771D02*
X44261905Y-49788152D01*
X44261905Y-49788152D02*
X44119048Y-49788152D01*
X44119048Y-49788152D02*
X44023810Y-49835771D01*
X44023810Y-49835771D02*
X43976191Y-49883390D01*
X39761905Y-41407200D02*
X39904762Y-41454819D01*
X39904762Y-41454819D02*
X40142857Y-41454819D01*
X40142857Y-41454819D02*
X40238095Y-41407200D01*
X40238095Y-41407200D02*
X40285714Y-41359580D01*
X40285714Y-41359580D02*
X40333333Y-41264342D01*
X40333333Y-41264342D02*
X40333333Y-41169104D01*
X40333333Y-41169104D02*
X40285714Y-41073866D01*
X40285714Y-41073866D02*
X40238095Y-41026247D01*
X40238095Y-41026247D02*
X40142857Y-40978628D01*
X40142857Y-40978628D02*
X39952381Y-40931009D01*
X39952381Y-40931009D02*
X39857143Y-40883390D01*
X39857143Y-40883390D02*
X39809524Y-40835771D01*
X39809524Y-40835771D02*
X39761905Y-40740533D01*
X39761905Y-40740533D02*
X39761905Y-40645295D01*
X39761905Y-40645295D02*
X39809524Y-40550057D01*
X39809524Y-40550057D02*
X39857143Y-40502438D01*
X39857143Y-40502438D02*
X39952381Y-40454819D01*
X39952381Y-40454819D02*
X40190476Y-40454819D01*
X40190476Y-40454819D02*
X40333333Y-40502438D01*
X40714286Y-40550057D02*
X40761905Y-40502438D01*
X40761905Y-40502438D02*
X40857143Y-40454819D01*
X40857143Y-40454819D02*
X41095238Y-40454819D01*
X41095238Y-40454819D02*
X41190476Y-40502438D01*
X41190476Y-40502438D02*
X41238095Y-40550057D01*
X41238095Y-40550057D02*
X41285714Y-40645295D01*
X41285714Y-40645295D02*
X41285714Y-40740533D01*
X41285714Y-40740533D02*
X41238095Y-40883390D01*
X41238095Y-40883390D02*
X40666667Y-41454819D01*
X40666667Y-41454819D02*
X41285714Y-41454819D01*
X41619048Y-40454819D02*
X42285714Y-40454819D01*
X42285714Y-40454819D02*
X41857143Y-41454819D01*
X56595238Y-9454819D02*
X56595238Y-8454819D01*
X57166666Y-9454819D02*
X56738095Y-8883390D01*
X57166666Y-8454819D02*
X56595238Y-9026247D01*
X57976190Y-9407200D02*
X57880952Y-9454819D01*
X57880952Y-9454819D02*
X57690476Y-9454819D01*
X57690476Y-9454819D02*
X57595238Y-9407200D01*
X57595238Y-9407200D02*
X57547619Y-9311961D01*
X57547619Y-9311961D02*
X57547619Y-8931009D01*
X57547619Y-8931009D02*
X57595238Y-8835771D01*
X57595238Y-8835771D02*
X57690476Y-8788152D01*
X57690476Y-8788152D02*
X57880952Y-8788152D01*
X57880952Y-8788152D02*
X57976190Y-8835771D01*
X57976190Y-8835771D02*
X58023809Y-8931009D01*
X58023809Y-8931009D02*
X58023809Y-9026247D01*
X58023809Y-9026247D02*
X57547619Y-9121485D01*
X58357143Y-8788152D02*
X58595238Y-9454819D01*
X58833333Y-8788152D02*
X58595238Y-9454819D01*
X58595238Y-9454819D02*
X58500000Y-9692914D01*
X58500000Y-9692914D02*
X58452381Y-9740533D01*
X58452381Y-9740533D02*
X58357143Y-9788152D01*
X59166667Y-9407200D02*
X59261905Y-9454819D01*
X59261905Y-9454819D02*
X59452381Y-9454819D01*
X59452381Y-9454819D02*
X59547619Y-9407200D01*
X59547619Y-9407200D02*
X59595238Y-9311961D01*
X59595238Y-9311961D02*
X59595238Y-9264342D01*
X59595238Y-9264342D02*
X59547619Y-9169104D01*
X59547619Y-9169104D02*
X59452381Y-9121485D01*
X59452381Y-9121485D02*
X59309524Y-9121485D01*
X59309524Y-9121485D02*
X59214286Y-9073866D01*
X59214286Y-9073866D02*
X59166667Y-8978628D01*
X59166667Y-8978628D02*
X59166667Y-8931009D01*
X59166667Y-8931009D02*
X59214286Y-8835771D01*
X59214286Y-8835771D02*
X59309524Y-8788152D01*
X59309524Y-8788152D02*
X59452381Y-8788152D01*
X59452381Y-8788152D02*
X59547619Y-8835771D01*
X59928572Y-8788152D02*
X60119048Y-9454819D01*
X60119048Y-9454819D02*
X60309524Y-8978628D01*
X60309524Y-8978628D02*
X60500000Y-9454819D01*
X60500000Y-9454819D02*
X60690476Y-8788152D01*
X61071429Y-9454819D02*
X61071429Y-8788152D01*
X61071429Y-8454819D02*
X61023810Y-8502438D01*
X61023810Y-8502438D02*
X61071429Y-8550057D01*
X61071429Y-8550057D02*
X61119048Y-8502438D01*
X61119048Y-8502438D02*
X61071429Y-8454819D01*
X61071429Y-8454819D02*
X61071429Y-8550057D01*
X61404762Y-8788152D02*
X61785714Y-8788152D01*
X61547619Y-8454819D02*
X61547619Y-9311961D01*
X61547619Y-9311961D02*
X61595238Y-9407200D01*
X61595238Y-9407200D02*
X61690476Y-9454819D01*
X61690476Y-9454819D02*
X61785714Y-9454819D01*
X62547619Y-9407200D02*
X62452381Y-9454819D01*
X62452381Y-9454819D02*
X62261905Y-9454819D01*
X62261905Y-9454819D02*
X62166667Y-9407200D01*
X62166667Y-9407200D02*
X62119048Y-9359580D01*
X62119048Y-9359580D02*
X62071429Y-9264342D01*
X62071429Y-9264342D02*
X62071429Y-8978628D01*
X62071429Y-8978628D02*
X62119048Y-8883390D01*
X62119048Y-8883390D02*
X62166667Y-8835771D01*
X62166667Y-8835771D02*
X62261905Y-8788152D01*
X62261905Y-8788152D02*
X62452381Y-8788152D01*
X62452381Y-8788152D02*
X62547619Y-8835771D01*
X62976191Y-9454819D02*
X62976191Y-8454819D01*
X63404762Y-9454819D02*
X63404762Y-8931009D01*
X63404762Y-8931009D02*
X63357143Y-8835771D01*
X63357143Y-8835771D02*
X63261905Y-8788152D01*
X63261905Y-8788152D02*
X63119048Y-8788152D01*
X63119048Y-8788152D02*
X63023810Y-8835771D01*
X63023810Y-8835771D02*
X62976191Y-8883390D01*
X58761905Y-407200D02*
X58904762Y-454819D01*
X58904762Y-454819D02*
X59142857Y-454819D01*
X59142857Y-454819D02*
X59238095Y-407200D01*
X59238095Y-407200D02*
X59285714Y-359580D01*
X59285714Y-359580D02*
X59333333Y-264342D01*
X59333333Y-264342D02*
X59333333Y-169104D01*
X59333333Y-169104D02*
X59285714Y-73866D01*
X59285714Y-73866D02*
X59238095Y-26247D01*
X59238095Y-26247D02*
X59142857Y21371D01*
X59142857Y21371D02*
X58952381Y68990D01*
X58952381Y68990D02*
X58857143Y116609D01*
X58857143Y116609D02*
X58809524Y164228D01*
X58809524Y164228D02*
X58761905Y259466D01*
X58761905Y259466D02*
X58761905Y354704D01*
X58761905Y354704D02*
X58809524Y449942D01*
X58809524Y449942D02*
X58857143Y497561D01*
X58857143Y497561D02*
X58952381Y545180D01*
X58952381Y545180D02*
X59190476Y545180D01*
X59190476Y545180D02*
X59333333Y497561D01*
X60285714Y-454819D02*
X59714286Y-454819D01*
X60000000Y-454819D02*
X60000000Y545180D01*
X60000000Y545180D02*
X59904762Y402323D01*
X59904762Y402323D02*
X59809524Y307085D01*
X59809524Y307085D02*
X59714286Y259466D01*
X60761905Y-454819D02*
X60952381Y-454819D01*
X60952381Y-454819D02*
X61047619Y-407200D01*
X61047619Y-407200D02*
X61095238Y-359580D01*
X61095238Y-359580D02*
X61190476Y-216723D01*
X61190476Y-216723D02*
X61238095Y-26247D01*
X61238095Y-26247D02*
X61238095Y354704D01*
X61238095Y354704D02*
X61190476Y449942D01*
X61190476Y449942D02*
X61142857Y497561D01*
X61142857Y497561D02*
X61047619Y545180D01*
X61047619Y545180D02*
X60857143Y545180D01*
X60857143Y545180D02*
X60761905Y497561D01*
X60761905Y497561D02*
X60714286Y449942D01*
X60714286Y449942D02*
X60666667Y354704D01*
X60666667Y354704D02*
X60666667Y116609D01*
X60666667Y116609D02*
X60714286Y21371D01*
X60714286Y21371D02*
X60761905Y-26247D01*
X60761905Y-26247D02*
X60857143Y-73866D01*
X60857143Y-73866D02*
X61047619Y-73866D01*
X61047619Y-73866D02*
X61142857Y-26247D01*
X61142857Y-26247D02*
X61190476Y21371D01*
X61190476Y21371D02*
X61238095Y116609D01*
X-25404761Y-18254819D02*
X-25404761Y-17254819D01*
X-24833333Y-18254819D02*
X-25261904Y-17683390D01*
X-24833333Y-17254819D02*
X-25404761Y-17826247D01*
X-24023809Y-18207200D02*
X-24119047Y-18254819D01*
X-24119047Y-18254819D02*
X-24309523Y-18254819D01*
X-24309523Y-18254819D02*
X-24404761Y-18207200D01*
X-24404761Y-18207200D02*
X-24452380Y-18111961D01*
X-24452380Y-18111961D02*
X-24452380Y-17731009D01*
X-24452380Y-17731009D02*
X-24404761Y-17635771D01*
X-24404761Y-17635771D02*
X-24309523Y-17588152D01*
X-24309523Y-17588152D02*
X-24119047Y-17588152D01*
X-24119047Y-17588152D02*
X-24023809Y-17635771D01*
X-24023809Y-17635771D02*
X-23976190Y-17731009D01*
X-23976190Y-17731009D02*
X-23976190Y-17826247D01*
X-23976190Y-17826247D02*
X-24452380Y-17921485D01*
X-23642856Y-17588152D02*
X-23404761Y-18254819D01*
X-23166666Y-17588152D02*
X-23404761Y-18254819D01*
X-23404761Y-18254819D02*
X-23499999Y-18492914D01*
X-23499999Y-18492914D02*
X-23547618Y-18540533D01*
X-23547618Y-18540533D02*
X-23642856Y-18588152D01*
X-22833332Y-18207200D02*
X-22738094Y-18254819D01*
X-22738094Y-18254819D02*
X-22547618Y-18254819D01*
X-22547618Y-18254819D02*
X-22452380Y-18207200D01*
X-22452380Y-18207200D02*
X-22404761Y-18111961D01*
X-22404761Y-18111961D02*
X-22404761Y-18064342D01*
X-22404761Y-18064342D02*
X-22452380Y-17969104D01*
X-22452380Y-17969104D02*
X-22547618Y-17921485D01*
X-22547618Y-17921485D02*
X-22690475Y-17921485D01*
X-22690475Y-17921485D02*
X-22785713Y-17873866D01*
X-22785713Y-17873866D02*
X-22833332Y-17778628D01*
X-22833332Y-17778628D02*
X-22833332Y-17731009D01*
X-22833332Y-17731009D02*
X-22785713Y-17635771D01*
X-22785713Y-17635771D02*
X-22690475Y-17588152D01*
X-22690475Y-17588152D02*
X-22547618Y-17588152D01*
X-22547618Y-17588152D02*
X-22452380Y-17635771D01*
X-22071427Y-17588152D02*
X-21880951Y-18254819D01*
X-21880951Y-18254819D02*
X-21690475Y-17778628D01*
X-21690475Y-17778628D02*
X-21499999Y-18254819D01*
X-21499999Y-18254819D02*
X-21309523Y-17588152D01*
X-20928570Y-18254819D02*
X-20928570Y-17588152D01*
X-20928570Y-17254819D02*
X-20976189Y-17302438D01*
X-20976189Y-17302438D02*
X-20928570Y-17350057D01*
X-20928570Y-17350057D02*
X-20880951Y-17302438D01*
X-20880951Y-17302438D02*
X-20928570Y-17254819D01*
X-20928570Y-17254819D02*
X-20928570Y-17350057D01*
X-20595237Y-17588152D02*
X-20214285Y-17588152D01*
X-20452380Y-17254819D02*
X-20452380Y-18111961D01*
X-20452380Y-18111961D02*
X-20404761Y-18207200D01*
X-20404761Y-18207200D02*
X-20309523Y-18254819D01*
X-20309523Y-18254819D02*
X-20214285Y-18254819D01*
X-19452380Y-18207200D02*
X-19547618Y-18254819D01*
X-19547618Y-18254819D02*
X-19738094Y-18254819D01*
X-19738094Y-18254819D02*
X-19833332Y-18207200D01*
X-19833332Y-18207200D02*
X-19880951Y-18159580D01*
X-19880951Y-18159580D02*
X-19928570Y-18064342D01*
X-19928570Y-18064342D02*
X-19928570Y-17778628D01*
X-19928570Y-17778628D02*
X-19880951Y-17683390D01*
X-19880951Y-17683390D02*
X-19833332Y-17635771D01*
X-19833332Y-17635771D02*
X-19738094Y-17588152D01*
X-19738094Y-17588152D02*
X-19547618Y-17588152D01*
X-19547618Y-17588152D02*
X-19452380Y-17635771D01*
X-19023808Y-18254819D02*
X-19023808Y-17254819D01*
X-18595237Y-18254819D02*
X-18595237Y-17731009D01*
X-18595237Y-17731009D02*
X-18642856Y-17635771D01*
X-18642856Y-17635771D02*
X-18738094Y-17588152D01*
X-18738094Y-17588152D02*
X-18880951Y-17588152D01*
X-18880951Y-17588152D02*
X-18976189Y-17635771D01*
X-18976189Y-17635771D02*
X-19023808Y-17683390D01*
X-23238094Y-9207200D02*
X-23095237Y-9254819D01*
X-23095237Y-9254819D02*
X-22857142Y-9254819D01*
X-22857142Y-9254819D02*
X-22761904Y-9207200D01*
X-22761904Y-9207200D02*
X-22714285Y-9159580D01*
X-22714285Y-9159580D02*
X-22666666Y-9064342D01*
X-22666666Y-9064342D02*
X-22666666Y-8969104D01*
X-22666666Y-8969104D02*
X-22714285Y-8873866D01*
X-22714285Y-8873866D02*
X-22761904Y-8826247D01*
X-22761904Y-8826247D02*
X-22857142Y-8778628D01*
X-22857142Y-8778628D02*
X-23047618Y-8731009D01*
X-23047618Y-8731009D02*
X-23142856Y-8683390D01*
X-23142856Y-8683390D02*
X-23190475Y-8635771D01*
X-23190475Y-8635771D02*
X-23238094Y-8540533D01*
X-23238094Y-8540533D02*
X-23238094Y-8445295D01*
X-23238094Y-8445295D02*
X-23190475Y-8350057D01*
X-23190475Y-8350057D02*
X-23142856Y-8302438D01*
X-23142856Y-8302438D02*
X-23047618Y-8254819D01*
X-23047618Y-8254819D02*
X-22809523Y-8254819D01*
X-22809523Y-8254819D02*
X-22666666Y-8302438D01*
X-21714285Y-9254819D02*
X-22285713Y-9254819D01*
X-21999999Y-9254819D02*
X-21999999Y-8254819D01*
X-21999999Y-8254819D02*
X-22095237Y-8397676D01*
X-22095237Y-8397676D02*
X-22190475Y-8492914D01*
X-22190475Y-8492914D02*
X-22285713Y-8540533D01*
X-20857142Y-8254819D02*
X-21047618Y-8254819D01*
X-21047618Y-8254819D02*
X-21142856Y-8302438D01*
X-21142856Y-8302438D02*
X-21190475Y-8350057D01*
X-21190475Y-8350057D02*
X-21285713Y-8492914D01*
X-21285713Y-8492914D02*
X-21333332Y-8683390D01*
X-21333332Y-8683390D02*
X-21333332Y-9064342D01*
X-21333332Y-9064342D02*
X-21285713Y-9159580D01*
X-21285713Y-9159580D02*
X-21238094Y-9207200D01*
X-21238094Y-9207200D02*
X-21142856Y-9254819D01*
X-21142856Y-9254819D02*
X-20952380Y-9254819D01*
X-20952380Y-9254819D02*
X-20857142Y-9207200D01*
X-20857142Y-9207200D02*
X-20809523Y-9159580D01*
X-20809523Y-9159580D02*
X-20761904Y-9064342D01*
X-20761904Y-9064342D02*
X-20761904Y-8826247D01*
X-20761904Y-8826247D02*
X-20809523Y-8731009D01*
X-20809523Y-8731009D02*
X-20857142Y-8683390D01*
X-20857142Y-8683390D02*
X-20952380Y-8635771D01*
X-20952380Y-8635771D02*
X-21142856Y-8635771D01*
X-21142856Y-8635771D02*
X-21238094Y-8683390D01*
X-21238094Y-8683390D02*
X-21285713Y-8731009D01*
X-21285713Y-8731009D02*
X-21333332Y-8826247D01*
X-25404761Y-254819D02*
X-25404761Y745180D01*
X-24833333Y-254819D02*
X-25261904Y316609D01*
X-24833333Y745180D02*
X-25404761Y173752D01*
X-24023809Y-207200D02*
X-24119047Y-254819D01*
X-24119047Y-254819D02*
X-24309523Y-254819D01*
X-24309523Y-254819D02*
X-24404761Y-207200D01*
X-24404761Y-207200D02*
X-24452380Y-111961D01*
X-24452380Y-111961D02*
X-24452380Y268990D01*
X-24452380Y268990D02*
X-24404761Y364228D01*
X-24404761Y364228D02*
X-24309523Y411847D01*
X-24309523Y411847D02*
X-24119047Y411847D01*
X-24119047Y411847D02*
X-24023809Y364228D01*
X-24023809Y364228D02*
X-23976190Y268990D01*
X-23976190Y268990D02*
X-23976190Y173752D01*
X-23976190Y173752D02*
X-24452380Y78514D01*
X-23642856Y411847D02*
X-23404761Y-254819D01*
X-23166666Y411847D02*
X-23404761Y-254819D01*
X-23404761Y-254819D02*
X-23499999Y-492914D01*
X-23499999Y-492914D02*
X-23547618Y-540533D01*
X-23547618Y-540533D02*
X-23642856Y-588152D01*
X-22833332Y-207200D02*
X-22738094Y-254819D01*
X-22738094Y-254819D02*
X-22547618Y-254819D01*
X-22547618Y-254819D02*
X-22452380Y-207200D01*
X-22452380Y-207200D02*
X-22404761Y-111961D01*
X-22404761Y-111961D02*
X-22404761Y-64342D01*
X-22404761Y-64342D02*
X-22452380Y30895D01*
X-22452380Y30895D02*
X-22547618Y78514D01*
X-22547618Y78514D02*
X-22690475Y78514D01*
X-22690475Y78514D02*
X-22785713Y126133D01*
X-22785713Y126133D02*
X-22833332Y221371D01*
X-22833332Y221371D02*
X-22833332Y268990D01*
X-22833332Y268990D02*
X-22785713Y364228D01*
X-22785713Y364228D02*
X-22690475Y411847D01*
X-22690475Y411847D02*
X-22547618Y411847D01*
X-22547618Y411847D02*
X-22452380Y364228D01*
X-22071427Y411847D02*
X-21880951Y-254819D01*
X-21880951Y-254819D02*
X-21690475Y221371D01*
X-21690475Y221371D02*
X-21499999Y-254819D01*
X-21499999Y-254819D02*
X-21309523Y411847D01*
X-20928570Y-254819D02*
X-20928570Y411847D01*
X-20928570Y745180D02*
X-20976189Y697561D01*
X-20976189Y697561D02*
X-20928570Y649942D01*
X-20928570Y649942D02*
X-20880951Y697561D01*
X-20880951Y697561D02*
X-20928570Y745180D01*
X-20928570Y745180D02*
X-20928570Y649942D01*
X-20595237Y411847D02*
X-20214285Y411847D01*
X-20452380Y745180D02*
X-20452380Y-111961D01*
X-20452380Y-111961D02*
X-20404761Y-207200D01*
X-20404761Y-207200D02*
X-20309523Y-254819D01*
X-20309523Y-254819D02*
X-20214285Y-254819D01*
X-19452380Y-207200D02*
X-19547618Y-254819D01*
X-19547618Y-254819D02*
X-19738094Y-254819D01*
X-19738094Y-254819D02*
X-19833332Y-207200D01*
X-19833332Y-207200D02*
X-19880951Y-159580D01*
X-19880951Y-159580D02*
X-19928570Y-64342D01*
X-19928570Y-64342D02*
X-19928570Y221371D01*
X-19928570Y221371D02*
X-19880951Y316609D01*
X-19880951Y316609D02*
X-19833332Y364228D01*
X-19833332Y364228D02*
X-19738094Y411847D01*
X-19738094Y411847D02*
X-19547618Y411847D01*
X-19547618Y411847D02*
X-19452380Y364228D01*
X-19023808Y-254819D02*
X-19023808Y745180D01*
X-18595237Y-254819D02*
X-18595237Y268990D01*
X-18595237Y268990D02*
X-18642856Y364228D01*
X-18642856Y364228D02*
X-18738094Y411847D01*
X-18738094Y411847D02*
X-18880951Y411847D01*
X-18880951Y411847D02*
X-18976189Y364228D01*
X-18976189Y364228D02*
X-19023808Y316609D01*
X-22761904Y8792800D02*
X-22619047Y8745180D01*
X-22619047Y8745180D02*
X-22380952Y8745180D01*
X-22380952Y8745180D02*
X-22285714Y8792800D01*
X-22285714Y8792800D02*
X-22238095Y8840419D01*
X-22238095Y8840419D02*
X-22190476Y8935657D01*
X-22190476Y8935657D02*
X-22190476Y9030895D01*
X-22190476Y9030895D02*
X-22238095Y9126133D01*
X-22238095Y9126133D02*
X-22285714Y9173752D01*
X-22285714Y9173752D02*
X-22380952Y9221371D01*
X-22380952Y9221371D02*
X-22571428Y9268990D01*
X-22571428Y9268990D02*
X-22666666Y9316609D01*
X-22666666Y9316609D02*
X-22714285Y9364228D01*
X-22714285Y9364228D02*
X-22761904Y9459466D01*
X-22761904Y9459466D02*
X-22761904Y9554704D01*
X-22761904Y9554704D02*
X-22714285Y9649942D01*
X-22714285Y9649942D02*
X-22666666Y9697561D01*
X-22666666Y9697561D02*
X-22571428Y9745180D01*
X-22571428Y9745180D02*
X-22333333Y9745180D01*
X-22333333Y9745180D02*
X-22190476Y9697561D01*
X-21285714Y9745180D02*
X-21761904Y9745180D01*
X-21761904Y9745180D02*
X-21809523Y9268990D01*
X-21809523Y9268990D02*
X-21761904Y9316609D01*
X-21761904Y9316609D02*
X-21666666Y9364228D01*
X-21666666Y9364228D02*
X-21428571Y9364228D01*
X-21428571Y9364228D02*
X-21333333Y9316609D01*
X-21333333Y9316609D02*
X-21285714Y9268990D01*
X-21285714Y9268990D02*
X-21238095Y9173752D01*
X-21238095Y9173752D02*
X-21238095Y8935657D01*
X-21238095Y8935657D02*
X-21285714Y8840419D01*
X-21285714Y8840419D02*
X-21333333Y8792800D01*
X-21333333Y8792800D02*
X-21428571Y8745180D01*
X-21428571Y8745180D02*
X-21666666Y8745180D01*
X-21666666Y8745180D02*
X-21761904Y8792800D01*
X-21761904Y8792800D02*
X-21809523Y8840419D01*
X56595238Y8545180D02*
X56595238Y9545180D01*
X57166666Y8545180D02*
X56738095Y9116609D01*
X57166666Y9545180D02*
X56595238Y8973752D01*
X57976190Y8592800D02*
X57880952Y8545180D01*
X57880952Y8545180D02*
X57690476Y8545180D01*
X57690476Y8545180D02*
X57595238Y8592800D01*
X57595238Y8592800D02*
X57547619Y8688038D01*
X57547619Y8688038D02*
X57547619Y9068990D01*
X57547619Y9068990D02*
X57595238Y9164228D01*
X57595238Y9164228D02*
X57690476Y9211847D01*
X57690476Y9211847D02*
X57880952Y9211847D01*
X57880952Y9211847D02*
X57976190Y9164228D01*
X57976190Y9164228D02*
X58023809Y9068990D01*
X58023809Y9068990D02*
X58023809Y8973752D01*
X58023809Y8973752D02*
X57547619Y8878514D01*
X58357143Y9211847D02*
X58595238Y8545180D01*
X58833333Y9211847D02*
X58595238Y8545180D01*
X58595238Y8545180D02*
X58500000Y8307085D01*
X58500000Y8307085D02*
X58452381Y8259466D01*
X58452381Y8259466D02*
X58357143Y8211847D01*
X59166667Y8592800D02*
X59261905Y8545180D01*
X59261905Y8545180D02*
X59452381Y8545180D01*
X59452381Y8545180D02*
X59547619Y8592800D01*
X59547619Y8592800D02*
X59595238Y8688038D01*
X59595238Y8688038D02*
X59595238Y8735657D01*
X59595238Y8735657D02*
X59547619Y8830895D01*
X59547619Y8830895D02*
X59452381Y8878514D01*
X59452381Y8878514D02*
X59309524Y8878514D01*
X59309524Y8878514D02*
X59214286Y8926133D01*
X59214286Y8926133D02*
X59166667Y9021371D01*
X59166667Y9021371D02*
X59166667Y9068990D01*
X59166667Y9068990D02*
X59214286Y9164228D01*
X59214286Y9164228D02*
X59309524Y9211847D01*
X59309524Y9211847D02*
X59452381Y9211847D01*
X59452381Y9211847D02*
X59547619Y9164228D01*
X59928572Y9211847D02*
X60119048Y8545180D01*
X60119048Y8545180D02*
X60309524Y9021371D01*
X60309524Y9021371D02*
X60500000Y8545180D01*
X60500000Y8545180D02*
X60690476Y9211847D01*
X61071429Y8545180D02*
X61071429Y9211847D01*
X61071429Y9545180D02*
X61023810Y9497561D01*
X61023810Y9497561D02*
X61071429Y9449942D01*
X61071429Y9449942D02*
X61119048Y9497561D01*
X61119048Y9497561D02*
X61071429Y9545180D01*
X61071429Y9545180D02*
X61071429Y9449942D01*
X61404762Y9211847D02*
X61785714Y9211847D01*
X61547619Y9545180D02*
X61547619Y8688038D01*
X61547619Y8688038D02*
X61595238Y8592800D01*
X61595238Y8592800D02*
X61690476Y8545180D01*
X61690476Y8545180D02*
X61785714Y8545180D01*
X62547619Y8592800D02*
X62452381Y8545180D01*
X62452381Y8545180D02*
X62261905Y8545180D01*
X62261905Y8545180D02*
X62166667Y8592800D01*
X62166667Y8592800D02*
X62119048Y8640419D01*
X62119048Y8640419D02*
X62071429Y8735657D01*
X62071429Y8735657D02*
X62071429Y9021371D01*
X62071429Y9021371D02*
X62119048Y9116609D01*
X62119048Y9116609D02*
X62166667Y9164228D01*
X62166667Y9164228D02*
X62261905Y9211847D01*
X62261905Y9211847D02*
X62452381Y9211847D01*
X62452381Y9211847D02*
X62547619Y9164228D01*
X62976191Y8545180D02*
X62976191Y9545180D01*
X63404762Y8545180D02*
X63404762Y9068990D01*
X63404762Y9068990D02*
X63357143Y9164228D01*
X63357143Y9164228D02*
X63261905Y9211847D01*
X63261905Y9211847D02*
X63119048Y9211847D01*
X63119048Y9211847D02*
X63023810Y9164228D01*
X63023810Y9164228D02*
X62976191Y9116609D01*
X59238095Y17592800D02*
X59380952Y17545180D01*
X59380952Y17545180D02*
X59619047Y17545180D01*
X59619047Y17545180D02*
X59714285Y17592800D01*
X59714285Y17592800D02*
X59761904Y17640419D01*
X59761904Y17640419D02*
X59809523Y17735657D01*
X59809523Y17735657D02*
X59809523Y17830895D01*
X59809523Y17830895D02*
X59761904Y17926133D01*
X59761904Y17926133D02*
X59714285Y17973752D01*
X59714285Y17973752D02*
X59619047Y18021371D01*
X59619047Y18021371D02*
X59428571Y18068990D01*
X59428571Y18068990D02*
X59333333Y18116609D01*
X59333333Y18116609D02*
X59285714Y18164228D01*
X59285714Y18164228D02*
X59238095Y18259466D01*
X59238095Y18259466D02*
X59238095Y18354704D01*
X59238095Y18354704D02*
X59285714Y18449942D01*
X59285714Y18449942D02*
X59333333Y18497561D01*
X59333333Y18497561D02*
X59428571Y18545180D01*
X59428571Y18545180D02*
X59666666Y18545180D01*
X59666666Y18545180D02*
X59809523Y18497561D01*
X60380952Y18116609D02*
X60285714Y18164228D01*
X60285714Y18164228D02*
X60238095Y18211847D01*
X60238095Y18211847D02*
X60190476Y18307085D01*
X60190476Y18307085D02*
X60190476Y18354704D01*
X60190476Y18354704D02*
X60238095Y18449942D01*
X60238095Y18449942D02*
X60285714Y18497561D01*
X60285714Y18497561D02*
X60380952Y18545180D01*
X60380952Y18545180D02*
X60571428Y18545180D01*
X60571428Y18545180D02*
X60666666Y18497561D01*
X60666666Y18497561D02*
X60714285Y18449942D01*
X60714285Y18449942D02*
X60761904Y18354704D01*
X60761904Y18354704D02*
X60761904Y18307085D01*
X60761904Y18307085D02*
X60714285Y18211847D01*
X60714285Y18211847D02*
X60666666Y18164228D01*
X60666666Y18164228D02*
X60571428Y18116609D01*
X60571428Y18116609D02*
X60380952Y18116609D01*
X60380952Y18116609D02*
X60285714Y18068990D01*
X60285714Y18068990D02*
X60238095Y18021371D01*
X60238095Y18021371D02*
X60190476Y17926133D01*
X60190476Y17926133D02*
X60190476Y17735657D01*
X60190476Y17735657D02*
X60238095Y17640419D01*
X60238095Y17640419D02*
X60285714Y17592800D01*
X60285714Y17592800D02*
X60380952Y17545180D01*
X60380952Y17545180D02*
X60571428Y17545180D01*
X60571428Y17545180D02*
X60666666Y17592800D01*
X60666666Y17592800D02*
X60714285Y17640419D01*
X60714285Y17640419D02*
X60761904Y17735657D01*
X60761904Y17735657D02*
X60761904Y17926133D01*
X60761904Y17926133D02*
X60714285Y18021371D01*
X60714285Y18021371D02*
X60666666Y18068990D01*
X60666666Y18068990D02*
X60571428Y18116609D01*
X-63404761Y-54154819D02*
X-63404761Y-53154819D01*
X-62833333Y-54154819D02*
X-63261904Y-53583390D01*
X-62833333Y-53154819D02*
X-63404761Y-53726247D01*
X-62023809Y-54107200D02*
X-62119047Y-54154819D01*
X-62119047Y-54154819D02*
X-62309523Y-54154819D01*
X-62309523Y-54154819D02*
X-62404761Y-54107200D01*
X-62404761Y-54107200D02*
X-62452380Y-54011961D01*
X-62452380Y-54011961D02*
X-62452380Y-53631009D01*
X-62452380Y-53631009D02*
X-62404761Y-53535771D01*
X-62404761Y-53535771D02*
X-62309523Y-53488152D01*
X-62309523Y-53488152D02*
X-62119047Y-53488152D01*
X-62119047Y-53488152D02*
X-62023809Y-53535771D01*
X-62023809Y-53535771D02*
X-61976190Y-53631009D01*
X-61976190Y-53631009D02*
X-61976190Y-53726247D01*
X-61976190Y-53726247D02*
X-62452380Y-53821485D01*
X-61642856Y-53488152D02*
X-61404761Y-54154819D01*
X-61166666Y-53488152D02*
X-61404761Y-54154819D01*
X-61404761Y-54154819D02*
X-61499999Y-54392914D01*
X-61499999Y-54392914D02*
X-61547618Y-54440533D01*
X-61547618Y-54440533D02*
X-61642856Y-54488152D01*
X-60833332Y-54107200D02*
X-60738094Y-54154819D01*
X-60738094Y-54154819D02*
X-60547618Y-54154819D01*
X-60547618Y-54154819D02*
X-60452380Y-54107200D01*
X-60452380Y-54107200D02*
X-60404761Y-54011961D01*
X-60404761Y-54011961D02*
X-60404761Y-53964342D01*
X-60404761Y-53964342D02*
X-60452380Y-53869104D01*
X-60452380Y-53869104D02*
X-60547618Y-53821485D01*
X-60547618Y-53821485D02*
X-60690475Y-53821485D01*
X-60690475Y-53821485D02*
X-60785713Y-53773866D01*
X-60785713Y-53773866D02*
X-60833332Y-53678628D01*
X-60833332Y-53678628D02*
X-60833332Y-53631009D01*
X-60833332Y-53631009D02*
X-60785713Y-53535771D01*
X-60785713Y-53535771D02*
X-60690475Y-53488152D01*
X-60690475Y-53488152D02*
X-60547618Y-53488152D01*
X-60547618Y-53488152D02*
X-60452380Y-53535771D01*
X-60071427Y-53488152D02*
X-59880951Y-54154819D01*
X-59880951Y-54154819D02*
X-59690475Y-53678628D01*
X-59690475Y-53678628D02*
X-59499999Y-54154819D01*
X-59499999Y-54154819D02*
X-59309523Y-53488152D01*
X-58928570Y-54154819D02*
X-58928570Y-53488152D01*
X-58928570Y-53154819D02*
X-58976189Y-53202438D01*
X-58976189Y-53202438D02*
X-58928570Y-53250057D01*
X-58928570Y-53250057D02*
X-58880951Y-53202438D01*
X-58880951Y-53202438D02*
X-58928570Y-53154819D01*
X-58928570Y-53154819D02*
X-58928570Y-53250057D01*
X-58595237Y-53488152D02*
X-58214285Y-53488152D01*
X-58452380Y-53154819D02*
X-58452380Y-54011961D01*
X-58452380Y-54011961D02*
X-58404761Y-54107200D01*
X-58404761Y-54107200D02*
X-58309523Y-54154819D01*
X-58309523Y-54154819D02*
X-58214285Y-54154819D01*
X-57452380Y-54107200D02*
X-57547618Y-54154819D01*
X-57547618Y-54154819D02*
X-57738094Y-54154819D01*
X-57738094Y-54154819D02*
X-57833332Y-54107200D01*
X-57833332Y-54107200D02*
X-57880951Y-54059580D01*
X-57880951Y-54059580D02*
X-57928570Y-53964342D01*
X-57928570Y-53964342D02*
X-57928570Y-53678628D01*
X-57928570Y-53678628D02*
X-57880951Y-53583390D01*
X-57880951Y-53583390D02*
X-57833332Y-53535771D01*
X-57833332Y-53535771D02*
X-57738094Y-53488152D01*
X-57738094Y-53488152D02*
X-57547618Y-53488152D01*
X-57547618Y-53488152D02*
X-57452380Y-53535771D01*
X-57023808Y-54154819D02*
X-57023808Y-53154819D01*
X-56595237Y-54154819D02*
X-56595237Y-53631009D01*
X-56595237Y-53631009D02*
X-56642856Y-53535771D01*
X-56642856Y-53535771D02*
X-56738094Y-53488152D01*
X-56738094Y-53488152D02*
X-56880951Y-53488152D01*
X-56880951Y-53488152D02*
X-56976189Y-53535771D01*
X-56976189Y-53535771D02*
X-57023808Y-53583390D01*
X-61238094Y-45107200D02*
X-61095237Y-45154819D01*
X-61095237Y-45154819D02*
X-60857142Y-45154819D01*
X-60857142Y-45154819D02*
X-60761904Y-45107200D01*
X-60761904Y-45107200D02*
X-60714285Y-45059580D01*
X-60714285Y-45059580D02*
X-60666666Y-44964342D01*
X-60666666Y-44964342D02*
X-60666666Y-44869104D01*
X-60666666Y-44869104D02*
X-60714285Y-44773866D01*
X-60714285Y-44773866D02*
X-60761904Y-44726247D01*
X-60761904Y-44726247D02*
X-60857142Y-44678628D01*
X-60857142Y-44678628D02*
X-61047618Y-44631009D01*
X-61047618Y-44631009D02*
X-61142856Y-44583390D01*
X-61142856Y-44583390D02*
X-61190475Y-44535771D01*
X-61190475Y-44535771D02*
X-61238094Y-44440533D01*
X-61238094Y-44440533D02*
X-61238094Y-44345295D01*
X-61238094Y-44345295D02*
X-61190475Y-44250057D01*
X-61190475Y-44250057D02*
X-61142856Y-44202438D01*
X-61142856Y-44202438D02*
X-61047618Y-44154819D01*
X-61047618Y-44154819D02*
X-60809523Y-44154819D01*
X-60809523Y-44154819D02*
X-60666666Y-44202438D01*
X-60285713Y-44250057D02*
X-60238094Y-44202438D01*
X-60238094Y-44202438D02*
X-60142856Y-44154819D01*
X-60142856Y-44154819D02*
X-59904761Y-44154819D01*
X-59904761Y-44154819D02*
X-59809523Y-44202438D01*
X-59809523Y-44202438D02*
X-59761904Y-44250057D01*
X-59761904Y-44250057D02*
X-59714285Y-44345295D01*
X-59714285Y-44345295D02*
X-59714285Y-44440533D01*
X-59714285Y-44440533D02*
X-59761904Y-44583390D01*
X-59761904Y-44583390D02*
X-60333332Y-45154819D01*
X-60333332Y-45154819D02*
X-59714285Y-45154819D01*
X-59380951Y-44154819D02*
X-58761904Y-44154819D01*
X-58761904Y-44154819D02*
X-59095237Y-44535771D01*
X-59095237Y-44535771D02*
X-58952380Y-44535771D01*
X-58952380Y-44535771D02*
X-58857142Y-44583390D01*
X-58857142Y-44583390D02*
X-58809523Y-44631009D01*
X-58809523Y-44631009D02*
X-58761904Y-44726247D01*
X-58761904Y-44726247D02*
X-58761904Y-44964342D01*
X-58761904Y-44964342D02*
X-58809523Y-45059580D01*
X-58809523Y-45059580D02*
X-58857142Y-45107200D01*
X-58857142Y-45107200D02*
X-58952380Y-45154819D01*
X-58952380Y-45154819D02*
X-59238094Y-45154819D01*
X-59238094Y-45154819D02*
X-59333332Y-45107200D01*
X-59333332Y-45107200D02*
X-59380951Y-45059580D01*
X-63404761Y8545180D02*
X-63404761Y9545180D01*
X-62833333Y8545180D02*
X-63261904Y9116609D01*
X-62833333Y9545180D02*
X-63404761Y8973752D01*
X-62023809Y8592800D02*
X-62119047Y8545180D01*
X-62119047Y8545180D02*
X-62309523Y8545180D01*
X-62309523Y8545180D02*
X-62404761Y8592800D01*
X-62404761Y8592800D02*
X-62452380Y8688038D01*
X-62452380Y8688038D02*
X-62452380Y9068990D01*
X-62452380Y9068990D02*
X-62404761Y9164228D01*
X-62404761Y9164228D02*
X-62309523Y9211847D01*
X-62309523Y9211847D02*
X-62119047Y9211847D01*
X-62119047Y9211847D02*
X-62023809Y9164228D01*
X-62023809Y9164228D02*
X-61976190Y9068990D01*
X-61976190Y9068990D02*
X-61976190Y8973752D01*
X-61976190Y8973752D02*
X-62452380Y8878514D01*
X-61642856Y9211847D02*
X-61404761Y8545180D01*
X-61166666Y9211847D02*
X-61404761Y8545180D01*
X-61404761Y8545180D02*
X-61499999Y8307085D01*
X-61499999Y8307085D02*
X-61547618Y8259466D01*
X-61547618Y8259466D02*
X-61642856Y8211847D01*
X-60833332Y8592800D02*
X-60738094Y8545180D01*
X-60738094Y8545180D02*
X-60547618Y8545180D01*
X-60547618Y8545180D02*
X-60452380Y8592800D01*
X-60452380Y8592800D02*
X-60404761Y8688038D01*
X-60404761Y8688038D02*
X-60404761Y8735657D01*
X-60404761Y8735657D02*
X-60452380Y8830895D01*
X-60452380Y8830895D02*
X-60547618Y8878514D01*
X-60547618Y8878514D02*
X-60690475Y8878514D01*
X-60690475Y8878514D02*
X-60785713Y8926133D01*
X-60785713Y8926133D02*
X-60833332Y9021371D01*
X-60833332Y9021371D02*
X-60833332Y9068990D01*
X-60833332Y9068990D02*
X-60785713Y9164228D01*
X-60785713Y9164228D02*
X-60690475Y9211847D01*
X-60690475Y9211847D02*
X-60547618Y9211847D01*
X-60547618Y9211847D02*
X-60452380Y9164228D01*
X-60071427Y9211847D02*
X-59880951Y8545180D01*
X-59880951Y8545180D02*
X-59690475Y9021371D01*
X-59690475Y9021371D02*
X-59499999Y8545180D01*
X-59499999Y8545180D02*
X-59309523Y9211847D01*
X-58928570Y8545180D02*
X-58928570Y9211847D01*
X-58928570Y9545180D02*
X-58976189Y9497561D01*
X-58976189Y9497561D02*
X-58928570Y9449942D01*
X-58928570Y9449942D02*
X-58880951Y9497561D01*
X-58880951Y9497561D02*
X-58928570Y9545180D01*
X-58928570Y9545180D02*
X-58928570Y9449942D01*
X-58595237Y9211847D02*
X-58214285Y9211847D01*
X-58452380Y9545180D02*
X-58452380Y8688038D01*
X-58452380Y8688038D02*
X-58404761Y8592800D01*
X-58404761Y8592800D02*
X-58309523Y8545180D01*
X-58309523Y8545180D02*
X-58214285Y8545180D01*
X-57452380Y8592800D02*
X-57547618Y8545180D01*
X-57547618Y8545180D02*
X-57738094Y8545180D01*
X-57738094Y8545180D02*
X-57833332Y8592800D01*
X-57833332Y8592800D02*
X-57880951Y8640419D01*
X-57880951Y8640419D02*
X-57928570Y8735657D01*
X-57928570Y8735657D02*
X-57928570Y9021371D01*
X-57928570Y9021371D02*
X-57880951Y9116609D01*
X-57880951Y9116609D02*
X-57833332Y9164228D01*
X-57833332Y9164228D02*
X-57738094Y9211847D01*
X-57738094Y9211847D02*
X-57547618Y9211847D01*
X-57547618Y9211847D02*
X-57452380Y9164228D01*
X-57023808Y8545180D02*
X-57023808Y9545180D01*
X-56595237Y8545180D02*
X-56595237Y9068990D01*
X-56595237Y9068990D02*
X-56642856Y9164228D01*
X-56642856Y9164228D02*
X-56738094Y9211847D01*
X-56738094Y9211847D02*
X-56880951Y9211847D01*
X-56880951Y9211847D02*
X-56976189Y9164228D01*
X-56976189Y9164228D02*
X-57023808Y9116609D01*
X-60761904Y17592800D02*
X-60619047Y17545180D01*
X-60619047Y17545180D02*
X-60380952Y17545180D01*
X-60380952Y17545180D02*
X-60285714Y17592800D01*
X-60285714Y17592800D02*
X-60238095Y17640419D01*
X-60238095Y17640419D02*
X-60190476Y17735657D01*
X-60190476Y17735657D02*
X-60190476Y17830895D01*
X-60190476Y17830895D02*
X-60238095Y17926133D01*
X-60238095Y17926133D02*
X-60285714Y17973752D01*
X-60285714Y17973752D02*
X-60380952Y18021371D01*
X-60380952Y18021371D02*
X-60571428Y18068990D01*
X-60571428Y18068990D02*
X-60666666Y18116609D01*
X-60666666Y18116609D02*
X-60714285Y18164228D01*
X-60714285Y18164228D02*
X-60761904Y18259466D01*
X-60761904Y18259466D02*
X-60761904Y18354704D01*
X-60761904Y18354704D02*
X-60714285Y18449942D01*
X-60714285Y18449942D02*
X-60666666Y18497561D01*
X-60666666Y18497561D02*
X-60571428Y18545180D01*
X-60571428Y18545180D02*
X-60333333Y18545180D01*
X-60333333Y18545180D02*
X-60190476Y18497561D01*
X-59857142Y18545180D02*
X-59238095Y18545180D01*
X-59238095Y18545180D02*
X-59571428Y18164228D01*
X-59571428Y18164228D02*
X-59428571Y18164228D01*
X-59428571Y18164228D02*
X-59333333Y18116609D01*
X-59333333Y18116609D02*
X-59285714Y18068990D01*
X-59285714Y18068990D02*
X-59238095Y17973752D01*
X-59238095Y17973752D02*
X-59238095Y17735657D01*
X-59238095Y17735657D02*
X-59285714Y17640419D01*
X-59285714Y17640419D02*
X-59333333Y17592800D01*
X-59333333Y17592800D02*
X-59428571Y17545180D01*
X-59428571Y17545180D02*
X-59714285Y17545180D01*
X-59714285Y17545180D02*
X-59809523Y17592800D01*
X-59809523Y17592800D02*
X-59857142Y17640419D01*
X-44404761Y-254819D02*
X-44404761Y745180D01*
X-43833333Y-254819D02*
X-44261904Y316609D01*
X-43833333Y745180D02*
X-44404761Y173752D01*
X-43023809Y-207200D02*
X-43119047Y-254819D01*
X-43119047Y-254819D02*
X-43309523Y-254819D01*
X-43309523Y-254819D02*
X-43404761Y-207200D01*
X-43404761Y-207200D02*
X-43452380Y-111961D01*
X-43452380Y-111961D02*
X-43452380Y268990D01*
X-43452380Y268990D02*
X-43404761Y364228D01*
X-43404761Y364228D02*
X-43309523Y411847D01*
X-43309523Y411847D02*
X-43119047Y411847D01*
X-43119047Y411847D02*
X-43023809Y364228D01*
X-43023809Y364228D02*
X-42976190Y268990D01*
X-42976190Y268990D02*
X-42976190Y173752D01*
X-42976190Y173752D02*
X-43452380Y78514D01*
X-42642856Y411847D02*
X-42404761Y-254819D01*
X-42166666Y411847D02*
X-42404761Y-254819D01*
X-42404761Y-254819D02*
X-42499999Y-492914D01*
X-42499999Y-492914D02*
X-42547618Y-540533D01*
X-42547618Y-540533D02*
X-42642856Y-588152D01*
X-41833332Y-207200D02*
X-41738094Y-254819D01*
X-41738094Y-254819D02*
X-41547618Y-254819D01*
X-41547618Y-254819D02*
X-41452380Y-207200D01*
X-41452380Y-207200D02*
X-41404761Y-111961D01*
X-41404761Y-111961D02*
X-41404761Y-64342D01*
X-41404761Y-64342D02*
X-41452380Y30895D01*
X-41452380Y30895D02*
X-41547618Y78514D01*
X-41547618Y78514D02*
X-41690475Y78514D01*
X-41690475Y78514D02*
X-41785713Y126133D01*
X-41785713Y126133D02*
X-41833332Y221371D01*
X-41833332Y221371D02*
X-41833332Y268990D01*
X-41833332Y268990D02*
X-41785713Y364228D01*
X-41785713Y364228D02*
X-41690475Y411847D01*
X-41690475Y411847D02*
X-41547618Y411847D01*
X-41547618Y411847D02*
X-41452380Y364228D01*
X-41071427Y411847D02*
X-40880951Y-254819D01*
X-40880951Y-254819D02*
X-40690475Y221371D01*
X-40690475Y221371D02*
X-40499999Y-254819D01*
X-40499999Y-254819D02*
X-40309523Y411847D01*
X-39928570Y-254819D02*
X-39928570Y411847D01*
X-39928570Y745180D02*
X-39976189Y697561D01*
X-39976189Y697561D02*
X-39928570Y649942D01*
X-39928570Y649942D02*
X-39880951Y697561D01*
X-39880951Y697561D02*
X-39928570Y745180D01*
X-39928570Y745180D02*
X-39928570Y649942D01*
X-39595237Y411847D02*
X-39214285Y411847D01*
X-39452380Y745180D02*
X-39452380Y-111961D01*
X-39452380Y-111961D02*
X-39404761Y-207200D01*
X-39404761Y-207200D02*
X-39309523Y-254819D01*
X-39309523Y-254819D02*
X-39214285Y-254819D01*
X-38452380Y-207200D02*
X-38547618Y-254819D01*
X-38547618Y-254819D02*
X-38738094Y-254819D01*
X-38738094Y-254819D02*
X-38833332Y-207200D01*
X-38833332Y-207200D02*
X-38880951Y-159580D01*
X-38880951Y-159580D02*
X-38928570Y-64342D01*
X-38928570Y-64342D02*
X-38928570Y221371D01*
X-38928570Y221371D02*
X-38880951Y316609D01*
X-38880951Y316609D02*
X-38833332Y364228D01*
X-38833332Y364228D02*
X-38738094Y411847D01*
X-38738094Y411847D02*
X-38547618Y411847D01*
X-38547618Y411847D02*
X-38452380Y364228D01*
X-38023808Y-254819D02*
X-38023808Y745180D01*
X-37595237Y-254819D02*
X-37595237Y268990D01*
X-37595237Y268990D02*
X-37642856Y364228D01*
X-37642856Y364228D02*
X-37738094Y411847D01*
X-37738094Y411847D02*
X-37880951Y411847D01*
X-37880951Y411847D02*
X-37976189Y364228D01*
X-37976189Y364228D02*
X-38023808Y316609D01*
X-41761904Y8792800D02*
X-41619047Y8745180D01*
X-41619047Y8745180D02*
X-41380952Y8745180D01*
X-41380952Y8745180D02*
X-41285714Y8792800D01*
X-41285714Y8792800D02*
X-41238095Y8840419D01*
X-41238095Y8840419D02*
X-41190476Y8935657D01*
X-41190476Y8935657D02*
X-41190476Y9030895D01*
X-41190476Y9030895D02*
X-41238095Y9126133D01*
X-41238095Y9126133D02*
X-41285714Y9173752D01*
X-41285714Y9173752D02*
X-41380952Y9221371D01*
X-41380952Y9221371D02*
X-41571428Y9268990D01*
X-41571428Y9268990D02*
X-41666666Y9316609D01*
X-41666666Y9316609D02*
X-41714285Y9364228D01*
X-41714285Y9364228D02*
X-41761904Y9459466D01*
X-41761904Y9459466D02*
X-41761904Y9554704D01*
X-41761904Y9554704D02*
X-41714285Y9649942D01*
X-41714285Y9649942D02*
X-41666666Y9697561D01*
X-41666666Y9697561D02*
X-41571428Y9745180D01*
X-41571428Y9745180D02*
X-41333333Y9745180D01*
X-41333333Y9745180D02*
X-41190476Y9697561D01*
X-40333333Y9411847D02*
X-40333333Y8745180D01*
X-40571428Y9792800D02*
X-40809523Y9078514D01*
X-40809523Y9078514D02*
X-40190476Y9078514D01*
X-82404761Y-8354819D02*
X-82404761Y-7354819D01*
X-81833333Y-8354819D02*
X-82261904Y-7783390D01*
X-81833333Y-7354819D02*
X-82404761Y-7926247D01*
X-81023809Y-8307200D02*
X-81119047Y-8354819D01*
X-81119047Y-8354819D02*
X-81309523Y-8354819D01*
X-81309523Y-8354819D02*
X-81404761Y-8307200D01*
X-81404761Y-8307200D02*
X-81452380Y-8211961D01*
X-81452380Y-8211961D02*
X-81452380Y-7831009D01*
X-81452380Y-7831009D02*
X-81404761Y-7735771D01*
X-81404761Y-7735771D02*
X-81309523Y-7688152D01*
X-81309523Y-7688152D02*
X-81119047Y-7688152D01*
X-81119047Y-7688152D02*
X-81023809Y-7735771D01*
X-81023809Y-7735771D02*
X-80976190Y-7831009D01*
X-80976190Y-7831009D02*
X-80976190Y-7926247D01*
X-80976190Y-7926247D02*
X-81452380Y-8021485D01*
X-80642856Y-7688152D02*
X-80404761Y-8354819D01*
X-80166666Y-7688152D02*
X-80404761Y-8354819D01*
X-80404761Y-8354819D02*
X-80499999Y-8592914D01*
X-80499999Y-8592914D02*
X-80547618Y-8640533D01*
X-80547618Y-8640533D02*
X-80642856Y-8688152D01*
X-79833332Y-8307200D02*
X-79738094Y-8354819D01*
X-79738094Y-8354819D02*
X-79547618Y-8354819D01*
X-79547618Y-8354819D02*
X-79452380Y-8307200D01*
X-79452380Y-8307200D02*
X-79404761Y-8211961D01*
X-79404761Y-8211961D02*
X-79404761Y-8164342D01*
X-79404761Y-8164342D02*
X-79452380Y-8069104D01*
X-79452380Y-8069104D02*
X-79547618Y-8021485D01*
X-79547618Y-8021485D02*
X-79690475Y-8021485D01*
X-79690475Y-8021485D02*
X-79785713Y-7973866D01*
X-79785713Y-7973866D02*
X-79833332Y-7878628D01*
X-79833332Y-7878628D02*
X-79833332Y-7831009D01*
X-79833332Y-7831009D02*
X-79785713Y-7735771D01*
X-79785713Y-7735771D02*
X-79690475Y-7688152D01*
X-79690475Y-7688152D02*
X-79547618Y-7688152D01*
X-79547618Y-7688152D02*
X-79452380Y-7735771D01*
X-79071427Y-7688152D02*
X-78880951Y-8354819D01*
X-78880951Y-8354819D02*
X-78690475Y-7878628D01*
X-78690475Y-7878628D02*
X-78499999Y-8354819D01*
X-78499999Y-8354819D02*
X-78309523Y-7688152D01*
X-77928570Y-8354819D02*
X-77928570Y-7688152D01*
X-77928570Y-7354819D02*
X-77976189Y-7402438D01*
X-77976189Y-7402438D02*
X-77928570Y-7450057D01*
X-77928570Y-7450057D02*
X-77880951Y-7402438D01*
X-77880951Y-7402438D02*
X-77928570Y-7354819D01*
X-77928570Y-7354819D02*
X-77928570Y-7450057D01*
X-77595237Y-7688152D02*
X-77214285Y-7688152D01*
X-77452380Y-7354819D02*
X-77452380Y-8211961D01*
X-77452380Y-8211961D02*
X-77404761Y-8307200D01*
X-77404761Y-8307200D02*
X-77309523Y-8354819D01*
X-77309523Y-8354819D02*
X-77214285Y-8354819D01*
X-76452380Y-8307200D02*
X-76547618Y-8354819D01*
X-76547618Y-8354819D02*
X-76738094Y-8354819D01*
X-76738094Y-8354819D02*
X-76833332Y-8307200D01*
X-76833332Y-8307200D02*
X-76880951Y-8259580D01*
X-76880951Y-8259580D02*
X-76928570Y-8164342D01*
X-76928570Y-8164342D02*
X-76928570Y-7878628D01*
X-76928570Y-7878628D02*
X-76880951Y-7783390D01*
X-76880951Y-7783390D02*
X-76833332Y-7735771D01*
X-76833332Y-7735771D02*
X-76738094Y-7688152D01*
X-76738094Y-7688152D02*
X-76547618Y-7688152D01*
X-76547618Y-7688152D02*
X-76452380Y-7735771D01*
X-76023808Y-8354819D02*
X-76023808Y-7354819D01*
X-75595237Y-8354819D02*
X-75595237Y-7831009D01*
X-75595237Y-7831009D02*
X-75642856Y-7735771D01*
X-75642856Y-7735771D02*
X-75738094Y-7688152D01*
X-75738094Y-7688152D02*
X-75880951Y-7688152D01*
X-75880951Y-7688152D02*
X-75976189Y-7735771D01*
X-75976189Y-7735771D02*
X-76023808Y-7783390D01*
X-80238094Y692800D02*
X-80095237Y645180D01*
X-80095237Y645180D02*
X-79857142Y645180D01*
X-79857142Y645180D02*
X-79761904Y692800D01*
X-79761904Y692800D02*
X-79714285Y740419D01*
X-79714285Y740419D02*
X-79666666Y835657D01*
X-79666666Y835657D02*
X-79666666Y930895D01*
X-79666666Y930895D02*
X-79714285Y1026133D01*
X-79714285Y1026133D02*
X-79761904Y1073752D01*
X-79761904Y1073752D02*
X-79857142Y1121371D01*
X-79857142Y1121371D02*
X-80047618Y1168990D01*
X-80047618Y1168990D02*
X-80142856Y1216609D01*
X-80142856Y1216609D02*
X-80190475Y1264228D01*
X-80190475Y1264228D02*
X-80238094Y1359466D01*
X-80238094Y1359466D02*
X-80238094Y1454704D01*
X-80238094Y1454704D02*
X-80190475Y1549942D01*
X-80190475Y1549942D02*
X-80142856Y1597561D01*
X-80142856Y1597561D02*
X-80047618Y1645180D01*
X-80047618Y1645180D02*
X-79809523Y1645180D01*
X-79809523Y1645180D02*
X-79666666Y1597561D01*
X-78714285Y645180D02*
X-79285713Y645180D01*
X-78999999Y645180D02*
X-78999999Y1645180D01*
X-78999999Y1645180D02*
X-79095237Y1502323D01*
X-79095237Y1502323D02*
X-79190475Y1407085D01*
X-79190475Y1407085D02*
X-79285713Y1359466D01*
X-78380951Y1645180D02*
X-77761904Y1645180D01*
X-77761904Y1645180D02*
X-78095237Y1264228D01*
X-78095237Y1264228D02*
X-77952380Y1264228D01*
X-77952380Y1264228D02*
X-77857142Y1216609D01*
X-77857142Y1216609D02*
X-77809523Y1168990D01*
X-77809523Y1168990D02*
X-77761904Y1073752D01*
X-77761904Y1073752D02*
X-77761904Y835657D01*
X-77761904Y835657D02*
X-77809523Y740419D01*
X-77809523Y740419D02*
X-77857142Y692800D01*
X-77857142Y692800D02*
X-77952380Y645180D01*
X-77952380Y645180D02*
X-78238094Y645180D01*
X-78238094Y645180D02*
X-78333332Y692800D01*
X-78333332Y692800D02*
X-78380951Y740419D01*
X75595238Y-8354819D02*
X75595238Y-7354819D01*
X76166666Y-8354819D02*
X75738095Y-7783390D01*
X76166666Y-7354819D02*
X75595238Y-7926247D01*
X76976190Y-8307200D02*
X76880952Y-8354819D01*
X76880952Y-8354819D02*
X76690476Y-8354819D01*
X76690476Y-8354819D02*
X76595238Y-8307200D01*
X76595238Y-8307200D02*
X76547619Y-8211961D01*
X76547619Y-8211961D02*
X76547619Y-7831009D01*
X76547619Y-7831009D02*
X76595238Y-7735771D01*
X76595238Y-7735771D02*
X76690476Y-7688152D01*
X76690476Y-7688152D02*
X76880952Y-7688152D01*
X76880952Y-7688152D02*
X76976190Y-7735771D01*
X76976190Y-7735771D02*
X77023809Y-7831009D01*
X77023809Y-7831009D02*
X77023809Y-7926247D01*
X77023809Y-7926247D02*
X76547619Y-8021485D01*
X77357143Y-7688152D02*
X77595238Y-8354819D01*
X77833333Y-7688152D02*
X77595238Y-8354819D01*
X77595238Y-8354819D02*
X77500000Y-8592914D01*
X77500000Y-8592914D02*
X77452381Y-8640533D01*
X77452381Y-8640533D02*
X77357143Y-8688152D01*
X78166667Y-8307200D02*
X78261905Y-8354819D01*
X78261905Y-8354819D02*
X78452381Y-8354819D01*
X78452381Y-8354819D02*
X78547619Y-8307200D01*
X78547619Y-8307200D02*
X78595238Y-8211961D01*
X78595238Y-8211961D02*
X78595238Y-8164342D01*
X78595238Y-8164342D02*
X78547619Y-8069104D01*
X78547619Y-8069104D02*
X78452381Y-8021485D01*
X78452381Y-8021485D02*
X78309524Y-8021485D01*
X78309524Y-8021485D02*
X78214286Y-7973866D01*
X78214286Y-7973866D02*
X78166667Y-7878628D01*
X78166667Y-7878628D02*
X78166667Y-7831009D01*
X78166667Y-7831009D02*
X78214286Y-7735771D01*
X78214286Y-7735771D02*
X78309524Y-7688152D01*
X78309524Y-7688152D02*
X78452381Y-7688152D01*
X78452381Y-7688152D02*
X78547619Y-7735771D01*
X78928572Y-7688152D02*
X79119048Y-8354819D01*
X79119048Y-8354819D02*
X79309524Y-7878628D01*
X79309524Y-7878628D02*
X79500000Y-8354819D01*
X79500000Y-8354819D02*
X79690476Y-7688152D01*
X80071429Y-8354819D02*
X80071429Y-7688152D01*
X80071429Y-7354819D02*
X80023810Y-7402438D01*
X80023810Y-7402438D02*
X80071429Y-7450057D01*
X80071429Y-7450057D02*
X80119048Y-7402438D01*
X80119048Y-7402438D02*
X80071429Y-7354819D01*
X80071429Y-7354819D02*
X80071429Y-7450057D01*
X80404762Y-7688152D02*
X80785714Y-7688152D01*
X80547619Y-7354819D02*
X80547619Y-8211961D01*
X80547619Y-8211961D02*
X80595238Y-8307200D01*
X80595238Y-8307200D02*
X80690476Y-8354819D01*
X80690476Y-8354819D02*
X80785714Y-8354819D01*
X81547619Y-8307200D02*
X81452381Y-8354819D01*
X81452381Y-8354819D02*
X81261905Y-8354819D01*
X81261905Y-8354819D02*
X81166667Y-8307200D01*
X81166667Y-8307200D02*
X81119048Y-8259580D01*
X81119048Y-8259580D02*
X81071429Y-8164342D01*
X81071429Y-8164342D02*
X81071429Y-7878628D01*
X81071429Y-7878628D02*
X81119048Y-7783390D01*
X81119048Y-7783390D02*
X81166667Y-7735771D01*
X81166667Y-7735771D02*
X81261905Y-7688152D01*
X81261905Y-7688152D02*
X81452381Y-7688152D01*
X81452381Y-7688152D02*
X81547619Y-7735771D01*
X81976191Y-8354819D02*
X81976191Y-7354819D01*
X82404762Y-8354819D02*
X82404762Y-7831009D01*
X82404762Y-7831009D02*
X82357143Y-7735771D01*
X82357143Y-7735771D02*
X82261905Y-7688152D01*
X82261905Y-7688152D02*
X82119048Y-7688152D01*
X82119048Y-7688152D02*
X82023810Y-7735771D01*
X82023810Y-7735771D02*
X81976191Y-7783390D01*
X77761905Y692800D02*
X77904762Y645180D01*
X77904762Y645180D02*
X78142857Y645180D01*
X78142857Y645180D02*
X78238095Y692800D01*
X78238095Y692800D02*
X78285714Y740419D01*
X78285714Y740419D02*
X78333333Y835657D01*
X78333333Y835657D02*
X78333333Y930895D01*
X78333333Y930895D02*
X78285714Y1026133D01*
X78285714Y1026133D02*
X78238095Y1073752D01*
X78238095Y1073752D02*
X78142857Y1121371D01*
X78142857Y1121371D02*
X77952381Y1168990D01*
X77952381Y1168990D02*
X77857143Y1216609D01*
X77857143Y1216609D02*
X77809524Y1264228D01*
X77809524Y1264228D02*
X77761905Y1359466D01*
X77761905Y1359466D02*
X77761905Y1454704D01*
X77761905Y1454704D02*
X77809524Y1549942D01*
X77809524Y1549942D02*
X77857143Y1597561D01*
X77857143Y1597561D02*
X77952381Y1645180D01*
X77952381Y1645180D02*
X78190476Y1645180D01*
X78190476Y1645180D02*
X78333333Y1597561D01*
X78714286Y1549942D02*
X78761905Y1597561D01*
X78761905Y1597561D02*
X78857143Y1645180D01*
X78857143Y1645180D02*
X79095238Y1645180D01*
X79095238Y1645180D02*
X79190476Y1597561D01*
X79190476Y1597561D02*
X79238095Y1549942D01*
X79238095Y1549942D02*
X79285714Y1454704D01*
X79285714Y1454704D02*
X79285714Y1359466D01*
X79285714Y1359466D02*
X79238095Y1216609D01*
X79238095Y1216609D02*
X78666667Y645180D01*
X78666667Y645180D02*
X79285714Y645180D01*
X79904762Y1645180D02*
X80000000Y1645180D01*
X80000000Y1645180D02*
X80095238Y1597561D01*
X80095238Y1597561D02*
X80142857Y1549942D01*
X80142857Y1549942D02*
X80190476Y1454704D01*
X80190476Y1454704D02*
X80238095Y1264228D01*
X80238095Y1264228D02*
X80238095Y1026133D01*
X80238095Y1026133D02*
X80190476Y835657D01*
X80190476Y835657D02*
X80142857Y740419D01*
X80142857Y740419D02*
X80095238Y692800D01*
X80095238Y692800D02*
X80000000Y645180D01*
X80000000Y645180D02*
X79904762Y645180D01*
X79904762Y645180D02*
X79809524Y692800D01*
X79809524Y692800D02*
X79761905Y740419D01*
X79761905Y740419D02*
X79714286Y835657D01*
X79714286Y835657D02*
X79666667Y1026133D01*
X79666667Y1026133D02*
X79666667Y1264228D01*
X79666667Y1264228D02*
X79714286Y1454704D01*
X79714286Y1454704D02*
X79761905Y1549942D01*
X79761905Y1549942D02*
X79809524Y1597561D01*
X79809524Y1597561D02*
X79904762Y1645180D01*
X94595238Y-18254819D02*
X94595238Y-17254819D01*
X95166666Y-18254819D02*
X94738095Y-17683390D01*
X95166666Y-17254819D02*
X94595238Y-17826247D01*
X95976190Y-18207200D02*
X95880952Y-18254819D01*
X95880952Y-18254819D02*
X95690476Y-18254819D01*
X95690476Y-18254819D02*
X95595238Y-18207200D01*
X95595238Y-18207200D02*
X95547619Y-18111961D01*
X95547619Y-18111961D02*
X95547619Y-17731009D01*
X95547619Y-17731009D02*
X95595238Y-17635771D01*
X95595238Y-17635771D02*
X95690476Y-17588152D01*
X95690476Y-17588152D02*
X95880952Y-17588152D01*
X95880952Y-17588152D02*
X95976190Y-17635771D01*
X95976190Y-17635771D02*
X96023809Y-17731009D01*
X96023809Y-17731009D02*
X96023809Y-17826247D01*
X96023809Y-17826247D02*
X95547619Y-17921485D01*
X96357143Y-17588152D02*
X96595238Y-18254819D01*
X96833333Y-17588152D02*
X96595238Y-18254819D01*
X96595238Y-18254819D02*
X96500000Y-18492914D01*
X96500000Y-18492914D02*
X96452381Y-18540533D01*
X96452381Y-18540533D02*
X96357143Y-18588152D01*
X97166667Y-18207200D02*
X97261905Y-18254819D01*
X97261905Y-18254819D02*
X97452381Y-18254819D01*
X97452381Y-18254819D02*
X97547619Y-18207200D01*
X97547619Y-18207200D02*
X97595238Y-18111961D01*
X97595238Y-18111961D02*
X97595238Y-18064342D01*
X97595238Y-18064342D02*
X97547619Y-17969104D01*
X97547619Y-17969104D02*
X97452381Y-17921485D01*
X97452381Y-17921485D02*
X97309524Y-17921485D01*
X97309524Y-17921485D02*
X97214286Y-17873866D01*
X97214286Y-17873866D02*
X97166667Y-17778628D01*
X97166667Y-17778628D02*
X97166667Y-17731009D01*
X97166667Y-17731009D02*
X97214286Y-17635771D01*
X97214286Y-17635771D02*
X97309524Y-17588152D01*
X97309524Y-17588152D02*
X97452381Y-17588152D01*
X97452381Y-17588152D02*
X97547619Y-17635771D01*
X97928572Y-17588152D02*
X98119048Y-18254819D01*
X98119048Y-18254819D02*
X98309524Y-17778628D01*
X98309524Y-17778628D02*
X98500000Y-18254819D01*
X98500000Y-18254819D02*
X98690476Y-17588152D01*
X99071429Y-18254819D02*
X99071429Y-17588152D01*
X99071429Y-17254819D02*
X99023810Y-17302438D01*
X99023810Y-17302438D02*
X99071429Y-17350057D01*
X99071429Y-17350057D02*
X99119048Y-17302438D01*
X99119048Y-17302438D02*
X99071429Y-17254819D01*
X99071429Y-17254819D02*
X99071429Y-17350057D01*
X99404762Y-17588152D02*
X99785714Y-17588152D01*
X99547619Y-17254819D02*
X99547619Y-18111961D01*
X99547619Y-18111961D02*
X99595238Y-18207200D01*
X99595238Y-18207200D02*
X99690476Y-18254819D01*
X99690476Y-18254819D02*
X99785714Y-18254819D01*
X100547619Y-18207200D02*
X100452381Y-18254819D01*
X100452381Y-18254819D02*
X100261905Y-18254819D01*
X100261905Y-18254819D02*
X100166667Y-18207200D01*
X100166667Y-18207200D02*
X100119048Y-18159580D01*
X100119048Y-18159580D02*
X100071429Y-18064342D01*
X100071429Y-18064342D02*
X100071429Y-17778628D01*
X100071429Y-17778628D02*
X100119048Y-17683390D01*
X100119048Y-17683390D02*
X100166667Y-17635771D01*
X100166667Y-17635771D02*
X100261905Y-17588152D01*
X100261905Y-17588152D02*
X100452381Y-17588152D01*
X100452381Y-17588152D02*
X100547619Y-17635771D01*
X100976191Y-18254819D02*
X100976191Y-17254819D01*
X101404762Y-18254819D02*
X101404762Y-17731009D01*
X101404762Y-17731009D02*
X101357143Y-17635771D01*
X101357143Y-17635771D02*
X101261905Y-17588152D01*
X101261905Y-17588152D02*
X101119048Y-17588152D01*
X101119048Y-17588152D02*
X101023810Y-17635771D01*
X101023810Y-17635771D02*
X100976191Y-17683390D01*
X96761905Y-9207200D02*
X96904762Y-9254819D01*
X96904762Y-9254819D02*
X97142857Y-9254819D01*
X97142857Y-9254819D02*
X97238095Y-9207200D01*
X97238095Y-9207200D02*
X97285714Y-9159580D01*
X97285714Y-9159580D02*
X97333333Y-9064342D01*
X97333333Y-9064342D02*
X97333333Y-8969104D01*
X97333333Y-8969104D02*
X97285714Y-8873866D01*
X97285714Y-8873866D02*
X97238095Y-8826247D01*
X97238095Y-8826247D02*
X97142857Y-8778628D01*
X97142857Y-8778628D02*
X96952381Y-8731009D01*
X96952381Y-8731009D02*
X96857143Y-8683390D01*
X96857143Y-8683390D02*
X96809524Y-8635771D01*
X96809524Y-8635771D02*
X96761905Y-8540533D01*
X96761905Y-8540533D02*
X96761905Y-8445295D01*
X96761905Y-8445295D02*
X96809524Y-8350057D01*
X96809524Y-8350057D02*
X96857143Y-8302438D01*
X96857143Y-8302438D02*
X96952381Y-8254819D01*
X96952381Y-8254819D02*
X97190476Y-8254819D01*
X97190476Y-8254819D02*
X97333333Y-8302438D01*
X97714286Y-8350057D02*
X97761905Y-8302438D01*
X97761905Y-8302438D02*
X97857143Y-8254819D01*
X97857143Y-8254819D02*
X98095238Y-8254819D01*
X98095238Y-8254819D02*
X98190476Y-8302438D01*
X98190476Y-8302438D02*
X98238095Y-8350057D01*
X98238095Y-8350057D02*
X98285714Y-8445295D01*
X98285714Y-8445295D02*
X98285714Y-8540533D01*
X98285714Y-8540533D02*
X98238095Y-8683390D01*
X98238095Y-8683390D02*
X97666667Y-9254819D01*
X97666667Y-9254819D02*
X98285714Y-9254819D01*
X99238095Y-9254819D02*
X98666667Y-9254819D01*
X98952381Y-9254819D02*
X98952381Y-8254819D01*
X98952381Y-8254819D02*
X98857143Y-8397676D01*
X98857143Y-8397676D02*
X98761905Y-8492914D01*
X98761905Y-8492914D02*
X98666667Y-8540533D01*
X-82404761Y9645180D02*
X-82404761Y10645180D01*
X-81833333Y9645180D02*
X-82261904Y10216609D01*
X-81833333Y10645180D02*
X-82404761Y10073752D01*
X-81023809Y9692800D02*
X-81119047Y9645180D01*
X-81119047Y9645180D02*
X-81309523Y9645180D01*
X-81309523Y9645180D02*
X-81404761Y9692800D01*
X-81404761Y9692800D02*
X-81452380Y9788038D01*
X-81452380Y9788038D02*
X-81452380Y10168990D01*
X-81452380Y10168990D02*
X-81404761Y10264228D01*
X-81404761Y10264228D02*
X-81309523Y10311847D01*
X-81309523Y10311847D02*
X-81119047Y10311847D01*
X-81119047Y10311847D02*
X-81023809Y10264228D01*
X-81023809Y10264228D02*
X-80976190Y10168990D01*
X-80976190Y10168990D02*
X-80976190Y10073752D01*
X-80976190Y10073752D02*
X-81452380Y9978514D01*
X-80642856Y10311847D02*
X-80404761Y9645180D01*
X-80166666Y10311847D02*
X-80404761Y9645180D01*
X-80404761Y9645180D02*
X-80499999Y9407085D01*
X-80499999Y9407085D02*
X-80547618Y9359466D01*
X-80547618Y9359466D02*
X-80642856Y9311847D01*
X-79833332Y9692800D02*
X-79738094Y9645180D01*
X-79738094Y9645180D02*
X-79547618Y9645180D01*
X-79547618Y9645180D02*
X-79452380Y9692800D01*
X-79452380Y9692800D02*
X-79404761Y9788038D01*
X-79404761Y9788038D02*
X-79404761Y9835657D01*
X-79404761Y9835657D02*
X-79452380Y9930895D01*
X-79452380Y9930895D02*
X-79547618Y9978514D01*
X-79547618Y9978514D02*
X-79690475Y9978514D01*
X-79690475Y9978514D02*
X-79785713Y10026133D01*
X-79785713Y10026133D02*
X-79833332Y10121371D01*
X-79833332Y10121371D02*
X-79833332Y10168990D01*
X-79833332Y10168990D02*
X-79785713Y10264228D01*
X-79785713Y10264228D02*
X-79690475Y10311847D01*
X-79690475Y10311847D02*
X-79547618Y10311847D01*
X-79547618Y10311847D02*
X-79452380Y10264228D01*
X-79071427Y10311847D02*
X-78880951Y9645180D01*
X-78880951Y9645180D02*
X-78690475Y10121371D01*
X-78690475Y10121371D02*
X-78499999Y9645180D01*
X-78499999Y9645180D02*
X-78309523Y10311847D01*
X-77928570Y9645180D02*
X-77928570Y10311847D01*
X-77928570Y10645180D02*
X-77976189Y10597561D01*
X-77976189Y10597561D02*
X-77928570Y10549942D01*
X-77928570Y10549942D02*
X-77880951Y10597561D01*
X-77880951Y10597561D02*
X-77928570Y10645180D01*
X-77928570Y10645180D02*
X-77928570Y10549942D01*
X-77595237Y10311847D02*
X-77214285Y10311847D01*
X-77452380Y10645180D02*
X-77452380Y9788038D01*
X-77452380Y9788038D02*
X-77404761Y9692800D01*
X-77404761Y9692800D02*
X-77309523Y9645180D01*
X-77309523Y9645180D02*
X-77214285Y9645180D01*
X-76452380Y9692800D02*
X-76547618Y9645180D01*
X-76547618Y9645180D02*
X-76738094Y9645180D01*
X-76738094Y9645180D02*
X-76833332Y9692800D01*
X-76833332Y9692800D02*
X-76880951Y9740419D01*
X-76880951Y9740419D02*
X-76928570Y9835657D01*
X-76928570Y9835657D02*
X-76928570Y10121371D01*
X-76928570Y10121371D02*
X-76880951Y10216609D01*
X-76880951Y10216609D02*
X-76833332Y10264228D01*
X-76833332Y10264228D02*
X-76738094Y10311847D01*
X-76738094Y10311847D02*
X-76547618Y10311847D01*
X-76547618Y10311847D02*
X-76452380Y10264228D01*
X-76023808Y9645180D02*
X-76023808Y10645180D01*
X-75595237Y9645180D02*
X-75595237Y10168990D01*
X-75595237Y10168990D02*
X-75642856Y10264228D01*
X-75642856Y10264228D02*
X-75738094Y10311847D01*
X-75738094Y10311847D02*
X-75880951Y10311847D01*
X-75880951Y10311847D02*
X-75976189Y10264228D01*
X-75976189Y10264228D02*
X-76023808Y10216609D01*
X-79761904Y18692800D02*
X-79619047Y18645180D01*
X-79619047Y18645180D02*
X-79380952Y18645180D01*
X-79380952Y18645180D02*
X-79285714Y18692800D01*
X-79285714Y18692800D02*
X-79238095Y18740419D01*
X-79238095Y18740419D02*
X-79190476Y18835657D01*
X-79190476Y18835657D02*
X-79190476Y18930895D01*
X-79190476Y18930895D02*
X-79238095Y19026133D01*
X-79238095Y19026133D02*
X-79285714Y19073752D01*
X-79285714Y19073752D02*
X-79380952Y19121371D01*
X-79380952Y19121371D02*
X-79571428Y19168990D01*
X-79571428Y19168990D02*
X-79666666Y19216609D01*
X-79666666Y19216609D02*
X-79714285Y19264228D01*
X-79714285Y19264228D02*
X-79761904Y19359466D01*
X-79761904Y19359466D02*
X-79761904Y19454704D01*
X-79761904Y19454704D02*
X-79714285Y19549942D01*
X-79714285Y19549942D02*
X-79666666Y19597561D01*
X-79666666Y19597561D02*
X-79571428Y19645180D01*
X-79571428Y19645180D02*
X-79333333Y19645180D01*
X-79333333Y19645180D02*
X-79190476Y19597561D01*
X-78809523Y19549942D02*
X-78761904Y19597561D01*
X-78761904Y19597561D02*
X-78666666Y19645180D01*
X-78666666Y19645180D02*
X-78428571Y19645180D01*
X-78428571Y19645180D02*
X-78333333Y19597561D01*
X-78333333Y19597561D02*
X-78285714Y19549942D01*
X-78285714Y19549942D02*
X-78238095Y19454704D01*
X-78238095Y19454704D02*
X-78238095Y19359466D01*
X-78238095Y19359466D02*
X-78285714Y19216609D01*
X-78285714Y19216609D02*
X-78857142Y18645180D01*
X-78857142Y18645180D02*
X-78238095Y18645180D01*
X-101404761Y-18254819D02*
X-101404761Y-17254819D01*
X-100833333Y-18254819D02*
X-101261904Y-17683390D01*
X-100833333Y-17254819D02*
X-101404761Y-17826247D01*
X-100023809Y-18207200D02*
X-100119047Y-18254819D01*
X-100119047Y-18254819D02*
X-100309523Y-18254819D01*
X-100309523Y-18254819D02*
X-100404761Y-18207200D01*
X-100404761Y-18207200D02*
X-100452380Y-18111961D01*
X-100452380Y-18111961D02*
X-100452380Y-17731009D01*
X-100452380Y-17731009D02*
X-100404761Y-17635771D01*
X-100404761Y-17635771D02*
X-100309523Y-17588152D01*
X-100309523Y-17588152D02*
X-100119047Y-17588152D01*
X-100119047Y-17588152D02*
X-100023809Y-17635771D01*
X-100023809Y-17635771D02*
X-99976190Y-17731009D01*
X-99976190Y-17731009D02*
X-99976190Y-17826247D01*
X-99976190Y-17826247D02*
X-100452380Y-17921485D01*
X-99642856Y-17588152D02*
X-99404761Y-18254819D01*
X-99166666Y-17588152D02*
X-99404761Y-18254819D01*
X-99404761Y-18254819D02*
X-99499999Y-18492914D01*
X-99499999Y-18492914D02*
X-99547618Y-18540533D01*
X-99547618Y-18540533D02*
X-99642856Y-18588152D01*
X-98833332Y-18207200D02*
X-98738094Y-18254819D01*
X-98738094Y-18254819D02*
X-98547618Y-18254819D01*
X-98547618Y-18254819D02*
X-98452380Y-18207200D01*
X-98452380Y-18207200D02*
X-98404761Y-18111961D01*
X-98404761Y-18111961D02*
X-98404761Y-18064342D01*
X-98404761Y-18064342D02*
X-98452380Y-17969104D01*
X-98452380Y-17969104D02*
X-98547618Y-17921485D01*
X-98547618Y-17921485D02*
X-98690475Y-17921485D01*
X-98690475Y-17921485D02*
X-98785713Y-17873866D01*
X-98785713Y-17873866D02*
X-98833332Y-17778628D01*
X-98833332Y-17778628D02*
X-98833332Y-17731009D01*
X-98833332Y-17731009D02*
X-98785713Y-17635771D01*
X-98785713Y-17635771D02*
X-98690475Y-17588152D01*
X-98690475Y-17588152D02*
X-98547618Y-17588152D01*
X-98547618Y-17588152D02*
X-98452380Y-17635771D01*
X-98071427Y-17588152D02*
X-97880951Y-18254819D01*
X-97880951Y-18254819D02*
X-97690475Y-17778628D01*
X-97690475Y-17778628D02*
X-97499999Y-18254819D01*
X-97499999Y-18254819D02*
X-97309523Y-17588152D01*
X-96928570Y-18254819D02*
X-96928570Y-17588152D01*
X-96928570Y-17254819D02*
X-96976189Y-17302438D01*
X-96976189Y-17302438D02*
X-96928570Y-17350057D01*
X-96928570Y-17350057D02*
X-96880951Y-17302438D01*
X-96880951Y-17302438D02*
X-96928570Y-17254819D01*
X-96928570Y-17254819D02*
X-96928570Y-17350057D01*
X-96595237Y-17588152D02*
X-96214285Y-17588152D01*
X-96452380Y-17254819D02*
X-96452380Y-18111961D01*
X-96452380Y-18111961D02*
X-96404761Y-18207200D01*
X-96404761Y-18207200D02*
X-96309523Y-18254819D01*
X-96309523Y-18254819D02*
X-96214285Y-18254819D01*
X-95452380Y-18207200D02*
X-95547618Y-18254819D01*
X-95547618Y-18254819D02*
X-95738094Y-18254819D01*
X-95738094Y-18254819D02*
X-95833332Y-18207200D01*
X-95833332Y-18207200D02*
X-95880951Y-18159580D01*
X-95880951Y-18159580D02*
X-95928570Y-18064342D01*
X-95928570Y-18064342D02*
X-95928570Y-17778628D01*
X-95928570Y-17778628D02*
X-95880951Y-17683390D01*
X-95880951Y-17683390D02*
X-95833332Y-17635771D01*
X-95833332Y-17635771D02*
X-95738094Y-17588152D01*
X-95738094Y-17588152D02*
X-95547618Y-17588152D01*
X-95547618Y-17588152D02*
X-95452380Y-17635771D01*
X-95023808Y-18254819D02*
X-95023808Y-17254819D01*
X-94595237Y-18254819D02*
X-94595237Y-17731009D01*
X-94595237Y-17731009D02*
X-94642856Y-17635771D01*
X-94642856Y-17635771D02*
X-94738094Y-17588152D01*
X-94738094Y-17588152D02*
X-94880951Y-17588152D01*
X-94880951Y-17588152D02*
X-94976189Y-17635771D01*
X-94976189Y-17635771D02*
X-95023808Y-17683390D01*
X-99238094Y-9207200D02*
X-99095237Y-9254819D01*
X-99095237Y-9254819D02*
X-98857142Y-9254819D01*
X-98857142Y-9254819D02*
X-98761904Y-9207200D01*
X-98761904Y-9207200D02*
X-98714285Y-9159580D01*
X-98714285Y-9159580D02*
X-98666666Y-9064342D01*
X-98666666Y-9064342D02*
X-98666666Y-8969104D01*
X-98666666Y-8969104D02*
X-98714285Y-8873866D01*
X-98714285Y-8873866D02*
X-98761904Y-8826247D01*
X-98761904Y-8826247D02*
X-98857142Y-8778628D01*
X-98857142Y-8778628D02*
X-99047618Y-8731009D01*
X-99047618Y-8731009D02*
X-99142856Y-8683390D01*
X-99142856Y-8683390D02*
X-99190475Y-8635771D01*
X-99190475Y-8635771D02*
X-99238094Y-8540533D01*
X-99238094Y-8540533D02*
X-99238094Y-8445295D01*
X-99238094Y-8445295D02*
X-99190475Y-8350057D01*
X-99190475Y-8350057D02*
X-99142856Y-8302438D01*
X-99142856Y-8302438D02*
X-99047618Y-8254819D01*
X-99047618Y-8254819D02*
X-98809523Y-8254819D01*
X-98809523Y-8254819D02*
X-98666666Y-8302438D01*
X-97714285Y-9254819D02*
X-98285713Y-9254819D01*
X-97999999Y-9254819D02*
X-97999999Y-8254819D01*
X-97999999Y-8254819D02*
X-98095237Y-8397676D01*
X-98095237Y-8397676D02*
X-98190475Y-8492914D01*
X-98190475Y-8492914D02*
X-98285713Y-8540533D01*
X-97333332Y-8350057D02*
X-97285713Y-8302438D01*
X-97285713Y-8302438D02*
X-97190475Y-8254819D01*
X-97190475Y-8254819D02*
X-96952380Y-8254819D01*
X-96952380Y-8254819D02*
X-96857142Y-8302438D01*
X-96857142Y-8302438D02*
X-96809523Y-8350057D01*
X-96809523Y-8350057D02*
X-96761904Y-8445295D01*
X-96761904Y-8445295D02*
X-96761904Y-8540533D01*
X-96761904Y-8540533D02*
X-96809523Y-8683390D01*
X-96809523Y-8683390D02*
X-97380951Y-9254819D01*
X-97380951Y-9254819D02*
X-96761904Y-9254819D01*
X-101404761Y-254819D02*
X-101404761Y745180D01*
X-100833333Y-254819D02*
X-101261904Y316609D01*
X-100833333Y745180D02*
X-101404761Y173752D01*
X-100023809Y-207200D02*
X-100119047Y-254819D01*
X-100119047Y-254819D02*
X-100309523Y-254819D01*
X-100309523Y-254819D02*
X-100404761Y-207200D01*
X-100404761Y-207200D02*
X-100452380Y-111961D01*
X-100452380Y-111961D02*
X-100452380Y268990D01*
X-100452380Y268990D02*
X-100404761Y364228D01*
X-100404761Y364228D02*
X-100309523Y411847D01*
X-100309523Y411847D02*
X-100119047Y411847D01*
X-100119047Y411847D02*
X-100023809Y364228D01*
X-100023809Y364228D02*
X-99976190Y268990D01*
X-99976190Y268990D02*
X-99976190Y173752D01*
X-99976190Y173752D02*
X-100452380Y78514D01*
X-99642856Y411847D02*
X-99404761Y-254819D01*
X-99166666Y411847D02*
X-99404761Y-254819D01*
X-99404761Y-254819D02*
X-99499999Y-492914D01*
X-99499999Y-492914D02*
X-99547618Y-540533D01*
X-99547618Y-540533D02*
X-99642856Y-588152D01*
X-98833332Y-207200D02*
X-98738094Y-254819D01*
X-98738094Y-254819D02*
X-98547618Y-254819D01*
X-98547618Y-254819D02*
X-98452380Y-207200D01*
X-98452380Y-207200D02*
X-98404761Y-111961D01*
X-98404761Y-111961D02*
X-98404761Y-64342D01*
X-98404761Y-64342D02*
X-98452380Y30895D01*
X-98452380Y30895D02*
X-98547618Y78514D01*
X-98547618Y78514D02*
X-98690475Y78514D01*
X-98690475Y78514D02*
X-98785713Y126133D01*
X-98785713Y126133D02*
X-98833332Y221371D01*
X-98833332Y221371D02*
X-98833332Y268990D01*
X-98833332Y268990D02*
X-98785713Y364228D01*
X-98785713Y364228D02*
X-98690475Y411847D01*
X-98690475Y411847D02*
X-98547618Y411847D01*
X-98547618Y411847D02*
X-98452380Y364228D01*
X-98071427Y411847D02*
X-97880951Y-254819D01*
X-97880951Y-254819D02*
X-97690475Y221371D01*
X-97690475Y221371D02*
X-97499999Y-254819D01*
X-97499999Y-254819D02*
X-97309523Y411847D01*
X-96928570Y-254819D02*
X-96928570Y411847D01*
X-96928570Y745180D02*
X-96976189Y697561D01*
X-96976189Y697561D02*
X-96928570Y649942D01*
X-96928570Y649942D02*
X-96880951Y697561D01*
X-96880951Y697561D02*
X-96928570Y745180D01*
X-96928570Y745180D02*
X-96928570Y649942D01*
X-96595237Y411847D02*
X-96214285Y411847D01*
X-96452380Y745180D02*
X-96452380Y-111961D01*
X-96452380Y-111961D02*
X-96404761Y-207200D01*
X-96404761Y-207200D02*
X-96309523Y-254819D01*
X-96309523Y-254819D02*
X-96214285Y-254819D01*
X-95452380Y-207200D02*
X-95547618Y-254819D01*
X-95547618Y-254819D02*
X-95738094Y-254819D01*
X-95738094Y-254819D02*
X-95833332Y-207200D01*
X-95833332Y-207200D02*
X-95880951Y-159580D01*
X-95880951Y-159580D02*
X-95928570Y-64342D01*
X-95928570Y-64342D02*
X-95928570Y221371D01*
X-95928570Y221371D02*
X-95880951Y316609D01*
X-95880951Y316609D02*
X-95833332Y364228D01*
X-95833332Y364228D02*
X-95738094Y411847D01*
X-95738094Y411847D02*
X-95547618Y411847D01*
X-95547618Y411847D02*
X-95452380Y364228D01*
X-95023808Y-254819D02*
X-95023808Y745180D01*
X-94595237Y-254819D02*
X-94595237Y268990D01*
X-94595237Y268990D02*
X-94642856Y364228D01*
X-94642856Y364228D02*
X-94738094Y411847D01*
X-94738094Y411847D02*
X-94880951Y411847D01*
X-94880951Y411847D02*
X-94976189Y364228D01*
X-94976189Y364228D02*
X-95023808Y316609D01*
X-98761904Y8792800D02*
X-98619047Y8745180D01*
X-98619047Y8745180D02*
X-98380952Y8745180D01*
X-98380952Y8745180D02*
X-98285714Y8792800D01*
X-98285714Y8792800D02*
X-98238095Y8840419D01*
X-98238095Y8840419D02*
X-98190476Y8935657D01*
X-98190476Y8935657D02*
X-98190476Y9030895D01*
X-98190476Y9030895D02*
X-98238095Y9126133D01*
X-98238095Y9126133D02*
X-98285714Y9173752D01*
X-98285714Y9173752D02*
X-98380952Y9221371D01*
X-98380952Y9221371D02*
X-98571428Y9268990D01*
X-98571428Y9268990D02*
X-98666666Y9316609D01*
X-98666666Y9316609D02*
X-98714285Y9364228D01*
X-98714285Y9364228D02*
X-98761904Y9459466D01*
X-98761904Y9459466D02*
X-98761904Y9554704D01*
X-98761904Y9554704D02*
X-98714285Y9649942D01*
X-98714285Y9649942D02*
X-98666666Y9697561D01*
X-98666666Y9697561D02*
X-98571428Y9745180D01*
X-98571428Y9745180D02*
X-98333333Y9745180D01*
X-98333333Y9745180D02*
X-98190476Y9697561D01*
X-97238095Y8745180D02*
X-97809523Y8745180D01*
X-97523809Y8745180D02*
X-97523809Y9745180D01*
X-97523809Y9745180D02*
X-97619047Y9602323D01*
X-97619047Y9602323D02*
X-97714285Y9507085D01*
X-97714285Y9507085D02*
X-97809523Y9459466D01*
X112095238Y-254819D02*
X112095238Y745180D01*
X112666666Y-254819D02*
X112238095Y316609D01*
X112666666Y745180D02*
X112095238Y173752D01*
X113476190Y-207200D02*
X113380952Y-254819D01*
X113380952Y-254819D02*
X113190476Y-254819D01*
X113190476Y-254819D02*
X113095238Y-207200D01*
X113095238Y-207200D02*
X113047619Y-111961D01*
X113047619Y-111961D02*
X113047619Y268990D01*
X113047619Y268990D02*
X113095238Y364228D01*
X113095238Y364228D02*
X113190476Y411847D01*
X113190476Y411847D02*
X113380952Y411847D01*
X113380952Y411847D02*
X113476190Y364228D01*
X113476190Y364228D02*
X113523809Y268990D01*
X113523809Y268990D02*
X113523809Y173752D01*
X113523809Y173752D02*
X113047619Y78514D01*
X113857143Y411847D02*
X114095238Y-254819D01*
X114333333Y411847D02*
X114095238Y-254819D01*
X114095238Y-254819D02*
X114000000Y-492914D01*
X114000000Y-492914D02*
X113952381Y-540533D01*
X113952381Y-540533D02*
X113857143Y-588152D01*
X114666667Y-207200D02*
X114761905Y-254819D01*
X114761905Y-254819D02*
X114952381Y-254819D01*
X114952381Y-254819D02*
X115047619Y-207200D01*
X115047619Y-207200D02*
X115095238Y-111961D01*
X115095238Y-111961D02*
X115095238Y-64342D01*
X115095238Y-64342D02*
X115047619Y30895D01*
X115047619Y30895D02*
X114952381Y78514D01*
X114952381Y78514D02*
X114809524Y78514D01*
X114809524Y78514D02*
X114714286Y126133D01*
X114714286Y126133D02*
X114666667Y221371D01*
X114666667Y221371D02*
X114666667Y268990D01*
X114666667Y268990D02*
X114714286Y364228D01*
X114714286Y364228D02*
X114809524Y411847D01*
X114809524Y411847D02*
X114952381Y411847D01*
X114952381Y411847D02*
X115047619Y364228D01*
X115428572Y411847D02*
X115619048Y-254819D01*
X115619048Y-254819D02*
X115809524Y221371D01*
X115809524Y221371D02*
X116000000Y-254819D01*
X116000000Y-254819D02*
X116190476Y411847D01*
X116571429Y-254819D02*
X116571429Y411847D01*
X116571429Y745180D02*
X116523810Y697561D01*
X116523810Y697561D02*
X116571429Y649942D01*
X116571429Y649942D02*
X116619048Y697561D01*
X116619048Y697561D02*
X116571429Y745180D01*
X116571429Y745180D02*
X116571429Y649942D01*
X116904762Y411847D02*
X117285714Y411847D01*
X117047619Y745180D02*
X117047619Y-111961D01*
X117047619Y-111961D02*
X117095238Y-207200D01*
X117095238Y-207200D02*
X117190476Y-254819D01*
X117190476Y-254819D02*
X117285714Y-254819D01*
X118047619Y-207200D02*
X117952381Y-254819D01*
X117952381Y-254819D02*
X117761905Y-254819D01*
X117761905Y-254819D02*
X117666667Y-207200D01*
X117666667Y-207200D02*
X117619048Y-159580D01*
X117619048Y-159580D02*
X117571429Y-64342D01*
X117571429Y-64342D02*
X117571429Y221371D01*
X117571429Y221371D02*
X117619048Y316609D01*
X117619048Y316609D02*
X117666667Y364228D01*
X117666667Y364228D02*
X117761905Y411847D01*
X117761905Y411847D02*
X117952381Y411847D01*
X117952381Y411847D02*
X118047619Y364228D01*
X118476191Y-254819D02*
X118476191Y745180D01*
X118904762Y-254819D02*
X118904762Y268990D01*
X118904762Y268990D02*
X118857143Y364228D01*
X118857143Y364228D02*
X118761905Y411847D01*
X118761905Y411847D02*
X118619048Y411847D01*
X118619048Y411847D02*
X118523810Y364228D01*
X118523810Y364228D02*
X118476191Y316609D01*
X114261905Y8792800D02*
X114404762Y8745180D01*
X114404762Y8745180D02*
X114642857Y8745180D01*
X114642857Y8745180D02*
X114738095Y8792800D01*
X114738095Y8792800D02*
X114785714Y8840419D01*
X114785714Y8840419D02*
X114833333Y8935657D01*
X114833333Y8935657D02*
X114833333Y9030895D01*
X114833333Y9030895D02*
X114785714Y9126133D01*
X114785714Y9126133D02*
X114738095Y9173752D01*
X114738095Y9173752D02*
X114642857Y9221371D01*
X114642857Y9221371D02*
X114452381Y9268990D01*
X114452381Y9268990D02*
X114357143Y9316609D01*
X114357143Y9316609D02*
X114309524Y9364228D01*
X114309524Y9364228D02*
X114261905Y9459466D01*
X114261905Y9459466D02*
X114261905Y9554704D01*
X114261905Y9554704D02*
X114309524Y9649942D01*
X114309524Y9649942D02*
X114357143Y9697561D01*
X114357143Y9697561D02*
X114452381Y9745180D01*
X114452381Y9745180D02*
X114690476Y9745180D01*
X114690476Y9745180D02*
X114833333Y9697561D01*
X115785714Y8745180D02*
X115214286Y8745180D01*
X115500000Y8745180D02*
X115500000Y9745180D01*
X115500000Y9745180D02*
X115404762Y9602323D01*
X115404762Y9602323D02*
X115309524Y9507085D01*
X115309524Y9507085D02*
X115214286Y9459466D01*
X116738095Y8745180D02*
X116166667Y8745180D01*
X116452381Y8745180D02*
X116452381Y9745180D01*
X116452381Y9745180D02*
X116357143Y9602323D01*
X116357143Y9602323D02*
X116261905Y9507085D01*
X116261905Y9507085D02*
X116166667Y9459466D01*
X-44404761Y-18254819D02*
X-44404761Y-17254819D01*
X-43833333Y-18254819D02*
X-44261904Y-17683390D01*
X-43833333Y-17254819D02*
X-44404761Y-17826247D01*
X-43023809Y-18207200D02*
X-43119047Y-18254819D01*
X-43119047Y-18254819D02*
X-43309523Y-18254819D01*
X-43309523Y-18254819D02*
X-43404761Y-18207200D01*
X-43404761Y-18207200D02*
X-43452380Y-18111961D01*
X-43452380Y-18111961D02*
X-43452380Y-17731009D01*
X-43452380Y-17731009D02*
X-43404761Y-17635771D01*
X-43404761Y-17635771D02*
X-43309523Y-17588152D01*
X-43309523Y-17588152D02*
X-43119047Y-17588152D01*
X-43119047Y-17588152D02*
X-43023809Y-17635771D01*
X-43023809Y-17635771D02*
X-42976190Y-17731009D01*
X-42976190Y-17731009D02*
X-42976190Y-17826247D01*
X-42976190Y-17826247D02*
X-43452380Y-17921485D01*
X-42642856Y-17588152D02*
X-42404761Y-18254819D01*
X-42166666Y-17588152D02*
X-42404761Y-18254819D01*
X-42404761Y-18254819D02*
X-42499999Y-18492914D01*
X-42499999Y-18492914D02*
X-42547618Y-18540533D01*
X-42547618Y-18540533D02*
X-42642856Y-18588152D01*
X-41833332Y-18207200D02*
X-41738094Y-18254819D01*
X-41738094Y-18254819D02*
X-41547618Y-18254819D01*
X-41547618Y-18254819D02*
X-41452380Y-18207200D01*
X-41452380Y-18207200D02*
X-41404761Y-18111961D01*
X-41404761Y-18111961D02*
X-41404761Y-18064342D01*
X-41404761Y-18064342D02*
X-41452380Y-17969104D01*
X-41452380Y-17969104D02*
X-41547618Y-17921485D01*
X-41547618Y-17921485D02*
X-41690475Y-17921485D01*
X-41690475Y-17921485D02*
X-41785713Y-17873866D01*
X-41785713Y-17873866D02*
X-41833332Y-17778628D01*
X-41833332Y-17778628D02*
X-41833332Y-17731009D01*
X-41833332Y-17731009D02*
X-41785713Y-17635771D01*
X-41785713Y-17635771D02*
X-41690475Y-17588152D01*
X-41690475Y-17588152D02*
X-41547618Y-17588152D01*
X-41547618Y-17588152D02*
X-41452380Y-17635771D01*
X-41071427Y-17588152D02*
X-40880951Y-18254819D01*
X-40880951Y-18254819D02*
X-40690475Y-17778628D01*
X-40690475Y-17778628D02*
X-40499999Y-18254819D01*
X-40499999Y-18254819D02*
X-40309523Y-17588152D01*
X-39928570Y-18254819D02*
X-39928570Y-17588152D01*
X-39928570Y-17254819D02*
X-39976189Y-17302438D01*
X-39976189Y-17302438D02*
X-39928570Y-17350057D01*
X-39928570Y-17350057D02*
X-39880951Y-17302438D01*
X-39880951Y-17302438D02*
X-39928570Y-17254819D01*
X-39928570Y-17254819D02*
X-39928570Y-17350057D01*
X-39595237Y-17588152D02*
X-39214285Y-17588152D01*
X-39452380Y-17254819D02*
X-39452380Y-18111961D01*
X-39452380Y-18111961D02*
X-39404761Y-18207200D01*
X-39404761Y-18207200D02*
X-39309523Y-18254819D01*
X-39309523Y-18254819D02*
X-39214285Y-18254819D01*
X-38452380Y-18207200D02*
X-38547618Y-18254819D01*
X-38547618Y-18254819D02*
X-38738094Y-18254819D01*
X-38738094Y-18254819D02*
X-38833332Y-18207200D01*
X-38833332Y-18207200D02*
X-38880951Y-18159580D01*
X-38880951Y-18159580D02*
X-38928570Y-18064342D01*
X-38928570Y-18064342D02*
X-38928570Y-17778628D01*
X-38928570Y-17778628D02*
X-38880951Y-17683390D01*
X-38880951Y-17683390D02*
X-38833332Y-17635771D01*
X-38833332Y-17635771D02*
X-38738094Y-17588152D01*
X-38738094Y-17588152D02*
X-38547618Y-17588152D01*
X-38547618Y-17588152D02*
X-38452380Y-17635771D01*
X-38023808Y-18254819D02*
X-38023808Y-17254819D01*
X-37595237Y-18254819D02*
X-37595237Y-17731009D01*
X-37595237Y-17731009D02*
X-37642856Y-17635771D01*
X-37642856Y-17635771D02*
X-37738094Y-17588152D01*
X-37738094Y-17588152D02*
X-37880951Y-17588152D01*
X-37880951Y-17588152D02*
X-37976189Y-17635771D01*
X-37976189Y-17635771D02*
X-38023808Y-17683390D01*
X-42238094Y-9207200D02*
X-42095237Y-9254819D01*
X-42095237Y-9254819D02*
X-41857142Y-9254819D01*
X-41857142Y-9254819D02*
X-41761904Y-9207200D01*
X-41761904Y-9207200D02*
X-41714285Y-9159580D01*
X-41714285Y-9159580D02*
X-41666666Y-9064342D01*
X-41666666Y-9064342D02*
X-41666666Y-8969104D01*
X-41666666Y-8969104D02*
X-41714285Y-8873866D01*
X-41714285Y-8873866D02*
X-41761904Y-8826247D01*
X-41761904Y-8826247D02*
X-41857142Y-8778628D01*
X-41857142Y-8778628D02*
X-42047618Y-8731009D01*
X-42047618Y-8731009D02*
X-42142856Y-8683390D01*
X-42142856Y-8683390D02*
X-42190475Y-8635771D01*
X-42190475Y-8635771D02*
X-42238094Y-8540533D01*
X-42238094Y-8540533D02*
X-42238094Y-8445295D01*
X-42238094Y-8445295D02*
X-42190475Y-8350057D01*
X-42190475Y-8350057D02*
X-42142856Y-8302438D01*
X-42142856Y-8302438D02*
X-42047618Y-8254819D01*
X-42047618Y-8254819D02*
X-41809523Y-8254819D01*
X-41809523Y-8254819D02*
X-41666666Y-8302438D01*
X-40714285Y-9254819D02*
X-41285713Y-9254819D01*
X-40999999Y-9254819D02*
X-40999999Y-8254819D01*
X-40999999Y-8254819D02*
X-41095237Y-8397676D01*
X-41095237Y-8397676D02*
X-41190475Y-8492914D01*
X-41190475Y-8492914D02*
X-41285713Y-8540533D01*
X-39809523Y-8254819D02*
X-40285713Y-8254819D01*
X-40285713Y-8254819D02*
X-40333332Y-8731009D01*
X-40333332Y-8731009D02*
X-40285713Y-8683390D01*
X-40285713Y-8683390D02*
X-40190475Y-8635771D01*
X-40190475Y-8635771D02*
X-39952380Y-8635771D01*
X-39952380Y-8635771D02*
X-39857142Y-8683390D01*
X-39857142Y-8683390D02*
X-39809523Y-8731009D01*
X-39809523Y-8731009D02*
X-39761904Y-8826247D01*
X-39761904Y-8826247D02*
X-39761904Y-9064342D01*
X-39761904Y-9064342D02*
X-39809523Y-9159580D01*
X-39809523Y-9159580D02*
X-39857142Y-9207200D01*
X-39857142Y-9207200D02*
X-39952380Y-9254819D01*
X-39952380Y-9254819D02*
X-40190475Y-9254819D01*
X-40190475Y-9254819D02*
X-40285713Y-9207200D01*
X-40285713Y-9207200D02*
X-40333332Y-9159580D01*
X94595238Y-254819D02*
X94595238Y745180D01*
X95166666Y-254819D02*
X94738095Y316609D01*
X95166666Y745180D02*
X94595238Y173752D01*
X95976190Y-207200D02*
X95880952Y-254819D01*
X95880952Y-254819D02*
X95690476Y-254819D01*
X95690476Y-254819D02*
X95595238Y-207200D01*
X95595238Y-207200D02*
X95547619Y-111961D01*
X95547619Y-111961D02*
X95547619Y268990D01*
X95547619Y268990D02*
X95595238Y364228D01*
X95595238Y364228D02*
X95690476Y411847D01*
X95690476Y411847D02*
X95880952Y411847D01*
X95880952Y411847D02*
X95976190Y364228D01*
X95976190Y364228D02*
X96023809Y268990D01*
X96023809Y268990D02*
X96023809Y173752D01*
X96023809Y173752D02*
X95547619Y78514D01*
X96357143Y411847D02*
X96595238Y-254819D01*
X96833333Y411847D02*
X96595238Y-254819D01*
X96595238Y-254819D02*
X96500000Y-492914D01*
X96500000Y-492914D02*
X96452381Y-540533D01*
X96452381Y-540533D02*
X96357143Y-588152D01*
X97166667Y-207200D02*
X97261905Y-254819D01*
X97261905Y-254819D02*
X97452381Y-254819D01*
X97452381Y-254819D02*
X97547619Y-207200D01*
X97547619Y-207200D02*
X97595238Y-111961D01*
X97595238Y-111961D02*
X97595238Y-64342D01*
X97595238Y-64342D02*
X97547619Y30895D01*
X97547619Y30895D02*
X97452381Y78514D01*
X97452381Y78514D02*
X97309524Y78514D01*
X97309524Y78514D02*
X97214286Y126133D01*
X97214286Y126133D02*
X97166667Y221371D01*
X97166667Y221371D02*
X97166667Y268990D01*
X97166667Y268990D02*
X97214286Y364228D01*
X97214286Y364228D02*
X97309524Y411847D01*
X97309524Y411847D02*
X97452381Y411847D01*
X97452381Y411847D02*
X97547619Y364228D01*
X97928572Y411847D02*
X98119048Y-254819D01*
X98119048Y-254819D02*
X98309524Y221371D01*
X98309524Y221371D02*
X98500000Y-254819D01*
X98500000Y-254819D02*
X98690476Y411847D01*
X99071429Y-254819D02*
X99071429Y411847D01*
X99071429Y745180D02*
X99023810Y697561D01*
X99023810Y697561D02*
X99071429Y649942D01*
X99071429Y649942D02*
X99119048Y697561D01*
X99119048Y697561D02*
X99071429Y745180D01*
X99071429Y745180D02*
X99071429Y649942D01*
X99404762Y411847D02*
X99785714Y411847D01*
X99547619Y745180D02*
X99547619Y-111961D01*
X99547619Y-111961D02*
X99595238Y-207200D01*
X99595238Y-207200D02*
X99690476Y-254819D01*
X99690476Y-254819D02*
X99785714Y-254819D01*
X100547619Y-207200D02*
X100452381Y-254819D01*
X100452381Y-254819D02*
X100261905Y-254819D01*
X100261905Y-254819D02*
X100166667Y-207200D01*
X100166667Y-207200D02*
X100119048Y-159580D01*
X100119048Y-159580D02*
X100071429Y-64342D01*
X100071429Y-64342D02*
X100071429Y221371D01*
X100071429Y221371D02*
X100119048Y316609D01*
X100119048Y316609D02*
X100166667Y364228D01*
X100166667Y364228D02*
X100261905Y411847D01*
X100261905Y411847D02*
X100452381Y411847D01*
X100452381Y411847D02*
X100547619Y364228D01*
X100976191Y-254819D02*
X100976191Y745180D01*
X101404762Y-254819D02*
X101404762Y268990D01*
X101404762Y268990D02*
X101357143Y364228D01*
X101357143Y364228D02*
X101261905Y411847D01*
X101261905Y411847D02*
X101119048Y411847D01*
X101119048Y411847D02*
X101023810Y364228D01*
X101023810Y364228D02*
X100976191Y316609D01*
X96761905Y8792800D02*
X96904762Y8745180D01*
X96904762Y8745180D02*
X97142857Y8745180D01*
X97142857Y8745180D02*
X97238095Y8792800D01*
X97238095Y8792800D02*
X97285714Y8840419D01*
X97285714Y8840419D02*
X97333333Y8935657D01*
X97333333Y8935657D02*
X97333333Y9030895D01*
X97333333Y9030895D02*
X97285714Y9126133D01*
X97285714Y9126133D02*
X97238095Y9173752D01*
X97238095Y9173752D02*
X97142857Y9221371D01*
X97142857Y9221371D02*
X96952381Y9268990D01*
X96952381Y9268990D02*
X96857143Y9316609D01*
X96857143Y9316609D02*
X96809524Y9364228D01*
X96809524Y9364228D02*
X96761905Y9459466D01*
X96761905Y9459466D02*
X96761905Y9554704D01*
X96761905Y9554704D02*
X96809524Y9649942D01*
X96809524Y9649942D02*
X96857143Y9697561D01*
X96857143Y9697561D02*
X96952381Y9745180D01*
X96952381Y9745180D02*
X97190476Y9745180D01*
X97190476Y9745180D02*
X97333333Y9697561D01*
X98285714Y8745180D02*
X97714286Y8745180D01*
X98000000Y8745180D02*
X98000000Y9745180D01*
X98000000Y9745180D02*
X97904762Y9602323D01*
X97904762Y9602323D02*
X97809524Y9507085D01*
X97809524Y9507085D02*
X97714286Y9459466D01*
X98904762Y9745180D02*
X99000000Y9745180D01*
X99000000Y9745180D02*
X99095238Y9697561D01*
X99095238Y9697561D02*
X99142857Y9649942D01*
X99142857Y9649942D02*
X99190476Y9554704D01*
X99190476Y9554704D02*
X99238095Y9364228D01*
X99238095Y9364228D02*
X99238095Y9126133D01*
X99238095Y9126133D02*
X99190476Y8935657D01*
X99190476Y8935657D02*
X99142857Y8840419D01*
X99142857Y8840419D02*
X99095238Y8792800D01*
X99095238Y8792800D02*
X99000000Y8745180D01*
X99000000Y8745180D02*
X98904762Y8745180D01*
X98904762Y8745180D02*
X98809524Y8792800D01*
X98809524Y8792800D02*
X98761905Y8840419D01*
X98761905Y8840419D02*
X98714286Y8935657D01*
X98714286Y8935657D02*
X98666667Y9126133D01*
X98666667Y9126133D02*
X98666667Y9364228D01*
X98666667Y9364228D02*
X98714286Y9554704D01*
X98714286Y9554704D02*
X98761905Y9649942D01*
X98761905Y9649942D02*
X98809524Y9697561D01*
X98809524Y9697561D02*
X98904762Y9745180D01*
X112095238Y-18254819D02*
X112095238Y-17254819D01*
X112666666Y-18254819D02*
X112238095Y-17683390D01*
X112666666Y-17254819D02*
X112095238Y-17826247D01*
X113476190Y-18207200D02*
X113380952Y-18254819D01*
X113380952Y-18254819D02*
X113190476Y-18254819D01*
X113190476Y-18254819D02*
X113095238Y-18207200D01*
X113095238Y-18207200D02*
X113047619Y-18111961D01*
X113047619Y-18111961D02*
X113047619Y-17731009D01*
X113047619Y-17731009D02*
X113095238Y-17635771D01*
X113095238Y-17635771D02*
X113190476Y-17588152D01*
X113190476Y-17588152D02*
X113380952Y-17588152D01*
X113380952Y-17588152D02*
X113476190Y-17635771D01*
X113476190Y-17635771D02*
X113523809Y-17731009D01*
X113523809Y-17731009D02*
X113523809Y-17826247D01*
X113523809Y-17826247D02*
X113047619Y-17921485D01*
X113857143Y-17588152D02*
X114095238Y-18254819D01*
X114333333Y-17588152D02*
X114095238Y-18254819D01*
X114095238Y-18254819D02*
X114000000Y-18492914D01*
X114000000Y-18492914D02*
X113952381Y-18540533D01*
X113952381Y-18540533D02*
X113857143Y-18588152D01*
X114666667Y-18207200D02*
X114761905Y-18254819D01*
X114761905Y-18254819D02*
X114952381Y-18254819D01*
X114952381Y-18254819D02*
X115047619Y-18207200D01*
X115047619Y-18207200D02*
X115095238Y-18111961D01*
X115095238Y-18111961D02*
X115095238Y-18064342D01*
X115095238Y-18064342D02*
X115047619Y-17969104D01*
X115047619Y-17969104D02*
X114952381Y-17921485D01*
X114952381Y-17921485D02*
X114809524Y-17921485D01*
X114809524Y-17921485D02*
X114714286Y-17873866D01*
X114714286Y-17873866D02*
X114666667Y-17778628D01*
X114666667Y-17778628D02*
X114666667Y-17731009D01*
X114666667Y-17731009D02*
X114714286Y-17635771D01*
X114714286Y-17635771D02*
X114809524Y-17588152D01*
X114809524Y-17588152D02*
X114952381Y-17588152D01*
X114952381Y-17588152D02*
X115047619Y-17635771D01*
X115428572Y-17588152D02*
X115619048Y-18254819D01*
X115619048Y-18254819D02*
X115809524Y-17778628D01*
X115809524Y-17778628D02*
X116000000Y-18254819D01*
X116000000Y-18254819D02*
X116190476Y-17588152D01*
X116571429Y-18254819D02*
X116571429Y-17588152D01*
X116571429Y-17254819D02*
X116523810Y-17302438D01*
X116523810Y-17302438D02*
X116571429Y-17350057D01*
X116571429Y-17350057D02*
X116619048Y-17302438D01*
X116619048Y-17302438D02*
X116571429Y-17254819D01*
X116571429Y-17254819D02*
X116571429Y-17350057D01*
X116904762Y-17588152D02*
X117285714Y-17588152D01*
X117047619Y-17254819D02*
X117047619Y-18111961D01*
X117047619Y-18111961D02*
X117095238Y-18207200D01*
X117095238Y-18207200D02*
X117190476Y-18254819D01*
X117190476Y-18254819D02*
X117285714Y-18254819D01*
X118047619Y-18207200D02*
X117952381Y-18254819D01*
X117952381Y-18254819D02*
X117761905Y-18254819D01*
X117761905Y-18254819D02*
X117666667Y-18207200D01*
X117666667Y-18207200D02*
X117619048Y-18159580D01*
X117619048Y-18159580D02*
X117571429Y-18064342D01*
X117571429Y-18064342D02*
X117571429Y-17778628D01*
X117571429Y-17778628D02*
X117619048Y-17683390D01*
X117619048Y-17683390D02*
X117666667Y-17635771D01*
X117666667Y-17635771D02*
X117761905Y-17588152D01*
X117761905Y-17588152D02*
X117952381Y-17588152D01*
X117952381Y-17588152D02*
X118047619Y-17635771D01*
X118476191Y-18254819D02*
X118476191Y-17254819D01*
X118904762Y-18254819D02*
X118904762Y-17731009D01*
X118904762Y-17731009D02*
X118857143Y-17635771D01*
X118857143Y-17635771D02*
X118761905Y-17588152D01*
X118761905Y-17588152D02*
X118619048Y-17588152D01*
X118619048Y-17588152D02*
X118523810Y-17635771D01*
X118523810Y-17635771D02*
X118476191Y-17683390D01*
X114261905Y-9207200D02*
X114404762Y-9254819D01*
X114404762Y-9254819D02*
X114642857Y-9254819D01*
X114642857Y-9254819D02*
X114738095Y-9207200D01*
X114738095Y-9207200D02*
X114785714Y-9159580D01*
X114785714Y-9159580D02*
X114833333Y-9064342D01*
X114833333Y-9064342D02*
X114833333Y-8969104D01*
X114833333Y-8969104D02*
X114785714Y-8873866D01*
X114785714Y-8873866D02*
X114738095Y-8826247D01*
X114738095Y-8826247D02*
X114642857Y-8778628D01*
X114642857Y-8778628D02*
X114452381Y-8731009D01*
X114452381Y-8731009D02*
X114357143Y-8683390D01*
X114357143Y-8683390D02*
X114309524Y-8635771D01*
X114309524Y-8635771D02*
X114261905Y-8540533D01*
X114261905Y-8540533D02*
X114261905Y-8445295D01*
X114261905Y-8445295D02*
X114309524Y-8350057D01*
X114309524Y-8350057D02*
X114357143Y-8302438D01*
X114357143Y-8302438D02*
X114452381Y-8254819D01*
X114452381Y-8254819D02*
X114690476Y-8254819D01*
X114690476Y-8254819D02*
X114833333Y-8302438D01*
X115214286Y-8350057D02*
X115261905Y-8302438D01*
X115261905Y-8302438D02*
X115357143Y-8254819D01*
X115357143Y-8254819D02*
X115595238Y-8254819D01*
X115595238Y-8254819D02*
X115690476Y-8302438D01*
X115690476Y-8302438D02*
X115738095Y-8350057D01*
X115738095Y-8350057D02*
X115785714Y-8445295D01*
X115785714Y-8445295D02*
X115785714Y-8540533D01*
X115785714Y-8540533D02*
X115738095Y-8683390D01*
X115738095Y-8683390D02*
X115166667Y-9254819D01*
X115166667Y-9254819D02*
X115785714Y-9254819D01*
X116166667Y-8350057D02*
X116214286Y-8302438D01*
X116214286Y-8302438D02*
X116309524Y-8254819D01*
X116309524Y-8254819D02*
X116547619Y-8254819D01*
X116547619Y-8254819D02*
X116642857Y-8302438D01*
X116642857Y-8302438D02*
X116690476Y-8350057D01*
X116690476Y-8350057D02*
X116738095Y-8445295D01*
X116738095Y-8445295D02*
X116738095Y-8540533D01*
X116738095Y-8540533D02*
X116690476Y-8683390D01*
X116690476Y-8683390D02*
X116119048Y-9254819D01*
X116119048Y-9254819D02*
X116738095Y-9254819D01*
X18595238Y-254819D02*
X18595238Y745180D01*
X19166666Y-254819D02*
X18738095Y316609D01*
X19166666Y745180D02*
X18595238Y173752D01*
X19976190Y-207200D02*
X19880952Y-254819D01*
X19880952Y-254819D02*
X19690476Y-254819D01*
X19690476Y-254819D02*
X19595238Y-207200D01*
X19595238Y-207200D02*
X19547619Y-111961D01*
X19547619Y-111961D02*
X19547619Y268990D01*
X19547619Y268990D02*
X19595238Y364228D01*
X19595238Y364228D02*
X19690476Y411847D01*
X19690476Y411847D02*
X19880952Y411847D01*
X19880952Y411847D02*
X19976190Y364228D01*
X19976190Y364228D02*
X20023809Y268990D01*
X20023809Y268990D02*
X20023809Y173752D01*
X20023809Y173752D02*
X19547619Y78514D01*
X20357143Y411847D02*
X20595238Y-254819D01*
X20833333Y411847D02*
X20595238Y-254819D01*
X20595238Y-254819D02*
X20500000Y-492914D01*
X20500000Y-492914D02*
X20452381Y-540533D01*
X20452381Y-540533D02*
X20357143Y-588152D01*
X21166667Y-207200D02*
X21261905Y-254819D01*
X21261905Y-254819D02*
X21452381Y-254819D01*
X21452381Y-254819D02*
X21547619Y-207200D01*
X21547619Y-207200D02*
X21595238Y-111961D01*
X21595238Y-111961D02*
X21595238Y-64342D01*
X21595238Y-64342D02*
X21547619Y30895D01*
X21547619Y30895D02*
X21452381Y78514D01*
X21452381Y78514D02*
X21309524Y78514D01*
X21309524Y78514D02*
X21214286Y126133D01*
X21214286Y126133D02*
X21166667Y221371D01*
X21166667Y221371D02*
X21166667Y268990D01*
X21166667Y268990D02*
X21214286Y364228D01*
X21214286Y364228D02*
X21309524Y411847D01*
X21309524Y411847D02*
X21452381Y411847D01*
X21452381Y411847D02*
X21547619Y364228D01*
X21928572Y411847D02*
X22119048Y-254819D01*
X22119048Y-254819D02*
X22309524Y221371D01*
X22309524Y221371D02*
X22500000Y-254819D01*
X22500000Y-254819D02*
X22690476Y411847D01*
X23071429Y-254819D02*
X23071429Y411847D01*
X23071429Y745180D02*
X23023810Y697561D01*
X23023810Y697561D02*
X23071429Y649942D01*
X23071429Y649942D02*
X23119048Y697561D01*
X23119048Y697561D02*
X23071429Y745180D01*
X23071429Y745180D02*
X23071429Y649942D01*
X23404762Y411847D02*
X23785714Y411847D01*
X23547619Y745180D02*
X23547619Y-111961D01*
X23547619Y-111961D02*
X23595238Y-207200D01*
X23595238Y-207200D02*
X23690476Y-254819D01*
X23690476Y-254819D02*
X23785714Y-254819D01*
X24547619Y-207200D02*
X24452381Y-254819D01*
X24452381Y-254819D02*
X24261905Y-254819D01*
X24261905Y-254819D02*
X24166667Y-207200D01*
X24166667Y-207200D02*
X24119048Y-159580D01*
X24119048Y-159580D02*
X24071429Y-64342D01*
X24071429Y-64342D02*
X24071429Y221371D01*
X24071429Y221371D02*
X24119048Y316609D01*
X24119048Y316609D02*
X24166667Y364228D01*
X24166667Y364228D02*
X24261905Y411847D01*
X24261905Y411847D02*
X24452381Y411847D01*
X24452381Y411847D02*
X24547619Y364228D01*
X24976191Y-254819D02*
X24976191Y745180D01*
X25404762Y-254819D02*
X25404762Y268990D01*
X25404762Y268990D02*
X25357143Y364228D01*
X25357143Y364228D02*
X25261905Y411847D01*
X25261905Y411847D02*
X25119048Y411847D01*
X25119048Y411847D02*
X25023810Y364228D01*
X25023810Y364228D02*
X24976191Y316609D01*
X21238095Y8792800D02*
X21380952Y8745180D01*
X21380952Y8745180D02*
X21619047Y8745180D01*
X21619047Y8745180D02*
X21714285Y8792800D01*
X21714285Y8792800D02*
X21761904Y8840419D01*
X21761904Y8840419D02*
X21809523Y8935657D01*
X21809523Y8935657D02*
X21809523Y9030895D01*
X21809523Y9030895D02*
X21761904Y9126133D01*
X21761904Y9126133D02*
X21714285Y9173752D01*
X21714285Y9173752D02*
X21619047Y9221371D01*
X21619047Y9221371D02*
X21428571Y9268990D01*
X21428571Y9268990D02*
X21333333Y9316609D01*
X21333333Y9316609D02*
X21285714Y9364228D01*
X21285714Y9364228D02*
X21238095Y9459466D01*
X21238095Y9459466D02*
X21238095Y9554704D01*
X21238095Y9554704D02*
X21285714Y9649942D01*
X21285714Y9649942D02*
X21333333Y9697561D01*
X21333333Y9697561D02*
X21428571Y9745180D01*
X21428571Y9745180D02*
X21666666Y9745180D01*
X21666666Y9745180D02*
X21809523Y9697561D01*
X22666666Y9745180D02*
X22476190Y9745180D01*
X22476190Y9745180D02*
X22380952Y9697561D01*
X22380952Y9697561D02*
X22333333Y9649942D01*
X22333333Y9649942D02*
X22238095Y9507085D01*
X22238095Y9507085D02*
X22190476Y9316609D01*
X22190476Y9316609D02*
X22190476Y8935657D01*
X22190476Y8935657D02*
X22238095Y8840419D01*
X22238095Y8840419D02*
X22285714Y8792800D01*
X22285714Y8792800D02*
X22380952Y8745180D01*
X22380952Y8745180D02*
X22571428Y8745180D01*
X22571428Y8745180D02*
X22666666Y8792800D01*
X22666666Y8792800D02*
X22714285Y8840419D01*
X22714285Y8840419D02*
X22761904Y8935657D01*
X22761904Y8935657D02*
X22761904Y9173752D01*
X22761904Y9173752D02*
X22714285Y9268990D01*
X22714285Y9268990D02*
X22666666Y9316609D01*
X22666666Y9316609D02*
X22571428Y9364228D01*
X22571428Y9364228D02*
X22380952Y9364228D01*
X22380952Y9364228D02*
X22285714Y9316609D01*
X22285714Y9316609D02*
X22238095Y9268990D01*
X22238095Y9268990D02*
X22190476Y9173752D01*
X-44404761Y-50454819D02*
X-44404761Y-49454819D01*
X-43833333Y-50454819D02*
X-44261904Y-49883390D01*
X-43833333Y-49454819D02*
X-44404761Y-50026247D01*
X-43023809Y-50407200D02*
X-43119047Y-50454819D01*
X-43119047Y-50454819D02*
X-43309523Y-50454819D01*
X-43309523Y-50454819D02*
X-43404761Y-50407200D01*
X-43404761Y-50407200D02*
X-43452380Y-50311961D01*
X-43452380Y-50311961D02*
X-43452380Y-49931009D01*
X-43452380Y-49931009D02*
X-43404761Y-49835771D01*
X-43404761Y-49835771D02*
X-43309523Y-49788152D01*
X-43309523Y-49788152D02*
X-43119047Y-49788152D01*
X-43119047Y-49788152D02*
X-43023809Y-49835771D01*
X-43023809Y-49835771D02*
X-42976190Y-49931009D01*
X-42976190Y-49931009D02*
X-42976190Y-50026247D01*
X-42976190Y-50026247D02*
X-43452380Y-50121485D01*
X-42642856Y-49788152D02*
X-42404761Y-50454819D01*
X-42166666Y-49788152D02*
X-42404761Y-50454819D01*
X-42404761Y-50454819D02*
X-42499999Y-50692914D01*
X-42499999Y-50692914D02*
X-42547618Y-50740533D01*
X-42547618Y-50740533D02*
X-42642856Y-50788152D01*
X-41833332Y-50407200D02*
X-41738094Y-50454819D01*
X-41738094Y-50454819D02*
X-41547618Y-50454819D01*
X-41547618Y-50454819D02*
X-41452380Y-50407200D01*
X-41452380Y-50407200D02*
X-41404761Y-50311961D01*
X-41404761Y-50311961D02*
X-41404761Y-50264342D01*
X-41404761Y-50264342D02*
X-41452380Y-50169104D01*
X-41452380Y-50169104D02*
X-41547618Y-50121485D01*
X-41547618Y-50121485D02*
X-41690475Y-50121485D01*
X-41690475Y-50121485D02*
X-41785713Y-50073866D01*
X-41785713Y-50073866D02*
X-41833332Y-49978628D01*
X-41833332Y-49978628D02*
X-41833332Y-49931009D01*
X-41833332Y-49931009D02*
X-41785713Y-49835771D01*
X-41785713Y-49835771D02*
X-41690475Y-49788152D01*
X-41690475Y-49788152D02*
X-41547618Y-49788152D01*
X-41547618Y-49788152D02*
X-41452380Y-49835771D01*
X-41071427Y-49788152D02*
X-40880951Y-50454819D01*
X-40880951Y-50454819D02*
X-40690475Y-49978628D01*
X-40690475Y-49978628D02*
X-40499999Y-50454819D01*
X-40499999Y-50454819D02*
X-40309523Y-49788152D01*
X-39928570Y-50454819D02*
X-39928570Y-49788152D01*
X-39928570Y-49454819D02*
X-39976189Y-49502438D01*
X-39976189Y-49502438D02*
X-39928570Y-49550057D01*
X-39928570Y-49550057D02*
X-39880951Y-49502438D01*
X-39880951Y-49502438D02*
X-39928570Y-49454819D01*
X-39928570Y-49454819D02*
X-39928570Y-49550057D01*
X-39595237Y-49788152D02*
X-39214285Y-49788152D01*
X-39452380Y-49454819D02*
X-39452380Y-50311961D01*
X-39452380Y-50311961D02*
X-39404761Y-50407200D01*
X-39404761Y-50407200D02*
X-39309523Y-50454819D01*
X-39309523Y-50454819D02*
X-39214285Y-50454819D01*
X-38452380Y-50407200D02*
X-38547618Y-50454819D01*
X-38547618Y-50454819D02*
X-38738094Y-50454819D01*
X-38738094Y-50454819D02*
X-38833332Y-50407200D01*
X-38833332Y-50407200D02*
X-38880951Y-50359580D01*
X-38880951Y-50359580D02*
X-38928570Y-50264342D01*
X-38928570Y-50264342D02*
X-38928570Y-49978628D01*
X-38928570Y-49978628D02*
X-38880951Y-49883390D01*
X-38880951Y-49883390D02*
X-38833332Y-49835771D01*
X-38833332Y-49835771D02*
X-38738094Y-49788152D01*
X-38738094Y-49788152D02*
X-38547618Y-49788152D01*
X-38547618Y-49788152D02*
X-38452380Y-49835771D01*
X-38023808Y-50454819D02*
X-38023808Y-49454819D01*
X-37595237Y-50454819D02*
X-37595237Y-49931009D01*
X-37595237Y-49931009D02*
X-37642856Y-49835771D01*
X-37642856Y-49835771D02*
X-37738094Y-49788152D01*
X-37738094Y-49788152D02*
X-37880951Y-49788152D01*
X-37880951Y-49788152D02*
X-37976189Y-49835771D01*
X-37976189Y-49835771D02*
X-38023808Y-49883390D01*
X-42238094Y-41407200D02*
X-42095237Y-41454819D01*
X-42095237Y-41454819D02*
X-41857142Y-41454819D01*
X-41857142Y-41454819D02*
X-41761904Y-41407200D01*
X-41761904Y-41407200D02*
X-41714285Y-41359580D01*
X-41714285Y-41359580D02*
X-41666666Y-41264342D01*
X-41666666Y-41264342D02*
X-41666666Y-41169104D01*
X-41666666Y-41169104D02*
X-41714285Y-41073866D01*
X-41714285Y-41073866D02*
X-41761904Y-41026247D01*
X-41761904Y-41026247D02*
X-41857142Y-40978628D01*
X-41857142Y-40978628D02*
X-42047618Y-40931009D01*
X-42047618Y-40931009D02*
X-42142856Y-40883390D01*
X-42142856Y-40883390D02*
X-42190475Y-40835771D01*
X-42190475Y-40835771D02*
X-42238094Y-40740533D01*
X-42238094Y-40740533D02*
X-42238094Y-40645295D01*
X-42238094Y-40645295D02*
X-42190475Y-40550057D01*
X-42190475Y-40550057D02*
X-42142856Y-40502438D01*
X-42142856Y-40502438D02*
X-42047618Y-40454819D01*
X-42047618Y-40454819D02*
X-41809523Y-40454819D01*
X-41809523Y-40454819D02*
X-41666666Y-40502438D01*
X-41285713Y-40550057D02*
X-41238094Y-40502438D01*
X-41238094Y-40502438D02*
X-41142856Y-40454819D01*
X-41142856Y-40454819D02*
X-40904761Y-40454819D01*
X-40904761Y-40454819D02*
X-40809523Y-40502438D01*
X-40809523Y-40502438D02*
X-40761904Y-40550057D01*
X-40761904Y-40550057D02*
X-40714285Y-40645295D01*
X-40714285Y-40645295D02*
X-40714285Y-40740533D01*
X-40714285Y-40740533D02*
X-40761904Y-40883390D01*
X-40761904Y-40883390D02*
X-41333332Y-41454819D01*
X-41333332Y-41454819D02*
X-40714285Y-41454819D01*
X-39857142Y-40788152D02*
X-39857142Y-41454819D01*
X-40095237Y-40407200D02*
X-40333332Y-41121485D01*
X-40333332Y-41121485D02*
X-39714285Y-41121485D01*
X18595238Y-18254819D02*
X18595238Y-17254819D01*
X19166666Y-18254819D02*
X18738095Y-17683390D01*
X19166666Y-17254819D02*
X18595238Y-17826247D01*
X19976190Y-18207200D02*
X19880952Y-18254819D01*
X19880952Y-18254819D02*
X19690476Y-18254819D01*
X19690476Y-18254819D02*
X19595238Y-18207200D01*
X19595238Y-18207200D02*
X19547619Y-18111961D01*
X19547619Y-18111961D02*
X19547619Y-17731009D01*
X19547619Y-17731009D02*
X19595238Y-17635771D01*
X19595238Y-17635771D02*
X19690476Y-17588152D01*
X19690476Y-17588152D02*
X19880952Y-17588152D01*
X19880952Y-17588152D02*
X19976190Y-17635771D01*
X19976190Y-17635771D02*
X20023809Y-17731009D01*
X20023809Y-17731009D02*
X20023809Y-17826247D01*
X20023809Y-17826247D02*
X19547619Y-17921485D01*
X20357143Y-17588152D02*
X20595238Y-18254819D01*
X20833333Y-17588152D02*
X20595238Y-18254819D01*
X20595238Y-18254819D02*
X20500000Y-18492914D01*
X20500000Y-18492914D02*
X20452381Y-18540533D01*
X20452381Y-18540533D02*
X20357143Y-18588152D01*
X21166667Y-18207200D02*
X21261905Y-18254819D01*
X21261905Y-18254819D02*
X21452381Y-18254819D01*
X21452381Y-18254819D02*
X21547619Y-18207200D01*
X21547619Y-18207200D02*
X21595238Y-18111961D01*
X21595238Y-18111961D02*
X21595238Y-18064342D01*
X21595238Y-18064342D02*
X21547619Y-17969104D01*
X21547619Y-17969104D02*
X21452381Y-17921485D01*
X21452381Y-17921485D02*
X21309524Y-17921485D01*
X21309524Y-17921485D02*
X21214286Y-17873866D01*
X21214286Y-17873866D02*
X21166667Y-17778628D01*
X21166667Y-17778628D02*
X21166667Y-17731009D01*
X21166667Y-17731009D02*
X21214286Y-17635771D01*
X21214286Y-17635771D02*
X21309524Y-17588152D01*
X21309524Y-17588152D02*
X21452381Y-17588152D01*
X21452381Y-17588152D02*
X21547619Y-17635771D01*
X21928572Y-17588152D02*
X22119048Y-18254819D01*
X22119048Y-18254819D02*
X22309524Y-17778628D01*
X22309524Y-17778628D02*
X22500000Y-18254819D01*
X22500000Y-18254819D02*
X22690476Y-17588152D01*
X23071429Y-18254819D02*
X23071429Y-17588152D01*
X23071429Y-17254819D02*
X23023810Y-17302438D01*
X23023810Y-17302438D02*
X23071429Y-17350057D01*
X23071429Y-17350057D02*
X23119048Y-17302438D01*
X23119048Y-17302438D02*
X23071429Y-17254819D01*
X23071429Y-17254819D02*
X23071429Y-17350057D01*
X23404762Y-17588152D02*
X23785714Y-17588152D01*
X23547619Y-17254819D02*
X23547619Y-18111961D01*
X23547619Y-18111961D02*
X23595238Y-18207200D01*
X23595238Y-18207200D02*
X23690476Y-18254819D01*
X23690476Y-18254819D02*
X23785714Y-18254819D01*
X24547619Y-18207200D02*
X24452381Y-18254819D01*
X24452381Y-18254819D02*
X24261905Y-18254819D01*
X24261905Y-18254819D02*
X24166667Y-18207200D01*
X24166667Y-18207200D02*
X24119048Y-18159580D01*
X24119048Y-18159580D02*
X24071429Y-18064342D01*
X24071429Y-18064342D02*
X24071429Y-17778628D01*
X24071429Y-17778628D02*
X24119048Y-17683390D01*
X24119048Y-17683390D02*
X24166667Y-17635771D01*
X24166667Y-17635771D02*
X24261905Y-17588152D01*
X24261905Y-17588152D02*
X24452381Y-17588152D01*
X24452381Y-17588152D02*
X24547619Y-17635771D01*
X24976191Y-18254819D02*
X24976191Y-17254819D01*
X25404762Y-18254819D02*
X25404762Y-17731009D01*
X25404762Y-17731009D02*
X25357143Y-17635771D01*
X25357143Y-17635771D02*
X25261905Y-17588152D01*
X25261905Y-17588152D02*
X25119048Y-17588152D01*
X25119048Y-17588152D02*
X25023810Y-17635771D01*
X25023810Y-17635771D02*
X24976191Y-17683390D01*
X20761905Y-9207200D02*
X20904762Y-9254819D01*
X20904762Y-9254819D02*
X21142857Y-9254819D01*
X21142857Y-9254819D02*
X21238095Y-9207200D01*
X21238095Y-9207200D02*
X21285714Y-9159580D01*
X21285714Y-9159580D02*
X21333333Y-9064342D01*
X21333333Y-9064342D02*
X21333333Y-8969104D01*
X21333333Y-8969104D02*
X21285714Y-8873866D01*
X21285714Y-8873866D02*
X21238095Y-8826247D01*
X21238095Y-8826247D02*
X21142857Y-8778628D01*
X21142857Y-8778628D02*
X20952381Y-8731009D01*
X20952381Y-8731009D02*
X20857143Y-8683390D01*
X20857143Y-8683390D02*
X20809524Y-8635771D01*
X20809524Y-8635771D02*
X20761905Y-8540533D01*
X20761905Y-8540533D02*
X20761905Y-8445295D01*
X20761905Y-8445295D02*
X20809524Y-8350057D01*
X20809524Y-8350057D02*
X20857143Y-8302438D01*
X20857143Y-8302438D02*
X20952381Y-8254819D01*
X20952381Y-8254819D02*
X21190476Y-8254819D01*
X21190476Y-8254819D02*
X21333333Y-8302438D01*
X22285714Y-9254819D02*
X21714286Y-9254819D01*
X22000000Y-9254819D02*
X22000000Y-8254819D01*
X22000000Y-8254819D02*
X21904762Y-8397676D01*
X21904762Y-8397676D02*
X21809524Y-8492914D01*
X21809524Y-8492914D02*
X21714286Y-8540533D01*
X22619048Y-8254819D02*
X23285714Y-8254819D01*
X23285714Y-8254819D02*
X22857143Y-9254819D01*
X18595238Y-64454819D02*
X18595238Y-63454819D01*
X19166666Y-64454819D02*
X18738095Y-63883390D01*
X19166666Y-63454819D02*
X18595238Y-64026247D01*
X19976190Y-64407200D02*
X19880952Y-64454819D01*
X19880952Y-64454819D02*
X19690476Y-64454819D01*
X19690476Y-64454819D02*
X19595238Y-64407200D01*
X19595238Y-64407200D02*
X19547619Y-64311961D01*
X19547619Y-64311961D02*
X19547619Y-63931009D01*
X19547619Y-63931009D02*
X19595238Y-63835771D01*
X19595238Y-63835771D02*
X19690476Y-63788152D01*
X19690476Y-63788152D02*
X19880952Y-63788152D01*
X19880952Y-63788152D02*
X19976190Y-63835771D01*
X19976190Y-63835771D02*
X20023809Y-63931009D01*
X20023809Y-63931009D02*
X20023809Y-64026247D01*
X20023809Y-64026247D02*
X19547619Y-64121485D01*
X20357143Y-63788152D02*
X20595238Y-64454819D01*
X20833333Y-63788152D02*
X20595238Y-64454819D01*
X20595238Y-64454819D02*
X20500000Y-64692914D01*
X20500000Y-64692914D02*
X20452381Y-64740533D01*
X20452381Y-64740533D02*
X20357143Y-64788152D01*
X21166667Y-64407200D02*
X21261905Y-64454819D01*
X21261905Y-64454819D02*
X21452381Y-64454819D01*
X21452381Y-64454819D02*
X21547619Y-64407200D01*
X21547619Y-64407200D02*
X21595238Y-64311961D01*
X21595238Y-64311961D02*
X21595238Y-64264342D01*
X21595238Y-64264342D02*
X21547619Y-64169104D01*
X21547619Y-64169104D02*
X21452381Y-64121485D01*
X21452381Y-64121485D02*
X21309524Y-64121485D01*
X21309524Y-64121485D02*
X21214286Y-64073866D01*
X21214286Y-64073866D02*
X21166667Y-63978628D01*
X21166667Y-63978628D02*
X21166667Y-63931009D01*
X21166667Y-63931009D02*
X21214286Y-63835771D01*
X21214286Y-63835771D02*
X21309524Y-63788152D01*
X21309524Y-63788152D02*
X21452381Y-63788152D01*
X21452381Y-63788152D02*
X21547619Y-63835771D01*
X21928572Y-63788152D02*
X22119048Y-64454819D01*
X22119048Y-64454819D02*
X22309524Y-63978628D01*
X22309524Y-63978628D02*
X22500000Y-64454819D01*
X22500000Y-64454819D02*
X22690476Y-63788152D01*
X23071429Y-64454819D02*
X23071429Y-63788152D01*
X23071429Y-63454819D02*
X23023810Y-63502438D01*
X23023810Y-63502438D02*
X23071429Y-63550057D01*
X23071429Y-63550057D02*
X23119048Y-63502438D01*
X23119048Y-63502438D02*
X23071429Y-63454819D01*
X23071429Y-63454819D02*
X23071429Y-63550057D01*
X23404762Y-63788152D02*
X23785714Y-63788152D01*
X23547619Y-63454819D02*
X23547619Y-64311961D01*
X23547619Y-64311961D02*
X23595238Y-64407200D01*
X23595238Y-64407200D02*
X23690476Y-64454819D01*
X23690476Y-64454819D02*
X23785714Y-64454819D01*
X24547619Y-64407200D02*
X24452381Y-64454819D01*
X24452381Y-64454819D02*
X24261905Y-64454819D01*
X24261905Y-64454819D02*
X24166667Y-64407200D01*
X24166667Y-64407200D02*
X24119048Y-64359580D01*
X24119048Y-64359580D02*
X24071429Y-64264342D01*
X24071429Y-64264342D02*
X24071429Y-63978628D01*
X24071429Y-63978628D02*
X24119048Y-63883390D01*
X24119048Y-63883390D02*
X24166667Y-63835771D01*
X24166667Y-63835771D02*
X24261905Y-63788152D01*
X24261905Y-63788152D02*
X24452381Y-63788152D01*
X24452381Y-63788152D02*
X24547619Y-63835771D01*
X24976191Y-64454819D02*
X24976191Y-63454819D01*
X25404762Y-64454819D02*
X25404762Y-63931009D01*
X25404762Y-63931009D02*
X25357143Y-63835771D01*
X25357143Y-63835771D02*
X25261905Y-63788152D01*
X25261905Y-63788152D02*
X25119048Y-63788152D01*
X25119048Y-63788152D02*
X25023810Y-63835771D01*
X25023810Y-63835771D02*
X24976191Y-63883390D01*
X20761905Y-55407200D02*
X20904762Y-55454819D01*
X20904762Y-55454819D02*
X21142857Y-55454819D01*
X21142857Y-55454819D02*
X21238095Y-55407200D01*
X21238095Y-55407200D02*
X21285714Y-55359580D01*
X21285714Y-55359580D02*
X21333333Y-55264342D01*
X21333333Y-55264342D02*
X21333333Y-55169104D01*
X21333333Y-55169104D02*
X21285714Y-55073866D01*
X21285714Y-55073866D02*
X21238095Y-55026247D01*
X21238095Y-55026247D02*
X21142857Y-54978628D01*
X21142857Y-54978628D02*
X20952381Y-54931009D01*
X20952381Y-54931009D02*
X20857143Y-54883390D01*
X20857143Y-54883390D02*
X20809524Y-54835771D01*
X20809524Y-54835771D02*
X20761905Y-54740533D01*
X20761905Y-54740533D02*
X20761905Y-54645295D01*
X20761905Y-54645295D02*
X20809524Y-54550057D01*
X20809524Y-54550057D02*
X20857143Y-54502438D01*
X20857143Y-54502438D02*
X20952381Y-54454819D01*
X20952381Y-54454819D02*
X21190476Y-54454819D01*
X21190476Y-54454819D02*
X21333333Y-54502438D01*
X21714286Y-54550057D02*
X21761905Y-54502438D01*
X21761905Y-54502438D02*
X21857143Y-54454819D01*
X21857143Y-54454819D02*
X22095238Y-54454819D01*
X22095238Y-54454819D02*
X22190476Y-54502438D01*
X22190476Y-54502438D02*
X22238095Y-54550057D01*
X22238095Y-54550057D02*
X22285714Y-54645295D01*
X22285714Y-54645295D02*
X22285714Y-54740533D01*
X22285714Y-54740533D02*
X22238095Y-54883390D01*
X22238095Y-54883390D02*
X21666667Y-55454819D01*
X21666667Y-55454819D02*
X22285714Y-55454819D01*
X23142857Y-54454819D02*
X22952381Y-54454819D01*
X22952381Y-54454819D02*
X22857143Y-54502438D01*
X22857143Y-54502438D02*
X22809524Y-54550057D01*
X22809524Y-54550057D02*
X22714286Y-54692914D01*
X22714286Y-54692914D02*
X22666667Y-54883390D01*
X22666667Y-54883390D02*
X22666667Y-55264342D01*
X22666667Y-55264342D02*
X22714286Y-55359580D01*
X22714286Y-55359580D02*
X22761905Y-55407200D01*
X22761905Y-55407200D02*
X22857143Y-55454819D01*
X22857143Y-55454819D02*
X23047619Y-55454819D01*
X23047619Y-55454819D02*
X23142857Y-55407200D01*
X23142857Y-55407200D02*
X23190476Y-55359580D01*
X23190476Y-55359580D02*
X23238095Y-55264342D01*
X23238095Y-55264342D02*
X23238095Y-55026247D01*
X23238095Y-55026247D02*
X23190476Y-54931009D01*
X23190476Y-54931009D02*
X23142857Y-54883390D01*
X23142857Y-54883390D02*
X23047619Y-54835771D01*
X23047619Y-54835771D02*
X22857143Y-54835771D01*
X22857143Y-54835771D02*
X22761905Y-54883390D01*
X22761905Y-54883390D02*
X22714286Y-54931009D01*
X22714286Y-54931009D02*
X22666667Y-55026247D01*
%TO.C,S18*%
D11*
X33500000Y-1300000D02*
X33500000Y-16300000D01*
X33500000Y-16300000D02*
X48500000Y-16300000D01*
X48500000Y-1300000D02*
X33500000Y-1300000D01*
X48500000Y-16300000D02*
X48500000Y-1300000D01*
%TO.C,U2*%
D12*
X-10500000Y25500000D02*
X10500000Y25500000D01*
X-10500000Y24200000D02*
X-9200000Y25500000D01*
X-10500000Y-25500000D02*
X-10500000Y25500000D01*
X10500000Y25500000D02*
X10500000Y-25500000D01*
X10500000Y-25500000D02*
X-10500000Y-25500000D01*
%TO.C,S14*%
D11*
X-67500000Y7500000D02*
X-67500000Y-7500000D01*
X-67500000Y-7500000D02*
X-52500000Y-7500000D01*
X-52500000Y7500000D02*
X-67500000Y7500000D01*
X-52500000Y-7500000D02*
X-52500000Y7500000D01*
%TO.C,S9*%
X71500000Y26600000D02*
X71500000Y11600000D01*
X71500000Y11600000D02*
X86500000Y11600000D01*
X86500000Y26600000D02*
X71500000Y26600000D01*
X86500000Y11600000D02*
X86500000Y26600000D01*
%TO.C,S28*%
X52500000Y-37200000D02*
X52500000Y-52200000D01*
X52500000Y-52200000D02*
X67500000Y-52200000D01*
X67500000Y-37200000D02*
X52500000Y-37200000D01*
X67500000Y-52200000D02*
X67500000Y-37200000D01*
%TO.C,S7*%
X33500000Y16700000D02*
X33500000Y1700000D01*
X33500000Y1700000D02*
X48500000Y1700000D01*
X48500000Y16700000D02*
X33500000Y16700000D01*
X48500000Y1700000D02*
X48500000Y16700000D01*
%TO.C,S25*%
X-29500000Y-47500000D02*
X-29500000Y-62500000D01*
X-29500000Y-62500000D02*
X-14500000Y-62500000D01*
X-14500000Y-47500000D02*
X-29500000Y-47500000D01*
X-14500000Y-62500000D02*
X-14500000Y-47500000D01*
%TO.C,S27*%
X33500000Y-33500000D02*
X33500000Y-48500000D01*
X33500000Y-48500000D02*
X48500000Y-48500000D01*
X48500000Y-33500000D02*
X33500000Y-33500000D01*
X48500000Y-48500000D02*
X48500000Y-33500000D01*
%TO.C,S19*%
X52500000Y7500000D02*
X52500000Y-7500000D01*
X52500000Y-7500000D02*
X67500000Y-7500000D01*
X67500000Y7500000D02*
X52500000Y7500000D01*
X67500000Y-7500000D02*
X67500000Y7500000D01*
%TO.C,S16*%
X-29500000Y-1300000D02*
X-29500000Y-16300000D01*
X-29500000Y-16300000D02*
X-14500000Y-16300000D01*
X-14500000Y-1300000D02*
X-29500000Y-1300000D01*
X-14500000Y-16300000D02*
X-14500000Y-1300000D01*
%TO.C,S5*%
X-29500000Y16700000D02*
X-29500000Y1700000D01*
X-29500000Y1700000D02*
X-14500000Y1700000D01*
X-14500000Y16700000D02*
X-29500000Y16700000D01*
X-14500000Y1700000D02*
X-14500000Y16700000D01*
%TO.C,S8*%
X52500000Y25500000D02*
X52500000Y10500000D01*
X52500000Y10500000D02*
X67500000Y10500000D01*
X67500000Y25500000D02*
X52500000Y25500000D01*
X67500000Y10500000D02*
X67500000Y25500000D01*
%TO.C,S23*%
X-67500000Y-37200000D02*
X-67500000Y-52200000D01*
X-67500000Y-52200000D02*
X-52500000Y-52200000D01*
X-52500000Y-37200000D02*
X-67500000Y-37200000D01*
X-52500000Y-52200000D02*
X-52500000Y-37200000D01*
%TO.C,S3*%
X-67500000Y25500000D02*
X-67500000Y10500000D01*
X-67500000Y10500000D02*
X-52500000Y10500000D01*
X-52500000Y25500000D02*
X-67500000Y25500000D01*
X-52500000Y10500000D02*
X-52500000Y25500000D01*
%TO.C,S4*%
X-48500000Y16700000D02*
X-48500000Y1700000D01*
X-48500000Y1700000D02*
X-33500000Y1700000D01*
X-33500000Y16700000D02*
X-48500000Y16700000D01*
X-33500000Y1700000D02*
X-33500000Y16700000D01*
%TO.C,S13*%
X-86500000Y8600000D02*
X-86500000Y-6400000D01*
X-86500000Y-6400000D02*
X-71500000Y-6400000D01*
X-71500000Y8600000D02*
X-86500000Y8600000D01*
X-71500000Y-6400000D02*
X-71500000Y8600000D01*
%TO.C,S20*%
X71500000Y8600000D02*
X71500000Y-6400000D01*
X71500000Y-6400000D02*
X86500000Y-6400000D01*
X86500000Y8600000D02*
X71500000Y8600000D01*
X86500000Y-6400000D02*
X86500000Y8600000D01*
%TO.C,S21*%
X90500000Y-1300000D02*
X90500000Y-16300000D01*
X90500000Y-16300000D02*
X105500000Y-16300000D01*
X105500000Y-1300000D02*
X90500000Y-1300000D01*
X105500000Y-16300000D02*
X105500000Y-1300000D01*
%TO.C,S2*%
X-86500000Y26600000D02*
X-86500000Y11600000D01*
X-86500000Y11600000D02*
X-71500000Y11600000D01*
X-71500000Y26600000D02*
X-86500000Y26600000D01*
X-71500000Y11600000D02*
X-71500000Y26600000D01*
%TO.C,S12*%
X-105500000Y-1300000D02*
X-105500000Y-16300000D01*
X-105500000Y-16300000D02*
X-90500000Y-16300000D01*
X-90500000Y-1300000D02*
X-105500000Y-1300000D01*
X-90500000Y-16300000D02*
X-90500000Y-1300000D01*
%TO.C,S1*%
X-105500000Y16700000D02*
X-105500000Y1700000D01*
X-105500000Y1700000D02*
X-90500000Y1700000D01*
X-90500000Y16700000D02*
X-105500000Y16700000D01*
X-90500000Y1700000D02*
X-90500000Y16700000D01*
%TO.C,S11*%
X108000000Y16700000D02*
X108000000Y1700000D01*
X108000000Y1700000D02*
X123000000Y1700000D01*
X123000000Y16700000D02*
X108000000Y16700000D01*
X123000000Y1700000D02*
X123000000Y16700000D01*
%TO.C,S15*%
X-48500000Y-1300000D02*
X-48500000Y-16300000D01*
X-48500000Y-16300000D02*
X-33500000Y-16300000D01*
X-33500000Y-1300000D02*
X-48500000Y-1300000D01*
X-33500000Y-16300000D02*
X-33500000Y-1300000D01*
%TO.C,S10*%
X90500000Y16700000D02*
X90500000Y1700000D01*
X90500000Y1700000D02*
X105500000Y1700000D01*
X105500000Y16700000D02*
X90500000Y16700000D01*
X105500000Y1700000D02*
X105500000Y16700000D01*
%TO.C,S22*%
X108000000Y-1300000D02*
X108000000Y-16300000D01*
X108000000Y-16300000D02*
X123000000Y-16300000D01*
X123000000Y-1300000D02*
X108000000Y-1300000D01*
X123000000Y-16300000D02*
X123000000Y-1300000D01*
%TO.C,S6*%
X14500000Y16700000D02*
X14500000Y1700000D01*
X14500000Y1700000D02*
X29500000Y1700000D01*
X29500000Y16700000D02*
X14500000Y16700000D01*
X29500000Y1700000D02*
X29500000Y16700000D01*
%TO.C,S24*%
X-48500000Y-33500000D02*
X-48500000Y-48500000D01*
X-48500000Y-48500000D02*
X-33500000Y-48500000D01*
X-33500000Y-33500000D02*
X-48500000Y-33500000D01*
X-33500000Y-48500000D02*
X-33500000Y-33500000D01*
%TO.C,S17*%
X14500000Y-1300000D02*
X14500000Y-16300000D01*
X14500000Y-16300000D02*
X29500000Y-16300000D01*
X29500000Y-1300000D02*
X14500000Y-1300000D01*
X29500000Y-16300000D02*
X29500000Y-1300000D01*
%TO.C,S26*%
X14500000Y-47500000D02*
X14500000Y-62500000D01*
X14500000Y-62500000D02*
X29500000Y-62500000D01*
X29500000Y-47500000D02*
X14500000Y-47500000D01*
X29500000Y-62500000D02*
X29500000Y-47500000D01*
%TD*%
M02*
