%TF.GenerationSoftware,KiCad,Pcbnew,10.0.4-1.fc44*%
%TF.CreationDate,2026-09-30T03:19:51+02:00*%
%TF.ProjectId,bunnyboard_ergo,62756e6e-7962-46f6-9172-645f6572676f,rev?*%
%TF.SameCoordinates,Original*%
%TF.FileFunction,Other,ECO1*%
%FSLAX46Y46*%
G04 Gerber Fmt 4.6, Leading zero omitted, Abs format (unit mm)*
G04 Created by KiCad (PCBNEW 10.0.4-1.fc44) date 2026-09-30 03:19:51*
%MOMM*%
%LPD*%
G01*
G04 APERTURE LIST*
%ADD10C,0.100000*%
G04 APERTURE END LIST*
%TO.C,S18*%
D10*
X33750000Y-1550000D02*
X33750000Y-16050000D01*
X33750000Y-16050000D02*
X48250000Y-16050000D01*
X48250000Y-1550000D02*
X33750000Y-1550000D01*
X48250000Y-16050000D02*
X48250000Y-1550000D01*
%TO.C,S14*%
X-67250000Y7250000D02*
X-67250000Y-7250000D01*
X-67250000Y-7250000D02*
X-52750000Y-7250000D01*
X-52750000Y7250000D02*
X-67250000Y7250000D01*
X-52750000Y-7250000D02*
X-52750000Y7250000D01*
%TO.C,S9*%
X71750000Y26350000D02*
X71750000Y11850000D01*
X71750000Y11850000D02*
X86250000Y11850000D01*
X86250000Y26350000D02*
X71750000Y26350000D01*
X86250000Y11850000D02*
X86250000Y26350000D01*
%TO.C,S28*%
X52031885Y-38247548D02*
X53547548Y-52668115D01*
X53547548Y-52668115D02*
X67968115Y-51152452D01*
X66452452Y-36731885D02*
X52031885Y-38247548D01*
X67968115Y-51152452D02*
X66452452Y-36731885D01*
%TO.C,S7*%
X33750000Y16450000D02*
X33750000Y1950000D01*
X33750000Y1950000D02*
X48250000Y1950000D01*
X48250000Y16450000D02*
X33750000Y16450000D01*
X48250000Y1950000D02*
X48250000Y16450000D01*
%TO.C,S25*%
X-29968115Y-61452452D02*
X-15547548Y-62968115D01*
X-28452452Y-47031885D02*
X-29968115Y-61452452D01*
X-15547548Y-62968115D02*
X-14031885Y-48547548D01*
X-14031885Y-48547548D02*
X-28452452Y-47031885D01*
%TO.C,S27*%
X33031885Y-34547548D02*
X34547548Y-48968115D01*
X34547548Y-48968115D02*
X48968115Y-47452452D01*
X47452452Y-33031885D02*
X33031885Y-34547548D01*
X48968115Y-47452452D02*
X47452452Y-33031885D01*
%TO.C,S19*%
X52750000Y7250000D02*
X52750000Y-7250000D01*
X52750000Y-7250000D02*
X67250000Y-7250000D01*
X67250000Y7250000D02*
X52750000Y7250000D01*
X67250000Y-7250000D02*
X67250000Y7250000D01*
%TO.C,S16*%
X-29250000Y-1550000D02*
X-29250000Y-16050000D01*
X-29250000Y-16050000D02*
X-14750000Y-16050000D01*
X-14750000Y-1550000D02*
X-29250000Y-1550000D01*
X-14750000Y-16050000D02*
X-14750000Y-1550000D01*
%TO.C,S5*%
X-29250000Y16450000D02*
X-29250000Y1950000D01*
X-29250000Y1950000D02*
X-14750000Y1950000D01*
X-14750000Y16450000D02*
X-29250000Y16450000D01*
X-14750000Y1950000D02*
X-14750000Y16450000D01*
%TO.C,S8*%
X52750000Y25250000D02*
X52750000Y10750000D01*
X52750000Y10750000D02*
X67250000Y10750000D01*
X67250000Y25250000D02*
X52750000Y25250000D01*
X67250000Y10750000D02*
X67250000Y25250000D01*
%TO.C,S23*%
X-67968115Y-51152452D02*
X-53547548Y-52668115D01*
X-66452452Y-36731885D02*
X-67968115Y-51152452D01*
X-53547548Y-52668115D02*
X-52031885Y-38247548D01*
X-52031885Y-38247548D02*
X-66452452Y-36731885D01*
%TO.C,S3*%
X-67250000Y25250000D02*
X-67250000Y10750000D01*
X-67250000Y10750000D02*
X-52750000Y10750000D01*
X-52750000Y25250000D02*
X-67250000Y25250000D01*
X-52750000Y10750000D02*
X-52750000Y25250000D01*
%TO.C,S4*%
X-48250000Y16450000D02*
X-48250000Y1950000D01*
X-48250000Y1950000D02*
X-33750000Y1950000D01*
X-33750000Y16450000D02*
X-48250000Y16450000D01*
X-33750000Y1950000D02*
X-33750000Y16450000D01*
%TO.C,S13*%
X-86250000Y8350000D02*
X-86250000Y-6150000D01*
X-86250000Y-6150000D02*
X-71750000Y-6150000D01*
X-71750000Y8350000D02*
X-86250000Y8350000D01*
X-71750000Y-6150000D02*
X-71750000Y8350000D01*
%TO.C,S20*%
X71750000Y8350000D02*
X71750000Y-6150000D01*
X71750000Y-6150000D02*
X86250000Y-6150000D01*
X86250000Y8350000D02*
X71750000Y8350000D01*
X86250000Y-6150000D02*
X86250000Y8350000D01*
%TO.C,S21*%
X90750000Y-1550000D02*
X90750000Y-16050000D01*
X90750000Y-16050000D02*
X105250000Y-16050000D01*
X105250000Y-1550000D02*
X90750000Y-1550000D01*
X105250000Y-16050000D02*
X105250000Y-1550000D01*
%TO.C,S2*%
X-86250000Y26350000D02*
X-86250000Y11850000D01*
X-86250000Y11850000D02*
X-71750000Y11850000D01*
X-71750000Y26350000D02*
X-86250000Y26350000D01*
X-71750000Y11850000D02*
X-71750000Y26350000D01*
%TO.C,S12*%
X-105250000Y-1550000D02*
X-105250000Y-16050000D01*
X-105250000Y-16050000D02*
X-90750000Y-16050000D01*
X-90750000Y-1550000D02*
X-105250000Y-1550000D01*
X-90750000Y-16050000D02*
X-90750000Y-1550000D01*
%TO.C,S1*%
X-105250000Y16450000D02*
X-105250000Y1950000D01*
X-105250000Y1950000D02*
X-90750000Y1950000D01*
X-90750000Y16450000D02*
X-105250000Y16450000D01*
X-90750000Y1950000D02*
X-90750000Y16450000D01*
%TO.C,S11*%
X108250000Y16450000D02*
X108250000Y1950000D01*
X108250000Y1950000D02*
X122750000Y1950000D01*
X122750000Y16450000D02*
X108250000Y16450000D01*
X122750000Y1950000D02*
X122750000Y16450000D01*
%TO.C,S15*%
X-48250000Y-1550000D02*
X-48250000Y-16050000D01*
X-48250000Y-16050000D02*
X-33750000Y-16050000D01*
X-33750000Y-1550000D02*
X-48250000Y-1550000D01*
X-33750000Y-16050000D02*
X-33750000Y-1550000D01*
%TO.C,S10*%
X90750000Y16450000D02*
X90750000Y1950000D01*
X90750000Y1950000D02*
X105250000Y1950000D01*
X105250000Y16450000D02*
X90750000Y16450000D01*
X105250000Y1950000D02*
X105250000Y16450000D01*
%TO.C,S22*%
X108250000Y-1550000D02*
X108250000Y-16050000D01*
X108250000Y-16050000D02*
X122750000Y-16050000D01*
X122750000Y-1550000D02*
X108250000Y-1550000D01*
X122750000Y-16050000D02*
X122750000Y-1550000D01*
%TO.C,S6*%
X14750000Y16450000D02*
X14750000Y1950000D01*
X14750000Y1950000D02*
X29250000Y1950000D01*
X29250000Y16450000D02*
X14750000Y16450000D01*
X29250000Y1950000D02*
X29250000Y16450000D01*
%TO.C,S24*%
X-48968115Y-47452452D02*
X-34547548Y-48968115D01*
X-47452452Y-33031885D02*
X-48968115Y-47452452D01*
X-34547548Y-48968115D02*
X-33031885Y-34547548D01*
X-33031885Y-34547548D02*
X-47452452Y-33031885D01*
%TO.C,S17*%
X14750000Y-1550000D02*
X14750000Y-16050000D01*
X14750000Y-16050000D02*
X29250000Y-16050000D01*
X29250000Y-1550000D02*
X14750000Y-1550000D01*
X29250000Y-16050000D02*
X29250000Y-1550000D01*
%TO.C,S26*%
X14031885Y-48547548D02*
X15547548Y-62968115D01*
X15547548Y-62968115D02*
X29968115Y-61452452D01*
X28452452Y-47031885D02*
X14031885Y-48547548D01*
X29968115Y-61452452D02*
X28452452Y-47031885D01*
%TD*%
M02*
