%TF.GenerationSoftware,KiCad,Pcbnew,10.0.4-1.fc44*%
%TF.CreationDate,2026-09-30T03:28:47+02:00*%
%TF.ProjectId,bunnyboard_ergo,62756e6e-7962-46f6-9172-645f6572676f,rev?*%
%TF.SameCoordinates,Original*%
%TF.FileFunction,Other,ECO1*%
%FSLAX46Y46*%
G04 Gerber Fmt 4.6, Leading zero omitted, Abs format (unit mm)*
G04 Created by KiCad (PCBNEW 10.0.4-1.fc44) date 2026-09-30 03:28:47*
%MOMM*%
%LPD*%
G01*
G04 APERTURE LIST*
%ADD10C,0.100000*%
G04 APERTURE END LIST*
%TO.C,S18*%
D10*
X33750000Y-1550000D02*
X33750000Y-16050000D01*
X33750000Y-16050000D02*
X48250000Y-16050000D01*
X48250000Y-1550000D02*
X33750000Y-1550000D01*
X48250000Y-16050000D02*
X48250000Y-1550000D01*
%TO.C,S14*%
X-67250000Y7250000D02*
X-67250000Y-7250000D01*
X-67250000Y-7250000D02*
X-52750000Y-7250000D01*
X-52750000Y7250000D02*
X-67250000Y7250000D01*
X-52750000Y-7250000D02*
X-52750000Y7250000D01*
%TO.C,S9*%
X71750000Y26350000D02*
X71750000Y11850000D01*
X71750000Y11850000D02*
X86250000Y11850000D01*
X86250000Y26350000D02*
X71750000Y26350000D01*
X86250000Y11850000D02*
X86250000Y26350000D01*
%TO.C,S28*%
X51705110Y-50726591D02*
X66026591Y-52994890D01*
X53973409Y-36405110D02*
X51705110Y-50726591D01*
X66026591Y-52994890D02*
X68294890Y-38673409D01*
X68294890Y-38673409D02*
X53973409Y-36405110D01*
%TO.C,S7*%
X33750000Y16450000D02*
X33750000Y1950000D01*
X33750000Y1950000D02*
X48250000Y1950000D01*
X48250000Y16450000D02*
X33750000Y16450000D01*
X48250000Y1950000D02*
X48250000Y16450000D01*
%TO.C,S25*%
X-30294890Y-48973409D02*
X-28026591Y-63294890D01*
X-28026591Y-63294890D02*
X-13705110Y-61026591D01*
X-15973409Y-46705110D02*
X-30294890Y-48973409D01*
X-13705110Y-61026591D02*
X-15973409Y-46705110D01*
%TO.C,S27*%
X32705110Y-47026591D02*
X47026591Y-49294890D01*
X34973409Y-32705110D02*
X32705110Y-47026591D01*
X47026591Y-49294890D02*
X49294890Y-34973409D01*
X49294890Y-34973409D02*
X34973409Y-32705110D01*
%TO.C,S19*%
X52750000Y7250000D02*
X52750000Y-7250000D01*
X52750000Y-7250000D02*
X67250000Y-7250000D01*
X67250000Y7250000D02*
X52750000Y7250000D01*
X67250000Y-7250000D02*
X67250000Y7250000D01*
%TO.C,S16*%
X-29250000Y-1550000D02*
X-29250000Y-16050000D01*
X-29250000Y-16050000D02*
X-14750000Y-16050000D01*
X-14750000Y-1550000D02*
X-29250000Y-1550000D01*
X-14750000Y-16050000D02*
X-14750000Y-1550000D01*
%TO.C,S5*%
X-29250000Y16450000D02*
X-29250000Y1950000D01*
X-29250000Y1950000D02*
X-14750000Y1950000D01*
X-14750000Y16450000D02*
X-29250000Y16450000D01*
X-14750000Y1950000D02*
X-14750000Y16450000D01*
%TO.C,S8*%
X52750000Y25250000D02*
X52750000Y10750000D01*
X52750000Y10750000D02*
X67250000Y10750000D01*
X67250000Y25250000D02*
X52750000Y25250000D01*
X67250000Y10750000D02*
X67250000Y25250000D01*
%TO.C,S23*%
X-68294890Y-38673409D02*
X-66026591Y-52994890D01*
X-66026591Y-52994890D02*
X-51705110Y-50726591D01*
X-53973409Y-36405110D02*
X-68294890Y-38673409D01*
X-51705110Y-50726591D02*
X-53973409Y-36405110D01*
%TO.C,S3*%
X-67250000Y25250000D02*
X-67250000Y10750000D01*
X-67250000Y10750000D02*
X-52750000Y10750000D01*
X-52750000Y25250000D02*
X-67250000Y25250000D01*
X-52750000Y10750000D02*
X-52750000Y25250000D01*
%TO.C,S4*%
X-48250000Y16450000D02*
X-48250000Y1950000D01*
X-48250000Y1950000D02*
X-33750000Y1950000D01*
X-33750000Y16450000D02*
X-48250000Y16450000D01*
X-33750000Y1950000D02*
X-33750000Y16450000D01*
%TO.C,S13*%
X-86250000Y8350000D02*
X-86250000Y-6150000D01*
X-86250000Y-6150000D02*
X-71750000Y-6150000D01*
X-71750000Y8350000D02*
X-86250000Y8350000D01*
X-71750000Y-6150000D02*
X-71750000Y8350000D01*
%TO.C,S20*%
X71750000Y8350000D02*
X71750000Y-6150000D01*
X71750000Y-6150000D02*
X86250000Y-6150000D01*
X86250000Y8350000D02*
X71750000Y8350000D01*
X86250000Y-6150000D02*
X86250000Y8350000D01*
%TO.C,S21*%
X90750000Y-1550000D02*
X90750000Y-16050000D01*
X90750000Y-16050000D02*
X105250000Y-16050000D01*
X105250000Y-1550000D02*
X90750000Y-1550000D01*
X105250000Y-16050000D02*
X105250000Y-1550000D01*
%TO.C,S2*%
X-86250000Y26350000D02*
X-86250000Y11850000D01*
X-86250000Y11850000D02*
X-71750000Y11850000D01*
X-71750000Y26350000D02*
X-86250000Y26350000D01*
X-71750000Y11850000D02*
X-71750000Y26350000D01*
%TO.C,S12*%
X-105250000Y-1550000D02*
X-105250000Y-16050000D01*
X-105250000Y-16050000D02*
X-90750000Y-16050000D01*
X-90750000Y-1550000D02*
X-105250000Y-1550000D01*
X-90750000Y-16050000D02*
X-90750000Y-1550000D01*
%TO.C,S1*%
X-105250000Y16450000D02*
X-105250000Y1950000D01*
X-105250000Y1950000D02*
X-90750000Y1950000D01*
X-90750000Y16450000D02*
X-105250000Y16450000D01*
X-90750000Y1950000D02*
X-90750000Y16450000D01*
%TO.C,S11*%
X108250000Y16450000D02*
X108250000Y1950000D01*
X108250000Y1950000D02*
X122750000Y1950000D01*
X122750000Y16450000D02*
X108250000Y16450000D01*
X122750000Y1950000D02*
X122750000Y16450000D01*
%TO.C,S15*%
X-48250000Y-1550000D02*
X-48250000Y-16050000D01*
X-48250000Y-16050000D02*
X-33750000Y-16050000D01*
X-33750000Y-1550000D02*
X-48250000Y-1550000D01*
X-33750000Y-16050000D02*
X-33750000Y-1550000D01*
%TO.C,S10*%
X90750000Y16450000D02*
X90750000Y1950000D01*
X90750000Y1950000D02*
X105250000Y1950000D01*
X105250000Y16450000D02*
X90750000Y16450000D01*
X105250000Y1950000D02*
X105250000Y16450000D01*
%TO.C,S22*%
X108250000Y-1550000D02*
X108250000Y-16050000D01*
X108250000Y-16050000D02*
X122750000Y-16050000D01*
X122750000Y-1550000D02*
X108250000Y-1550000D01*
X122750000Y-16050000D02*
X122750000Y-1550000D01*
%TO.C,S6*%
X14750000Y16450000D02*
X14750000Y1950000D01*
X14750000Y1950000D02*
X29250000Y1950000D01*
X29250000Y16450000D02*
X14750000Y16450000D01*
X29250000Y1950000D02*
X29250000Y16450000D01*
%TO.C,S24*%
X-49294890Y-34973409D02*
X-47026591Y-49294890D01*
X-47026591Y-49294890D02*
X-32705110Y-47026591D01*
X-34973409Y-32705110D02*
X-49294890Y-34973409D01*
X-32705110Y-47026591D02*
X-34973409Y-32705110D01*
%TO.C,S17*%
X14750000Y-1550000D02*
X14750000Y-16050000D01*
X14750000Y-16050000D02*
X29250000Y-16050000D01*
X29250000Y-1550000D02*
X14750000Y-1550000D01*
X29250000Y-16050000D02*
X29250000Y-1550000D01*
%TO.C,S26*%
X13705110Y-61026591D02*
X28026591Y-63294890D01*
X15973409Y-46705110D02*
X13705110Y-61026591D01*
X28026591Y-63294890D02*
X30294890Y-48973409D01*
X30294890Y-48973409D02*
X15973409Y-46705110D01*
%TD*%
M02*
