%TF.GenerationSoftware,KiCad,Pcbnew,10.0.4-1.fc44*%
%TF.CreationDate,2026-09-30T03:19:51+02:00*%
%TF.ProjectId,bunnyboard_ergo,62756e6e-7962-46f6-9172-645f6572676f,rev?*%
%TF.SameCoordinates,Original*%
%TF.FileFunction,Copper,L1,Top*%
%TF.FilePolarity,Positive*%
%FSLAX46Y46*%
G04 Gerber Fmt 4.6, Leading zero omitted, Abs format (unit mm)*
G04 Created by KiCad (PCBNEW 10.0.4-1.fc44) date 2026-09-30 03:19:51*
%MOMM*%
%LPD*%
G01*
G04 APERTURE LIST*
G04 Aperture macros list*
%AMHorizOval*
0 Thick line with rounded ends*
0 $1 width*
0 $2 $3 position (X,Y) of the first rounded end (center of the circle)*
0 $4 $5 position (X,Y) of the second rounded end (center of the circle)*
0 Add line between two ends*
20,1,$1,$2,$3,$4,$5,0*
0 Add two circle primitives to create the rounded ends*
1,1,$1,$2,$3*
1,1,$1,$4,$5*%
%AMRotRect*
0 Rectangle, with rotation*
0 The origin of the aperture is its center*
0 $1 length*
0 $2 width*
0 $3 Rotation angle, in degrees counterclockwise*
0 Add horizontal line*
21,1,$1,$2,0,0,$3*%
G04 Aperture macros list end*
%TA.AperFunction,ComponentPad*%
%ADD10C,2.200000*%
%TD*%
%TA.AperFunction,ComponentPad*%
%ADD11O,1.700000X1.700000*%
%TD*%
%TA.AperFunction,SMDPad,CuDef*%
%ADD12R,3.500000X1.700000*%
%TD*%
%TA.AperFunction,ComponentPad*%
%ADD13R,1.700000X1.700000*%
%TD*%
%TA.AperFunction,ComponentPad*%
%ADD14RotRect,1.600000X1.600000X84.000000*%
%TD*%
%TA.AperFunction,ComponentPad*%
%ADD15HorizOval,1.600000X0.000000X0.000000X0.000000X0.000000X0*%
%TD*%
%TA.AperFunction,ComponentPad*%
%ADD16R,1.600000X1.600000*%
%TD*%
%TA.AperFunction,ComponentPad*%
%ADD17O,1.600000X1.600000*%
%TD*%
%TA.AperFunction,ComponentPad*%
%ADD18RotRect,1.600000X1.600000X96.000000*%
%TD*%
%TA.AperFunction,ComponentPad*%
%ADD19HorizOval,1.600000X0.000000X0.000000X0.000000X0.000000X0*%
%TD*%
%TA.AperFunction,ViaPad*%
%ADD20C,0.600000*%
%TD*%
%TA.AperFunction,Conductor*%
%ADD21C,0.200000*%
%TD*%
G04 APERTURE END LIST*
D10*
%TO.P,S18,1,1*%
%TO.N,Column 6*%
X41000000Y-2900000D03*
%TO.P,S18,2,2*%
%TO.N,Net-(D18-A)*%
X46000000Y-5000000D03*
%TD*%
D11*
%TO.P,U2,1,GPIO0*%
%TO.N,unconnected-(U2-GPIO0-Pad1)*%
X-8890000Y24130000D03*
D12*
X-9790000Y24130000D03*
D11*
%TO.P,U2,2,GPIO1*%
%TO.N,Column 0*%
X-8890000Y21590000D03*
D12*
X-9790000Y21590000D03*
D13*
%TO.P,U2,3,GND*%
%TO.N,unconnected-(U2-GND-Pad3)*%
X-8890000Y19050000D03*
D12*
X-9790000Y19050000D03*
D11*
%TO.P,U2,4,GPIO2*%
%TO.N,Column 1*%
X-8890000Y16510000D03*
D12*
X-9790000Y16510000D03*
D11*
%TO.P,U2,5,GPIO3*%
%TO.N,unconnected-(U2-GPIO3-Pad5)*%
X-8890000Y13970000D03*
D12*
X-9790000Y13970000D03*
D11*
%TO.P,U2,6,GPIO4*%
%TO.N,Row 0*%
X-8890000Y11430000D03*
D12*
X-9790000Y11430000D03*
D11*
%TO.P,U2,7,GPIO5*%
%TO.N,unconnected-(U2-GPIO5-Pad7)*%
X-8890000Y8890000D03*
D12*
X-9790000Y8890000D03*
D13*
%TO.P,U2,8,GND*%
%TO.N,unconnected-(U2-GND-Pad8)*%
X-8890000Y6350000D03*
D12*
X-9790000Y6350000D03*
D11*
%TO.P,U2,9,GPIO6*%
%TO.N,unconnected-(U2-GPIO6-Pad9)*%
X-8890000Y3810000D03*
D12*
X-9790000Y3810000D03*
D11*
%TO.P,U2,10,GPIO7*%
%TO.N,unconnected-(U2-GPIO7-Pad10)*%
X-8890000Y1270000D03*
D12*
X-9790000Y1270000D03*
D11*
%TO.P,U2,11,GPIO8*%
%TO.N,unconnected-(U2-GPIO8-Pad11)*%
X-8890000Y-1270000D03*
D12*
X-9790000Y-1270000D03*
D11*
%TO.P,U2,12,GPIO9*%
%TO.N,Row 1*%
X-8890000Y-3810000D03*
D12*
X-9790000Y-3810000D03*
D13*
%TO.P,U2,13,GND*%
%TO.N,unconnected-(U2-GND-Pad13)*%
X-8890000Y-6350000D03*
D12*
X-9790000Y-6350000D03*
D11*
%TO.P,U2,14,GPIO10*%
%TO.N,unconnected-(U2-GPIO10-Pad14)*%
X-8890000Y-8890000D03*
D12*
X-9790000Y-8890000D03*
D11*
%TO.P,U2,15,GPIO11*%
%TO.N,unconnected-(U2-GPIO11-Pad15)*%
X-8890000Y-11430000D03*
D12*
X-9790000Y-11430000D03*
D11*
%TO.P,U2,16,GPIO12*%
%TO.N,Column 2*%
X-8890000Y-13970000D03*
D12*
X-9790000Y-13970000D03*
D11*
%TO.P,U2,17,GPIO13*%
%TO.N,Column 3*%
X-8890000Y-16510000D03*
D12*
X-9790000Y-16510000D03*
D13*
%TO.P,U2,18,GND*%
%TO.N,unconnected-(U2-GND-Pad18)*%
X-8890000Y-19050000D03*
D12*
X-9790000Y-19050000D03*
D11*
%TO.P,U2,19,GPIO14*%
%TO.N,Column 4*%
X-8890000Y-21590000D03*
D12*
X-9790000Y-21590000D03*
D11*
%TO.P,U2,20,GPIO15*%
%TO.N,Row 2*%
X-8890000Y-24130000D03*
D12*
X-9790000Y-24130000D03*
D11*
%TO.P,U2,21,GPIO16*%
%TO.N,Column 5*%
X8890000Y-24130000D03*
D12*
X9790000Y-24130000D03*
D11*
%TO.P,U2,22,GPIO17*%
%TO.N,Column 6*%
X8890000Y-21590000D03*
D12*
X9790000Y-21590000D03*
D13*
%TO.P,U2,23,GND*%
%TO.N,unconnected-(U2-GND-Pad23)*%
X8890000Y-19050000D03*
D12*
X9790000Y-19050000D03*
D11*
%TO.P,U2,24,GPIO18*%
%TO.N,Column 7*%
X8890000Y-16510000D03*
D12*
X9790000Y-16510000D03*
D11*
%TO.P,U2,25,GPIO19*%
%TO.N,unconnected-(U2-GPIO19-Pad25)*%
X8890000Y-13970000D03*
D12*
X9790000Y-13970000D03*
D11*
%TO.P,U2,26,GPIO20*%
%TO.N,unconnected-(U2-GPIO20-Pad26)*%
X8890000Y-11430000D03*
D12*
X9790000Y-11430000D03*
D11*
%TO.P,U2,27,GPIO21*%
%TO.N,unconnected-(U2-GPIO21-Pad27)*%
X8890000Y-8890000D03*
D12*
X9790000Y-8890000D03*
D13*
%TO.P,U2,28,GND*%
%TO.N,unconnected-(U2-GND-Pad28)*%
X8890000Y-6350000D03*
D12*
X9790000Y-6350000D03*
D11*
%TO.P,U2,29,GPIO22*%
%TO.N,unconnected-(U2-GPIO22-Pad29)*%
X8890000Y-3810000D03*
D12*
X9790000Y-3810000D03*
D11*
%TO.P,U2,30,RUN*%
%TO.N,unconnected-(U2-RUN-Pad30)*%
X8890000Y-1270000D03*
D12*
X9790000Y-1270000D03*
D11*
%TO.P,U2,31,GPIO26_ADC0*%
%TO.N,Column 8*%
X8890000Y1270000D03*
D12*
X9790000Y1270000D03*
D11*
%TO.P,U2,32,GPIO27_ADC1*%
%TO.N,Column 9*%
X8890000Y3810000D03*
D12*
X9790000Y3810000D03*
D13*
%TO.P,U2,33,AGND*%
%TO.N,unconnected-(U2-AGND-Pad33)*%
X8890000Y6350000D03*
D12*
X9790000Y6350000D03*
D11*
%TO.P,U2,34,GPIO28_ADC2*%
%TO.N,Column 10*%
X8890000Y8890000D03*
D12*
X9790000Y8890000D03*
D11*
%TO.P,U2,35,ADC_VREF*%
%TO.N,unconnected-(U2-ADC_VREF-Pad35)*%
X8890000Y11430000D03*
D12*
X9790000Y11430000D03*
D11*
%TO.P,U2,36,3V3*%
%TO.N,unconnected-(U2-3V3-Pad36)*%
X8890000Y13970000D03*
D12*
X9790000Y13970000D03*
D11*
%TO.P,U2,37,3V3_EN*%
%TO.N,unconnected-(U2-3V3_EN-Pad37)*%
X8890000Y16510000D03*
D12*
X9790000Y16510000D03*
D13*
%TO.P,U2,38,GND*%
%TO.N,unconnected-(U2-GND-Pad38)*%
X8890000Y19050000D03*
D12*
X9790000Y19050000D03*
D11*
%TO.P,U2,39,VSYS*%
%TO.N,unconnected-(U2-VSYS-Pad39)*%
X8890000Y21590000D03*
D12*
X9790000Y21590000D03*
D11*
%TO.P,U2,40,VBUS*%
%TO.N,unconnected-(U2-VBUS-Pad40)*%
X8890000Y24130000D03*
D12*
X9790000Y24130000D03*
D11*
%TO.P,U2,41,SWCLK*%
%TO.N,unconnected-(U2-SWCLK-Pad41)*%
X584100Y-5600000D03*
D13*
%TO.P,U2,42,GND*%
%TO.N,unconnected-(U2-GND-Pad42)*%
X3124100Y-5600000D03*
D11*
%TO.P,U2,43,SWDIO*%
%TO.N,unconnected-(U2-SWDIO-Pad43)*%
X5664100Y-5600000D03*
%TD*%
D10*
%TO.P,S14,1,1*%
%TO.N,Column 2*%
X-60000000Y5900000D03*
%TO.P,S14,2,2*%
%TO.N,Net-(D14-A)*%
X-55000000Y3800000D03*
%TD*%
%TO.P,S9,1,1*%
%TO.N,Column 8*%
X79000000Y25000000D03*
%TO.P,S9,2,2*%
%TO.N,Net-(D9-A)*%
X84000000Y22900000D03*
%TD*%
%TO.P,S28,1,1*%
%TO.N,Column 7*%
X59383282Y-38832321D03*
%TO.P,S28,2,2*%
%TO.N,Net-(D28-A)*%
X64575401Y-40398171D03*
%TD*%
%TO.P,S7,1,1*%
%TO.N,Column 6*%
X41000000Y15100000D03*
%TO.P,S7,2,2*%
%TO.N,Net-(D7-A)*%
X46000000Y13000000D03*
%TD*%
%TO.P,S25,1,1*%
%TO.N,Column 4*%
X-21383282Y-49132321D03*
%TO.P,S25,2,2*%
%TO.N,Net-(D25-A)*%
X-16630182Y-51743459D03*
%TD*%
%TO.P,S27,1,1*%
%TO.N,Column 6*%
X40383282Y-35132321D03*
%TO.P,S27,2,2*%
%TO.N,Net-(D27-A)*%
X45575401Y-36698171D03*
%TD*%
%TO.P,S19,1,1*%
%TO.N,Column 7*%
X60000000Y5900000D03*
%TO.P,S19,2,2*%
%TO.N,Net-(D19-A)*%
X65000000Y3800000D03*
%TD*%
%TO.P,S16,1,1*%
%TO.N,Column 4*%
X-22000000Y-2900000D03*
%TO.P,S16,2,2*%
%TO.N,Net-(D16-A)*%
X-17000000Y-5000000D03*
%TD*%
%TO.P,S5,1,1*%
%TO.N,Column 4*%
X-22000000Y15100000D03*
%TO.P,S5,2,2*%
%TO.N,Net-(D5-A)*%
X-17000000Y13000000D03*
%TD*%
%TO.P,S8,1,1*%
%TO.N,Column 7*%
X60000000Y23900000D03*
%TO.P,S8,2,2*%
%TO.N,Net-(D8-A)*%
X65000000Y21800000D03*
%TD*%
%TO.P,S23,1,1*%
%TO.N,Column 2*%
X-59383282Y-38832321D03*
%TO.P,S23,2,2*%
%TO.N,Net-(D23-A)*%
X-54630182Y-41443459D03*
%TD*%
%TO.P,S3,1,1*%
%TO.N,Column 2*%
X-60000000Y23900000D03*
%TO.P,S3,2,2*%
%TO.N,Net-(D3-A)*%
X-55000000Y21800000D03*
%TD*%
%TO.P,S4,1,1*%
%TO.N,Column 3*%
X-41000000Y15100000D03*
%TO.P,S4,2,2*%
%TO.N,Net-(D4-A)*%
X-36000000Y13000000D03*
%TD*%
%TO.P,S13,1,1*%
%TO.N,Column 1*%
X-79000000Y7000000D03*
%TO.P,S13,2,2*%
%TO.N,Net-(D13-A)*%
X-74000000Y4900000D03*
%TD*%
%TO.P,S20,1,1*%
%TO.N,Column 8*%
X79000000Y7000000D03*
%TO.P,S20,2,2*%
%TO.N,Net-(D20-A)*%
X84000000Y4900000D03*
%TD*%
%TO.P,S21,1,1*%
%TO.N,Column 9*%
X98000000Y-2900000D03*
%TO.P,S21,2,2*%
%TO.N,Net-(D21-A)*%
X103000000Y-5000000D03*
%TD*%
%TO.P,S2,1,1*%
%TO.N,Column 1*%
X-79000000Y25000000D03*
%TO.P,S2,2,2*%
%TO.N,Net-(D2-A)*%
X-74000000Y22900000D03*
%TD*%
%TO.P,S12,1,1*%
%TO.N,Column 0*%
X-98000000Y-2900000D03*
%TO.P,S12,2,2*%
%TO.N,Net-(D12-A)*%
X-93000000Y-5000000D03*
%TD*%
%TO.P,S1,1,1*%
%TO.N,Column 0*%
X-98000000Y15100000D03*
%TO.P,S1,2,2*%
%TO.N,Net-(D1-A)*%
X-93000000Y13000000D03*
%TD*%
%TO.P,S11,1,1*%
%TO.N,Column 10*%
X115500000Y15100000D03*
%TO.P,S11,2,2*%
%TO.N,Net-(D11-A)*%
X120500000Y13000000D03*
%TD*%
%TO.P,S15,1,1*%
%TO.N,Column 3*%
X-41000000Y-2900000D03*
%TO.P,S15,2,2*%
%TO.N,Net-(D15-A)*%
X-36000000Y-5000000D03*
%TD*%
%TO.P,S10,1,1*%
%TO.N,Column 9*%
X98000000Y15100000D03*
%TO.P,S10,2,2*%
%TO.N,Net-(D10-A)*%
X103000000Y13000000D03*
%TD*%
%TO.P,S22,1,1*%
%TO.N,Column 10*%
X115500000Y-2900000D03*
%TO.P,S22,2,2*%
%TO.N,Net-(D22-A)*%
X120500000Y-5000000D03*
%TD*%
%TO.P,S6,1,1*%
%TO.N,Column 5*%
X22000000Y15100000D03*
%TO.P,S6,2,2*%
%TO.N,Net-(D6-A)*%
X27000000Y13000000D03*
%TD*%
%TO.P,S24,1,1*%
%TO.N,Column 3*%
X-40383282Y-35132321D03*
%TO.P,S24,2,2*%
%TO.N,Net-(D24-A)*%
X-35630182Y-37743459D03*
%TD*%
%TO.P,S17,1,1*%
%TO.N,Column 5*%
X22000000Y-2900000D03*
%TO.P,S17,2,2*%
%TO.N,Net-(D17-A)*%
X27000000Y-5000000D03*
%TD*%
%TO.P,S26,1,1*%
%TO.N,Column 5*%
X21383282Y-49132321D03*
%TO.P,S26,2,2*%
%TO.N,Net-(D26-A)*%
X26575401Y-50698171D03*
%TD*%
D14*
%TO.P,D25,1,K*%
%TO.N,Row 2*%
X-11662800Y-57684200D03*
D15*
%TO.P,D25,2,A*%
%TO.N,Net-(D25-A)*%
X-10866293Y-50105943D03*
%TD*%
D16*
%TO.P,D16,1,K*%
%TO.N,Row 1*%
X-12875000Y-12550000D03*
D17*
%TO.P,D16,2,A*%
%TO.N,Net-(D16-A)*%
X-12875000Y-4930000D03*
%TD*%
D16*
%TO.P,D10,1,K*%
%TO.N,Row 0*%
X107125000Y5450000D03*
D17*
%TO.P,D10,2,A*%
%TO.N,Net-(D10-A)*%
X107125000Y13070000D03*
%TD*%
D16*
%TO.P,D4,1,K*%
%TO.N,Row 0*%
X-31875000Y5450000D03*
D17*
%TO.P,D4,2,A*%
%TO.N,Net-(D4-A)*%
X-31875000Y13070000D03*
%TD*%
D16*
%TO.P,D15,1,K*%
%TO.N,Row 1*%
X-31875000Y-12550000D03*
D17*
%TO.P,D15,2,A*%
%TO.N,Net-(D15-A)*%
X-31875000Y-4930000D03*
%TD*%
D18*
%TO.P,D26,1,K*%
%TO.N,Row 2*%
X11662800Y-57684200D03*
D19*
%TO.P,D26,2,A*%
%TO.N,Net-(D26-A)*%
X10866293Y-50105943D03*
%TD*%
D16*
%TO.P,D12,1,K*%
%TO.N,Row 1*%
X-88875000Y-12550000D03*
D17*
%TO.P,D12,2,A*%
%TO.N,Net-(D12-A)*%
X-88875000Y-4930000D03*
%TD*%
D16*
%TO.P,D22,1,K*%
%TO.N,Row 1*%
X124625000Y-12550000D03*
D17*
%TO.P,D22,2,A*%
%TO.N,Net-(D22-A)*%
X124625000Y-4930000D03*
%TD*%
D16*
%TO.P,D17,1,K*%
%TO.N,Row 1*%
X31125000Y-12550000D03*
D17*
%TO.P,D17,2,A*%
%TO.N,Net-(D17-A)*%
X31125000Y-4930000D03*
%TD*%
D16*
%TO.P,D5,1,K*%
%TO.N,Row 0*%
X-12875000Y5450000D03*
D17*
%TO.P,D5,2,A*%
%TO.N,Net-(D5-A)*%
X-12875000Y13070000D03*
%TD*%
D16*
%TO.P,D21,1,K*%
%TO.N,Row 1*%
X107125000Y-12550000D03*
D17*
%TO.P,D21,2,A*%
%TO.N,Net-(D21-A)*%
X107125000Y-4930000D03*
%TD*%
D16*
%TO.P,D1,1,K*%
%TO.N,Row 0*%
X-88875000Y5450000D03*
D17*
%TO.P,D1,2,A*%
%TO.N,Net-(D1-A)*%
X-88875000Y13070000D03*
%TD*%
D16*
%TO.P,D20,1,K*%
%TO.N,Row 1*%
X88125000Y-2650000D03*
D17*
%TO.P,D20,2,A*%
%TO.N,Net-(D20-A)*%
X88125000Y4970000D03*
%TD*%
D16*
%TO.P,D8,1,K*%
%TO.N,Row 0*%
X69125000Y14250000D03*
D17*
%TO.P,D8,2,A*%
%TO.N,Net-(D8-A)*%
X69125000Y21870000D03*
%TD*%
D16*
%TO.P,D3,1,K*%
%TO.N,Row 0*%
X-50875000Y14250000D03*
D17*
%TO.P,D3,2,A*%
%TO.N,Net-(D3-A)*%
X-50875000Y21870000D03*
%TD*%
D18*
%TO.P,D27,1,K*%
%TO.N,Row 2*%
X30662800Y-43684200D03*
D19*
%TO.P,D27,2,A*%
%TO.N,Net-(D27-A)*%
X29866293Y-36105943D03*
%TD*%
D18*
%TO.P,D28,1,K*%
%TO.N,Row 2*%
X51651800Y-47593200D03*
D19*
%TO.P,D28,2,A*%
%TO.N,Net-(D28-A)*%
X50855293Y-40014943D03*
%TD*%
D16*
%TO.P,D6,1,K*%
%TO.N,Row 0*%
X31125000Y5450000D03*
D17*
%TO.P,D6,2,A*%
%TO.N,Net-(D6-A)*%
X31125000Y13070000D03*
%TD*%
D16*
%TO.P,D2,1,K*%
%TO.N,Row 0*%
X-69875000Y15350000D03*
D17*
%TO.P,D2,2,A*%
%TO.N,Net-(D2-A)*%
X-69875000Y22970000D03*
%TD*%
D14*
%TO.P,D24,1,K*%
%TO.N,Row 2*%
X-30662800Y-43684200D03*
D15*
%TO.P,D24,2,A*%
%TO.N,Net-(D24-A)*%
X-29866293Y-36105943D03*
%TD*%
D16*
%TO.P,D14,1,K*%
%TO.N,Row 1*%
X-50875000Y-3750000D03*
D17*
%TO.P,D14,2,A*%
%TO.N,Net-(D14-A)*%
X-50875000Y3870000D03*
%TD*%
D14*
%TO.P,D23,1,K*%
%TO.N,Row 2*%
X-51651800Y-47593200D03*
D15*
%TO.P,D23,2,A*%
%TO.N,Net-(D23-A)*%
X-50855293Y-40014943D03*
%TD*%
D16*
%TO.P,D19,1,K*%
%TO.N,Row 1*%
X69125000Y-3750000D03*
D17*
%TO.P,D19,2,A*%
%TO.N,Net-(D19-A)*%
X69125000Y3870000D03*
%TD*%
D16*
%TO.P,D11,1,K*%
%TO.N,Row 0*%
X124625000Y5450000D03*
D17*
%TO.P,D11,2,A*%
%TO.N,Net-(D11-A)*%
X124625000Y13070000D03*
%TD*%
D16*
%TO.P,D9,1,K*%
%TO.N,Row 0*%
X88125000Y15350000D03*
D17*
%TO.P,D9,2,A*%
%TO.N,Net-(D9-A)*%
X88125000Y22970000D03*
%TD*%
D16*
%TO.P,D13,1,K*%
%TO.N,Row 1*%
X-69875000Y-2650000D03*
D17*
%TO.P,D13,2,A*%
%TO.N,Net-(D13-A)*%
X-69875000Y4970000D03*
%TD*%
D16*
%TO.P,D7,1,K*%
%TO.N,Row 0*%
X50125000Y5450000D03*
D17*
%TO.P,D7,2,A*%
%TO.N,Net-(D7-A)*%
X50125000Y13070000D03*
%TD*%
D16*
%TO.P,D18,1,K*%
%TO.N,Row 1*%
X50125000Y-12550000D03*
D17*
%TO.P,D18,2,A*%
%TO.N,Net-(D18-A)*%
X50125000Y-4930000D03*
%TD*%
D20*
%TO.N,Column 2*%
X-62318800Y-15001200D03*
%TO.N,Column 3*%
X-39186900Y-15788300D03*
%TO.N,Column 7*%
X44553800Y-15001200D03*
%TD*%
%TO.N,Net-(D18-A)*%
D21*
X46070000Y-4930000D02*
X46000000Y-5000000D01*
X50125000Y-4930000D02*
X46070000Y-4930000D01*
%TO.N,Column 0*%
X-46110000Y21590000D02*
X-52037800Y15662200D01*
X-68160500Y15662200D02*
X-68950000Y16451700D01*
X-52037800Y15662200D02*
X-68160500Y15662200D01*
X-8890000Y21590000D02*
X-46110000Y21590000D01*
X-68950000Y16451700D02*
X-96648300Y16451700D01*
X-96648300Y16451700D02*
X-98000000Y15100000D01*
%TO.N,Column 1*%
X-38213600Y12768700D02*
X-34472300Y16510000D01*
X-73231300Y12768700D02*
X-38213600Y12768700D01*
X-34472300Y16510000D02*
X-8890000Y16510000D01*
X-79000000Y7000000D02*
X-73231300Y12768700D01*
%TO.N,Row 0*%
X85923300Y14250000D02*
X69125000Y14250000D01*
X-31875000Y5450000D02*
X-12875000Y5450000D01*
X-67673300Y14250000D02*
X-50875000Y14250000D01*
X31125000Y5450000D02*
X30023300Y5450000D01*
X88125000Y15350000D02*
X87023300Y15350000D01*
X124625000Y5450000D02*
X107125000Y5450000D01*
X50125000Y5450000D02*
X51226700Y5450000D01*
X60026700Y14250000D02*
X69125000Y14250000D01*
X50125000Y5450000D02*
X31125000Y5450000D01*
X51226700Y5450000D02*
X60026700Y14250000D01*
X-12569800Y5144800D02*
X29718100Y5144800D01*
X-12875000Y5450000D02*
X-12569800Y5144800D01*
X-68773300Y15350000D02*
X-67673300Y14250000D01*
X29718100Y5144800D02*
X30023300Y5450000D01*
X87023300Y15350000D02*
X85923300Y14250000D01*
X-69875000Y15350000D02*
X-68773300Y15350000D01*
%TO.N,Row 1*%
X-12875000Y-12550000D02*
X-11773300Y-12550000D01*
X29990500Y-12582800D02*
X-11740500Y-12582800D01*
X-31875000Y-12550000D02*
X-12875000Y-12550000D01*
X31125000Y-12550000D02*
X30023300Y-12550000D01*
X87023300Y-2650000D02*
X85923300Y-3750000D01*
X-50875000Y-3750000D02*
X-51976700Y-3750000D01*
X107125000Y-12550000D02*
X124625000Y-12550000D01*
X-53076700Y-2650000D02*
X-51976700Y-3750000D01*
X30023300Y-12550000D02*
X29990500Y-12582800D01*
X-33897500Y-12550000D02*
X-42697500Y-3750000D01*
X-31875000Y-12550000D02*
X-33897500Y-12550000D01*
X50125000Y-12550000D02*
X31125000Y-12550000D01*
X-69875000Y-2650000D02*
X-53076700Y-2650000D01*
X85923300Y-3750000D02*
X69125000Y-3750000D01*
X-42697500Y-3750000D02*
X-50875000Y-3750000D01*
X88125000Y-2650000D02*
X87023300Y-2650000D01*
X-11740500Y-12582800D02*
X-11773300Y-12550000D01*
%TO.N,Column 2*%
X-12872900Y-15001200D02*
X-11841700Y-13970000D01*
X-62318800Y-15001200D02*
X-12872900Y-15001200D01*
X-8890000Y-13970000D02*
X-11841700Y-13970000D01*
%TO.N,Column 3*%
X-8890000Y-16510000D02*
X-11841700Y-16510000D01*
X-12563400Y-15788300D02*
X-11841700Y-16510000D01*
X-39186900Y-15788300D02*
X-12563400Y-15788300D01*
%TO.N,Row 2*%
X51651800Y-47593200D02*
X51524600Y-46382300D01*
X-11662800Y-57684200D02*
X-10451900Y-57811400D01*
X51524600Y-46382300D02*
X50440900Y-46382300D01*
X-31873700Y-44895100D02*
X-30790000Y-44895100D01*
X10451900Y-57811400D02*
X-10451900Y-57811400D01*
X50440900Y-46382300D02*
X47742800Y-43684200D01*
X30662800Y-43684200D02*
X31873700Y-43557000D01*
X32000900Y-43684200D02*
X31873700Y-43557000D01*
X11662800Y-57684200D02*
X10451900Y-57811400D01*
X47742800Y-43684200D02*
X32000900Y-43684200D01*
X-50313700Y-47593200D02*
X-34571800Y-47593200D01*
X-30662800Y-43684200D02*
X-30790000Y-44895100D01*
X-51651800Y-47593200D02*
X-50440900Y-47720400D01*
X-34571800Y-47593200D02*
X-31873700Y-44895100D01*
X-50440900Y-47720400D02*
X-50313700Y-47593200D01*
%TO.N,Column 7*%
X8890000Y-16510000D02*
X43045000Y-16510000D01*
X43045000Y-16510000D02*
X44553800Y-15001200D01*
%TO.N,Column 8*%
X48379000Y2659800D02*
X58742200Y2659800D01*
X63082400Y7000000D02*
X79000000Y7000000D01*
X8890000Y1270000D02*
X46989200Y1270000D01*
X46989200Y1270000D02*
X48379000Y2659800D01*
X58742200Y2659800D02*
X63082400Y7000000D01*
%TO.N,Column 9*%
X63869800Y11818300D02*
X94718300Y11818300D01*
X8890000Y3810000D02*
X55861500Y3810000D01*
X94718300Y11818300D02*
X98000000Y15100000D01*
X55861500Y3810000D02*
X63869800Y11818300D01*
%TO.N,Column 10*%
X115500000Y15100000D02*
X114095600Y16504400D01*
X23310000Y14427600D02*
X22580700Y13698300D01*
X45161200Y15391600D02*
X43465000Y13695400D01*
X40074700Y13695400D02*
X39342500Y14427600D01*
X39342500Y14427600D02*
X23310000Y14427600D01*
X22580700Y13698300D02*
X18874600Y13698300D01*
X66678200Y15391600D02*
X45161200Y15391600D01*
X14066300Y8890000D02*
X8890000Y8890000D01*
X43465000Y13695400D02*
X40074700Y13695400D01*
X114095600Y16504400D02*
X67791000Y16504400D01*
X18874600Y13698300D02*
X14066300Y8890000D01*
X67791000Y16504400D02*
X66678200Y15391600D01*
%TO.N,Net-(D14-A)*%
X-54930000Y3870000D02*
X-55000000Y3800000D01*
X-50875000Y3870000D02*
X-54930000Y3870000D01*
%TO.N,Net-(D9-A)*%
X88125000Y22970000D02*
X84070000Y22970000D01*
X84070000Y22970000D02*
X84000000Y22900000D01*
%TO.N,Net-(D28-A)*%
X52502200Y-40398200D02*
X64575400Y-40398200D01*
X51998800Y-39894800D02*
X52502200Y-40398200D01*
X50855300Y-40014900D02*
X51998800Y-39894700D01*
X51998800Y-39894700D02*
X51998800Y-39894800D01*
%TO.N,Net-(D7-A)*%
X46070000Y13070000D02*
X46000000Y13000000D01*
X50125000Y13070000D02*
X46070000Y13070000D01*
%TO.N,Net-(D25-A)*%
X-14992600Y-50105900D02*
X-16630200Y-51743500D01*
X-12129900Y-50105900D02*
X-14992600Y-50105900D01*
X-12009800Y-49985700D02*
X-12009800Y-49985800D01*
X-12009800Y-49985800D02*
X-12129900Y-50105900D01*
X-10866300Y-50105900D02*
X-12009800Y-49985700D01*
%TO.N,Net-(D27-A)*%
X31722200Y-36698200D02*
X45575400Y-36698200D01*
X31009800Y-35985700D02*
X31009800Y-35985800D01*
X29866300Y-36105900D02*
X31009800Y-35985700D01*
X31009800Y-35985800D02*
X31722200Y-36698200D01*
%TO.N,Net-(D19-A)*%
X65070000Y3870000D02*
X65000000Y3800000D01*
X69125000Y3870000D02*
X65070000Y3870000D01*
%TO.N,Net-(D16-A)*%
X-12875000Y-4930000D02*
X-16930000Y-4930000D01*
X-16930000Y-4930000D02*
X-17000000Y-5000000D01*
%TO.N,Net-(D5-A)*%
X-12875000Y13070000D02*
X-16930000Y13070000D01*
X-16930000Y13070000D02*
X-17000000Y13000000D01*
%TO.N,Net-(D8-A)*%
X69125000Y21870000D02*
X65070000Y21870000D01*
X65070000Y21870000D02*
X65000000Y21800000D01*
%TO.N,Net-(D3-A)*%
X-54930000Y21870000D02*
X-55000000Y21800000D01*
X-50875000Y21870000D02*
X-54930000Y21870000D01*
%TO.N,Net-(D4-A)*%
X-35930000Y13070000D02*
X-36000000Y13000000D01*
X-31875000Y13070000D02*
X-35930000Y13070000D01*
%TO.N,Net-(D13-A)*%
X-73930000Y4970000D02*
X-74000000Y4900000D01*
X-69875000Y4970000D02*
X-73930000Y4970000D01*
%TO.N,Net-(D20-A)*%
X84070000Y4970000D02*
X84000000Y4900000D01*
X88125000Y4970000D02*
X84070000Y4970000D01*
%TO.N,Net-(D21-A)*%
X107125000Y-4930000D02*
X103070000Y-4930000D01*
X103070000Y-4930000D02*
X103000000Y-5000000D01*
%TO.N,Net-(D2-A)*%
X-69875000Y22970000D02*
X-73930000Y22970000D01*
X-73930000Y22970000D02*
X-74000000Y22900000D01*
%TO.N,Net-(D12-A)*%
X-92930000Y-4930000D02*
X-93000000Y-5000000D01*
X-88875000Y-4930000D02*
X-92930000Y-4930000D01*
%TO.N,Net-(D1-A)*%
X-92930000Y13070000D02*
X-93000000Y13000000D01*
X-88875000Y13070000D02*
X-92930000Y13070000D01*
%TO.N,Net-(D11-A)*%
X124625000Y13070000D02*
X120570000Y13070000D01*
X120570000Y13070000D02*
X120500000Y13000000D01*
%TO.N,Net-(D15-A)*%
X-31875000Y-4930000D02*
X-35930000Y-4930000D01*
X-35930000Y-4930000D02*
X-36000000Y-5000000D01*
%TO.N,Net-(D10-A)*%
X103070000Y13070000D02*
X103000000Y13000000D01*
X107125000Y13070000D02*
X103070000Y13070000D01*
%TO.N,Net-(D22-A)*%
X120570000Y-4930000D02*
X120500000Y-5000000D01*
X124625000Y-4930000D02*
X120570000Y-4930000D01*
%TO.N,Net-(D6-A)*%
X31125000Y13070000D02*
X27070000Y13070000D01*
X27070000Y13070000D02*
X27000000Y13000000D01*
%TO.N,Net-(D24-A)*%
X-31009800Y-35985800D02*
X-31129900Y-36105900D01*
X-31129900Y-36105900D02*
X-33992600Y-36105900D01*
X-33992600Y-36105900D02*
X-35630200Y-37743500D01*
X-31009800Y-35985700D02*
X-31009800Y-35985800D01*
X-29866300Y-36105900D02*
X-31009800Y-35985700D01*
%TO.N,Net-(D17-A)*%
X27070000Y-4930000D02*
X27000000Y-5000000D01*
X31125000Y-4930000D02*
X27070000Y-4930000D01*
%TO.N,Net-(D26-A)*%
X12722200Y-50698200D02*
X26575400Y-50698200D01*
X10866300Y-50105900D02*
X12009800Y-49985700D01*
X12009800Y-49985800D02*
X12722200Y-50698200D01*
X12009800Y-49985700D02*
X12009800Y-49985800D01*
%TD*%
M02*
