%TF.GenerationSoftware,KiCad,Pcbnew,10.0.4-1.fc44*%
%TF.CreationDate,2026-09-30T03:28:47+02:00*%
%TF.ProjectId,bunnyboard_ergo,62756e6e-7962-46f6-9172-645f6572676f,rev?*%
%TF.SameCoordinates,Original*%
%TF.FileFunction,AssemblyDrawing,Top*%
%FSLAX46Y46*%
G04 Gerber Fmt 4.6, Leading zero omitted, Abs format (unit mm)*
G04 Created by KiCad (PCBNEW 10.0.4-1.fc44) date 2026-09-30 03:28:47*
%MOMM*%
%LPD*%
G01*
G04 APERTURE LIST*
%ADD10C,0.150000*%
%ADD11C,0.100000*%
%ADD12C,0.120000*%
G04 APERTURE END LIST*
D10*
X37595238Y-18254819D02*
X37595238Y-17254819D01*
X38166666Y-18254819D02*
X37738095Y-17683390D01*
X38166666Y-17254819D02*
X37595238Y-17826247D01*
X38976190Y-18207200D02*
X38880952Y-18254819D01*
X38880952Y-18254819D02*
X38690476Y-18254819D01*
X38690476Y-18254819D02*
X38595238Y-18207200D01*
X38595238Y-18207200D02*
X38547619Y-18111961D01*
X38547619Y-18111961D02*
X38547619Y-17731009D01*
X38547619Y-17731009D02*
X38595238Y-17635771D01*
X38595238Y-17635771D02*
X38690476Y-17588152D01*
X38690476Y-17588152D02*
X38880952Y-17588152D01*
X38880952Y-17588152D02*
X38976190Y-17635771D01*
X38976190Y-17635771D02*
X39023809Y-17731009D01*
X39023809Y-17731009D02*
X39023809Y-17826247D01*
X39023809Y-17826247D02*
X38547619Y-17921485D01*
X39357143Y-17588152D02*
X39595238Y-18254819D01*
X39833333Y-17588152D02*
X39595238Y-18254819D01*
X39595238Y-18254819D02*
X39500000Y-18492914D01*
X39500000Y-18492914D02*
X39452381Y-18540533D01*
X39452381Y-18540533D02*
X39357143Y-18588152D01*
X40166667Y-18207200D02*
X40261905Y-18254819D01*
X40261905Y-18254819D02*
X40452381Y-18254819D01*
X40452381Y-18254819D02*
X40547619Y-18207200D01*
X40547619Y-18207200D02*
X40595238Y-18111961D01*
X40595238Y-18111961D02*
X40595238Y-18064342D01*
X40595238Y-18064342D02*
X40547619Y-17969104D01*
X40547619Y-17969104D02*
X40452381Y-17921485D01*
X40452381Y-17921485D02*
X40309524Y-17921485D01*
X40309524Y-17921485D02*
X40214286Y-17873866D01*
X40214286Y-17873866D02*
X40166667Y-17778628D01*
X40166667Y-17778628D02*
X40166667Y-17731009D01*
X40166667Y-17731009D02*
X40214286Y-17635771D01*
X40214286Y-17635771D02*
X40309524Y-17588152D01*
X40309524Y-17588152D02*
X40452381Y-17588152D01*
X40452381Y-17588152D02*
X40547619Y-17635771D01*
X40928572Y-17588152D02*
X41119048Y-18254819D01*
X41119048Y-18254819D02*
X41309524Y-17778628D01*
X41309524Y-17778628D02*
X41500000Y-18254819D01*
X41500000Y-18254819D02*
X41690476Y-17588152D01*
X42071429Y-18254819D02*
X42071429Y-17588152D01*
X42071429Y-17254819D02*
X42023810Y-17302438D01*
X42023810Y-17302438D02*
X42071429Y-17350057D01*
X42071429Y-17350057D02*
X42119048Y-17302438D01*
X42119048Y-17302438D02*
X42071429Y-17254819D01*
X42071429Y-17254819D02*
X42071429Y-17350057D01*
X42404762Y-17588152D02*
X42785714Y-17588152D01*
X42547619Y-17254819D02*
X42547619Y-18111961D01*
X42547619Y-18111961D02*
X42595238Y-18207200D01*
X42595238Y-18207200D02*
X42690476Y-18254819D01*
X42690476Y-18254819D02*
X42785714Y-18254819D01*
X43547619Y-18207200D02*
X43452381Y-18254819D01*
X43452381Y-18254819D02*
X43261905Y-18254819D01*
X43261905Y-18254819D02*
X43166667Y-18207200D01*
X43166667Y-18207200D02*
X43119048Y-18159580D01*
X43119048Y-18159580D02*
X43071429Y-18064342D01*
X43071429Y-18064342D02*
X43071429Y-17778628D01*
X43071429Y-17778628D02*
X43119048Y-17683390D01*
X43119048Y-17683390D02*
X43166667Y-17635771D01*
X43166667Y-17635771D02*
X43261905Y-17588152D01*
X43261905Y-17588152D02*
X43452381Y-17588152D01*
X43452381Y-17588152D02*
X43547619Y-17635771D01*
X43976191Y-18254819D02*
X43976191Y-17254819D01*
X44404762Y-18254819D02*
X44404762Y-17731009D01*
X44404762Y-17731009D02*
X44357143Y-17635771D01*
X44357143Y-17635771D02*
X44261905Y-17588152D01*
X44261905Y-17588152D02*
X44119048Y-17588152D01*
X44119048Y-17588152D02*
X44023810Y-17635771D01*
X44023810Y-17635771D02*
X43976191Y-17683390D01*
X39761905Y-9207200D02*
X39904762Y-9254819D01*
X39904762Y-9254819D02*
X40142857Y-9254819D01*
X40142857Y-9254819D02*
X40238095Y-9207200D01*
X40238095Y-9207200D02*
X40285714Y-9159580D01*
X40285714Y-9159580D02*
X40333333Y-9064342D01*
X40333333Y-9064342D02*
X40333333Y-8969104D01*
X40333333Y-8969104D02*
X40285714Y-8873866D01*
X40285714Y-8873866D02*
X40238095Y-8826247D01*
X40238095Y-8826247D02*
X40142857Y-8778628D01*
X40142857Y-8778628D02*
X39952381Y-8731009D01*
X39952381Y-8731009D02*
X39857143Y-8683390D01*
X39857143Y-8683390D02*
X39809524Y-8635771D01*
X39809524Y-8635771D02*
X39761905Y-8540533D01*
X39761905Y-8540533D02*
X39761905Y-8445295D01*
X39761905Y-8445295D02*
X39809524Y-8350057D01*
X39809524Y-8350057D02*
X39857143Y-8302438D01*
X39857143Y-8302438D02*
X39952381Y-8254819D01*
X39952381Y-8254819D02*
X40190476Y-8254819D01*
X40190476Y-8254819D02*
X40333333Y-8302438D01*
X41285714Y-9254819D02*
X40714286Y-9254819D01*
X41000000Y-9254819D02*
X41000000Y-8254819D01*
X41000000Y-8254819D02*
X40904762Y-8397676D01*
X40904762Y-8397676D02*
X40809524Y-8492914D01*
X40809524Y-8492914D02*
X40714286Y-8540533D01*
X41857143Y-8683390D02*
X41761905Y-8635771D01*
X41761905Y-8635771D02*
X41714286Y-8588152D01*
X41714286Y-8588152D02*
X41666667Y-8492914D01*
X41666667Y-8492914D02*
X41666667Y-8445295D01*
X41666667Y-8445295D02*
X41714286Y-8350057D01*
X41714286Y-8350057D02*
X41761905Y-8302438D01*
X41761905Y-8302438D02*
X41857143Y-8254819D01*
X41857143Y-8254819D02*
X42047619Y-8254819D01*
X42047619Y-8254819D02*
X42142857Y-8302438D01*
X42142857Y-8302438D02*
X42190476Y-8350057D01*
X42190476Y-8350057D02*
X42238095Y-8445295D01*
X42238095Y-8445295D02*
X42238095Y-8492914D01*
X42238095Y-8492914D02*
X42190476Y-8588152D01*
X42190476Y-8588152D02*
X42142857Y-8635771D01*
X42142857Y-8635771D02*
X42047619Y-8683390D01*
X42047619Y-8683390D02*
X41857143Y-8683390D01*
X41857143Y-8683390D02*
X41761905Y-8731009D01*
X41761905Y-8731009D02*
X41714286Y-8778628D01*
X41714286Y-8778628D02*
X41666667Y-8873866D01*
X41666667Y-8873866D02*
X41666667Y-9064342D01*
X41666667Y-9064342D02*
X41714286Y-9159580D01*
X41714286Y-9159580D02*
X41761905Y-9207200D01*
X41761905Y-9207200D02*
X41857143Y-9254819D01*
X41857143Y-9254819D02*
X42047619Y-9254819D01*
X42047619Y-9254819D02*
X42142857Y-9207200D01*
X42142857Y-9207200D02*
X42190476Y-9159580D01*
X42190476Y-9159580D02*
X42238095Y-9064342D01*
X42238095Y-9064342D02*
X42238095Y-8873866D01*
X42238095Y-8873866D02*
X42190476Y-8778628D01*
X42190476Y-8778628D02*
X42142857Y-8731009D01*
X42142857Y-8731009D02*
X42047619Y-8683390D01*
X-1380951Y-2613819D02*
X-1380951Y-1613819D01*
X-1380951Y-1613819D02*
X-999999Y-1613819D01*
X-999999Y-1613819D02*
X-904761Y-1661438D01*
X-904761Y-1661438D02*
X-857142Y-1709057D01*
X-857142Y-1709057D02*
X-809523Y-1804295D01*
X-809523Y-1804295D02*
X-809523Y-1947152D01*
X-809523Y-1947152D02*
X-857142Y-2042390D01*
X-857142Y-2042390D02*
X-904761Y-2090009D01*
X-904761Y-2090009D02*
X-999999Y-2137628D01*
X-999999Y-2137628D02*
X-1380951Y-2137628D01*
X-380951Y-2613819D02*
X-380951Y-1947152D01*
X-380951Y-1613819D02*
X-428570Y-1661438D01*
X-428570Y-1661438D02*
X-380951Y-1709057D01*
X-380951Y-1709057D02*
X-333332Y-1661438D01*
X-333332Y-1661438D02*
X-380951Y-1613819D01*
X-380951Y-1613819D02*
X-380951Y-1709057D01*
X523809Y-2566200D02*
X428571Y-2613819D01*
X428571Y-2613819D02*
X238095Y-2613819D01*
X238095Y-2613819D02*
X142857Y-2566200D01*
X142857Y-2566200D02*
X95238Y-2518580D01*
X95238Y-2518580D02*
X47619Y-2423342D01*
X47619Y-2423342D02*
X47619Y-2137628D01*
X47619Y-2137628D02*
X95238Y-2042390D01*
X95238Y-2042390D02*
X142857Y-1994771D01*
X142857Y-1994771D02*
X238095Y-1947152D01*
X238095Y-1947152D02*
X428571Y-1947152D01*
X428571Y-1947152D02*
X523809Y-1994771D01*
X1095238Y-2613819D02*
X1000000Y-2566200D01*
X1000000Y-2566200D02*
X952381Y-2518580D01*
X952381Y-2518580D02*
X904762Y-2423342D01*
X904762Y-2423342D02*
X904762Y-2137628D01*
X904762Y-2137628D02*
X952381Y-2042390D01*
X952381Y-2042390D02*
X1000000Y-1994771D01*
X1000000Y-1994771D02*
X1095238Y-1947152D01*
X1095238Y-1947152D02*
X1238095Y-1947152D01*
X1238095Y-1947152D02*
X1333333Y-1994771D01*
X1333333Y-1994771D02*
X1380952Y-2042390D01*
X1380952Y-2042390D02*
X1428571Y-2137628D01*
X1428571Y-2137628D02*
X1428571Y-2423342D01*
X1428571Y-2423342D02*
X1380952Y-2518580D01*
X1380952Y-2518580D02*
X1333333Y-2566200D01*
X1333333Y-2566200D02*
X1238095Y-2613819D01*
X1238095Y-2613819D02*
X1095238Y-2613819D01*
X-761904Y545180D02*
X-761904Y-264342D01*
X-761904Y-264342D02*
X-714285Y-359580D01*
X-714285Y-359580D02*
X-666666Y-407200D01*
X-666666Y-407200D02*
X-571428Y-454819D01*
X-571428Y-454819D02*
X-380952Y-454819D01*
X-380952Y-454819D02*
X-285714Y-407200D01*
X-285714Y-407200D02*
X-238095Y-359580D01*
X-238095Y-359580D02*
X-190476Y-264342D01*
X-190476Y-264342D02*
X-190476Y545180D01*
X238095Y449942D02*
X285714Y497561D01*
X285714Y497561D02*
X380952Y545180D01*
X380952Y545180D02*
X619047Y545180D01*
X619047Y545180D02*
X714285Y497561D01*
X714285Y497561D02*
X761904Y449942D01*
X761904Y449942D02*
X809523Y354704D01*
X809523Y354704D02*
X809523Y259466D01*
X809523Y259466D02*
X761904Y116609D01*
X761904Y116609D02*
X190476Y-454819D01*
X190476Y-454819D02*
X809523Y-454819D01*
X-63404761Y-9454819D02*
X-63404761Y-8454819D01*
X-62833333Y-9454819D02*
X-63261904Y-8883390D01*
X-62833333Y-8454819D02*
X-63404761Y-9026247D01*
X-62023809Y-9407200D02*
X-62119047Y-9454819D01*
X-62119047Y-9454819D02*
X-62309523Y-9454819D01*
X-62309523Y-9454819D02*
X-62404761Y-9407200D01*
X-62404761Y-9407200D02*
X-62452380Y-9311961D01*
X-62452380Y-9311961D02*
X-62452380Y-8931009D01*
X-62452380Y-8931009D02*
X-62404761Y-8835771D01*
X-62404761Y-8835771D02*
X-62309523Y-8788152D01*
X-62309523Y-8788152D02*
X-62119047Y-8788152D01*
X-62119047Y-8788152D02*
X-62023809Y-8835771D01*
X-62023809Y-8835771D02*
X-61976190Y-8931009D01*
X-61976190Y-8931009D02*
X-61976190Y-9026247D01*
X-61976190Y-9026247D02*
X-62452380Y-9121485D01*
X-61642856Y-8788152D02*
X-61404761Y-9454819D01*
X-61166666Y-8788152D02*
X-61404761Y-9454819D01*
X-61404761Y-9454819D02*
X-61499999Y-9692914D01*
X-61499999Y-9692914D02*
X-61547618Y-9740533D01*
X-61547618Y-9740533D02*
X-61642856Y-9788152D01*
X-60833332Y-9407200D02*
X-60738094Y-9454819D01*
X-60738094Y-9454819D02*
X-60547618Y-9454819D01*
X-60547618Y-9454819D02*
X-60452380Y-9407200D01*
X-60452380Y-9407200D02*
X-60404761Y-9311961D01*
X-60404761Y-9311961D02*
X-60404761Y-9264342D01*
X-60404761Y-9264342D02*
X-60452380Y-9169104D01*
X-60452380Y-9169104D02*
X-60547618Y-9121485D01*
X-60547618Y-9121485D02*
X-60690475Y-9121485D01*
X-60690475Y-9121485D02*
X-60785713Y-9073866D01*
X-60785713Y-9073866D02*
X-60833332Y-8978628D01*
X-60833332Y-8978628D02*
X-60833332Y-8931009D01*
X-60833332Y-8931009D02*
X-60785713Y-8835771D01*
X-60785713Y-8835771D02*
X-60690475Y-8788152D01*
X-60690475Y-8788152D02*
X-60547618Y-8788152D01*
X-60547618Y-8788152D02*
X-60452380Y-8835771D01*
X-60071427Y-8788152D02*
X-59880951Y-9454819D01*
X-59880951Y-9454819D02*
X-59690475Y-8978628D01*
X-59690475Y-8978628D02*
X-59499999Y-9454819D01*
X-59499999Y-9454819D02*
X-59309523Y-8788152D01*
X-58928570Y-9454819D02*
X-58928570Y-8788152D01*
X-58928570Y-8454819D02*
X-58976189Y-8502438D01*
X-58976189Y-8502438D02*
X-58928570Y-8550057D01*
X-58928570Y-8550057D02*
X-58880951Y-8502438D01*
X-58880951Y-8502438D02*
X-58928570Y-8454819D01*
X-58928570Y-8454819D02*
X-58928570Y-8550057D01*
X-58595237Y-8788152D02*
X-58214285Y-8788152D01*
X-58452380Y-8454819D02*
X-58452380Y-9311961D01*
X-58452380Y-9311961D02*
X-58404761Y-9407200D01*
X-58404761Y-9407200D02*
X-58309523Y-9454819D01*
X-58309523Y-9454819D02*
X-58214285Y-9454819D01*
X-57452380Y-9407200D02*
X-57547618Y-9454819D01*
X-57547618Y-9454819D02*
X-57738094Y-9454819D01*
X-57738094Y-9454819D02*
X-57833332Y-9407200D01*
X-57833332Y-9407200D02*
X-57880951Y-9359580D01*
X-57880951Y-9359580D02*
X-57928570Y-9264342D01*
X-57928570Y-9264342D02*
X-57928570Y-8978628D01*
X-57928570Y-8978628D02*
X-57880951Y-8883390D01*
X-57880951Y-8883390D02*
X-57833332Y-8835771D01*
X-57833332Y-8835771D02*
X-57738094Y-8788152D01*
X-57738094Y-8788152D02*
X-57547618Y-8788152D01*
X-57547618Y-8788152D02*
X-57452380Y-8835771D01*
X-57023808Y-9454819D02*
X-57023808Y-8454819D01*
X-56595237Y-9454819D02*
X-56595237Y-8931009D01*
X-56595237Y-8931009D02*
X-56642856Y-8835771D01*
X-56642856Y-8835771D02*
X-56738094Y-8788152D01*
X-56738094Y-8788152D02*
X-56880951Y-8788152D01*
X-56880951Y-8788152D02*
X-56976189Y-8835771D01*
X-56976189Y-8835771D02*
X-57023808Y-8883390D01*
X-61238094Y-407200D02*
X-61095237Y-454819D01*
X-61095237Y-454819D02*
X-60857142Y-454819D01*
X-60857142Y-454819D02*
X-60761904Y-407200D01*
X-60761904Y-407200D02*
X-60714285Y-359580D01*
X-60714285Y-359580D02*
X-60666666Y-264342D01*
X-60666666Y-264342D02*
X-60666666Y-169104D01*
X-60666666Y-169104D02*
X-60714285Y-73866D01*
X-60714285Y-73866D02*
X-60761904Y-26247D01*
X-60761904Y-26247D02*
X-60857142Y21371D01*
X-60857142Y21371D02*
X-61047618Y68990D01*
X-61047618Y68990D02*
X-61142856Y116609D01*
X-61142856Y116609D02*
X-61190475Y164228D01*
X-61190475Y164228D02*
X-61238094Y259466D01*
X-61238094Y259466D02*
X-61238094Y354704D01*
X-61238094Y354704D02*
X-61190475Y449942D01*
X-61190475Y449942D02*
X-61142856Y497561D01*
X-61142856Y497561D02*
X-61047618Y545180D01*
X-61047618Y545180D02*
X-60809523Y545180D01*
X-60809523Y545180D02*
X-60666666Y497561D01*
X-59714285Y-454819D02*
X-60285713Y-454819D01*
X-59999999Y-454819D02*
X-59999999Y545180D01*
X-59999999Y545180D02*
X-60095237Y402323D01*
X-60095237Y402323D02*
X-60190475Y307085D01*
X-60190475Y307085D02*
X-60285713Y259466D01*
X-58857142Y211847D02*
X-58857142Y-454819D01*
X-59095237Y592800D02*
X-59333332Y-121485D01*
X-59333332Y-121485D02*
X-58714285Y-121485D01*
X75595238Y9645180D02*
X75595238Y10645180D01*
X76166666Y9645180D02*
X75738095Y10216609D01*
X76166666Y10645180D02*
X75595238Y10073752D01*
X76976190Y9692800D02*
X76880952Y9645180D01*
X76880952Y9645180D02*
X76690476Y9645180D01*
X76690476Y9645180D02*
X76595238Y9692800D01*
X76595238Y9692800D02*
X76547619Y9788038D01*
X76547619Y9788038D02*
X76547619Y10168990D01*
X76547619Y10168990D02*
X76595238Y10264228D01*
X76595238Y10264228D02*
X76690476Y10311847D01*
X76690476Y10311847D02*
X76880952Y10311847D01*
X76880952Y10311847D02*
X76976190Y10264228D01*
X76976190Y10264228D02*
X77023809Y10168990D01*
X77023809Y10168990D02*
X77023809Y10073752D01*
X77023809Y10073752D02*
X76547619Y9978514D01*
X77357143Y10311847D02*
X77595238Y9645180D01*
X77833333Y10311847D02*
X77595238Y9645180D01*
X77595238Y9645180D02*
X77500000Y9407085D01*
X77500000Y9407085D02*
X77452381Y9359466D01*
X77452381Y9359466D02*
X77357143Y9311847D01*
X78166667Y9692800D02*
X78261905Y9645180D01*
X78261905Y9645180D02*
X78452381Y9645180D01*
X78452381Y9645180D02*
X78547619Y9692800D01*
X78547619Y9692800D02*
X78595238Y9788038D01*
X78595238Y9788038D02*
X78595238Y9835657D01*
X78595238Y9835657D02*
X78547619Y9930895D01*
X78547619Y9930895D02*
X78452381Y9978514D01*
X78452381Y9978514D02*
X78309524Y9978514D01*
X78309524Y9978514D02*
X78214286Y10026133D01*
X78214286Y10026133D02*
X78166667Y10121371D01*
X78166667Y10121371D02*
X78166667Y10168990D01*
X78166667Y10168990D02*
X78214286Y10264228D01*
X78214286Y10264228D02*
X78309524Y10311847D01*
X78309524Y10311847D02*
X78452381Y10311847D01*
X78452381Y10311847D02*
X78547619Y10264228D01*
X78928572Y10311847D02*
X79119048Y9645180D01*
X79119048Y9645180D02*
X79309524Y10121371D01*
X79309524Y10121371D02*
X79500000Y9645180D01*
X79500000Y9645180D02*
X79690476Y10311847D01*
X80071429Y9645180D02*
X80071429Y10311847D01*
X80071429Y10645180D02*
X80023810Y10597561D01*
X80023810Y10597561D02*
X80071429Y10549942D01*
X80071429Y10549942D02*
X80119048Y10597561D01*
X80119048Y10597561D02*
X80071429Y10645180D01*
X80071429Y10645180D02*
X80071429Y10549942D01*
X80404762Y10311847D02*
X80785714Y10311847D01*
X80547619Y10645180D02*
X80547619Y9788038D01*
X80547619Y9788038D02*
X80595238Y9692800D01*
X80595238Y9692800D02*
X80690476Y9645180D01*
X80690476Y9645180D02*
X80785714Y9645180D01*
X81547619Y9692800D02*
X81452381Y9645180D01*
X81452381Y9645180D02*
X81261905Y9645180D01*
X81261905Y9645180D02*
X81166667Y9692800D01*
X81166667Y9692800D02*
X81119048Y9740419D01*
X81119048Y9740419D02*
X81071429Y9835657D01*
X81071429Y9835657D02*
X81071429Y10121371D01*
X81071429Y10121371D02*
X81119048Y10216609D01*
X81119048Y10216609D02*
X81166667Y10264228D01*
X81166667Y10264228D02*
X81261905Y10311847D01*
X81261905Y10311847D02*
X81452381Y10311847D01*
X81452381Y10311847D02*
X81547619Y10264228D01*
X81976191Y9645180D02*
X81976191Y10645180D01*
X82404762Y9645180D02*
X82404762Y10168990D01*
X82404762Y10168990D02*
X82357143Y10264228D01*
X82357143Y10264228D02*
X82261905Y10311847D01*
X82261905Y10311847D02*
X82119048Y10311847D01*
X82119048Y10311847D02*
X82023810Y10264228D01*
X82023810Y10264228D02*
X81976191Y10216609D01*
X78238095Y18692800D02*
X78380952Y18645180D01*
X78380952Y18645180D02*
X78619047Y18645180D01*
X78619047Y18645180D02*
X78714285Y18692800D01*
X78714285Y18692800D02*
X78761904Y18740419D01*
X78761904Y18740419D02*
X78809523Y18835657D01*
X78809523Y18835657D02*
X78809523Y18930895D01*
X78809523Y18930895D02*
X78761904Y19026133D01*
X78761904Y19026133D02*
X78714285Y19073752D01*
X78714285Y19073752D02*
X78619047Y19121371D01*
X78619047Y19121371D02*
X78428571Y19168990D01*
X78428571Y19168990D02*
X78333333Y19216609D01*
X78333333Y19216609D02*
X78285714Y19264228D01*
X78285714Y19264228D02*
X78238095Y19359466D01*
X78238095Y19359466D02*
X78238095Y19454704D01*
X78238095Y19454704D02*
X78285714Y19549942D01*
X78285714Y19549942D02*
X78333333Y19597561D01*
X78333333Y19597561D02*
X78428571Y19645180D01*
X78428571Y19645180D02*
X78666666Y19645180D01*
X78666666Y19645180D02*
X78809523Y19597561D01*
X79285714Y18645180D02*
X79476190Y18645180D01*
X79476190Y18645180D02*
X79571428Y18692800D01*
X79571428Y18692800D02*
X79619047Y18740419D01*
X79619047Y18740419D02*
X79714285Y18883276D01*
X79714285Y18883276D02*
X79761904Y19073752D01*
X79761904Y19073752D02*
X79761904Y19454704D01*
X79761904Y19454704D02*
X79714285Y19549942D01*
X79714285Y19549942D02*
X79666666Y19597561D01*
X79666666Y19597561D02*
X79571428Y19645180D01*
X79571428Y19645180D02*
X79380952Y19645180D01*
X79380952Y19645180D02*
X79285714Y19597561D01*
X79285714Y19597561D02*
X79238095Y19549942D01*
X79238095Y19549942D02*
X79190476Y19454704D01*
X79190476Y19454704D02*
X79190476Y19216609D01*
X79190476Y19216609D02*
X79238095Y19121371D01*
X79238095Y19121371D02*
X79285714Y19073752D01*
X79285714Y19073752D02*
X79380952Y19026133D01*
X79380952Y19026133D02*
X79571428Y19026133D01*
X79571428Y19026133D02*
X79666666Y19073752D01*
X79666666Y19073752D02*
X79714285Y19121371D01*
X79714285Y19121371D02*
X79761904Y19216609D01*
X55158097Y-53505792D02*
X55314531Y-52518104D01*
X55722490Y-53595183D02*
X55388586Y-52963746D01*
X55878924Y-52607495D02*
X55225140Y-53082497D01*
X56529496Y-53674788D02*
X56427982Y-53706922D01*
X56427982Y-53706922D02*
X56239851Y-53677125D01*
X56239851Y-53677125D02*
X56153234Y-53615194D01*
X56153234Y-53615194D02*
X56121100Y-53513679D01*
X56121100Y-53513679D02*
X56180694Y-53137417D01*
X56180694Y-53137417D02*
X56242625Y-53050800D01*
X56242625Y-53050800D02*
X56344140Y-53018666D01*
X56344140Y-53018666D02*
X56532271Y-53048463D01*
X56532271Y-53048463D02*
X56618888Y-53110394D01*
X56618888Y-53110394D02*
X56651022Y-53211909D01*
X56651022Y-53211909D02*
X56636123Y-53305975D01*
X56636123Y-53305975D02*
X56150897Y-53325548D01*
X57002599Y-53122956D02*
X57133473Y-53818661D01*
X57472927Y-53197448D02*
X57133473Y-53818661D01*
X57133473Y-53818661D02*
X57002162Y-54038926D01*
X57002162Y-54038926D02*
X56947680Y-54078510D01*
X56947680Y-54078510D02*
X56846165Y-54110644D01*
X57705316Y-53861019D02*
X57791933Y-53922951D01*
X57791933Y-53922951D02*
X57980064Y-53952748D01*
X57980064Y-53952748D02*
X58081579Y-53920613D01*
X58081579Y-53920613D02*
X58143510Y-53833997D01*
X58143510Y-53833997D02*
X58150959Y-53786964D01*
X58150959Y-53786964D02*
X58118825Y-53685449D01*
X58118825Y-53685449D02*
X58032209Y-53623518D01*
X58032209Y-53623518D02*
X57891110Y-53601170D01*
X57891110Y-53601170D02*
X57804494Y-53539239D01*
X57804494Y-53539239D02*
X57772360Y-53437724D01*
X57772360Y-53437724D02*
X57779809Y-53390691D01*
X57779809Y-53390691D02*
X57841740Y-53304075D01*
X57841740Y-53304075D02*
X57943255Y-53271941D01*
X57943255Y-53271941D02*
X58084353Y-53294289D01*
X58084353Y-53294289D02*
X58170970Y-53356220D01*
X58554681Y-53368781D02*
X58638523Y-54057037D01*
X58638523Y-54057037D02*
X58901146Y-53616506D01*
X58901146Y-53616506D02*
X59014785Y-54116631D01*
X59014785Y-54116631D02*
X59307206Y-53487969D01*
X59579178Y-54206022D02*
X59683468Y-53547564D01*
X59735613Y-53218334D02*
X59681131Y-53257918D01*
X59681131Y-53257918D02*
X59720714Y-53312400D01*
X59720714Y-53312400D02*
X59775196Y-53272816D01*
X59775196Y-53272816D02*
X59735613Y-53218334D01*
X59735613Y-53218334D02*
X59720714Y-53312400D01*
X60012697Y-53599708D02*
X60388959Y-53659302D01*
X60205940Y-53292827D02*
X60071853Y-54139417D01*
X60071853Y-54139417D02*
X60103988Y-54240931D01*
X60103988Y-54240931D02*
X60190604Y-54302863D01*
X60190604Y-54302863D02*
X60284669Y-54317761D01*
X61044644Y-54389917D02*
X60943129Y-54422051D01*
X60943129Y-54422051D02*
X60754998Y-54392254D01*
X60754998Y-54392254D02*
X60668381Y-54330323D01*
X60668381Y-54330323D02*
X60628798Y-54275841D01*
X60628798Y-54275841D02*
X60596664Y-54174326D01*
X60596664Y-54174326D02*
X60641359Y-53892129D01*
X60641359Y-53892129D02*
X60703290Y-53805513D01*
X60703290Y-53805513D02*
X60757773Y-53765929D01*
X60757773Y-53765929D02*
X60859287Y-53733795D01*
X60859287Y-53733795D02*
X61047418Y-53763592D01*
X61047418Y-53763592D02*
X61134035Y-53825523D01*
X61460490Y-54503993D02*
X61616924Y-53516305D01*
X61883785Y-54571036D02*
X61965726Y-54053676D01*
X61965726Y-54053676D02*
X61933592Y-53952161D01*
X61933592Y-53952161D02*
X61846976Y-53890230D01*
X61846976Y-53890230D02*
X61705877Y-53867882D01*
X61705877Y-53867882D02*
X61604363Y-53900016D01*
X61604363Y-53900016D02*
X61549881Y-53939600D01*
X58713448Y-44908505D02*
X58847097Y-44977886D01*
X58847097Y-44977886D02*
X59082261Y-45015132D01*
X59082261Y-45015132D02*
X59183775Y-44982998D01*
X59183775Y-44982998D02*
X59238257Y-44943415D01*
X59238257Y-44943415D02*
X59300189Y-44856798D01*
X59300189Y-44856798D02*
X59315087Y-44762733D01*
X59315087Y-44762733D02*
X59282953Y-44661218D01*
X59282953Y-44661218D02*
X59243369Y-44606736D01*
X59243369Y-44606736D02*
X59156753Y-44544805D01*
X59156753Y-44544805D02*
X58976071Y-44467975D01*
X58976071Y-44467975D02*
X58889455Y-44406043D01*
X58889455Y-44406043D02*
X58849871Y-44351561D01*
X58849871Y-44351561D02*
X58817737Y-44250047D01*
X58817737Y-44250047D02*
X58832636Y-44155981D01*
X58832636Y-44155981D02*
X58894567Y-44069365D01*
X58894567Y-44069365D02*
X58949049Y-44029781D01*
X58949049Y-44029781D02*
X59050564Y-43997647D01*
X59050564Y-43997647D02*
X59285728Y-44034893D01*
X59285728Y-44034893D02*
X59419377Y-44104274D01*
X59788190Y-44210901D02*
X59842672Y-44171317D01*
X59842672Y-44171317D02*
X59944187Y-44139183D01*
X59944187Y-44139183D02*
X60179351Y-44176429D01*
X60179351Y-44176429D02*
X60265967Y-44238361D01*
X60265967Y-44238361D02*
X60305550Y-44292843D01*
X60305550Y-44292843D02*
X60337685Y-44394357D01*
X60337685Y-44394357D02*
X60322786Y-44488423D01*
X60322786Y-44488423D02*
X60253406Y-44622072D01*
X60253406Y-44622072D02*
X59599621Y-45097074D01*
X59599621Y-45097074D02*
X60211047Y-45193915D01*
X60864832Y-44718912D02*
X60778215Y-44656981D01*
X60778215Y-44656981D02*
X60738632Y-44602499D01*
X60738632Y-44602499D02*
X60706498Y-44500984D01*
X60706498Y-44500984D02*
X60713947Y-44453951D01*
X60713947Y-44453951D02*
X60775878Y-44367335D01*
X60775878Y-44367335D02*
X60830360Y-44327752D01*
X60830360Y-44327752D02*
X60931875Y-44295617D01*
X60931875Y-44295617D02*
X61120006Y-44325414D01*
X61120006Y-44325414D02*
X61206623Y-44387346D01*
X61206623Y-44387346D02*
X61246206Y-44441828D01*
X61246206Y-44441828D02*
X61278340Y-44543343D01*
X61278340Y-44543343D02*
X61270891Y-44590375D01*
X61270891Y-44590375D02*
X61208960Y-44676992D01*
X61208960Y-44676992D02*
X61154478Y-44716575D01*
X61154478Y-44716575D02*
X61052963Y-44748709D01*
X61052963Y-44748709D02*
X60864832Y-44718912D01*
X60864832Y-44718912D02*
X60763317Y-44751047D01*
X60763317Y-44751047D02*
X60708835Y-44790630D01*
X60708835Y-44790630D02*
X60646904Y-44877246D01*
X60646904Y-44877246D02*
X60617107Y-45065378D01*
X60617107Y-45065378D02*
X60649241Y-45166892D01*
X60649241Y-45166892D02*
X60688824Y-45221374D01*
X60688824Y-45221374D02*
X60775441Y-45283306D01*
X60775441Y-45283306D02*
X60963572Y-45313103D01*
X60963572Y-45313103D02*
X61065087Y-45280969D01*
X61065087Y-45280969D02*
X61119569Y-45241385D01*
X61119569Y-45241385D02*
X61181500Y-45154769D01*
X61181500Y-45154769D02*
X61211297Y-44966638D01*
X61211297Y-44966638D02*
X61179163Y-44865123D01*
X61179163Y-44865123D02*
X61139579Y-44810641D01*
X61139579Y-44810641D02*
X61052963Y-44748709D01*
X37595238Y-254819D02*
X37595238Y745180D01*
X38166666Y-254819D02*
X37738095Y316609D01*
X38166666Y745180D02*
X37595238Y173752D01*
X38976190Y-207200D02*
X38880952Y-254819D01*
X38880952Y-254819D02*
X38690476Y-254819D01*
X38690476Y-254819D02*
X38595238Y-207200D01*
X38595238Y-207200D02*
X38547619Y-111961D01*
X38547619Y-111961D02*
X38547619Y268990D01*
X38547619Y268990D02*
X38595238Y364228D01*
X38595238Y364228D02*
X38690476Y411847D01*
X38690476Y411847D02*
X38880952Y411847D01*
X38880952Y411847D02*
X38976190Y364228D01*
X38976190Y364228D02*
X39023809Y268990D01*
X39023809Y268990D02*
X39023809Y173752D01*
X39023809Y173752D02*
X38547619Y78514D01*
X39357143Y411847D02*
X39595238Y-254819D01*
X39833333Y411847D02*
X39595238Y-254819D01*
X39595238Y-254819D02*
X39500000Y-492914D01*
X39500000Y-492914D02*
X39452381Y-540533D01*
X39452381Y-540533D02*
X39357143Y-588152D01*
X40166667Y-207200D02*
X40261905Y-254819D01*
X40261905Y-254819D02*
X40452381Y-254819D01*
X40452381Y-254819D02*
X40547619Y-207200D01*
X40547619Y-207200D02*
X40595238Y-111961D01*
X40595238Y-111961D02*
X40595238Y-64342D01*
X40595238Y-64342D02*
X40547619Y30895D01*
X40547619Y30895D02*
X40452381Y78514D01*
X40452381Y78514D02*
X40309524Y78514D01*
X40309524Y78514D02*
X40214286Y126133D01*
X40214286Y126133D02*
X40166667Y221371D01*
X40166667Y221371D02*
X40166667Y268990D01*
X40166667Y268990D02*
X40214286Y364228D01*
X40214286Y364228D02*
X40309524Y411847D01*
X40309524Y411847D02*
X40452381Y411847D01*
X40452381Y411847D02*
X40547619Y364228D01*
X40928572Y411847D02*
X41119048Y-254819D01*
X41119048Y-254819D02*
X41309524Y221371D01*
X41309524Y221371D02*
X41500000Y-254819D01*
X41500000Y-254819D02*
X41690476Y411847D01*
X42071429Y-254819D02*
X42071429Y411847D01*
X42071429Y745180D02*
X42023810Y697561D01*
X42023810Y697561D02*
X42071429Y649942D01*
X42071429Y649942D02*
X42119048Y697561D01*
X42119048Y697561D02*
X42071429Y745180D01*
X42071429Y745180D02*
X42071429Y649942D01*
X42404762Y411847D02*
X42785714Y411847D01*
X42547619Y745180D02*
X42547619Y-111961D01*
X42547619Y-111961D02*
X42595238Y-207200D01*
X42595238Y-207200D02*
X42690476Y-254819D01*
X42690476Y-254819D02*
X42785714Y-254819D01*
X43547619Y-207200D02*
X43452381Y-254819D01*
X43452381Y-254819D02*
X43261905Y-254819D01*
X43261905Y-254819D02*
X43166667Y-207200D01*
X43166667Y-207200D02*
X43119048Y-159580D01*
X43119048Y-159580D02*
X43071429Y-64342D01*
X43071429Y-64342D02*
X43071429Y221371D01*
X43071429Y221371D02*
X43119048Y316609D01*
X43119048Y316609D02*
X43166667Y364228D01*
X43166667Y364228D02*
X43261905Y411847D01*
X43261905Y411847D02*
X43452381Y411847D01*
X43452381Y411847D02*
X43547619Y364228D01*
X43976191Y-254819D02*
X43976191Y745180D01*
X44404762Y-254819D02*
X44404762Y268990D01*
X44404762Y268990D02*
X44357143Y364228D01*
X44357143Y364228D02*
X44261905Y411847D01*
X44261905Y411847D02*
X44119048Y411847D01*
X44119048Y411847D02*
X44023810Y364228D01*
X44023810Y364228D02*
X43976191Y316609D01*
X40238095Y8792800D02*
X40380952Y8745180D01*
X40380952Y8745180D02*
X40619047Y8745180D01*
X40619047Y8745180D02*
X40714285Y8792800D01*
X40714285Y8792800D02*
X40761904Y8840419D01*
X40761904Y8840419D02*
X40809523Y8935657D01*
X40809523Y8935657D02*
X40809523Y9030895D01*
X40809523Y9030895D02*
X40761904Y9126133D01*
X40761904Y9126133D02*
X40714285Y9173752D01*
X40714285Y9173752D02*
X40619047Y9221371D01*
X40619047Y9221371D02*
X40428571Y9268990D01*
X40428571Y9268990D02*
X40333333Y9316609D01*
X40333333Y9316609D02*
X40285714Y9364228D01*
X40285714Y9364228D02*
X40238095Y9459466D01*
X40238095Y9459466D02*
X40238095Y9554704D01*
X40238095Y9554704D02*
X40285714Y9649942D01*
X40285714Y9649942D02*
X40333333Y9697561D01*
X40333333Y9697561D02*
X40428571Y9745180D01*
X40428571Y9745180D02*
X40666666Y9745180D01*
X40666666Y9745180D02*
X40809523Y9697561D01*
X41142857Y9745180D02*
X41809523Y9745180D01*
X41809523Y9745180D02*
X41380952Y8745180D01*
X-23883784Y-64871036D02*
X-24040218Y-63883348D01*
X-23319390Y-64781645D02*
X-23832076Y-64284295D01*
X-23475825Y-63793957D02*
X-23950827Y-64447741D01*
X-22527282Y-64607975D02*
X-22613899Y-64669906D01*
X-22613899Y-64669906D02*
X-22802030Y-64699703D01*
X-22802030Y-64699703D02*
X-22903545Y-64667569D01*
X-22903545Y-64667569D02*
X-22965476Y-64580953D01*
X-22965476Y-64580953D02*
X-23025070Y-64204690D01*
X-23025070Y-64204690D02*
X-22992936Y-64103175D01*
X-22992936Y-64103175D02*
X-22906319Y-64041244D01*
X-22906319Y-64041244D02*
X-22718188Y-64011447D01*
X-22718188Y-64011447D02*
X-22616673Y-64043581D01*
X-22616673Y-64043581D02*
X-22554742Y-64130198D01*
X-22554742Y-64130198D02*
X-22539844Y-64224263D01*
X-22539844Y-64224263D02*
X-22995273Y-64392821D01*
X-22247860Y-63936955D02*
X-21908407Y-64558167D01*
X-21777533Y-63862462D02*
X-21908407Y-64558167D01*
X-21908407Y-64558167D02*
X-21965226Y-64808230D01*
X-21965226Y-64808230D02*
X-22004810Y-64862712D01*
X-22004810Y-64862712D02*
X-22091426Y-64924643D01*
X-21351462Y-64421743D02*
X-21249948Y-64453877D01*
X-21249948Y-64453877D02*
X-21061817Y-64424080D01*
X-21061817Y-64424080D02*
X-20975200Y-64362149D01*
X-20975200Y-64362149D02*
X-20943066Y-64260634D01*
X-20943066Y-64260634D02*
X-20950515Y-64213601D01*
X-20950515Y-64213601D02*
X-21012447Y-64126985D01*
X-21012447Y-64126985D02*
X-21113961Y-64094851D01*
X-21113961Y-64094851D02*
X-21255060Y-64117199D01*
X-21255060Y-64117199D02*
X-21356575Y-64085064D01*
X-21356575Y-64085064D02*
X-21418506Y-63998448D01*
X-21418506Y-63998448D02*
X-21425955Y-63951415D01*
X-21425955Y-63951415D02*
X-21393821Y-63849901D01*
X-21393821Y-63849901D02*
X-21307205Y-63787969D01*
X-21307205Y-63787969D02*
X-21166106Y-63765621D01*
X-21166106Y-63765621D02*
X-21064591Y-63797756D01*
X-20695778Y-63691129D02*
X-20403357Y-64319791D01*
X-20403357Y-64319791D02*
X-20289719Y-63819666D01*
X-20289719Y-63819666D02*
X-20027095Y-64260197D01*
X-20027095Y-64260197D02*
X-19943254Y-63571941D01*
X-19462702Y-64170806D02*
X-19566992Y-63512347D01*
X-19619136Y-63183117D02*
X-19658720Y-63237599D01*
X-19658720Y-63237599D02*
X-19604238Y-63277183D01*
X-19604238Y-63277183D02*
X-19564654Y-63222701D01*
X-19564654Y-63222701D02*
X-19619136Y-63183117D01*
X-19619136Y-63183117D02*
X-19604238Y-63277183D01*
X-19237763Y-63460202D02*
X-18861500Y-63400608D01*
X-19148809Y-63108625D02*
X-19014722Y-63955215D01*
X-19014722Y-63955215D02*
X-18952791Y-64041831D01*
X-18952791Y-64041831D02*
X-18851276Y-64073965D01*
X-18851276Y-64073965D02*
X-18757211Y-64059067D01*
X-18012135Y-63892846D02*
X-18098751Y-63954777D01*
X-18098751Y-63954777D02*
X-18286883Y-63984574D01*
X-18286883Y-63984574D02*
X-18388397Y-63952440D01*
X-18388397Y-63952440D02*
X-18442879Y-63912856D01*
X-18442879Y-63912856D02*
X-18504811Y-63826240D01*
X-18504811Y-63826240D02*
X-18549506Y-63544043D01*
X-18549506Y-63544043D02*
X-18517372Y-63442528D01*
X-18517372Y-63442528D02*
X-18477788Y-63388046D01*
X-18477788Y-63388046D02*
X-18391172Y-63326115D01*
X-18391172Y-63326115D02*
X-18203041Y-63296318D01*
X-18203041Y-63296318D02*
X-18101526Y-63328452D01*
X-17581391Y-63872835D02*
X-17737825Y-62885147D01*
X-17158096Y-63805792D02*
X-17240038Y-63288431D01*
X-17240038Y-63288431D02*
X-17301969Y-63201815D01*
X-17301969Y-63201815D02*
X-17403484Y-63169681D01*
X-17403484Y-63169681D02*
X-17544582Y-63192028D01*
X-17544582Y-63192028D02*
X-17631198Y-63253960D01*
X-17631198Y-63253960D02*
X-17670782Y-63308442D01*
X-23159151Y-55595867D02*
X-23010604Y-55620552D01*
X-23010604Y-55620552D02*
X-22775440Y-55583306D01*
X-22775440Y-55583306D02*
X-22688823Y-55521374D01*
X-22688823Y-55521374D02*
X-22649240Y-55466892D01*
X-22649240Y-55466892D02*
X-22617106Y-55365377D01*
X-22617106Y-55365377D02*
X-22632004Y-55271312D01*
X-22632004Y-55271312D02*
X-22693935Y-55184696D01*
X-22693935Y-55184696D02*
X-22748417Y-55145112D01*
X-22748417Y-55145112D02*
X-22849932Y-55112978D01*
X-22849932Y-55112978D02*
X-23045513Y-55095742D01*
X-23045513Y-55095742D02*
X-23147028Y-55063608D01*
X-23147028Y-55063608D02*
X-23201510Y-55024024D01*
X-23201510Y-55024024D02*
X-23263441Y-54937408D01*
X-23263441Y-54937408D02*
X-23278339Y-54843342D01*
X-23278339Y-54843342D02*
X-23246205Y-54741828D01*
X-23246205Y-54741828D02*
X-23206622Y-54687346D01*
X-23206622Y-54687346D02*
X-23120005Y-54625414D01*
X-23120005Y-54625414D02*
X-22884841Y-54588168D01*
X-22884841Y-54588168D02*
X-22736294Y-54612853D01*
X-22352582Y-54600292D02*
X-22312999Y-54545810D01*
X-22312999Y-54545810D02*
X-22226382Y-54483878D01*
X-22226382Y-54483878D02*
X-21991219Y-54446632D01*
X-21991219Y-54446632D02*
X-21889704Y-54478766D01*
X-21889704Y-54478766D02*
X-21835222Y-54518350D01*
X-21835222Y-54518350D02*
X-21773290Y-54604966D01*
X-21773290Y-54604966D02*
X-21758392Y-54699032D01*
X-21758392Y-54699032D02*
X-21783077Y-54847579D01*
X-21783077Y-54847579D02*
X-22258079Y-55501364D01*
X-22258079Y-55501364D02*
X-21646653Y-55404523D01*
X-20909465Y-54275299D02*
X-21379792Y-54349792D01*
X-21379792Y-54349792D02*
X-21352333Y-54827569D01*
X-21352333Y-54827569D02*
X-21312749Y-54773087D01*
X-21312749Y-54773087D02*
X-21226133Y-54711155D01*
X-21226133Y-54711155D02*
X-20990969Y-54673909D01*
X-20990969Y-54673909D02*
X-20889454Y-54706043D01*
X-20889454Y-54706043D02*
X-20834972Y-54745627D01*
X-20834972Y-54745627D02*
X-20773041Y-54832243D01*
X-20773041Y-54832243D02*
X-20735794Y-55067407D01*
X-20735794Y-55067407D02*
X-20767929Y-55168922D01*
X-20767929Y-55168922D02*
X-20807512Y-55223404D01*
X-20807512Y-55223404D02*
X-20894128Y-55285335D01*
X-20894128Y-55285335D02*
X-21129292Y-55322581D01*
X-21129292Y-55322581D02*
X-21230807Y-55290447D01*
X-21230807Y-55290447D02*
X-21285289Y-55250864D01*
X36158097Y-49805792D02*
X36314531Y-48818104D01*
X36722490Y-49895183D02*
X36388586Y-49263746D01*
X36878924Y-48907495D02*
X36225140Y-49382497D01*
X37529496Y-49974788D02*
X37427982Y-50006922D01*
X37427982Y-50006922D02*
X37239851Y-49977125D01*
X37239851Y-49977125D02*
X37153234Y-49915194D01*
X37153234Y-49915194D02*
X37121100Y-49813679D01*
X37121100Y-49813679D02*
X37180694Y-49437417D01*
X37180694Y-49437417D02*
X37242625Y-49350800D01*
X37242625Y-49350800D02*
X37344140Y-49318666D01*
X37344140Y-49318666D02*
X37532271Y-49348463D01*
X37532271Y-49348463D02*
X37618888Y-49410394D01*
X37618888Y-49410394D02*
X37651022Y-49511909D01*
X37651022Y-49511909D02*
X37636123Y-49605975D01*
X37636123Y-49605975D02*
X37150897Y-49625548D01*
X38002599Y-49422956D02*
X38133473Y-50118661D01*
X38472927Y-49497448D02*
X38133473Y-50118661D01*
X38133473Y-50118661D02*
X38002162Y-50338926D01*
X38002162Y-50338926D02*
X37947680Y-50378510D01*
X37947680Y-50378510D02*
X37846165Y-50410644D01*
X38705316Y-50161019D02*
X38791933Y-50222951D01*
X38791933Y-50222951D02*
X38980064Y-50252748D01*
X38980064Y-50252748D02*
X39081579Y-50220613D01*
X39081579Y-50220613D02*
X39143510Y-50133997D01*
X39143510Y-50133997D02*
X39150959Y-50086964D01*
X39150959Y-50086964D02*
X39118825Y-49985449D01*
X39118825Y-49985449D02*
X39032209Y-49923518D01*
X39032209Y-49923518D02*
X38891110Y-49901170D01*
X38891110Y-49901170D02*
X38804494Y-49839239D01*
X38804494Y-49839239D02*
X38772360Y-49737724D01*
X38772360Y-49737724D02*
X38779809Y-49690691D01*
X38779809Y-49690691D02*
X38841740Y-49604075D01*
X38841740Y-49604075D02*
X38943255Y-49571941D01*
X38943255Y-49571941D02*
X39084353Y-49594289D01*
X39084353Y-49594289D02*
X39170970Y-49656220D01*
X39554681Y-49668781D02*
X39638523Y-50357037D01*
X39638523Y-50357037D02*
X39901146Y-49916506D01*
X39901146Y-49916506D02*
X40014785Y-50416631D01*
X40014785Y-50416631D02*
X40307206Y-49787969D01*
X40579178Y-50506022D02*
X40683468Y-49847564D01*
X40735613Y-49518334D02*
X40681131Y-49557918D01*
X40681131Y-49557918D02*
X40720714Y-49612400D01*
X40720714Y-49612400D02*
X40775196Y-49572816D01*
X40775196Y-49572816D02*
X40735613Y-49518334D01*
X40735613Y-49518334D02*
X40720714Y-49612400D01*
X41012697Y-49899708D02*
X41388959Y-49959302D01*
X41205940Y-49592827D02*
X41071853Y-50439417D01*
X41071853Y-50439417D02*
X41103988Y-50540931D01*
X41103988Y-50540931D02*
X41190604Y-50602863D01*
X41190604Y-50602863D02*
X41284669Y-50617761D01*
X42044644Y-50689917D02*
X41943129Y-50722051D01*
X41943129Y-50722051D02*
X41754998Y-50692254D01*
X41754998Y-50692254D02*
X41668381Y-50630323D01*
X41668381Y-50630323D02*
X41628798Y-50575841D01*
X41628798Y-50575841D02*
X41596664Y-50474326D01*
X41596664Y-50474326D02*
X41641359Y-50192129D01*
X41641359Y-50192129D02*
X41703290Y-50105513D01*
X41703290Y-50105513D02*
X41757773Y-50065929D01*
X41757773Y-50065929D02*
X41859287Y-50033795D01*
X41859287Y-50033795D02*
X42047418Y-50063592D01*
X42047418Y-50063592D02*
X42134035Y-50125523D01*
X42460490Y-50803993D02*
X42616924Y-49816305D01*
X42883785Y-50871036D02*
X42965726Y-50353676D01*
X42965726Y-50353676D02*
X42933592Y-50252161D01*
X42933592Y-50252161D02*
X42846976Y-50190230D01*
X42846976Y-50190230D02*
X42705877Y-50167882D01*
X42705877Y-50167882D02*
X42604363Y-50200016D01*
X42604363Y-50200016D02*
X42549881Y-50239600D01*
X39713448Y-41208505D02*
X39847097Y-41277886D01*
X39847097Y-41277886D02*
X40082261Y-41315132D01*
X40082261Y-41315132D02*
X40183775Y-41282998D01*
X40183775Y-41282998D02*
X40238257Y-41243415D01*
X40238257Y-41243415D02*
X40300189Y-41156798D01*
X40300189Y-41156798D02*
X40315087Y-41062733D01*
X40315087Y-41062733D02*
X40282953Y-40961218D01*
X40282953Y-40961218D02*
X40243369Y-40906736D01*
X40243369Y-40906736D02*
X40156753Y-40844805D01*
X40156753Y-40844805D02*
X39976071Y-40767975D01*
X39976071Y-40767975D02*
X39889455Y-40706043D01*
X39889455Y-40706043D02*
X39849871Y-40651561D01*
X39849871Y-40651561D02*
X39817737Y-40550047D01*
X39817737Y-40550047D02*
X39832636Y-40455981D01*
X39832636Y-40455981D02*
X39894567Y-40369365D01*
X39894567Y-40369365D02*
X39949049Y-40329781D01*
X39949049Y-40329781D02*
X40050564Y-40297647D01*
X40050564Y-40297647D02*
X40285728Y-40334893D01*
X40285728Y-40334893D02*
X40419377Y-40404274D01*
X40788190Y-40510901D02*
X40842672Y-40471317D01*
X40842672Y-40471317D02*
X40944187Y-40439183D01*
X40944187Y-40439183D02*
X41179351Y-40476429D01*
X41179351Y-40476429D02*
X41265967Y-40538361D01*
X41265967Y-40538361D02*
X41305550Y-40592843D01*
X41305550Y-40592843D02*
X41337685Y-40694357D01*
X41337685Y-40694357D02*
X41322786Y-40788423D01*
X41322786Y-40788423D02*
X41253406Y-40922072D01*
X41253406Y-40922072D02*
X40599621Y-41397074D01*
X40599621Y-41397074D02*
X41211047Y-41493915D01*
X41696711Y-40558371D02*
X42355170Y-40662661D01*
X42355170Y-40662661D02*
X41775441Y-41583306D01*
X56595238Y-9454819D02*
X56595238Y-8454819D01*
X57166666Y-9454819D02*
X56738095Y-8883390D01*
X57166666Y-8454819D02*
X56595238Y-9026247D01*
X57976190Y-9407200D02*
X57880952Y-9454819D01*
X57880952Y-9454819D02*
X57690476Y-9454819D01*
X57690476Y-9454819D02*
X57595238Y-9407200D01*
X57595238Y-9407200D02*
X57547619Y-9311961D01*
X57547619Y-9311961D02*
X57547619Y-8931009D01*
X57547619Y-8931009D02*
X57595238Y-8835771D01*
X57595238Y-8835771D02*
X57690476Y-8788152D01*
X57690476Y-8788152D02*
X57880952Y-8788152D01*
X57880952Y-8788152D02*
X57976190Y-8835771D01*
X57976190Y-8835771D02*
X58023809Y-8931009D01*
X58023809Y-8931009D02*
X58023809Y-9026247D01*
X58023809Y-9026247D02*
X57547619Y-9121485D01*
X58357143Y-8788152D02*
X58595238Y-9454819D01*
X58833333Y-8788152D02*
X58595238Y-9454819D01*
X58595238Y-9454819D02*
X58500000Y-9692914D01*
X58500000Y-9692914D02*
X58452381Y-9740533D01*
X58452381Y-9740533D02*
X58357143Y-9788152D01*
X59166667Y-9407200D02*
X59261905Y-9454819D01*
X59261905Y-9454819D02*
X59452381Y-9454819D01*
X59452381Y-9454819D02*
X59547619Y-9407200D01*
X59547619Y-9407200D02*
X59595238Y-9311961D01*
X59595238Y-9311961D02*
X59595238Y-9264342D01*
X59595238Y-9264342D02*
X59547619Y-9169104D01*
X59547619Y-9169104D02*
X59452381Y-9121485D01*
X59452381Y-9121485D02*
X59309524Y-9121485D01*
X59309524Y-9121485D02*
X59214286Y-9073866D01*
X59214286Y-9073866D02*
X59166667Y-8978628D01*
X59166667Y-8978628D02*
X59166667Y-8931009D01*
X59166667Y-8931009D02*
X59214286Y-8835771D01*
X59214286Y-8835771D02*
X59309524Y-8788152D01*
X59309524Y-8788152D02*
X59452381Y-8788152D01*
X59452381Y-8788152D02*
X59547619Y-8835771D01*
X59928572Y-8788152D02*
X60119048Y-9454819D01*
X60119048Y-9454819D02*
X60309524Y-8978628D01*
X60309524Y-8978628D02*
X60500000Y-9454819D01*
X60500000Y-9454819D02*
X60690476Y-8788152D01*
X61071429Y-9454819D02*
X61071429Y-8788152D01*
X61071429Y-8454819D02*
X61023810Y-8502438D01*
X61023810Y-8502438D02*
X61071429Y-8550057D01*
X61071429Y-8550057D02*
X61119048Y-8502438D01*
X61119048Y-8502438D02*
X61071429Y-8454819D01*
X61071429Y-8454819D02*
X61071429Y-8550057D01*
X61404762Y-8788152D02*
X61785714Y-8788152D01*
X61547619Y-8454819D02*
X61547619Y-9311961D01*
X61547619Y-9311961D02*
X61595238Y-9407200D01*
X61595238Y-9407200D02*
X61690476Y-9454819D01*
X61690476Y-9454819D02*
X61785714Y-9454819D01*
X62547619Y-9407200D02*
X62452381Y-9454819D01*
X62452381Y-9454819D02*
X62261905Y-9454819D01*
X62261905Y-9454819D02*
X62166667Y-9407200D01*
X62166667Y-9407200D02*
X62119048Y-9359580D01*
X62119048Y-9359580D02*
X62071429Y-9264342D01*
X62071429Y-9264342D02*
X62071429Y-8978628D01*
X62071429Y-8978628D02*
X62119048Y-8883390D01*
X62119048Y-8883390D02*
X62166667Y-8835771D01*
X62166667Y-8835771D02*
X62261905Y-8788152D01*
X62261905Y-8788152D02*
X62452381Y-8788152D01*
X62452381Y-8788152D02*
X62547619Y-8835771D01*
X62976191Y-9454819D02*
X62976191Y-8454819D01*
X63404762Y-9454819D02*
X63404762Y-8931009D01*
X63404762Y-8931009D02*
X63357143Y-8835771D01*
X63357143Y-8835771D02*
X63261905Y-8788152D01*
X63261905Y-8788152D02*
X63119048Y-8788152D01*
X63119048Y-8788152D02*
X63023810Y-8835771D01*
X63023810Y-8835771D02*
X62976191Y-8883390D01*
X58761905Y-407200D02*
X58904762Y-454819D01*
X58904762Y-454819D02*
X59142857Y-454819D01*
X59142857Y-454819D02*
X59238095Y-407200D01*
X59238095Y-407200D02*
X59285714Y-359580D01*
X59285714Y-359580D02*
X59333333Y-264342D01*
X59333333Y-264342D02*
X59333333Y-169104D01*
X59333333Y-169104D02*
X59285714Y-73866D01*
X59285714Y-73866D02*
X59238095Y-26247D01*
X59238095Y-26247D02*
X59142857Y21371D01*
X59142857Y21371D02*
X58952381Y68990D01*
X58952381Y68990D02*
X58857143Y116609D01*
X58857143Y116609D02*
X58809524Y164228D01*
X58809524Y164228D02*
X58761905Y259466D01*
X58761905Y259466D02*
X58761905Y354704D01*
X58761905Y354704D02*
X58809524Y449942D01*
X58809524Y449942D02*
X58857143Y497561D01*
X58857143Y497561D02*
X58952381Y545180D01*
X58952381Y545180D02*
X59190476Y545180D01*
X59190476Y545180D02*
X59333333Y497561D01*
X60285714Y-454819D02*
X59714286Y-454819D01*
X60000000Y-454819D02*
X60000000Y545180D01*
X60000000Y545180D02*
X59904762Y402323D01*
X59904762Y402323D02*
X59809524Y307085D01*
X59809524Y307085D02*
X59714286Y259466D01*
X60761905Y-454819D02*
X60952381Y-454819D01*
X60952381Y-454819D02*
X61047619Y-407200D01*
X61047619Y-407200D02*
X61095238Y-359580D01*
X61095238Y-359580D02*
X61190476Y-216723D01*
X61190476Y-216723D02*
X61238095Y-26247D01*
X61238095Y-26247D02*
X61238095Y354704D01*
X61238095Y354704D02*
X61190476Y449942D01*
X61190476Y449942D02*
X61142857Y497561D01*
X61142857Y497561D02*
X61047619Y545180D01*
X61047619Y545180D02*
X60857143Y545180D01*
X60857143Y545180D02*
X60761905Y497561D01*
X60761905Y497561D02*
X60714286Y449942D01*
X60714286Y449942D02*
X60666667Y354704D01*
X60666667Y354704D02*
X60666667Y116609D01*
X60666667Y116609D02*
X60714286Y21371D01*
X60714286Y21371D02*
X60761905Y-26247D01*
X60761905Y-26247D02*
X60857143Y-73866D01*
X60857143Y-73866D02*
X61047619Y-73866D01*
X61047619Y-73866D02*
X61142857Y-26247D01*
X61142857Y-26247D02*
X61190476Y21371D01*
X61190476Y21371D02*
X61238095Y116609D01*
X-25404761Y-18254819D02*
X-25404761Y-17254819D01*
X-24833333Y-18254819D02*
X-25261904Y-17683390D01*
X-24833333Y-17254819D02*
X-25404761Y-17826247D01*
X-24023809Y-18207200D02*
X-24119047Y-18254819D01*
X-24119047Y-18254819D02*
X-24309523Y-18254819D01*
X-24309523Y-18254819D02*
X-24404761Y-18207200D01*
X-24404761Y-18207200D02*
X-24452380Y-18111961D01*
X-24452380Y-18111961D02*
X-24452380Y-17731009D01*
X-24452380Y-17731009D02*
X-24404761Y-17635771D01*
X-24404761Y-17635771D02*
X-24309523Y-17588152D01*
X-24309523Y-17588152D02*
X-24119047Y-17588152D01*
X-24119047Y-17588152D02*
X-24023809Y-17635771D01*
X-24023809Y-17635771D02*
X-23976190Y-17731009D01*
X-23976190Y-17731009D02*
X-23976190Y-17826247D01*
X-23976190Y-17826247D02*
X-24452380Y-17921485D01*
X-23642856Y-17588152D02*
X-23404761Y-18254819D01*
X-23166666Y-17588152D02*
X-23404761Y-18254819D01*
X-23404761Y-18254819D02*
X-23499999Y-18492914D01*
X-23499999Y-18492914D02*
X-23547618Y-18540533D01*
X-23547618Y-18540533D02*
X-23642856Y-18588152D01*
X-22833332Y-18207200D02*
X-22738094Y-18254819D01*
X-22738094Y-18254819D02*
X-22547618Y-18254819D01*
X-22547618Y-18254819D02*
X-22452380Y-18207200D01*
X-22452380Y-18207200D02*
X-22404761Y-18111961D01*
X-22404761Y-18111961D02*
X-22404761Y-18064342D01*
X-22404761Y-18064342D02*
X-22452380Y-17969104D01*
X-22452380Y-17969104D02*
X-22547618Y-17921485D01*
X-22547618Y-17921485D02*
X-22690475Y-17921485D01*
X-22690475Y-17921485D02*
X-22785713Y-17873866D01*
X-22785713Y-17873866D02*
X-22833332Y-17778628D01*
X-22833332Y-17778628D02*
X-22833332Y-17731009D01*
X-22833332Y-17731009D02*
X-22785713Y-17635771D01*
X-22785713Y-17635771D02*
X-22690475Y-17588152D01*
X-22690475Y-17588152D02*
X-22547618Y-17588152D01*
X-22547618Y-17588152D02*
X-22452380Y-17635771D01*
X-22071427Y-17588152D02*
X-21880951Y-18254819D01*
X-21880951Y-18254819D02*
X-21690475Y-17778628D01*
X-21690475Y-17778628D02*
X-21499999Y-18254819D01*
X-21499999Y-18254819D02*
X-21309523Y-17588152D01*
X-20928570Y-18254819D02*
X-20928570Y-17588152D01*
X-20928570Y-17254819D02*
X-20976189Y-17302438D01*
X-20976189Y-17302438D02*
X-20928570Y-17350057D01*
X-20928570Y-17350057D02*
X-20880951Y-17302438D01*
X-20880951Y-17302438D02*
X-20928570Y-17254819D01*
X-20928570Y-17254819D02*
X-20928570Y-17350057D01*
X-20595237Y-17588152D02*
X-20214285Y-17588152D01*
X-20452380Y-17254819D02*
X-20452380Y-18111961D01*
X-20452380Y-18111961D02*
X-20404761Y-18207200D01*
X-20404761Y-18207200D02*
X-20309523Y-18254819D01*
X-20309523Y-18254819D02*
X-20214285Y-18254819D01*
X-19452380Y-18207200D02*
X-19547618Y-18254819D01*
X-19547618Y-18254819D02*
X-19738094Y-18254819D01*
X-19738094Y-18254819D02*
X-19833332Y-18207200D01*
X-19833332Y-18207200D02*
X-19880951Y-18159580D01*
X-19880951Y-18159580D02*
X-19928570Y-18064342D01*
X-19928570Y-18064342D02*
X-19928570Y-17778628D01*
X-19928570Y-17778628D02*
X-19880951Y-17683390D01*
X-19880951Y-17683390D02*
X-19833332Y-17635771D01*
X-19833332Y-17635771D02*
X-19738094Y-17588152D01*
X-19738094Y-17588152D02*
X-19547618Y-17588152D01*
X-19547618Y-17588152D02*
X-19452380Y-17635771D01*
X-19023808Y-18254819D02*
X-19023808Y-17254819D01*
X-18595237Y-18254819D02*
X-18595237Y-17731009D01*
X-18595237Y-17731009D02*
X-18642856Y-17635771D01*
X-18642856Y-17635771D02*
X-18738094Y-17588152D01*
X-18738094Y-17588152D02*
X-18880951Y-17588152D01*
X-18880951Y-17588152D02*
X-18976189Y-17635771D01*
X-18976189Y-17635771D02*
X-19023808Y-17683390D01*
X-23238094Y-9207200D02*
X-23095237Y-9254819D01*
X-23095237Y-9254819D02*
X-22857142Y-9254819D01*
X-22857142Y-9254819D02*
X-22761904Y-9207200D01*
X-22761904Y-9207200D02*
X-22714285Y-9159580D01*
X-22714285Y-9159580D02*
X-22666666Y-9064342D01*
X-22666666Y-9064342D02*
X-22666666Y-8969104D01*
X-22666666Y-8969104D02*
X-22714285Y-8873866D01*
X-22714285Y-8873866D02*
X-22761904Y-8826247D01*
X-22761904Y-8826247D02*
X-22857142Y-8778628D01*
X-22857142Y-8778628D02*
X-23047618Y-8731009D01*
X-23047618Y-8731009D02*
X-23142856Y-8683390D01*
X-23142856Y-8683390D02*
X-23190475Y-8635771D01*
X-23190475Y-8635771D02*
X-23238094Y-8540533D01*
X-23238094Y-8540533D02*
X-23238094Y-8445295D01*
X-23238094Y-8445295D02*
X-23190475Y-8350057D01*
X-23190475Y-8350057D02*
X-23142856Y-8302438D01*
X-23142856Y-8302438D02*
X-23047618Y-8254819D01*
X-23047618Y-8254819D02*
X-22809523Y-8254819D01*
X-22809523Y-8254819D02*
X-22666666Y-8302438D01*
X-21714285Y-9254819D02*
X-22285713Y-9254819D01*
X-21999999Y-9254819D02*
X-21999999Y-8254819D01*
X-21999999Y-8254819D02*
X-22095237Y-8397676D01*
X-22095237Y-8397676D02*
X-22190475Y-8492914D01*
X-22190475Y-8492914D02*
X-22285713Y-8540533D01*
X-20857142Y-8254819D02*
X-21047618Y-8254819D01*
X-21047618Y-8254819D02*
X-21142856Y-8302438D01*
X-21142856Y-8302438D02*
X-21190475Y-8350057D01*
X-21190475Y-8350057D02*
X-21285713Y-8492914D01*
X-21285713Y-8492914D02*
X-21333332Y-8683390D01*
X-21333332Y-8683390D02*
X-21333332Y-9064342D01*
X-21333332Y-9064342D02*
X-21285713Y-9159580D01*
X-21285713Y-9159580D02*
X-21238094Y-9207200D01*
X-21238094Y-9207200D02*
X-21142856Y-9254819D01*
X-21142856Y-9254819D02*
X-20952380Y-9254819D01*
X-20952380Y-9254819D02*
X-20857142Y-9207200D01*
X-20857142Y-9207200D02*
X-20809523Y-9159580D01*
X-20809523Y-9159580D02*
X-20761904Y-9064342D01*
X-20761904Y-9064342D02*
X-20761904Y-8826247D01*
X-20761904Y-8826247D02*
X-20809523Y-8731009D01*
X-20809523Y-8731009D02*
X-20857142Y-8683390D01*
X-20857142Y-8683390D02*
X-20952380Y-8635771D01*
X-20952380Y-8635771D02*
X-21142856Y-8635771D01*
X-21142856Y-8635771D02*
X-21238094Y-8683390D01*
X-21238094Y-8683390D02*
X-21285713Y-8731009D01*
X-21285713Y-8731009D02*
X-21333332Y-8826247D01*
X-25404761Y-254819D02*
X-25404761Y745180D01*
X-24833333Y-254819D02*
X-25261904Y316609D01*
X-24833333Y745180D02*
X-25404761Y173752D01*
X-24023809Y-207200D02*
X-24119047Y-254819D01*
X-24119047Y-254819D02*
X-24309523Y-254819D01*
X-24309523Y-254819D02*
X-24404761Y-207200D01*
X-24404761Y-207200D02*
X-24452380Y-111961D01*
X-24452380Y-111961D02*
X-24452380Y268990D01*
X-24452380Y268990D02*
X-24404761Y364228D01*
X-24404761Y364228D02*
X-24309523Y411847D01*
X-24309523Y411847D02*
X-24119047Y411847D01*
X-24119047Y411847D02*
X-24023809Y364228D01*
X-24023809Y364228D02*
X-23976190Y268990D01*
X-23976190Y268990D02*
X-23976190Y173752D01*
X-23976190Y173752D02*
X-24452380Y78514D01*
X-23642856Y411847D02*
X-23404761Y-254819D01*
X-23166666Y411847D02*
X-23404761Y-254819D01*
X-23404761Y-254819D02*
X-23499999Y-492914D01*
X-23499999Y-492914D02*
X-23547618Y-540533D01*
X-23547618Y-540533D02*
X-23642856Y-588152D01*
X-22833332Y-207200D02*
X-22738094Y-254819D01*
X-22738094Y-254819D02*
X-22547618Y-254819D01*
X-22547618Y-254819D02*
X-22452380Y-207200D01*
X-22452380Y-207200D02*
X-22404761Y-111961D01*
X-22404761Y-111961D02*
X-22404761Y-64342D01*
X-22404761Y-64342D02*
X-22452380Y30895D01*
X-22452380Y30895D02*
X-22547618Y78514D01*
X-22547618Y78514D02*
X-22690475Y78514D01*
X-22690475Y78514D02*
X-22785713Y126133D01*
X-22785713Y126133D02*
X-22833332Y221371D01*
X-22833332Y221371D02*
X-22833332Y268990D01*
X-22833332Y268990D02*
X-22785713Y364228D01*
X-22785713Y364228D02*
X-22690475Y411847D01*
X-22690475Y411847D02*
X-22547618Y411847D01*
X-22547618Y411847D02*
X-22452380Y364228D01*
X-22071427Y411847D02*
X-21880951Y-254819D01*
X-21880951Y-254819D02*
X-21690475Y221371D01*
X-21690475Y221371D02*
X-21499999Y-254819D01*
X-21499999Y-254819D02*
X-21309523Y411847D01*
X-20928570Y-254819D02*
X-20928570Y411847D01*
X-20928570Y745180D02*
X-20976189Y697561D01*
X-20976189Y697561D02*
X-20928570Y649942D01*
X-20928570Y649942D02*
X-20880951Y697561D01*
X-20880951Y697561D02*
X-20928570Y745180D01*
X-20928570Y745180D02*
X-20928570Y649942D01*
X-20595237Y411847D02*
X-20214285Y411847D01*
X-20452380Y745180D02*
X-20452380Y-111961D01*
X-20452380Y-111961D02*
X-20404761Y-207200D01*
X-20404761Y-207200D02*
X-20309523Y-254819D01*
X-20309523Y-254819D02*
X-20214285Y-254819D01*
X-19452380Y-207200D02*
X-19547618Y-254819D01*
X-19547618Y-254819D02*
X-19738094Y-254819D01*
X-19738094Y-254819D02*
X-19833332Y-207200D01*
X-19833332Y-207200D02*
X-19880951Y-159580D01*
X-19880951Y-159580D02*
X-19928570Y-64342D01*
X-19928570Y-64342D02*
X-19928570Y221371D01*
X-19928570Y221371D02*
X-19880951Y316609D01*
X-19880951Y316609D02*
X-19833332Y364228D01*
X-19833332Y364228D02*
X-19738094Y411847D01*
X-19738094Y411847D02*
X-19547618Y411847D01*
X-19547618Y411847D02*
X-19452380Y364228D01*
X-19023808Y-254819D02*
X-19023808Y745180D01*
X-18595237Y-254819D02*
X-18595237Y268990D01*
X-18595237Y268990D02*
X-18642856Y364228D01*
X-18642856Y364228D02*
X-18738094Y411847D01*
X-18738094Y411847D02*
X-18880951Y411847D01*
X-18880951Y411847D02*
X-18976189Y364228D01*
X-18976189Y364228D02*
X-19023808Y316609D01*
X-22761904Y8792800D02*
X-22619047Y8745180D01*
X-22619047Y8745180D02*
X-22380952Y8745180D01*
X-22380952Y8745180D02*
X-22285714Y8792800D01*
X-22285714Y8792800D02*
X-22238095Y8840419D01*
X-22238095Y8840419D02*
X-22190476Y8935657D01*
X-22190476Y8935657D02*
X-22190476Y9030895D01*
X-22190476Y9030895D02*
X-22238095Y9126133D01*
X-22238095Y9126133D02*
X-22285714Y9173752D01*
X-22285714Y9173752D02*
X-22380952Y9221371D01*
X-22380952Y9221371D02*
X-22571428Y9268990D01*
X-22571428Y9268990D02*
X-22666666Y9316609D01*
X-22666666Y9316609D02*
X-22714285Y9364228D01*
X-22714285Y9364228D02*
X-22761904Y9459466D01*
X-22761904Y9459466D02*
X-22761904Y9554704D01*
X-22761904Y9554704D02*
X-22714285Y9649942D01*
X-22714285Y9649942D02*
X-22666666Y9697561D01*
X-22666666Y9697561D02*
X-22571428Y9745180D01*
X-22571428Y9745180D02*
X-22333333Y9745180D01*
X-22333333Y9745180D02*
X-22190476Y9697561D01*
X-21285714Y9745180D02*
X-21761904Y9745180D01*
X-21761904Y9745180D02*
X-21809523Y9268990D01*
X-21809523Y9268990D02*
X-21761904Y9316609D01*
X-21761904Y9316609D02*
X-21666666Y9364228D01*
X-21666666Y9364228D02*
X-21428571Y9364228D01*
X-21428571Y9364228D02*
X-21333333Y9316609D01*
X-21333333Y9316609D02*
X-21285714Y9268990D01*
X-21285714Y9268990D02*
X-21238095Y9173752D01*
X-21238095Y9173752D02*
X-21238095Y8935657D01*
X-21238095Y8935657D02*
X-21285714Y8840419D01*
X-21285714Y8840419D02*
X-21333333Y8792800D01*
X-21333333Y8792800D02*
X-21428571Y8745180D01*
X-21428571Y8745180D02*
X-21666666Y8745180D01*
X-21666666Y8745180D02*
X-21761904Y8792800D01*
X-21761904Y8792800D02*
X-21809523Y8840419D01*
X56595238Y8545180D02*
X56595238Y9545180D01*
X57166666Y8545180D02*
X56738095Y9116609D01*
X57166666Y9545180D02*
X56595238Y8973752D01*
X57976190Y8592800D02*
X57880952Y8545180D01*
X57880952Y8545180D02*
X57690476Y8545180D01*
X57690476Y8545180D02*
X57595238Y8592800D01*
X57595238Y8592800D02*
X57547619Y8688038D01*
X57547619Y8688038D02*
X57547619Y9068990D01*
X57547619Y9068990D02*
X57595238Y9164228D01*
X57595238Y9164228D02*
X57690476Y9211847D01*
X57690476Y9211847D02*
X57880952Y9211847D01*
X57880952Y9211847D02*
X57976190Y9164228D01*
X57976190Y9164228D02*
X58023809Y9068990D01*
X58023809Y9068990D02*
X58023809Y8973752D01*
X58023809Y8973752D02*
X57547619Y8878514D01*
X58357143Y9211847D02*
X58595238Y8545180D01*
X58833333Y9211847D02*
X58595238Y8545180D01*
X58595238Y8545180D02*
X58500000Y8307085D01*
X58500000Y8307085D02*
X58452381Y8259466D01*
X58452381Y8259466D02*
X58357143Y8211847D01*
X59166667Y8592800D02*
X59261905Y8545180D01*
X59261905Y8545180D02*
X59452381Y8545180D01*
X59452381Y8545180D02*
X59547619Y8592800D01*
X59547619Y8592800D02*
X59595238Y8688038D01*
X59595238Y8688038D02*
X59595238Y8735657D01*
X59595238Y8735657D02*
X59547619Y8830895D01*
X59547619Y8830895D02*
X59452381Y8878514D01*
X59452381Y8878514D02*
X59309524Y8878514D01*
X59309524Y8878514D02*
X59214286Y8926133D01*
X59214286Y8926133D02*
X59166667Y9021371D01*
X59166667Y9021371D02*
X59166667Y9068990D01*
X59166667Y9068990D02*
X59214286Y9164228D01*
X59214286Y9164228D02*
X59309524Y9211847D01*
X59309524Y9211847D02*
X59452381Y9211847D01*
X59452381Y9211847D02*
X59547619Y9164228D01*
X59928572Y9211847D02*
X60119048Y8545180D01*
X60119048Y8545180D02*
X60309524Y9021371D01*
X60309524Y9021371D02*
X60500000Y8545180D01*
X60500000Y8545180D02*
X60690476Y9211847D01*
X61071429Y8545180D02*
X61071429Y9211847D01*
X61071429Y9545180D02*
X61023810Y9497561D01*
X61023810Y9497561D02*
X61071429Y9449942D01*
X61071429Y9449942D02*
X61119048Y9497561D01*
X61119048Y9497561D02*
X61071429Y9545180D01*
X61071429Y9545180D02*
X61071429Y9449942D01*
X61404762Y9211847D02*
X61785714Y9211847D01*
X61547619Y9545180D02*
X61547619Y8688038D01*
X61547619Y8688038D02*
X61595238Y8592800D01*
X61595238Y8592800D02*
X61690476Y8545180D01*
X61690476Y8545180D02*
X61785714Y8545180D01*
X62547619Y8592800D02*
X62452381Y8545180D01*
X62452381Y8545180D02*
X62261905Y8545180D01*
X62261905Y8545180D02*
X62166667Y8592800D01*
X62166667Y8592800D02*
X62119048Y8640419D01*
X62119048Y8640419D02*
X62071429Y8735657D01*
X62071429Y8735657D02*
X62071429Y9021371D01*
X62071429Y9021371D02*
X62119048Y9116609D01*
X62119048Y9116609D02*
X62166667Y9164228D01*
X62166667Y9164228D02*
X62261905Y9211847D01*
X62261905Y9211847D02*
X62452381Y9211847D01*
X62452381Y9211847D02*
X62547619Y9164228D01*
X62976191Y8545180D02*
X62976191Y9545180D01*
X63404762Y8545180D02*
X63404762Y9068990D01*
X63404762Y9068990D02*
X63357143Y9164228D01*
X63357143Y9164228D02*
X63261905Y9211847D01*
X63261905Y9211847D02*
X63119048Y9211847D01*
X63119048Y9211847D02*
X63023810Y9164228D01*
X63023810Y9164228D02*
X62976191Y9116609D01*
X59238095Y17592800D02*
X59380952Y17545180D01*
X59380952Y17545180D02*
X59619047Y17545180D01*
X59619047Y17545180D02*
X59714285Y17592800D01*
X59714285Y17592800D02*
X59761904Y17640419D01*
X59761904Y17640419D02*
X59809523Y17735657D01*
X59809523Y17735657D02*
X59809523Y17830895D01*
X59809523Y17830895D02*
X59761904Y17926133D01*
X59761904Y17926133D02*
X59714285Y17973752D01*
X59714285Y17973752D02*
X59619047Y18021371D01*
X59619047Y18021371D02*
X59428571Y18068990D01*
X59428571Y18068990D02*
X59333333Y18116609D01*
X59333333Y18116609D02*
X59285714Y18164228D01*
X59285714Y18164228D02*
X59238095Y18259466D01*
X59238095Y18259466D02*
X59238095Y18354704D01*
X59238095Y18354704D02*
X59285714Y18449942D01*
X59285714Y18449942D02*
X59333333Y18497561D01*
X59333333Y18497561D02*
X59428571Y18545180D01*
X59428571Y18545180D02*
X59666666Y18545180D01*
X59666666Y18545180D02*
X59809523Y18497561D01*
X60380952Y18116609D02*
X60285714Y18164228D01*
X60285714Y18164228D02*
X60238095Y18211847D01*
X60238095Y18211847D02*
X60190476Y18307085D01*
X60190476Y18307085D02*
X60190476Y18354704D01*
X60190476Y18354704D02*
X60238095Y18449942D01*
X60238095Y18449942D02*
X60285714Y18497561D01*
X60285714Y18497561D02*
X60380952Y18545180D01*
X60380952Y18545180D02*
X60571428Y18545180D01*
X60571428Y18545180D02*
X60666666Y18497561D01*
X60666666Y18497561D02*
X60714285Y18449942D01*
X60714285Y18449942D02*
X60761904Y18354704D01*
X60761904Y18354704D02*
X60761904Y18307085D01*
X60761904Y18307085D02*
X60714285Y18211847D01*
X60714285Y18211847D02*
X60666666Y18164228D01*
X60666666Y18164228D02*
X60571428Y18116609D01*
X60571428Y18116609D02*
X60380952Y18116609D01*
X60380952Y18116609D02*
X60285714Y18068990D01*
X60285714Y18068990D02*
X60238095Y18021371D01*
X60238095Y18021371D02*
X60190476Y17926133D01*
X60190476Y17926133D02*
X60190476Y17735657D01*
X60190476Y17735657D02*
X60238095Y17640419D01*
X60238095Y17640419D02*
X60285714Y17592800D01*
X60285714Y17592800D02*
X60380952Y17545180D01*
X60380952Y17545180D02*
X60571428Y17545180D01*
X60571428Y17545180D02*
X60666666Y17592800D01*
X60666666Y17592800D02*
X60714285Y17640419D01*
X60714285Y17640419D02*
X60761904Y17735657D01*
X60761904Y17735657D02*
X60761904Y17926133D01*
X60761904Y17926133D02*
X60714285Y18021371D01*
X60714285Y18021371D02*
X60666666Y18068990D01*
X60666666Y18068990D02*
X60571428Y18116609D01*
X-61883784Y-54571036D02*
X-62040218Y-53583348D01*
X-61319390Y-54481645D02*
X-61832076Y-53984295D01*
X-61475825Y-53493957D02*
X-61950827Y-54147741D01*
X-60527282Y-54307975D02*
X-60613899Y-54369906D01*
X-60613899Y-54369906D02*
X-60802030Y-54399703D01*
X-60802030Y-54399703D02*
X-60903545Y-54367569D01*
X-60903545Y-54367569D02*
X-60965476Y-54280953D01*
X-60965476Y-54280953D02*
X-61025070Y-53904690D01*
X-61025070Y-53904690D02*
X-60992936Y-53803175D01*
X-60992936Y-53803175D02*
X-60906319Y-53741244D01*
X-60906319Y-53741244D02*
X-60718188Y-53711447D01*
X-60718188Y-53711447D02*
X-60616673Y-53743581D01*
X-60616673Y-53743581D02*
X-60554742Y-53830198D01*
X-60554742Y-53830198D02*
X-60539844Y-53924263D01*
X-60539844Y-53924263D02*
X-60995273Y-54092821D01*
X-60247860Y-53636955D02*
X-59908407Y-54258167D01*
X-59777533Y-53562462D02*
X-59908407Y-54258167D01*
X-59908407Y-54258167D02*
X-59965226Y-54508230D01*
X-59965226Y-54508230D02*
X-60004810Y-54562712D01*
X-60004810Y-54562712D02*
X-60091426Y-54624643D01*
X-59351462Y-54121743D02*
X-59249948Y-54153877D01*
X-59249948Y-54153877D02*
X-59061817Y-54124080D01*
X-59061817Y-54124080D02*
X-58975200Y-54062149D01*
X-58975200Y-54062149D02*
X-58943066Y-53960634D01*
X-58943066Y-53960634D02*
X-58950515Y-53913601D01*
X-58950515Y-53913601D02*
X-59012447Y-53826985D01*
X-59012447Y-53826985D02*
X-59113961Y-53794851D01*
X-59113961Y-53794851D02*
X-59255060Y-53817199D01*
X-59255060Y-53817199D02*
X-59356575Y-53785064D01*
X-59356575Y-53785064D02*
X-59418506Y-53698448D01*
X-59418506Y-53698448D02*
X-59425955Y-53651415D01*
X-59425955Y-53651415D02*
X-59393821Y-53549901D01*
X-59393821Y-53549901D02*
X-59307205Y-53487969D01*
X-59307205Y-53487969D02*
X-59166106Y-53465621D01*
X-59166106Y-53465621D02*
X-59064591Y-53497756D01*
X-58695778Y-53391129D02*
X-58403357Y-54019791D01*
X-58403357Y-54019791D02*
X-58289719Y-53519666D01*
X-58289719Y-53519666D02*
X-58027095Y-53960197D01*
X-58027095Y-53960197D02*
X-57943254Y-53271941D01*
X-57462702Y-53870806D02*
X-57566992Y-53212347D01*
X-57619136Y-52883117D02*
X-57658720Y-52937599D01*
X-57658720Y-52937599D02*
X-57604238Y-52977183D01*
X-57604238Y-52977183D02*
X-57564654Y-52922701D01*
X-57564654Y-52922701D02*
X-57619136Y-52883117D01*
X-57619136Y-52883117D02*
X-57604238Y-52977183D01*
X-57237763Y-53160202D02*
X-56861500Y-53100608D01*
X-57148809Y-52808625D02*
X-57014722Y-53655215D01*
X-57014722Y-53655215D02*
X-56952791Y-53741831D01*
X-56952791Y-53741831D02*
X-56851276Y-53773965D01*
X-56851276Y-53773965D02*
X-56757211Y-53759067D01*
X-56012135Y-53592846D02*
X-56098751Y-53654777D01*
X-56098751Y-53654777D02*
X-56286883Y-53684574D01*
X-56286883Y-53684574D02*
X-56388397Y-53652440D01*
X-56388397Y-53652440D02*
X-56442879Y-53612856D01*
X-56442879Y-53612856D02*
X-56504811Y-53526240D01*
X-56504811Y-53526240D02*
X-56549506Y-53244043D01*
X-56549506Y-53244043D02*
X-56517372Y-53142528D01*
X-56517372Y-53142528D02*
X-56477788Y-53088046D01*
X-56477788Y-53088046D02*
X-56391172Y-53026115D01*
X-56391172Y-53026115D02*
X-56203041Y-52996318D01*
X-56203041Y-52996318D02*
X-56101526Y-53028452D01*
X-55581391Y-53572835D02*
X-55737825Y-52585147D01*
X-55158096Y-53505792D02*
X-55240038Y-52988431D01*
X-55240038Y-52988431D02*
X-55301969Y-52901815D01*
X-55301969Y-52901815D02*
X-55403484Y-52869681D01*
X-55403484Y-52869681D02*
X-55544582Y-52892028D01*
X-55544582Y-52892028D02*
X-55631198Y-52953960D01*
X-55631198Y-52953960D02*
X-55670782Y-53008442D01*
X-61159151Y-45295867D02*
X-61010604Y-45320552D01*
X-61010604Y-45320552D02*
X-60775440Y-45283306D01*
X-60775440Y-45283306D02*
X-60688823Y-45221374D01*
X-60688823Y-45221374D02*
X-60649240Y-45166892D01*
X-60649240Y-45166892D02*
X-60617106Y-45065377D01*
X-60617106Y-45065377D02*
X-60632004Y-44971312D01*
X-60632004Y-44971312D02*
X-60693935Y-44884696D01*
X-60693935Y-44884696D02*
X-60748417Y-44845112D01*
X-60748417Y-44845112D02*
X-60849932Y-44812978D01*
X-60849932Y-44812978D02*
X-61045513Y-44795742D01*
X-61045513Y-44795742D02*
X-61147028Y-44763608D01*
X-61147028Y-44763608D02*
X-61201510Y-44724024D01*
X-61201510Y-44724024D02*
X-61263441Y-44637408D01*
X-61263441Y-44637408D02*
X-61278339Y-44543342D01*
X-61278339Y-44543342D02*
X-61246205Y-44441828D01*
X-61246205Y-44441828D02*
X-61206622Y-44387346D01*
X-61206622Y-44387346D02*
X-61120005Y-44325414D01*
X-61120005Y-44325414D02*
X-60884841Y-44288168D01*
X-60884841Y-44288168D02*
X-60736294Y-44312853D01*
X-60352582Y-44300292D02*
X-60312999Y-44245810D01*
X-60312999Y-44245810D02*
X-60226382Y-44183878D01*
X-60226382Y-44183878D02*
X-59991219Y-44146632D01*
X-59991219Y-44146632D02*
X-59889704Y-44178766D01*
X-59889704Y-44178766D02*
X-59835222Y-44218350D01*
X-59835222Y-44218350D02*
X-59773290Y-44304966D01*
X-59773290Y-44304966D02*
X-59758392Y-44399032D01*
X-59758392Y-44399032D02*
X-59783077Y-44547579D01*
X-59783077Y-44547579D02*
X-60258079Y-45201364D01*
X-60258079Y-45201364D02*
X-59646653Y-45104523D01*
X-59473858Y-44064690D02*
X-58862432Y-43967850D01*
X-58862432Y-43967850D02*
X-59132067Y-44396257D01*
X-59132067Y-44396257D02*
X-58990969Y-44373909D01*
X-58990969Y-44373909D02*
X-58889454Y-44406043D01*
X-58889454Y-44406043D02*
X-58834972Y-44445627D01*
X-58834972Y-44445627D02*
X-58773041Y-44532243D01*
X-58773041Y-44532243D02*
X-58735794Y-44767407D01*
X-58735794Y-44767407D02*
X-58767929Y-44868922D01*
X-58767929Y-44868922D02*
X-58807512Y-44923404D01*
X-58807512Y-44923404D02*
X-58894128Y-44985335D01*
X-58894128Y-44985335D02*
X-59176325Y-45030031D01*
X-59176325Y-45030031D02*
X-59277840Y-44997896D01*
X-59277840Y-44997896D02*
X-59332322Y-44958313D01*
X-63404761Y8545180D02*
X-63404761Y9545180D01*
X-62833333Y8545180D02*
X-63261904Y9116609D01*
X-62833333Y9545180D02*
X-63404761Y8973752D01*
X-62023809Y8592800D02*
X-62119047Y8545180D01*
X-62119047Y8545180D02*
X-62309523Y8545180D01*
X-62309523Y8545180D02*
X-62404761Y8592800D01*
X-62404761Y8592800D02*
X-62452380Y8688038D01*
X-62452380Y8688038D02*
X-62452380Y9068990D01*
X-62452380Y9068990D02*
X-62404761Y9164228D01*
X-62404761Y9164228D02*
X-62309523Y9211847D01*
X-62309523Y9211847D02*
X-62119047Y9211847D01*
X-62119047Y9211847D02*
X-62023809Y9164228D01*
X-62023809Y9164228D02*
X-61976190Y9068990D01*
X-61976190Y9068990D02*
X-61976190Y8973752D01*
X-61976190Y8973752D02*
X-62452380Y8878514D01*
X-61642856Y9211847D02*
X-61404761Y8545180D01*
X-61166666Y9211847D02*
X-61404761Y8545180D01*
X-61404761Y8545180D02*
X-61499999Y8307085D01*
X-61499999Y8307085D02*
X-61547618Y8259466D01*
X-61547618Y8259466D02*
X-61642856Y8211847D01*
X-60833332Y8592800D02*
X-60738094Y8545180D01*
X-60738094Y8545180D02*
X-60547618Y8545180D01*
X-60547618Y8545180D02*
X-60452380Y8592800D01*
X-60452380Y8592800D02*
X-60404761Y8688038D01*
X-60404761Y8688038D02*
X-60404761Y8735657D01*
X-60404761Y8735657D02*
X-60452380Y8830895D01*
X-60452380Y8830895D02*
X-60547618Y8878514D01*
X-60547618Y8878514D02*
X-60690475Y8878514D01*
X-60690475Y8878514D02*
X-60785713Y8926133D01*
X-60785713Y8926133D02*
X-60833332Y9021371D01*
X-60833332Y9021371D02*
X-60833332Y9068990D01*
X-60833332Y9068990D02*
X-60785713Y9164228D01*
X-60785713Y9164228D02*
X-60690475Y9211847D01*
X-60690475Y9211847D02*
X-60547618Y9211847D01*
X-60547618Y9211847D02*
X-60452380Y9164228D01*
X-60071427Y9211847D02*
X-59880951Y8545180D01*
X-59880951Y8545180D02*
X-59690475Y9021371D01*
X-59690475Y9021371D02*
X-59499999Y8545180D01*
X-59499999Y8545180D02*
X-59309523Y9211847D01*
X-58928570Y8545180D02*
X-58928570Y9211847D01*
X-58928570Y9545180D02*
X-58976189Y9497561D01*
X-58976189Y9497561D02*
X-58928570Y9449942D01*
X-58928570Y9449942D02*
X-58880951Y9497561D01*
X-58880951Y9497561D02*
X-58928570Y9545180D01*
X-58928570Y9545180D02*
X-58928570Y9449942D01*
X-58595237Y9211847D02*
X-58214285Y9211847D01*
X-58452380Y9545180D02*
X-58452380Y8688038D01*
X-58452380Y8688038D02*
X-58404761Y8592800D01*
X-58404761Y8592800D02*
X-58309523Y8545180D01*
X-58309523Y8545180D02*
X-58214285Y8545180D01*
X-57452380Y8592800D02*
X-57547618Y8545180D01*
X-57547618Y8545180D02*
X-57738094Y8545180D01*
X-57738094Y8545180D02*
X-57833332Y8592800D01*
X-57833332Y8592800D02*
X-57880951Y8640419D01*
X-57880951Y8640419D02*
X-57928570Y8735657D01*
X-57928570Y8735657D02*
X-57928570Y9021371D01*
X-57928570Y9021371D02*
X-57880951Y9116609D01*
X-57880951Y9116609D02*
X-57833332Y9164228D01*
X-57833332Y9164228D02*
X-57738094Y9211847D01*
X-57738094Y9211847D02*
X-57547618Y9211847D01*
X-57547618Y9211847D02*
X-57452380Y9164228D01*
X-57023808Y8545180D02*
X-57023808Y9545180D01*
X-56595237Y8545180D02*
X-56595237Y9068990D01*
X-56595237Y9068990D02*
X-56642856Y9164228D01*
X-56642856Y9164228D02*
X-56738094Y9211847D01*
X-56738094Y9211847D02*
X-56880951Y9211847D01*
X-56880951Y9211847D02*
X-56976189Y9164228D01*
X-56976189Y9164228D02*
X-57023808Y9116609D01*
X-60761904Y17592800D02*
X-60619047Y17545180D01*
X-60619047Y17545180D02*
X-60380952Y17545180D01*
X-60380952Y17545180D02*
X-60285714Y17592800D01*
X-60285714Y17592800D02*
X-60238095Y17640419D01*
X-60238095Y17640419D02*
X-60190476Y17735657D01*
X-60190476Y17735657D02*
X-60190476Y17830895D01*
X-60190476Y17830895D02*
X-60238095Y17926133D01*
X-60238095Y17926133D02*
X-60285714Y17973752D01*
X-60285714Y17973752D02*
X-60380952Y18021371D01*
X-60380952Y18021371D02*
X-60571428Y18068990D01*
X-60571428Y18068990D02*
X-60666666Y18116609D01*
X-60666666Y18116609D02*
X-60714285Y18164228D01*
X-60714285Y18164228D02*
X-60761904Y18259466D01*
X-60761904Y18259466D02*
X-60761904Y18354704D01*
X-60761904Y18354704D02*
X-60714285Y18449942D01*
X-60714285Y18449942D02*
X-60666666Y18497561D01*
X-60666666Y18497561D02*
X-60571428Y18545180D01*
X-60571428Y18545180D02*
X-60333333Y18545180D01*
X-60333333Y18545180D02*
X-60190476Y18497561D01*
X-59857142Y18545180D02*
X-59238095Y18545180D01*
X-59238095Y18545180D02*
X-59571428Y18164228D01*
X-59571428Y18164228D02*
X-59428571Y18164228D01*
X-59428571Y18164228D02*
X-59333333Y18116609D01*
X-59333333Y18116609D02*
X-59285714Y18068990D01*
X-59285714Y18068990D02*
X-59238095Y17973752D01*
X-59238095Y17973752D02*
X-59238095Y17735657D01*
X-59238095Y17735657D02*
X-59285714Y17640419D01*
X-59285714Y17640419D02*
X-59333333Y17592800D01*
X-59333333Y17592800D02*
X-59428571Y17545180D01*
X-59428571Y17545180D02*
X-59714285Y17545180D01*
X-59714285Y17545180D02*
X-59809523Y17592800D01*
X-59809523Y17592800D02*
X-59857142Y17640419D01*
X-44404761Y-254819D02*
X-44404761Y745180D01*
X-43833333Y-254819D02*
X-44261904Y316609D01*
X-43833333Y745180D02*
X-44404761Y173752D01*
X-43023809Y-207200D02*
X-43119047Y-254819D01*
X-43119047Y-254819D02*
X-43309523Y-254819D01*
X-43309523Y-254819D02*
X-43404761Y-207200D01*
X-43404761Y-207200D02*
X-43452380Y-111961D01*
X-43452380Y-111961D02*
X-43452380Y268990D01*
X-43452380Y268990D02*
X-43404761Y364228D01*
X-43404761Y364228D02*
X-43309523Y411847D01*
X-43309523Y411847D02*
X-43119047Y411847D01*
X-43119047Y411847D02*
X-43023809Y364228D01*
X-43023809Y364228D02*
X-42976190Y268990D01*
X-42976190Y268990D02*
X-42976190Y173752D01*
X-42976190Y173752D02*
X-43452380Y78514D01*
X-42642856Y411847D02*
X-42404761Y-254819D01*
X-42166666Y411847D02*
X-42404761Y-254819D01*
X-42404761Y-254819D02*
X-42499999Y-492914D01*
X-42499999Y-492914D02*
X-42547618Y-540533D01*
X-42547618Y-540533D02*
X-42642856Y-588152D01*
X-41833332Y-207200D02*
X-41738094Y-254819D01*
X-41738094Y-254819D02*
X-41547618Y-254819D01*
X-41547618Y-254819D02*
X-41452380Y-207200D01*
X-41452380Y-207200D02*
X-41404761Y-111961D01*
X-41404761Y-111961D02*
X-41404761Y-64342D01*
X-41404761Y-64342D02*
X-41452380Y30895D01*
X-41452380Y30895D02*
X-41547618Y78514D01*
X-41547618Y78514D02*
X-41690475Y78514D01*
X-41690475Y78514D02*
X-41785713Y126133D01*
X-41785713Y126133D02*
X-41833332Y221371D01*
X-41833332Y221371D02*
X-41833332Y268990D01*
X-41833332Y268990D02*
X-41785713Y364228D01*
X-41785713Y364228D02*
X-41690475Y411847D01*
X-41690475Y411847D02*
X-41547618Y411847D01*
X-41547618Y411847D02*
X-41452380Y364228D01*
X-41071427Y411847D02*
X-40880951Y-254819D01*
X-40880951Y-254819D02*
X-40690475Y221371D01*
X-40690475Y221371D02*
X-40499999Y-254819D01*
X-40499999Y-254819D02*
X-40309523Y411847D01*
X-39928570Y-254819D02*
X-39928570Y411847D01*
X-39928570Y745180D02*
X-39976189Y697561D01*
X-39976189Y697561D02*
X-39928570Y649942D01*
X-39928570Y649942D02*
X-39880951Y697561D01*
X-39880951Y697561D02*
X-39928570Y745180D01*
X-39928570Y745180D02*
X-39928570Y649942D01*
X-39595237Y411847D02*
X-39214285Y411847D01*
X-39452380Y745180D02*
X-39452380Y-111961D01*
X-39452380Y-111961D02*
X-39404761Y-207200D01*
X-39404761Y-207200D02*
X-39309523Y-254819D01*
X-39309523Y-254819D02*
X-39214285Y-254819D01*
X-38452380Y-207200D02*
X-38547618Y-254819D01*
X-38547618Y-254819D02*
X-38738094Y-254819D01*
X-38738094Y-254819D02*
X-38833332Y-207200D01*
X-38833332Y-207200D02*
X-38880951Y-159580D01*
X-38880951Y-159580D02*
X-38928570Y-64342D01*
X-38928570Y-64342D02*
X-38928570Y221371D01*
X-38928570Y221371D02*
X-38880951Y316609D01*
X-38880951Y316609D02*
X-38833332Y364228D01*
X-38833332Y364228D02*
X-38738094Y411847D01*
X-38738094Y411847D02*
X-38547618Y411847D01*
X-38547618Y411847D02*
X-38452380Y364228D01*
X-38023808Y-254819D02*
X-38023808Y745180D01*
X-37595237Y-254819D02*
X-37595237Y268990D01*
X-37595237Y268990D02*
X-37642856Y364228D01*
X-37642856Y364228D02*
X-37738094Y411847D01*
X-37738094Y411847D02*
X-37880951Y411847D01*
X-37880951Y411847D02*
X-37976189Y364228D01*
X-37976189Y364228D02*
X-38023808Y316609D01*
X-41761904Y8792800D02*
X-41619047Y8745180D01*
X-41619047Y8745180D02*
X-41380952Y8745180D01*
X-41380952Y8745180D02*
X-41285714Y8792800D01*
X-41285714Y8792800D02*
X-41238095Y8840419D01*
X-41238095Y8840419D02*
X-41190476Y8935657D01*
X-41190476Y8935657D02*
X-41190476Y9030895D01*
X-41190476Y9030895D02*
X-41238095Y9126133D01*
X-41238095Y9126133D02*
X-41285714Y9173752D01*
X-41285714Y9173752D02*
X-41380952Y9221371D01*
X-41380952Y9221371D02*
X-41571428Y9268990D01*
X-41571428Y9268990D02*
X-41666666Y9316609D01*
X-41666666Y9316609D02*
X-41714285Y9364228D01*
X-41714285Y9364228D02*
X-41761904Y9459466D01*
X-41761904Y9459466D02*
X-41761904Y9554704D01*
X-41761904Y9554704D02*
X-41714285Y9649942D01*
X-41714285Y9649942D02*
X-41666666Y9697561D01*
X-41666666Y9697561D02*
X-41571428Y9745180D01*
X-41571428Y9745180D02*
X-41333333Y9745180D01*
X-41333333Y9745180D02*
X-41190476Y9697561D01*
X-40333333Y9411847D02*
X-40333333Y8745180D01*
X-40571428Y9792800D02*
X-40809523Y9078514D01*
X-40809523Y9078514D02*
X-40190476Y9078514D01*
X-82404761Y-8354819D02*
X-82404761Y-7354819D01*
X-81833333Y-8354819D02*
X-82261904Y-7783390D01*
X-81833333Y-7354819D02*
X-82404761Y-7926247D01*
X-81023809Y-8307200D02*
X-81119047Y-8354819D01*
X-81119047Y-8354819D02*
X-81309523Y-8354819D01*
X-81309523Y-8354819D02*
X-81404761Y-8307200D01*
X-81404761Y-8307200D02*
X-81452380Y-8211961D01*
X-81452380Y-8211961D02*
X-81452380Y-7831009D01*
X-81452380Y-7831009D02*
X-81404761Y-7735771D01*
X-81404761Y-7735771D02*
X-81309523Y-7688152D01*
X-81309523Y-7688152D02*
X-81119047Y-7688152D01*
X-81119047Y-7688152D02*
X-81023809Y-7735771D01*
X-81023809Y-7735771D02*
X-80976190Y-7831009D01*
X-80976190Y-7831009D02*
X-80976190Y-7926247D01*
X-80976190Y-7926247D02*
X-81452380Y-8021485D01*
X-80642856Y-7688152D02*
X-80404761Y-8354819D01*
X-80166666Y-7688152D02*
X-80404761Y-8354819D01*
X-80404761Y-8354819D02*
X-80499999Y-8592914D01*
X-80499999Y-8592914D02*
X-80547618Y-8640533D01*
X-80547618Y-8640533D02*
X-80642856Y-8688152D01*
X-79833332Y-8307200D02*
X-79738094Y-8354819D01*
X-79738094Y-8354819D02*
X-79547618Y-8354819D01*
X-79547618Y-8354819D02*
X-79452380Y-8307200D01*
X-79452380Y-8307200D02*
X-79404761Y-8211961D01*
X-79404761Y-8211961D02*
X-79404761Y-8164342D01*
X-79404761Y-8164342D02*
X-79452380Y-8069104D01*
X-79452380Y-8069104D02*
X-79547618Y-8021485D01*
X-79547618Y-8021485D02*
X-79690475Y-8021485D01*
X-79690475Y-8021485D02*
X-79785713Y-7973866D01*
X-79785713Y-7973866D02*
X-79833332Y-7878628D01*
X-79833332Y-7878628D02*
X-79833332Y-7831009D01*
X-79833332Y-7831009D02*
X-79785713Y-7735771D01*
X-79785713Y-7735771D02*
X-79690475Y-7688152D01*
X-79690475Y-7688152D02*
X-79547618Y-7688152D01*
X-79547618Y-7688152D02*
X-79452380Y-7735771D01*
X-79071427Y-7688152D02*
X-78880951Y-8354819D01*
X-78880951Y-8354819D02*
X-78690475Y-7878628D01*
X-78690475Y-7878628D02*
X-78499999Y-8354819D01*
X-78499999Y-8354819D02*
X-78309523Y-7688152D01*
X-77928570Y-8354819D02*
X-77928570Y-7688152D01*
X-77928570Y-7354819D02*
X-77976189Y-7402438D01*
X-77976189Y-7402438D02*
X-77928570Y-7450057D01*
X-77928570Y-7450057D02*
X-77880951Y-7402438D01*
X-77880951Y-7402438D02*
X-77928570Y-7354819D01*
X-77928570Y-7354819D02*
X-77928570Y-7450057D01*
X-77595237Y-7688152D02*
X-77214285Y-7688152D01*
X-77452380Y-7354819D02*
X-77452380Y-8211961D01*
X-77452380Y-8211961D02*
X-77404761Y-8307200D01*
X-77404761Y-8307200D02*
X-77309523Y-8354819D01*
X-77309523Y-8354819D02*
X-77214285Y-8354819D01*
X-76452380Y-8307200D02*
X-76547618Y-8354819D01*
X-76547618Y-8354819D02*
X-76738094Y-8354819D01*
X-76738094Y-8354819D02*
X-76833332Y-8307200D01*
X-76833332Y-8307200D02*
X-76880951Y-8259580D01*
X-76880951Y-8259580D02*
X-76928570Y-8164342D01*
X-76928570Y-8164342D02*
X-76928570Y-7878628D01*
X-76928570Y-7878628D02*
X-76880951Y-7783390D01*
X-76880951Y-7783390D02*
X-76833332Y-7735771D01*
X-76833332Y-7735771D02*
X-76738094Y-7688152D01*
X-76738094Y-7688152D02*
X-76547618Y-7688152D01*
X-76547618Y-7688152D02*
X-76452380Y-7735771D01*
X-76023808Y-8354819D02*
X-76023808Y-7354819D01*
X-75595237Y-8354819D02*
X-75595237Y-7831009D01*
X-75595237Y-7831009D02*
X-75642856Y-7735771D01*
X-75642856Y-7735771D02*
X-75738094Y-7688152D01*
X-75738094Y-7688152D02*
X-75880951Y-7688152D01*
X-75880951Y-7688152D02*
X-75976189Y-7735771D01*
X-75976189Y-7735771D02*
X-76023808Y-7783390D01*
X-80238094Y692800D02*
X-80095237Y645180D01*
X-80095237Y645180D02*
X-79857142Y645180D01*
X-79857142Y645180D02*
X-79761904Y692800D01*
X-79761904Y692800D02*
X-79714285Y740419D01*
X-79714285Y740419D02*
X-79666666Y835657D01*
X-79666666Y835657D02*
X-79666666Y930895D01*
X-79666666Y930895D02*
X-79714285Y1026133D01*
X-79714285Y1026133D02*
X-79761904Y1073752D01*
X-79761904Y1073752D02*
X-79857142Y1121371D01*
X-79857142Y1121371D02*
X-80047618Y1168990D01*
X-80047618Y1168990D02*
X-80142856Y1216609D01*
X-80142856Y1216609D02*
X-80190475Y1264228D01*
X-80190475Y1264228D02*
X-80238094Y1359466D01*
X-80238094Y1359466D02*
X-80238094Y1454704D01*
X-80238094Y1454704D02*
X-80190475Y1549942D01*
X-80190475Y1549942D02*
X-80142856Y1597561D01*
X-80142856Y1597561D02*
X-80047618Y1645180D01*
X-80047618Y1645180D02*
X-79809523Y1645180D01*
X-79809523Y1645180D02*
X-79666666Y1597561D01*
X-78714285Y645180D02*
X-79285713Y645180D01*
X-78999999Y645180D02*
X-78999999Y1645180D01*
X-78999999Y1645180D02*
X-79095237Y1502323D01*
X-79095237Y1502323D02*
X-79190475Y1407085D01*
X-79190475Y1407085D02*
X-79285713Y1359466D01*
X-78380951Y1645180D02*
X-77761904Y1645180D01*
X-77761904Y1645180D02*
X-78095237Y1264228D01*
X-78095237Y1264228D02*
X-77952380Y1264228D01*
X-77952380Y1264228D02*
X-77857142Y1216609D01*
X-77857142Y1216609D02*
X-77809523Y1168990D01*
X-77809523Y1168990D02*
X-77761904Y1073752D01*
X-77761904Y1073752D02*
X-77761904Y835657D01*
X-77761904Y835657D02*
X-77809523Y740419D01*
X-77809523Y740419D02*
X-77857142Y692800D01*
X-77857142Y692800D02*
X-77952380Y645180D01*
X-77952380Y645180D02*
X-78238094Y645180D01*
X-78238094Y645180D02*
X-78333332Y692800D01*
X-78333332Y692800D02*
X-78380951Y740419D01*
X75595238Y-8354819D02*
X75595238Y-7354819D01*
X76166666Y-8354819D02*
X75738095Y-7783390D01*
X76166666Y-7354819D02*
X75595238Y-7926247D01*
X76976190Y-8307200D02*
X76880952Y-8354819D01*
X76880952Y-8354819D02*
X76690476Y-8354819D01*
X76690476Y-8354819D02*
X76595238Y-8307200D01*
X76595238Y-8307200D02*
X76547619Y-8211961D01*
X76547619Y-8211961D02*
X76547619Y-7831009D01*
X76547619Y-7831009D02*
X76595238Y-7735771D01*
X76595238Y-7735771D02*
X76690476Y-7688152D01*
X76690476Y-7688152D02*
X76880952Y-7688152D01*
X76880952Y-7688152D02*
X76976190Y-7735771D01*
X76976190Y-7735771D02*
X77023809Y-7831009D01*
X77023809Y-7831009D02*
X77023809Y-7926247D01*
X77023809Y-7926247D02*
X76547619Y-8021485D01*
X77357143Y-7688152D02*
X77595238Y-8354819D01*
X77833333Y-7688152D02*
X77595238Y-8354819D01*
X77595238Y-8354819D02*
X77500000Y-8592914D01*
X77500000Y-8592914D02*
X77452381Y-8640533D01*
X77452381Y-8640533D02*
X77357143Y-8688152D01*
X78166667Y-8307200D02*
X78261905Y-8354819D01*
X78261905Y-8354819D02*
X78452381Y-8354819D01*
X78452381Y-8354819D02*
X78547619Y-8307200D01*
X78547619Y-8307200D02*
X78595238Y-8211961D01*
X78595238Y-8211961D02*
X78595238Y-8164342D01*
X78595238Y-8164342D02*
X78547619Y-8069104D01*
X78547619Y-8069104D02*
X78452381Y-8021485D01*
X78452381Y-8021485D02*
X78309524Y-8021485D01*
X78309524Y-8021485D02*
X78214286Y-7973866D01*
X78214286Y-7973866D02*
X78166667Y-7878628D01*
X78166667Y-7878628D02*
X78166667Y-7831009D01*
X78166667Y-7831009D02*
X78214286Y-7735771D01*
X78214286Y-7735771D02*
X78309524Y-7688152D01*
X78309524Y-7688152D02*
X78452381Y-7688152D01*
X78452381Y-7688152D02*
X78547619Y-7735771D01*
X78928572Y-7688152D02*
X79119048Y-8354819D01*
X79119048Y-8354819D02*
X79309524Y-7878628D01*
X79309524Y-7878628D02*
X79500000Y-8354819D01*
X79500000Y-8354819D02*
X79690476Y-7688152D01*
X80071429Y-8354819D02*
X80071429Y-7688152D01*
X80071429Y-7354819D02*
X80023810Y-7402438D01*
X80023810Y-7402438D02*
X80071429Y-7450057D01*
X80071429Y-7450057D02*
X80119048Y-7402438D01*
X80119048Y-7402438D02*
X80071429Y-7354819D01*
X80071429Y-7354819D02*
X80071429Y-7450057D01*
X80404762Y-7688152D02*
X80785714Y-7688152D01*
X80547619Y-7354819D02*
X80547619Y-8211961D01*
X80547619Y-8211961D02*
X80595238Y-8307200D01*
X80595238Y-8307200D02*
X80690476Y-8354819D01*
X80690476Y-8354819D02*
X80785714Y-8354819D01*
X81547619Y-8307200D02*
X81452381Y-8354819D01*
X81452381Y-8354819D02*
X81261905Y-8354819D01*
X81261905Y-8354819D02*
X81166667Y-8307200D01*
X81166667Y-8307200D02*
X81119048Y-8259580D01*
X81119048Y-8259580D02*
X81071429Y-8164342D01*
X81071429Y-8164342D02*
X81071429Y-7878628D01*
X81071429Y-7878628D02*
X81119048Y-7783390D01*
X81119048Y-7783390D02*
X81166667Y-7735771D01*
X81166667Y-7735771D02*
X81261905Y-7688152D01*
X81261905Y-7688152D02*
X81452381Y-7688152D01*
X81452381Y-7688152D02*
X81547619Y-7735771D01*
X81976191Y-8354819D02*
X81976191Y-7354819D01*
X82404762Y-8354819D02*
X82404762Y-7831009D01*
X82404762Y-7831009D02*
X82357143Y-7735771D01*
X82357143Y-7735771D02*
X82261905Y-7688152D01*
X82261905Y-7688152D02*
X82119048Y-7688152D01*
X82119048Y-7688152D02*
X82023810Y-7735771D01*
X82023810Y-7735771D02*
X81976191Y-7783390D01*
X77761905Y692800D02*
X77904762Y645180D01*
X77904762Y645180D02*
X78142857Y645180D01*
X78142857Y645180D02*
X78238095Y692800D01*
X78238095Y692800D02*
X78285714Y740419D01*
X78285714Y740419D02*
X78333333Y835657D01*
X78333333Y835657D02*
X78333333Y930895D01*
X78333333Y930895D02*
X78285714Y1026133D01*
X78285714Y1026133D02*
X78238095Y1073752D01*
X78238095Y1073752D02*
X78142857Y1121371D01*
X78142857Y1121371D02*
X77952381Y1168990D01*
X77952381Y1168990D02*
X77857143Y1216609D01*
X77857143Y1216609D02*
X77809524Y1264228D01*
X77809524Y1264228D02*
X77761905Y1359466D01*
X77761905Y1359466D02*
X77761905Y1454704D01*
X77761905Y1454704D02*
X77809524Y1549942D01*
X77809524Y1549942D02*
X77857143Y1597561D01*
X77857143Y1597561D02*
X77952381Y1645180D01*
X77952381Y1645180D02*
X78190476Y1645180D01*
X78190476Y1645180D02*
X78333333Y1597561D01*
X78714286Y1549942D02*
X78761905Y1597561D01*
X78761905Y1597561D02*
X78857143Y1645180D01*
X78857143Y1645180D02*
X79095238Y1645180D01*
X79095238Y1645180D02*
X79190476Y1597561D01*
X79190476Y1597561D02*
X79238095Y1549942D01*
X79238095Y1549942D02*
X79285714Y1454704D01*
X79285714Y1454704D02*
X79285714Y1359466D01*
X79285714Y1359466D02*
X79238095Y1216609D01*
X79238095Y1216609D02*
X78666667Y645180D01*
X78666667Y645180D02*
X79285714Y645180D01*
X79904762Y1645180D02*
X80000000Y1645180D01*
X80000000Y1645180D02*
X80095238Y1597561D01*
X80095238Y1597561D02*
X80142857Y1549942D01*
X80142857Y1549942D02*
X80190476Y1454704D01*
X80190476Y1454704D02*
X80238095Y1264228D01*
X80238095Y1264228D02*
X80238095Y1026133D01*
X80238095Y1026133D02*
X80190476Y835657D01*
X80190476Y835657D02*
X80142857Y740419D01*
X80142857Y740419D02*
X80095238Y692800D01*
X80095238Y692800D02*
X80000000Y645180D01*
X80000000Y645180D02*
X79904762Y645180D01*
X79904762Y645180D02*
X79809524Y692800D01*
X79809524Y692800D02*
X79761905Y740419D01*
X79761905Y740419D02*
X79714286Y835657D01*
X79714286Y835657D02*
X79666667Y1026133D01*
X79666667Y1026133D02*
X79666667Y1264228D01*
X79666667Y1264228D02*
X79714286Y1454704D01*
X79714286Y1454704D02*
X79761905Y1549942D01*
X79761905Y1549942D02*
X79809524Y1597561D01*
X79809524Y1597561D02*
X79904762Y1645180D01*
X94595238Y-18254819D02*
X94595238Y-17254819D01*
X95166666Y-18254819D02*
X94738095Y-17683390D01*
X95166666Y-17254819D02*
X94595238Y-17826247D01*
X95976190Y-18207200D02*
X95880952Y-18254819D01*
X95880952Y-18254819D02*
X95690476Y-18254819D01*
X95690476Y-18254819D02*
X95595238Y-18207200D01*
X95595238Y-18207200D02*
X95547619Y-18111961D01*
X95547619Y-18111961D02*
X95547619Y-17731009D01*
X95547619Y-17731009D02*
X95595238Y-17635771D01*
X95595238Y-17635771D02*
X95690476Y-17588152D01*
X95690476Y-17588152D02*
X95880952Y-17588152D01*
X95880952Y-17588152D02*
X95976190Y-17635771D01*
X95976190Y-17635771D02*
X96023809Y-17731009D01*
X96023809Y-17731009D02*
X96023809Y-17826247D01*
X96023809Y-17826247D02*
X95547619Y-17921485D01*
X96357143Y-17588152D02*
X96595238Y-18254819D01*
X96833333Y-17588152D02*
X96595238Y-18254819D01*
X96595238Y-18254819D02*
X96500000Y-18492914D01*
X96500000Y-18492914D02*
X96452381Y-18540533D01*
X96452381Y-18540533D02*
X96357143Y-18588152D01*
X97166667Y-18207200D02*
X97261905Y-18254819D01*
X97261905Y-18254819D02*
X97452381Y-18254819D01*
X97452381Y-18254819D02*
X97547619Y-18207200D01*
X97547619Y-18207200D02*
X97595238Y-18111961D01*
X97595238Y-18111961D02*
X97595238Y-18064342D01*
X97595238Y-18064342D02*
X97547619Y-17969104D01*
X97547619Y-17969104D02*
X97452381Y-17921485D01*
X97452381Y-17921485D02*
X97309524Y-17921485D01*
X97309524Y-17921485D02*
X97214286Y-17873866D01*
X97214286Y-17873866D02*
X97166667Y-17778628D01*
X97166667Y-17778628D02*
X97166667Y-17731009D01*
X97166667Y-17731009D02*
X97214286Y-17635771D01*
X97214286Y-17635771D02*
X97309524Y-17588152D01*
X97309524Y-17588152D02*
X97452381Y-17588152D01*
X97452381Y-17588152D02*
X97547619Y-17635771D01*
X97928572Y-17588152D02*
X98119048Y-18254819D01*
X98119048Y-18254819D02*
X98309524Y-17778628D01*
X98309524Y-17778628D02*
X98500000Y-18254819D01*
X98500000Y-18254819D02*
X98690476Y-17588152D01*
X99071429Y-18254819D02*
X99071429Y-17588152D01*
X99071429Y-17254819D02*
X99023810Y-17302438D01*
X99023810Y-17302438D02*
X99071429Y-17350057D01*
X99071429Y-17350057D02*
X99119048Y-17302438D01*
X99119048Y-17302438D02*
X99071429Y-17254819D01*
X99071429Y-17254819D02*
X99071429Y-17350057D01*
X99404762Y-17588152D02*
X99785714Y-17588152D01*
X99547619Y-17254819D02*
X99547619Y-18111961D01*
X99547619Y-18111961D02*
X99595238Y-18207200D01*
X99595238Y-18207200D02*
X99690476Y-18254819D01*
X99690476Y-18254819D02*
X99785714Y-18254819D01*
X100547619Y-18207200D02*
X100452381Y-18254819D01*
X100452381Y-18254819D02*
X100261905Y-18254819D01*
X100261905Y-18254819D02*
X100166667Y-18207200D01*
X100166667Y-18207200D02*
X100119048Y-18159580D01*
X100119048Y-18159580D02*
X100071429Y-18064342D01*
X100071429Y-18064342D02*
X100071429Y-17778628D01*
X100071429Y-17778628D02*
X100119048Y-17683390D01*
X100119048Y-17683390D02*
X100166667Y-17635771D01*
X100166667Y-17635771D02*
X100261905Y-17588152D01*
X100261905Y-17588152D02*
X100452381Y-17588152D01*
X100452381Y-17588152D02*
X100547619Y-17635771D01*
X100976191Y-18254819D02*
X100976191Y-17254819D01*
X101404762Y-18254819D02*
X101404762Y-17731009D01*
X101404762Y-17731009D02*
X101357143Y-17635771D01*
X101357143Y-17635771D02*
X101261905Y-17588152D01*
X101261905Y-17588152D02*
X101119048Y-17588152D01*
X101119048Y-17588152D02*
X101023810Y-17635771D01*
X101023810Y-17635771D02*
X100976191Y-17683390D01*
X96761905Y-9207200D02*
X96904762Y-9254819D01*
X96904762Y-9254819D02*
X97142857Y-9254819D01*
X97142857Y-9254819D02*
X97238095Y-9207200D01*
X97238095Y-9207200D02*
X97285714Y-9159580D01*
X97285714Y-9159580D02*
X97333333Y-9064342D01*
X97333333Y-9064342D02*
X97333333Y-8969104D01*
X97333333Y-8969104D02*
X97285714Y-8873866D01*
X97285714Y-8873866D02*
X97238095Y-8826247D01*
X97238095Y-8826247D02*
X97142857Y-8778628D01*
X97142857Y-8778628D02*
X96952381Y-8731009D01*
X96952381Y-8731009D02*
X96857143Y-8683390D01*
X96857143Y-8683390D02*
X96809524Y-8635771D01*
X96809524Y-8635771D02*
X96761905Y-8540533D01*
X96761905Y-8540533D02*
X96761905Y-8445295D01*
X96761905Y-8445295D02*
X96809524Y-8350057D01*
X96809524Y-8350057D02*
X96857143Y-8302438D01*
X96857143Y-8302438D02*
X96952381Y-8254819D01*
X96952381Y-8254819D02*
X97190476Y-8254819D01*
X97190476Y-8254819D02*
X97333333Y-8302438D01*
X97714286Y-8350057D02*
X97761905Y-8302438D01*
X97761905Y-8302438D02*
X97857143Y-8254819D01*
X97857143Y-8254819D02*
X98095238Y-8254819D01*
X98095238Y-8254819D02*
X98190476Y-8302438D01*
X98190476Y-8302438D02*
X98238095Y-8350057D01*
X98238095Y-8350057D02*
X98285714Y-8445295D01*
X98285714Y-8445295D02*
X98285714Y-8540533D01*
X98285714Y-8540533D02*
X98238095Y-8683390D01*
X98238095Y-8683390D02*
X97666667Y-9254819D01*
X97666667Y-9254819D02*
X98285714Y-9254819D01*
X99238095Y-9254819D02*
X98666667Y-9254819D01*
X98952381Y-9254819D02*
X98952381Y-8254819D01*
X98952381Y-8254819D02*
X98857143Y-8397676D01*
X98857143Y-8397676D02*
X98761905Y-8492914D01*
X98761905Y-8492914D02*
X98666667Y-8540533D01*
X-82404761Y9645180D02*
X-82404761Y10645180D01*
X-81833333Y9645180D02*
X-82261904Y10216609D01*
X-81833333Y10645180D02*
X-82404761Y10073752D01*
X-81023809Y9692800D02*
X-81119047Y9645180D01*
X-81119047Y9645180D02*
X-81309523Y9645180D01*
X-81309523Y9645180D02*
X-81404761Y9692800D01*
X-81404761Y9692800D02*
X-81452380Y9788038D01*
X-81452380Y9788038D02*
X-81452380Y10168990D01*
X-81452380Y10168990D02*
X-81404761Y10264228D01*
X-81404761Y10264228D02*
X-81309523Y10311847D01*
X-81309523Y10311847D02*
X-81119047Y10311847D01*
X-81119047Y10311847D02*
X-81023809Y10264228D01*
X-81023809Y10264228D02*
X-80976190Y10168990D01*
X-80976190Y10168990D02*
X-80976190Y10073752D01*
X-80976190Y10073752D02*
X-81452380Y9978514D01*
X-80642856Y10311847D02*
X-80404761Y9645180D01*
X-80166666Y10311847D02*
X-80404761Y9645180D01*
X-80404761Y9645180D02*
X-80499999Y9407085D01*
X-80499999Y9407085D02*
X-80547618Y9359466D01*
X-80547618Y9359466D02*
X-80642856Y9311847D01*
X-79833332Y9692800D02*
X-79738094Y9645180D01*
X-79738094Y9645180D02*
X-79547618Y9645180D01*
X-79547618Y9645180D02*
X-79452380Y9692800D01*
X-79452380Y9692800D02*
X-79404761Y9788038D01*
X-79404761Y9788038D02*
X-79404761Y9835657D01*
X-79404761Y9835657D02*
X-79452380Y9930895D01*
X-79452380Y9930895D02*
X-79547618Y9978514D01*
X-79547618Y9978514D02*
X-79690475Y9978514D01*
X-79690475Y9978514D02*
X-79785713Y10026133D01*
X-79785713Y10026133D02*
X-79833332Y10121371D01*
X-79833332Y10121371D02*
X-79833332Y10168990D01*
X-79833332Y10168990D02*
X-79785713Y10264228D01*
X-79785713Y10264228D02*
X-79690475Y10311847D01*
X-79690475Y10311847D02*
X-79547618Y10311847D01*
X-79547618Y10311847D02*
X-79452380Y10264228D01*
X-79071427Y10311847D02*
X-78880951Y9645180D01*
X-78880951Y9645180D02*
X-78690475Y10121371D01*
X-78690475Y10121371D02*
X-78499999Y9645180D01*
X-78499999Y9645180D02*
X-78309523Y10311847D01*
X-77928570Y9645180D02*
X-77928570Y10311847D01*
X-77928570Y10645180D02*
X-77976189Y10597561D01*
X-77976189Y10597561D02*
X-77928570Y10549942D01*
X-77928570Y10549942D02*
X-77880951Y10597561D01*
X-77880951Y10597561D02*
X-77928570Y10645180D01*
X-77928570Y10645180D02*
X-77928570Y10549942D01*
X-77595237Y10311847D02*
X-77214285Y10311847D01*
X-77452380Y10645180D02*
X-77452380Y9788038D01*
X-77452380Y9788038D02*
X-77404761Y9692800D01*
X-77404761Y9692800D02*
X-77309523Y9645180D01*
X-77309523Y9645180D02*
X-77214285Y9645180D01*
X-76452380Y9692800D02*
X-76547618Y9645180D01*
X-76547618Y9645180D02*
X-76738094Y9645180D01*
X-76738094Y9645180D02*
X-76833332Y9692800D01*
X-76833332Y9692800D02*
X-76880951Y9740419D01*
X-76880951Y9740419D02*
X-76928570Y9835657D01*
X-76928570Y9835657D02*
X-76928570Y10121371D01*
X-76928570Y10121371D02*
X-76880951Y10216609D01*
X-76880951Y10216609D02*
X-76833332Y10264228D01*
X-76833332Y10264228D02*
X-76738094Y10311847D01*
X-76738094Y10311847D02*
X-76547618Y10311847D01*
X-76547618Y10311847D02*
X-76452380Y10264228D01*
X-76023808Y9645180D02*
X-76023808Y10645180D01*
X-75595237Y9645180D02*
X-75595237Y10168990D01*
X-75595237Y10168990D02*
X-75642856Y10264228D01*
X-75642856Y10264228D02*
X-75738094Y10311847D01*
X-75738094Y10311847D02*
X-75880951Y10311847D01*
X-75880951Y10311847D02*
X-75976189Y10264228D01*
X-75976189Y10264228D02*
X-76023808Y10216609D01*
X-79761904Y18692800D02*
X-79619047Y18645180D01*
X-79619047Y18645180D02*
X-79380952Y18645180D01*
X-79380952Y18645180D02*
X-79285714Y18692800D01*
X-79285714Y18692800D02*
X-79238095Y18740419D01*
X-79238095Y18740419D02*
X-79190476Y18835657D01*
X-79190476Y18835657D02*
X-79190476Y18930895D01*
X-79190476Y18930895D02*
X-79238095Y19026133D01*
X-79238095Y19026133D02*
X-79285714Y19073752D01*
X-79285714Y19073752D02*
X-79380952Y19121371D01*
X-79380952Y19121371D02*
X-79571428Y19168990D01*
X-79571428Y19168990D02*
X-79666666Y19216609D01*
X-79666666Y19216609D02*
X-79714285Y19264228D01*
X-79714285Y19264228D02*
X-79761904Y19359466D01*
X-79761904Y19359466D02*
X-79761904Y19454704D01*
X-79761904Y19454704D02*
X-79714285Y19549942D01*
X-79714285Y19549942D02*
X-79666666Y19597561D01*
X-79666666Y19597561D02*
X-79571428Y19645180D01*
X-79571428Y19645180D02*
X-79333333Y19645180D01*
X-79333333Y19645180D02*
X-79190476Y19597561D01*
X-78809523Y19549942D02*
X-78761904Y19597561D01*
X-78761904Y19597561D02*
X-78666666Y19645180D01*
X-78666666Y19645180D02*
X-78428571Y19645180D01*
X-78428571Y19645180D02*
X-78333333Y19597561D01*
X-78333333Y19597561D02*
X-78285714Y19549942D01*
X-78285714Y19549942D02*
X-78238095Y19454704D01*
X-78238095Y19454704D02*
X-78238095Y19359466D01*
X-78238095Y19359466D02*
X-78285714Y19216609D01*
X-78285714Y19216609D02*
X-78857142Y18645180D01*
X-78857142Y18645180D02*
X-78238095Y18645180D01*
X-101404761Y-18254819D02*
X-101404761Y-17254819D01*
X-100833333Y-18254819D02*
X-101261904Y-17683390D01*
X-100833333Y-17254819D02*
X-101404761Y-17826247D01*
X-100023809Y-18207200D02*
X-100119047Y-18254819D01*
X-100119047Y-18254819D02*
X-100309523Y-18254819D01*
X-100309523Y-18254819D02*
X-100404761Y-18207200D01*
X-100404761Y-18207200D02*
X-100452380Y-18111961D01*
X-100452380Y-18111961D02*
X-100452380Y-17731009D01*
X-100452380Y-17731009D02*
X-100404761Y-17635771D01*
X-100404761Y-17635771D02*
X-100309523Y-17588152D01*
X-100309523Y-17588152D02*
X-100119047Y-17588152D01*
X-100119047Y-17588152D02*
X-100023809Y-17635771D01*
X-100023809Y-17635771D02*
X-99976190Y-17731009D01*
X-99976190Y-17731009D02*
X-99976190Y-17826247D01*
X-99976190Y-17826247D02*
X-100452380Y-17921485D01*
X-99642856Y-17588152D02*
X-99404761Y-18254819D01*
X-99166666Y-17588152D02*
X-99404761Y-18254819D01*
X-99404761Y-18254819D02*
X-99499999Y-18492914D01*
X-99499999Y-18492914D02*
X-99547618Y-18540533D01*
X-99547618Y-18540533D02*
X-99642856Y-18588152D01*
X-98833332Y-18207200D02*
X-98738094Y-18254819D01*
X-98738094Y-18254819D02*
X-98547618Y-18254819D01*
X-98547618Y-18254819D02*
X-98452380Y-18207200D01*
X-98452380Y-18207200D02*
X-98404761Y-18111961D01*
X-98404761Y-18111961D02*
X-98404761Y-18064342D01*
X-98404761Y-18064342D02*
X-98452380Y-17969104D01*
X-98452380Y-17969104D02*
X-98547618Y-17921485D01*
X-98547618Y-17921485D02*
X-98690475Y-17921485D01*
X-98690475Y-17921485D02*
X-98785713Y-17873866D01*
X-98785713Y-17873866D02*
X-98833332Y-17778628D01*
X-98833332Y-17778628D02*
X-98833332Y-17731009D01*
X-98833332Y-17731009D02*
X-98785713Y-17635771D01*
X-98785713Y-17635771D02*
X-98690475Y-17588152D01*
X-98690475Y-17588152D02*
X-98547618Y-17588152D01*
X-98547618Y-17588152D02*
X-98452380Y-17635771D01*
X-98071427Y-17588152D02*
X-97880951Y-18254819D01*
X-97880951Y-18254819D02*
X-97690475Y-17778628D01*
X-97690475Y-17778628D02*
X-97499999Y-18254819D01*
X-97499999Y-18254819D02*
X-97309523Y-17588152D01*
X-96928570Y-18254819D02*
X-96928570Y-17588152D01*
X-96928570Y-17254819D02*
X-96976189Y-17302438D01*
X-96976189Y-17302438D02*
X-96928570Y-17350057D01*
X-96928570Y-17350057D02*
X-96880951Y-17302438D01*
X-96880951Y-17302438D02*
X-96928570Y-17254819D01*
X-96928570Y-17254819D02*
X-96928570Y-17350057D01*
X-96595237Y-17588152D02*
X-96214285Y-17588152D01*
X-96452380Y-17254819D02*
X-96452380Y-18111961D01*
X-96452380Y-18111961D02*
X-96404761Y-18207200D01*
X-96404761Y-18207200D02*
X-96309523Y-18254819D01*
X-96309523Y-18254819D02*
X-96214285Y-18254819D01*
X-95452380Y-18207200D02*
X-95547618Y-18254819D01*
X-95547618Y-18254819D02*
X-95738094Y-18254819D01*
X-95738094Y-18254819D02*
X-95833332Y-18207200D01*
X-95833332Y-18207200D02*
X-95880951Y-18159580D01*
X-95880951Y-18159580D02*
X-95928570Y-18064342D01*
X-95928570Y-18064342D02*
X-95928570Y-17778628D01*
X-95928570Y-17778628D02*
X-95880951Y-17683390D01*
X-95880951Y-17683390D02*
X-95833332Y-17635771D01*
X-95833332Y-17635771D02*
X-95738094Y-17588152D01*
X-95738094Y-17588152D02*
X-95547618Y-17588152D01*
X-95547618Y-17588152D02*
X-95452380Y-17635771D01*
X-95023808Y-18254819D02*
X-95023808Y-17254819D01*
X-94595237Y-18254819D02*
X-94595237Y-17731009D01*
X-94595237Y-17731009D02*
X-94642856Y-17635771D01*
X-94642856Y-17635771D02*
X-94738094Y-17588152D01*
X-94738094Y-17588152D02*
X-94880951Y-17588152D01*
X-94880951Y-17588152D02*
X-94976189Y-17635771D01*
X-94976189Y-17635771D02*
X-95023808Y-17683390D01*
X-99238094Y-9207200D02*
X-99095237Y-9254819D01*
X-99095237Y-9254819D02*
X-98857142Y-9254819D01*
X-98857142Y-9254819D02*
X-98761904Y-9207200D01*
X-98761904Y-9207200D02*
X-98714285Y-9159580D01*
X-98714285Y-9159580D02*
X-98666666Y-9064342D01*
X-98666666Y-9064342D02*
X-98666666Y-8969104D01*
X-98666666Y-8969104D02*
X-98714285Y-8873866D01*
X-98714285Y-8873866D02*
X-98761904Y-8826247D01*
X-98761904Y-8826247D02*
X-98857142Y-8778628D01*
X-98857142Y-8778628D02*
X-99047618Y-8731009D01*
X-99047618Y-8731009D02*
X-99142856Y-8683390D01*
X-99142856Y-8683390D02*
X-99190475Y-8635771D01*
X-99190475Y-8635771D02*
X-99238094Y-8540533D01*
X-99238094Y-8540533D02*
X-99238094Y-8445295D01*
X-99238094Y-8445295D02*
X-99190475Y-8350057D01*
X-99190475Y-8350057D02*
X-99142856Y-8302438D01*
X-99142856Y-8302438D02*
X-99047618Y-8254819D01*
X-99047618Y-8254819D02*
X-98809523Y-8254819D01*
X-98809523Y-8254819D02*
X-98666666Y-8302438D01*
X-97714285Y-9254819D02*
X-98285713Y-9254819D01*
X-97999999Y-9254819D02*
X-97999999Y-8254819D01*
X-97999999Y-8254819D02*
X-98095237Y-8397676D01*
X-98095237Y-8397676D02*
X-98190475Y-8492914D01*
X-98190475Y-8492914D02*
X-98285713Y-8540533D01*
X-97333332Y-8350057D02*
X-97285713Y-8302438D01*
X-97285713Y-8302438D02*
X-97190475Y-8254819D01*
X-97190475Y-8254819D02*
X-96952380Y-8254819D01*
X-96952380Y-8254819D02*
X-96857142Y-8302438D01*
X-96857142Y-8302438D02*
X-96809523Y-8350057D01*
X-96809523Y-8350057D02*
X-96761904Y-8445295D01*
X-96761904Y-8445295D02*
X-96761904Y-8540533D01*
X-96761904Y-8540533D02*
X-96809523Y-8683390D01*
X-96809523Y-8683390D02*
X-97380951Y-9254819D01*
X-97380951Y-9254819D02*
X-96761904Y-9254819D01*
X-101404761Y-254819D02*
X-101404761Y745180D01*
X-100833333Y-254819D02*
X-101261904Y316609D01*
X-100833333Y745180D02*
X-101404761Y173752D01*
X-100023809Y-207200D02*
X-100119047Y-254819D01*
X-100119047Y-254819D02*
X-100309523Y-254819D01*
X-100309523Y-254819D02*
X-100404761Y-207200D01*
X-100404761Y-207200D02*
X-100452380Y-111961D01*
X-100452380Y-111961D02*
X-100452380Y268990D01*
X-100452380Y268990D02*
X-100404761Y364228D01*
X-100404761Y364228D02*
X-100309523Y411847D01*
X-100309523Y411847D02*
X-100119047Y411847D01*
X-100119047Y411847D02*
X-100023809Y364228D01*
X-100023809Y364228D02*
X-99976190Y268990D01*
X-99976190Y268990D02*
X-99976190Y173752D01*
X-99976190Y173752D02*
X-100452380Y78514D01*
X-99642856Y411847D02*
X-99404761Y-254819D01*
X-99166666Y411847D02*
X-99404761Y-254819D01*
X-99404761Y-254819D02*
X-99499999Y-492914D01*
X-99499999Y-492914D02*
X-99547618Y-540533D01*
X-99547618Y-540533D02*
X-99642856Y-588152D01*
X-98833332Y-207200D02*
X-98738094Y-254819D01*
X-98738094Y-254819D02*
X-98547618Y-254819D01*
X-98547618Y-254819D02*
X-98452380Y-207200D01*
X-98452380Y-207200D02*
X-98404761Y-111961D01*
X-98404761Y-111961D02*
X-98404761Y-64342D01*
X-98404761Y-64342D02*
X-98452380Y30895D01*
X-98452380Y30895D02*
X-98547618Y78514D01*
X-98547618Y78514D02*
X-98690475Y78514D01*
X-98690475Y78514D02*
X-98785713Y126133D01*
X-98785713Y126133D02*
X-98833332Y221371D01*
X-98833332Y221371D02*
X-98833332Y268990D01*
X-98833332Y268990D02*
X-98785713Y364228D01*
X-98785713Y364228D02*
X-98690475Y411847D01*
X-98690475Y411847D02*
X-98547618Y411847D01*
X-98547618Y411847D02*
X-98452380Y364228D01*
X-98071427Y411847D02*
X-97880951Y-254819D01*
X-97880951Y-254819D02*
X-97690475Y221371D01*
X-97690475Y221371D02*
X-97499999Y-254819D01*
X-97499999Y-254819D02*
X-97309523Y411847D01*
X-96928570Y-254819D02*
X-96928570Y411847D01*
X-96928570Y745180D02*
X-96976189Y697561D01*
X-96976189Y697561D02*
X-96928570Y649942D01*
X-96928570Y649942D02*
X-96880951Y697561D01*
X-96880951Y697561D02*
X-96928570Y745180D01*
X-96928570Y745180D02*
X-96928570Y649942D01*
X-96595237Y411847D02*
X-96214285Y411847D01*
X-96452380Y745180D02*
X-96452380Y-111961D01*
X-96452380Y-111961D02*
X-96404761Y-207200D01*
X-96404761Y-207200D02*
X-96309523Y-254819D01*
X-96309523Y-254819D02*
X-96214285Y-254819D01*
X-95452380Y-207200D02*
X-95547618Y-254819D01*
X-95547618Y-254819D02*
X-95738094Y-254819D01*
X-95738094Y-254819D02*
X-95833332Y-207200D01*
X-95833332Y-207200D02*
X-95880951Y-159580D01*
X-95880951Y-159580D02*
X-95928570Y-64342D01*
X-95928570Y-64342D02*
X-95928570Y221371D01*
X-95928570Y221371D02*
X-95880951Y316609D01*
X-95880951Y316609D02*
X-95833332Y364228D01*
X-95833332Y364228D02*
X-95738094Y411847D01*
X-95738094Y411847D02*
X-95547618Y411847D01*
X-95547618Y411847D02*
X-95452380Y364228D01*
X-95023808Y-254819D02*
X-95023808Y745180D01*
X-94595237Y-254819D02*
X-94595237Y268990D01*
X-94595237Y268990D02*
X-94642856Y364228D01*
X-94642856Y364228D02*
X-94738094Y411847D01*
X-94738094Y411847D02*
X-94880951Y411847D01*
X-94880951Y411847D02*
X-94976189Y364228D01*
X-94976189Y364228D02*
X-95023808Y316609D01*
X-98761904Y8792800D02*
X-98619047Y8745180D01*
X-98619047Y8745180D02*
X-98380952Y8745180D01*
X-98380952Y8745180D02*
X-98285714Y8792800D01*
X-98285714Y8792800D02*
X-98238095Y8840419D01*
X-98238095Y8840419D02*
X-98190476Y8935657D01*
X-98190476Y8935657D02*
X-98190476Y9030895D01*
X-98190476Y9030895D02*
X-98238095Y9126133D01*
X-98238095Y9126133D02*
X-98285714Y9173752D01*
X-98285714Y9173752D02*
X-98380952Y9221371D01*
X-98380952Y9221371D02*
X-98571428Y9268990D01*
X-98571428Y9268990D02*
X-98666666Y9316609D01*
X-98666666Y9316609D02*
X-98714285Y9364228D01*
X-98714285Y9364228D02*
X-98761904Y9459466D01*
X-98761904Y9459466D02*
X-98761904Y9554704D01*
X-98761904Y9554704D02*
X-98714285Y9649942D01*
X-98714285Y9649942D02*
X-98666666Y9697561D01*
X-98666666Y9697561D02*
X-98571428Y9745180D01*
X-98571428Y9745180D02*
X-98333333Y9745180D01*
X-98333333Y9745180D02*
X-98190476Y9697561D01*
X-97238095Y8745180D02*
X-97809523Y8745180D01*
X-97523809Y8745180D02*
X-97523809Y9745180D01*
X-97523809Y9745180D02*
X-97619047Y9602323D01*
X-97619047Y9602323D02*
X-97714285Y9507085D01*
X-97714285Y9507085D02*
X-97809523Y9459466D01*
X112095238Y-254819D02*
X112095238Y745180D01*
X112666666Y-254819D02*
X112238095Y316609D01*
X112666666Y745180D02*
X112095238Y173752D01*
X113476190Y-207200D02*
X113380952Y-254819D01*
X113380952Y-254819D02*
X113190476Y-254819D01*
X113190476Y-254819D02*
X113095238Y-207200D01*
X113095238Y-207200D02*
X113047619Y-111961D01*
X113047619Y-111961D02*
X113047619Y268990D01*
X113047619Y268990D02*
X113095238Y364228D01*
X113095238Y364228D02*
X113190476Y411847D01*
X113190476Y411847D02*
X113380952Y411847D01*
X113380952Y411847D02*
X113476190Y364228D01*
X113476190Y364228D02*
X113523809Y268990D01*
X113523809Y268990D02*
X113523809Y173752D01*
X113523809Y173752D02*
X113047619Y78514D01*
X113857143Y411847D02*
X114095238Y-254819D01*
X114333333Y411847D02*
X114095238Y-254819D01*
X114095238Y-254819D02*
X114000000Y-492914D01*
X114000000Y-492914D02*
X113952381Y-540533D01*
X113952381Y-540533D02*
X113857143Y-588152D01*
X114666667Y-207200D02*
X114761905Y-254819D01*
X114761905Y-254819D02*
X114952381Y-254819D01*
X114952381Y-254819D02*
X115047619Y-207200D01*
X115047619Y-207200D02*
X115095238Y-111961D01*
X115095238Y-111961D02*
X115095238Y-64342D01*
X115095238Y-64342D02*
X115047619Y30895D01*
X115047619Y30895D02*
X114952381Y78514D01*
X114952381Y78514D02*
X114809524Y78514D01*
X114809524Y78514D02*
X114714286Y126133D01*
X114714286Y126133D02*
X114666667Y221371D01*
X114666667Y221371D02*
X114666667Y268990D01*
X114666667Y268990D02*
X114714286Y364228D01*
X114714286Y364228D02*
X114809524Y411847D01*
X114809524Y411847D02*
X114952381Y411847D01*
X114952381Y411847D02*
X115047619Y364228D01*
X115428572Y411847D02*
X115619048Y-254819D01*
X115619048Y-254819D02*
X115809524Y221371D01*
X115809524Y221371D02*
X116000000Y-254819D01*
X116000000Y-254819D02*
X116190476Y411847D01*
X116571429Y-254819D02*
X116571429Y411847D01*
X116571429Y745180D02*
X116523810Y697561D01*
X116523810Y697561D02*
X116571429Y649942D01*
X116571429Y649942D02*
X116619048Y697561D01*
X116619048Y697561D02*
X116571429Y745180D01*
X116571429Y745180D02*
X116571429Y649942D01*
X116904762Y411847D02*
X117285714Y411847D01*
X117047619Y745180D02*
X117047619Y-111961D01*
X117047619Y-111961D02*
X117095238Y-207200D01*
X117095238Y-207200D02*
X117190476Y-254819D01*
X117190476Y-254819D02*
X117285714Y-254819D01*
X118047619Y-207200D02*
X117952381Y-254819D01*
X117952381Y-254819D02*
X117761905Y-254819D01*
X117761905Y-254819D02*
X117666667Y-207200D01*
X117666667Y-207200D02*
X117619048Y-159580D01*
X117619048Y-159580D02*
X117571429Y-64342D01*
X117571429Y-64342D02*
X117571429Y221371D01*
X117571429Y221371D02*
X117619048Y316609D01*
X117619048Y316609D02*
X117666667Y364228D01*
X117666667Y364228D02*
X117761905Y411847D01*
X117761905Y411847D02*
X117952381Y411847D01*
X117952381Y411847D02*
X118047619Y364228D01*
X118476191Y-254819D02*
X118476191Y745180D01*
X118904762Y-254819D02*
X118904762Y268990D01*
X118904762Y268990D02*
X118857143Y364228D01*
X118857143Y364228D02*
X118761905Y411847D01*
X118761905Y411847D02*
X118619048Y411847D01*
X118619048Y411847D02*
X118523810Y364228D01*
X118523810Y364228D02*
X118476191Y316609D01*
X114261905Y8792800D02*
X114404762Y8745180D01*
X114404762Y8745180D02*
X114642857Y8745180D01*
X114642857Y8745180D02*
X114738095Y8792800D01*
X114738095Y8792800D02*
X114785714Y8840419D01*
X114785714Y8840419D02*
X114833333Y8935657D01*
X114833333Y8935657D02*
X114833333Y9030895D01*
X114833333Y9030895D02*
X114785714Y9126133D01*
X114785714Y9126133D02*
X114738095Y9173752D01*
X114738095Y9173752D02*
X114642857Y9221371D01*
X114642857Y9221371D02*
X114452381Y9268990D01*
X114452381Y9268990D02*
X114357143Y9316609D01*
X114357143Y9316609D02*
X114309524Y9364228D01*
X114309524Y9364228D02*
X114261905Y9459466D01*
X114261905Y9459466D02*
X114261905Y9554704D01*
X114261905Y9554704D02*
X114309524Y9649942D01*
X114309524Y9649942D02*
X114357143Y9697561D01*
X114357143Y9697561D02*
X114452381Y9745180D01*
X114452381Y9745180D02*
X114690476Y9745180D01*
X114690476Y9745180D02*
X114833333Y9697561D01*
X115785714Y8745180D02*
X115214286Y8745180D01*
X115500000Y8745180D02*
X115500000Y9745180D01*
X115500000Y9745180D02*
X115404762Y9602323D01*
X115404762Y9602323D02*
X115309524Y9507085D01*
X115309524Y9507085D02*
X115214286Y9459466D01*
X116738095Y8745180D02*
X116166667Y8745180D01*
X116452381Y8745180D02*
X116452381Y9745180D01*
X116452381Y9745180D02*
X116357143Y9602323D01*
X116357143Y9602323D02*
X116261905Y9507085D01*
X116261905Y9507085D02*
X116166667Y9459466D01*
X-44404761Y-18254819D02*
X-44404761Y-17254819D01*
X-43833333Y-18254819D02*
X-44261904Y-17683390D01*
X-43833333Y-17254819D02*
X-44404761Y-17826247D01*
X-43023809Y-18207200D02*
X-43119047Y-18254819D01*
X-43119047Y-18254819D02*
X-43309523Y-18254819D01*
X-43309523Y-18254819D02*
X-43404761Y-18207200D01*
X-43404761Y-18207200D02*
X-43452380Y-18111961D01*
X-43452380Y-18111961D02*
X-43452380Y-17731009D01*
X-43452380Y-17731009D02*
X-43404761Y-17635771D01*
X-43404761Y-17635771D02*
X-43309523Y-17588152D01*
X-43309523Y-17588152D02*
X-43119047Y-17588152D01*
X-43119047Y-17588152D02*
X-43023809Y-17635771D01*
X-43023809Y-17635771D02*
X-42976190Y-17731009D01*
X-42976190Y-17731009D02*
X-42976190Y-17826247D01*
X-42976190Y-17826247D02*
X-43452380Y-17921485D01*
X-42642856Y-17588152D02*
X-42404761Y-18254819D01*
X-42166666Y-17588152D02*
X-42404761Y-18254819D01*
X-42404761Y-18254819D02*
X-42499999Y-18492914D01*
X-42499999Y-18492914D02*
X-42547618Y-18540533D01*
X-42547618Y-18540533D02*
X-42642856Y-18588152D01*
X-41833332Y-18207200D02*
X-41738094Y-18254819D01*
X-41738094Y-18254819D02*
X-41547618Y-18254819D01*
X-41547618Y-18254819D02*
X-41452380Y-18207200D01*
X-41452380Y-18207200D02*
X-41404761Y-18111961D01*
X-41404761Y-18111961D02*
X-41404761Y-18064342D01*
X-41404761Y-18064342D02*
X-41452380Y-17969104D01*
X-41452380Y-17969104D02*
X-41547618Y-17921485D01*
X-41547618Y-17921485D02*
X-41690475Y-17921485D01*
X-41690475Y-17921485D02*
X-41785713Y-17873866D01*
X-41785713Y-17873866D02*
X-41833332Y-17778628D01*
X-41833332Y-17778628D02*
X-41833332Y-17731009D01*
X-41833332Y-17731009D02*
X-41785713Y-17635771D01*
X-41785713Y-17635771D02*
X-41690475Y-17588152D01*
X-41690475Y-17588152D02*
X-41547618Y-17588152D01*
X-41547618Y-17588152D02*
X-41452380Y-17635771D01*
X-41071427Y-17588152D02*
X-40880951Y-18254819D01*
X-40880951Y-18254819D02*
X-40690475Y-17778628D01*
X-40690475Y-17778628D02*
X-40499999Y-18254819D01*
X-40499999Y-18254819D02*
X-40309523Y-17588152D01*
X-39928570Y-18254819D02*
X-39928570Y-17588152D01*
X-39928570Y-17254819D02*
X-39976189Y-17302438D01*
X-39976189Y-17302438D02*
X-39928570Y-17350057D01*
X-39928570Y-17350057D02*
X-39880951Y-17302438D01*
X-39880951Y-17302438D02*
X-39928570Y-17254819D01*
X-39928570Y-17254819D02*
X-39928570Y-17350057D01*
X-39595237Y-17588152D02*
X-39214285Y-17588152D01*
X-39452380Y-17254819D02*
X-39452380Y-18111961D01*
X-39452380Y-18111961D02*
X-39404761Y-18207200D01*
X-39404761Y-18207200D02*
X-39309523Y-18254819D01*
X-39309523Y-18254819D02*
X-39214285Y-18254819D01*
X-38452380Y-18207200D02*
X-38547618Y-18254819D01*
X-38547618Y-18254819D02*
X-38738094Y-18254819D01*
X-38738094Y-18254819D02*
X-38833332Y-18207200D01*
X-38833332Y-18207200D02*
X-38880951Y-18159580D01*
X-38880951Y-18159580D02*
X-38928570Y-18064342D01*
X-38928570Y-18064342D02*
X-38928570Y-17778628D01*
X-38928570Y-17778628D02*
X-38880951Y-17683390D01*
X-38880951Y-17683390D02*
X-38833332Y-17635771D01*
X-38833332Y-17635771D02*
X-38738094Y-17588152D01*
X-38738094Y-17588152D02*
X-38547618Y-17588152D01*
X-38547618Y-17588152D02*
X-38452380Y-17635771D01*
X-38023808Y-18254819D02*
X-38023808Y-17254819D01*
X-37595237Y-18254819D02*
X-37595237Y-17731009D01*
X-37595237Y-17731009D02*
X-37642856Y-17635771D01*
X-37642856Y-17635771D02*
X-37738094Y-17588152D01*
X-37738094Y-17588152D02*
X-37880951Y-17588152D01*
X-37880951Y-17588152D02*
X-37976189Y-17635771D01*
X-37976189Y-17635771D02*
X-38023808Y-17683390D01*
X-42238094Y-9207200D02*
X-42095237Y-9254819D01*
X-42095237Y-9254819D02*
X-41857142Y-9254819D01*
X-41857142Y-9254819D02*
X-41761904Y-9207200D01*
X-41761904Y-9207200D02*
X-41714285Y-9159580D01*
X-41714285Y-9159580D02*
X-41666666Y-9064342D01*
X-41666666Y-9064342D02*
X-41666666Y-8969104D01*
X-41666666Y-8969104D02*
X-41714285Y-8873866D01*
X-41714285Y-8873866D02*
X-41761904Y-8826247D01*
X-41761904Y-8826247D02*
X-41857142Y-8778628D01*
X-41857142Y-8778628D02*
X-42047618Y-8731009D01*
X-42047618Y-8731009D02*
X-42142856Y-8683390D01*
X-42142856Y-8683390D02*
X-42190475Y-8635771D01*
X-42190475Y-8635771D02*
X-42238094Y-8540533D01*
X-42238094Y-8540533D02*
X-42238094Y-8445295D01*
X-42238094Y-8445295D02*
X-42190475Y-8350057D01*
X-42190475Y-8350057D02*
X-42142856Y-8302438D01*
X-42142856Y-8302438D02*
X-42047618Y-8254819D01*
X-42047618Y-8254819D02*
X-41809523Y-8254819D01*
X-41809523Y-8254819D02*
X-41666666Y-8302438D01*
X-40714285Y-9254819D02*
X-41285713Y-9254819D01*
X-40999999Y-9254819D02*
X-40999999Y-8254819D01*
X-40999999Y-8254819D02*
X-41095237Y-8397676D01*
X-41095237Y-8397676D02*
X-41190475Y-8492914D01*
X-41190475Y-8492914D02*
X-41285713Y-8540533D01*
X-39809523Y-8254819D02*
X-40285713Y-8254819D01*
X-40285713Y-8254819D02*
X-40333332Y-8731009D01*
X-40333332Y-8731009D02*
X-40285713Y-8683390D01*
X-40285713Y-8683390D02*
X-40190475Y-8635771D01*
X-40190475Y-8635771D02*
X-39952380Y-8635771D01*
X-39952380Y-8635771D02*
X-39857142Y-8683390D01*
X-39857142Y-8683390D02*
X-39809523Y-8731009D01*
X-39809523Y-8731009D02*
X-39761904Y-8826247D01*
X-39761904Y-8826247D02*
X-39761904Y-9064342D01*
X-39761904Y-9064342D02*
X-39809523Y-9159580D01*
X-39809523Y-9159580D02*
X-39857142Y-9207200D01*
X-39857142Y-9207200D02*
X-39952380Y-9254819D01*
X-39952380Y-9254819D02*
X-40190475Y-9254819D01*
X-40190475Y-9254819D02*
X-40285713Y-9207200D01*
X-40285713Y-9207200D02*
X-40333332Y-9159580D01*
X94595238Y-254819D02*
X94595238Y745180D01*
X95166666Y-254819D02*
X94738095Y316609D01*
X95166666Y745180D02*
X94595238Y173752D01*
X95976190Y-207200D02*
X95880952Y-254819D01*
X95880952Y-254819D02*
X95690476Y-254819D01*
X95690476Y-254819D02*
X95595238Y-207200D01*
X95595238Y-207200D02*
X95547619Y-111961D01*
X95547619Y-111961D02*
X95547619Y268990D01*
X95547619Y268990D02*
X95595238Y364228D01*
X95595238Y364228D02*
X95690476Y411847D01*
X95690476Y411847D02*
X95880952Y411847D01*
X95880952Y411847D02*
X95976190Y364228D01*
X95976190Y364228D02*
X96023809Y268990D01*
X96023809Y268990D02*
X96023809Y173752D01*
X96023809Y173752D02*
X95547619Y78514D01*
X96357143Y411847D02*
X96595238Y-254819D01*
X96833333Y411847D02*
X96595238Y-254819D01*
X96595238Y-254819D02*
X96500000Y-492914D01*
X96500000Y-492914D02*
X96452381Y-540533D01*
X96452381Y-540533D02*
X96357143Y-588152D01*
X97166667Y-207200D02*
X97261905Y-254819D01*
X97261905Y-254819D02*
X97452381Y-254819D01*
X97452381Y-254819D02*
X97547619Y-207200D01*
X97547619Y-207200D02*
X97595238Y-111961D01*
X97595238Y-111961D02*
X97595238Y-64342D01*
X97595238Y-64342D02*
X97547619Y30895D01*
X97547619Y30895D02*
X97452381Y78514D01*
X97452381Y78514D02*
X97309524Y78514D01*
X97309524Y78514D02*
X97214286Y126133D01*
X97214286Y126133D02*
X97166667Y221371D01*
X97166667Y221371D02*
X97166667Y268990D01*
X97166667Y268990D02*
X97214286Y364228D01*
X97214286Y364228D02*
X97309524Y411847D01*
X97309524Y411847D02*
X97452381Y411847D01*
X97452381Y411847D02*
X97547619Y364228D01*
X97928572Y411847D02*
X98119048Y-254819D01*
X98119048Y-254819D02*
X98309524Y221371D01*
X98309524Y221371D02*
X98500000Y-254819D01*
X98500000Y-254819D02*
X98690476Y411847D01*
X99071429Y-254819D02*
X99071429Y411847D01*
X99071429Y745180D02*
X99023810Y697561D01*
X99023810Y697561D02*
X99071429Y649942D01*
X99071429Y649942D02*
X99119048Y697561D01*
X99119048Y697561D02*
X99071429Y745180D01*
X99071429Y745180D02*
X99071429Y649942D01*
X99404762Y411847D02*
X99785714Y411847D01*
X99547619Y745180D02*
X99547619Y-111961D01*
X99547619Y-111961D02*
X99595238Y-207200D01*
X99595238Y-207200D02*
X99690476Y-254819D01*
X99690476Y-254819D02*
X99785714Y-254819D01*
X100547619Y-207200D02*
X100452381Y-254819D01*
X100452381Y-254819D02*
X100261905Y-254819D01*
X100261905Y-254819D02*
X100166667Y-207200D01*
X100166667Y-207200D02*
X100119048Y-159580D01*
X100119048Y-159580D02*
X100071429Y-64342D01*
X100071429Y-64342D02*
X100071429Y221371D01*
X100071429Y221371D02*
X100119048Y316609D01*
X100119048Y316609D02*
X100166667Y364228D01*
X100166667Y364228D02*
X100261905Y411847D01*
X100261905Y411847D02*
X100452381Y411847D01*
X100452381Y411847D02*
X100547619Y364228D01*
X100976191Y-254819D02*
X100976191Y745180D01*
X101404762Y-254819D02*
X101404762Y268990D01*
X101404762Y268990D02*
X101357143Y364228D01*
X101357143Y364228D02*
X101261905Y411847D01*
X101261905Y411847D02*
X101119048Y411847D01*
X101119048Y411847D02*
X101023810Y364228D01*
X101023810Y364228D02*
X100976191Y316609D01*
X96761905Y8792800D02*
X96904762Y8745180D01*
X96904762Y8745180D02*
X97142857Y8745180D01*
X97142857Y8745180D02*
X97238095Y8792800D01*
X97238095Y8792800D02*
X97285714Y8840419D01*
X97285714Y8840419D02*
X97333333Y8935657D01*
X97333333Y8935657D02*
X97333333Y9030895D01*
X97333333Y9030895D02*
X97285714Y9126133D01*
X97285714Y9126133D02*
X97238095Y9173752D01*
X97238095Y9173752D02*
X97142857Y9221371D01*
X97142857Y9221371D02*
X96952381Y9268990D01*
X96952381Y9268990D02*
X96857143Y9316609D01*
X96857143Y9316609D02*
X96809524Y9364228D01*
X96809524Y9364228D02*
X96761905Y9459466D01*
X96761905Y9459466D02*
X96761905Y9554704D01*
X96761905Y9554704D02*
X96809524Y9649942D01*
X96809524Y9649942D02*
X96857143Y9697561D01*
X96857143Y9697561D02*
X96952381Y9745180D01*
X96952381Y9745180D02*
X97190476Y9745180D01*
X97190476Y9745180D02*
X97333333Y9697561D01*
X98285714Y8745180D02*
X97714286Y8745180D01*
X98000000Y8745180D02*
X98000000Y9745180D01*
X98000000Y9745180D02*
X97904762Y9602323D01*
X97904762Y9602323D02*
X97809524Y9507085D01*
X97809524Y9507085D02*
X97714286Y9459466D01*
X98904762Y9745180D02*
X99000000Y9745180D01*
X99000000Y9745180D02*
X99095238Y9697561D01*
X99095238Y9697561D02*
X99142857Y9649942D01*
X99142857Y9649942D02*
X99190476Y9554704D01*
X99190476Y9554704D02*
X99238095Y9364228D01*
X99238095Y9364228D02*
X99238095Y9126133D01*
X99238095Y9126133D02*
X99190476Y8935657D01*
X99190476Y8935657D02*
X99142857Y8840419D01*
X99142857Y8840419D02*
X99095238Y8792800D01*
X99095238Y8792800D02*
X99000000Y8745180D01*
X99000000Y8745180D02*
X98904762Y8745180D01*
X98904762Y8745180D02*
X98809524Y8792800D01*
X98809524Y8792800D02*
X98761905Y8840419D01*
X98761905Y8840419D02*
X98714286Y8935657D01*
X98714286Y8935657D02*
X98666667Y9126133D01*
X98666667Y9126133D02*
X98666667Y9364228D01*
X98666667Y9364228D02*
X98714286Y9554704D01*
X98714286Y9554704D02*
X98761905Y9649942D01*
X98761905Y9649942D02*
X98809524Y9697561D01*
X98809524Y9697561D02*
X98904762Y9745180D01*
X112095238Y-18254819D02*
X112095238Y-17254819D01*
X112666666Y-18254819D02*
X112238095Y-17683390D01*
X112666666Y-17254819D02*
X112095238Y-17826247D01*
X113476190Y-18207200D02*
X113380952Y-18254819D01*
X113380952Y-18254819D02*
X113190476Y-18254819D01*
X113190476Y-18254819D02*
X113095238Y-18207200D01*
X113095238Y-18207200D02*
X113047619Y-18111961D01*
X113047619Y-18111961D02*
X113047619Y-17731009D01*
X113047619Y-17731009D02*
X113095238Y-17635771D01*
X113095238Y-17635771D02*
X113190476Y-17588152D01*
X113190476Y-17588152D02*
X113380952Y-17588152D01*
X113380952Y-17588152D02*
X113476190Y-17635771D01*
X113476190Y-17635771D02*
X113523809Y-17731009D01*
X113523809Y-17731009D02*
X113523809Y-17826247D01*
X113523809Y-17826247D02*
X113047619Y-17921485D01*
X113857143Y-17588152D02*
X114095238Y-18254819D01*
X114333333Y-17588152D02*
X114095238Y-18254819D01*
X114095238Y-18254819D02*
X114000000Y-18492914D01*
X114000000Y-18492914D02*
X113952381Y-18540533D01*
X113952381Y-18540533D02*
X113857143Y-18588152D01*
X114666667Y-18207200D02*
X114761905Y-18254819D01*
X114761905Y-18254819D02*
X114952381Y-18254819D01*
X114952381Y-18254819D02*
X115047619Y-18207200D01*
X115047619Y-18207200D02*
X115095238Y-18111961D01*
X115095238Y-18111961D02*
X115095238Y-18064342D01*
X115095238Y-18064342D02*
X115047619Y-17969104D01*
X115047619Y-17969104D02*
X114952381Y-17921485D01*
X114952381Y-17921485D02*
X114809524Y-17921485D01*
X114809524Y-17921485D02*
X114714286Y-17873866D01*
X114714286Y-17873866D02*
X114666667Y-17778628D01*
X114666667Y-17778628D02*
X114666667Y-17731009D01*
X114666667Y-17731009D02*
X114714286Y-17635771D01*
X114714286Y-17635771D02*
X114809524Y-17588152D01*
X114809524Y-17588152D02*
X114952381Y-17588152D01*
X114952381Y-17588152D02*
X115047619Y-17635771D01*
X115428572Y-17588152D02*
X115619048Y-18254819D01*
X115619048Y-18254819D02*
X115809524Y-17778628D01*
X115809524Y-17778628D02*
X116000000Y-18254819D01*
X116000000Y-18254819D02*
X116190476Y-17588152D01*
X116571429Y-18254819D02*
X116571429Y-17588152D01*
X116571429Y-17254819D02*
X116523810Y-17302438D01*
X116523810Y-17302438D02*
X116571429Y-17350057D01*
X116571429Y-17350057D02*
X116619048Y-17302438D01*
X116619048Y-17302438D02*
X116571429Y-17254819D01*
X116571429Y-17254819D02*
X116571429Y-17350057D01*
X116904762Y-17588152D02*
X117285714Y-17588152D01*
X117047619Y-17254819D02*
X117047619Y-18111961D01*
X117047619Y-18111961D02*
X117095238Y-18207200D01*
X117095238Y-18207200D02*
X117190476Y-18254819D01*
X117190476Y-18254819D02*
X117285714Y-18254819D01*
X118047619Y-18207200D02*
X117952381Y-18254819D01*
X117952381Y-18254819D02*
X117761905Y-18254819D01*
X117761905Y-18254819D02*
X117666667Y-18207200D01*
X117666667Y-18207200D02*
X117619048Y-18159580D01*
X117619048Y-18159580D02*
X117571429Y-18064342D01*
X117571429Y-18064342D02*
X117571429Y-17778628D01*
X117571429Y-17778628D02*
X117619048Y-17683390D01*
X117619048Y-17683390D02*
X117666667Y-17635771D01*
X117666667Y-17635771D02*
X117761905Y-17588152D01*
X117761905Y-17588152D02*
X117952381Y-17588152D01*
X117952381Y-17588152D02*
X118047619Y-17635771D01*
X118476191Y-18254819D02*
X118476191Y-17254819D01*
X118904762Y-18254819D02*
X118904762Y-17731009D01*
X118904762Y-17731009D02*
X118857143Y-17635771D01*
X118857143Y-17635771D02*
X118761905Y-17588152D01*
X118761905Y-17588152D02*
X118619048Y-17588152D01*
X118619048Y-17588152D02*
X118523810Y-17635771D01*
X118523810Y-17635771D02*
X118476191Y-17683390D01*
X114261905Y-9207200D02*
X114404762Y-9254819D01*
X114404762Y-9254819D02*
X114642857Y-9254819D01*
X114642857Y-9254819D02*
X114738095Y-9207200D01*
X114738095Y-9207200D02*
X114785714Y-9159580D01*
X114785714Y-9159580D02*
X114833333Y-9064342D01*
X114833333Y-9064342D02*
X114833333Y-8969104D01*
X114833333Y-8969104D02*
X114785714Y-8873866D01*
X114785714Y-8873866D02*
X114738095Y-8826247D01*
X114738095Y-8826247D02*
X114642857Y-8778628D01*
X114642857Y-8778628D02*
X114452381Y-8731009D01*
X114452381Y-8731009D02*
X114357143Y-8683390D01*
X114357143Y-8683390D02*
X114309524Y-8635771D01*
X114309524Y-8635771D02*
X114261905Y-8540533D01*
X114261905Y-8540533D02*
X114261905Y-8445295D01*
X114261905Y-8445295D02*
X114309524Y-8350057D01*
X114309524Y-8350057D02*
X114357143Y-8302438D01*
X114357143Y-8302438D02*
X114452381Y-8254819D01*
X114452381Y-8254819D02*
X114690476Y-8254819D01*
X114690476Y-8254819D02*
X114833333Y-8302438D01*
X115214286Y-8350057D02*
X115261905Y-8302438D01*
X115261905Y-8302438D02*
X115357143Y-8254819D01*
X115357143Y-8254819D02*
X115595238Y-8254819D01*
X115595238Y-8254819D02*
X115690476Y-8302438D01*
X115690476Y-8302438D02*
X115738095Y-8350057D01*
X115738095Y-8350057D02*
X115785714Y-8445295D01*
X115785714Y-8445295D02*
X115785714Y-8540533D01*
X115785714Y-8540533D02*
X115738095Y-8683390D01*
X115738095Y-8683390D02*
X115166667Y-9254819D01*
X115166667Y-9254819D02*
X115785714Y-9254819D01*
X116166667Y-8350057D02*
X116214286Y-8302438D01*
X116214286Y-8302438D02*
X116309524Y-8254819D01*
X116309524Y-8254819D02*
X116547619Y-8254819D01*
X116547619Y-8254819D02*
X116642857Y-8302438D01*
X116642857Y-8302438D02*
X116690476Y-8350057D01*
X116690476Y-8350057D02*
X116738095Y-8445295D01*
X116738095Y-8445295D02*
X116738095Y-8540533D01*
X116738095Y-8540533D02*
X116690476Y-8683390D01*
X116690476Y-8683390D02*
X116119048Y-9254819D01*
X116119048Y-9254819D02*
X116738095Y-9254819D01*
X18595238Y-254819D02*
X18595238Y745180D01*
X19166666Y-254819D02*
X18738095Y316609D01*
X19166666Y745180D02*
X18595238Y173752D01*
X19976190Y-207200D02*
X19880952Y-254819D01*
X19880952Y-254819D02*
X19690476Y-254819D01*
X19690476Y-254819D02*
X19595238Y-207200D01*
X19595238Y-207200D02*
X19547619Y-111961D01*
X19547619Y-111961D02*
X19547619Y268990D01*
X19547619Y268990D02*
X19595238Y364228D01*
X19595238Y364228D02*
X19690476Y411847D01*
X19690476Y411847D02*
X19880952Y411847D01*
X19880952Y411847D02*
X19976190Y364228D01*
X19976190Y364228D02*
X20023809Y268990D01*
X20023809Y268990D02*
X20023809Y173752D01*
X20023809Y173752D02*
X19547619Y78514D01*
X20357143Y411847D02*
X20595238Y-254819D01*
X20833333Y411847D02*
X20595238Y-254819D01*
X20595238Y-254819D02*
X20500000Y-492914D01*
X20500000Y-492914D02*
X20452381Y-540533D01*
X20452381Y-540533D02*
X20357143Y-588152D01*
X21166667Y-207200D02*
X21261905Y-254819D01*
X21261905Y-254819D02*
X21452381Y-254819D01*
X21452381Y-254819D02*
X21547619Y-207200D01*
X21547619Y-207200D02*
X21595238Y-111961D01*
X21595238Y-111961D02*
X21595238Y-64342D01*
X21595238Y-64342D02*
X21547619Y30895D01*
X21547619Y30895D02*
X21452381Y78514D01*
X21452381Y78514D02*
X21309524Y78514D01*
X21309524Y78514D02*
X21214286Y126133D01*
X21214286Y126133D02*
X21166667Y221371D01*
X21166667Y221371D02*
X21166667Y268990D01*
X21166667Y268990D02*
X21214286Y364228D01*
X21214286Y364228D02*
X21309524Y411847D01*
X21309524Y411847D02*
X21452381Y411847D01*
X21452381Y411847D02*
X21547619Y364228D01*
X21928572Y411847D02*
X22119048Y-254819D01*
X22119048Y-254819D02*
X22309524Y221371D01*
X22309524Y221371D02*
X22500000Y-254819D01*
X22500000Y-254819D02*
X22690476Y411847D01*
X23071429Y-254819D02*
X23071429Y411847D01*
X23071429Y745180D02*
X23023810Y697561D01*
X23023810Y697561D02*
X23071429Y649942D01*
X23071429Y649942D02*
X23119048Y697561D01*
X23119048Y697561D02*
X23071429Y745180D01*
X23071429Y745180D02*
X23071429Y649942D01*
X23404762Y411847D02*
X23785714Y411847D01*
X23547619Y745180D02*
X23547619Y-111961D01*
X23547619Y-111961D02*
X23595238Y-207200D01*
X23595238Y-207200D02*
X23690476Y-254819D01*
X23690476Y-254819D02*
X23785714Y-254819D01*
X24547619Y-207200D02*
X24452381Y-254819D01*
X24452381Y-254819D02*
X24261905Y-254819D01*
X24261905Y-254819D02*
X24166667Y-207200D01*
X24166667Y-207200D02*
X24119048Y-159580D01*
X24119048Y-159580D02*
X24071429Y-64342D01*
X24071429Y-64342D02*
X24071429Y221371D01*
X24071429Y221371D02*
X24119048Y316609D01*
X24119048Y316609D02*
X24166667Y364228D01*
X24166667Y364228D02*
X24261905Y411847D01*
X24261905Y411847D02*
X24452381Y411847D01*
X24452381Y411847D02*
X24547619Y364228D01*
X24976191Y-254819D02*
X24976191Y745180D01*
X25404762Y-254819D02*
X25404762Y268990D01*
X25404762Y268990D02*
X25357143Y364228D01*
X25357143Y364228D02*
X25261905Y411847D01*
X25261905Y411847D02*
X25119048Y411847D01*
X25119048Y411847D02*
X25023810Y364228D01*
X25023810Y364228D02*
X24976191Y316609D01*
X21238095Y8792800D02*
X21380952Y8745180D01*
X21380952Y8745180D02*
X21619047Y8745180D01*
X21619047Y8745180D02*
X21714285Y8792800D01*
X21714285Y8792800D02*
X21761904Y8840419D01*
X21761904Y8840419D02*
X21809523Y8935657D01*
X21809523Y8935657D02*
X21809523Y9030895D01*
X21809523Y9030895D02*
X21761904Y9126133D01*
X21761904Y9126133D02*
X21714285Y9173752D01*
X21714285Y9173752D02*
X21619047Y9221371D01*
X21619047Y9221371D02*
X21428571Y9268990D01*
X21428571Y9268990D02*
X21333333Y9316609D01*
X21333333Y9316609D02*
X21285714Y9364228D01*
X21285714Y9364228D02*
X21238095Y9459466D01*
X21238095Y9459466D02*
X21238095Y9554704D01*
X21238095Y9554704D02*
X21285714Y9649942D01*
X21285714Y9649942D02*
X21333333Y9697561D01*
X21333333Y9697561D02*
X21428571Y9745180D01*
X21428571Y9745180D02*
X21666666Y9745180D01*
X21666666Y9745180D02*
X21809523Y9697561D01*
X22666666Y9745180D02*
X22476190Y9745180D01*
X22476190Y9745180D02*
X22380952Y9697561D01*
X22380952Y9697561D02*
X22333333Y9649942D01*
X22333333Y9649942D02*
X22238095Y9507085D01*
X22238095Y9507085D02*
X22190476Y9316609D01*
X22190476Y9316609D02*
X22190476Y8935657D01*
X22190476Y8935657D02*
X22238095Y8840419D01*
X22238095Y8840419D02*
X22285714Y8792800D01*
X22285714Y8792800D02*
X22380952Y8745180D01*
X22380952Y8745180D02*
X22571428Y8745180D01*
X22571428Y8745180D02*
X22666666Y8792800D01*
X22666666Y8792800D02*
X22714285Y8840419D01*
X22714285Y8840419D02*
X22761904Y8935657D01*
X22761904Y8935657D02*
X22761904Y9173752D01*
X22761904Y9173752D02*
X22714285Y9268990D01*
X22714285Y9268990D02*
X22666666Y9316609D01*
X22666666Y9316609D02*
X22571428Y9364228D01*
X22571428Y9364228D02*
X22380952Y9364228D01*
X22380952Y9364228D02*
X22285714Y9316609D01*
X22285714Y9316609D02*
X22238095Y9268990D01*
X22238095Y9268990D02*
X22190476Y9173752D01*
X-42883784Y-50871036D02*
X-43040218Y-49883348D01*
X-42319390Y-50781645D02*
X-42832076Y-50284295D01*
X-42475825Y-49793957D02*
X-42950827Y-50447741D01*
X-41527282Y-50607975D02*
X-41613899Y-50669906D01*
X-41613899Y-50669906D02*
X-41802030Y-50699703D01*
X-41802030Y-50699703D02*
X-41903545Y-50667569D01*
X-41903545Y-50667569D02*
X-41965476Y-50580953D01*
X-41965476Y-50580953D02*
X-42025070Y-50204690D01*
X-42025070Y-50204690D02*
X-41992936Y-50103175D01*
X-41992936Y-50103175D02*
X-41906319Y-50041244D01*
X-41906319Y-50041244D02*
X-41718188Y-50011447D01*
X-41718188Y-50011447D02*
X-41616673Y-50043581D01*
X-41616673Y-50043581D02*
X-41554742Y-50130198D01*
X-41554742Y-50130198D02*
X-41539844Y-50224263D01*
X-41539844Y-50224263D02*
X-41995273Y-50392821D01*
X-41247860Y-49936955D02*
X-40908407Y-50558167D01*
X-40777533Y-49862462D02*
X-40908407Y-50558167D01*
X-40908407Y-50558167D02*
X-40965226Y-50808230D01*
X-40965226Y-50808230D02*
X-41004810Y-50862712D01*
X-41004810Y-50862712D02*
X-41091426Y-50924643D01*
X-40351462Y-50421743D02*
X-40249948Y-50453877D01*
X-40249948Y-50453877D02*
X-40061817Y-50424080D01*
X-40061817Y-50424080D02*
X-39975200Y-50362149D01*
X-39975200Y-50362149D02*
X-39943066Y-50260634D01*
X-39943066Y-50260634D02*
X-39950515Y-50213601D01*
X-39950515Y-50213601D02*
X-40012447Y-50126985D01*
X-40012447Y-50126985D02*
X-40113961Y-50094851D01*
X-40113961Y-50094851D02*
X-40255060Y-50117199D01*
X-40255060Y-50117199D02*
X-40356575Y-50085064D01*
X-40356575Y-50085064D02*
X-40418506Y-49998448D01*
X-40418506Y-49998448D02*
X-40425955Y-49951415D01*
X-40425955Y-49951415D02*
X-40393821Y-49849901D01*
X-40393821Y-49849901D02*
X-40307205Y-49787969D01*
X-40307205Y-49787969D02*
X-40166106Y-49765621D01*
X-40166106Y-49765621D02*
X-40064591Y-49797756D01*
X-39695778Y-49691129D02*
X-39403357Y-50319791D01*
X-39403357Y-50319791D02*
X-39289719Y-49819666D01*
X-39289719Y-49819666D02*
X-39027095Y-50260197D01*
X-39027095Y-50260197D02*
X-38943254Y-49571941D01*
X-38462702Y-50170806D02*
X-38566992Y-49512347D01*
X-38619136Y-49183117D02*
X-38658720Y-49237599D01*
X-38658720Y-49237599D02*
X-38604238Y-49277183D01*
X-38604238Y-49277183D02*
X-38564654Y-49222701D01*
X-38564654Y-49222701D02*
X-38619136Y-49183117D01*
X-38619136Y-49183117D02*
X-38604238Y-49277183D01*
X-38237763Y-49460202D02*
X-37861500Y-49400608D01*
X-38148809Y-49108625D02*
X-38014722Y-49955215D01*
X-38014722Y-49955215D02*
X-37952791Y-50041831D01*
X-37952791Y-50041831D02*
X-37851276Y-50073965D01*
X-37851276Y-50073965D02*
X-37757211Y-50059067D01*
X-37012135Y-49892846D02*
X-37098751Y-49954777D01*
X-37098751Y-49954777D02*
X-37286883Y-49984574D01*
X-37286883Y-49984574D02*
X-37388397Y-49952440D01*
X-37388397Y-49952440D02*
X-37442879Y-49912856D01*
X-37442879Y-49912856D02*
X-37504811Y-49826240D01*
X-37504811Y-49826240D02*
X-37549506Y-49544043D01*
X-37549506Y-49544043D02*
X-37517372Y-49442528D01*
X-37517372Y-49442528D02*
X-37477788Y-49388046D01*
X-37477788Y-49388046D02*
X-37391172Y-49326115D01*
X-37391172Y-49326115D02*
X-37203041Y-49296318D01*
X-37203041Y-49296318D02*
X-37101526Y-49328452D01*
X-36581391Y-49872835D02*
X-36737825Y-48885147D01*
X-36158096Y-49805792D02*
X-36240038Y-49288431D01*
X-36240038Y-49288431D02*
X-36301969Y-49201815D01*
X-36301969Y-49201815D02*
X-36403484Y-49169681D01*
X-36403484Y-49169681D02*
X-36544582Y-49192028D01*
X-36544582Y-49192028D02*
X-36631198Y-49253960D01*
X-36631198Y-49253960D02*
X-36670782Y-49308442D01*
X-42159151Y-41595867D02*
X-42010604Y-41620552D01*
X-42010604Y-41620552D02*
X-41775440Y-41583306D01*
X-41775440Y-41583306D02*
X-41688823Y-41521374D01*
X-41688823Y-41521374D02*
X-41649240Y-41466892D01*
X-41649240Y-41466892D02*
X-41617106Y-41365377D01*
X-41617106Y-41365377D02*
X-41632004Y-41271312D01*
X-41632004Y-41271312D02*
X-41693935Y-41184696D01*
X-41693935Y-41184696D02*
X-41748417Y-41145112D01*
X-41748417Y-41145112D02*
X-41849932Y-41112978D01*
X-41849932Y-41112978D02*
X-42045513Y-41095742D01*
X-42045513Y-41095742D02*
X-42147028Y-41063608D01*
X-42147028Y-41063608D02*
X-42201510Y-41024024D01*
X-42201510Y-41024024D02*
X-42263441Y-40937408D01*
X-42263441Y-40937408D02*
X-42278339Y-40843342D01*
X-42278339Y-40843342D02*
X-42246205Y-40741828D01*
X-42246205Y-40741828D02*
X-42206622Y-40687346D01*
X-42206622Y-40687346D02*
X-42120005Y-40625414D01*
X-42120005Y-40625414D02*
X-41884841Y-40588168D01*
X-41884841Y-40588168D02*
X-41736294Y-40612853D01*
X-41352582Y-40600292D02*
X-41312999Y-40545810D01*
X-41312999Y-40545810D02*
X-41226382Y-40483878D01*
X-41226382Y-40483878D02*
X-40991219Y-40446632D01*
X-40991219Y-40446632D02*
X-40889704Y-40478766D01*
X-40889704Y-40478766D02*
X-40835222Y-40518350D01*
X-40835222Y-40518350D02*
X-40773290Y-40604966D01*
X-40773290Y-40604966D02*
X-40758392Y-40699032D01*
X-40758392Y-40699032D02*
X-40783077Y-40847579D01*
X-40783077Y-40847579D02*
X-41258079Y-41501364D01*
X-41258079Y-41501364D02*
X-40646653Y-41404523D01*
X-39904353Y-40611978D02*
X-39800063Y-41270437D01*
X-40199111Y-40272962D02*
X-40322536Y-41015700D01*
X-40322536Y-41015700D02*
X-39711109Y-40918859D01*
X18595238Y-18254819D02*
X18595238Y-17254819D01*
X19166666Y-18254819D02*
X18738095Y-17683390D01*
X19166666Y-17254819D02*
X18595238Y-17826247D01*
X19976190Y-18207200D02*
X19880952Y-18254819D01*
X19880952Y-18254819D02*
X19690476Y-18254819D01*
X19690476Y-18254819D02*
X19595238Y-18207200D01*
X19595238Y-18207200D02*
X19547619Y-18111961D01*
X19547619Y-18111961D02*
X19547619Y-17731009D01*
X19547619Y-17731009D02*
X19595238Y-17635771D01*
X19595238Y-17635771D02*
X19690476Y-17588152D01*
X19690476Y-17588152D02*
X19880952Y-17588152D01*
X19880952Y-17588152D02*
X19976190Y-17635771D01*
X19976190Y-17635771D02*
X20023809Y-17731009D01*
X20023809Y-17731009D02*
X20023809Y-17826247D01*
X20023809Y-17826247D02*
X19547619Y-17921485D01*
X20357143Y-17588152D02*
X20595238Y-18254819D01*
X20833333Y-17588152D02*
X20595238Y-18254819D01*
X20595238Y-18254819D02*
X20500000Y-18492914D01*
X20500000Y-18492914D02*
X20452381Y-18540533D01*
X20452381Y-18540533D02*
X20357143Y-18588152D01*
X21166667Y-18207200D02*
X21261905Y-18254819D01*
X21261905Y-18254819D02*
X21452381Y-18254819D01*
X21452381Y-18254819D02*
X21547619Y-18207200D01*
X21547619Y-18207200D02*
X21595238Y-18111961D01*
X21595238Y-18111961D02*
X21595238Y-18064342D01*
X21595238Y-18064342D02*
X21547619Y-17969104D01*
X21547619Y-17969104D02*
X21452381Y-17921485D01*
X21452381Y-17921485D02*
X21309524Y-17921485D01*
X21309524Y-17921485D02*
X21214286Y-17873866D01*
X21214286Y-17873866D02*
X21166667Y-17778628D01*
X21166667Y-17778628D02*
X21166667Y-17731009D01*
X21166667Y-17731009D02*
X21214286Y-17635771D01*
X21214286Y-17635771D02*
X21309524Y-17588152D01*
X21309524Y-17588152D02*
X21452381Y-17588152D01*
X21452381Y-17588152D02*
X21547619Y-17635771D01*
X21928572Y-17588152D02*
X22119048Y-18254819D01*
X22119048Y-18254819D02*
X22309524Y-17778628D01*
X22309524Y-17778628D02*
X22500000Y-18254819D01*
X22500000Y-18254819D02*
X22690476Y-17588152D01*
X23071429Y-18254819D02*
X23071429Y-17588152D01*
X23071429Y-17254819D02*
X23023810Y-17302438D01*
X23023810Y-17302438D02*
X23071429Y-17350057D01*
X23071429Y-17350057D02*
X23119048Y-17302438D01*
X23119048Y-17302438D02*
X23071429Y-17254819D01*
X23071429Y-17254819D02*
X23071429Y-17350057D01*
X23404762Y-17588152D02*
X23785714Y-17588152D01*
X23547619Y-17254819D02*
X23547619Y-18111961D01*
X23547619Y-18111961D02*
X23595238Y-18207200D01*
X23595238Y-18207200D02*
X23690476Y-18254819D01*
X23690476Y-18254819D02*
X23785714Y-18254819D01*
X24547619Y-18207200D02*
X24452381Y-18254819D01*
X24452381Y-18254819D02*
X24261905Y-18254819D01*
X24261905Y-18254819D02*
X24166667Y-18207200D01*
X24166667Y-18207200D02*
X24119048Y-18159580D01*
X24119048Y-18159580D02*
X24071429Y-18064342D01*
X24071429Y-18064342D02*
X24071429Y-17778628D01*
X24071429Y-17778628D02*
X24119048Y-17683390D01*
X24119048Y-17683390D02*
X24166667Y-17635771D01*
X24166667Y-17635771D02*
X24261905Y-17588152D01*
X24261905Y-17588152D02*
X24452381Y-17588152D01*
X24452381Y-17588152D02*
X24547619Y-17635771D01*
X24976191Y-18254819D02*
X24976191Y-17254819D01*
X25404762Y-18254819D02*
X25404762Y-17731009D01*
X25404762Y-17731009D02*
X25357143Y-17635771D01*
X25357143Y-17635771D02*
X25261905Y-17588152D01*
X25261905Y-17588152D02*
X25119048Y-17588152D01*
X25119048Y-17588152D02*
X25023810Y-17635771D01*
X25023810Y-17635771D02*
X24976191Y-17683390D01*
X20761905Y-9207200D02*
X20904762Y-9254819D01*
X20904762Y-9254819D02*
X21142857Y-9254819D01*
X21142857Y-9254819D02*
X21238095Y-9207200D01*
X21238095Y-9207200D02*
X21285714Y-9159580D01*
X21285714Y-9159580D02*
X21333333Y-9064342D01*
X21333333Y-9064342D02*
X21333333Y-8969104D01*
X21333333Y-8969104D02*
X21285714Y-8873866D01*
X21285714Y-8873866D02*
X21238095Y-8826247D01*
X21238095Y-8826247D02*
X21142857Y-8778628D01*
X21142857Y-8778628D02*
X20952381Y-8731009D01*
X20952381Y-8731009D02*
X20857143Y-8683390D01*
X20857143Y-8683390D02*
X20809524Y-8635771D01*
X20809524Y-8635771D02*
X20761905Y-8540533D01*
X20761905Y-8540533D02*
X20761905Y-8445295D01*
X20761905Y-8445295D02*
X20809524Y-8350057D01*
X20809524Y-8350057D02*
X20857143Y-8302438D01*
X20857143Y-8302438D02*
X20952381Y-8254819D01*
X20952381Y-8254819D02*
X21190476Y-8254819D01*
X21190476Y-8254819D02*
X21333333Y-8302438D01*
X22285714Y-9254819D02*
X21714286Y-9254819D01*
X22000000Y-9254819D02*
X22000000Y-8254819D01*
X22000000Y-8254819D02*
X21904762Y-8397676D01*
X21904762Y-8397676D02*
X21809524Y-8492914D01*
X21809524Y-8492914D02*
X21714286Y-8540533D01*
X22619048Y-8254819D02*
X23285714Y-8254819D01*
X23285714Y-8254819D02*
X22857143Y-9254819D01*
X17158097Y-63805792D02*
X17314531Y-62818104D01*
X17722490Y-63895183D02*
X17388586Y-63263746D01*
X17878924Y-62907495D02*
X17225140Y-63382497D01*
X18529496Y-63974788D02*
X18427982Y-64006922D01*
X18427982Y-64006922D02*
X18239851Y-63977125D01*
X18239851Y-63977125D02*
X18153234Y-63915194D01*
X18153234Y-63915194D02*
X18121100Y-63813679D01*
X18121100Y-63813679D02*
X18180694Y-63437417D01*
X18180694Y-63437417D02*
X18242625Y-63350800D01*
X18242625Y-63350800D02*
X18344140Y-63318666D01*
X18344140Y-63318666D02*
X18532271Y-63348463D01*
X18532271Y-63348463D02*
X18618888Y-63410394D01*
X18618888Y-63410394D02*
X18651022Y-63511909D01*
X18651022Y-63511909D02*
X18636123Y-63605975D01*
X18636123Y-63605975D02*
X18150897Y-63625548D01*
X19002599Y-63422956D02*
X19133473Y-64118661D01*
X19472927Y-63497448D02*
X19133473Y-64118661D01*
X19133473Y-64118661D02*
X19002162Y-64338926D01*
X19002162Y-64338926D02*
X18947680Y-64378510D01*
X18947680Y-64378510D02*
X18846165Y-64410644D01*
X19705316Y-64161019D02*
X19791933Y-64222951D01*
X19791933Y-64222951D02*
X19980064Y-64252748D01*
X19980064Y-64252748D02*
X20081579Y-64220613D01*
X20081579Y-64220613D02*
X20143510Y-64133997D01*
X20143510Y-64133997D02*
X20150959Y-64086964D01*
X20150959Y-64086964D02*
X20118825Y-63985449D01*
X20118825Y-63985449D02*
X20032209Y-63923518D01*
X20032209Y-63923518D02*
X19891110Y-63901170D01*
X19891110Y-63901170D02*
X19804494Y-63839239D01*
X19804494Y-63839239D02*
X19772360Y-63737724D01*
X19772360Y-63737724D02*
X19779809Y-63690691D01*
X19779809Y-63690691D02*
X19841740Y-63604075D01*
X19841740Y-63604075D02*
X19943255Y-63571941D01*
X19943255Y-63571941D02*
X20084353Y-63594289D01*
X20084353Y-63594289D02*
X20170970Y-63656220D01*
X20554681Y-63668781D02*
X20638523Y-64357037D01*
X20638523Y-64357037D02*
X20901146Y-63916506D01*
X20901146Y-63916506D02*
X21014785Y-64416631D01*
X21014785Y-64416631D02*
X21307206Y-63787969D01*
X21579178Y-64506022D02*
X21683468Y-63847564D01*
X21735613Y-63518334D02*
X21681131Y-63557918D01*
X21681131Y-63557918D02*
X21720714Y-63612400D01*
X21720714Y-63612400D02*
X21775196Y-63572816D01*
X21775196Y-63572816D02*
X21735613Y-63518334D01*
X21735613Y-63518334D02*
X21720714Y-63612400D01*
X22012697Y-63899708D02*
X22388959Y-63959302D01*
X22205940Y-63592827D02*
X22071853Y-64439417D01*
X22071853Y-64439417D02*
X22103988Y-64540931D01*
X22103988Y-64540931D02*
X22190604Y-64602863D01*
X22190604Y-64602863D02*
X22284669Y-64617761D01*
X23044644Y-64689917D02*
X22943129Y-64722051D01*
X22943129Y-64722051D02*
X22754998Y-64692254D01*
X22754998Y-64692254D02*
X22668381Y-64630323D01*
X22668381Y-64630323D02*
X22628798Y-64575841D01*
X22628798Y-64575841D02*
X22596664Y-64474326D01*
X22596664Y-64474326D02*
X22641359Y-64192129D01*
X22641359Y-64192129D02*
X22703290Y-64105513D01*
X22703290Y-64105513D02*
X22757773Y-64065929D01*
X22757773Y-64065929D02*
X22859287Y-64033795D01*
X22859287Y-64033795D02*
X23047418Y-64063592D01*
X23047418Y-64063592D02*
X23134035Y-64125523D01*
X23460490Y-64803993D02*
X23616924Y-63816305D01*
X23883785Y-64871036D02*
X23965726Y-64353676D01*
X23965726Y-64353676D02*
X23933592Y-64252161D01*
X23933592Y-64252161D02*
X23846976Y-64190230D01*
X23846976Y-64190230D02*
X23705877Y-64167882D01*
X23705877Y-64167882D02*
X23604363Y-64200016D01*
X23604363Y-64200016D02*
X23549881Y-64239600D01*
X20713448Y-55208505D02*
X20847097Y-55277886D01*
X20847097Y-55277886D02*
X21082261Y-55315132D01*
X21082261Y-55315132D02*
X21183775Y-55282998D01*
X21183775Y-55282998D02*
X21238257Y-55243415D01*
X21238257Y-55243415D02*
X21300189Y-55156798D01*
X21300189Y-55156798D02*
X21315087Y-55062733D01*
X21315087Y-55062733D02*
X21282953Y-54961218D01*
X21282953Y-54961218D02*
X21243369Y-54906736D01*
X21243369Y-54906736D02*
X21156753Y-54844805D01*
X21156753Y-54844805D02*
X20976071Y-54767975D01*
X20976071Y-54767975D02*
X20889455Y-54706043D01*
X20889455Y-54706043D02*
X20849871Y-54651561D01*
X20849871Y-54651561D02*
X20817737Y-54550047D01*
X20817737Y-54550047D02*
X20832636Y-54455981D01*
X20832636Y-54455981D02*
X20894567Y-54369365D01*
X20894567Y-54369365D02*
X20949049Y-54329781D01*
X20949049Y-54329781D02*
X21050564Y-54297647D01*
X21050564Y-54297647D02*
X21285728Y-54334893D01*
X21285728Y-54334893D02*
X21419377Y-54404274D01*
X21788190Y-54510901D02*
X21842672Y-54471317D01*
X21842672Y-54471317D02*
X21944187Y-54439183D01*
X21944187Y-54439183D02*
X22179351Y-54476429D01*
X22179351Y-54476429D02*
X22265967Y-54538361D01*
X22265967Y-54538361D02*
X22305550Y-54592843D01*
X22305550Y-54592843D02*
X22337685Y-54694357D01*
X22337685Y-54694357D02*
X22322786Y-54788423D01*
X22322786Y-54788423D02*
X22253406Y-54922072D01*
X22253406Y-54922072D02*
X21599621Y-55397074D01*
X21599621Y-55397074D02*
X22211047Y-55493915D01*
X23214072Y-54640313D02*
X23025941Y-54610516D01*
X23025941Y-54610516D02*
X22924426Y-54642650D01*
X22924426Y-54642650D02*
X22869944Y-54682234D01*
X22869944Y-54682234D02*
X22753530Y-54808434D01*
X22753530Y-54808434D02*
X22676701Y-54989115D01*
X22676701Y-54989115D02*
X22617107Y-55365378D01*
X22617107Y-55365378D02*
X22649241Y-55466892D01*
X22649241Y-55466892D02*
X22688824Y-55521374D01*
X22688824Y-55521374D02*
X22775441Y-55583306D01*
X22775441Y-55583306D02*
X22963572Y-55613103D01*
X22963572Y-55613103D02*
X23065087Y-55580969D01*
X23065087Y-55580969D02*
X23119569Y-55541385D01*
X23119569Y-55541385D02*
X23181500Y-55454769D01*
X23181500Y-55454769D02*
X23218746Y-55219605D01*
X23218746Y-55219605D02*
X23186612Y-55118090D01*
X23186612Y-55118090D02*
X23147028Y-55063608D01*
X23147028Y-55063608D02*
X23060412Y-55001677D01*
X23060412Y-55001677D02*
X22872281Y-54971880D01*
X22872281Y-54971880D02*
X22770766Y-55004014D01*
X22770766Y-55004014D02*
X22716284Y-55043597D01*
X22716284Y-55043597D02*
X22654353Y-55130214D01*
%TO.C,S18*%
D11*
X33500000Y-1300000D02*
X33500000Y-16300000D01*
X33500000Y-16300000D02*
X48500000Y-16300000D01*
X48500000Y-1300000D02*
X33500000Y-1300000D01*
X48500000Y-16300000D02*
X48500000Y-1300000D01*
%TO.C,U2*%
D12*
X-10500000Y25500000D02*
X10500000Y25500000D01*
X-10500000Y24200000D02*
X-9200000Y25500000D01*
X-10500000Y-25500000D02*
X-10500000Y25500000D01*
X10500000Y25500000D02*
X10500000Y-25500000D01*
X10500000Y-25500000D02*
X-10500000Y-25500000D01*
%TO.C,S14*%
D11*
X-67500000Y7500000D02*
X-67500000Y-7500000D01*
X-67500000Y-7500000D02*
X-52500000Y-7500000D01*
X-52500000Y7500000D02*
X-67500000Y7500000D01*
X-52500000Y-7500000D02*
X-52500000Y7500000D01*
%TO.C,S9*%
X71500000Y26600000D02*
X71500000Y11600000D01*
X71500000Y11600000D02*
X86500000Y11600000D01*
X86500000Y26600000D02*
X71500000Y26600000D01*
X86500000Y11600000D02*
X86500000Y26600000D01*
%TO.C,S28*%
X51419079Y-50934404D02*
X66234404Y-53280921D01*
X53765596Y-36119079D02*
X51419079Y-50934404D01*
X66234404Y-53280921D02*
X68580921Y-38465596D01*
X68580921Y-38465596D02*
X53765596Y-36119079D01*
%TO.C,S7*%
X33500000Y16700000D02*
X33500000Y1700000D01*
X33500000Y1700000D02*
X48500000Y1700000D01*
X48500000Y16700000D02*
X33500000Y16700000D01*
X48500000Y1700000D02*
X48500000Y16700000D01*
%TO.C,S25*%
X-30580921Y-48765596D02*
X-28234404Y-63580921D01*
X-28234404Y-63580921D02*
X-13419079Y-61234404D01*
X-15765596Y-46419079D02*
X-30580921Y-48765596D01*
X-13419079Y-61234404D02*
X-15765596Y-46419079D01*
%TO.C,S27*%
X32419079Y-47234404D02*
X47234404Y-49580921D01*
X34765596Y-32419079D02*
X32419079Y-47234404D01*
X47234404Y-49580921D02*
X49580921Y-34765596D01*
X49580921Y-34765596D02*
X34765596Y-32419079D01*
%TO.C,S19*%
X52500000Y7500000D02*
X52500000Y-7500000D01*
X52500000Y-7500000D02*
X67500000Y-7500000D01*
X67500000Y7500000D02*
X52500000Y7500000D01*
X67500000Y-7500000D02*
X67500000Y7500000D01*
%TO.C,S16*%
X-29500000Y-1300000D02*
X-29500000Y-16300000D01*
X-29500000Y-16300000D02*
X-14500000Y-16300000D01*
X-14500000Y-1300000D02*
X-29500000Y-1300000D01*
X-14500000Y-16300000D02*
X-14500000Y-1300000D01*
%TO.C,S5*%
X-29500000Y16700000D02*
X-29500000Y1700000D01*
X-29500000Y1700000D02*
X-14500000Y1700000D01*
X-14500000Y16700000D02*
X-29500000Y16700000D01*
X-14500000Y1700000D02*
X-14500000Y16700000D01*
%TO.C,S8*%
X52500000Y25500000D02*
X52500000Y10500000D01*
X52500000Y10500000D02*
X67500000Y10500000D01*
X67500000Y25500000D02*
X52500000Y25500000D01*
X67500000Y10500000D02*
X67500000Y25500000D01*
%TO.C,S23*%
X-68580921Y-38465596D02*
X-66234404Y-53280921D01*
X-66234404Y-53280921D02*
X-51419079Y-50934404D01*
X-53765596Y-36119079D02*
X-68580921Y-38465596D01*
X-51419079Y-50934404D02*
X-53765596Y-36119079D01*
%TO.C,S3*%
X-67500000Y25500000D02*
X-67500000Y10500000D01*
X-67500000Y10500000D02*
X-52500000Y10500000D01*
X-52500000Y25500000D02*
X-67500000Y25500000D01*
X-52500000Y10500000D02*
X-52500000Y25500000D01*
%TO.C,S4*%
X-48500000Y16700000D02*
X-48500000Y1700000D01*
X-48500000Y1700000D02*
X-33500000Y1700000D01*
X-33500000Y16700000D02*
X-48500000Y16700000D01*
X-33500000Y1700000D02*
X-33500000Y16700000D01*
%TO.C,S13*%
X-86500000Y8600000D02*
X-86500000Y-6400000D01*
X-86500000Y-6400000D02*
X-71500000Y-6400000D01*
X-71500000Y8600000D02*
X-86500000Y8600000D01*
X-71500000Y-6400000D02*
X-71500000Y8600000D01*
%TO.C,S20*%
X71500000Y8600000D02*
X71500000Y-6400000D01*
X71500000Y-6400000D02*
X86500000Y-6400000D01*
X86500000Y8600000D02*
X71500000Y8600000D01*
X86500000Y-6400000D02*
X86500000Y8600000D01*
%TO.C,S21*%
X90500000Y-1300000D02*
X90500000Y-16300000D01*
X90500000Y-16300000D02*
X105500000Y-16300000D01*
X105500000Y-1300000D02*
X90500000Y-1300000D01*
X105500000Y-16300000D02*
X105500000Y-1300000D01*
%TO.C,S2*%
X-86500000Y26600000D02*
X-86500000Y11600000D01*
X-86500000Y11600000D02*
X-71500000Y11600000D01*
X-71500000Y26600000D02*
X-86500000Y26600000D01*
X-71500000Y11600000D02*
X-71500000Y26600000D01*
%TO.C,S12*%
X-105500000Y-1300000D02*
X-105500000Y-16300000D01*
X-105500000Y-16300000D02*
X-90500000Y-16300000D01*
X-90500000Y-1300000D02*
X-105500000Y-1300000D01*
X-90500000Y-16300000D02*
X-90500000Y-1300000D01*
%TO.C,S1*%
X-105500000Y16700000D02*
X-105500000Y1700000D01*
X-105500000Y1700000D02*
X-90500000Y1700000D01*
X-90500000Y16700000D02*
X-105500000Y16700000D01*
X-90500000Y1700000D02*
X-90500000Y16700000D01*
%TO.C,S11*%
X108000000Y16700000D02*
X108000000Y1700000D01*
X108000000Y1700000D02*
X123000000Y1700000D01*
X123000000Y16700000D02*
X108000000Y16700000D01*
X123000000Y1700000D02*
X123000000Y16700000D01*
%TO.C,S15*%
X-48500000Y-1300000D02*
X-48500000Y-16300000D01*
X-48500000Y-16300000D02*
X-33500000Y-16300000D01*
X-33500000Y-1300000D02*
X-48500000Y-1300000D01*
X-33500000Y-16300000D02*
X-33500000Y-1300000D01*
%TO.C,S10*%
X90500000Y16700000D02*
X90500000Y1700000D01*
X90500000Y1700000D02*
X105500000Y1700000D01*
X105500000Y16700000D02*
X90500000Y16700000D01*
X105500000Y1700000D02*
X105500000Y16700000D01*
%TO.C,S22*%
X108000000Y-1300000D02*
X108000000Y-16300000D01*
X108000000Y-16300000D02*
X123000000Y-16300000D01*
X123000000Y-1300000D02*
X108000000Y-1300000D01*
X123000000Y-16300000D02*
X123000000Y-1300000D01*
%TO.C,S6*%
X14500000Y16700000D02*
X14500000Y1700000D01*
X14500000Y1700000D02*
X29500000Y1700000D01*
X29500000Y16700000D02*
X14500000Y16700000D01*
X29500000Y1700000D02*
X29500000Y16700000D01*
%TO.C,S24*%
X-49580921Y-34765596D02*
X-47234404Y-49580921D01*
X-47234404Y-49580921D02*
X-32419079Y-47234404D01*
X-34765596Y-32419079D02*
X-49580921Y-34765596D01*
X-32419079Y-47234404D02*
X-34765596Y-32419079D01*
%TO.C,S17*%
X14500000Y-1300000D02*
X14500000Y-16300000D01*
X14500000Y-16300000D02*
X29500000Y-16300000D01*
X29500000Y-1300000D02*
X14500000Y-1300000D01*
X29500000Y-16300000D02*
X29500000Y-1300000D01*
%TO.C,S26*%
X13419079Y-61234404D02*
X28234404Y-63580921D01*
X15765596Y-46419079D02*
X13419079Y-61234404D01*
X28234404Y-63580921D02*
X30580921Y-48765596D01*
X30580921Y-48765596D02*
X15765596Y-46419079D01*
%TD*%
M02*
