%TF.GenerationSoftware,KiCad,Pcbnew,10.0.4-1.fc44*%
%TF.CreationDate,2026-09-30T03:19:51+02:00*%
%TF.ProjectId,bunnyboard_ergo,62756e6e-7962-46f6-9172-645f6572676f,rev?*%
%TF.SameCoordinates,Original*%
%TF.FileFunction,AssemblyDrawing,Top*%
%FSLAX46Y46*%
G04 Gerber Fmt 4.6, Leading zero omitted, Abs format (unit mm)*
G04 Created by KiCad (PCBNEW 10.0.4-1.fc44) date 2026-09-30 03:19:51*
%MOMM*%
%LPD*%
G01*
G04 APERTURE LIST*
%ADD10C,0.150000*%
%ADD11C,0.100000*%
%ADD12C,0.120000*%
G04 APERTURE END LIST*
D10*
X37595238Y-18254819D02*
X37595238Y-17254819D01*
X38166666Y-18254819D02*
X37738095Y-17683390D01*
X38166666Y-17254819D02*
X37595238Y-17826247D01*
X38976190Y-18207200D02*
X38880952Y-18254819D01*
X38880952Y-18254819D02*
X38690476Y-18254819D01*
X38690476Y-18254819D02*
X38595238Y-18207200D01*
X38595238Y-18207200D02*
X38547619Y-18111961D01*
X38547619Y-18111961D02*
X38547619Y-17731009D01*
X38547619Y-17731009D02*
X38595238Y-17635771D01*
X38595238Y-17635771D02*
X38690476Y-17588152D01*
X38690476Y-17588152D02*
X38880952Y-17588152D01*
X38880952Y-17588152D02*
X38976190Y-17635771D01*
X38976190Y-17635771D02*
X39023809Y-17731009D01*
X39023809Y-17731009D02*
X39023809Y-17826247D01*
X39023809Y-17826247D02*
X38547619Y-17921485D01*
X39357143Y-17588152D02*
X39595238Y-18254819D01*
X39833333Y-17588152D02*
X39595238Y-18254819D01*
X39595238Y-18254819D02*
X39500000Y-18492914D01*
X39500000Y-18492914D02*
X39452381Y-18540533D01*
X39452381Y-18540533D02*
X39357143Y-18588152D01*
X40166667Y-18207200D02*
X40261905Y-18254819D01*
X40261905Y-18254819D02*
X40452381Y-18254819D01*
X40452381Y-18254819D02*
X40547619Y-18207200D01*
X40547619Y-18207200D02*
X40595238Y-18111961D01*
X40595238Y-18111961D02*
X40595238Y-18064342D01*
X40595238Y-18064342D02*
X40547619Y-17969104D01*
X40547619Y-17969104D02*
X40452381Y-17921485D01*
X40452381Y-17921485D02*
X40309524Y-17921485D01*
X40309524Y-17921485D02*
X40214286Y-17873866D01*
X40214286Y-17873866D02*
X40166667Y-17778628D01*
X40166667Y-17778628D02*
X40166667Y-17731009D01*
X40166667Y-17731009D02*
X40214286Y-17635771D01*
X40214286Y-17635771D02*
X40309524Y-17588152D01*
X40309524Y-17588152D02*
X40452381Y-17588152D01*
X40452381Y-17588152D02*
X40547619Y-17635771D01*
X40928572Y-17588152D02*
X41119048Y-18254819D01*
X41119048Y-18254819D02*
X41309524Y-17778628D01*
X41309524Y-17778628D02*
X41500000Y-18254819D01*
X41500000Y-18254819D02*
X41690476Y-17588152D01*
X42071429Y-18254819D02*
X42071429Y-17588152D01*
X42071429Y-17254819D02*
X42023810Y-17302438D01*
X42023810Y-17302438D02*
X42071429Y-17350057D01*
X42071429Y-17350057D02*
X42119048Y-17302438D01*
X42119048Y-17302438D02*
X42071429Y-17254819D01*
X42071429Y-17254819D02*
X42071429Y-17350057D01*
X42404762Y-17588152D02*
X42785714Y-17588152D01*
X42547619Y-17254819D02*
X42547619Y-18111961D01*
X42547619Y-18111961D02*
X42595238Y-18207200D01*
X42595238Y-18207200D02*
X42690476Y-18254819D01*
X42690476Y-18254819D02*
X42785714Y-18254819D01*
X43547619Y-18207200D02*
X43452381Y-18254819D01*
X43452381Y-18254819D02*
X43261905Y-18254819D01*
X43261905Y-18254819D02*
X43166667Y-18207200D01*
X43166667Y-18207200D02*
X43119048Y-18159580D01*
X43119048Y-18159580D02*
X43071429Y-18064342D01*
X43071429Y-18064342D02*
X43071429Y-17778628D01*
X43071429Y-17778628D02*
X43119048Y-17683390D01*
X43119048Y-17683390D02*
X43166667Y-17635771D01*
X43166667Y-17635771D02*
X43261905Y-17588152D01*
X43261905Y-17588152D02*
X43452381Y-17588152D01*
X43452381Y-17588152D02*
X43547619Y-17635771D01*
X43976191Y-18254819D02*
X43976191Y-17254819D01*
X44404762Y-18254819D02*
X44404762Y-17731009D01*
X44404762Y-17731009D02*
X44357143Y-17635771D01*
X44357143Y-17635771D02*
X44261905Y-17588152D01*
X44261905Y-17588152D02*
X44119048Y-17588152D01*
X44119048Y-17588152D02*
X44023810Y-17635771D01*
X44023810Y-17635771D02*
X43976191Y-17683390D01*
X39761905Y-9207200D02*
X39904762Y-9254819D01*
X39904762Y-9254819D02*
X40142857Y-9254819D01*
X40142857Y-9254819D02*
X40238095Y-9207200D01*
X40238095Y-9207200D02*
X40285714Y-9159580D01*
X40285714Y-9159580D02*
X40333333Y-9064342D01*
X40333333Y-9064342D02*
X40333333Y-8969104D01*
X40333333Y-8969104D02*
X40285714Y-8873866D01*
X40285714Y-8873866D02*
X40238095Y-8826247D01*
X40238095Y-8826247D02*
X40142857Y-8778628D01*
X40142857Y-8778628D02*
X39952381Y-8731009D01*
X39952381Y-8731009D02*
X39857143Y-8683390D01*
X39857143Y-8683390D02*
X39809524Y-8635771D01*
X39809524Y-8635771D02*
X39761905Y-8540533D01*
X39761905Y-8540533D02*
X39761905Y-8445295D01*
X39761905Y-8445295D02*
X39809524Y-8350057D01*
X39809524Y-8350057D02*
X39857143Y-8302438D01*
X39857143Y-8302438D02*
X39952381Y-8254819D01*
X39952381Y-8254819D02*
X40190476Y-8254819D01*
X40190476Y-8254819D02*
X40333333Y-8302438D01*
X41285714Y-9254819D02*
X40714286Y-9254819D01*
X41000000Y-9254819D02*
X41000000Y-8254819D01*
X41000000Y-8254819D02*
X40904762Y-8397676D01*
X40904762Y-8397676D02*
X40809524Y-8492914D01*
X40809524Y-8492914D02*
X40714286Y-8540533D01*
X41857143Y-8683390D02*
X41761905Y-8635771D01*
X41761905Y-8635771D02*
X41714286Y-8588152D01*
X41714286Y-8588152D02*
X41666667Y-8492914D01*
X41666667Y-8492914D02*
X41666667Y-8445295D01*
X41666667Y-8445295D02*
X41714286Y-8350057D01*
X41714286Y-8350057D02*
X41761905Y-8302438D01*
X41761905Y-8302438D02*
X41857143Y-8254819D01*
X41857143Y-8254819D02*
X42047619Y-8254819D01*
X42047619Y-8254819D02*
X42142857Y-8302438D01*
X42142857Y-8302438D02*
X42190476Y-8350057D01*
X42190476Y-8350057D02*
X42238095Y-8445295D01*
X42238095Y-8445295D02*
X42238095Y-8492914D01*
X42238095Y-8492914D02*
X42190476Y-8588152D01*
X42190476Y-8588152D02*
X42142857Y-8635771D01*
X42142857Y-8635771D02*
X42047619Y-8683390D01*
X42047619Y-8683390D02*
X41857143Y-8683390D01*
X41857143Y-8683390D02*
X41761905Y-8731009D01*
X41761905Y-8731009D02*
X41714286Y-8778628D01*
X41714286Y-8778628D02*
X41666667Y-8873866D01*
X41666667Y-8873866D02*
X41666667Y-9064342D01*
X41666667Y-9064342D02*
X41714286Y-9159580D01*
X41714286Y-9159580D02*
X41761905Y-9207200D01*
X41761905Y-9207200D02*
X41857143Y-9254819D01*
X41857143Y-9254819D02*
X42047619Y-9254819D01*
X42047619Y-9254819D02*
X42142857Y-9207200D01*
X42142857Y-9207200D02*
X42190476Y-9159580D01*
X42190476Y-9159580D02*
X42238095Y-9064342D01*
X42238095Y-9064342D02*
X42238095Y-8873866D01*
X42238095Y-8873866D02*
X42190476Y-8778628D01*
X42190476Y-8778628D02*
X42142857Y-8731009D01*
X42142857Y-8731009D02*
X42047619Y-8683390D01*
X-1380951Y-2613819D02*
X-1380951Y-1613819D01*
X-1380951Y-1613819D02*
X-999999Y-1613819D01*
X-999999Y-1613819D02*
X-904761Y-1661438D01*
X-904761Y-1661438D02*
X-857142Y-1709057D01*
X-857142Y-1709057D02*
X-809523Y-1804295D01*
X-809523Y-1804295D02*
X-809523Y-1947152D01*
X-809523Y-1947152D02*
X-857142Y-2042390D01*
X-857142Y-2042390D02*
X-904761Y-2090009D01*
X-904761Y-2090009D02*
X-999999Y-2137628D01*
X-999999Y-2137628D02*
X-1380951Y-2137628D01*
X-380951Y-2613819D02*
X-380951Y-1947152D01*
X-380951Y-1613819D02*
X-428570Y-1661438D01*
X-428570Y-1661438D02*
X-380951Y-1709057D01*
X-380951Y-1709057D02*
X-333332Y-1661438D01*
X-333332Y-1661438D02*
X-380951Y-1613819D01*
X-380951Y-1613819D02*
X-380951Y-1709057D01*
X523809Y-2566200D02*
X428571Y-2613819D01*
X428571Y-2613819D02*
X238095Y-2613819D01*
X238095Y-2613819D02*
X142857Y-2566200D01*
X142857Y-2566200D02*
X95238Y-2518580D01*
X95238Y-2518580D02*
X47619Y-2423342D01*
X47619Y-2423342D02*
X47619Y-2137628D01*
X47619Y-2137628D02*
X95238Y-2042390D01*
X95238Y-2042390D02*
X142857Y-1994771D01*
X142857Y-1994771D02*
X238095Y-1947152D01*
X238095Y-1947152D02*
X428571Y-1947152D01*
X428571Y-1947152D02*
X523809Y-1994771D01*
X1095238Y-2613819D02*
X1000000Y-2566200D01*
X1000000Y-2566200D02*
X952381Y-2518580D01*
X952381Y-2518580D02*
X904762Y-2423342D01*
X904762Y-2423342D02*
X904762Y-2137628D01*
X904762Y-2137628D02*
X952381Y-2042390D01*
X952381Y-2042390D02*
X1000000Y-1994771D01*
X1000000Y-1994771D02*
X1095238Y-1947152D01*
X1095238Y-1947152D02*
X1238095Y-1947152D01*
X1238095Y-1947152D02*
X1333333Y-1994771D01*
X1333333Y-1994771D02*
X1380952Y-2042390D01*
X1380952Y-2042390D02*
X1428571Y-2137628D01*
X1428571Y-2137628D02*
X1428571Y-2423342D01*
X1428571Y-2423342D02*
X1380952Y-2518580D01*
X1380952Y-2518580D02*
X1333333Y-2566200D01*
X1333333Y-2566200D02*
X1238095Y-2613819D01*
X1238095Y-2613819D02*
X1095238Y-2613819D01*
X-761904Y545180D02*
X-761904Y-264342D01*
X-761904Y-264342D02*
X-714285Y-359580D01*
X-714285Y-359580D02*
X-666666Y-407200D01*
X-666666Y-407200D02*
X-571428Y-454819D01*
X-571428Y-454819D02*
X-380952Y-454819D01*
X-380952Y-454819D02*
X-285714Y-407200D01*
X-285714Y-407200D02*
X-238095Y-359580D01*
X-238095Y-359580D02*
X-190476Y-264342D01*
X-190476Y-264342D02*
X-190476Y545180D01*
X238095Y449942D02*
X285714Y497561D01*
X285714Y497561D02*
X380952Y545180D01*
X380952Y545180D02*
X619047Y545180D01*
X619047Y545180D02*
X714285Y497561D01*
X714285Y497561D02*
X761904Y449942D01*
X761904Y449942D02*
X809523Y354704D01*
X809523Y354704D02*
X809523Y259466D01*
X809523Y259466D02*
X761904Y116609D01*
X761904Y116609D02*
X190476Y-454819D01*
X190476Y-454819D02*
X809523Y-454819D01*
X-63404761Y-9454819D02*
X-63404761Y-8454819D01*
X-62833333Y-9454819D02*
X-63261904Y-8883390D01*
X-62833333Y-8454819D02*
X-63404761Y-9026247D01*
X-62023809Y-9407200D02*
X-62119047Y-9454819D01*
X-62119047Y-9454819D02*
X-62309523Y-9454819D01*
X-62309523Y-9454819D02*
X-62404761Y-9407200D01*
X-62404761Y-9407200D02*
X-62452380Y-9311961D01*
X-62452380Y-9311961D02*
X-62452380Y-8931009D01*
X-62452380Y-8931009D02*
X-62404761Y-8835771D01*
X-62404761Y-8835771D02*
X-62309523Y-8788152D01*
X-62309523Y-8788152D02*
X-62119047Y-8788152D01*
X-62119047Y-8788152D02*
X-62023809Y-8835771D01*
X-62023809Y-8835771D02*
X-61976190Y-8931009D01*
X-61976190Y-8931009D02*
X-61976190Y-9026247D01*
X-61976190Y-9026247D02*
X-62452380Y-9121485D01*
X-61642856Y-8788152D02*
X-61404761Y-9454819D01*
X-61166666Y-8788152D02*
X-61404761Y-9454819D01*
X-61404761Y-9454819D02*
X-61499999Y-9692914D01*
X-61499999Y-9692914D02*
X-61547618Y-9740533D01*
X-61547618Y-9740533D02*
X-61642856Y-9788152D01*
X-60833332Y-9407200D02*
X-60738094Y-9454819D01*
X-60738094Y-9454819D02*
X-60547618Y-9454819D01*
X-60547618Y-9454819D02*
X-60452380Y-9407200D01*
X-60452380Y-9407200D02*
X-60404761Y-9311961D01*
X-60404761Y-9311961D02*
X-60404761Y-9264342D01*
X-60404761Y-9264342D02*
X-60452380Y-9169104D01*
X-60452380Y-9169104D02*
X-60547618Y-9121485D01*
X-60547618Y-9121485D02*
X-60690475Y-9121485D01*
X-60690475Y-9121485D02*
X-60785713Y-9073866D01*
X-60785713Y-9073866D02*
X-60833332Y-8978628D01*
X-60833332Y-8978628D02*
X-60833332Y-8931009D01*
X-60833332Y-8931009D02*
X-60785713Y-8835771D01*
X-60785713Y-8835771D02*
X-60690475Y-8788152D01*
X-60690475Y-8788152D02*
X-60547618Y-8788152D01*
X-60547618Y-8788152D02*
X-60452380Y-8835771D01*
X-60071427Y-8788152D02*
X-59880951Y-9454819D01*
X-59880951Y-9454819D02*
X-59690475Y-8978628D01*
X-59690475Y-8978628D02*
X-59499999Y-9454819D01*
X-59499999Y-9454819D02*
X-59309523Y-8788152D01*
X-58928570Y-9454819D02*
X-58928570Y-8788152D01*
X-58928570Y-8454819D02*
X-58976189Y-8502438D01*
X-58976189Y-8502438D02*
X-58928570Y-8550057D01*
X-58928570Y-8550057D02*
X-58880951Y-8502438D01*
X-58880951Y-8502438D02*
X-58928570Y-8454819D01*
X-58928570Y-8454819D02*
X-58928570Y-8550057D01*
X-58595237Y-8788152D02*
X-58214285Y-8788152D01*
X-58452380Y-8454819D02*
X-58452380Y-9311961D01*
X-58452380Y-9311961D02*
X-58404761Y-9407200D01*
X-58404761Y-9407200D02*
X-58309523Y-9454819D01*
X-58309523Y-9454819D02*
X-58214285Y-9454819D01*
X-57452380Y-9407200D02*
X-57547618Y-9454819D01*
X-57547618Y-9454819D02*
X-57738094Y-9454819D01*
X-57738094Y-9454819D02*
X-57833332Y-9407200D01*
X-57833332Y-9407200D02*
X-57880951Y-9359580D01*
X-57880951Y-9359580D02*
X-57928570Y-9264342D01*
X-57928570Y-9264342D02*
X-57928570Y-8978628D01*
X-57928570Y-8978628D02*
X-57880951Y-8883390D01*
X-57880951Y-8883390D02*
X-57833332Y-8835771D01*
X-57833332Y-8835771D02*
X-57738094Y-8788152D01*
X-57738094Y-8788152D02*
X-57547618Y-8788152D01*
X-57547618Y-8788152D02*
X-57452380Y-8835771D01*
X-57023808Y-9454819D02*
X-57023808Y-8454819D01*
X-56595237Y-9454819D02*
X-56595237Y-8931009D01*
X-56595237Y-8931009D02*
X-56642856Y-8835771D01*
X-56642856Y-8835771D02*
X-56738094Y-8788152D01*
X-56738094Y-8788152D02*
X-56880951Y-8788152D01*
X-56880951Y-8788152D02*
X-56976189Y-8835771D01*
X-56976189Y-8835771D02*
X-57023808Y-8883390D01*
X-61238094Y-407200D02*
X-61095237Y-454819D01*
X-61095237Y-454819D02*
X-60857142Y-454819D01*
X-60857142Y-454819D02*
X-60761904Y-407200D01*
X-60761904Y-407200D02*
X-60714285Y-359580D01*
X-60714285Y-359580D02*
X-60666666Y-264342D01*
X-60666666Y-264342D02*
X-60666666Y-169104D01*
X-60666666Y-169104D02*
X-60714285Y-73866D01*
X-60714285Y-73866D02*
X-60761904Y-26247D01*
X-60761904Y-26247D02*
X-60857142Y21371D01*
X-60857142Y21371D02*
X-61047618Y68990D01*
X-61047618Y68990D02*
X-61142856Y116609D01*
X-61142856Y116609D02*
X-61190475Y164228D01*
X-61190475Y164228D02*
X-61238094Y259466D01*
X-61238094Y259466D02*
X-61238094Y354704D01*
X-61238094Y354704D02*
X-61190475Y449942D01*
X-61190475Y449942D02*
X-61142856Y497561D01*
X-61142856Y497561D02*
X-61047618Y545180D01*
X-61047618Y545180D02*
X-60809523Y545180D01*
X-60809523Y545180D02*
X-60666666Y497561D01*
X-59714285Y-454819D02*
X-60285713Y-454819D01*
X-59999999Y-454819D02*
X-59999999Y545180D01*
X-59999999Y545180D02*
X-60095237Y402323D01*
X-60095237Y402323D02*
X-60190475Y307085D01*
X-60190475Y307085D02*
X-60285713Y259466D01*
X-58857142Y211847D02*
X-58857142Y-454819D01*
X-59095237Y592800D02*
X-59333332Y-121485D01*
X-59333332Y-121485D02*
X-58714285Y-121485D01*
X75595238Y9645180D02*
X75595238Y10645180D01*
X76166666Y9645180D02*
X75738095Y10216609D01*
X76166666Y10645180D02*
X75595238Y10073752D01*
X76976190Y9692800D02*
X76880952Y9645180D01*
X76880952Y9645180D02*
X76690476Y9645180D01*
X76690476Y9645180D02*
X76595238Y9692800D01*
X76595238Y9692800D02*
X76547619Y9788038D01*
X76547619Y9788038D02*
X76547619Y10168990D01*
X76547619Y10168990D02*
X76595238Y10264228D01*
X76595238Y10264228D02*
X76690476Y10311847D01*
X76690476Y10311847D02*
X76880952Y10311847D01*
X76880952Y10311847D02*
X76976190Y10264228D01*
X76976190Y10264228D02*
X77023809Y10168990D01*
X77023809Y10168990D02*
X77023809Y10073752D01*
X77023809Y10073752D02*
X76547619Y9978514D01*
X77357143Y10311847D02*
X77595238Y9645180D01*
X77833333Y10311847D02*
X77595238Y9645180D01*
X77595238Y9645180D02*
X77500000Y9407085D01*
X77500000Y9407085D02*
X77452381Y9359466D01*
X77452381Y9359466D02*
X77357143Y9311847D01*
X78166667Y9692800D02*
X78261905Y9645180D01*
X78261905Y9645180D02*
X78452381Y9645180D01*
X78452381Y9645180D02*
X78547619Y9692800D01*
X78547619Y9692800D02*
X78595238Y9788038D01*
X78595238Y9788038D02*
X78595238Y9835657D01*
X78595238Y9835657D02*
X78547619Y9930895D01*
X78547619Y9930895D02*
X78452381Y9978514D01*
X78452381Y9978514D02*
X78309524Y9978514D01*
X78309524Y9978514D02*
X78214286Y10026133D01*
X78214286Y10026133D02*
X78166667Y10121371D01*
X78166667Y10121371D02*
X78166667Y10168990D01*
X78166667Y10168990D02*
X78214286Y10264228D01*
X78214286Y10264228D02*
X78309524Y10311847D01*
X78309524Y10311847D02*
X78452381Y10311847D01*
X78452381Y10311847D02*
X78547619Y10264228D01*
X78928572Y10311847D02*
X79119048Y9645180D01*
X79119048Y9645180D02*
X79309524Y10121371D01*
X79309524Y10121371D02*
X79500000Y9645180D01*
X79500000Y9645180D02*
X79690476Y10311847D01*
X80071429Y9645180D02*
X80071429Y10311847D01*
X80071429Y10645180D02*
X80023810Y10597561D01*
X80023810Y10597561D02*
X80071429Y10549942D01*
X80071429Y10549942D02*
X80119048Y10597561D01*
X80119048Y10597561D02*
X80071429Y10645180D01*
X80071429Y10645180D02*
X80071429Y10549942D01*
X80404762Y10311847D02*
X80785714Y10311847D01*
X80547619Y10645180D02*
X80547619Y9788038D01*
X80547619Y9788038D02*
X80595238Y9692800D01*
X80595238Y9692800D02*
X80690476Y9645180D01*
X80690476Y9645180D02*
X80785714Y9645180D01*
X81547619Y9692800D02*
X81452381Y9645180D01*
X81452381Y9645180D02*
X81261905Y9645180D01*
X81261905Y9645180D02*
X81166667Y9692800D01*
X81166667Y9692800D02*
X81119048Y9740419D01*
X81119048Y9740419D02*
X81071429Y9835657D01*
X81071429Y9835657D02*
X81071429Y10121371D01*
X81071429Y10121371D02*
X81119048Y10216609D01*
X81119048Y10216609D02*
X81166667Y10264228D01*
X81166667Y10264228D02*
X81261905Y10311847D01*
X81261905Y10311847D02*
X81452381Y10311847D01*
X81452381Y10311847D02*
X81547619Y10264228D01*
X81976191Y9645180D02*
X81976191Y10645180D01*
X82404762Y9645180D02*
X82404762Y10168990D01*
X82404762Y10168990D02*
X82357143Y10264228D01*
X82357143Y10264228D02*
X82261905Y10311847D01*
X82261905Y10311847D02*
X82119048Y10311847D01*
X82119048Y10311847D02*
X82023810Y10264228D01*
X82023810Y10264228D02*
X81976191Y10216609D01*
X78238095Y18692800D02*
X78380952Y18645180D01*
X78380952Y18645180D02*
X78619047Y18645180D01*
X78619047Y18645180D02*
X78714285Y18692800D01*
X78714285Y18692800D02*
X78761904Y18740419D01*
X78761904Y18740419D02*
X78809523Y18835657D01*
X78809523Y18835657D02*
X78809523Y18930895D01*
X78809523Y18930895D02*
X78761904Y19026133D01*
X78761904Y19026133D02*
X78714285Y19073752D01*
X78714285Y19073752D02*
X78619047Y19121371D01*
X78619047Y19121371D02*
X78428571Y19168990D01*
X78428571Y19168990D02*
X78333333Y19216609D01*
X78333333Y19216609D02*
X78285714Y19264228D01*
X78285714Y19264228D02*
X78238095Y19359466D01*
X78238095Y19359466D02*
X78238095Y19454704D01*
X78238095Y19454704D02*
X78285714Y19549942D01*
X78285714Y19549942D02*
X78333333Y19597561D01*
X78333333Y19597561D02*
X78428571Y19645180D01*
X78428571Y19645180D02*
X78666666Y19645180D01*
X78666666Y19645180D02*
X78809523Y19597561D01*
X79285714Y18645180D02*
X79476190Y18645180D01*
X79476190Y18645180D02*
X79571428Y18692800D01*
X79571428Y18692800D02*
X79619047Y18740419D01*
X79619047Y18740419D02*
X79714285Y18883276D01*
X79714285Y18883276D02*
X79761904Y19073752D01*
X79761904Y19073752D02*
X79761904Y19454704D01*
X79761904Y19454704D02*
X79714285Y19549942D01*
X79714285Y19549942D02*
X79666666Y19597561D01*
X79666666Y19597561D02*
X79571428Y19645180D01*
X79571428Y19645180D02*
X79380952Y19645180D01*
X79380952Y19645180D02*
X79285714Y19597561D01*
X79285714Y19597561D02*
X79238095Y19549942D01*
X79238095Y19549942D02*
X79190476Y19454704D01*
X79190476Y19454704D02*
X79190476Y19216609D01*
X79190476Y19216609D02*
X79238095Y19121371D01*
X79238095Y19121371D02*
X79285714Y19073752D01*
X79285714Y19073752D02*
X79380952Y19026133D01*
X79380952Y19026133D02*
X79571428Y19026133D01*
X79571428Y19026133D02*
X79666666Y19073752D01*
X79666666Y19073752D02*
X79714285Y19121371D01*
X79714285Y19121371D02*
X79761904Y19216609D01*
X57602187Y-54458919D02*
X57497658Y-53464397D01*
X58170485Y-54399188D02*
X57684531Y-53875688D01*
X58065957Y-53404666D02*
X57557389Y-54032695D01*
X58970597Y-54267212D02*
X58880858Y-54324525D01*
X58880858Y-54324525D02*
X58691425Y-54344435D01*
X58691425Y-54344435D02*
X58591731Y-54307032D01*
X58591731Y-54307032D02*
X58534418Y-54217293D01*
X58534418Y-54217293D02*
X58494598Y-53838428D01*
X58494598Y-53838428D02*
X58532001Y-53738734D01*
X58532001Y-53738734D02*
X58621740Y-53681420D01*
X58621740Y-53681420D02*
X58811172Y-53661510D01*
X58811172Y-53661510D02*
X58910866Y-53698913D01*
X58910866Y-53698913D02*
X58968179Y-53788652D01*
X58968179Y-53788652D02*
X58978135Y-53883368D01*
X58978135Y-53883368D02*
X58514508Y-54027860D01*
X59284754Y-53611735D02*
X59591231Y-54249862D01*
X59758336Y-53561959D02*
X59591231Y-54249862D01*
X59591231Y-54249862D02*
X59521402Y-54496608D01*
X59521402Y-54496608D02*
X59479022Y-54548943D01*
X59479022Y-54548943D02*
X59389283Y-54606257D01*
X60154552Y-54142773D02*
X60254246Y-54180176D01*
X60254246Y-54180176D02*
X60443678Y-54160266D01*
X60443678Y-54160266D02*
X60533417Y-54102952D01*
X60533417Y-54102952D02*
X60570820Y-54003259D01*
X60570820Y-54003259D02*
X60565843Y-53955900D01*
X60565843Y-53955900D02*
X60508530Y-53866162D01*
X60508530Y-53866162D02*
X60408836Y-53828758D01*
X60408836Y-53828758D02*
X60266761Y-53843691D01*
X60266761Y-53843691D02*
X60167067Y-53806288D01*
X60167067Y-53806288D02*
X60109754Y-53716549D01*
X60109754Y-53716549D02*
X60104776Y-53669191D01*
X60104776Y-53669191D02*
X60142179Y-53569497D01*
X60142179Y-53569497D02*
X60231918Y-53512184D01*
X60231918Y-53512184D02*
X60373993Y-53497251D01*
X60373993Y-53497251D02*
X60473687Y-53534654D01*
X60847575Y-53447476D02*
X61106693Y-54090580D01*
X61106693Y-54090580D02*
X61246350Y-53597088D01*
X61246350Y-53597088D02*
X61485559Y-54050760D01*
X61485559Y-54050760D02*
X61605306Y-53367835D01*
X62053857Y-53991029D02*
X61984171Y-53328015D01*
X61949328Y-52996507D02*
X61906948Y-53048843D01*
X61906948Y-53048843D02*
X61959284Y-53091224D01*
X61959284Y-53091224D02*
X62001664Y-53038888D01*
X62001664Y-53038888D02*
X61949328Y-52996507D01*
X61949328Y-52996507D02*
X61959284Y-53091224D01*
X62315678Y-53293172D02*
X62694544Y-53253351D01*
X62422910Y-52946732D02*
X62512506Y-53799179D01*
X62512506Y-53799179D02*
X62569819Y-53888918D01*
X62569819Y-53888918D02*
X62669513Y-53926321D01*
X62669513Y-53926321D02*
X62764229Y-53916366D01*
X63516983Y-53789367D02*
X63427244Y-53846680D01*
X63427244Y-53846680D02*
X63237811Y-53866591D01*
X63237811Y-53866591D02*
X63138118Y-53829187D01*
X63138118Y-53829187D02*
X63085782Y-53786807D01*
X63085782Y-53786807D02*
X63028469Y-53697068D01*
X63028469Y-53697068D02*
X62998603Y-53412919D01*
X62998603Y-53412919D02*
X63036006Y-53313225D01*
X63036006Y-53313225D02*
X63078387Y-53260889D01*
X63078387Y-53260889D02*
X63168126Y-53203576D01*
X63168126Y-53203576D02*
X63357559Y-53183666D01*
X63357559Y-53183666D02*
X63457252Y-53221069D01*
X63948184Y-53791927D02*
X63843656Y-52797405D01*
X64374408Y-53747129D02*
X64319655Y-53226189D01*
X64319655Y-53226189D02*
X64262342Y-53136451D01*
X64262342Y-53136451D02*
X64162648Y-53099047D01*
X64162648Y-53099047D02*
X64020573Y-53113980D01*
X64020573Y-53113980D02*
X63930834Y-53171293D01*
X63930834Y-53171293D02*
X63888454Y-53223629D01*
X58811251Y-45234385D02*
X58958303Y-45266811D01*
X58958303Y-45266811D02*
X59195094Y-45241923D01*
X59195094Y-45241923D02*
X59284833Y-45184610D01*
X59284833Y-45184610D02*
X59327214Y-45132274D01*
X59327214Y-45132274D02*
X59364617Y-45032580D01*
X59364617Y-45032580D02*
X59354662Y-44937863D01*
X59354662Y-44937863D02*
X59297348Y-44848125D01*
X59297348Y-44848125D02*
X59245013Y-44805744D01*
X59245013Y-44805744D02*
X59145319Y-44768341D01*
X59145319Y-44768341D02*
X58950908Y-44740893D01*
X58950908Y-44740893D02*
X58851214Y-44703490D01*
X58851214Y-44703490D02*
X58798879Y-44661109D01*
X58798879Y-44661109D02*
X58741565Y-44571370D01*
X58741565Y-44571370D02*
X58731610Y-44476654D01*
X58731610Y-44476654D02*
X58769013Y-44376960D01*
X58769013Y-44376960D02*
X58811394Y-44324624D01*
X58811394Y-44324624D02*
X58901133Y-44267311D01*
X58901133Y-44267311D02*
X59137924Y-44242423D01*
X59137924Y-44242423D02*
X59284976Y-44274849D01*
X59668819Y-44282387D02*
X59711200Y-44230051D01*
X59711200Y-44230051D02*
X59800938Y-44172738D01*
X59800938Y-44172738D02*
X60037729Y-44147850D01*
X60037729Y-44147850D02*
X60137423Y-44185253D01*
X60137423Y-44185253D02*
X60189759Y-44227634D01*
X60189759Y-44227634D02*
X60247072Y-44317373D01*
X60247072Y-44317373D02*
X60257027Y-44412089D01*
X60257027Y-44412089D02*
X60224602Y-44559141D01*
X60224602Y-44559141D02*
X59716034Y-45187170D01*
X59716034Y-45187170D02*
X60331691Y-45122462D01*
X60840258Y-44494433D02*
X60740564Y-44457030D01*
X60740564Y-44457030D02*
X60688229Y-44414649D01*
X60688229Y-44414649D02*
X60630915Y-44324910D01*
X60630915Y-44324910D02*
X60625938Y-44277552D01*
X60625938Y-44277552D02*
X60663341Y-44177858D01*
X60663341Y-44177858D02*
X60705722Y-44125523D01*
X60705722Y-44125523D02*
X60795460Y-44068209D01*
X60795460Y-44068209D02*
X60984893Y-44048299D01*
X60984893Y-44048299D02*
X61084587Y-44085702D01*
X61084587Y-44085702D02*
X61136923Y-44128083D01*
X61136923Y-44128083D02*
X61194236Y-44217822D01*
X61194236Y-44217822D02*
X61199214Y-44265180D01*
X61199214Y-44265180D02*
X61161811Y-44364874D01*
X61161811Y-44364874D02*
X61119430Y-44417209D01*
X61119430Y-44417209D02*
X61029691Y-44474523D01*
X61029691Y-44474523D02*
X60840258Y-44494433D01*
X60840258Y-44494433D02*
X60750520Y-44551746D01*
X60750520Y-44551746D02*
X60708139Y-44604082D01*
X60708139Y-44604082D02*
X60670736Y-44703776D01*
X60670736Y-44703776D02*
X60690646Y-44893209D01*
X60690646Y-44893209D02*
X60747959Y-44982947D01*
X60747959Y-44982947D02*
X60800295Y-45025328D01*
X60800295Y-45025328D02*
X60899989Y-45062731D01*
X60899989Y-45062731D02*
X61089422Y-45042821D01*
X61089422Y-45042821D02*
X61179160Y-44985508D01*
X61179160Y-44985508D02*
X61221541Y-44933172D01*
X61221541Y-44933172D02*
X61258944Y-44833478D01*
X61258944Y-44833478D02*
X61239034Y-44644045D01*
X61239034Y-44644045D02*
X61181721Y-44554306D01*
X61181721Y-44554306D02*
X61129385Y-44511926D01*
X61129385Y-44511926D02*
X61029691Y-44474523D01*
X37595238Y-254819D02*
X37595238Y745180D01*
X38166666Y-254819D02*
X37738095Y316609D01*
X38166666Y745180D02*
X37595238Y173752D01*
X38976190Y-207200D02*
X38880952Y-254819D01*
X38880952Y-254819D02*
X38690476Y-254819D01*
X38690476Y-254819D02*
X38595238Y-207200D01*
X38595238Y-207200D02*
X38547619Y-111961D01*
X38547619Y-111961D02*
X38547619Y268990D01*
X38547619Y268990D02*
X38595238Y364228D01*
X38595238Y364228D02*
X38690476Y411847D01*
X38690476Y411847D02*
X38880952Y411847D01*
X38880952Y411847D02*
X38976190Y364228D01*
X38976190Y364228D02*
X39023809Y268990D01*
X39023809Y268990D02*
X39023809Y173752D01*
X39023809Y173752D02*
X38547619Y78514D01*
X39357143Y411847D02*
X39595238Y-254819D01*
X39833333Y411847D02*
X39595238Y-254819D01*
X39595238Y-254819D02*
X39500000Y-492914D01*
X39500000Y-492914D02*
X39452381Y-540533D01*
X39452381Y-540533D02*
X39357143Y-588152D01*
X40166667Y-207200D02*
X40261905Y-254819D01*
X40261905Y-254819D02*
X40452381Y-254819D01*
X40452381Y-254819D02*
X40547619Y-207200D01*
X40547619Y-207200D02*
X40595238Y-111961D01*
X40595238Y-111961D02*
X40595238Y-64342D01*
X40595238Y-64342D02*
X40547619Y30895D01*
X40547619Y30895D02*
X40452381Y78514D01*
X40452381Y78514D02*
X40309524Y78514D01*
X40309524Y78514D02*
X40214286Y126133D01*
X40214286Y126133D02*
X40166667Y221371D01*
X40166667Y221371D02*
X40166667Y268990D01*
X40166667Y268990D02*
X40214286Y364228D01*
X40214286Y364228D02*
X40309524Y411847D01*
X40309524Y411847D02*
X40452381Y411847D01*
X40452381Y411847D02*
X40547619Y364228D01*
X40928572Y411847D02*
X41119048Y-254819D01*
X41119048Y-254819D02*
X41309524Y221371D01*
X41309524Y221371D02*
X41500000Y-254819D01*
X41500000Y-254819D02*
X41690476Y411847D01*
X42071429Y-254819D02*
X42071429Y411847D01*
X42071429Y745180D02*
X42023810Y697561D01*
X42023810Y697561D02*
X42071429Y649942D01*
X42071429Y649942D02*
X42119048Y697561D01*
X42119048Y697561D02*
X42071429Y745180D01*
X42071429Y745180D02*
X42071429Y649942D01*
X42404762Y411847D02*
X42785714Y411847D01*
X42547619Y745180D02*
X42547619Y-111961D01*
X42547619Y-111961D02*
X42595238Y-207200D01*
X42595238Y-207200D02*
X42690476Y-254819D01*
X42690476Y-254819D02*
X42785714Y-254819D01*
X43547619Y-207200D02*
X43452381Y-254819D01*
X43452381Y-254819D02*
X43261905Y-254819D01*
X43261905Y-254819D02*
X43166667Y-207200D01*
X43166667Y-207200D02*
X43119048Y-159580D01*
X43119048Y-159580D02*
X43071429Y-64342D01*
X43071429Y-64342D02*
X43071429Y221371D01*
X43071429Y221371D02*
X43119048Y316609D01*
X43119048Y316609D02*
X43166667Y364228D01*
X43166667Y364228D02*
X43261905Y411847D01*
X43261905Y411847D02*
X43452381Y411847D01*
X43452381Y411847D02*
X43547619Y364228D01*
X43976191Y-254819D02*
X43976191Y745180D01*
X44404762Y-254819D02*
X44404762Y268990D01*
X44404762Y268990D02*
X44357143Y364228D01*
X44357143Y364228D02*
X44261905Y411847D01*
X44261905Y411847D02*
X44119048Y411847D01*
X44119048Y411847D02*
X44023810Y364228D01*
X44023810Y364228D02*
X43976191Y316609D01*
X40238095Y8792800D02*
X40380952Y8745180D01*
X40380952Y8745180D02*
X40619047Y8745180D01*
X40619047Y8745180D02*
X40714285Y8792800D01*
X40714285Y8792800D02*
X40761904Y8840419D01*
X40761904Y8840419D02*
X40809523Y8935657D01*
X40809523Y8935657D02*
X40809523Y9030895D01*
X40809523Y9030895D02*
X40761904Y9126133D01*
X40761904Y9126133D02*
X40714285Y9173752D01*
X40714285Y9173752D02*
X40619047Y9221371D01*
X40619047Y9221371D02*
X40428571Y9268990D01*
X40428571Y9268990D02*
X40333333Y9316609D01*
X40333333Y9316609D02*
X40285714Y9364228D01*
X40285714Y9364228D02*
X40238095Y9459466D01*
X40238095Y9459466D02*
X40238095Y9554704D01*
X40238095Y9554704D02*
X40285714Y9649942D01*
X40285714Y9649942D02*
X40333333Y9697561D01*
X40333333Y9697561D02*
X40428571Y9745180D01*
X40428571Y9745180D02*
X40666666Y9745180D01*
X40666666Y9745180D02*
X40809523Y9697561D01*
X41142857Y9745180D02*
X41809523Y9745180D01*
X41809523Y9745180D02*
X41380952Y8745180D01*
X-26374407Y-64047129D02*
X-26269879Y-63052608D01*
X-25806109Y-64106860D02*
X-26172602Y-63493764D01*
X-25701580Y-63112338D02*
X-26329609Y-63620906D01*
X-24996042Y-64144120D02*
X-25095736Y-64181523D01*
X-25095736Y-64181523D02*
X-25285169Y-64161613D01*
X-25285169Y-64161613D02*
X-25374908Y-64104300D01*
X-25374908Y-64104300D02*
X-25412311Y-64004606D01*
X-25412311Y-64004606D02*
X-25372490Y-63625740D01*
X-25372490Y-63625740D02*
X-25315177Y-63536002D01*
X-25315177Y-63536002D02*
X-25215483Y-63498598D01*
X-25215483Y-63498598D02*
X-25026051Y-63518509D01*
X-25026051Y-63518509D02*
X-24936312Y-63575822D01*
X-24936312Y-63575822D02*
X-24898909Y-63675516D01*
X-24898909Y-63675516D02*
X-24908864Y-63770232D01*
X-24908864Y-63770232D02*
X-25392401Y-63815173D01*
X-24552469Y-63568284D02*
X-24385363Y-64256186D01*
X-24078887Y-63618060D02*
X-24385363Y-64256186D01*
X-24385363Y-64256186D02*
X-24504967Y-64483022D01*
X-24504967Y-64483022D02*
X-24557303Y-64525403D01*
X-24557303Y-64525403D02*
X-24656997Y-64562806D01*
X-23812087Y-64268559D02*
X-23722348Y-64325872D01*
X-23722348Y-64325872D02*
X-23532916Y-64345782D01*
X-23532916Y-64345782D02*
X-23433222Y-64308379D01*
X-23433222Y-64308379D02*
X-23375908Y-64218640D01*
X-23375908Y-64218640D02*
X-23370931Y-64171282D01*
X-23370931Y-64171282D02*
X-23408334Y-64071588D01*
X-23408334Y-64071588D02*
X-23498073Y-64014275D01*
X-23498073Y-64014275D02*
X-23640147Y-63999342D01*
X-23640147Y-63999342D02*
X-23729886Y-63942029D01*
X-23729886Y-63942029D02*
X-23767289Y-63842335D01*
X-23767289Y-63842335D02*
X-23762312Y-63794977D01*
X-23762312Y-63794977D02*
X-23704998Y-63705238D01*
X-23704998Y-63705238D02*
X-23605305Y-63667835D01*
X-23605305Y-63667835D02*
X-23463230Y-63682768D01*
X-23463230Y-63682768D02*
X-23373491Y-63740081D01*
X-22989648Y-63732543D02*
X-22869901Y-64415468D01*
X-22869901Y-64415468D02*
X-22630693Y-63961796D01*
X-22630693Y-63961796D02*
X-22491035Y-64455288D01*
X-22491035Y-64455288D02*
X-22231917Y-63812184D01*
X-21922737Y-64515019D02*
X-21853052Y-63852004D01*
X-21818209Y-63520497D02*
X-21870544Y-63562878D01*
X-21870544Y-63562878D02*
X-21828164Y-63615213D01*
X-21828164Y-63615213D02*
X-21775828Y-63572833D01*
X-21775828Y-63572833D02*
X-21818209Y-63520497D01*
X-21818209Y-63520497D02*
X-21828164Y-63615213D01*
X-21521545Y-63886847D02*
X-21142679Y-63926667D01*
X-21344627Y-63570272D02*
X-21434223Y-64422720D01*
X-21434223Y-64422720D02*
X-21396820Y-64522414D01*
X-21396820Y-64522414D02*
X-21307081Y-64579727D01*
X-21307081Y-64579727D02*
X-21212365Y-64589682D01*
X-20449656Y-64621965D02*
X-20549350Y-64659368D01*
X-20549350Y-64659368D02*
X-20738783Y-64639457D01*
X-20738783Y-64639457D02*
X-20828521Y-64582144D01*
X-20828521Y-64582144D02*
X-20870902Y-64529808D01*
X-20870902Y-64529808D02*
X-20908305Y-64430115D01*
X-20908305Y-64430115D02*
X-20878440Y-64145965D01*
X-20878440Y-64145965D02*
X-20821127Y-64056227D01*
X-20821127Y-64056227D02*
X-20768791Y-64013846D01*
X-20768791Y-64013846D02*
X-20669097Y-63976443D01*
X-20669097Y-63976443D02*
X-20479664Y-63996353D01*
X-20479664Y-63996353D02*
X-20389925Y-64053666D01*
X-20028410Y-64714121D02*
X-19923881Y-63719599D01*
X-19602186Y-64758919D02*
X-19547433Y-64237979D01*
X-19547433Y-64237979D02*
X-19584836Y-64138285D01*
X-19584836Y-64138285D02*
X-19674575Y-64080971D01*
X-19674575Y-64080971D02*
X-19816649Y-64066039D01*
X-19816649Y-64066039D02*
X-19916343Y-64103442D01*
X-19916343Y-64103442D02*
X-19968679Y-64145822D01*
X-23273876Y-55275553D02*
X-23136779Y-55337843D01*
X-23136779Y-55337843D02*
X-22899988Y-55362731D01*
X-22899988Y-55362731D02*
X-22800294Y-55325328D01*
X-22800294Y-55325328D02*
X-22747958Y-55282947D01*
X-22747958Y-55282947D02*
X-22690645Y-55193209D01*
X-22690645Y-55193209D02*
X-22680690Y-55098492D01*
X-22680690Y-55098492D02*
X-22718093Y-54998798D01*
X-22718093Y-54998798D02*
X-22760474Y-54946463D01*
X-22760474Y-54946463D02*
X-22850212Y-54889149D01*
X-22850212Y-54889149D02*
X-23034668Y-54821881D01*
X-23034668Y-54821881D02*
X-23124407Y-54764568D01*
X-23124407Y-54764568D02*
X-23166787Y-54712232D01*
X-23166787Y-54712232D02*
X-23204190Y-54612538D01*
X-23204190Y-54612538D02*
X-23194235Y-54517822D01*
X-23194235Y-54517822D02*
X-23136922Y-54428083D01*
X-23136922Y-54428083D02*
X-23084586Y-54385702D01*
X-23084586Y-54385702D02*
X-22984892Y-54348299D01*
X-22984892Y-54348299D02*
X-22748101Y-54373187D01*
X-22748101Y-54373187D02*
X-22611004Y-54435478D01*
X-22237116Y-54522656D02*
X-22184781Y-54480276D01*
X-22184781Y-54480276D02*
X-22085087Y-54442873D01*
X-22085087Y-54442873D02*
X-21848296Y-54467760D01*
X-21848296Y-54467760D02*
X-21758557Y-54525074D01*
X-21758557Y-54525074D02*
X-21716176Y-54577409D01*
X-21716176Y-54577409D02*
X-21678773Y-54677103D01*
X-21678773Y-54677103D02*
X-21688728Y-54771820D01*
X-21688728Y-54771820D02*
X-21751019Y-54908917D01*
X-21751019Y-54908917D02*
X-22379048Y-55417484D01*
X-22379048Y-55417484D02*
X-21763391Y-55482192D01*
X-20759057Y-54582244D02*
X-21232639Y-54532468D01*
X-21232639Y-54532468D02*
X-21329773Y-55001073D01*
X-21329773Y-55001073D02*
X-21277437Y-54958692D01*
X-21277437Y-54958692D02*
X-21177743Y-54921289D01*
X-21177743Y-54921289D02*
X-20940952Y-54946177D01*
X-20940952Y-54946177D02*
X-20851214Y-55003490D01*
X-20851214Y-55003490D02*
X-20808833Y-55055826D01*
X-20808833Y-55055826D02*
X-20771430Y-55155520D01*
X-20771430Y-55155520D02*
X-20796318Y-55392311D01*
X-20796318Y-55392311D02*
X-20853631Y-55482049D01*
X-20853631Y-55482049D02*
X-20905967Y-55524430D01*
X-20905967Y-55524430D02*
X-21005660Y-55561833D01*
X-21005660Y-55561833D02*
X-21242451Y-55536945D01*
X-21242451Y-55536945D02*
X-21332190Y-55479632D01*
X-21332190Y-55479632D02*
X-21374571Y-55427296D01*
X38602187Y-50758919D02*
X38497658Y-49764397D01*
X39170485Y-50699188D02*
X38684531Y-50175688D01*
X39065957Y-49704666D02*
X38557389Y-50332695D01*
X39970597Y-50567212D02*
X39880858Y-50624525D01*
X39880858Y-50624525D02*
X39691425Y-50644435D01*
X39691425Y-50644435D02*
X39591731Y-50607032D01*
X39591731Y-50607032D02*
X39534418Y-50517293D01*
X39534418Y-50517293D02*
X39494598Y-50138428D01*
X39494598Y-50138428D02*
X39532001Y-50038734D01*
X39532001Y-50038734D02*
X39621740Y-49981420D01*
X39621740Y-49981420D02*
X39811172Y-49961510D01*
X39811172Y-49961510D02*
X39910866Y-49998913D01*
X39910866Y-49998913D02*
X39968179Y-50088652D01*
X39968179Y-50088652D02*
X39978135Y-50183368D01*
X39978135Y-50183368D02*
X39514508Y-50327860D01*
X40284754Y-49911735D02*
X40591231Y-50549862D01*
X40758336Y-49861959D02*
X40591231Y-50549862D01*
X40591231Y-50549862D02*
X40521402Y-50796608D01*
X40521402Y-50796608D02*
X40479022Y-50848943D01*
X40479022Y-50848943D02*
X40389283Y-50906257D01*
X41154552Y-50442773D02*
X41254246Y-50480176D01*
X41254246Y-50480176D02*
X41443678Y-50460266D01*
X41443678Y-50460266D02*
X41533417Y-50402952D01*
X41533417Y-50402952D02*
X41570820Y-50303259D01*
X41570820Y-50303259D02*
X41565843Y-50255900D01*
X41565843Y-50255900D02*
X41508530Y-50166162D01*
X41508530Y-50166162D02*
X41408836Y-50128758D01*
X41408836Y-50128758D02*
X41266761Y-50143691D01*
X41266761Y-50143691D02*
X41167067Y-50106288D01*
X41167067Y-50106288D02*
X41109754Y-50016549D01*
X41109754Y-50016549D02*
X41104776Y-49969191D01*
X41104776Y-49969191D02*
X41142179Y-49869497D01*
X41142179Y-49869497D02*
X41231918Y-49812184D01*
X41231918Y-49812184D02*
X41373993Y-49797251D01*
X41373993Y-49797251D02*
X41473687Y-49834654D01*
X41847575Y-49747476D02*
X42106693Y-50390580D01*
X42106693Y-50390580D02*
X42246350Y-49897088D01*
X42246350Y-49897088D02*
X42485559Y-50350760D01*
X42485559Y-50350760D02*
X42605306Y-49667835D01*
X43053857Y-50291029D02*
X42984171Y-49628015D01*
X42949328Y-49296507D02*
X42906948Y-49348843D01*
X42906948Y-49348843D02*
X42959284Y-49391224D01*
X42959284Y-49391224D02*
X43001664Y-49338888D01*
X43001664Y-49338888D02*
X42949328Y-49296507D01*
X42949328Y-49296507D02*
X42959284Y-49391224D01*
X43315678Y-49593172D02*
X43694544Y-49553351D01*
X43422910Y-49246732D02*
X43512506Y-50099179D01*
X43512506Y-50099179D02*
X43569819Y-50188918D01*
X43569819Y-50188918D02*
X43669513Y-50226321D01*
X43669513Y-50226321D02*
X43764229Y-50216366D01*
X44516983Y-50089367D02*
X44427244Y-50146680D01*
X44427244Y-50146680D02*
X44237811Y-50166591D01*
X44237811Y-50166591D02*
X44138118Y-50129187D01*
X44138118Y-50129187D02*
X44085782Y-50086807D01*
X44085782Y-50086807D02*
X44028469Y-49997068D01*
X44028469Y-49997068D02*
X43998603Y-49712919D01*
X43998603Y-49712919D02*
X44036006Y-49613225D01*
X44036006Y-49613225D02*
X44078387Y-49560889D01*
X44078387Y-49560889D02*
X44168126Y-49503576D01*
X44168126Y-49503576D02*
X44357559Y-49483666D01*
X44357559Y-49483666D02*
X44457252Y-49521069D01*
X44948184Y-50091927D02*
X44843656Y-49097405D01*
X45374408Y-50047129D02*
X45319655Y-49526189D01*
X45319655Y-49526189D02*
X45262342Y-49436451D01*
X45262342Y-49436451D02*
X45162648Y-49399047D01*
X45162648Y-49399047D02*
X45020573Y-49413980D01*
X45020573Y-49413980D02*
X44930834Y-49471293D01*
X44930834Y-49471293D02*
X44888454Y-49523629D01*
X39811251Y-41534385D02*
X39958303Y-41566811D01*
X39958303Y-41566811D02*
X40195094Y-41541923D01*
X40195094Y-41541923D02*
X40284833Y-41484610D01*
X40284833Y-41484610D02*
X40327214Y-41432274D01*
X40327214Y-41432274D02*
X40364617Y-41332580D01*
X40364617Y-41332580D02*
X40354662Y-41237863D01*
X40354662Y-41237863D02*
X40297348Y-41148125D01*
X40297348Y-41148125D02*
X40245013Y-41105744D01*
X40245013Y-41105744D02*
X40145319Y-41068341D01*
X40145319Y-41068341D02*
X39950908Y-41040893D01*
X39950908Y-41040893D02*
X39851214Y-41003490D01*
X39851214Y-41003490D02*
X39798879Y-40961109D01*
X39798879Y-40961109D02*
X39741565Y-40871370D01*
X39741565Y-40871370D02*
X39731610Y-40776654D01*
X39731610Y-40776654D02*
X39769013Y-40676960D01*
X39769013Y-40676960D02*
X39811394Y-40624624D01*
X39811394Y-40624624D02*
X39901133Y-40567311D01*
X39901133Y-40567311D02*
X40137924Y-40542423D01*
X40137924Y-40542423D02*
X40284976Y-40574849D01*
X40668819Y-40582387D02*
X40711200Y-40530051D01*
X40711200Y-40530051D02*
X40800938Y-40472738D01*
X40800938Y-40472738D02*
X41037729Y-40447850D01*
X41037729Y-40447850D02*
X41137423Y-40485253D01*
X41137423Y-40485253D02*
X41189759Y-40527634D01*
X41189759Y-40527634D02*
X41247072Y-40617373D01*
X41247072Y-40617373D02*
X41257027Y-40712089D01*
X41257027Y-40712089D02*
X41224602Y-40859141D01*
X41224602Y-40859141D02*
X40716034Y-41487170D01*
X40716034Y-41487170D02*
X41331691Y-41422462D01*
X41558670Y-40393097D02*
X42221684Y-40323411D01*
X42221684Y-40323411D02*
X41899989Y-41362731D01*
X56595238Y-9454819D02*
X56595238Y-8454819D01*
X57166666Y-9454819D02*
X56738095Y-8883390D01*
X57166666Y-8454819D02*
X56595238Y-9026247D01*
X57976190Y-9407200D02*
X57880952Y-9454819D01*
X57880952Y-9454819D02*
X57690476Y-9454819D01*
X57690476Y-9454819D02*
X57595238Y-9407200D01*
X57595238Y-9407200D02*
X57547619Y-9311961D01*
X57547619Y-9311961D02*
X57547619Y-8931009D01*
X57547619Y-8931009D02*
X57595238Y-8835771D01*
X57595238Y-8835771D02*
X57690476Y-8788152D01*
X57690476Y-8788152D02*
X57880952Y-8788152D01*
X57880952Y-8788152D02*
X57976190Y-8835771D01*
X57976190Y-8835771D02*
X58023809Y-8931009D01*
X58023809Y-8931009D02*
X58023809Y-9026247D01*
X58023809Y-9026247D02*
X57547619Y-9121485D01*
X58357143Y-8788152D02*
X58595238Y-9454819D01*
X58833333Y-8788152D02*
X58595238Y-9454819D01*
X58595238Y-9454819D02*
X58500000Y-9692914D01*
X58500000Y-9692914D02*
X58452381Y-9740533D01*
X58452381Y-9740533D02*
X58357143Y-9788152D01*
X59166667Y-9407200D02*
X59261905Y-9454819D01*
X59261905Y-9454819D02*
X59452381Y-9454819D01*
X59452381Y-9454819D02*
X59547619Y-9407200D01*
X59547619Y-9407200D02*
X59595238Y-9311961D01*
X59595238Y-9311961D02*
X59595238Y-9264342D01*
X59595238Y-9264342D02*
X59547619Y-9169104D01*
X59547619Y-9169104D02*
X59452381Y-9121485D01*
X59452381Y-9121485D02*
X59309524Y-9121485D01*
X59309524Y-9121485D02*
X59214286Y-9073866D01*
X59214286Y-9073866D02*
X59166667Y-8978628D01*
X59166667Y-8978628D02*
X59166667Y-8931009D01*
X59166667Y-8931009D02*
X59214286Y-8835771D01*
X59214286Y-8835771D02*
X59309524Y-8788152D01*
X59309524Y-8788152D02*
X59452381Y-8788152D01*
X59452381Y-8788152D02*
X59547619Y-8835771D01*
X59928572Y-8788152D02*
X60119048Y-9454819D01*
X60119048Y-9454819D02*
X60309524Y-8978628D01*
X60309524Y-8978628D02*
X60500000Y-9454819D01*
X60500000Y-9454819D02*
X60690476Y-8788152D01*
X61071429Y-9454819D02*
X61071429Y-8788152D01*
X61071429Y-8454819D02*
X61023810Y-8502438D01*
X61023810Y-8502438D02*
X61071429Y-8550057D01*
X61071429Y-8550057D02*
X61119048Y-8502438D01*
X61119048Y-8502438D02*
X61071429Y-8454819D01*
X61071429Y-8454819D02*
X61071429Y-8550057D01*
X61404762Y-8788152D02*
X61785714Y-8788152D01*
X61547619Y-8454819D02*
X61547619Y-9311961D01*
X61547619Y-9311961D02*
X61595238Y-9407200D01*
X61595238Y-9407200D02*
X61690476Y-9454819D01*
X61690476Y-9454819D02*
X61785714Y-9454819D01*
X62547619Y-9407200D02*
X62452381Y-9454819D01*
X62452381Y-9454819D02*
X62261905Y-9454819D01*
X62261905Y-9454819D02*
X62166667Y-9407200D01*
X62166667Y-9407200D02*
X62119048Y-9359580D01*
X62119048Y-9359580D02*
X62071429Y-9264342D01*
X62071429Y-9264342D02*
X62071429Y-8978628D01*
X62071429Y-8978628D02*
X62119048Y-8883390D01*
X62119048Y-8883390D02*
X62166667Y-8835771D01*
X62166667Y-8835771D02*
X62261905Y-8788152D01*
X62261905Y-8788152D02*
X62452381Y-8788152D01*
X62452381Y-8788152D02*
X62547619Y-8835771D01*
X62976191Y-9454819D02*
X62976191Y-8454819D01*
X63404762Y-9454819D02*
X63404762Y-8931009D01*
X63404762Y-8931009D02*
X63357143Y-8835771D01*
X63357143Y-8835771D02*
X63261905Y-8788152D01*
X63261905Y-8788152D02*
X63119048Y-8788152D01*
X63119048Y-8788152D02*
X63023810Y-8835771D01*
X63023810Y-8835771D02*
X62976191Y-8883390D01*
X58761905Y-407200D02*
X58904762Y-454819D01*
X58904762Y-454819D02*
X59142857Y-454819D01*
X59142857Y-454819D02*
X59238095Y-407200D01*
X59238095Y-407200D02*
X59285714Y-359580D01*
X59285714Y-359580D02*
X59333333Y-264342D01*
X59333333Y-264342D02*
X59333333Y-169104D01*
X59333333Y-169104D02*
X59285714Y-73866D01*
X59285714Y-73866D02*
X59238095Y-26247D01*
X59238095Y-26247D02*
X59142857Y21371D01*
X59142857Y21371D02*
X58952381Y68990D01*
X58952381Y68990D02*
X58857143Y116609D01*
X58857143Y116609D02*
X58809524Y164228D01*
X58809524Y164228D02*
X58761905Y259466D01*
X58761905Y259466D02*
X58761905Y354704D01*
X58761905Y354704D02*
X58809524Y449942D01*
X58809524Y449942D02*
X58857143Y497561D01*
X58857143Y497561D02*
X58952381Y545180D01*
X58952381Y545180D02*
X59190476Y545180D01*
X59190476Y545180D02*
X59333333Y497561D01*
X60285714Y-454819D02*
X59714286Y-454819D01*
X60000000Y-454819D02*
X60000000Y545180D01*
X60000000Y545180D02*
X59904762Y402323D01*
X59904762Y402323D02*
X59809524Y307085D01*
X59809524Y307085D02*
X59714286Y259466D01*
X60761905Y-454819D02*
X60952381Y-454819D01*
X60952381Y-454819D02*
X61047619Y-407200D01*
X61047619Y-407200D02*
X61095238Y-359580D01*
X61095238Y-359580D02*
X61190476Y-216723D01*
X61190476Y-216723D02*
X61238095Y-26247D01*
X61238095Y-26247D02*
X61238095Y354704D01*
X61238095Y354704D02*
X61190476Y449942D01*
X61190476Y449942D02*
X61142857Y497561D01*
X61142857Y497561D02*
X61047619Y545180D01*
X61047619Y545180D02*
X60857143Y545180D01*
X60857143Y545180D02*
X60761905Y497561D01*
X60761905Y497561D02*
X60714286Y449942D01*
X60714286Y449942D02*
X60666667Y354704D01*
X60666667Y354704D02*
X60666667Y116609D01*
X60666667Y116609D02*
X60714286Y21371D01*
X60714286Y21371D02*
X60761905Y-26247D01*
X60761905Y-26247D02*
X60857143Y-73866D01*
X60857143Y-73866D02*
X61047619Y-73866D01*
X61047619Y-73866D02*
X61142857Y-26247D01*
X61142857Y-26247D02*
X61190476Y21371D01*
X61190476Y21371D02*
X61238095Y116609D01*
X-25404761Y-18254819D02*
X-25404761Y-17254819D01*
X-24833333Y-18254819D02*
X-25261904Y-17683390D01*
X-24833333Y-17254819D02*
X-25404761Y-17826247D01*
X-24023809Y-18207200D02*
X-24119047Y-18254819D01*
X-24119047Y-18254819D02*
X-24309523Y-18254819D01*
X-24309523Y-18254819D02*
X-24404761Y-18207200D01*
X-24404761Y-18207200D02*
X-24452380Y-18111961D01*
X-24452380Y-18111961D02*
X-24452380Y-17731009D01*
X-24452380Y-17731009D02*
X-24404761Y-17635771D01*
X-24404761Y-17635771D02*
X-24309523Y-17588152D01*
X-24309523Y-17588152D02*
X-24119047Y-17588152D01*
X-24119047Y-17588152D02*
X-24023809Y-17635771D01*
X-24023809Y-17635771D02*
X-23976190Y-17731009D01*
X-23976190Y-17731009D02*
X-23976190Y-17826247D01*
X-23976190Y-17826247D02*
X-24452380Y-17921485D01*
X-23642856Y-17588152D02*
X-23404761Y-18254819D01*
X-23166666Y-17588152D02*
X-23404761Y-18254819D01*
X-23404761Y-18254819D02*
X-23499999Y-18492914D01*
X-23499999Y-18492914D02*
X-23547618Y-18540533D01*
X-23547618Y-18540533D02*
X-23642856Y-18588152D01*
X-22833332Y-18207200D02*
X-22738094Y-18254819D01*
X-22738094Y-18254819D02*
X-22547618Y-18254819D01*
X-22547618Y-18254819D02*
X-22452380Y-18207200D01*
X-22452380Y-18207200D02*
X-22404761Y-18111961D01*
X-22404761Y-18111961D02*
X-22404761Y-18064342D01*
X-22404761Y-18064342D02*
X-22452380Y-17969104D01*
X-22452380Y-17969104D02*
X-22547618Y-17921485D01*
X-22547618Y-17921485D02*
X-22690475Y-17921485D01*
X-22690475Y-17921485D02*
X-22785713Y-17873866D01*
X-22785713Y-17873866D02*
X-22833332Y-17778628D01*
X-22833332Y-17778628D02*
X-22833332Y-17731009D01*
X-22833332Y-17731009D02*
X-22785713Y-17635771D01*
X-22785713Y-17635771D02*
X-22690475Y-17588152D01*
X-22690475Y-17588152D02*
X-22547618Y-17588152D01*
X-22547618Y-17588152D02*
X-22452380Y-17635771D01*
X-22071427Y-17588152D02*
X-21880951Y-18254819D01*
X-21880951Y-18254819D02*
X-21690475Y-17778628D01*
X-21690475Y-17778628D02*
X-21499999Y-18254819D01*
X-21499999Y-18254819D02*
X-21309523Y-17588152D01*
X-20928570Y-18254819D02*
X-20928570Y-17588152D01*
X-20928570Y-17254819D02*
X-20976189Y-17302438D01*
X-20976189Y-17302438D02*
X-20928570Y-17350057D01*
X-20928570Y-17350057D02*
X-20880951Y-17302438D01*
X-20880951Y-17302438D02*
X-20928570Y-17254819D01*
X-20928570Y-17254819D02*
X-20928570Y-17350057D01*
X-20595237Y-17588152D02*
X-20214285Y-17588152D01*
X-20452380Y-17254819D02*
X-20452380Y-18111961D01*
X-20452380Y-18111961D02*
X-20404761Y-18207200D01*
X-20404761Y-18207200D02*
X-20309523Y-18254819D01*
X-20309523Y-18254819D02*
X-20214285Y-18254819D01*
X-19452380Y-18207200D02*
X-19547618Y-18254819D01*
X-19547618Y-18254819D02*
X-19738094Y-18254819D01*
X-19738094Y-18254819D02*
X-19833332Y-18207200D01*
X-19833332Y-18207200D02*
X-19880951Y-18159580D01*
X-19880951Y-18159580D02*
X-19928570Y-18064342D01*
X-19928570Y-18064342D02*
X-19928570Y-17778628D01*
X-19928570Y-17778628D02*
X-19880951Y-17683390D01*
X-19880951Y-17683390D02*
X-19833332Y-17635771D01*
X-19833332Y-17635771D02*
X-19738094Y-17588152D01*
X-19738094Y-17588152D02*
X-19547618Y-17588152D01*
X-19547618Y-17588152D02*
X-19452380Y-17635771D01*
X-19023808Y-18254819D02*
X-19023808Y-17254819D01*
X-18595237Y-18254819D02*
X-18595237Y-17731009D01*
X-18595237Y-17731009D02*
X-18642856Y-17635771D01*
X-18642856Y-17635771D02*
X-18738094Y-17588152D01*
X-18738094Y-17588152D02*
X-18880951Y-17588152D01*
X-18880951Y-17588152D02*
X-18976189Y-17635771D01*
X-18976189Y-17635771D02*
X-19023808Y-17683390D01*
X-23238094Y-9207200D02*
X-23095237Y-9254819D01*
X-23095237Y-9254819D02*
X-22857142Y-9254819D01*
X-22857142Y-9254819D02*
X-22761904Y-9207200D01*
X-22761904Y-9207200D02*
X-22714285Y-9159580D01*
X-22714285Y-9159580D02*
X-22666666Y-9064342D01*
X-22666666Y-9064342D02*
X-22666666Y-8969104D01*
X-22666666Y-8969104D02*
X-22714285Y-8873866D01*
X-22714285Y-8873866D02*
X-22761904Y-8826247D01*
X-22761904Y-8826247D02*
X-22857142Y-8778628D01*
X-22857142Y-8778628D02*
X-23047618Y-8731009D01*
X-23047618Y-8731009D02*
X-23142856Y-8683390D01*
X-23142856Y-8683390D02*
X-23190475Y-8635771D01*
X-23190475Y-8635771D02*
X-23238094Y-8540533D01*
X-23238094Y-8540533D02*
X-23238094Y-8445295D01*
X-23238094Y-8445295D02*
X-23190475Y-8350057D01*
X-23190475Y-8350057D02*
X-23142856Y-8302438D01*
X-23142856Y-8302438D02*
X-23047618Y-8254819D01*
X-23047618Y-8254819D02*
X-22809523Y-8254819D01*
X-22809523Y-8254819D02*
X-22666666Y-8302438D01*
X-21714285Y-9254819D02*
X-22285713Y-9254819D01*
X-21999999Y-9254819D02*
X-21999999Y-8254819D01*
X-21999999Y-8254819D02*
X-22095237Y-8397676D01*
X-22095237Y-8397676D02*
X-22190475Y-8492914D01*
X-22190475Y-8492914D02*
X-22285713Y-8540533D01*
X-20857142Y-8254819D02*
X-21047618Y-8254819D01*
X-21047618Y-8254819D02*
X-21142856Y-8302438D01*
X-21142856Y-8302438D02*
X-21190475Y-8350057D01*
X-21190475Y-8350057D02*
X-21285713Y-8492914D01*
X-21285713Y-8492914D02*
X-21333332Y-8683390D01*
X-21333332Y-8683390D02*
X-21333332Y-9064342D01*
X-21333332Y-9064342D02*
X-21285713Y-9159580D01*
X-21285713Y-9159580D02*
X-21238094Y-9207200D01*
X-21238094Y-9207200D02*
X-21142856Y-9254819D01*
X-21142856Y-9254819D02*
X-20952380Y-9254819D01*
X-20952380Y-9254819D02*
X-20857142Y-9207200D01*
X-20857142Y-9207200D02*
X-20809523Y-9159580D01*
X-20809523Y-9159580D02*
X-20761904Y-9064342D01*
X-20761904Y-9064342D02*
X-20761904Y-8826247D01*
X-20761904Y-8826247D02*
X-20809523Y-8731009D01*
X-20809523Y-8731009D02*
X-20857142Y-8683390D01*
X-20857142Y-8683390D02*
X-20952380Y-8635771D01*
X-20952380Y-8635771D02*
X-21142856Y-8635771D01*
X-21142856Y-8635771D02*
X-21238094Y-8683390D01*
X-21238094Y-8683390D02*
X-21285713Y-8731009D01*
X-21285713Y-8731009D02*
X-21333332Y-8826247D01*
X-25404761Y-254819D02*
X-25404761Y745180D01*
X-24833333Y-254819D02*
X-25261904Y316609D01*
X-24833333Y745180D02*
X-25404761Y173752D01*
X-24023809Y-207200D02*
X-24119047Y-254819D01*
X-24119047Y-254819D02*
X-24309523Y-254819D01*
X-24309523Y-254819D02*
X-24404761Y-207200D01*
X-24404761Y-207200D02*
X-24452380Y-111961D01*
X-24452380Y-111961D02*
X-24452380Y268990D01*
X-24452380Y268990D02*
X-24404761Y364228D01*
X-24404761Y364228D02*
X-24309523Y411847D01*
X-24309523Y411847D02*
X-24119047Y411847D01*
X-24119047Y411847D02*
X-24023809Y364228D01*
X-24023809Y364228D02*
X-23976190Y268990D01*
X-23976190Y268990D02*
X-23976190Y173752D01*
X-23976190Y173752D02*
X-24452380Y78514D01*
X-23642856Y411847D02*
X-23404761Y-254819D01*
X-23166666Y411847D02*
X-23404761Y-254819D01*
X-23404761Y-254819D02*
X-23499999Y-492914D01*
X-23499999Y-492914D02*
X-23547618Y-540533D01*
X-23547618Y-540533D02*
X-23642856Y-588152D01*
X-22833332Y-207200D02*
X-22738094Y-254819D01*
X-22738094Y-254819D02*
X-22547618Y-254819D01*
X-22547618Y-254819D02*
X-22452380Y-207200D01*
X-22452380Y-207200D02*
X-22404761Y-111961D01*
X-22404761Y-111961D02*
X-22404761Y-64342D01*
X-22404761Y-64342D02*
X-22452380Y30895D01*
X-22452380Y30895D02*
X-22547618Y78514D01*
X-22547618Y78514D02*
X-22690475Y78514D01*
X-22690475Y78514D02*
X-22785713Y126133D01*
X-22785713Y126133D02*
X-22833332Y221371D01*
X-22833332Y221371D02*
X-22833332Y268990D01*
X-22833332Y268990D02*
X-22785713Y364228D01*
X-22785713Y364228D02*
X-22690475Y411847D01*
X-22690475Y411847D02*
X-22547618Y411847D01*
X-22547618Y411847D02*
X-22452380Y364228D01*
X-22071427Y411847D02*
X-21880951Y-254819D01*
X-21880951Y-254819D02*
X-21690475Y221371D01*
X-21690475Y221371D02*
X-21499999Y-254819D01*
X-21499999Y-254819D02*
X-21309523Y411847D01*
X-20928570Y-254819D02*
X-20928570Y411847D01*
X-20928570Y745180D02*
X-20976189Y697561D01*
X-20976189Y697561D02*
X-20928570Y649942D01*
X-20928570Y649942D02*
X-20880951Y697561D01*
X-20880951Y697561D02*
X-20928570Y745180D01*
X-20928570Y745180D02*
X-20928570Y649942D01*
X-20595237Y411847D02*
X-20214285Y411847D01*
X-20452380Y745180D02*
X-20452380Y-111961D01*
X-20452380Y-111961D02*
X-20404761Y-207200D01*
X-20404761Y-207200D02*
X-20309523Y-254819D01*
X-20309523Y-254819D02*
X-20214285Y-254819D01*
X-19452380Y-207200D02*
X-19547618Y-254819D01*
X-19547618Y-254819D02*
X-19738094Y-254819D01*
X-19738094Y-254819D02*
X-19833332Y-207200D01*
X-19833332Y-207200D02*
X-19880951Y-159580D01*
X-19880951Y-159580D02*
X-19928570Y-64342D01*
X-19928570Y-64342D02*
X-19928570Y221371D01*
X-19928570Y221371D02*
X-19880951Y316609D01*
X-19880951Y316609D02*
X-19833332Y364228D01*
X-19833332Y364228D02*
X-19738094Y411847D01*
X-19738094Y411847D02*
X-19547618Y411847D01*
X-19547618Y411847D02*
X-19452380Y364228D01*
X-19023808Y-254819D02*
X-19023808Y745180D01*
X-18595237Y-254819D02*
X-18595237Y268990D01*
X-18595237Y268990D02*
X-18642856Y364228D01*
X-18642856Y364228D02*
X-18738094Y411847D01*
X-18738094Y411847D02*
X-18880951Y411847D01*
X-18880951Y411847D02*
X-18976189Y364228D01*
X-18976189Y364228D02*
X-19023808Y316609D01*
X-22761904Y8792800D02*
X-22619047Y8745180D01*
X-22619047Y8745180D02*
X-22380952Y8745180D01*
X-22380952Y8745180D02*
X-22285714Y8792800D01*
X-22285714Y8792800D02*
X-22238095Y8840419D01*
X-22238095Y8840419D02*
X-22190476Y8935657D01*
X-22190476Y8935657D02*
X-22190476Y9030895D01*
X-22190476Y9030895D02*
X-22238095Y9126133D01*
X-22238095Y9126133D02*
X-22285714Y9173752D01*
X-22285714Y9173752D02*
X-22380952Y9221371D01*
X-22380952Y9221371D02*
X-22571428Y9268990D01*
X-22571428Y9268990D02*
X-22666666Y9316609D01*
X-22666666Y9316609D02*
X-22714285Y9364228D01*
X-22714285Y9364228D02*
X-22761904Y9459466D01*
X-22761904Y9459466D02*
X-22761904Y9554704D01*
X-22761904Y9554704D02*
X-22714285Y9649942D01*
X-22714285Y9649942D02*
X-22666666Y9697561D01*
X-22666666Y9697561D02*
X-22571428Y9745180D01*
X-22571428Y9745180D02*
X-22333333Y9745180D01*
X-22333333Y9745180D02*
X-22190476Y9697561D01*
X-21285714Y9745180D02*
X-21761904Y9745180D01*
X-21761904Y9745180D02*
X-21809523Y9268990D01*
X-21809523Y9268990D02*
X-21761904Y9316609D01*
X-21761904Y9316609D02*
X-21666666Y9364228D01*
X-21666666Y9364228D02*
X-21428571Y9364228D01*
X-21428571Y9364228D02*
X-21333333Y9316609D01*
X-21333333Y9316609D02*
X-21285714Y9268990D01*
X-21285714Y9268990D02*
X-21238095Y9173752D01*
X-21238095Y9173752D02*
X-21238095Y8935657D01*
X-21238095Y8935657D02*
X-21285714Y8840419D01*
X-21285714Y8840419D02*
X-21333333Y8792800D01*
X-21333333Y8792800D02*
X-21428571Y8745180D01*
X-21428571Y8745180D02*
X-21666666Y8745180D01*
X-21666666Y8745180D02*
X-21761904Y8792800D01*
X-21761904Y8792800D02*
X-21809523Y8840419D01*
X56595238Y8545180D02*
X56595238Y9545180D01*
X57166666Y8545180D02*
X56738095Y9116609D01*
X57166666Y9545180D02*
X56595238Y8973752D01*
X57976190Y8592800D02*
X57880952Y8545180D01*
X57880952Y8545180D02*
X57690476Y8545180D01*
X57690476Y8545180D02*
X57595238Y8592800D01*
X57595238Y8592800D02*
X57547619Y8688038D01*
X57547619Y8688038D02*
X57547619Y9068990D01*
X57547619Y9068990D02*
X57595238Y9164228D01*
X57595238Y9164228D02*
X57690476Y9211847D01*
X57690476Y9211847D02*
X57880952Y9211847D01*
X57880952Y9211847D02*
X57976190Y9164228D01*
X57976190Y9164228D02*
X58023809Y9068990D01*
X58023809Y9068990D02*
X58023809Y8973752D01*
X58023809Y8973752D02*
X57547619Y8878514D01*
X58357143Y9211847D02*
X58595238Y8545180D01*
X58833333Y9211847D02*
X58595238Y8545180D01*
X58595238Y8545180D02*
X58500000Y8307085D01*
X58500000Y8307085D02*
X58452381Y8259466D01*
X58452381Y8259466D02*
X58357143Y8211847D01*
X59166667Y8592800D02*
X59261905Y8545180D01*
X59261905Y8545180D02*
X59452381Y8545180D01*
X59452381Y8545180D02*
X59547619Y8592800D01*
X59547619Y8592800D02*
X59595238Y8688038D01*
X59595238Y8688038D02*
X59595238Y8735657D01*
X59595238Y8735657D02*
X59547619Y8830895D01*
X59547619Y8830895D02*
X59452381Y8878514D01*
X59452381Y8878514D02*
X59309524Y8878514D01*
X59309524Y8878514D02*
X59214286Y8926133D01*
X59214286Y8926133D02*
X59166667Y9021371D01*
X59166667Y9021371D02*
X59166667Y9068990D01*
X59166667Y9068990D02*
X59214286Y9164228D01*
X59214286Y9164228D02*
X59309524Y9211847D01*
X59309524Y9211847D02*
X59452381Y9211847D01*
X59452381Y9211847D02*
X59547619Y9164228D01*
X59928572Y9211847D02*
X60119048Y8545180D01*
X60119048Y8545180D02*
X60309524Y9021371D01*
X60309524Y9021371D02*
X60500000Y8545180D01*
X60500000Y8545180D02*
X60690476Y9211847D01*
X61071429Y8545180D02*
X61071429Y9211847D01*
X61071429Y9545180D02*
X61023810Y9497561D01*
X61023810Y9497561D02*
X61071429Y9449942D01*
X61071429Y9449942D02*
X61119048Y9497561D01*
X61119048Y9497561D02*
X61071429Y9545180D01*
X61071429Y9545180D02*
X61071429Y9449942D01*
X61404762Y9211847D02*
X61785714Y9211847D01*
X61547619Y9545180D02*
X61547619Y8688038D01*
X61547619Y8688038D02*
X61595238Y8592800D01*
X61595238Y8592800D02*
X61690476Y8545180D01*
X61690476Y8545180D02*
X61785714Y8545180D01*
X62547619Y8592800D02*
X62452381Y8545180D01*
X62452381Y8545180D02*
X62261905Y8545180D01*
X62261905Y8545180D02*
X62166667Y8592800D01*
X62166667Y8592800D02*
X62119048Y8640419D01*
X62119048Y8640419D02*
X62071429Y8735657D01*
X62071429Y8735657D02*
X62071429Y9021371D01*
X62071429Y9021371D02*
X62119048Y9116609D01*
X62119048Y9116609D02*
X62166667Y9164228D01*
X62166667Y9164228D02*
X62261905Y9211847D01*
X62261905Y9211847D02*
X62452381Y9211847D01*
X62452381Y9211847D02*
X62547619Y9164228D01*
X62976191Y8545180D02*
X62976191Y9545180D01*
X63404762Y8545180D02*
X63404762Y9068990D01*
X63404762Y9068990D02*
X63357143Y9164228D01*
X63357143Y9164228D02*
X63261905Y9211847D01*
X63261905Y9211847D02*
X63119048Y9211847D01*
X63119048Y9211847D02*
X63023810Y9164228D01*
X63023810Y9164228D02*
X62976191Y9116609D01*
X59238095Y17592800D02*
X59380952Y17545180D01*
X59380952Y17545180D02*
X59619047Y17545180D01*
X59619047Y17545180D02*
X59714285Y17592800D01*
X59714285Y17592800D02*
X59761904Y17640419D01*
X59761904Y17640419D02*
X59809523Y17735657D01*
X59809523Y17735657D02*
X59809523Y17830895D01*
X59809523Y17830895D02*
X59761904Y17926133D01*
X59761904Y17926133D02*
X59714285Y17973752D01*
X59714285Y17973752D02*
X59619047Y18021371D01*
X59619047Y18021371D02*
X59428571Y18068990D01*
X59428571Y18068990D02*
X59333333Y18116609D01*
X59333333Y18116609D02*
X59285714Y18164228D01*
X59285714Y18164228D02*
X59238095Y18259466D01*
X59238095Y18259466D02*
X59238095Y18354704D01*
X59238095Y18354704D02*
X59285714Y18449942D01*
X59285714Y18449942D02*
X59333333Y18497561D01*
X59333333Y18497561D02*
X59428571Y18545180D01*
X59428571Y18545180D02*
X59666666Y18545180D01*
X59666666Y18545180D02*
X59809523Y18497561D01*
X60380952Y18116609D02*
X60285714Y18164228D01*
X60285714Y18164228D02*
X60238095Y18211847D01*
X60238095Y18211847D02*
X60190476Y18307085D01*
X60190476Y18307085D02*
X60190476Y18354704D01*
X60190476Y18354704D02*
X60238095Y18449942D01*
X60238095Y18449942D02*
X60285714Y18497561D01*
X60285714Y18497561D02*
X60380952Y18545180D01*
X60380952Y18545180D02*
X60571428Y18545180D01*
X60571428Y18545180D02*
X60666666Y18497561D01*
X60666666Y18497561D02*
X60714285Y18449942D01*
X60714285Y18449942D02*
X60761904Y18354704D01*
X60761904Y18354704D02*
X60761904Y18307085D01*
X60761904Y18307085D02*
X60714285Y18211847D01*
X60714285Y18211847D02*
X60666666Y18164228D01*
X60666666Y18164228D02*
X60571428Y18116609D01*
X60571428Y18116609D02*
X60380952Y18116609D01*
X60380952Y18116609D02*
X60285714Y18068990D01*
X60285714Y18068990D02*
X60238095Y18021371D01*
X60238095Y18021371D02*
X60190476Y17926133D01*
X60190476Y17926133D02*
X60190476Y17735657D01*
X60190476Y17735657D02*
X60238095Y17640419D01*
X60238095Y17640419D02*
X60285714Y17592800D01*
X60285714Y17592800D02*
X60380952Y17545180D01*
X60380952Y17545180D02*
X60571428Y17545180D01*
X60571428Y17545180D02*
X60666666Y17592800D01*
X60666666Y17592800D02*
X60714285Y17640419D01*
X60714285Y17640419D02*
X60761904Y17735657D01*
X60761904Y17735657D02*
X60761904Y17926133D01*
X60761904Y17926133D02*
X60714285Y18021371D01*
X60714285Y18021371D02*
X60666666Y18068990D01*
X60666666Y18068990D02*
X60571428Y18116609D01*
X-64374407Y-53747129D02*
X-64269879Y-52752608D01*
X-63806109Y-53806860D02*
X-64172602Y-53193764D01*
X-63701580Y-52812338D02*
X-64329609Y-53320906D01*
X-62996042Y-53844120D02*
X-63095736Y-53881523D01*
X-63095736Y-53881523D02*
X-63285169Y-53861613D01*
X-63285169Y-53861613D02*
X-63374908Y-53804300D01*
X-63374908Y-53804300D02*
X-63412311Y-53704606D01*
X-63412311Y-53704606D02*
X-63372490Y-53325740D01*
X-63372490Y-53325740D02*
X-63315177Y-53236002D01*
X-63315177Y-53236002D02*
X-63215483Y-53198598D01*
X-63215483Y-53198598D02*
X-63026051Y-53218509D01*
X-63026051Y-53218509D02*
X-62936312Y-53275822D01*
X-62936312Y-53275822D02*
X-62898909Y-53375516D01*
X-62898909Y-53375516D02*
X-62908864Y-53470232D01*
X-62908864Y-53470232D02*
X-63392401Y-53515173D01*
X-62552469Y-53268284D02*
X-62385363Y-53956186D01*
X-62078887Y-53318060D02*
X-62385363Y-53956186D01*
X-62385363Y-53956186D02*
X-62504967Y-54183022D01*
X-62504967Y-54183022D02*
X-62557303Y-54225403D01*
X-62557303Y-54225403D02*
X-62656997Y-54262806D01*
X-61812087Y-53968559D02*
X-61722348Y-54025872D01*
X-61722348Y-54025872D02*
X-61532916Y-54045782D01*
X-61532916Y-54045782D02*
X-61433222Y-54008379D01*
X-61433222Y-54008379D02*
X-61375908Y-53918640D01*
X-61375908Y-53918640D02*
X-61370931Y-53871282D01*
X-61370931Y-53871282D02*
X-61408334Y-53771588D01*
X-61408334Y-53771588D02*
X-61498073Y-53714275D01*
X-61498073Y-53714275D02*
X-61640147Y-53699342D01*
X-61640147Y-53699342D02*
X-61729886Y-53642029D01*
X-61729886Y-53642029D02*
X-61767289Y-53542335D01*
X-61767289Y-53542335D02*
X-61762312Y-53494977D01*
X-61762312Y-53494977D02*
X-61704998Y-53405238D01*
X-61704998Y-53405238D02*
X-61605305Y-53367835D01*
X-61605305Y-53367835D02*
X-61463230Y-53382768D01*
X-61463230Y-53382768D02*
X-61373491Y-53440081D01*
X-60989648Y-53432543D02*
X-60869901Y-54115468D01*
X-60869901Y-54115468D02*
X-60630693Y-53661796D01*
X-60630693Y-53661796D02*
X-60491035Y-54155288D01*
X-60491035Y-54155288D02*
X-60231917Y-53512184D01*
X-59922737Y-54215019D02*
X-59853052Y-53552004D01*
X-59818209Y-53220497D02*
X-59870544Y-53262878D01*
X-59870544Y-53262878D02*
X-59828164Y-53315213D01*
X-59828164Y-53315213D02*
X-59775828Y-53272833D01*
X-59775828Y-53272833D02*
X-59818209Y-53220497D01*
X-59818209Y-53220497D02*
X-59828164Y-53315213D01*
X-59521545Y-53586847D02*
X-59142679Y-53626667D01*
X-59344627Y-53270272D02*
X-59434223Y-54122720D01*
X-59434223Y-54122720D02*
X-59396820Y-54222414D01*
X-59396820Y-54222414D02*
X-59307081Y-54279727D01*
X-59307081Y-54279727D02*
X-59212365Y-54289682D01*
X-58449656Y-54321965D02*
X-58549350Y-54359368D01*
X-58549350Y-54359368D02*
X-58738783Y-54339457D01*
X-58738783Y-54339457D02*
X-58828521Y-54282144D01*
X-58828521Y-54282144D02*
X-58870902Y-54229808D01*
X-58870902Y-54229808D02*
X-58908305Y-54130115D01*
X-58908305Y-54130115D02*
X-58878440Y-53845965D01*
X-58878440Y-53845965D02*
X-58821127Y-53756227D01*
X-58821127Y-53756227D02*
X-58768791Y-53713846D01*
X-58768791Y-53713846D02*
X-58669097Y-53676443D01*
X-58669097Y-53676443D02*
X-58479664Y-53696353D01*
X-58479664Y-53696353D02*
X-58389925Y-53753666D01*
X-58028410Y-54414121D02*
X-57923881Y-53419599D01*
X-57602186Y-54458919D02*
X-57547433Y-53937979D01*
X-57547433Y-53937979D02*
X-57584836Y-53838285D01*
X-57584836Y-53838285D02*
X-57674575Y-53780971D01*
X-57674575Y-53780971D02*
X-57816649Y-53766039D01*
X-57816649Y-53766039D02*
X-57916343Y-53803442D01*
X-57916343Y-53803442D02*
X-57968679Y-53845822D01*
X-61273876Y-44975553D02*
X-61136779Y-45037843D01*
X-61136779Y-45037843D02*
X-60899988Y-45062731D01*
X-60899988Y-45062731D02*
X-60800294Y-45025328D01*
X-60800294Y-45025328D02*
X-60747958Y-44982947D01*
X-60747958Y-44982947D02*
X-60690645Y-44893209D01*
X-60690645Y-44893209D02*
X-60680690Y-44798492D01*
X-60680690Y-44798492D02*
X-60718093Y-44698798D01*
X-60718093Y-44698798D02*
X-60760474Y-44646463D01*
X-60760474Y-44646463D02*
X-60850212Y-44589149D01*
X-60850212Y-44589149D02*
X-61034668Y-44521881D01*
X-61034668Y-44521881D02*
X-61124407Y-44464568D01*
X-61124407Y-44464568D02*
X-61166787Y-44412232D01*
X-61166787Y-44412232D02*
X-61204190Y-44312538D01*
X-61204190Y-44312538D02*
X-61194235Y-44217822D01*
X-61194235Y-44217822D02*
X-61136922Y-44128083D01*
X-61136922Y-44128083D02*
X-61084586Y-44085702D01*
X-61084586Y-44085702D02*
X-60984892Y-44048299D01*
X-60984892Y-44048299D02*
X-60748101Y-44073187D01*
X-60748101Y-44073187D02*
X-60611004Y-44135478D01*
X-60237116Y-44222656D02*
X-60184781Y-44180276D01*
X-60184781Y-44180276D02*
X-60085087Y-44142873D01*
X-60085087Y-44142873D02*
X-59848296Y-44167760D01*
X-59848296Y-44167760D02*
X-59758557Y-44225074D01*
X-59758557Y-44225074D02*
X-59716176Y-44277409D01*
X-59716176Y-44277409D02*
X-59678773Y-44377103D01*
X-59678773Y-44377103D02*
X-59688728Y-44471820D01*
X-59688728Y-44471820D02*
X-59751019Y-44608917D01*
X-59751019Y-44608917D02*
X-60379048Y-45117484D01*
X-60379048Y-45117484D02*
X-59763391Y-45182192D01*
X-59327356Y-44222513D02*
X-58711699Y-44287221D01*
X-58711699Y-44287221D02*
X-59083027Y-44631244D01*
X-59083027Y-44631244D02*
X-58940952Y-44646177D01*
X-58940952Y-44646177D02*
X-58851214Y-44703490D01*
X-58851214Y-44703490D02*
X-58808833Y-44755826D01*
X-58808833Y-44755826D02*
X-58771430Y-44855520D01*
X-58771430Y-44855520D02*
X-58796318Y-45092311D01*
X-58796318Y-45092311D02*
X-58853631Y-45182049D01*
X-58853631Y-45182049D02*
X-58905967Y-45224430D01*
X-58905967Y-45224430D02*
X-59005660Y-45261833D01*
X-59005660Y-45261833D02*
X-59289810Y-45231968D01*
X-59289810Y-45231968D02*
X-59379548Y-45174655D01*
X-59379548Y-45174655D02*
X-59421929Y-45122319D01*
X-63404761Y8545180D02*
X-63404761Y9545180D01*
X-62833333Y8545180D02*
X-63261904Y9116609D01*
X-62833333Y9545180D02*
X-63404761Y8973752D01*
X-62023809Y8592800D02*
X-62119047Y8545180D01*
X-62119047Y8545180D02*
X-62309523Y8545180D01*
X-62309523Y8545180D02*
X-62404761Y8592800D01*
X-62404761Y8592800D02*
X-62452380Y8688038D01*
X-62452380Y8688038D02*
X-62452380Y9068990D01*
X-62452380Y9068990D02*
X-62404761Y9164228D01*
X-62404761Y9164228D02*
X-62309523Y9211847D01*
X-62309523Y9211847D02*
X-62119047Y9211847D01*
X-62119047Y9211847D02*
X-62023809Y9164228D01*
X-62023809Y9164228D02*
X-61976190Y9068990D01*
X-61976190Y9068990D02*
X-61976190Y8973752D01*
X-61976190Y8973752D02*
X-62452380Y8878514D01*
X-61642856Y9211847D02*
X-61404761Y8545180D01*
X-61166666Y9211847D02*
X-61404761Y8545180D01*
X-61404761Y8545180D02*
X-61499999Y8307085D01*
X-61499999Y8307085D02*
X-61547618Y8259466D01*
X-61547618Y8259466D02*
X-61642856Y8211847D01*
X-60833332Y8592800D02*
X-60738094Y8545180D01*
X-60738094Y8545180D02*
X-60547618Y8545180D01*
X-60547618Y8545180D02*
X-60452380Y8592800D01*
X-60452380Y8592800D02*
X-60404761Y8688038D01*
X-60404761Y8688038D02*
X-60404761Y8735657D01*
X-60404761Y8735657D02*
X-60452380Y8830895D01*
X-60452380Y8830895D02*
X-60547618Y8878514D01*
X-60547618Y8878514D02*
X-60690475Y8878514D01*
X-60690475Y8878514D02*
X-60785713Y8926133D01*
X-60785713Y8926133D02*
X-60833332Y9021371D01*
X-60833332Y9021371D02*
X-60833332Y9068990D01*
X-60833332Y9068990D02*
X-60785713Y9164228D01*
X-60785713Y9164228D02*
X-60690475Y9211847D01*
X-60690475Y9211847D02*
X-60547618Y9211847D01*
X-60547618Y9211847D02*
X-60452380Y9164228D01*
X-60071427Y9211847D02*
X-59880951Y8545180D01*
X-59880951Y8545180D02*
X-59690475Y9021371D01*
X-59690475Y9021371D02*
X-59499999Y8545180D01*
X-59499999Y8545180D02*
X-59309523Y9211847D01*
X-58928570Y8545180D02*
X-58928570Y9211847D01*
X-58928570Y9545180D02*
X-58976189Y9497561D01*
X-58976189Y9497561D02*
X-58928570Y9449942D01*
X-58928570Y9449942D02*
X-58880951Y9497561D01*
X-58880951Y9497561D02*
X-58928570Y9545180D01*
X-58928570Y9545180D02*
X-58928570Y9449942D01*
X-58595237Y9211847D02*
X-58214285Y9211847D01*
X-58452380Y9545180D02*
X-58452380Y8688038D01*
X-58452380Y8688038D02*
X-58404761Y8592800D01*
X-58404761Y8592800D02*
X-58309523Y8545180D01*
X-58309523Y8545180D02*
X-58214285Y8545180D01*
X-57452380Y8592800D02*
X-57547618Y8545180D01*
X-57547618Y8545180D02*
X-57738094Y8545180D01*
X-57738094Y8545180D02*
X-57833332Y8592800D01*
X-57833332Y8592800D02*
X-57880951Y8640419D01*
X-57880951Y8640419D02*
X-57928570Y8735657D01*
X-57928570Y8735657D02*
X-57928570Y9021371D01*
X-57928570Y9021371D02*
X-57880951Y9116609D01*
X-57880951Y9116609D02*
X-57833332Y9164228D01*
X-57833332Y9164228D02*
X-57738094Y9211847D01*
X-57738094Y9211847D02*
X-57547618Y9211847D01*
X-57547618Y9211847D02*
X-57452380Y9164228D01*
X-57023808Y8545180D02*
X-57023808Y9545180D01*
X-56595237Y8545180D02*
X-56595237Y9068990D01*
X-56595237Y9068990D02*
X-56642856Y9164228D01*
X-56642856Y9164228D02*
X-56738094Y9211847D01*
X-56738094Y9211847D02*
X-56880951Y9211847D01*
X-56880951Y9211847D02*
X-56976189Y9164228D01*
X-56976189Y9164228D02*
X-57023808Y9116609D01*
X-60761904Y17592800D02*
X-60619047Y17545180D01*
X-60619047Y17545180D02*
X-60380952Y17545180D01*
X-60380952Y17545180D02*
X-60285714Y17592800D01*
X-60285714Y17592800D02*
X-60238095Y17640419D01*
X-60238095Y17640419D02*
X-60190476Y17735657D01*
X-60190476Y17735657D02*
X-60190476Y17830895D01*
X-60190476Y17830895D02*
X-60238095Y17926133D01*
X-60238095Y17926133D02*
X-60285714Y17973752D01*
X-60285714Y17973752D02*
X-60380952Y18021371D01*
X-60380952Y18021371D02*
X-60571428Y18068990D01*
X-60571428Y18068990D02*
X-60666666Y18116609D01*
X-60666666Y18116609D02*
X-60714285Y18164228D01*
X-60714285Y18164228D02*
X-60761904Y18259466D01*
X-60761904Y18259466D02*
X-60761904Y18354704D01*
X-60761904Y18354704D02*
X-60714285Y18449942D01*
X-60714285Y18449942D02*
X-60666666Y18497561D01*
X-60666666Y18497561D02*
X-60571428Y18545180D01*
X-60571428Y18545180D02*
X-60333333Y18545180D01*
X-60333333Y18545180D02*
X-60190476Y18497561D01*
X-59857142Y18545180D02*
X-59238095Y18545180D01*
X-59238095Y18545180D02*
X-59571428Y18164228D01*
X-59571428Y18164228D02*
X-59428571Y18164228D01*
X-59428571Y18164228D02*
X-59333333Y18116609D01*
X-59333333Y18116609D02*
X-59285714Y18068990D01*
X-59285714Y18068990D02*
X-59238095Y17973752D01*
X-59238095Y17973752D02*
X-59238095Y17735657D01*
X-59238095Y17735657D02*
X-59285714Y17640419D01*
X-59285714Y17640419D02*
X-59333333Y17592800D01*
X-59333333Y17592800D02*
X-59428571Y17545180D01*
X-59428571Y17545180D02*
X-59714285Y17545180D01*
X-59714285Y17545180D02*
X-59809523Y17592800D01*
X-59809523Y17592800D02*
X-59857142Y17640419D01*
X-44404761Y-254819D02*
X-44404761Y745180D01*
X-43833333Y-254819D02*
X-44261904Y316609D01*
X-43833333Y745180D02*
X-44404761Y173752D01*
X-43023809Y-207200D02*
X-43119047Y-254819D01*
X-43119047Y-254819D02*
X-43309523Y-254819D01*
X-43309523Y-254819D02*
X-43404761Y-207200D01*
X-43404761Y-207200D02*
X-43452380Y-111961D01*
X-43452380Y-111961D02*
X-43452380Y268990D01*
X-43452380Y268990D02*
X-43404761Y364228D01*
X-43404761Y364228D02*
X-43309523Y411847D01*
X-43309523Y411847D02*
X-43119047Y411847D01*
X-43119047Y411847D02*
X-43023809Y364228D01*
X-43023809Y364228D02*
X-42976190Y268990D01*
X-42976190Y268990D02*
X-42976190Y173752D01*
X-42976190Y173752D02*
X-43452380Y78514D01*
X-42642856Y411847D02*
X-42404761Y-254819D01*
X-42166666Y411847D02*
X-42404761Y-254819D01*
X-42404761Y-254819D02*
X-42499999Y-492914D01*
X-42499999Y-492914D02*
X-42547618Y-540533D01*
X-42547618Y-540533D02*
X-42642856Y-588152D01*
X-41833332Y-207200D02*
X-41738094Y-254819D01*
X-41738094Y-254819D02*
X-41547618Y-254819D01*
X-41547618Y-254819D02*
X-41452380Y-207200D01*
X-41452380Y-207200D02*
X-41404761Y-111961D01*
X-41404761Y-111961D02*
X-41404761Y-64342D01*
X-41404761Y-64342D02*
X-41452380Y30895D01*
X-41452380Y30895D02*
X-41547618Y78514D01*
X-41547618Y78514D02*
X-41690475Y78514D01*
X-41690475Y78514D02*
X-41785713Y126133D01*
X-41785713Y126133D02*
X-41833332Y221371D01*
X-41833332Y221371D02*
X-41833332Y268990D01*
X-41833332Y268990D02*
X-41785713Y364228D01*
X-41785713Y364228D02*
X-41690475Y411847D01*
X-41690475Y411847D02*
X-41547618Y411847D01*
X-41547618Y411847D02*
X-41452380Y364228D01*
X-41071427Y411847D02*
X-40880951Y-254819D01*
X-40880951Y-254819D02*
X-40690475Y221371D01*
X-40690475Y221371D02*
X-40499999Y-254819D01*
X-40499999Y-254819D02*
X-40309523Y411847D01*
X-39928570Y-254819D02*
X-39928570Y411847D01*
X-39928570Y745180D02*
X-39976189Y697561D01*
X-39976189Y697561D02*
X-39928570Y649942D01*
X-39928570Y649942D02*
X-39880951Y697561D01*
X-39880951Y697561D02*
X-39928570Y745180D01*
X-39928570Y745180D02*
X-39928570Y649942D01*
X-39595237Y411847D02*
X-39214285Y411847D01*
X-39452380Y745180D02*
X-39452380Y-111961D01*
X-39452380Y-111961D02*
X-39404761Y-207200D01*
X-39404761Y-207200D02*
X-39309523Y-254819D01*
X-39309523Y-254819D02*
X-39214285Y-254819D01*
X-38452380Y-207200D02*
X-38547618Y-254819D01*
X-38547618Y-254819D02*
X-38738094Y-254819D01*
X-38738094Y-254819D02*
X-38833332Y-207200D01*
X-38833332Y-207200D02*
X-38880951Y-159580D01*
X-38880951Y-159580D02*
X-38928570Y-64342D01*
X-38928570Y-64342D02*
X-38928570Y221371D01*
X-38928570Y221371D02*
X-38880951Y316609D01*
X-38880951Y316609D02*
X-38833332Y364228D01*
X-38833332Y364228D02*
X-38738094Y411847D01*
X-38738094Y411847D02*
X-38547618Y411847D01*
X-38547618Y411847D02*
X-38452380Y364228D01*
X-38023808Y-254819D02*
X-38023808Y745180D01*
X-37595237Y-254819D02*
X-37595237Y268990D01*
X-37595237Y268990D02*
X-37642856Y364228D01*
X-37642856Y364228D02*
X-37738094Y411847D01*
X-37738094Y411847D02*
X-37880951Y411847D01*
X-37880951Y411847D02*
X-37976189Y364228D01*
X-37976189Y364228D02*
X-38023808Y316609D01*
X-41761904Y8792800D02*
X-41619047Y8745180D01*
X-41619047Y8745180D02*
X-41380952Y8745180D01*
X-41380952Y8745180D02*
X-41285714Y8792800D01*
X-41285714Y8792800D02*
X-41238095Y8840419D01*
X-41238095Y8840419D02*
X-41190476Y8935657D01*
X-41190476Y8935657D02*
X-41190476Y9030895D01*
X-41190476Y9030895D02*
X-41238095Y9126133D01*
X-41238095Y9126133D02*
X-41285714Y9173752D01*
X-41285714Y9173752D02*
X-41380952Y9221371D01*
X-41380952Y9221371D02*
X-41571428Y9268990D01*
X-41571428Y9268990D02*
X-41666666Y9316609D01*
X-41666666Y9316609D02*
X-41714285Y9364228D01*
X-41714285Y9364228D02*
X-41761904Y9459466D01*
X-41761904Y9459466D02*
X-41761904Y9554704D01*
X-41761904Y9554704D02*
X-41714285Y9649942D01*
X-41714285Y9649942D02*
X-41666666Y9697561D01*
X-41666666Y9697561D02*
X-41571428Y9745180D01*
X-41571428Y9745180D02*
X-41333333Y9745180D01*
X-41333333Y9745180D02*
X-41190476Y9697561D01*
X-40333333Y9411847D02*
X-40333333Y8745180D01*
X-40571428Y9792800D02*
X-40809523Y9078514D01*
X-40809523Y9078514D02*
X-40190476Y9078514D01*
X-82404761Y-8354819D02*
X-82404761Y-7354819D01*
X-81833333Y-8354819D02*
X-82261904Y-7783390D01*
X-81833333Y-7354819D02*
X-82404761Y-7926247D01*
X-81023809Y-8307200D02*
X-81119047Y-8354819D01*
X-81119047Y-8354819D02*
X-81309523Y-8354819D01*
X-81309523Y-8354819D02*
X-81404761Y-8307200D01*
X-81404761Y-8307200D02*
X-81452380Y-8211961D01*
X-81452380Y-8211961D02*
X-81452380Y-7831009D01*
X-81452380Y-7831009D02*
X-81404761Y-7735771D01*
X-81404761Y-7735771D02*
X-81309523Y-7688152D01*
X-81309523Y-7688152D02*
X-81119047Y-7688152D01*
X-81119047Y-7688152D02*
X-81023809Y-7735771D01*
X-81023809Y-7735771D02*
X-80976190Y-7831009D01*
X-80976190Y-7831009D02*
X-80976190Y-7926247D01*
X-80976190Y-7926247D02*
X-81452380Y-8021485D01*
X-80642856Y-7688152D02*
X-80404761Y-8354819D01*
X-80166666Y-7688152D02*
X-80404761Y-8354819D01*
X-80404761Y-8354819D02*
X-80499999Y-8592914D01*
X-80499999Y-8592914D02*
X-80547618Y-8640533D01*
X-80547618Y-8640533D02*
X-80642856Y-8688152D01*
X-79833332Y-8307200D02*
X-79738094Y-8354819D01*
X-79738094Y-8354819D02*
X-79547618Y-8354819D01*
X-79547618Y-8354819D02*
X-79452380Y-8307200D01*
X-79452380Y-8307200D02*
X-79404761Y-8211961D01*
X-79404761Y-8211961D02*
X-79404761Y-8164342D01*
X-79404761Y-8164342D02*
X-79452380Y-8069104D01*
X-79452380Y-8069104D02*
X-79547618Y-8021485D01*
X-79547618Y-8021485D02*
X-79690475Y-8021485D01*
X-79690475Y-8021485D02*
X-79785713Y-7973866D01*
X-79785713Y-7973866D02*
X-79833332Y-7878628D01*
X-79833332Y-7878628D02*
X-79833332Y-7831009D01*
X-79833332Y-7831009D02*
X-79785713Y-7735771D01*
X-79785713Y-7735771D02*
X-79690475Y-7688152D01*
X-79690475Y-7688152D02*
X-79547618Y-7688152D01*
X-79547618Y-7688152D02*
X-79452380Y-7735771D01*
X-79071427Y-7688152D02*
X-78880951Y-8354819D01*
X-78880951Y-8354819D02*
X-78690475Y-7878628D01*
X-78690475Y-7878628D02*
X-78499999Y-8354819D01*
X-78499999Y-8354819D02*
X-78309523Y-7688152D01*
X-77928570Y-8354819D02*
X-77928570Y-7688152D01*
X-77928570Y-7354819D02*
X-77976189Y-7402438D01*
X-77976189Y-7402438D02*
X-77928570Y-7450057D01*
X-77928570Y-7450057D02*
X-77880951Y-7402438D01*
X-77880951Y-7402438D02*
X-77928570Y-7354819D01*
X-77928570Y-7354819D02*
X-77928570Y-7450057D01*
X-77595237Y-7688152D02*
X-77214285Y-7688152D01*
X-77452380Y-7354819D02*
X-77452380Y-8211961D01*
X-77452380Y-8211961D02*
X-77404761Y-8307200D01*
X-77404761Y-8307200D02*
X-77309523Y-8354819D01*
X-77309523Y-8354819D02*
X-77214285Y-8354819D01*
X-76452380Y-8307200D02*
X-76547618Y-8354819D01*
X-76547618Y-8354819D02*
X-76738094Y-8354819D01*
X-76738094Y-8354819D02*
X-76833332Y-8307200D01*
X-76833332Y-8307200D02*
X-76880951Y-8259580D01*
X-76880951Y-8259580D02*
X-76928570Y-8164342D01*
X-76928570Y-8164342D02*
X-76928570Y-7878628D01*
X-76928570Y-7878628D02*
X-76880951Y-7783390D01*
X-76880951Y-7783390D02*
X-76833332Y-7735771D01*
X-76833332Y-7735771D02*
X-76738094Y-7688152D01*
X-76738094Y-7688152D02*
X-76547618Y-7688152D01*
X-76547618Y-7688152D02*
X-76452380Y-7735771D01*
X-76023808Y-8354819D02*
X-76023808Y-7354819D01*
X-75595237Y-8354819D02*
X-75595237Y-7831009D01*
X-75595237Y-7831009D02*
X-75642856Y-7735771D01*
X-75642856Y-7735771D02*
X-75738094Y-7688152D01*
X-75738094Y-7688152D02*
X-75880951Y-7688152D01*
X-75880951Y-7688152D02*
X-75976189Y-7735771D01*
X-75976189Y-7735771D02*
X-76023808Y-7783390D01*
X-80238094Y692800D02*
X-80095237Y645180D01*
X-80095237Y645180D02*
X-79857142Y645180D01*
X-79857142Y645180D02*
X-79761904Y692800D01*
X-79761904Y692800D02*
X-79714285Y740419D01*
X-79714285Y740419D02*
X-79666666Y835657D01*
X-79666666Y835657D02*
X-79666666Y930895D01*
X-79666666Y930895D02*
X-79714285Y1026133D01*
X-79714285Y1026133D02*
X-79761904Y1073752D01*
X-79761904Y1073752D02*
X-79857142Y1121371D01*
X-79857142Y1121371D02*
X-80047618Y1168990D01*
X-80047618Y1168990D02*
X-80142856Y1216609D01*
X-80142856Y1216609D02*
X-80190475Y1264228D01*
X-80190475Y1264228D02*
X-80238094Y1359466D01*
X-80238094Y1359466D02*
X-80238094Y1454704D01*
X-80238094Y1454704D02*
X-80190475Y1549942D01*
X-80190475Y1549942D02*
X-80142856Y1597561D01*
X-80142856Y1597561D02*
X-80047618Y1645180D01*
X-80047618Y1645180D02*
X-79809523Y1645180D01*
X-79809523Y1645180D02*
X-79666666Y1597561D01*
X-78714285Y645180D02*
X-79285713Y645180D01*
X-78999999Y645180D02*
X-78999999Y1645180D01*
X-78999999Y1645180D02*
X-79095237Y1502323D01*
X-79095237Y1502323D02*
X-79190475Y1407085D01*
X-79190475Y1407085D02*
X-79285713Y1359466D01*
X-78380951Y1645180D02*
X-77761904Y1645180D01*
X-77761904Y1645180D02*
X-78095237Y1264228D01*
X-78095237Y1264228D02*
X-77952380Y1264228D01*
X-77952380Y1264228D02*
X-77857142Y1216609D01*
X-77857142Y1216609D02*
X-77809523Y1168990D01*
X-77809523Y1168990D02*
X-77761904Y1073752D01*
X-77761904Y1073752D02*
X-77761904Y835657D01*
X-77761904Y835657D02*
X-77809523Y740419D01*
X-77809523Y740419D02*
X-77857142Y692800D01*
X-77857142Y692800D02*
X-77952380Y645180D01*
X-77952380Y645180D02*
X-78238094Y645180D01*
X-78238094Y645180D02*
X-78333332Y692800D01*
X-78333332Y692800D02*
X-78380951Y740419D01*
X75595238Y-8354819D02*
X75595238Y-7354819D01*
X76166666Y-8354819D02*
X75738095Y-7783390D01*
X76166666Y-7354819D02*
X75595238Y-7926247D01*
X76976190Y-8307200D02*
X76880952Y-8354819D01*
X76880952Y-8354819D02*
X76690476Y-8354819D01*
X76690476Y-8354819D02*
X76595238Y-8307200D01*
X76595238Y-8307200D02*
X76547619Y-8211961D01*
X76547619Y-8211961D02*
X76547619Y-7831009D01*
X76547619Y-7831009D02*
X76595238Y-7735771D01*
X76595238Y-7735771D02*
X76690476Y-7688152D01*
X76690476Y-7688152D02*
X76880952Y-7688152D01*
X76880952Y-7688152D02*
X76976190Y-7735771D01*
X76976190Y-7735771D02*
X77023809Y-7831009D01*
X77023809Y-7831009D02*
X77023809Y-7926247D01*
X77023809Y-7926247D02*
X76547619Y-8021485D01*
X77357143Y-7688152D02*
X77595238Y-8354819D01*
X77833333Y-7688152D02*
X77595238Y-8354819D01*
X77595238Y-8354819D02*
X77500000Y-8592914D01*
X77500000Y-8592914D02*
X77452381Y-8640533D01*
X77452381Y-8640533D02*
X77357143Y-8688152D01*
X78166667Y-8307200D02*
X78261905Y-8354819D01*
X78261905Y-8354819D02*
X78452381Y-8354819D01*
X78452381Y-8354819D02*
X78547619Y-8307200D01*
X78547619Y-8307200D02*
X78595238Y-8211961D01*
X78595238Y-8211961D02*
X78595238Y-8164342D01*
X78595238Y-8164342D02*
X78547619Y-8069104D01*
X78547619Y-8069104D02*
X78452381Y-8021485D01*
X78452381Y-8021485D02*
X78309524Y-8021485D01*
X78309524Y-8021485D02*
X78214286Y-7973866D01*
X78214286Y-7973866D02*
X78166667Y-7878628D01*
X78166667Y-7878628D02*
X78166667Y-7831009D01*
X78166667Y-7831009D02*
X78214286Y-7735771D01*
X78214286Y-7735771D02*
X78309524Y-7688152D01*
X78309524Y-7688152D02*
X78452381Y-7688152D01*
X78452381Y-7688152D02*
X78547619Y-7735771D01*
X78928572Y-7688152D02*
X79119048Y-8354819D01*
X79119048Y-8354819D02*
X79309524Y-7878628D01*
X79309524Y-7878628D02*
X79500000Y-8354819D01*
X79500000Y-8354819D02*
X79690476Y-7688152D01*
X80071429Y-8354819D02*
X80071429Y-7688152D01*
X80071429Y-7354819D02*
X80023810Y-7402438D01*
X80023810Y-7402438D02*
X80071429Y-7450057D01*
X80071429Y-7450057D02*
X80119048Y-7402438D01*
X80119048Y-7402438D02*
X80071429Y-7354819D01*
X80071429Y-7354819D02*
X80071429Y-7450057D01*
X80404762Y-7688152D02*
X80785714Y-7688152D01*
X80547619Y-7354819D02*
X80547619Y-8211961D01*
X80547619Y-8211961D02*
X80595238Y-8307200D01*
X80595238Y-8307200D02*
X80690476Y-8354819D01*
X80690476Y-8354819D02*
X80785714Y-8354819D01*
X81547619Y-8307200D02*
X81452381Y-8354819D01*
X81452381Y-8354819D02*
X81261905Y-8354819D01*
X81261905Y-8354819D02*
X81166667Y-8307200D01*
X81166667Y-8307200D02*
X81119048Y-8259580D01*
X81119048Y-8259580D02*
X81071429Y-8164342D01*
X81071429Y-8164342D02*
X81071429Y-7878628D01*
X81071429Y-7878628D02*
X81119048Y-7783390D01*
X81119048Y-7783390D02*
X81166667Y-7735771D01*
X81166667Y-7735771D02*
X81261905Y-7688152D01*
X81261905Y-7688152D02*
X81452381Y-7688152D01*
X81452381Y-7688152D02*
X81547619Y-7735771D01*
X81976191Y-8354819D02*
X81976191Y-7354819D01*
X82404762Y-8354819D02*
X82404762Y-7831009D01*
X82404762Y-7831009D02*
X82357143Y-7735771D01*
X82357143Y-7735771D02*
X82261905Y-7688152D01*
X82261905Y-7688152D02*
X82119048Y-7688152D01*
X82119048Y-7688152D02*
X82023810Y-7735771D01*
X82023810Y-7735771D02*
X81976191Y-7783390D01*
X77761905Y692800D02*
X77904762Y645180D01*
X77904762Y645180D02*
X78142857Y645180D01*
X78142857Y645180D02*
X78238095Y692800D01*
X78238095Y692800D02*
X78285714Y740419D01*
X78285714Y740419D02*
X78333333Y835657D01*
X78333333Y835657D02*
X78333333Y930895D01*
X78333333Y930895D02*
X78285714Y1026133D01*
X78285714Y1026133D02*
X78238095Y1073752D01*
X78238095Y1073752D02*
X78142857Y1121371D01*
X78142857Y1121371D02*
X77952381Y1168990D01*
X77952381Y1168990D02*
X77857143Y1216609D01*
X77857143Y1216609D02*
X77809524Y1264228D01*
X77809524Y1264228D02*
X77761905Y1359466D01*
X77761905Y1359466D02*
X77761905Y1454704D01*
X77761905Y1454704D02*
X77809524Y1549942D01*
X77809524Y1549942D02*
X77857143Y1597561D01*
X77857143Y1597561D02*
X77952381Y1645180D01*
X77952381Y1645180D02*
X78190476Y1645180D01*
X78190476Y1645180D02*
X78333333Y1597561D01*
X78714286Y1549942D02*
X78761905Y1597561D01*
X78761905Y1597561D02*
X78857143Y1645180D01*
X78857143Y1645180D02*
X79095238Y1645180D01*
X79095238Y1645180D02*
X79190476Y1597561D01*
X79190476Y1597561D02*
X79238095Y1549942D01*
X79238095Y1549942D02*
X79285714Y1454704D01*
X79285714Y1454704D02*
X79285714Y1359466D01*
X79285714Y1359466D02*
X79238095Y1216609D01*
X79238095Y1216609D02*
X78666667Y645180D01*
X78666667Y645180D02*
X79285714Y645180D01*
X79904762Y1645180D02*
X80000000Y1645180D01*
X80000000Y1645180D02*
X80095238Y1597561D01*
X80095238Y1597561D02*
X80142857Y1549942D01*
X80142857Y1549942D02*
X80190476Y1454704D01*
X80190476Y1454704D02*
X80238095Y1264228D01*
X80238095Y1264228D02*
X80238095Y1026133D01*
X80238095Y1026133D02*
X80190476Y835657D01*
X80190476Y835657D02*
X80142857Y740419D01*
X80142857Y740419D02*
X80095238Y692800D01*
X80095238Y692800D02*
X80000000Y645180D01*
X80000000Y645180D02*
X79904762Y645180D01*
X79904762Y645180D02*
X79809524Y692800D01*
X79809524Y692800D02*
X79761905Y740419D01*
X79761905Y740419D02*
X79714286Y835657D01*
X79714286Y835657D02*
X79666667Y1026133D01*
X79666667Y1026133D02*
X79666667Y1264228D01*
X79666667Y1264228D02*
X79714286Y1454704D01*
X79714286Y1454704D02*
X79761905Y1549942D01*
X79761905Y1549942D02*
X79809524Y1597561D01*
X79809524Y1597561D02*
X79904762Y1645180D01*
X94595238Y-18254819D02*
X94595238Y-17254819D01*
X95166666Y-18254819D02*
X94738095Y-17683390D01*
X95166666Y-17254819D02*
X94595238Y-17826247D01*
X95976190Y-18207200D02*
X95880952Y-18254819D01*
X95880952Y-18254819D02*
X95690476Y-18254819D01*
X95690476Y-18254819D02*
X95595238Y-18207200D01*
X95595238Y-18207200D02*
X95547619Y-18111961D01*
X95547619Y-18111961D02*
X95547619Y-17731009D01*
X95547619Y-17731009D02*
X95595238Y-17635771D01*
X95595238Y-17635771D02*
X95690476Y-17588152D01*
X95690476Y-17588152D02*
X95880952Y-17588152D01*
X95880952Y-17588152D02*
X95976190Y-17635771D01*
X95976190Y-17635771D02*
X96023809Y-17731009D01*
X96023809Y-17731009D02*
X96023809Y-17826247D01*
X96023809Y-17826247D02*
X95547619Y-17921485D01*
X96357143Y-17588152D02*
X96595238Y-18254819D01*
X96833333Y-17588152D02*
X96595238Y-18254819D01*
X96595238Y-18254819D02*
X96500000Y-18492914D01*
X96500000Y-18492914D02*
X96452381Y-18540533D01*
X96452381Y-18540533D02*
X96357143Y-18588152D01*
X97166667Y-18207200D02*
X97261905Y-18254819D01*
X97261905Y-18254819D02*
X97452381Y-18254819D01*
X97452381Y-18254819D02*
X97547619Y-18207200D01*
X97547619Y-18207200D02*
X97595238Y-18111961D01*
X97595238Y-18111961D02*
X97595238Y-18064342D01*
X97595238Y-18064342D02*
X97547619Y-17969104D01*
X97547619Y-17969104D02*
X97452381Y-17921485D01*
X97452381Y-17921485D02*
X97309524Y-17921485D01*
X97309524Y-17921485D02*
X97214286Y-17873866D01*
X97214286Y-17873866D02*
X97166667Y-17778628D01*
X97166667Y-17778628D02*
X97166667Y-17731009D01*
X97166667Y-17731009D02*
X97214286Y-17635771D01*
X97214286Y-17635771D02*
X97309524Y-17588152D01*
X97309524Y-17588152D02*
X97452381Y-17588152D01*
X97452381Y-17588152D02*
X97547619Y-17635771D01*
X97928572Y-17588152D02*
X98119048Y-18254819D01*
X98119048Y-18254819D02*
X98309524Y-17778628D01*
X98309524Y-17778628D02*
X98500000Y-18254819D01*
X98500000Y-18254819D02*
X98690476Y-17588152D01*
X99071429Y-18254819D02*
X99071429Y-17588152D01*
X99071429Y-17254819D02*
X99023810Y-17302438D01*
X99023810Y-17302438D02*
X99071429Y-17350057D01*
X99071429Y-17350057D02*
X99119048Y-17302438D01*
X99119048Y-17302438D02*
X99071429Y-17254819D01*
X99071429Y-17254819D02*
X99071429Y-17350057D01*
X99404762Y-17588152D02*
X99785714Y-17588152D01*
X99547619Y-17254819D02*
X99547619Y-18111961D01*
X99547619Y-18111961D02*
X99595238Y-18207200D01*
X99595238Y-18207200D02*
X99690476Y-18254819D01*
X99690476Y-18254819D02*
X99785714Y-18254819D01*
X100547619Y-18207200D02*
X100452381Y-18254819D01*
X100452381Y-18254819D02*
X100261905Y-18254819D01*
X100261905Y-18254819D02*
X100166667Y-18207200D01*
X100166667Y-18207200D02*
X100119048Y-18159580D01*
X100119048Y-18159580D02*
X100071429Y-18064342D01*
X100071429Y-18064342D02*
X100071429Y-17778628D01*
X100071429Y-17778628D02*
X100119048Y-17683390D01*
X100119048Y-17683390D02*
X100166667Y-17635771D01*
X100166667Y-17635771D02*
X100261905Y-17588152D01*
X100261905Y-17588152D02*
X100452381Y-17588152D01*
X100452381Y-17588152D02*
X100547619Y-17635771D01*
X100976191Y-18254819D02*
X100976191Y-17254819D01*
X101404762Y-18254819D02*
X101404762Y-17731009D01*
X101404762Y-17731009D02*
X101357143Y-17635771D01*
X101357143Y-17635771D02*
X101261905Y-17588152D01*
X101261905Y-17588152D02*
X101119048Y-17588152D01*
X101119048Y-17588152D02*
X101023810Y-17635771D01*
X101023810Y-17635771D02*
X100976191Y-17683390D01*
X96761905Y-9207200D02*
X96904762Y-9254819D01*
X96904762Y-9254819D02*
X97142857Y-9254819D01*
X97142857Y-9254819D02*
X97238095Y-9207200D01*
X97238095Y-9207200D02*
X97285714Y-9159580D01*
X97285714Y-9159580D02*
X97333333Y-9064342D01*
X97333333Y-9064342D02*
X97333333Y-8969104D01*
X97333333Y-8969104D02*
X97285714Y-8873866D01*
X97285714Y-8873866D02*
X97238095Y-8826247D01*
X97238095Y-8826247D02*
X97142857Y-8778628D01*
X97142857Y-8778628D02*
X96952381Y-8731009D01*
X96952381Y-8731009D02*
X96857143Y-8683390D01*
X96857143Y-8683390D02*
X96809524Y-8635771D01*
X96809524Y-8635771D02*
X96761905Y-8540533D01*
X96761905Y-8540533D02*
X96761905Y-8445295D01*
X96761905Y-8445295D02*
X96809524Y-8350057D01*
X96809524Y-8350057D02*
X96857143Y-8302438D01*
X96857143Y-8302438D02*
X96952381Y-8254819D01*
X96952381Y-8254819D02*
X97190476Y-8254819D01*
X97190476Y-8254819D02*
X97333333Y-8302438D01*
X97714286Y-8350057D02*
X97761905Y-8302438D01*
X97761905Y-8302438D02*
X97857143Y-8254819D01*
X97857143Y-8254819D02*
X98095238Y-8254819D01*
X98095238Y-8254819D02*
X98190476Y-8302438D01*
X98190476Y-8302438D02*
X98238095Y-8350057D01*
X98238095Y-8350057D02*
X98285714Y-8445295D01*
X98285714Y-8445295D02*
X98285714Y-8540533D01*
X98285714Y-8540533D02*
X98238095Y-8683390D01*
X98238095Y-8683390D02*
X97666667Y-9254819D01*
X97666667Y-9254819D02*
X98285714Y-9254819D01*
X99238095Y-9254819D02*
X98666667Y-9254819D01*
X98952381Y-9254819D02*
X98952381Y-8254819D01*
X98952381Y-8254819D02*
X98857143Y-8397676D01*
X98857143Y-8397676D02*
X98761905Y-8492914D01*
X98761905Y-8492914D02*
X98666667Y-8540533D01*
X-82404761Y9645180D02*
X-82404761Y10645180D01*
X-81833333Y9645180D02*
X-82261904Y10216609D01*
X-81833333Y10645180D02*
X-82404761Y10073752D01*
X-81023809Y9692800D02*
X-81119047Y9645180D01*
X-81119047Y9645180D02*
X-81309523Y9645180D01*
X-81309523Y9645180D02*
X-81404761Y9692800D01*
X-81404761Y9692800D02*
X-81452380Y9788038D01*
X-81452380Y9788038D02*
X-81452380Y10168990D01*
X-81452380Y10168990D02*
X-81404761Y10264228D01*
X-81404761Y10264228D02*
X-81309523Y10311847D01*
X-81309523Y10311847D02*
X-81119047Y10311847D01*
X-81119047Y10311847D02*
X-81023809Y10264228D01*
X-81023809Y10264228D02*
X-80976190Y10168990D01*
X-80976190Y10168990D02*
X-80976190Y10073752D01*
X-80976190Y10073752D02*
X-81452380Y9978514D01*
X-80642856Y10311847D02*
X-80404761Y9645180D01*
X-80166666Y10311847D02*
X-80404761Y9645180D01*
X-80404761Y9645180D02*
X-80499999Y9407085D01*
X-80499999Y9407085D02*
X-80547618Y9359466D01*
X-80547618Y9359466D02*
X-80642856Y9311847D01*
X-79833332Y9692800D02*
X-79738094Y9645180D01*
X-79738094Y9645180D02*
X-79547618Y9645180D01*
X-79547618Y9645180D02*
X-79452380Y9692800D01*
X-79452380Y9692800D02*
X-79404761Y9788038D01*
X-79404761Y9788038D02*
X-79404761Y9835657D01*
X-79404761Y9835657D02*
X-79452380Y9930895D01*
X-79452380Y9930895D02*
X-79547618Y9978514D01*
X-79547618Y9978514D02*
X-79690475Y9978514D01*
X-79690475Y9978514D02*
X-79785713Y10026133D01*
X-79785713Y10026133D02*
X-79833332Y10121371D01*
X-79833332Y10121371D02*
X-79833332Y10168990D01*
X-79833332Y10168990D02*
X-79785713Y10264228D01*
X-79785713Y10264228D02*
X-79690475Y10311847D01*
X-79690475Y10311847D02*
X-79547618Y10311847D01*
X-79547618Y10311847D02*
X-79452380Y10264228D01*
X-79071427Y10311847D02*
X-78880951Y9645180D01*
X-78880951Y9645180D02*
X-78690475Y10121371D01*
X-78690475Y10121371D02*
X-78499999Y9645180D01*
X-78499999Y9645180D02*
X-78309523Y10311847D01*
X-77928570Y9645180D02*
X-77928570Y10311847D01*
X-77928570Y10645180D02*
X-77976189Y10597561D01*
X-77976189Y10597561D02*
X-77928570Y10549942D01*
X-77928570Y10549942D02*
X-77880951Y10597561D01*
X-77880951Y10597561D02*
X-77928570Y10645180D01*
X-77928570Y10645180D02*
X-77928570Y10549942D01*
X-77595237Y10311847D02*
X-77214285Y10311847D01*
X-77452380Y10645180D02*
X-77452380Y9788038D01*
X-77452380Y9788038D02*
X-77404761Y9692800D01*
X-77404761Y9692800D02*
X-77309523Y9645180D01*
X-77309523Y9645180D02*
X-77214285Y9645180D01*
X-76452380Y9692800D02*
X-76547618Y9645180D01*
X-76547618Y9645180D02*
X-76738094Y9645180D01*
X-76738094Y9645180D02*
X-76833332Y9692800D01*
X-76833332Y9692800D02*
X-76880951Y9740419D01*
X-76880951Y9740419D02*
X-76928570Y9835657D01*
X-76928570Y9835657D02*
X-76928570Y10121371D01*
X-76928570Y10121371D02*
X-76880951Y10216609D01*
X-76880951Y10216609D02*
X-76833332Y10264228D01*
X-76833332Y10264228D02*
X-76738094Y10311847D01*
X-76738094Y10311847D02*
X-76547618Y10311847D01*
X-76547618Y10311847D02*
X-76452380Y10264228D01*
X-76023808Y9645180D02*
X-76023808Y10645180D01*
X-75595237Y9645180D02*
X-75595237Y10168990D01*
X-75595237Y10168990D02*
X-75642856Y10264228D01*
X-75642856Y10264228D02*
X-75738094Y10311847D01*
X-75738094Y10311847D02*
X-75880951Y10311847D01*
X-75880951Y10311847D02*
X-75976189Y10264228D01*
X-75976189Y10264228D02*
X-76023808Y10216609D01*
X-79761904Y18692800D02*
X-79619047Y18645180D01*
X-79619047Y18645180D02*
X-79380952Y18645180D01*
X-79380952Y18645180D02*
X-79285714Y18692800D01*
X-79285714Y18692800D02*
X-79238095Y18740419D01*
X-79238095Y18740419D02*
X-79190476Y18835657D01*
X-79190476Y18835657D02*
X-79190476Y18930895D01*
X-79190476Y18930895D02*
X-79238095Y19026133D01*
X-79238095Y19026133D02*
X-79285714Y19073752D01*
X-79285714Y19073752D02*
X-79380952Y19121371D01*
X-79380952Y19121371D02*
X-79571428Y19168990D01*
X-79571428Y19168990D02*
X-79666666Y19216609D01*
X-79666666Y19216609D02*
X-79714285Y19264228D01*
X-79714285Y19264228D02*
X-79761904Y19359466D01*
X-79761904Y19359466D02*
X-79761904Y19454704D01*
X-79761904Y19454704D02*
X-79714285Y19549942D01*
X-79714285Y19549942D02*
X-79666666Y19597561D01*
X-79666666Y19597561D02*
X-79571428Y19645180D01*
X-79571428Y19645180D02*
X-79333333Y19645180D01*
X-79333333Y19645180D02*
X-79190476Y19597561D01*
X-78809523Y19549942D02*
X-78761904Y19597561D01*
X-78761904Y19597561D02*
X-78666666Y19645180D01*
X-78666666Y19645180D02*
X-78428571Y19645180D01*
X-78428571Y19645180D02*
X-78333333Y19597561D01*
X-78333333Y19597561D02*
X-78285714Y19549942D01*
X-78285714Y19549942D02*
X-78238095Y19454704D01*
X-78238095Y19454704D02*
X-78238095Y19359466D01*
X-78238095Y19359466D02*
X-78285714Y19216609D01*
X-78285714Y19216609D02*
X-78857142Y18645180D01*
X-78857142Y18645180D02*
X-78238095Y18645180D01*
X-101404761Y-18254819D02*
X-101404761Y-17254819D01*
X-100833333Y-18254819D02*
X-101261904Y-17683390D01*
X-100833333Y-17254819D02*
X-101404761Y-17826247D01*
X-100023809Y-18207200D02*
X-100119047Y-18254819D01*
X-100119047Y-18254819D02*
X-100309523Y-18254819D01*
X-100309523Y-18254819D02*
X-100404761Y-18207200D01*
X-100404761Y-18207200D02*
X-100452380Y-18111961D01*
X-100452380Y-18111961D02*
X-100452380Y-17731009D01*
X-100452380Y-17731009D02*
X-100404761Y-17635771D01*
X-100404761Y-17635771D02*
X-100309523Y-17588152D01*
X-100309523Y-17588152D02*
X-100119047Y-17588152D01*
X-100119047Y-17588152D02*
X-100023809Y-17635771D01*
X-100023809Y-17635771D02*
X-99976190Y-17731009D01*
X-99976190Y-17731009D02*
X-99976190Y-17826247D01*
X-99976190Y-17826247D02*
X-100452380Y-17921485D01*
X-99642856Y-17588152D02*
X-99404761Y-18254819D01*
X-99166666Y-17588152D02*
X-99404761Y-18254819D01*
X-99404761Y-18254819D02*
X-99499999Y-18492914D01*
X-99499999Y-18492914D02*
X-99547618Y-18540533D01*
X-99547618Y-18540533D02*
X-99642856Y-18588152D01*
X-98833332Y-18207200D02*
X-98738094Y-18254819D01*
X-98738094Y-18254819D02*
X-98547618Y-18254819D01*
X-98547618Y-18254819D02*
X-98452380Y-18207200D01*
X-98452380Y-18207200D02*
X-98404761Y-18111961D01*
X-98404761Y-18111961D02*
X-98404761Y-18064342D01*
X-98404761Y-18064342D02*
X-98452380Y-17969104D01*
X-98452380Y-17969104D02*
X-98547618Y-17921485D01*
X-98547618Y-17921485D02*
X-98690475Y-17921485D01*
X-98690475Y-17921485D02*
X-98785713Y-17873866D01*
X-98785713Y-17873866D02*
X-98833332Y-17778628D01*
X-98833332Y-17778628D02*
X-98833332Y-17731009D01*
X-98833332Y-17731009D02*
X-98785713Y-17635771D01*
X-98785713Y-17635771D02*
X-98690475Y-17588152D01*
X-98690475Y-17588152D02*
X-98547618Y-17588152D01*
X-98547618Y-17588152D02*
X-98452380Y-17635771D01*
X-98071427Y-17588152D02*
X-97880951Y-18254819D01*
X-97880951Y-18254819D02*
X-97690475Y-17778628D01*
X-97690475Y-17778628D02*
X-97499999Y-18254819D01*
X-97499999Y-18254819D02*
X-97309523Y-17588152D01*
X-96928570Y-18254819D02*
X-96928570Y-17588152D01*
X-96928570Y-17254819D02*
X-96976189Y-17302438D01*
X-96976189Y-17302438D02*
X-96928570Y-17350057D01*
X-96928570Y-17350057D02*
X-96880951Y-17302438D01*
X-96880951Y-17302438D02*
X-96928570Y-17254819D01*
X-96928570Y-17254819D02*
X-96928570Y-17350057D01*
X-96595237Y-17588152D02*
X-96214285Y-17588152D01*
X-96452380Y-17254819D02*
X-96452380Y-18111961D01*
X-96452380Y-18111961D02*
X-96404761Y-18207200D01*
X-96404761Y-18207200D02*
X-96309523Y-18254819D01*
X-96309523Y-18254819D02*
X-96214285Y-18254819D01*
X-95452380Y-18207200D02*
X-95547618Y-18254819D01*
X-95547618Y-18254819D02*
X-95738094Y-18254819D01*
X-95738094Y-18254819D02*
X-95833332Y-18207200D01*
X-95833332Y-18207200D02*
X-95880951Y-18159580D01*
X-95880951Y-18159580D02*
X-95928570Y-18064342D01*
X-95928570Y-18064342D02*
X-95928570Y-17778628D01*
X-95928570Y-17778628D02*
X-95880951Y-17683390D01*
X-95880951Y-17683390D02*
X-95833332Y-17635771D01*
X-95833332Y-17635771D02*
X-95738094Y-17588152D01*
X-95738094Y-17588152D02*
X-95547618Y-17588152D01*
X-95547618Y-17588152D02*
X-95452380Y-17635771D01*
X-95023808Y-18254819D02*
X-95023808Y-17254819D01*
X-94595237Y-18254819D02*
X-94595237Y-17731009D01*
X-94595237Y-17731009D02*
X-94642856Y-17635771D01*
X-94642856Y-17635771D02*
X-94738094Y-17588152D01*
X-94738094Y-17588152D02*
X-94880951Y-17588152D01*
X-94880951Y-17588152D02*
X-94976189Y-17635771D01*
X-94976189Y-17635771D02*
X-95023808Y-17683390D01*
X-99238094Y-9207200D02*
X-99095237Y-9254819D01*
X-99095237Y-9254819D02*
X-98857142Y-9254819D01*
X-98857142Y-9254819D02*
X-98761904Y-9207200D01*
X-98761904Y-9207200D02*
X-98714285Y-9159580D01*
X-98714285Y-9159580D02*
X-98666666Y-9064342D01*
X-98666666Y-9064342D02*
X-98666666Y-8969104D01*
X-98666666Y-8969104D02*
X-98714285Y-8873866D01*
X-98714285Y-8873866D02*
X-98761904Y-8826247D01*
X-98761904Y-8826247D02*
X-98857142Y-8778628D01*
X-98857142Y-8778628D02*
X-99047618Y-8731009D01*
X-99047618Y-8731009D02*
X-99142856Y-8683390D01*
X-99142856Y-8683390D02*
X-99190475Y-8635771D01*
X-99190475Y-8635771D02*
X-99238094Y-8540533D01*
X-99238094Y-8540533D02*
X-99238094Y-8445295D01*
X-99238094Y-8445295D02*
X-99190475Y-8350057D01*
X-99190475Y-8350057D02*
X-99142856Y-8302438D01*
X-99142856Y-8302438D02*
X-99047618Y-8254819D01*
X-99047618Y-8254819D02*
X-98809523Y-8254819D01*
X-98809523Y-8254819D02*
X-98666666Y-8302438D01*
X-97714285Y-9254819D02*
X-98285713Y-9254819D01*
X-97999999Y-9254819D02*
X-97999999Y-8254819D01*
X-97999999Y-8254819D02*
X-98095237Y-8397676D01*
X-98095237Y-8397676D02*
X-98190475Y-8492914D01*
X-98190475Y-8492914D02*
X-98285713Y-8540533D01*
X-97333332Y-8350057D02*
X-97285713Y-8302438D01*
X-97285713Y-8302438D02*
X-97190475Y-8254819D01*
X-97190475Y-8254819D02*
X-96952380Y-8254819D01*
X-96952380Y-8254819D02*
X-96857142Y-8302438D01*
X-96857142Y-8302438D02*
X-96809523Y-8350057D01*
X-96809523Y-8350057D02*
X-96761904Y-8445295D01*
X-96761904Y-8445295D02*
X-96761904Y-8540533D01*
X-96761904Y-8540533D02*
X-96809523Y-8683390D01*
X-96809523Y-8683390D02*
X-97380951Y-9254819D01*
X-97380951Y-9254819D02*
X-96761904Y-9254819D01*
X-101404761Y-254819D02*
X-101404761Y745180D01*
X-100833333Y-254819D02*
X-101261904Y316609D01*
X-100833333Y745180D02*
X-101404761Y173752D01*
X-100023809Y-207200D02*
X-100119047Y-254819D01*
X-100119047Y-254819D02*
X-100309523Y-254819D01*
X-100309523Y-254819D02*
X-100404761Y-207200D01*
X-100404761Y-207200D02*
X-100452380Y-111961D01*
X-100452380Y-111961D02*
X-100452380Y268990D01*
X-100452380Y268990D02*
X-100404761Y364228D01*
X-100404761Y364228D02*
X-100309523Y411847D01*
X-100309523Y411847D02*
X-100119047Y411847D01*
X-100119047Y411847D02*
X-100023809Y364228D01*
X-100023809Y364228D02*
X-99976190Y268990D01*
X-99976190Y268990D02*
X-99976190Y173752D01*
X-99976190Y173752D02*
X-100452380Y78514D01*
X-99642856Y411847D02*
X-99404761Y-254819D01*
X-99166666Y411847D02*
X-99404761Y-254819D01*
X-99404761Y-254819D02*
X-99499999Y-492914D01*
X-99499999Y-492914D02*
X-99547618Y-540533D01*
X-99547618Y-540533D02*
X-99642856Y-588152D01*
X-98833332Y-207200D02*
X-98738094Y-254819D01*
X-98738094Y-254819D02*
X-98547618Y-254819D01*
X-98547618Y-254819D02*
X-98452380Y-207200D01*
X-98452380Y-207200D02*
X-98404761Y-111961D01*
X-98404761Y-111961D02*
X-98404761Y-64342D01*
X-98404761Y-64342D02*
X-98452380Y30895D01*
X-98452380Y30895D02*
X-98547618Y78514D01*
X-98547618Y78514D02*
X-98690475Y78514D01*
X-98690475Y78514D02*
X-98785713Y126133D01*
X-98785713Y126133D02*
X-98833332Y221371D01*
X-98833332Y221371D02*
X-98833332Y268990D01*
X-98833332Y268990D02*
X-98785713Y364228D01*
X-98785713Y364228D02*
X-98690475Y411847D01*
X-98690475Y411847D02*
X-98547618Y411847D01*
X-98547618Y411847D02*
X-98452380Y364228D01*
X-98071427Y411847D02*
X-97880951Y-254819D01*
X-97880951Y-254819D02*
X-97690475Y221371D01*
X-97690475Y221371D02*
X-97499999Y-254819D01*
X-97499999Y-254819D02*
X-97309523Y411847D01*
X-96928570Y-254819D02*
X-96928570Y411847D01*
X-96928570Y745180D02*
X-96976189Y697561D01*
X-96976189Y697561D02*
X-96928570Y649942D01*
X-96928570Y649942D02*
X-96880951Y697561D01*
X-96880951Y697561D02*
X-96928570Y745180D01*
X-96928570Y745180D02*
X-96928570Y649942D01*
X-96595237Y411847D02*
X-96214285Y411847D01*
X-96452380Y745180D02*
X-96452380Y-111961D01*
X-96452380Y-111961D02*
X-96404761Y-207200D01*
X-96404761Y-207200D02*
X-96309523Y-254819D01*
X-96309523Y-254819D02*
X-96214285Y-254819D01*
X-95452380Y-207200D02*
X-95547618Y-254819D01*
X-95547618Y-254819D02*
X-95738094Y-254819D01*
X-95738094Y-254819D02*
X-95833332Y-207200D01*
X-95833332Y-207200D02*
X-95880951Y-159580D01*
X-95880951Y-159580D02*
X-95928570Y-64342D01*
X-95928570Y-64342D02*
X-95928570Y221371D01*
X-95928570Y221371D02*
X-95880951Y316609D01*
X-95880951Y316609D02*
X-95833332Y364228D01*
X-95833332Y364228D02*
X-95738094Y411847D01*
X-95738094Y411847D02*
X-95547618Y411847D01*
X-95547618Y411847D02*
X-95452380Y364228D01*
X-95023808Y-254819D02*
X-95023808Y745180D01*
X-94595237Y-254819D02*
X-94595237Y268990D01*
X-94595237Y268990D02*
X-94642856Y364228D01*
X-94642856Y364228D02*
X-94738094Y411847D01*
X-94738094Y411847D02*
X-94880951Y411847D01*
X-94880951Y411847D02*
X-94976189Y364228D01*
X-94976189Y364228D02*
X-95023808Y316609D01*
X-98761904Y8792800D02*
X-98619047Y8745180D01*
X-98619047Y8745180D02*
X-98380952Y8745180D01*
X-98380952Y8745180D02*
X-98285714Y8792800D01*
X-98285714Y8792800D02*
X-98238095Y8840419D01*
X-98238095Y8840419D02*
X-98190476Y8935657D01*
X-98190476Y8935657D02*
X-98190476Y9030895D01*
X-98190476Y9030895D02*
X-98238095Y9126133D01*
X-98238095Y9126133D02*
X-98285714Y9173752D01*
X-98285714Y9173752D02*
X-98380952Y9221371D01*
X-98380952Y9221371D02*
X-98571428Y9268990D01*
X-98571428Y9268990D02*
X-98666666Y9316609D01*
X-98666666Y9316609D02*
X-98714285Y9364228D01*
X-98714285Y9364228D02*
X-98761904Y9459466D01*
X-98761904Y9459466D02*
X-98761904Y9554704D01*
X-98761904Y9554704D02*
X-98714285Y9649942D01*
X-98714285Y9649942D02*
X-98666666Y9697561D01*
X-98666666Y9697561D02*
X-98571428Y9745180D01*
X-98571428Y9745180D02*
X-98333333Y9745180D01*
X-98333333Y9745180D02*
X-98190476Y9697561D01*
X-97238095Y8745180D02*
X-97809523Y8745180D01*
X-97523809Y8745180D02*
X-97523809Y9745180D01*
X-97523809Y9745180D02*
X-97619047Y9602323D01*
X-97619047Y9602323D02*
X-97714285Y9507085D01*
X-97714285Y9507085D02*
X-97809523Y9459466D01*
X112095238Y-254819D02*
X112095238Y745180D01*
X112666666Y-254819D02*
X112238095Y316609D01*
X112666666Y745180D02*
X112095238Y173752D01*
X113476190Y-207200D02*
X113380952Y-254819D01*
X113380952Y-254819D02*
X113190476Y-254819D01*
X113190476Y-254819D02*
X113095238Y-207200D01*
X113095238Y-207200D02*
X113047619Y-111961D01*
X113047619Y-111961D02*
X113047619Y268990D01*
X113047619Y268990D02*
X113095238Y364228D01*
X113095238Y364228D02*
X113190476Y411847D01*
X113190476Y411847D02*
X113380952Y411847D01*
X113380952Y411847D02*
X113476190Y364228D01*
X113476190Y364228D02*
X113523809Y268990D01*
X113523809Y268990D02*
X113523809Y173752D01*
X113523809Y173752D02*
X113047619Y78514D01*
X113857143Y411847D02*
X114095238Y-254819D01*
X114333333Y411847D02*
X114095238Y-254819D01*
X114095238Y-254819D02*
X114000000Y-492914D01*
X114000000Y-492914D02*
X113952381Y-540533D01*
X113952381Y-540533D02*
X113857143Y-588152D01*
X114666667Y-207200D02*
X114761905Y-254819D01*
X114761905Y-254819D02*
X114952381Y-254819D01*
X114952381Y-254819D02*
X115047619Y-207200D01*
X115047619Y-207200D02*
X115095238Y-111961D01*
X115095238Y-111961D02*
X115095238Y-64342D01*
X115095238Y-64342D02*
X115047619Y30895D01*
X115047619Y30895D02*
X114952381Y78514D01*
X114952381Y78514D02*
X114809524Y78514D01*
X114809524Y78514D02*
X114714286Y126133D01*
X114714286Y126133D02*
X114666667Y221371D01*
X114666667Y221371D02*
X114666667Y268990D01*
X114666667Y268990D02*
X114714286Y364228D01*
X114714286Y364228D02*
X114809524Y411847D01*
X114809524Y411847D02*
X114952381Y411847D01*
X114952381Y411847D02*
X115047619Y364228D01*
X115428572Y411847D02*
X115619048Y-254819D01*
X115619048Y-254819D02*
X115809524Y221371D01*
X115809524Y221371D02*
X116000000Y-254819D01*
X116000000Y-254819D02*
X116190476Y411847D01*
X116571429Y-254819D02*
X116571429Y411847D01*
X116571429Y745180D02*
X116523810Y697561D01*
X116523810Y697561D02*
X116571429Y649942D01*
X116571429Y649942D02*
X116619048Y697561D01*
X116619048Y697561D02*
X116571429Y745180D01*
X116571429Y745180D02*
X116571429Y649942D01*
X116904762Y411847D02*
X117285714Y411847D01*
X117047619Y745180D02*
X117047619Y-111961D01*
X117047619Y-111961D02*
X117095238Y-207200D01*
X117095238Y-207200D02*
X117190476Y-254819D01*
X117190476Y-254819D02*
X117285714Y-254819D01*
X118047619Y-207200D02*
X117952381Y-254819D01*
X117952381Y-254819D02*
X117761905Y-254819D01*
X117761905Y-254819D02*
X117666667Y-207200D01*
X117666667Y-207200D02*
X117619048Y-159580D01*
X117619048Y-159580D02*
X117571429Y-64342D01*
X117571429Y-64342D02*
X117571429Y221371D01*
X117571429Y221371D02*
X117619048Y316609D01*
X117619048Y316609D02*
X117666667Y364228D01*
X117666667Y364228D02*
X117761905Y411847D01*
X117761905Y411847D02*
X117952381Y411847D01*
X117952381Y411847D02*
X118047619Y364228D01*
X118476191Y-254819D02*
X118476191Y745180D01*
X118904762Y-254819D02*
X118904762Y268990D01*
X118904762Y268990D02*
X118857143Y364228D01*
X118857143Y364228D02*
X118761905Y411847D01*
X118761905Y411847D02*
X118619048Y411847D01*
X118619048Y411847D02*
X118523810Y364228D01*
X118523810Y364228D02*
X118476191Y316609D01*
X114261905Y8792800D02*
X114404762Y8745180D01*
X114404762Y8745180D02*
X114642857Y8745180D01*
X114642857Y8745180D02*
X114738095Y8792800D01*
X114738095Y8792800D02*
X114785714Y8840419D01*
X114785714Y8840419D02*
X114833333Y8935657D01*
X114833333Y8935657D02*
X114833333Y9030895D01*
X114833333Y9030895D02*
X114785714Y9126133D01*
X114785714Y9126133D02*
X114738095Y9173752D01*
X114738095Y9173752D02*
X114642857Y9221371D01*
X114642857Y9221371D02*
X114452381Y9268990D01*
X114452381Y9268990D02*
X114357143Y9316609D01*
X114357143Y9316609D02*
X114309524Y9364228D01*
X114309524Y9364228D02*
X114261905Y9459466D01*
X114261905Y9459466D02*
X114261905Y9554704D01*
X114261905Y9554704D02*
X114309524Y9649942D01*
X114309524Y9649942D02*
X114357143Y9697561D01*
X114357143Y9697561D02*
X114452381Y9745180D01*
X114452381Y9745180D02*
X114690476Y9745180D01*
X114690476Y9745180D02*
X114833333Y9697561D01*
X115785714Y8745180D02*
X115214286Y8745180D01*
X115500000Y8745180D02*
X115500000Y9745180D01*
X115500000Y9745180D02*
X115404762Y9602323D01*
X115404762Y9602323D02*
X115309524Y9507085D01*
X115309524Y9507085D02*
X115214286Y9459466D01*
X116738095Y8745180D02*
X116166667Y8745180D01*
X116452381Y8745180D02*
X116452381Y9745180D01*
X116452381Y9745180D02*
X116357143Y9602323D01*
X116357143Y9602323D02*
X116261905Y9507085D01*
X116261905Y9507085D02*
X116166667Y9459466D01*
X-44404761Y-18254819D02*
X-44404761Y-17254819D01*
X-43833333Y-18254819D02*
X-44261904Y-17683390D01*
X-43833333Y-17254819D02*
X-44404761Y-17826247D01*
X-43023809Y-18207200D02*
X-43119047Y-18254819D01*
X-43119047Y-18254819D02*
X-43309523Y-18254819D01*
X-43309523Y-18254819D02*
X-43404761Y-18207200D01*
X-43404761Y-18207200D02*
X-43452380Y-18111961D01*
X-43452380Y-18111961D02*
X-43452380Y-17731009D01*
X-43452380Y-17731009D02*
X-43404761Y-17635771D01*
X-43404761Y-17635771D02*
X-43309523Y-17588152D01*
X-43309523Y-17588152D02*
X-43119047Y-17588152D01*
X-43119047Y-17588152D02*
X-43023809Y-17635771D01*
X-43023809Y-17635771D02*
X-42976190Y-17731009D01*
X-42976190Y-17731009D02*
X-42976190Y-17826247D01*
X-42976190Y-17826247D02*
X-43452380Y-17921485D01*
X-42642856Y-17588152D02*
X-42404761Y-18254819D01*
X-42166666Y-17588152D02*
X-42404761Y-18254819D01*
X-42404761Y-18254819D02*
X-42499999Y-18492914D01*
X-42499999Y-18492914D02*
X-42547618Y-18540533D01*
X-42547618Y-18540533D02*
X-42642856Y-18588152D01*
X-41833332Y-18207200D02*
X-41738094Y-18254819D01*
X-41738094Y-18254819D02*
X-41547618Y-18254819D01*
X-41547618Y-18254819D02*
X-41452380Y-18207200D01*
X-41452380Y-18207200D02*
X-41404761Y-18111961D01*
X-41404761Y-18111961D02*
X-41404761Y-18064342D01*
X-41404761Y-18064342D02*
X-41452380Y-17969104D01*
X-41452380Y-17969104D02*
X-41547618Y-17921485D01*
X-41547618Y-17921485D02*
X-41690475Y-17921485D01*
X-41690475Y-17921485D02*
X-41785713Y-17873866D01*
X-41785713Y-17873866D02*
X-41833332Y-17778628D01*
X-41833332Y-17778628D02*
X-41833332Y-17731009D01*
X-41833332Y-17731009D02*
X-41785713Y-17635771D01*
X-41785713Y-17635771D02*
X-41690475Y-17588152D01*
X-41690475Y-17588152D02*
X-41547618Y-17588152D01*
X-41547618Y-17588152D02*
X-41452380Y-17635771D01*
X-41071427Y-17588152D02*
X-40880951Y-18254819D01*
X-40880951Y-18254819D02*
X-40690475Y-17778628D01*
X-40690475Y-17778628D02*
X-40499999Y-18254819D01*
X-40499999Y-18254819D02*
X-40309523Y-17588152D01*
X-39928570Y-18254819D02*
X-39928570Y-17588152D01*
X-39928570Y-17254819D02*
X-39976189Y-17302438D01*
X-39976189Y-17302438D02*
X-39928570Y-17350057D01*
X-39928570Y-17350057D02*
X-39880951Y-17302438D01*
X-39880951Y-17302438D02*
X-39928570Y-17254819D01*
X-39928570Y-17254819D02*
X-39928570Y-17350057D01*
X-39595237Y-17588152D02*
X-39214285Y-17588152D01*
X-39452380Y-17254819D02*
X-39452380Y-18111961D01*
X-39452380Y-18111961D02*
X-39404761Y-18207200D01*
X-39404761Y-18207200D02*
X-39309523Y-18254819D01*
X-39309523Y-18254819D02*
X-39214285Y-18254819D01*
X-38452380Y-18207200D02*
X-38547618Y-18254819D01*
X-38547618Y-18254819D02*
X-38738094Y-18254819D01*
X-38738094Y-18254819D02*
X-38833332Y-18207200D01*
X-38833332Y-18207200D02*
X-38880951Y-18159580D01*
X-38880951Y-18159580D02*
X-38928570Y-18064342D01*
X-38928570Y-18064342D02*
X-38928570Y-17778628D01*
X-38928570Y-17778628D02*
X-38880951Y-17683390D01*
X-38880951Y-17683390D02*
X-38833332Y-17635771D01*
X-38833332Y-17635771D02*
X-38738094Y-17588152D01*
X-38738094Y-17588152D02*
X-38547618Y-17588152D01*
X-38547618Y-17588152D02*
X-38452380Y-17635771D01*
X-38023808Y-18254819D02*
X-38023808Y-17254819D01*
X-37595237Y-18254819D02*
X-37595237Y-17731009D01*
X-37595237Y-17731009D02*
X-37642856Y-17635771D01*
X-37642856Y-17635771D02*
X-37738094Y-17588152D01*
X-37738094Y-17588152D02*
X-37880951Y-17588152D01*
X-37880951Y-17588152D02*
X-37976189Y-17635771D01*
X-37976189Y-17635771D02*
X-38023808Y-17683390D01*
X-42238094Y-9207200D02*
X-42095237Y-9254819D01*
X-42095237Y-9254819D02*
X-41857142Y-9254819D01*
X-41857142Y-9254819D02*
X-41761904Y-9207200D01*
X-41761904Y-9207200D02*
X-41714285Y-9159580D01*
X-41714285Y-9159580D02*
X-41666666Y-9064342D01*
X-41666666Y-9064342D02*
X-41666666Y-8969104D01*
X-41666666Y-8969104D02*
X-41714285Y-8873866D01*
X-41714285Y-8873866D02*
X-41761904Y-8826247D01*
X-41761904Y-8826247D02*
X-41857142Y-8778628D01*
X-41857142Y-8778628D02*
X-42047618Y-8731009D01*
X-42047618Y-8731009D02*
X-42142856Y-8683390D01*
X-42142856Y-8683390D02*
X-42190475Y-8635771D01*
X-42190475Y-8635771D02*
X-42238094Y-8540533D01*
X-42238094Y-8540533D02*
X-42238094Y-8445295D01*
X-42238094Y-8445295D02*
X-42190475Y-8350057D01*
X-42190475Y-8350057D02*
X-42142856Y-8302438D01*
X-42142856Y-8302438D02*
X-42047618Y-8254819D01*
X-42047618Y-8254819D02*
X-41809523Y-8254819D01*
X-41809523Y-8254819D02*
X-41666666Y-8302438D01*
X-40714285Y-9254819D02*
X-41285713Y-9254819D01*
X-40999999Y-9254819D02*
X-40999999Y-8254819D01*
X-40999999Y-8254819D02*
X-41095237Y-8397676D01*
X-41095237Y-8397676D02*
X-41190475Y-8492914D01*
X-41190475Y-8492914D02*
X-41285713Y-8540533D01*
X-39809523Y-8254819D02*
X-40285713Y-8254819D01*
X-40285713Y-8254819D02*
X-40333332Y-8731009D01*
X-40333332Y-8731009D02*
X-40285713Y-8683390D01*
X-40285713Y-8683390D02*
X-40190475Y-8635771D01*
X-40190475Y-8635771D02*
X-39952380Y-8635771D01*
X-39952380Y-8635771D02*
X-39857142Y-8683390D01*
X-39857142Y-8683390D02*
X-39809523Y-8731009D01*
X-39809523Y-8731009D02*
X-39761904Y-8826247D01*
X-39761904Y-8826247D02*
X-39761904Y-9064342D01*
X-39761904Y-9064342D02*
X-39809523Y-9159580D01*
X-39809523Y-9159580D02*
X-39857142Y-9207200D01*
X-39857142Y-9207200D02*
X-39952380Y-9254819D01*
X-39952380Y-9254819D02*
X-40190475Y-9254819D01*
X-40190475Y-9254819D02*
X-40285713Y-9207200D01*
X-40285713Y-9207200D02*
X-40333332Y-9159580D01*
X94595238Y-254819D02*
X94595238Y745180D01*
X95166666Y-254819D02*
X94738095Y316609D01*
X95166666Y745180D02*
X94595238Y173752D01*
X95976190Y-207200D02*
X95880952Y-254819D01*
X95880952Y-254819D02*
X95690476Y-254819D01*
X95690476Y-254819D02*
X95595238Y-207200D01*
X95595238Y-207200D02*
X95547619Y-111961D01*
X95547619Y-111961D02*
X95547619Y268990D01*
X95547619Y268990D02*
X95595238Y364228D01*
X95595238Y364228D02*
X95690476Y411847D01*
X95690476Y411847D02*
X95880952Y411847D01*
X95880952Y411847D02*
X95976190Y364228D01*
X95976190Y364228D02*
X96023809Y268990D01*
X96023809Y268990D02*
X96023809Y173752D01*
X96023809Y173752D02*
X95547619Y78514D01*
X96357143Y411847D02*
X96595238Y-254819D01*
X96833333Y411847D02*
X96595238Y-254819D01*
X96595238Y-254819D02*
X96500000Y-492914D01*
X96500000Y-492914D02*
X96452381Y-540533D01*
X96452381Y-540533D02*
X96357143Y-588152D01*
X97166667Y-207200D02*
X97261905Y-254819D01*
X97261905Y-254819D02*
X97452381Y-254819D01*
X97452381Y-254819D02*
X97547619Y-207200D01*
X97547619Y-207200D02*
X97595238Y-111961D01*
X97595238Y-111961D02*
X97595238Y-64342D01*
X97595238Y-64342D02*
X97547619Y30895D01*
X97547619Y30895D02*
X97452381Y78514D01*
X97452381Y78514D02*
X97309524Y78514D01*
X97309524Y78514D02*
X97214286Y126133D01*
X97214286Y126133D02*
X97166667Y221371D01*
X97166667Y221371D02*
X97166667Y268990D01*
X97166667Y268990D02*
X97214286Y364228D01*
X97214286Y364228D02*
X97309524Y411847D01*
X97309524Y411847D02*
X97452381Y411847D01*
X97452381Y411847D02*
X97547619Y364228D01*
X97928572Y411847D02*
X98119048Y-254819D01*
X98119048Y-254819D02*
X98309524Y221371D01*
X98309524Y221371D02*
X98500000Y-254819D01*
X98500000Y-254819D02*
X98690476Y411847D01*
X99071429Y-254819D02*
X99071429Y411847D01*
X99071429Y745180D02*
X99023810Y697561D01*
X99023810Y697561D02*
X99071429Y649942D01*
X99071429Y649942D02*
X99119048Y697561D01*
X99119048Y697561D02*
X99071429Y745180D01*
X99071429Y745180D02*
X99071429Y649942D01*
X99404762Y411847D02*
X99785714Y411847D01*
X99547619Y745180D02*
X99547619Y-111961D01*
X99547619Y-111961D02*
X99595238Y-207200D01*
X99595238Y-207200D02*
X99690476Y-254819D01*
X99690476Y-254819D02*
X99785714Y-254819D01*
X100547619Y-207200D02*
X100452381Y-254819D01*
X100452381Y-254819D02*
X100261905Y-254819D01*
X100261905Y-254819D02*
X100166667Y-207200D01*
X100166667Y-207200D02*
X100119048Y-159580D01*
X100119048Y-159580D02*
X100071429Y-64342D01*
X100071429Y-64342D02*
X100071429Y221371D01*
X100071429Y221371D02*
X100119048Y316609D01*
X100119048Y316609D02*
X100166667Y364228D01*
X100166667Y364228D02*
X100261905Y411847D01*
X100261905Y411847D02*
X100452381Y411847D01*
X100452381Y411847D02*
X100547619Y364228D01*
X100976191Y-254819D02*
X100976191Y745180D01*
X101404762Y-254819D02*
X101404762Y268990D01*
X101404762Y268990D02*
X101357143Y364228D01*
X101357143Y364228D02*
X101261905Y411847D01*
X101261905Y411847D02*
X101119048Y411847D01*
X101119048Y411847D02*
X101023810Y364228D01*
X101023810Y364228D02*
X100976191Y316609D01*
X96761905Y8792800D02*
X96904762Y8745180D01*
X96904762Y8745180D02*
X97142857Y8745180D01*
X97142857Y8745180D02*
X97238095Y8792800D01*
X97238095Y8792800D02*
X97285714Y8840419D01*
X97285714Y8840419D02*
X97333333Y8935657D01*
X97333333Y8935657D02*
X97333333Y9030895D01*
X97333333Y9030895D02*
X97285714Y9126133D01*
X97285714Y9126133D02*
X97238095Y9173752D01*
X97238095Y9173752D02*
X97142857Y9221371D01*
X97142857Y9221371D02*
X96952381Y9268990D01*
X96952381Y9268990D02*
X96857143Y9316609D01*
X96857143Y9316609D02*
X96809524Y9364228D01*
X96809524Y9364228D02*
X96761905Y9459466D01*
X96761905Y9459466D02*
X96761905Y9554704D01*
X96761905Y9554704D02*
X96809524Y9649942D01*
X96809524Y9649942D02*
X96857143Y9697561D01*
X96857143Y9697561D02*
X96952381Y9745180D01*
X96952381Y9745180D02*
X97190476Y9745180D01*
X97190476Y9745180D02*
X97333333Y9697561D01*
X98285714Y8745180D02*
X97714286Y8745180D01*
X98000000Y8745180D02*
X98000000Y9745180D01*
X98000000Y9745180D02*
X97904762Y9602323D01*
X97904762Y9602323D02*
X97809524Y9507085D01*
X97809524Y9507085D02*
X97714286Y9459466D01*
X98904762Y9745180D02*
X99000000Y9745180D01*
X99000000Y9745180D02*
X99095238Y9697561D01*
X99095238Y9697561D02*
X99142857Y9649942D01*
X99142857Y9649942D02*
X99190476Y9554704D01*
X99190476Y9554704D02*
X99238095Y9364228D01*
X99238095Y9364228D02*
X99238095Y9126133D01*
X99238095Y9126133D02*
X99190476Y8935657D01*
X99190476Y8935657D02*
X99142857Y8840419D01*
X99142857Y8840419D02*
X99095238Y8792800D01*
X99095238Y8792800D02*
X99000000Y8745180D01*
X99000000Y8745180D02*
X98904762Y8745180D01*
X98904762Y8745180D02*
X98809524Y8792800D01*
X98809524Y8792800D02*
X98761905Y8840419D01*
X98761905Y8840419D02*
X98714286Y8935657D01*
X98714286Y8935657D02*
X98666667Y9126133D01*
X98666667Y9126133D02*
X98666667Y9364228D01*
X98666667Y9364228D02*
X98714286Y9554704D01*
X98714286Y9554704D02*
X98761905Y9649942D01*
X98761905Y9649942D02*
X98809524Y9697561D01*
X98809524Y9697561D02*
X98904762Y9745180D01*
X112095238Y-18254819D02*
X112095238Y-17254819D01*
X112666666Y-18254819D02*
X112238095Y-17683390D01*
X112666666Y-17254819D02*
X112095238Y-17826247D01*
X113476190Y-18207200D02*
X113380952Y-18254819D01*
X113380952Y-18254819D02*
X113190476Y-18254819D01*
X113190476Y-18254819D02*
X113095238Y-18207200D01*
X113095238Y-18207200D02*
X113047619Y-18111961D01*
X113047619Y-18111961D02*
X113047619Y-17731009D01*
X113047619Y-17731009D02*
X113095238Y-17635771D01*
X113095238Y-17635771D02*
X113190476Y-17588152D01*
X113190476Y-17588152D02*
X113380952Y-17588152D01*
X113380952Y-17588152D02*
X113476190Y-17635771D01*
X113476190Y-17635771D02*
X113523809Y-17731009D01*
X113523809Y-17731009D02*
X113523809Y-17826247D01*
X113523809Y-17826247D02*
X113047619Y-17921485D01*
X113857143Y-17588152D02*
X114095238Y-18254819D01*
X114333333Y-17588152D02*
X114095238Y-18254819D01*
X114095238Y-18254819D02*
X114000000Y-18492914D01*
X114000000Y-18492914D02*
X113952381Y-18540533D01*
X113952381Y-18540533D02*
X113857143Y-18588152D01*
X114666667Y-18207200D02*
X114761905Y-18254819D01*
X114761905Y-18254819D02*
X114952381Y-18254819D01*
X114952381Y-18254819D02*
X115047619Y-18207200D01*
X115047619Y-18207200D02*
X115095238Y-18111961D01*
X115095238Y-18111961D02*
X115095238Y-18064342D01*
X115095238Y-18064342D02*
X115047619Y-17969104D01*
X115047619Y-17969104D02*
X114952381Y-17921485D01*
X114952381Y-17921485D02*
X114809524Y-17921485D01*
X114809524Y-17921485D02*
X114714286Y-17873866D01*
X114714286Y-17873866D02*
X114666667Y-17778628D01*
X114666667Y-17778628D02*
X114666667Y-17731009D01*
X114666667Y-17731009D02*
X114714286Y-17635771D01*
X114714286Y-17635771D02*
X114809524Y-17588152D01*
X114809524Y-17588152D02*
X114952381Y-17588152D01*
X114952381Y-17588152D02*
X115047619Y-17635771D01*
X115428572Y-17588152D02*
X115619048Y-18254819D01*
X115619048Y-18254819D02*
X115809524Y-17778628D01*
X115809524Y-17778628D02*
X116000000Y-18254819D01*
X116000000Y-18254819D02*
X116190476Y-17588152D01*
X116571429Y-18254819D02*
X116571429Y-17588152D01*
X116571429Y-17254819D02*
X116523810Y-17302438D01*
X116523810Y-17302438D02*
X116571429Y-17350057D01*
X116571429Y-17350057D02*
X116619048Y-17302438D01*
X116619048Y-17302438D02*
X116571429Y-17254819D01*
X116571429Y-17254819D02*
X116571429Y-17350057D01*
X116904762Y-17588152D02*
X117285714Y-17588152D01*
X117047619Y-17254819D02*
X117047619Y-18111961D01*
X117047619Y-18111961D02*
X117095238Y-18207200D01*
X117095238Y-18207200D02*
X117190476Y-18254819D01*
X117190476Y-18254819D02*
X117285714Y-18254819D01*
X118047619Y-18207200D02*
X117952381Y-18254819D01*
X117952381Y-18254819D02*
X117761905Y-18254819D01*
X117761905Y-18254819D02*
X117666667Y-18207200D01*
X117666667Y-18207200D02*
X117619048Y-18159580D01*
X117619048Y-18159580D02*
X117571429Y-18064342D01*
X117571429Y-18064342D02*
X117571429Y-17778628D01*
X117571429Y-17778628D02*
X117619048Y-17683390D01*
X117619048Y-17683390D02*
X117666667Y-17635771D01*
X117666667Y-17635771D02*
X117761905Y-17588152D01*
X117761905Y-17588152D02*
X117952381Y-17588152D01*
X117952381Y-17588152D02*
X118047619Y-17635771D01*
X118476191Y-18254819D02*
X118476191Y-17254819D01*
X118904762Y-18254819D02*
X118904762Y-17731009D01*
X118904762Y-17731009D02*
X118857143Y-17635771D01*
X118857143Y-17635771D02*
X118761905Y-17588152D01*
X118761905Y-17588152D02*
X118619048Y-17588152D01*
X118619048Y-17588152D02*
X118523810Y-17635771D01*
X118523810Y-17635771D02*
X118476191Y-17683390D01*
X114261905Y-9207200D02*
X114404762Y-9254819D01*
X114404762Y-9254819D02*
X114642857Y-9254819D01*
X114642857Y-9254819D02*
X114738095Y-9207200D01*
X114738095Y-9207200D02*
X114785714Y-9159580D01*
X114785714Y-9159580D02*
X114833333Y-9064342D01*
X114833333Y-9064342D02*
X114833333Y-8969104D01*
X114833333Y-8969104D02*
X114785714Y-8873866D01*
X114785714Y-8873866D02*
X114738095Y-8826247D01*
X114738095Y-8826247D02*
X114642857Y-8778628D01*
X114642857Y-8778628D02*
X114452381Y-8731009D01*
X114452381Y-8731009D02*
X114357143Y-8683390D01*
X114357143Y-8683390D02*
X114309524Y-8635771D01*
X114309524Y-8635771D02*
X114261905Y-8540533D01*
X114261905Y-8540533D02*
X114261905Y-8445295D01*
X114261905Y-8445295D02*
X114309524Y-8350057D01*
X114309524Y-8350057D02*
X114357143Y-8302438D01*
X114357143Y-8302438D02*
X114452381Y-8254819D01*
X114452381Y-8254819D02*
X114690476Y-8254819D01*
X114690476Y-8254819D02*
X114833333Y-8302438D01*
X115214286Y-8350057D02*
X115261905Y-8302438D01*
X115261905Y-8302438D02*
X115357143Y-8254819D01*
X115357143Y-8254819D02*
X115595238Y-8254819D01*
X115595238Y-8254819D02*
X115690476Y-8302438D01*
X115690476Y-8302438D02*
X115738095Y-8350057D01*
X115738095Y-8350057D02*
X115785714Y-8445295D01*
X115785714Y-8445295D02*
X115785714Y-8540533D01*
X115785714Y-8540533D02*
X115738095Y-8683390D01*
X115738095Y-8683390D02*
X115166667Y-9254819D01*
X115166667Y-9254819D02*
X115785714Y-9254819D01*
X116166667Y-8350057D02*
X116214286Y-8302438D01*
X116214286Y-8302438D02*
X116309524Y-8254819D01*
X116309524Y-8254819D02*
X116547619Y-8254819D01*
X116547619Y-8254819D02*
X116642857Y-8302438D01*
X116642857Y-8302438D02*
X116690476Y-8350057D01*
X116690476Y-8350057D02*
X116738095Y-8445295D01*
X116738095Y-8445295D02*
X116738095Y-8540533D01*
X116738095Y-8540533D02*
X116690476Y-8683390D01*
X116690476Y-8683390D02*
X116119048Y-9254819D01*
X116119048Y-9254819D02*
X116738095Y-9254819D01*
X18595238Y-254819D02*
X18595238Y745180D01*
X19166666Y-254819D02*
X18738095Y316609D01*
X19166666Y745180D02*
X18595238Y173752D01*
X19976190Y-207200D02*
X19880952Y-254819D01*
X19880952Y-254819D02*
X19690476Y-254819D01*
X19690476Y-254819D02*
X19595238Y-207200D01*
X19595238Y-207200D02*
X19547619Y-111961D01*
X19547619Y-111961D02*
X19547619Y268990D01*
X19547619Y268990D02*
X19595238Y364228D01*
X19595238Y364228D02*
X19690476Y411847D01*
X19690476Y411847D02*
X19880952Y411847D01*
X19880952Y411847D02*
X19976190Y364228D01*
X19976190Y364228D02*
X20023809Y268990D01*
X20023809Y268990D02*
X20023809Y173752D01*
X20023809Y173752D02*
X19547619Y78514D01*
X20357143Y411847D02*
X20595238Y-254819D01*
X20833333Y411847D02*
X20595238Y-254819D01*
X20595238Y-254819D02*
X20500000Y-492914D01*
X20500000Y-492914D02*
X20452381Y-540533D01*
X20452381Y-540533D02*
X20357143Y-588152D01*
X21166667Y-207200D02*
X21261905Y-254819D01*
X21261905Y-254819D02*
X21452381Y-254819D01*
X21452381Y-254819D02*
X21547619Y-207200D01*
X21547619Y-207200D02*
X21595238Y-111961D01*
X21595238Y-111961D02*
X21595238Y-64342D01*
X21595238Y-64342D02*
X21547619Y30895D01*
X21547619Y30895D02*
X21452381Y78514D01*
X21452381Y78514D02*
X21309524Y78514D01*
X21309524Y78514D02*
X21214286Y126133D01*
X21214286Y126133D02*
X21166667Y221371D01*
X21166667Y221371D02*
X21166667Y268990D01*
X21166667Y268990D02*
X21214286Y364228D01*
X21214286Y364228D02*
X21309524Y411847D01*
X21309524Y411847D02*
X21452381Y411847D01*
X21452381Y411847D02*
X21547619Y364228D01*
X21928572Y411847D02*
X22119048Y-254819D01*
X22119048Y-254819D02*
X22309524Y221371D01*
X22309524Y221371D02*
X22500000Y-254819D01*
X22500000Y-254819D02*
X22690476Y411847D01*
X23071429Y-254819D02*
X23071429Y411847D01*
X23071429Y745180D02*
X23023810Y697561D01*
X23023810Y697561D02*
X23071429Y649942D01*
X23071429Y649942D02*
X23119048Y697561D01*
X23119048Y697561D02*
X23071429Y745180D01*
X23071429Y745180D02*
X23071429Y649942D01*
X23404762Y411847D02*
X23785714Y411847D01*
X23547619Y745180D02*
X23547619Y-111961D01*
X23547619Y-111961D02*
X23595238Y-207200D01*
X23595238Y-207200D02*
X23690476Y-254819D01*
X23690476Y-254819D02*
X23785714Y-254819D01*
X24547619Y-207200D02*
X24452381Y-254819D01*
X24452381Y-254819D02*
X24261905Y-254819D01*
X24261905Y-254819D02*
X24166667Y-207200D01*
X24166667Y-207200D02*
X24119048Y-159580D01*
X24119048Y-159580D02*
X24071429Y-64342D01*
X24071429Y-64342D02*
X24071429Y221371D01*
X24071429Y221371D02*
X24119048Y316609D01*
X24119048Y316609D02*
X24166667Y364228D01*
X24166667Y364228D02*
X24261905Y411847D01*
X24261905Y411847D02*
X24452381Y411847D01*
X24452381Y411847D02*
X24547619Y364228D01*
X24976191Y-254819D02*
X24976191Y745180D01*
X25404762Y-254819D02*
X25404762Y268990D01*
X25404762Y268990D02*
X25357143Y364228D01*
X25357143Y364228D02*
X25261905Y411847D01*
X25261905Y411847D02*
X25119048Y411847D01*
X25119048Y411847D02*
X25023810Y364228D01*
X25023810Y364228D02*
X24976191Y316609D01*
X21238095Y8792800D02*
X21380952Y8745180D01*
X21380952Y8745180D02*
X21619047Y8745180D01*
X21619047Y8745180D02*
X21714285Y8792800D01*
X21714285Y8792800D02*
X21761904Y8840419D01*
X21761904Y8840419D02*
X21809523Y8935657D01*
X21809523Y8935657D02*
X21809523Y9030895D01*
X21809523Y9030895D02*
X21761904Y9126133D01*
X21761904Y9126133D02*
X21714285Y9173752D01*
X21714285Y9173752D02*
X21619047Y9221371D01*
X21619047Y9221371D02*
X21428571Y9268990D01*
X21428571Y9268990D02*
X21333333Y9316609D01*
X21333333Y9316609D02*
X21285714Y9364228D01*
X21285714Y9364228D02*
X21238095Y9459466D01*
X21238095Y9459466D02*
X21238095Y9554704D01*
X21238095Y9554704D02*
X21285714Y9649942D01*
X21285714Y9649942D02*
X21333333Y9697561D01*
X21333333Y9697561D02*
X21428571Y9745180D01*
X21428571Y9745180D02*
X21666666Y9745180D01*
X21666666Y9745180D02*
X21809523Y9697561D01*
X22666666Y9745180D02*
X22476190Y9745180D01*
X22476190Y9745180D02*
X22380952Y9697561D01*
X22380952Y9697561D02*
X22333333Y9649942D01*
X22333333Y9649942D02*
X22238095Y9507085D01*
X22238095Y9507085D02*
X22190476Y9316609D01*
X22190476Y9316609D02*
X22190476Y8935657D01*
X22190476Y8935657D02*
X22238095Y8840419D01*
X22238095Y8840419D02*
X22285714Y8792800D01*
X22285714Y8792800D02*
X22380952Y8745180D01*
X22380952Y8745180D02*
X22571428Y8745180D01*
X22571428Y8745180D02*
X22666666Y8792800D01*
X22666666Y8792800D02*
X22714285Y8840419D01*
X22714285Y8840419D02*
X22761904Y8935657D01*
X22761904Y8935657D02*
X22761904Y9173752D01*
X22761904Y9173752D02*
X22714285Y9268990D01*
X22714285Y9268990D02*
X22666666Y9316609D01*
X22666666Y9316609D02*
X22571428Y9364228D01*
X22571428Y9364228D02*
X22380952Y9364228D01*
X22380952Y9364228D02*
X22285714Y9316609D01*
X22285714Y9316609D02*
X22238095Y9268990D01*
X22238095Y9268990D02*
X22190476Y9173752D01*
X-45374407Y-50047129D02*
X-45269879Y-49052608D01*
X-44806109Y-50106860D02*
X-45172602Y-49493764D01*
X-44701580Y-49112338D02*
X-45329609Y-49620906D01*
X-43996042Y-50144120D02*
X-44095736Y-50181523D01*
X-44095736Y-50181523D02*
X-44285169Y-50161613D01*
X-44285169Y-50161613D02*
X-44374908Y-50104300D01*
X-44374908Y-50104300D02*
X-44412311Y-50004606D01*
X-44412311Y-50004606D02*
X-44372490Y-49625740D01*
X-44372490Y-49625740D02*
X-44315177Y-49536002D01*
X-44315177Y-49536002D02*
X-44215483Y-49498598D01*
X-44215483Y-49498598D02*
X-44026051Y-49518509D01*
X-44026051Y-49518509D02*
X-43936312Y-49575822D01*
X-43936312Y-49575822D02*
X-43898909Y-49675516D01*
X-43898909Y-49675516D02*
X-43908864Y-49770232D01*
X-43908864Y-49770232D02*
X-44392401Y-49815173D01*
X-43552469Y-49568284D02*
X-43385363Y-50256186D01*
X-43078887Y-49618060D02*
X-43385363Y-50256186D01*
X-43385363Y-50256186D02*
X-43504967Y-50483022D01*
X-43504967Y-50483022D02*
X-43557303Y-50525403D01*
X-43557303Y-50525403D02*
X-43656997Y-50562806D01*
X-42812087Y-50268559D02*
X-42722348Y-50325872D01*
X-42722348Y-50325872D02*
X-42532916Y-50345782D01*
X-42532916Y-50345782D02*
X-42433222Y-50308379D01*
X-42433222Y-50308379D02*
X-42375908Y-50218640D01*
X-42375908Y-50218640D02*
X-42370931Y-50171282D01*
X-42370931Y-50171282D02*
X-42408334Y-50071588D01*
X-42408334Y-50071588D02*
X-42498073Y-50014275D01*
X-42498073Y-50014275D02*
X-42640147Y-49999342D01*
X-42640147Y-49999342D02*
X-42729886Y-49942029D01*
X-42729886Y-49942029D02*
X-42767289Y-49842335D01*
X-42767289Y-49842335D02*
X-42762312Y-49794977D01*
X-42762312Y-49794977D02*
X-42704998Y-49705238D01*
X-42704998Y-49705238D02*
X-42605305Y-49667835D01*
X-42605305Y-49667835D02*
X-42463230Y-49682768D01*
X-42463230Y-49682768D02*
X-42373491Y-49740081D01*
X-41989648Y-49732543D02*
X-41869901Y-50415468D01*
X-41869901Y-50415468D02*
X-41630693Y-49961796D01*
X-41630693Y-49961796D02*
X-41491035Y-50455288D01*
X-41491035Y-50455288D02*
X-41231917Y-49812184D01*
X-40922737Y-50515019D02*
X-40853052Y-49852004D01*
X-40818209Y-49520497D02*
X-40870544Y-49562878D01*
X-40870544Y-49562878D02*
X-40828164Y-49615213D01*
X-40828164Y-49615213D02*
X-40775828Y-49572833D01*
X-40775828Y-49572833D02*
X-40818209Y-49520497D01*
X-40818209Y-49520497D02*
X-40828164Y-49615213D01*
X-40521545Y-49886847D02*
X-40142679Y-49926667D01*
X-40344627Y-49570272D02*
X-40434223Y-50422720D01*
X-40434223Y-50422720D02*
X-40396820Y-50522414D01*
X-40396820Y-50522414D02*
X-40307081Y-50579727D01*
X-40307081Y-50579727D02*
X-40212365Y-50589682D01*
X-39449656Y-50621965D02*
X-39549350Y-50659368D01*
X-39549350Y-50659368D02*
X-39738783Y-50639457D01*
X-39738783Y-50639457D02*
X-39828521Y-50582144D01*
X-39828521Y-50582144D02*
X-39870902Y-50529808D01*
X-39870902Y-50529808D02*
X-39908305Y-50430115D01*
X-39908305Y-50430115D02*
X-39878440Y-50145965D01*
X-39878440Y-50145965D02*
X-39821127Y-50056227D01*
X-39821127Y-50056227D02*
X-39768791Y-50013846D01*
X-39768791Y-50013846D02*
X-39669097Y-49976443D01*
X-39669097Y-49976443D02*
X-39479664Y-49996353D01*
X-39479664Y-49996353D02*
X-39389925Y-50053666D01*
X-39028410Y-50714121D02*
X-38923881Y-49719599D01*
X-38602186Y-50758919D02*
X-38547433Y-50237979D01*
X-38547433Y-50237979D02*
X-38584836Y-50138285D01*
X-38584836Y-50138285D02*
X-38674575Y-50080971D01*
X-38674575Y-50080971D02*
X-38816649Y-50066039D01*
X-38816649Y-50066039D02*
X-38916343Y-50103442D01*
X-38916343Y-50103442D02*
X-38968679Y-50145822D01*
X-42273876Y-41275553D02*
X-42136779Y-41337843D01*
X-42136779Y-41337843D02*
X-41899988Y-41362731D01*
X-41899988Y-41362731D02*
X-41800294Y-41325328D01*
X-41800294Y-41325328D02*
X-41747958Y-41282947D01*
X-41747958Y-41282947D02*
X-41690645Y-41193209D01*
X-41690645Y-41193209D02*
X-41680690Y-41098492D01*
X-41680690Y-41098492D02*
X-41718093Y-40998798D01*
X-41718093Y-40998798D02*
X-41760474Y-40946463D01*
X-41760474Y-40946463D02*
X-41850212Y-40889149D01*
X-41850212Y-40889149D02*
X-42034668Y-40821881D01*
X-42034668Y-40821881D02*
X-42124407Y-40764568D01*
X-42124407Y-40764568D02*
X-42166787Y-40712232D01*
X-42166787Y-40712232D02*
X-42204190Y-40612538D01*
X-42204190Y-40612538D02*
X-42194235Y-40517822D01*
X-42194235Y-40517822D02*
X-42136922Y-40428083D01*
X-42136922Y-40428083D02*
X-42084586Y-40385702D01*
X-42084586Y-40385702D02*
X-41984892Y-40348299D01*
X-41984892Y-40348299D02*
X-41748101Y-40373187D01*
X-41748101Y-40373187D02*
X-41611004Y-40435478D01*
X-41237116Y-40522656D02*
X-41184781Y-40480276D01*
X-41184781Y-40480276D02*
X-41085087Y-40442873D01*
X-41085087Y-40442873D02*
X-40848296Y-40467760D01*
X-40848296Y-40467760D02*
X-40758557Y-40525074D01*
X-40758557Y-40525074D02*
X-40716176Y-40577409D01*
X-40716176Y-40577409D02*
X-40678773Y-40677103D01*
X-40678773Y-40677103D02*
X-40688728Y-40771820D01*
X-40688728Y-40771820D02*
X-40751019Y-40908917D01*
X-40751019Y-40908917D02*
X-41379048Y-41417484D01*
X-41379048Y-41417484D02*
X-40763391Y-41482192D01*
X-39841258Y-40908774D02*
X-39910944Y-41571788D01*
X-40038229Y-40505020D02*
X-40349683Y-41190505D01*
X-40349683Y-41190505D02*
X-39734027Y-41255213D01*
X18595238Y-18254819D02*
X18595238Y-17254819D01*
X19166666Y-18254819D02*
X18738095Y-17683390D01*
X19166666Y-17254819D02*
X18595238Y-17826247D01*
X19976190Y-18207200D02*
X19880952Y-18254819D01*
X19880952Y-18254819D02*
X19690476Y-18254819D01*
X19690476Y-18254819D02*
X19595238Y-18207200D01*
X19595238Y-18207200D02*
X19547619Y-18111961D01*
X19547619Y-18111961D02*
X19547619Y-17731009D01*
X19547619Y-17731009D02*
X19595238Y-17635771D01*
X19595238Y-17635771D02*
X19690476Y-17588152D01*
X19690476Y-17588152D02*
X19880952Y-17588152D01*
X19880952Y-17588152D02*
X19976190Y-17635771D01*
X19976190Y-17635771D02*
X20023809Y-17731009D01*
X20023809Y-17731009D02*
X20023809Y-17826247D01*
X20023809Y-17826247D02*
X19547619Y-17921485D01*
X20357143Y-17588152D02*
X20595238Y-18254819D01*
X20833333Y-17588152D02*
X20595238Y-18254819D01*
X20595238Y-18254819D02*
X20500000Y-18492914D01*
X20500000Y-18492914D02*
X20452381Y-18540533D01*
X20452381Y-18540533D02*
X20357143Y-18588152D01*
X21166667Y-18207200D02*
X21261905Y-18254819D01*
X21261905Y-18254819D02*
X21452381Y-18254819D01*
X21452381Y-18254819D02*
X21547619Y-18207200D01*
X21547619Y-18207200D02*
X21595238Y-18111961D01*
X21595238Y-18111961D02*
X21595238Y-18064342D01*
X21595238Y-18064342D02*
X21547619Y-17969104D01*
X21547619Y-17969104D02*
X21452381Y-17921485D01*
X21452381Y-17921485D02*
X21309524Y-17921485D01*
X21309524Y-17921485D02*
X21214286Y-17873866D01*
X21214286Y-17873866D02*
X21166667Y-17778628D01*
X21166667Y-17778628D02*
X21166667Y-17731009D01*
X21166667Y-17731009D02*
X21214286Y-17635771D01*
X21214286Y-17635771D02*
X21309524Y-17588152D01*
X21309524Y-17588152D02*
X21452381Y-17588152D01*
X21452381Y-17588152D02*
X21547619Y-17635771D01*
X21928572Y-17588152D02*
X22119048Y-18254819D01*
X22119048Y-18254819D02*
X22309524Y-17778628D01*
X22309524Y-17778628D02*
X22500000Y-18254819D01*
X22500000Y-18254819D02*
X22690476Y-17588152D01*
X23071429Y-18254819D02*
X23071429Y-17588152D01*
X23071429Y-17254819D02*
X23023810Y-17302438D01*
X23023810Y-17302438D02*
X23071429Y-17350057D01*
X23071429Y-17350057D02*
X23119048Y-17302438D01*
X23119048Y-17302438D02*
X23071429Y-17254819D01*
X23071429Y-17254819D02*
X23071429Y-17350057D01*
X23404762Y-17588152D02*
X23785714Y-17588152D01*
X23547619Y-17254819D02*
X23547619Y-18111961D01*
X23547619Y-18111961D02*
X23595238Y-18207200D01*
X23595238Y-18207200D02*
X23690476Y-18254819D01*
X23690476Y-18254819D02*
X23785714Y-18254819D01*
X24547619Y-18207200D02*
X24452381Y-18254819D01*
X24452381Y-18254819D02*
X24261905Y-18254819D01*
X24261905Y-18254819D02*
X24166667Y-18207200D01*
X24166667Y-18207200D02*
X24119048Y-18159580D01*
X24119048Y-18159580D02*
X24071429Y-18064342D01*
X24071429Y-18064342D02*
X24071429Y-17778628D01*
X24071429Y-17778628D02*
X24119048Y-17683390D01*
X24119048Y-17683390D02*
X24166667Y-17635771D01*
X24166667Y-17635771D02*
X24261905Y-17588152D01*
X24261905Y-17588152D02*
X24452381Y-17588152D01*
X24452381Y-17588152D02*
X24547619Y-17635771D01*
X24976191Y-18254819D02*
X24976191Y-17254819D01*
X25404762Y-18254819D02*
X25404762Y-17731009D01*
X25404762Y-17731009D02*
X25357143Y-17635771D01*
X25357143Y-17635771D02*
X25261905Y-17588152D01*
X25261905Y-17588152D02*
X25119048Y-17588152D01*
X25119048Y-17588152D02*
X25023810Y-17635771D01*
X25023810Y-17635771D02*
X24976191Y-17683390D01*
X20761905Y-9207200D02*
X20904762Y-9254819D01*
X20904762Y-9254819D02*
X21142857Y-9254819D01*
X21142857Y-9254819D02*
X21238095Y-9207200D01*
X21238095Y-9207200D02*
X21285714Y-9159580D01*
X21285714Y-9159580D02*
X21333333Y-9064342D01*
X21333333Y-9064342D02*
X21333333Y-8969104D01*
X21333333Y-8969104D02*
X21285714Y-8873866D01*
X21285714Y-8873866D02*
X21238095Y-8826247D01*
X21238095Y-8826247D02*
X21142857Y-8778628D01*
X21142857Y-8778628D02*
X20952381Y-8731009D01*
X20952381Y-8731009D02*
X20857143Y-8683390D01*
X20857143Y-8683390D02*
X20809524Y-8635771D01*
X20809524Y-8635771D02*
X20761905Y-8540533D01*
X20761905Y-8540533D02*
X20761905Y-8445295D01*
X20761905Y-8445295D02*
X20809524Y-8350057D01*
X20809524Y-8350057D02*
X20857143Y-8302438D01*
X20857143Y-8302438D02*
X20952381Y-8254819D01*
X20952381Y-8254819D02*
X21190476Y-8254819D01*
X21190476Y-8254819D02*
X21333333Y-8302438D01*
X22285714Y-9254819D02*
X21714286Y-9254819D01*
X22000000Y-9254819D02*
X22000000Y-8254819D01*
X22000000Y-8254819D02*
X21904762Y-8397676D01*
X21904762Y-8397676D02*
X21809524Y-8492914D01*
X21809524Y-8492914D02*
X21714286Y-8540533D01*
X22619048Y-8254819D02*
X23285714Y-8254819D01*
X23285714Y-8254819D02*
X22857143Y-9254819D01*
X19602187Y-64758919D02*
X19497658Y-63764397D01*
X20170485Y-64699188D02*
X19684531Y-64175688D01*
X20065957Y-63704666D02*
X19557389Y-64332695D01*
X20970597Y-64567212D02*
X20880858Y-64624525D01*
X20880858Y-64624525D02*
X20691425Y-64644435D01*
X20691425Y-64644435D02*
X20591731Y-64607032D01*
X20591731Y-64607032D02*
X20534418Y-64517293D01*
X20534418Y-64517293D02*
X20494598Y-64138428D01*
X20494598Y-64138428D02*
X20532001Y-64038734D01*
X20532001Y-64038734D02*
X20621740Y-63981420D01*
X20621740Y-63981420D02*
X20811172Y-63961510D01*
X20811172Y-63961510D02*
X20910866Y-63998913D01*
X20910866Y-63998913D02*
X20968179Y-64088652D01*
X20968179Y-64088652D02*
X20978135Y-64183368D01*
X20978135Y-64183368D02*
X20514508Y-64327860D01*
X21284754Y-63911735D02*
X21591231Y-64549862D01*
X21758336Y-63861959D02*
X21591231Y-64549862D01*
X21591231Y-64549862D02*
X21521402Y-64796608D01*
X21521402Y-64796608D02*
X21479022Y-64848943D01*
X21479022Y-64848943D02*
X21389283Y-64906257D01*
X22154552Y-64442773D02*
X22254246Y-64480176D01*
X22254246Y-64480176D02*
X22443678Y-64460266D01*
X22443678Y-64460266D02*
X22533417Y-64402952D01*
X22533417Y-64402952D02*
X22570820Y-64303259D01*
X22570820Y-64303259D02*
X22565843Y-64255900D01*
X22565843Y-64255900D02*
X22508530Y-64166162D01*
X22508530Y-64166162D02*
X22408836Y-64128758D01*
X22408836Y-64128758D02*
X22266761Y-64143691D01*
X22266761Y-64143691D02*
X22167067Y-64106288D01*
X22167067Y-64106288D02*
X22109754Y-64016549D01*
X22109754Y-64016549D02*
X22104776Y-63969191D01*
X22104776Y-63969191D02*
X22142179Y-63869497D01*
X22142179Y-63869497D02*
X22231918Y-63812184D01*
X22231918Y-63812184D02*
X22373993Y-63797251D01*
X22373993Y-63797251D02*
X22473687Y-63834654D01*
X22847575Y-63747476D02*
X23106693Y-64390580D01*
X23106693Y-64390580D02*
X23246350Y-63897088D01*
X23246350Y-63897088D02*
X23485559Y-64350760D01*
X23485559Y-64350760D02*
X23605306Y-63667835D01*
X24053857Y-64291029D02*
X23984171Y-63628015D01*
X23949328Y-63296507D02*
X23906948Y-63348843D01*
X23906948Y-63348843D02*
X23959284Y-63391224D01*
X23959284Y-63391224D02*
X24001664Y-63338888D01*
X24001664Y-63338888D02*
X23949328Y-63296507D01*
X23949328Y-63296507D02*
X23959284Y-63391224D01*
X24315678Y-63593172D02*
X24694544Y-63553351D01*
X24422910Y-63246732D02*
X24512506Y-64099179D01*
X24512506Y-64099179D02*
X24569819Y-64188918D01*
X24569819Y-64188918D02*
X24669513Y-64226321D01*
X24669513Y-64226321D02*
X24764229Y-64216366D01*
X25516983Y-64089367D02*
X25427244Y-64146680D01*
X25427244Y-64146680D02*
X25237811Y-64166591D01*
X25237811Y-64166591D02*
X25138118Y-64129187D01*
X25138118Y-64129187D02*
X25085782Y-64086807D01*
X25085782Y-64086807D02*
X25028469Y-63997068D01*
X25028469Y-63997068D02*
X24998603Y-63712919D01*
X24998603Y-63712919D02*
X25036006Y-63613225D01*
X25036006Y-63613225D02*
X25078387Y-63560889D01*
X25078387Y-63560889D02*
X25168126Y-63503576D01*
X25168126Y-63503576D02*
X25357559Y-63483666D01*
X25357559Y-63483666D02*
X25457252Y-63521069D01*
X25948184Y-64091927D02*
X25843656Y-63097405D01*
X26374408Y-64047129D02*
X26319655Y-63526189D01*
X26319655Y-63526189D02*
X26262342Y-63436451D01*
X26262342Y-63436451D02*
X26162648Y-63399047D01*
X26162648Y-63399047D02*
X26020573Y-63413980D01*
X26020573Y-63413980D02*
X25930834Y-63471293D01*
X25930834Y-63471293D02*
X25888454Y-63523629D01*
X20811251Y-55534385D02*
X20958303Y-55566811D01*
X20958303Y-55566811D02*
X21195094Y-55541923D01*
X21195094Y-55541923D02*
X21284833Y-55484610D01*
X21284833Y-55484610D02*
X21327214Y-55432274D01*
X21327214Y-55432274D02*
X21364617Y-55332580D01*
X21364617Y-55332580D02*
X21354662Y-55237863D01*
X21354662Y-55237863D02*
X21297348Y-55148125D01*
X21297348Y-55148125D02*
X21245013Y-55105744D01*
X21245013Y-55105744D02*
X21145319Y-55068341D01*
X21145319Y-55068341D02*
X20950908Y-55040893D01*
X20950908Y-55040893D02*
X20851214Y-55003490D01*
X20851214Y-55003490D02*
X20798879Y-54961109D01*
X20798879Y-54961109D02*
X20741565Y-54871370D01*
X20741565Y-54871370D02*
X20731610Y-54776654D01*
X20731610Y-54776654D02*
X20769013Y-54676960D01*
X20769013Y-54676960D02*
X20811394Y-54624624D01*
X20811394Y-54624624D02*
X20901133Y-54567311D01*
X20901133Y-54567311D02*
X21137924Y-54542423D01*
X21137924Y-54542423D02*
X21284976Y-54574849D01*
X21668819Y-54582387D02*
X21711200Y-54530051D01*
X21711200Y-54530051D02*
X21800938Y-54472738D01*
X21800938Y-54472738D02*
X22037729Y-54447850D01*
X22037729Y-54447850D02*
X22137423Y-54485253D01*
X22137423Y-54485253D02*
X22189759Y-54527634D01*
X22189759Y-54527634D02*
X22247072Y-54617373D01*
X22247072Y-54617373D02*
X22257027Y-54712089D01*
X22257027Y-54712089D02*
X22224602Y-54859141D01*
X22224602Y-54859141D02*
X21716034Y-55487170D01*
X21716034Y-55487170D02*
X22331691Y-55422462D01*
X23079610Y-54338344D02*
X22890177Y-54358254D01*
X22890177Y-54358254D02*
X22800438Y-54415567D01*
X22800438Y-54415567D02*
X22758057Y-54467903D01*
X22758057Y-54467903D02*
X22678274Y-54619933D01*
X22678274Y-54619933D02*
X22650826Y-54814343D01*
X22650826Y-54814343D02*
X22690646Y-55193209D01*
X22690646Y-55193209D02*
X22747959Y-55282947D01*
X22747959Y-55282947D02*
X22800295Y-55325328D01*
X22800295Y-55325328D02*
X22899989Y-55362731D01*
X22899989Y-55362731D02*
X23089422Y-55342821D01*
X23089422Y-55342821D02*
X23179160Y-55285508D01*
X23179160Y-55285508D02*
X23221541Y-55233172D01*
X23221541Y-55233172D02*
X23258944Y-55133478D01*
X23258944Y-55133478D02*
X23234056Y-54896687D01*
X23234056Y-54896687D02*
X23176743Y-54806948D01*
X23176743Y-54806948D02*
X23124407Y-54764568D01*
X23124407Y-54764568D02*
X23024714Y-54727165D01*
X23024714Y-54727165D02*
X22835281Y-54747075D01*
X22835281Y-54747075D02*
X22745542Y-54804388D01*
X22745542Y-54804388D02*
X22703161Y-54856724D01*
X22703161Y-54856724D02*
X22665758Y-54956418D01*
%TO.C,S18*%
D11*
X33500000Y-1300000D02*
X33500000Y-16300000D01*
X33500000Y-16300000D02*
X48500000Y-16300000D01*
X48500000Y-1300000D02*
X33500000Y-1300000D01*
X48500000Y-16300000D02*
X48500000Y-1300000D01*
%TO.C,U2*%
D12*
X-10500000Y25500000D02*
X10500000Y25500000D01*
X-10500000Y24200000D02*
X-9200000Y25500000D01*
X-10500000Y-25500000D02*
X-10500000Y25500000D01*
X10500000Y25500000D02*
X10500000Y-25500000D01*
X10500000Y-25500000D02*
X-10500000Y-25500000D01*
%TO.C,S14*%
D11*
X-67500000Y7500000D02*
X-67500000Y-7500000D01*
X-67500000Y-7500000D02*
X-52500000Y-7500000D01*
X-52500000Y7500000D02*
X-67500000Y7500000D01*
X-52500000Y-7500000D02*
X-52500000Y7500000D01*
%TO.C,S9*%
X71500000Y26600000D02*
X71500000Y11600000D01*
X71500000Y11600000D02*
X86500000Y11600000D01*
X86500000Y26600000D02*
X71500000Y26600000D01*
X86500000Y11600000D02*
X86500000Y26600000D01*
%TO.C,S28*%
X51757122Y-38025049D02*
X53325049Y-52942878D01*
X53325049Y-52942878D02*
X68242878Y-51374951D01*
X66674951Y-36457122D02*
X51757122Y-38025049D01*
X68242878Y-51374951D02*
X66674951Y-36457122D01*
%TO.C,S7*%
X33500000Y16700000D02*
X33500000Y1700000D01*
X33500000Y1700000D02*
X48500000Y1700000D01*
X48500000Y16700000D02*
X33500000Y16700000D01*
X48500000Y1700000D02*
X48500000Y16700000D01*
%TO.C,S25*%
X-30242878Y-61674951D02*
X-15325049Y-63242878D01*
X-28674951Y-46757122D02*
X-30242878Y-61674951D01*
X-15325049Y-63242878D02*
X-13757122Y-48325049D01*
X-13757122Y-48325049D02*
X-28674951Y-46757122D01*
%TO.C,S27*%
X32757122Y-34325049D02*
X34325049Y-49242878D01*
X34325049Y-49242878D02*
X49242878Y-47674951D01*
X47674951Y-32757122D02*
X32757122Y-34325049D01*
X49242878Y-47674951D02*
X47674951Y-32757122D01*
%TO.C,S19*%
X52500000Y7500000D02*
X52500000Y-7500000D01*
X52500000Y-7500000D02*
X67500000Y-7500000D01*
X67500000Y7500000D02*
X52500000Y7500000D01*
X67500000Y-7500000D02*
X67500000Y7500000D01*
%TO.C,S16*%
X-29500000Y-1300000D02*
X-29500000Y-16300000D01*
X-29500000Y-16300000D02*
X-14500000Y-16300000D01*
X-14500000Y-1300000D02*
X-29500000Y-1300000D01*
X-14500000Y-16300000D02*
X-14500000Y-1300000D01*
%TO.C,S5*%
X-29500000Y16700000D02*
X-29500000Y1700000D01*
X-29500000Y1700000D02*
X-14500000Y1700000D01*
X-14500000Y16700000D02*
X-29500000Y16700000D01*
X-14500000Y1700000D02*
X-14500000Y16700000D01*
%TO.C,S8*%
X52500000Y25500000D02*
X52500000Y10500000D01*
X52500000Y10500000D02*
X67500000Y10500000D01*
X67500000Y25500000D02*
X52500000Y25500000D01*
X67500000Y10500000D02*
X67500000Y25500000D01*
%TO.C,S23*%
X-68242878Y-51374951D02*
X-53325049Y-52942878D01*
X-66674951Y-36457122D02*
X-68242878Y-51374951D01*
X-53325049Y-52942878D02*
X-51757122Y-38025049D01*
X-51757122Y-38025049D02*
X-66674951Y-36457122D01*
%TO.C,S3*%
X-67500000Y25500000D02*
X-67500000Y10500000D01*
X-67500000Y10500000D02*
X-52500000Y10500000D01*
X-52500000Y25500000D02*
X-67500000Y25500000D01*
X-52500000Y10500000D02*
X-52500000Y25500000D01*
%TO.C,S4*%
X-48500000Y16700000D02*
X-48500000Y1700000D01*
X-48500000Y1700000D02*
X-33500000Y1700000D01*
X-33500000Y16700000D02*
X-48500000Y16700000D01*
X-33500000Y1700000D02*
X-33500000Y16700000D01*
%TO.C,S13*%
X-86500000Y8600000D02*
X-86500000Y-6400000D01*
X-86500000Y-6400000D02*
X-71500000Y-6400000D01*
X-71500000Y8600000D02*
X-86500000Y8600000D01*
X-71500000Y-6400000D02*
X-71500000Y8600000D01*
%TO.C,S20*%
X71500000Y8600000D02*
X71500000Y-6400000D01*
X71500000Y-6400000D02*
X86500000Y-6400000D01*
X86500000Y8600000D02*
X71500000Y8600000D01*
X86500000Y-6400000D02*
X86500000Y8600000D01*
%TO.C,S21*%
X90500000Y-1300000D02*
X90500000Y-16300000D01*
X90500000Y-16300000D02*
X105500000Y-16300000D01*
X105500000Y-1300000D02*
X90500000Y-1300000D01*
X105500000Y-16300000D02*
X105500000Y-1300000D01*
%TO.C,S2*%
X-86500000Y26600000D02*
X-86500000Y11600000D01*
X-86500000Y11600000D02*
X-71500000Y11600000D01*
X-71500000Y26600000D02*
X-86500000Y26600000D01*
X-71500000Y11600000D02*
X-71500000Y26600000D01*
%TO.C,S12*%
X-105500000Y-1300000D02*
X-105500000Y-16300000D01*
X-105500000Y-16300000D02*
X-90500000Y-16300000D01*
X-90500000Y-1300000D02*
X-105500000Y-1300000D01*
X-90500000Y-16300000D02*
X-90500000Y-1300000D01*
%TO.C,S1*%
X-105500000Y16700000D02*
X-105500000Y1700000D01*
X-105500000Y1700000D02*
X-90500000Y1700000D01*
X-90500000Y16700000D02*
X-105500000Y16700000D01*
X-90500000Y1700000D02*
X-90500000Y16700000D01*
%TO.C,S11*%
X108000000Y16700000D02*
X108000000Y1700000D01*
X108000000Y1700000D02*
X123000000Y1700000D01*
X123000000Y16700000D02*
X108000000Y16700000D01*
X123000000Y1700000D02*
X123000000Y16700000D01*
%TO.C,S15*%
X-48500000Y-1300000D02*
X-48500000Y-16300000D01*
X-48500000Y-16300000D02*
X-33500000Y-16300000D01*
X-33500000Y-1300000D02*
X-48500000Y-1300000D01*
X-33500000Y-16300000D02*
X-33500000Y-1300000D01*
%TO.C,S10*%
X90500000Y16700000D02*
X90500000Y1700000D01*
X90500000Y1700000D02*
X105500000Y1700000D01*
X105500000Y16700000D02*
X90500000Y16700000D01*
X105500000Y1700000D02*
X105500000Y16700000D01*
%TO.C,S22*%
X108000000Y-1300000D02*
X108000000Y-16300000D01*
X108000000Y-16300000D02*
X123000000Y-16300000D01*
X123000000Y-1300000D02*
X108000000Y-1300000D01*
X123000000Y-16300000D02*
X123000000Y-1300000D01*
%TO.C,S6*%
X14500000Y16700000D02*
X14500000Y1700000D01*
X14500000Y1700000D02*
X29500000Y1700000D01*
X29500000Y16700000D02*
X14500000Y16700000D01*
X29500000Y1700000D02*
X29500000Y16700000D01*
%TO.C,S24*%
X-49242878Y-47674951D02*
X-34325049Y-49242878D01*
X-47674951Y-32757122D02*
X-49242878Y-47674951D01*
X-34325049Y-49242878D02*
X-32757122Y-34325049D01*
X-32757122Y-34325049D02*
X-47674951Y-32757122D01*
%TO.C,S17*%
X14500000Y-1300000D02*
X14500000Y-16300000D01*
X14500000Y-16300000D02*
X29500000Y-16300000D01*
X29500000Y-1300000D02*
X14500000Y-1300000D01*
X29500000Y-16300000D02*
X29500000Y-1300000D01*
%TO.C,S26*%
X13757122Y-48325049D02*
X15325049Y-63242878D01*
X15325049Y-63242878D02*
X30242878Y-61674951D01*
X28674951Y-46757122D02*
X13757122Y-48325049D01*
X30242878Y-61674951D02*
X28674951Y-46757122D01*
%TD*%
M02*
