%TF.GenerationSoftware,KiCad,Pcbnew,10.0.4-1.fc44*%
%TF.CreationDate,2026-09-30T03:31:27+02:00*%
%TF.ProjectId,bunnyboard_ergo,62756e6e-7962-46f6-9172-645f6572676f,rev?*%
%TF.SameCoordinates,Original*%
%TF.FileFunction,Other,User*%
%FSLAX46Y46*%
G04 Gerber Fmt 4.6, Leading zero omitted, Abs format (unit mm)*
G04 Created by KiCad (PCBNEW 10.0.4-1.fc44) date 2026-09-30 03:31:27*
%MOMM*%
%LPD*%
G01*
G04 APERTURE LIST*
%ADD10C,0.050000*%
G04 APERTURE END LIST*
%TO.C,D25*%
D10*
X-13912040Y-50675502D02*
X-13403334Y-60382181D01*
X-13403334Y-60382181D02*
X-10906760Y-60251341D01*
X-11415466Y-50544662D02*
X-13912040Y-50675502D01*
X-10906760Y-60251341D02*
X-11415466Y-50544662D01*
%TO.C,D16*%
X-14125000Y-3880000D02*
X-14125000Y-13600000D01*
X-14125000Y-13600000D02*
X-11625000Y-13600000D01*
X-11625000Y-3880000D02*
X-14125000Y-3880000D01*
X-11625000Y-13600000D02*
X-11625000Y-3880000D01*
%TO.C,D10*%
X105875000Y14120000D02*
X105875000Y4400000D01*
X105875000Y4400000D02*
X108375000Y4400000D01*
X108375000Y14120000D02*
X105875000Y14120000D01*
X108375000Y4400000D02*
X108375000Y14120000D01*
%TO.C,D4*%
X-33125000Y14120000D02*
X-33125000Y4400000D01*
X-33125000Y4400000D02*
X-30625000Y4400000D01*
X-30625000Y14120000D02*
X-33125000Y14120000D01*
X-30625000Y4400000D02*
X-30625000Y14120000D01*
%TO.C,D15*%
X-33125000Y-3880000D02*
X-33125000Y-13600000D01*
X-33125000Y-13600000D02*
X-30625000Y-13600000D01*
X-30625000Y-3880000D02*
X-33125000Y-3880000D01*
X-30625000Y-13600000D02*
X-30625000Y-3880000D01*
%TO.C,D26*%
X10906760Y-60251341D02*
X13403334Y-60382181D01*
X11415466Y-50544662D02*
X10906760Y-60251341D01*
X13403334Y-60382181D02*
X13912040Y-50675502D01*
X13912040Y-50675502D02*
X11415466Y-50544662D01*
%TO.C,D12*%
X-90125000Y-3880000D02*
X-90125000Y-13600000D01*
X-90125000Y-13600000D02*
X-87625000Y-13600000D01*
X-87625000Y-3880000D02*
X-90125000Y-3880000D01*
X-87625000Y-13600000D02*
X-87625000Y-3880000D01*
%TO.C,D22*%
X123375000Y-3880000D02*
X123375000Y-13600000D01*
X123375000Y-13600000D02*
X125875000Y-13600000D01*
X125875000Y-3880000D02*
X123375000Y-3880000D01*
X125875000Y-13600000D02*
X125875000Y-3880000D01*
%TO.C,D17*%
X29875000Y-3880000D02*
X29875000Y-13600000D01*
X29875000Y-13600000D02*
X32375000Y-13600000D01*
X32375000Y-3880000D02*
X29875000Y-3880000D01*
X32375000Y-13600000D02*
X32375000Y-3880000D01*
%TO.C,D5*%
X-14125000Y14120000D02*
X-14125000Y4400000D01*
X-14125000Y4400000D02*
X-11625000Y4400000D01*
X-11625000Y14120000D02*
X-14125000Y14120000D01*
X-11625000Y4400000D02*
X-11625000Y14120000D01*
%TO.C,D21*%
X105875000Y-3880000D02*
X105875000Y-13600000D01*
X105875000Y-13600000D02*
X108375000Y-13600000D01*
X108375000Y-3880000D02*
X105875000Y-3880000D01*
X108375000Y-13600000D02*
X108375000Y-3880000D01*
%TO.C,D1*%
X-90125000Y14120000D02*
X-90125000Y4400000D01*
X-90125000Y4400000D02*
X-87625000Y4400000D01*
X-87625000Y14120000D02*
X-90125000Y14120000D01*
X-87625000Y4400000D02*
X-87625000Y14120000D01*
%TO.C,D20*%
X86875000Y6020000D02*
X86875000Y-3700000D01*
X86875000Y-3700000D02*
X89375000Y-3700000D01*
X89375000Y6020000D02*
X86875000Y6020000D01*
X89375000Y-3700000D02*
X89375000Y6020000D01*
%TO.C,D8*%
X67875000Y22920000D02*
X67875000Y13200000D01*
X67875000Y13200000D02*
X70375000Y13200000D01*
X70375000Y22920000D02*
X67875000Y22920000D01*
X70375000Y13200000D02*
X70375000Y22920000D01*
%TO.C,D3*%
X-52125000Y22920000D02*
X-52125000Y13200000D01*
X-52125000Y13200000D02*
X-49625000Y13200000D01*
X-49625000Y22920000D02*
X-52125000Y22920000D01*
X-49625000Y13200000D02*
X-49625000Y22920000D01*
%TO.C,D27*%
X29906760Y-46251341D02*
X32403334Y-46382181D01*
X30415466Y-36544662D02*
X29906760Y-46251341D01*
X32403334Y-46382181D02*
X32912040Y-36675502D01*
X32912040Y-36675502D02*
X30415466Y-36544662D01*
%TO.C,D28*%
X48906760Y-49951341D02*
X51403334Y-50082181D01*
X49415466Y-40244662D02*
X48906760Y-49951341D01*
X51403334Y-50082181D02*
X51912040Y-40375502D01*
X51912040Y-40375502D02*
X49415466Y-40244662D01*
%TO.C,D6*%
X29875000Y14120000D02*
X29875000Y4400000D01*
X29875000Y4400000D02*
X32375000Y4400000D01*
X32375000Y14120000D02*
X29875000Y14120000D01*
X32375000Y4400000D02*
X32375000Y14120000D01*
%TO.C,D2*%
X-71125000Y24020000D02*
X-71125000Y14300000D01*
X-71125000Y14300000D02*
X-68625000Y14300000D01*
X-68625000Y24020000D02*
X-71125000Y24020000D01*
X-68625000Y14300000D02*
X-68625000Y24020000D01*
%TO.C,D24*%
X-32912040Y-36675502D02*
X-32403334Y-46382181D01*
X-32403334Y-46382181D02*
X-29906760Y-46251341D01*
X-30415466Y-36544662D02*
X-32912040Y-36675502D01*
X-29906760Y-46251341D02*
X-30415466Y-36544662D01*
%TO.C,D14*%
X-52125000Y4920000D02*
X-52125000Y-4800000D01*
X-52125000Y-4800000D02*
X-49625000Y-4800000D01*
X-49625000Y4920000D02*
X-52125000Y4920000D01*
X-49625000Y-4800000D02*
X-49625000Y4920000D01*
%TO.C,D23*%
X-51912040Y-40375502D02*
X-51403334Y-50082181D01*
X-51403334Y-50082181D02*
X-48906760Y-49951341D01*
X-49415466Y-40244662D02*
X-51912040Y-40375502D01*
X-48906760Y-49951341D02*
X-49415466Y-40244662D01*
%TO.C,D19*%
X67875000Y4920000D02*
X67875000Y-4800000D01*
X67875000Y-4800000D02*
X70375000Y-4800000D01*
X70375000Y4920000D02*
X67875000Y4920000D01*
X70375000Y-4800000D02*
X70375000Y4920000D01*
%TO.C,D11*%
X123375000Y14120000D02*
X123375000Y4400000D01*
X123375000Y4400000D02*
X125875000Y4400000D01*
X125875000Y14120000D02*
X123375000Y14120000D01*
X125875000Y4400000D02*
X125875000Y14120000D01*
%TO.C,D9*%
X86875000Y24020000D02*
X86875000Y14300000D01*
X86875000Y14300000D02*
X89375000Y14300000D01*
X89375000Y24020000D02*
X86875000Y24020000D01*
X89375000Y14300000D02*
X89375000Y24020000D01*
%TO.C,D13*%
X-71125000Y6020000D02*
X-71125000Y-3700000D01*
X-71125000Y-3700000D02*
X-68625000Y-3700000D01*
X-68625000Y6020000D02*
X-71125000Y6020000D01*
X-68625000Y-3700000D02*
X-68625000Y6020000D01*
%TO.C,D7*%
X48875000Y14120000D02*
X48875000Y4400000D01*
X48875000Y4400000D02*
X51375000Y4400000D01*
X51375000Y14120000D02*
X48875000Y14120000D01*
X51375000Y4400000D02*
X51375000Y14120000D01*
%TO.C,D18*%
X48875000Y-3880000D02*
X48875000Y-13600000D01*
X48875000Y-13600000D02*
X51375000Y-13600000D01*
X51375000Y-3880000D02*
X48875000Y-3880000D01*
X51375000Y-13600000D02*
X51375000Y-3880000D01*
%TD*%
M02*
