%TF.GenerationSoftware,KiCad,Pcbnew,10.0.4-1.fc44*%
%TF.CreationDate,2026-09-30T03:19:51+02:00*%
%TF.ProjectId,bunnyboard_ergo,62756e6e-7962-46f6-9172-645f6572676f,rev?*%
%TF.SameCoordinates,Original*%
%TF.FileFunction,Legend,Bot*%
%TF.FilePolarity,Positive*%
%FSLAX46Y46*%
G04 Gerber Fmt 4.6, Leading zero omitted, Abs format (unit mm)*
G04 Created by KiCad (PCBNEW 10.0.4-1.fc44) date 2026-09-30 03:19:51*
%MOMM*%
%LPD*%
G01*
G04 APERTURE LIST*
%ADD10C,0.100000*%
G04 APERTURE END LIST*
%TO.C,D25*%
D10*
X-11848119Y-54185664D02*
X-10754144Y-54300645D01*
X-11636223Y-53604630D02*
X-10840606Y-53688252D01*
X-11301134Y-54243154D02*
X-11636223Y-53604630D01*
X-11301134Y-54243154D02*
X-11342943Y-54640963D01*
X-11186150Y-53149180D02*
X-11238414Y-53646441D01*
X-10840606Y-53688252D02*
X-11301134Y-54243154D01*
%TO.C,D16*%
X-13425000Y-9090000D02*
X-12325000Y-9090000D01*
X-13275000Y-8490000D02*
X-12475000Y-8490000D01*
X-12875000Y-7990000D02*
X-12875000Y-8490000D01*
X-12875000Y-9090000D02*
X-13275000Y-8490000D01*
X-12875000Y-9090000D02*
X-12875000Y-9490000D01*
X-12475000Y-8490000D02*
X-12875000Y-9090000D01*
%TO.C,D10*%
X106575000Y8910000D02*
X107675000Y8910000D01*
X106725000Y9510000D02*
X107525000Y9510000D01*
X107125000Y10010000D02*
X107125000Y9510000D01*
X107125000Y8910000D02*
X106725000Y9510000D01*
X107125000Y8910000D02*
X107125000Y8510000D01*
X107525000Y9510000D02*
X107125000Y8910000D01*
%TO.C,D4*%
X-32425000Y8910000D02*
X-31325000Y8910000D01*
X-32275000Y9510000D02*
X-31475000Y9510000D01*
X-31875000Y10010000D02*
X-31875000Y9510000D01*
X-31875000Y8910000D02*
X-32275000Y9510000D01*
X-31875000Y8910000D02*
X-31875000Y8510000D01*
X-31475000Y9510000D02*
X-31875000Y8910000D01*
%TO.C,D15*%
X-32425000Y-9090000D02*
X-31325000Y-9090000D01*
X-32275000Y-8490000D02*
X-31475000Y-8490000D01*
X-31875000Y-7990000D02*
X-31875000Y-8490000D01*
X-31875000Y-9090000D02*
X-32275000Y-8490000D01*
X-31875000Y-9090000D02*
X-31875000Y-9490000D01*
X-31475000Y-8490000D02*
X-31875000Y-9090000D01*
%TO.C,D26*%
X10754144Y-54300645D02*
X11848119Y-54185664D01*
X10840606Y-53688252D02*
X11636223Y-53604630D01*
X11186150Y-53149180D02*
X11238414Y-53646441D01*
X11301134Y-54243154D02*
X10840606Y-53688252D01*
X11301134Y-54243154D02*
X11342943Y-54640963D01*
X11636223Y-53604630D02*
X11301134Y-54243154D01*
%TO.C,D12*%
X-89425000Y-9090000D02*
X-88325000Y-9090000D01*
X-89275000Y-8490000D02*
X-88475000Y-8490000D01*
X-88875000Y-7990000D02*
X-88875000Y-8490000D01*
X-88875000Y-9090000D02*
X-89275000Y-8490000D01*
X-88875000Y-9090000D02*
X-88875000Y-9490000D01*
X-88475000Y-8490000D02*
X-88875000Y-9090000D01*
%TO.C,D22*%
X124075000Y-9090000D02*
X125175000Y-9090000D01*
X124225000Y-8490000D02*
X125025000Y-8490000D01*
X124625000Y-7990000D02*
X124625000Y-8490000D01*
X124625000Y-9090000D02*
X124225000Y-8490000D01*
X124625000Y-9090000D02*
X124625000Y-9490000D01*
X125025000Y-8490000D02*
X124625000Y-9090000D01*
%TO.C,D17*%
X30575000Y-9090000D02*
X31675000Y-9090000D01*
X30725000Y-8490000D02*
X31525000Y-8490000D01*
X31125000Y-7990000D02*
X31125000Y-8490000D01*
X31125000Y-9090000D02*
X30725000Y-8490000D01*
X31125000Y-9090000D02*
X31125000Y-9490000D01*
X31525000Y-8490000D02*
X31125000Y-9090000D01*
%TO.C,D5*%
X-13425000Y8910000D02*
X-12325000Y8910000D01*
X-13275000Y9510000D02*
X-12475000Y9510000D01*
X-12875000Y10010000D02*
X-12875000Y9510000D01*
X-12875000Y8910000D02*
X-13275000Y9510000D01*
X-12875000Y8910000D02*
X-12875000Y8510000D01*
X-12475000Y9510000D02*
X-12875000Y8910000D01*
%TO.C,D21*%
X106575000Y-9090000D02*
X107675000Y-9090000D01*
X106725000Y-8490000D02*
X107525000Y-8490000D01*
X107125000Y-7990000D02*
X107125000Y-8490000D01*
X107125000Y-9090000D02*
X106725000Y-8490000D01*
X107125000Y-9090000D02*
X107125000Y-9490000D01*
X107525000Y-8490000D02*
X107125000Y-9090000D01*
%TO.C,D1*%
X-89425000Y8910000D02*
X-88325000Y8910000D01*
X-89275000Y9510000D02*
X-88475000Y9510000D01*
X-88875000Y10010000D02*
X-88875000Y9510000D01*
X-88875000Y8910000D02*
X-89275000Y9510000D01*
X-88875000Y8910000D02*
X-88875000Y8510000D01*
X-88475000Y9510000D02*
X-88875000Y8910000D01*
%TO.C,D20*%
X87575000Y810000D02*
X88675000Y810000D01*
X87725000Y1410000D02*
X88525000Y1410000D01*
X88125000Y1910000D02*
X88125000Y1410000D01*
X88125000Y810000D02*
X87725000Y1410000D01*
X88125000Y810000D02*
X88125000Y410000D01*
X88525000Y1410000D02*
X88125000Y810000D01*
%TO.C,D8*%
X68575000Y17710000D02*
X69675000Y17710000D01*
X68725000Y18310000D02*
X69525000Y18310000D01*
X69125000Y18810000D02*
X69125000Y18310000D01*
X69125000Y17710000D02*
X68725000Y18310000D01*
X69125000Y17710000D02*
X69125000Y17310000D01*
X69525000Y18310000D02*
X69125000Y17710000D01*
%TO.C,D3*%
X-51425000Y17710000D02*
X-50325000Y17710000D01*
X-51275000Y18310000D02*
X-50475000Y18310000D01*
X-50875000Y18810000D02*
X-50875000Y18310000D01*
X-50875000Y17710000D02*
X-51275000Y18310000D01*
X-50875000Y17710000D02*
X-50875000Y17310000D01*
X-50475000Y18310000D02*
X-50875000Y17710000D01*
%TO.C,D27*%
X29754144Y-40300645D02*
X30848119Y-40185664D01*
X29840606Y-39688252D02*
X30636223Y-39604630D01*
X30186150Y-39149180D02*
X30238414Y-39646441D01*
X30301134Y-40243154D02*
X29840606Y-39688252D01*
X30301134Y-40243154D02*
X30342943Y-40640963D01*
X30636223Y-39604630D02*
X30301134Y-40243154D01*
%TO.C,D28*%
X50743144Y-44209645D02*
X51837119Y-44094664D01*
X50829606Y-43597252D02*
X51625223Y-43513630D01*
X51175150Y-43058180D02*
X51227414Y-43555441D01*
X51290134Y-44152154D02*
X50829606Y-43597252D01*
X51290134Y-44152154D02*
X51331943Y-44549963D01*
X51625223Y-43513630D02*
X51290134Y-44152154D01*
%TO.C,D6*%
X30575000Y8910000D02*
X31675000Y8910000D01*
X30725000Y9510000D02*
X31525000Y9510000D01*
X31125000Y10010000D02*
X31125000Y9510000D01*
X31125000Y8910000D02*
X30725000Y9510000D01*
X31125000Y8910000D02*
X31125000Y8510000D01*
X31525000Y9510000D02*
X31125000Y8910000D01*
%TO.C,D2*%
X-70425000Y18810000D02*
X-69325000Y18810000D01*
X-70275000Y19410000D02*
X-69475000Y19410000D01*
X-69875000Y19910000D02*
X-69875000Y19410000D01*
X-69875000Y18810000D02*
X-70275000Y19410000D01*
X-69875000Y18810000D02*
X-69875000Y18410000D01*
X-69475000Y19410000D02*
X-69875000Y18810000D01*
%TO.C,D24*%
X-30848119Y-40185664D02*
X-29754144Y-40300645D01*
X-30636223Y-39604630D02*
X-29840606Y-39688252D01*
X-30301134Y-40243154D02*
X-30636223Y-39604630D01*
X-30301134Y-40243154D02*
X-30342943Y-40640963D01*
X-30186150Y-39149180D02*
X-30238414Y-39646441D01*
X-29840606Y-39688252D02*
X-30301134Y-40243154D01*
%TO.C,D14*%
X-51425000Y-290000D02*
X-50325000Y-290000D01*
X-51275000Y310000D02*
X-50475000Y310000D01*
X-50875000Y810000D02*
X-50875000Y310000D01*
X-50875000Y-290000D02*
X-51275000Y310000D01*
X-50875000Y-290000D02*
X-50875000Y-690000D01*
X-50475000Y310000D02*
X-50875000Y-290000D01*
%TO.C,D23*%
X-51837119Y-44094664D02*
X-50743144Y-44209645D01*
X-51625223Y-43513630D02*
X-50829606Y-43597252D01*
X-51290134Y-44152154D02*
X-51625223Y-43513630D01*
X-51290134Y-44152154D02*
X-51331943Y-44549963D01*
X-51175150Y-43058180D02*
X-51227414Y-43555441D01*
X-50829606Y-43597252D02*
X-51290134Y-44152154D01*
%TO.C,D19*%
X68575000Y-290000D02*
X69675000Y-290000D01*
X68725000Y310000D02*
X69525000Y310000D01*
X69125000Y810000D02*
X69125000Y310000D01*
X69125000Y-290000D02*
X68725000Y310000D01*
X69125000Y-290000D02*
X69125000Y-690000D01*
X69525000Y310000D02*
X69125000Y-290000D01*
%TO.C,D11*%
X124075000Y8910000D02*
X125175000Y8910000D01*
X124225000Y9510000D02*
X125025000Y9510000D01*
X124625000Y10010000D02*
X124625000Y9510000D01*
X124625000Y8910000D02*
X124225000Y9510000D01*
X124625000Y8910000D02*
X124625000Y8510000D01*
X125025000Y9510000D02*
X124625000Y8910000D01*
%TO.C,D9*%
X87575000Y18810000D02*
X88675000Y18810000D01*
X87725000Y19410000D02*
X88525000Y19410000D01*
X88125000Y19910000D02*
X88125000Y19410000D01*
X88125000Y18810000D02*
X87725000Y19410000D01*
X88125000Y18810000D02*
X88125000Y18410000D01*
X88525000Y19410000D02*
X88125000Y18810000D01*
%TO.C,D13*%
X-70425000Y810000D02*
X-69325000Y810000D01*
X-70275000Y1410000D02*
X-69475000Y1410000D01*
X-69875000Y1910000D02*
X-69875000Y1410000D01*
X-69875000Y810000D02*
X-70275000Y1410000D01*
X-69875000Y810000D02*
X-69875000Y410000D01*
X-69475000Y1410000D02*
X-69875000Y810000D01*
%TO.C,D7*%
X49575000Y8910000D02*
X50675000Y8910000D01*
X49725000Y9510000D02*
X50525000Y9510000D01*
X50125000Y10010000D02*
X50125000Y9510000D01*
X50125000Y8910000D02*
X49725000Y9510000D01*
X50125000Y8910000D02*
X50125000Y8510000D01*
X50525000Y9510000D02*
X50125000Y8910000D01*
%TO.C,D18*%
X49575000Y-9090000D02*
X50675000Y-9090000D01*
X49725000Y-8490000D02*
X50525000Y-8490000D01*
X50125000Y-7990000D02*
X50125000Y-8490000D01*
X50125000Y-9090000D02*
X49725000Y-8490000D01*
X50125000Y-9090000D02*
X50125000Y-9490000D01*
X50525000Y-8490000D02*
X50125000Y-9090000D01*
%TD*%
M02*
